<svg id="Layer_5" data-name="Layer 5" xmlns="http://www.w3.org/2000/svg" viewBox="0 0 50 48.725">
  <defs>
    <style>
      .cls-1 {
        fill: #545f78;
      }
    </style>
  </defs>
  <path class="cls-1" d="M22.087,22.173l.81,2.619v.1H17.652q.012-.034.021-.069c.021-.065.041-.13.061-.2.033-.1.064-.205.1-.307.042-.134.083-.268.125-.4q.075-.243.151-.485.084-.274.17-.548c.061-.2.123-.4.185-.6s.131-.421.2-.632l.2-.653c.067-.217.134-.436.2-.655l.2-.644c.063-.206.125-.411.188-.616l.175-.575c.051-.172.1-.344.154-.517.045-.146.088-.294.132-.442.053-.18.107-.364.154-.548s.081-.372.123-.557c.012-.057.027-.115.042-.171l.015-.051c.014-.036.044.064.047.076s.014.049.02.072c.021.076.044.152.065.228.061.211.122.422.181.635.056.2.114.393.167.589.016.059.034.117.047.175C20.824,18.238,22.087,22.173,22.087,22.173Z"/>
  <path class="cls-1" d="M50,8.944A8.807,8.807,0,0,0,42.892.184,9.313,9.313,0,0,0,41.074.008Q25-.007,8.926,0A8.821,8.821,0,0,0,.283,6.651C.169,7.1.123,7.562.045,8.017.031,8.1.015,8.174,0,8.251V40.474c.081.486.14.978.247,1.458a8.838,8.838,0,0,0,7.045,6.649c.319.052.64.1.96.144h33.5c.5-.083,1-.139,1.486-.254a8.8,8.8,0,0,0,6.619-7.05,10.246,10.246,0,0,0,.14-1.65Q50.007,24.357,50,8.944ZM30.78,34.273a.152.152,0,0,1-.065.028.314.314,0,0,1-.068.007H26.105a.152.152,0,0,1-.065-.022A.07.07,0,0,1,26,34.254a.237.237,0,0,0-.017-.036c-.033-.078-.067-.155-.1-.233-.021-.05-.044-.1-.066-.152l-1.625-4.7-7.769,0c-.032.1-.066.2-.1.3-.089.28-.179.559-.268.838-.122.376-.243.754-.365,1.131-.125.393-.252.785-.379,1.179-.1.329-.21.658-.315.986-.036.112-.075.224-.109.337a.726.726,0,0,1-.108.269.4.4,0,0,1-.359.136h-4a.192.192,0,0,1-.1-.058.452.452,0,0,1-.009-.194.736.736,0,0,1,.034-.208l.052-.154c.028-.078.055-.156.081-.233.036-.1.071-.208.107-.311l.13-.381c.053-.149.1-.3.155-.446.057-.169.115-.337.174-.506l.192-.562q.106-.3.21-.611.114-.328.227-.656c.079-.233.16-.465.239-.7l.252-.731q.132-.38.262-.762c.091-.261.18-.523.271-.785s.184-.537.277-.806.188-.547.282-.82.19-.553.285-.831l.287-.834.287-.834.285-.828q.139-.408.281-.816l.276-.8.268-.779c.086-.253.173-.5.259-.755l.25-.723c.078-.229.156-.458.236-.686s.148-.43.221-.647c.07-.2.138-.4.206-.6.064-.181.126-.364.189-.547q.084-.246.169-.491l.147-.43.125-.363c.034-.1.068-.194.1-.291l.075-.214.044-.133c.016-.043.035-.087.05-.131a1.317,1.317,0,0,0,.042-.361c.005-.117.009-.232.011-.349s0-.262,0-.393c0-.062.07-.117.112-.155a.113.113,0,0,1,.094-.029h5.465l.1.049,7.67,21.541a.073.073,0,0,1,0,.025v.245C30.788,34.241,30.792,34.262,30.78,34.273Zm7-.09a.224.224,0,0,1-.223.222H33.375a.252.252,0,0,1-.251-.251V17.933a.169.169,0,0,1,.169-.169h4.282a.2.2,0,0,1,.2.2ZM35.463,16.059a2.688,2.688,0,1,1,2.646-2.687A2.666,2.666,0,0,1,35.463,16.059Z"/>
</svg>
