<svg id="Layer_5" data-name="Layer 5" xmlns="http://www.w3.org/2000/svg" viewBox="0 0 50 48.111">
  <defs>
    <style>
      .cls-1 {
        fill: #545f78;
      }
    </style>
  </defs>
  <path class="cls-1" d="M6.405,6.721a39.233,39.233,0,0,0-1.266,4.631,24,24,0,0,0-.475,4.5,21.1,21.1,0,0,0,1.622,8.3,28.5,28.5,0,0,0,10.731,12.5,28.559,28.559,0,0,0,15.7,4.991A21.117,21.117,0,0,0,40.979,39.9a23.971,23.971,0,0,0,3.959-2.19,39.646,39.646,0,0,0,3.773-2.968,18.724,18.724,0,0,1-2.238,4.475,19.567,19.567,0,0,1-3.438,3.869A20.777,20.777,0,0,1,33.4,47.674a25.679,25.679,0,0,1-10.807-.3A31.044,31.044,0,0,1,4.974,35.7a25.693,25.693,0,0,1-4.492-9.83A21.611,21.611,0,0,1,.019,20.46a20.227,20.227,0,0,1,.928-5.254,19.6,19.6,0,0,1,2.216-4.675A18.762,18.762,0,0,1,6.405,6.721Z"/>
  <path class="cls-1" d="M19.218,2.392a30.1,30.1,0,0,0-.9,3.372,18.24,18.24,0,0,0-.352,3.288,15.411,15.411,0,0,0,1.141,6.087,19.858,19.858,0,0,0,7.872,9.054,19.893,19.893,0,0,0,11.556,3.218,15.469,15.469,0,0,0,5.985-1.581A18.144,18.144,0,0,0,47.338,24.1,30.466,30.466,0,0,0,50,21.846a14.263,14.263,0,0,1-1.573,3.265,14.713,14.713,0,0,1-2.407,2.861,15.259,15.259,0,0,1-6.834,3.572,18.246,18.246,0,0,1-7.832.069A21.832,21.832,0,0,1,18.4,23.422a18.261,18.261,0,0,1-3.3-7.1,15.279,15.279,0,0,1,.293-7.7,14.764,14.764,0,0,1,1.548-3.4A14.3,14.3,0,0,1,19.218,2.392Z"/>
  <path class="cls-1" d="M29.8,0c-.1.352-.213.685-.321,1.013a3.876,3.876,0,0,0-.125.5l-.115.493a3.3,3.3,0,0,0-.08.494l-.062.488a2.894,2.894,0,0,0-.031.484l-.009.478a8.962,8.962,0,0,0,.791,3.566,11.921,11.921,0,0,0,1.982,3.032,15.456,15.456,0,0,0,2.741,2.438A15.529,15.529,0,0,0,37.8,14.72a11.972,11.972,0,0,0,3.527.817,8.982,8.982,0,0,0,3.618-.484l.446-.172.227-.088c.076-.029.143-.073.216-.108l.438-.225a3.445,3.445,0,0,0,.436-.244l.424-.277a4.188,4.188,0,0,0,.429-.29c.27-.214.546-.433.841-.649a7.881,7.881,0,0,1-2.628,3.537,8.961,8.961,0,0,1-4.338,1.718c-.392.033-.787.056-1.184.079-.392-.013-.787-.029-1.181-.055-.387-.052-.78-.1-1.166-.166-.38-.088-.763-.173-1.14-.276a14.284,14.284,0,0,1-4.18-2.013,14.3,14.3,0,0,1-3.326-3.235c-.227-.318-.438-.649-.651-.975s-.374-.693-.557-1.038c-.159-.361-.311-.726-.457-1.09-.115-.381-.229-.759-.333-1.138a8.973,8.973,0,0,1,.12-4.663A7.9,7.9,0,0,1,29.8,0Z"/>
</svg>
