<svg xmlns="http://www.w3.org/2000/svg" xmlns:xlink="http://www.w3.org/1999/xlink" viewBox="0 0 85.482 90.277">
  <defs>
    <style>
      .cls-1 {
        isolation: isolate;
      }

      .cls-2 {
        fill: url(#radial-gradient);
      }

      .cls-3, .cls-5 {
        mix-blend-mode: lighten;
      }

      .cls-4 {
        fill: #6bc655;
      }

      .cls-5 {
        fill: none;
        stroke: #6bc655;
        stroke-linecap: round;
        stroke-linejoin: round;
      }
    </style>
    <radialGradient id="radial-gradient" cx="45.798" cy="39.844" fx="3.7182117923259668" r="42.136" gradientTransform="matrix(0.84, -0.543, 0.542, 0.839, -18.921, 33.223)" gradientUnits="userSpaceOnUse">
      <stop offset="0.11" stop-color="#26bc2d"/>
      <stop offset="0.229" stop-color="#1bb64e"/>
      <stop offset="0.45" stop-color="#08ad87"/>
      <stop offset="0.556" stop-color="#00a99d"/>
      <stop offset="0.623" stop-color="#00a495"/>
      <stop offset="0.726" stop-color="#00967f"/>
      <stop offset="0.853" stop-color="#007f5b"/>
      <stop offset="0.961" stop-color="#006837"/>
    </radialGradient>
  </defs>
  <g class="cls-1">
    <g id="bitten_monstera" data-name="bitten monstera">
      <path class="cls-2" d="M63.718,87.381c.1.55.22,1.12.29,1.45.01-.01.02,0,.04,0A6.62,6.62,0,0,0,63.718,87.381Zm21.7-40.66a55.557,55.557,0,0,1-2.71-8.08,38.016,38.016,0,0,0-2.03-5.68,17.451,17.451,0,0,0-2.93-4.75,11.423,11.423,0,0,0-4.4-2.44,10.325,10.325,0,0,0-4.67-.64,94.5,94.5,0,0,0-15.66,3.42c-.9.26-1.78.52-2.68.79-.76.23-1.67.7-2.4.15a1.868,1.868,0,0,1-.59-.84c-.32-.86.93-1.09,1.49-1.27.89-.29,1.79-.52,2.69-.72a143.374,143.374,0,0,1,16.98-2.9,28.353,28.353,0,0,1,3.67-.29c1.21.05,2.39.24,3.6.37.38.05,1.73.26,1.8-.35.05-.39-.62-.72-.85-.94-2.57-2.37-4.4-5.27-6.49-8.03-1.12-1.46-2.49-3.29-4.14-4.16a6.562,6.562,0,0,0-4.62-.16,52.486,52.486,0,0,0-8.01,2.82c-.71.3-1.43.61-2.11.96a5.137,5.137,0,0,1-1.72.69,1.521,1.521,0,0,1-1.24-.39.579.579,0,0,1-.15-.25c-.04-.23.17-.42.35-.56a16.152,16.152,0,0,1,5.25-2.41c1.51-.4,3-.87,4.47-1.4a28.307,28.307,0,0,0,2.8-1.14,7.171,7.171,0,0,0,2.45-1.28.385.385,0,0,0,.13-.26.391.391,0,0,0-.1-.19,3.609,3.609,0,0,0-1.49-1.03c-2.75-1.09-5.54-2.1-8.32-3.11a49.923,49.923,0,0,0-7.35-2.36c-5.02-1.02-10.26.77-14.63,3.23-3.94,2.22-7.44,6.26-6.75,11.1a9.775,9.775,0,0,0,.81,2.74c1.17,2.53,3,4.69,4.01,7.3.17.45.28,1.06-.11,1.34a1.083,1.083,0,0,1-1.17-.15c-1.55-.93-2.51-2.49-3.63-3.85a15.053,15.053,0,0,0-5-4.29c-2.14-.97-4.49-.68-6.71-.2a18.056,18.056,0,0,0-4.96,1.58,14.1,14.1,0,0,0-4.41,3.79c-3.08,4.01-3.63,8.96-3.85,13.87a31.468,31.468,0,0,0,3.2,15.82,25.464,25.464,0,0,0,3.73,5.2c.24.27.78.72,1.06.28.15-.22.04-.67.04-.92.02-.33.05-.66.1-.98a20.9,20.9,0,0,1,2-4.87,29.96,29.96,0,0,1,2.85-4.98,28.255,28.255,0,0,1,5.39-5.8,1.259,1.259,0,0,1,.62-.31c.41-.03.61.43.5.77a6.609,6.609,0,0,1-1.04,1.46c-.34.48-.68.96-1.03,1.45a53.823,53.823,0,0,0-4.31,6.29,24.677,24.677,0,0,0-1.6,3.56,17.417,17.417,0,0,0-1.26,7.89c.4,2.76,1.89,5.23,3.34,7.54a31.274,31.274,0,0,0,5.52,6.67,8.127,8.127,0,0,0,2.32,1.83c.53.18.12-1.42.09-1.67-.09-.76-.17-1.54-.2-2.31a32.888,32.888,0,0,1,.06-4.55,26.9,26.9,0,0,1,.91-5.13,72.644,72.644,0,0,1,2.94-8.19c.68-1.68,1.36-3.37,2.05-5.05a3.167,3.167,0,0,1,.67-1.17,1.122,1.122,0,0,1,1.25-.27,1.1,1.1,0,0,1,.51.98,3.053,3.053,0,0,1-.26,1.11c-.76,2.14-1.53,4.28-2.29,6.42a77.878,77.878,0,0,0-3.16,10.22,31.718,31.718,0,0,0-.71,5.99,21.12,21.12,0,0,0,.16,2.97,10.653,10.653,0,0,0,.44,2.69c1.36,3.57,5.59,5.69,8.97,6.86,1.07.37,2.11.78,3.14,1.25a2.422,2.422,0,0,1,.37-1.31A2.65,2.65,0,0,1,37.9,85.3a16.135,16.135,0,0,1-.58-2.17,51,51,0,0,1-.67-8.18,55.423,55.423,0,0,1,.29-8.35c.15-1.35.36-2.69.56-4.03.17-1.12.14-2.55.99-3.41a1.007,1.007,0,0,1,.55-.32c.82-.13,1.06,1.47,1.09,2.03a25.979,25.979,0,0,1-.46,4.12c-.15,1.45-.26,2.88-.37,4.32a29.247,29.247,0,0,0,1.63,13.56A13.116,13.116,0,0,0,42.4,85.7c.53-1.28,1.52-2.44,3.05-2.26a2.632,2.632,0,0,1,1.77,1.42,9.984,9.984,0,0,1,1.29,2.62.548.548,0,0,0,.23.38.4.4,0,0,0,.35.07c.2-.12.05-.63-.03-1.46a4.807,4.807,0,0,1,0-1.32,2.882,2.882,0,0,1,.98-1.62,3.46,3.46,0,0,1,2.74-.67,4.144,4.144,0,0,1,2,.95,5.58,5.58,0,0,1,1.84,3.16c.05.25.18,1.14.28,1.79.02,0,.03-.01.04,0-.01-.48.01-.97.01-1.44.02-1.22-.14-2.8.74-3.79,1.51-1.69,4.19-.28,5.06,1.33a18.913,18.913,0,0,1,.84,2.16c.04.11.09.24.13.36-.16-.76-.3-1.49-.3-1.5a3.263,3.263,0,0,1,.95-2.71,4.269,4.269,0,0,1,.72-.69,4.151,4.151,0,0,1,1.42-.77c2.19-.63,4.42.82,5.62,2.58.04.07.09.14.13.22,1.21-1.37,2.51-2.67,3.66-4.09,2.09-2.59,3.55-5.83,2.79-9.21-.55-2.46-2.25-4.19-4.19-5.66a23.714,23.714,0,0,0-6.32-3.32c-1.42-.51-2.87-.97-4.25-1.59a15.822,15.822,0,0,1-4.17-2.78,1.746,1.746,0,0,1-.43-.51c-.23-.49.19-1.01.63-1.19a2.646,2.646,0,0,1,1.34-.04c2.89.5,5.5,2.16,8.09,3.41a46.464,46.464,0,0,1,6.48,3.59c2.14,1.5,4.2,3.17,6.23,4.78.24.19.76.64,1.1.49.39-.16.23-.78.16-1.09-.41-1.72-.07-3.6-.01-5.35.07-1.93.1-3.86.05-5.79a13.563,13.563,0,0,0-2.98-7.51c-1.62-2.09-4.22-3.12-6.63-4.05a41.785,41.785,0,0,0-13.41-2.86c-2.56-.1-5.12-.07-7.67-.27-.7-.06-1.24-.42-.94-1.16a1.462,1.462,0,0,1,.36-.57,1.425,1.425,0,0,1,.66-.3c2.37-.62,4.87-.25,7.29-.08a62.84,62.84,0,0,1,7.74.91,45.744,45.744,0,0,1,14.71,5.81,4.783,4.783,0,0,0,2.73,1.02.159.159,0,0,0,.13-.03C85.528,47.011,85.478,46.841,85.418,46.721Zm-65.9-14.35c-1.48.46-2.97.65-4.42,1.26a19.348,19.348,0,0,0-7.25,5.33,19.819,19.819,0,0,0-2.39,3.81c-.34.64-1.26,2.24-1.9.97a1.78,1.78,0,0,1-.18-.72,7.611,7.611,0,0,1-.02-1.35,12.482,12.482,0,0,1,5.48-9.18c3.28-2.23,7.14-2.25,10.96-1.98C21.488,30.621,20.728,32,19.518,32.371Zm8.28,2.82a2.976,2.976,0,0,1-1.36,1.42,11.338,11.338,0,0,1-1.94.9,5.808,5.808,0,0,1-1.33.35.852.852,0,0,1-.32-.03c-.71-.26-.16-1.43.05-1.86a4.792,4.792,0,0,1,2-2.06,2.825,2.825,0,0,1,2.43-.4A1.455,1.455,0,0,1,27.8,35.191Zm12.12-4.27a5.378,5.378,0,0,1,4.02-.53.856.856,0,0,1,.47.38.777.777,0,0,1-.03.71,4.444,4.444,0,0,1-1.84,1.7c-.93.51-2.76.7-3.54-.21C38.388,32.251,39.338,31.291,39.918,30.921Zm8.11,9.26c.21.51-.46,1.38-1.25,1.84a4.657,4.657,0,0,1-2.64.54c-.81-.1-.83-.77-.32-1.5.04-.06.09-.12.12-.16a3.136,3.136,0,0,1,2.18-1.08C46.8,39.781,47.838,39.7,48.028,40.181Zm-9.86-32.32a6.066,6.066,0,0,1,2.3-3.77,8.117,8.117,0,0,1,6.86-1.17c.72.22,1.82,1.09.59,1.52a12.925,12.925,0,0,0-4.63,2.2,8.773,8.773,0,0,0-2.66,4.17,6.185,6.185,0,0,1-1.26,2.75c-.2.2-.49.49-.8.49-.44.02-.6-.82-.65-1.9A25.794,25.794,0,0,1,38.168,7.861Zm2.56,11.02a9.28,9.28,0,0,1,2.64-1.3,4.522,4.522,0,0,1,1.72-.15c1.03.14.51.9.01,1.45a19.473,19.473,0,0,1-3.21,2.59,2.944,2.944,0,0,0-1.26,1.44c-.12.4-.14.82-.29,1.21a2.2,2.2,0,0,1-1.21,1.15.709.709,0,0,1-.69-.06,1.065,1.065,0,0,1-.26-.34,3.727,3.727,0,0,1-.32-1.07C37.628,21.851,39.208,19.951,40.728,18.881Zm-6.5,20.97A18.767,18.767,0,0,1,33.5,42a10.342,10.342,0,0,1-2.53,3.72c-.92.83-.78-1.02-.71-1.43A7.216,7.216,0,0,1,33.3,39.2q.375-.27.75-.51C34.738,38.281,34.288,39.611,34.228,39.851Zm7.3,13.01c-.21,1.07-1.99,2.15-2.87,1.08-.69-.85.52-2.37,1.43-3.24a7.107,7.107,0,0,1,.65-.55C41.768,49.421,41.618,52.441,41.528,52.861Zm8.33,15.28a.917.917,0,0,1-.7-.39,5.224,5.224,0,0,1-.94-2.43c-.16-.86-.43-2.23.45-2.8a1.14,1.14,0,0,1,.19-.1c.75-.33,1.32.71,1.57,1.24a5.794,5.794,0,0,1,.54,1.89C51.078,66.341,51,68.081,49.858,68.141Zm3.17-15.68a5.123,5.123,0,0,1,2.17,1.71c.78,1.05-1.34,1.33-1.98,1.2-1.17-.26-2.65-.91-3-2.18a.8.8,0,0,1,.04-.59.863.863,0,0,1,.29-.31A3.23,3.23,0,0,1,53.028,52.461Z"/>
    </g>
    <g id="veins">
      <g class="cls-3">
        <path class="cls-4" d="M65.088,82.481a4.269,4.269,0,0,0-.72.69l-2.99-3.4c-4.07-5-7.05-10.81-9.93-16.42-1.45-2.84-2.96-5.78-4.58-8.57-2.09-3.57-4.46-7.07-6.75-10.45a125.655,125.655,0,0,1-9.41-15.4.5.5,0,0,1,.24-.66.489.489,0,0,1,.66.23,126.587,126.587,0,0,0,9.33,15.27c2.31,3.39,4.69,6.9,6.79,10.51,1.64,2.81,3.15,5.76,4.61,8.61,2.86,5.57,5.81,11.33,9.8,16.24Z"/>
      </g>
      <path class="cls-5" d="M33.821,34.862A22.191,22.191,0,0,0,24.839,43.4,66.224,66.224,0,0,0,19.6,54.791l-2.387,6.191c-.738,1.915-1.488,3.979-1,5.972"/>
      <path class="cls-5" d="M40.535,44.84c-4.885,3.93-7.129,10.222-8.793,16.266-1.868,6.785-3.281,14.093-1.051,20.768"/>
      <path class="cls-5" d="M44.034,48.682a33.441,33.441,0,0,1,35.08,6.425"/>
      <path class="cls-5" d="M37.781,39.406a72.854,72.854,0,0,1,18.6-6.838,36.473,36.473,0,0,1,19.6,1.148"/>
      <path class="cls-5" d="M67.59,18.1c-12.551.264-23.874,7.217-34.29,14.224-.971-.716-3.493-2.512-4.523-3.138a20.32,20.32,0,0,0-24.8,2.865"/>
      <path class="cls-5" d="M31.438,29.276a30.365,30.365,0,0,1,.814-18.017,28.27,28.27,0,0,1,3.265-6.19"/>
      <path class="cls-5" d="M32.628,31.44A28.189,28.189,0,0,1,53.547,7.414"/>
      <path class="cls-5" d="M33.574,33.461a17.979,17.979,0,0,0-9.313-.3,19.178,19.178,0,0,0-7.5,3.908A33.682,33.682,0,0,0,7.029,49.194"/>
    </g>
  </g>
</svg>
