<svg id="Layer_13" data-name="Layer 13" xmlns="http://www.w3.org/2000/svg" viewBox="0 0 22.536 37.399">
  <defs>
    <style>
      .cls-1, .cls-2, .cls-3, .cls-4, .cls-5 {
        fill: none;
      }

      .cls-1, .cls-2, .cls-4 {
        stroke: #00a0d0;
      }

      .cls-1 {
        stroke-miterlimit: 10;
      }

      .cls-1, .cls-4, .cls-5 {
        stroke-width: 0.5px;
      }

      .cls-2, .cls-3, .cls-4, .cls-5 {
        stroke-linecap: round;
        stroke-linejoin: round;
      }

      .cls-2, .cls-3 {
        stroke-width: 0.75px;
      }

      .cls-3, .cls-5 {
        stroke: #00a6d0;
      }
    </style>
  </defs>
  <circle class="cls-1" cx="3.842" cy="18.842" r="3.592"/>
  <path class="cls-2" d="M1.957,18.054a2.317,2.317,0,0,1,2.188-1.1"/>
  <path class="cls-3" d="M4.494,21.222a2.252,2.252,0,0,0,1.484-1.131"/>
  <circle class="cls-1" cx="14.447" cy="23.447" r="3.197"/>
  <path class="cls-4" d="M14.141,21.526a2.056,2.056,0,0,1,1.955.964"/>
  <path class="cls-5" d="M13.252,25.027a2.015,2.015,0,0,0,1.6.447"/>
  <circle class="cls-1" cx="4.724" cy="28.724" r="2.474"/>
  <path class="cls-4" d="M3.322,28.459a1.592,1.592,0,0,1,1.3-1.08"/>
  <path class="cls-5" d="M5.519,30.186a1.555,1.555,0,0,0,.818-.991"/>
  <circle class="cls-1" cx="9.2" cy="35.2" r="1.95"/>
  <path class="cls-4" d="M9.2,34.1a1.255,1.255,0,0,1,1.013.859"/>
  <path class="cls-5" d="M8.266,35.814a1.184,1.184,0,0,0,.376.34,1.2,1.2,0,0,0,.5.16"/>
  <circle class="cls-1" cx="17.768" cy="11.768" r="4.518"/>
  <path class="cls-2" d="M18.022,8.977a2.909,2.909,0,0,1,2.35,1.991"/>
  <path class="cls-3" d="M15.6,13.473a2.836,2.836,0,0,0,2.041,1.16"/>
  <circle class="cls-1" cx="5.708" cy="5.708" r="5.458"/>
  <path class="cls-2" d="M5.15,2.436A3.514,3.514,0,0,1,8.5,4.046"/>
  <path class="cls-3" d="M3.78,9.04a3.43,3.43,0,0,0,2.739.732"/>
</svg>
