<svg xmlns="http://www.w3.org/2000/svg" viewBox="0 0 23.036 37.899">
  <defs>
    <style>
      .cls-1 {
        isolation: isolate;
      }

      .cls-2 {
        fill: #00a0d0;
        stroke: #00789c;
        stroke-miterlimit: 10;
      }

      .cls-3, .cls-4 {
        fill: none;
        stroke: #b9fffc;
        stroke-linecap: round;
        stroke-linejoin: round;
      }

      .cls-3 {
        stroke-width: 0.75px;
      }

      .cls-4 {
        stroke-width: 0.5px;
      }

      .cls-5 {
        mix-blend-mode: multiply;
      }

      .cls-6 {
        opacity: 0.8;
      }

      .cls-7 {
        fill: #dce9ed;
      }

      .cls-8 {
        fill: #cde0e6;
      }

      .cls-9 {
        fill: #d9e7eb;
      }

      .cls-10 {
        fill: #e8f1f3;
      }

      .cls-11 {
        fill: #cbdee4;
      }

      .cls-12 {
        fill: #c7dce2;
      }
    </style>
  </defs>
  <g class="cls-1">
    <g id="Layer_13" data-name="Layer 13">
      <circle class="cls-2" cx="4.092" cy="19.092" r="3.592"/>
      <path class="cls-3" d="M5.028,16.286a2.317,2.317,0,0,1,1.861,1.591"/>
      <path class="cls-3" d="M2.4,21.448a2.055,2.055,0,0,0,.492.394,2.1,2.1,0,0,0,.612.241"/>
      <circle class="cls-2" cx="14.697" cy="23.697" r="3.197"/>
      <path class="cls-4" d="M14.794,21.118a2.059,2.059,0,0,1,1.955.965"/>
      <path class="cls-4" d="M13.327,26.015a1.739,1.739,0,0,0,.56.271,1.768,1.768,0,0,0,.646.066"/>
      <circle class="cls-2" cx="4.974" cy="28.974" r="2.474"/>
      <path class="cls-4" d="M5.4,27.158a1.59,1.59,0,0,1,1.319,1.051"/>
      <path class="cls-4" d="M4.041,30.675a.625.625,0,0,0,.2.173.637.637,0,0,0,.268.076"/>
      <circle class="cls-2" cx="9.45" cy="35.45" r="1.95"/>
      <path class="cls-4" d="M9.777,34.026a1.271,1.271,0,0,1,.619.275,1.258,1.258,0,0,1,.395.585"/>
      <path class="cls-4" d="M8.582,36.569a1.492,1.492,0,0,0,.592.337"/>
      <circle class="cls-2" cx="18.018" cy="12.018" r="4.518"/>
      <path class="cls-3" d="M18.83,8.231a2.909,2.909,0,0,1,2.349,1.991"/>
      <path class="cls-3" d="M15.771,15.169a1.776,1.776,0,0,0,.814.463"/>
      <circle class="cls-2" cx="5.958" cy="5.958" r="5.458"/>
      <path class="cls-3" d="M5.754,1.187a5.888,5.888,0,0,1,2.154.565,5.9,5.9,0,0,1,1.878,1.37"/>
      <path class="cls-3" d="M3.461,10.065a3.355,3.355,0,0,0,.792.479,3.371,3.371,0,0,0,.929.265"/>
    </g>
    <g id="Layer_2" data-name="Layer 2">
      <g class="cls-5">
        <g class="cls-6">
          <g class="cls-6">
            <path class="cls-7" d="M5.566,8.69a7.416,7.416,0,0,1-1.612-.371c-.256-.085-.51-.15-.782-.254a3.407,3.407,0,0,1-.4-.182A1.609,1.609,0,0,1,2.36,7.55,1.091,1.091,0,0,1,2.136,7.1a1.031,1.031,0,0,0,.025.265,1.282,1.282,0,0,0,.406.668,2.332,2.332,0,0,0,.516.352,6.272,6.272,0,0,0,.971.352,8.245,8.245,0,0,0,1.925.3,9.769,9.769,0,0,0,1.206-.12,4.566,4.566,0,0,0,1.357-.38c.105-.055.057-.162.032-.212a.893.893,0,0,1-.319-.088,3.9,3.9,0,0,1-2.042.341C5.983,8.553,5.708,8.714,5.566,8.69Z"/>
            <polygon class="cls-8" points="8.287 8.238 8.268 8.229 8.177 8.279 8.287 8.238"/>
            <path class="cls-9" d="M6.633,8.618a3.035,3.035,0,0,1-.681-.011,1.3,1.3,0,0,1-.386.083,7.416,7.416,0,0,1-1.612-.371c-.256-.085-.51-.15-.782-.254a3.407,3.407,0,0,1-.4-.182A1.609,1.609,0,0,1,2.36,7.55,1.1,1.1,0,0,1,2.137,7.1a1.1,1.1,0,0,0,.031.284,1.483,1.483,0,0,0,.615.815,2.915,2.915,0,0,0,.712.351l.075,0a2.482,2.482,0,0,1,.7.206A12.852,12.852,0,0,0,6.2,9.005c.247,0,.506-.122.794-.108l.3.007a4.248,4.248,0,0,0,1.27-.376c.105-.057.056-.161.031-.212a.826.826,0,0,1-.178-.033,2.6,2.6,0,0,1-.969.232,5.219,5.219,0,0,1-.854.073A.239.239,0,0,0,6.633,8.618Z"/>
            <path class="cls-8" d="M6.611,8.445c-.039,0-.092.077-.022.143a5.219,5.219,0,0,0,.854-.073A3.172,3.172,0,0,1,6.611,8.445Z"/>
            <path class="cls-10" d="M6.669,8.05A6.321,6.321,0,0,1,5.2,7.9a1.859,1.859,0,0,1-.591-.356L4.4,7.5a5.728,5.728,0,0,1-.915-.224c-.278-.132-.281-.145-.3-.253-.076-.085.423-.45.909-.587A15.02,15.02,0,0,1,5.705,6c.186-.046.367-.1.545-.157l.915-.281,1.653-.513a.259.259,0,0,1-.041-.2c.009-.065.161-.046.11-.149l-.216-.32a2.15,2.15,0,0,0-.456-.518,2.282,2.282,0,0,0-1.238-.435,7.173,7.173,0,0,0-.829-.039,4.6,4.6,0,0,0-.531.039c-.654.079-1.3.228-1.995.327-.374.055-.4.512-.309.511a12.206,12.206,0,0,1,1.545-.1c.255,0,.51.007.764.019l.584.042a2.165,2.165,0,0,1,.741.171.876.876,0,0,1,.3.243c-.093.034-.223.053-.33.087l-.274.088-.343.11-.492.144L4.566,5.43c-.411.122-.817.214-1.251.382a2.909,2.909,0,0,0-.644.345,1.289,1.289,0,0,0-.524.811L2.136,7.1a1.091,1.091,0,0,0,.224.453,1.609,1.609,0,0,0,.415.333,3.407,3.407,0,0,0,.4.182c.272.1.526.169.782.254a7.416,7.416,0,0,0,1.612.371c.142.024.417-.137.647-.112a3.9,3.9,0,0,0,2.042-.341,3.6,3.6,0,0,1-.476-.321A1.947,1.947,0,0,1,6.669,8.05Z"/>
            <path class="cls-11" d="M6.669,8.05a1.947,1.947,0,0,0,1.11-.134.741.741,0,0,0-.211-.1c-.848-.168-1.992-.1-2.961-.268A1.859,1.859,0,0,0,5.2,7.9,6.321,6.321,0,0,0,6.669,8.05Z"/>
            <path class="cls-9" d="M6.669,8.05a1.979,1.979,0,0,0,1.067-.114H7.388a6.3,6.3,0,0,1-1.944-.219A7.894,7.894,0,0,0,7.5,7.8c-.845-.152-1.944-.08-2.886-.252A1.847,1.847,0,0,0,5.2,7.9,6.321,6.321,0,0,0,6.669,8.05Z"/>
            <path class="cls-12" d="M5.58,8.03a4.5,4.5,0,0,0,2.367,0l-.122-.089H7.736a1.979,1.979,0,0,1-1.067.114A6.321,6.321,0,0,1,5.2,7.9a1.847,1.847,0,0,1-.589-.355l-.2-.04a5.769,5.769,0,0,1-.924-.225c-.281-.133-.288-.147-.308-.256.019-.079,0-.084.153-.211a4.165,4.165,0,0,1,2.212-.862c-.383.109-.762.236-1.134.383Q5.045,6.141,5.691,6c.185-.045.365-.1.543-.157l.9-.277c.044-.116.123-.23.389-.314.313-.1.69-.175.925-.268a.548.548,0,0,0-.02-.1c.032-.013.221.013.267-.017-.071.038-.09.092-.049.154a.608.608,0,0,0-.2.147l.367-.119a.259.259,0,0,1-.04-.19c.024-.044.078-.064.126-.1.051,0-.02-.069-.04-.109l-.087-.131a4.5,4.5,0,0,0-.318-.435l-.124-.074A2.128,2.128,0,0,0,7.5,3.781c.1.031.19.066.281.1a4.879,4.879,0,0,1-.567-.124c.095,0,.194.009.286.019a4.581,4.581,0,0,0-.814-.176c.387.05.8.088,1.125.162a4.387,4.387,0,0,0-1-.213c-.346-.043-.806-.083-1-.134l.039-.012c-.729.066-1.446.239-2.216.349-.374.054-.4.511-.309.51A13.014,13.014,0,0,1,5.691,4.2l.459.032.3.034A1.589,1.589,0,0,1,7,4.432.274.274,0,0,0,7.147,4.2a.116.116,0,0,1-.035-.1.188.188,0,0,1,.035.1c.061.069.244.133.215.235-.068.026-.03.07.275.089a.156.156,0,0,0,.005.125c.023.046-.1.03-.135.048a2.388,2.388,0,0,1-.416.051L7,4.746l-.1-.009-.264.085-.444.141-.735.212-1.572.448a5.235,5.235,0,0,1,.763-.054,5.867,5.867,0,0,0,1.465-.454c.1-.051.2.015.332-.013-.34.329-1.039.35-1.547.546-.348.127-.787.213-1.221.355-.416.14-.9.4-.994.827A1.389,1.389,0,0,0,2.668,7a1.113,1.113,0,0,0,.242.714.582.582,0,0,1-.333-.3A.717.717,0,0,1,2.5,6.987a.906.906,0,0,1,.3-.541,2.209,2.209,0,0,1,.46-.322,7.808,7.808,0,0,1,1-.413,3.942,3.942,0,0,0-1.047.335,2.194,2.194,0,0,0-.489.326,1.068,1.068,0,0,0-.352.608.953.953,0,0,0,.11.6.842.842,0,0,1-.151-.6,1.123,1.123,0,0,1,.355-.635l.444-.4a.978.978,0,0,0-.149.023,1.947,1.947,0,0,0-.479.34,1.2,1.2,0,0,0-.349.659L2.137,7.1a1.1,1.1,0,0,0,.223.447,1.609,1.609,0,0,0,.415.333,3.407,3.407,0,0,0,.4.182c.272.1.526.169.782.254a7.416,7.416,0,0,0,1.612.371,1.3,1.3,0,0,0,.386-.083c-.35-.041-.69-.123-1.035-.184a1.872,1.872,0,0,1,.376.191c-.334-.034-.577-.205-.9-.26a5.024,5.024,0,0,1,.527.069l-.625-.214c.434,0,.78.309,1.235.218a1.863,1.863,0,0,1-.268-.051l.274.049-.006,0a3.172,3.172,0,0,0,.814-.035,12.438,12.438,0,0,1-1.347-.268L4.766,8.1l.228.028,1.583.2a3.823,3.823,0,0,0,1.6-.048l.091-.05c-.044-.021-.085-.042-.125-.066a2.931,2.931,0,0,1-1.281.089A8.561,8.561,0,0,1,5.58,8.03Z"/>
          </g>
        </g>
      </g>
      <g class="cls-5">
        <g class="cls-6">
          <g class="cls-6">
            <path class="cls-7" d="M18.479,13.646a3.1,3.1,0,0,1-.623-.08,5.658,5.658,0,0,1-.785-.224,5.349,5.349,0,0,1-1.251-.622,1.012,1.012,0,0,1-.2-.223.96.96,0,0,0,.02.125,1.118,1.118,0,0,0,.378.605,3.049,3.049,0,0,0,1,.5,5.548,5.548,0,0,0,.645.156c.171.032.265.044.4.058a5.656,5.656,0,0,0,.73.028c.295-.029.581-.095.873-.147a2.32,2.32,0,0,0,1.144-.4c.091-.081.009-.171-.029-.21a.509.509,0,0,1-.3-.031,1.413,1.413,0,0,1-.747.271,5.367,5.367,0,0,1-.773.048C18.788,13.482,18.586,13.659,18.479,13.646Z"/>
            <path class="cls-8" d="M20.505,13.176l-.017-.007c-.02.02-.042.034-.063.052A.707.707,0,0,0,20.505,13.176Z"/>
            <path class="cls-9" d="M19.27,13.521a1.945,1.945,0,0,1-.5.017.834.834,0,0,1-.286.108,3.1,3.1,0,0,1-.623-.08,5.658,5.658,0,0,1-.785-.224,5.349,5.349,0,0,1-1.251-.622,1.07,1.07,0,0,1-.2-.22,1.1,1.1,0,0,0,.023.134,1.263,1.263,0,0,0,.7.814l.1.022c.336.065.541.216.865.307l.917.122a3.654,3.654,0,0,0,.728.025c.181-.013.37-.142.576-.128a1.423,1.423,0,0,1,.213.013,2.117,2.117,0,0,0,1.081-.4c.089-.084.007-.171-.033-.209a.518.518,0,0,1-.17.008,1.217,1.217,0,0,1-.753.223,5.756,5.756,0,0,1-.633.065A.112.112,0,0,0,19.27,13.521Z"/>
            <path class="cls-8" d="M19.253,13.349c-.029,0-.068.079-.015.143a5.756,5.756,0,0,0,.633-.065A2.464,2.464,0,0,1,19.253,13.349Z"/>
            <path class="cls-10" d="M19.293,12.953c-.4-.058-.791.074-1.1-.066-.154-.062-.356-.18-.311-.285h-.03a.667.667,0,0,1-.268-.027c-.1-.01-.22-.151-.1-.194a.644.644,0,0,1,.289-.044.615.615,0,0,1,.132.019c.017,0,.149.007.221.011h.438a2.327,2.327,0,0,0,1.424-.413.959.959,0,0,0,.252-.371A.7.7,0,0,0,20.1,11a2.328,2.328,0,0,0-.939-.862,3.21,3.21,0,0,0-1.794-.3c-.5.052-1,.179-1.519.261-.281.046-.3.5-.233.5a7.023,7.023,0,0,1,2.461.123,4.205,4.205,0,0,1,.664.188.582.582,0,0,1,.264.2.251.251,0,0,1,.048.167c-.015.056-.063.074-.1.1a1.329,1.329,0,0,1-.524.136c-.1.008-.193.011-.311.012l-.585.009a4.368,4.368,0,0,0-1.28.2,1.421,1.421,0,0,0-.454.253.609.609,0,0,0-.17.513,1.012,1.012,0,0,0,.2.223,5.349,5.349,0,0,0,1.251.622,5.658,5.658,0,0,0,.785.224,3.1,3.1,0,0,0,.623.08c.107.013.309-.164.48-.15a5.367,5.367,0,0,0,.773-.048,1.413,1.413,0,0,0,.747-.271,1.091,1.091,0,0,1-.386-.325A1.2,1.2,0,0,1,19.293,12.953Z"/>
            <path class="cls-11" d="M19.293,12.953a1.2,1.2,0,0,0,.8-.1.557.557,0,0,0-.134-.119A8.614,8.614,0,0,0,17.88,12.6c-.045.105.157.223.311.285C18.5,13.027,18.892,12.9,19.293,12.953Z"/>
            <path class="cls-9" d="M19.293,12.953a1.241,1.241,0,0,0,.776-.086,1.736,1.736,0,0,0-.23-.021,5.682,5.682,0,0,1-1.469-.161,9.214,9.214,0,0,0,1.542.029A9.875,9.875,0,0,0,17.88,12.6c-.044.105.158.222.311.284C18.5,13.027,18.892,12.9,19.293,12.953Z"/>
            <path class="cls-12" d="M18.476,12.987a6.349,6.349,0,0,0,.909.1,1.6,1.6,0,0,0,.825-.11l-.088-.1-.053-.009a1.241,1.241,0,0,1-.776.086c-.4-.058-.791.074-1.1-.066-.153-.062-.355-.179-.311-.284h-.028a.669.669,0,0,1-.275-.028c-.108-.011-.218-.163-.091-.2-.078-.079.037-.137.171-.144.181-.012.128.029.689.056-.543.018-.491.019-.573.047a.738.738,0,0,1,.128.019,6.337,6.337,0,0,0,.638.013,2.806,2.806,0,0,0,1.3-.309c-.046-.1-.074-.2.036-.284.071-.08.167-.123.224-.23a.4.4,0,0,0-.07-.406c-.013-.033.081-.027.055-.1a1.655,1.655,0,0,1,.146.554.681.681,0,0,0-.128-.587,2.819,2.819,0,0,0-.631-.694l-.138-.045a2.614,2.614,0,0,0-.772-.105l.274.079a1.719,1.719,0,0,1-.486-.077l.212,0-.547-.141a1.769,1.769,0,0,0,.314.043l.449.04-.432-.092-.279-.048a3.566,3.566,0,0,1-.553-.136l.032-.011c-.562.034-1.112.184-1.689.274-.282.046-.3.5-.233.5a6.431,6.431,0,0,1,1.731,0c.283.036.567.088.841.149.146.035.285.074.423.116a.2.2,0,0,0-.033-.2.286.286,0,0,1-.078-.092.57.57,0,0,1,.078.092c.076.061.211.086.239.157-.027.027.012.049.188.019.007.09.314.211.168.359a.371.371,0,0,1-.136.021c.026.093-.053.133-.105.162a1.524,1.524,0,0,1-.674.143,12.842,12.842,0,0,0-1.425.07,2.741,2.741,0,0,1,.816.1,2.024,2.024,0,0,0,1.025-.076c.054-.03.208.044.311.035,0,.131-.241.172-.467.178s-.465-.021-.667,0c-.256.026-.605-.014-.988.036a1.8,1.8,0,0,0-.513.133c-.141.051-.293.157-.247.325a.822.822,0,0,1,.162.307l.107.212a.44.44,0,0,1-.271-.164.484.484,0,0,1-.131-.435c.055-.169.217-.23.358-.287a4.013,4.013,0,0,1,.967-.231,2.4,2.4,0,0,0-1.106.2.514.514,0,0,0-.344.343.763.763,0,0,0,.092.472.539.539,0,0,1-.105-.566c.1-.2.27-.243.343-.374a.9.9,0,0,0-.148.023.81.81,0,0,0-.313.243.642.642,0,0,0-.1.431,1.07,1.07,0,0,0,.2.22,5.349,5.349,0,0,0,1.251.622,5.658,5.658,0,0,0,.785.224,3.1,3.1,0,0,0,.623.08.834.834,0,0,0,.286-.108c-.261-.021-.518-.076-.78-.11a1.164,1.164,0,0,1,.287.161c-.267-.011-.4-.15-.743-.2.187.009.334.025.456.039-.14-.061-.341-.107-.514-.174.394-.013.625.253.974.132a1.17,1.17,0,0,1-.2-.03l.207.029h0a2.049,2.049,0,0,0,.606-.081c-.358-.006-.669-.144-1.009-.179l-.171-.01a1.2,1.2,0,0,1,.171.01c.393.023.786.063,1.184.106a2.559,2.559,0,0,0,1.2-.011c.021-.018.043-.032.063-.052a.651.651,0,0,1-.115-.058,1.76,1.76,0,0,1-.934.041A8.23,8.23,0,0,1,18.476,12.987Z"/>
          </g>
        </g>
      </g>
      <g class="cls-5">
        <g class="cls-6">
          <g class="cls-6">
            <path class="cls-7" d="M4.886,21.039a1.293,1.293,0,0,1-.745-.192,1.71,1.71,0,0,1-.508-.436l-.1-.124-.016.085a.784.784,0,0,0,.462.824,1.884,1.884,0,0,0,1.141.128,8.832,8.832,0,0,0,.893-.569c.035-.018-.023-.115-.053-.164a1.362,1.362,0,0,1-.191-.151,1.218,1.218,0,0,1-.635.4C5.052,20.845,4.977,21.042,4.886,21.039Z"/>
            <polygon class="cls-8" points="5.785 20.447 5.773 20.436 5.748 20.462 5.785 20.447"/>
            <path class="cls-9" d="M5.292,20.829a.452.452,0,0,1-.246.075c-.042.059-.11.136-.16.135a1.293,1.293,0,0,1-.745-.192,1.71,1.71,0,0,1-.508-.436l-.1-.123-.017.091a.762.762,0,0,0,.209.636l.043.011c.161.016.206.139.338.2.208.032.389.068.582.086a1.984,1.984,0,0,0,.3,0,.839.839,0,0,0,.218-.047c.1-.036.18-.188.294-.211a.476.476,0,0,1,.116-.027,2.626,2.626,0,0,1,.4-.273c.036-.018-.023-.115-.052-.163a1.1,1.1,0,0,1-.1-.075c-.109.043-.208.1-.319.133a1.052,1.052,0,0,1-.274.158Z"/>
            <path class="cls-8" d="M5.243,20.663c-.013,0-.013.086.027.142a1.052,1.052,0,0,0,.274-.158A.518.518,0,0,1,5.243,20.663Z"/>
            <path class="cls-10" d="M5.166,20.274c-.159-.013-.29.141-.341.032a.273.273,0,0,1,.027-.246l-.014,0c-.1.055-.194-.029-.143-.112.029-.059.018-.031.108-.146a2.178,2.178,0,0,0,.341-.563.9.9,0,0,0,.034-.377,1.013,1.013,0,0,0-.789-.8c-.217-.095-.336-.28-.575-.405-.633-.306-.941.294-1.4.4-.121.028-.22.469-.185.479.5-.023.879-.1,1.222-.085a1.343,1.343,0,0,1,.769.272.289.289,0,0,1,.1.187c.02.143-.079.292-.237.465a2.21,2.21,0,0,0-.549.9l.1.124a1.71,1.71,0,0,0,.508.436,1.293,1.293,0,0,0,.745.192c.091,0,.166-.194.249-.2a1.218,1.218,0,0,0,.635-.4c-.126-.118-.237-.252-.324-.345C5.383,20.2,5.286,20.3,5.166,20.274Z"/>
            <path class="cls-11" d="M5.166,20.274c.12.026.217-.072.28-.179a.691.691,0,0,0-.112-.1.468.468,0,0,0-.369-.026c-.1.03-.049.08-.113.094a.273.273,0,0,0-.027.246C4.876,20.415,5.007,20.261,5.166,20.274Z"/>
            <path class="cls-9" d="M5.166,20.274a.274.274,0,0,0,.271-.164.307.307,0,0,0-.113,0,1.876,1.876,0,0,1-.255.048c-.1.007-.181-.01-.175-.069a.569.569,0,0,0,.176-.016.725.725,0,0,0,.236-.094.467.467,0,0,0-.35-.008c-.078.031-.047.079-.1.091a.27.27,0,0,0-.027.245C4.876,20.415,5.007,20.261,5.166,20.274Z"/>
            <path class="cls-12" d="M4.889,20.381a.67.67,0,0,0,.665-.173l-.083-.091-.034-.007a.274.274,0,0,1-.271.164c-.159-.013-.29.141-.341.032a.27.27,0,0,1,.027-.245l-.014,0c-.1.057-.2-.031-.142-.116-.056-.05-.064-.087,0-.18.087-.131.21-.253.336-.465-.078.215-.162.357-.226.5a2.154,2.154,0,0,0,.334-.549.906.906,0,0,0,.036-.386.92.92,0,0,0-.1-.3.459.459,0,0,1-.3-.114c-.115-.114-.226-.242-.393-.239-.014-.013.038-.079.008-.1a.582.582,0,0,0,.322.1,1.167,1.167,0,0,0-.321-.132,2.468,2.468,0,0,1-.435-.32L3.9,17.746a.536.536,0,0,0-.293.074l.109.022a.247.247,0,0,1-.184.023l.075-.045-.244-.032a.723.723,0,0,0,.312-.071,1.824,1.824,0,0,1-.564-.032l.013-.016a3.6,3.6,0,0,1-.706.4c-.12.029-.221.469-.184.479a4.8,4.8,0,0,1,1.571-.026.925.925,0,0,0-.1-.21.241.241,0,0,1-.059-.078l.059.078c.054.05.124.058.168.127,0,.032.032.051.079-.02.052.1.177.089.195.2a.24.24,0,0,1-.021.056.69.69,0,0,1,.1.067.289.289,0,0,1,.1.184c.02.155-.09.309-.274.508a1.122,1.122,0,0,1,.293-.106c.161-.025.156-.275.1-.41V18.9c-.029-.034.062-.07.055-.113a.192.192,0,0,1,.128.108c.059.154-.077.3-.12.431a1.325,1.325,0,0,1-.283.34c-.115.123-.208.293-.156.414.055.087-.078.216-.119.358-.062-.012-.071-.088-.068-.125a2.146,2.146,0,0,1,.4-.875,1.6,1.6,0,0,0-.56.966c-.045-.24.156-.446.127-.66a.526.526,0,0,0-.085.045,1.531,1.531,0,0,0-.224.5l.1.123a1.71,1.71,0,0,0,.508.436,1.293,1.293,0,0,0,.745.192c.05,0,.118-.076.16-.135a2.979,2.979,0,0,1-.446-.048A.691.691,0,0,1,4.751,21c-.173.006-.25-.132-.39-.149a1.228,1.228,0,0,1,.239.008c-.074-.052-.153-.081-.22-.126.189-.052.275.2.485.052a.284.284,0,0,1-.105-.014l.107.012,0,0a.455.455,0,0,0,.279-.139c-.169.033-.308-.08-.433-.086l-.073.007a.276.276,0,0,1,.073-.007,3.347,3.347,0,0,0,1.037-.095l.025-.026-.082-.08A1.035,1.035,0,0,1,4.889,20.381Z"/>
          </g>
        </g>
      </g>
      <g class="cls-5">
        <g class="cls-6">
          <g class="cls-6">
            <path class="cls-7" d="M15.645,24.451c-.363-.264-.441-1.006-.53-.945a.148.148,0,0,0,.027-.042l-.011.021a.519.519,0,0,1-.153.132c-.1.062-.088.051-.09.062a.114.114,0,0,0-.005.041,1.067,1.067,0,0,0,.1.39,1.55,1.55,0,0,0,.623.7,4.471,4.471,0,0,0,1.125.174c.042.008.054-.1.059-.161a1.21,1.21,0,0,1-.067-.237,1.114,1.114,0,0,1-.772-.115C15.887,24.419,15.688,24.5,15.645,24.451Z"/>
            <polygon class="cls-8" points="16.735 24.604 16.732 24.588 16.694 24.593 16.735 24.604"/>
            <path class="cls-9" d="M16.086,24.574a.468.468,0,0,1-.244-.119c-.079.007-.171.025-.2,0-.363-.264-.441-1.006-.53-.945a.148.148,0,0,0,.027-.042l-.011.022a.343.343,0,0,1-.075.075c-.034.035-.2.128-.165.113a.325.325,0,0,0,.006.164l.027.023c.114.081.077.222.132.33.222.249.36.5.665.641.108.051.274-.01.383.053a.536.536,0,0,1,.114.059,5.125,5.125,0,0,1,.523.045c.042.007.053-.106.058-.162a1.043,1.043,0,0,1-.041-.123,2.738,2.738,0,0,1-.35-.1.987.987,0,0,1-.324-.067A.122.122,0,0,0,16.086,24.574Z"/>
            <path class="cls-8" d="M16.159,24.419c-.011-.009-.068.053-.075.122a.987.987,0,0,0,.324.067A.532.532,0,0,1,16.159,24.419Z"/>
            <path class="cls-10" d="M16.362,24.078c-.1-.11-.308-.091-.316-.259a.405.405,0,0,1,.1-.271.188.188,0,0,1-.027-.036c-.07-.056-.09-.154-.263-.44a.883.883,0,0,0-.494-.363.849.849,0,0,0-.605.071c-.3.112-.522.571-.482.493-.022.03-.042.047-.071.026-.02,0,0,.07-.007.21a.559.559,0,0,1-.175.383c-.106-.011-.087-.324-.046-.467.062-.2.017-.122-.109-.183a1.393,1.393,0,0,1-.408-.561c-.046-.125-.5-.135-.5-.1.052.218.093.429.131.638a6.794,6.794,0,0,0,.183.808c.162.5.515.964,1.045.809.381-.166.466-.49.6-.824.055-.162.153-.494.2-.421.023-.018.071.032.052,0a.243.243,0,0,1-.019-.124.148.148,0,0,1-.027.042c.089-.061.167.681.53.945.043.048.242-.032.309.023a1.114,1.114,0,0,0,.772.115,4.174,4.174,0,0,1-.044-.47A.263.263,0,0,1,16.362,24.078Z"/>
            <path class="cls-11" d="M16.362,24.078a.263.263,0,0,0,.32.041.8.8,0,0,0-.019-.151c-.109-.29-.353-.239-.52-.42a.405.405,0,0,0-.1.271C16.054,23.987,16.266,23.968,16.362,24.078Z"/>
            <path class="cls-9" d="M16.362,24.078a.252.252,0,0,0,.3.046.3.3,0,0,0-.082-.071c-.142-.074-.315-.152-.342-.343a.677.677,0,0,0,.41.231c-.108-.257-.351-.217-.509-.392a.4.4,0,0,0-.1.27C16.054,23.987,16.266,23.968,16.362,24.078Z"/>
            <path class="cls-12" d="M16.071,23.951a.633.633,0,0,0,.625.323l-.008-.123-.022-.027a.252.252,0,0,1-.3-.046c-.1-.11-.308-.091-.316-.259a.4.4,0,0,1,.1-.27.14.14,0,0,1-.026-.034c-.072-.058-.091-.156-.271-.45a.867.867,0,0,0-.515-.362.852.852,0,0,0-.6.093,1.359,1.359,0,0,0-.268.331.968.968,0,0,0-.079.16l-.014.047c-.021.058-.053.094-.1.072a.319.319,0,0,0,0-.132c-.021.029-.041.045-.069.026-.017,0,0,.047,0,.151a1.042,1.042,0,0,1,.035.451c-.05.11-.117.09-.207.243-.01-.009.01-.171,0-.189.044.052.1-.049.121-.229a.415.415,0,0,1-.121.168c-.081,0-.093-.209-.069-.355l-.014,0c-.021-.009-.067.02-.123.034l.008.065c-.048.031-.055-.021-.058-.055l.05-.01-.009-.143c0,.06.055.073.1.051a.192.192,0,0,1-.02-.218l.015,0a.38.38,0,0,1-.1-.049l-.129-.161a1.4,1.4,0,0,1-.213-.361c-.047-.126-.5-.136-.5-.1.078.331.111.539.189.944a2.282,2.282,0,0,0,.41,1.04,2,2,0,0,1-.03-.369.449.449,0,0,1,.007-.148l-.007.148a1.915,1.915,0,0,0,.109.309c0,.046.036.092.078.019.065.162.2.176.321.279.008,0,.019.03.033.063a.56.56,0,0,0,.255-.036.866.866,0,0,0,.449-.466,5.879,5.879,0,0,0,.246-.664.424.424,0,0,1-.243.191c-.127-.006-.059.347-.176.555-.021.066-.071,0-.105.027.024-.425.131-.422.147-.65a.671.671,0,0,1,.173-.381,1.652,1.652,0,0,1,.34-.255c.147-.067.217.131.151.232a.082.082,0,0,1-.084-.039c-.068-.117-.393-.05-.419.336a2.326,2.326,0,0,1,.133-.2.4.4,0,0,1,.119-.075c.088-.017.131,0,.055.075a.129.129,0,0,0,.037-.055c0-.014,0,.047,0,.022s-.06,0-.041.069l.047.037c.027.009.029.035,0-.044a.183.183,0,0,1-.006-.082.148.148,0,0,1-.027.042c.089-.061.167.681.53.945.026.029.118.011.2,0a2.381,2.381,0,0,1-.266-.322.658.658,0,0,1,.011.208c-.109-.094-.081-.257-.161-.359a.93.93,0,0,1,.15.151c-.019-.09-.054-.169-.073-.255.154.08.064.352.294.365a.277.277,0,0,1-.062-.081l.065.081h0a.476.476,0,0,0,.3.092c-.148-.091-.178-.279-.276-.389l-.057-.051a.4.4,0,0,1,.057.051,2.331,2.331,0,0,0,.874.647l.038,0-.018-.114A.959.959,0,0,1,16.071,23.951Z"/>
          </g>
        </g>
      </g>
      <g class="cls-5">
        <g class="cls-6">
          <g class="cls-6">
            <path class="cls-7" d="M5.467,29.818c-.173.027-.279-.271-.469-.034l-.067.073.019.026a.529.529,0,0,0,.562.242c.132-.075.25-.269.376-.241.015,0,.01-.109.008-.166l-.042-.23c-.087.066-.183.163-.284.165C5.539,29.641,5.489,29.826,5.467,29.818Z"/>
            <polygon class="cls-8" points="5.858 29.503 5.856 29.487 5.843 29.497 5.858 29.503"/>
            <path class="cls-9" d="M5.629,29.672a.093.093,0,0,1-.1.027c-.024.051-.051.124-.064.119-.173.027-.279-.271-.469-.034l-.066.072.02.028a.62.62,0,0,0,.17.169l.014-.015c.051-.066.071.031.107.046.113-.041.194.045.306,0,.04-.017.083-.148.126-.135a.063.063,0,0,1,.043.012c.057-.049.112-.086.173-.071.014,0,.01-.11.007-.166L5.875,29.6a.476.476,0,0,0-.133-.023.41.41,0,0,1-.118.066Z"/>
            <path class="cls-8" d="M5.631,29.5a.379.379,0,0,0-.007.143.41.41,0,0,0,.118-.066A.17.17,0,0,1,5.631,29.5Z"/>
            <path class="cls-10" d="M5.651,29.1c-.059-.051-.132.088-.175-.019a.784.784,0,0,1-.043-.249l-.024,0a.456.456,0,0,1-.555-.165c-.071-.072-.234.059-.4.115-.074-.007-.05-.145-.051-.245.02-.264-.371.035-.616,0a1.483,1.483,0,0,0-.395.309c.37.121.5.477.88.533a.939.939,0,0,1,.658.468L5,29.784c.19-.237.3.061.469.034.022.008.072-.177.1-.165.1,0,.2-.1.284-.165l-.064-.456C5.747,29.1,5.7,29.158,5.651,29.1Z"/>
            <path class="cls-11" d="M5.651,29.1c.045.054.1,0,.139-.072a1.233,1.233,0,0,0-.027-.141c-.1-.254-.21-.072-.33-.055a.784.784,0,0,0,.043.249C5.519,29.192,5.592,29.053,5.651,29.1Z"/>
            <path class="cls-9" d="M5.651,29.1c.043.051.091,0,.133-.063A.1.1,0,0,0,5.739,29c-.074-.03-.154,0-.215-.126a.424.424,0,0,0,.229,0c-.1-.218-.2-.045-.32-.03a.776.776,0,0,0,.043.248C5.519,29.192,5.592,29.053,5.651,29.1Z"/>
            <path class="cls-12" d="M5.516,29.163a.212.212,0,0,0,.3.018L5.8,29.062l-.013-.021c-.042.064-.09.114-.133.063-.059-.051-.132.088-.175-.019a.776.776,0,0,1-.043-.248H5.411a.572.572,0,0,1-.314.016c-.126.109-.22.039-.265-.091a.23.23,0,0,0,.131.028.382.382,0,0,1-.108-.117c-.031-.03-.076-.024-.132,0a.519.519,0,0,1-.144.178c-.055.02-.08-.011-.167.055,0,0,.04-.077.033-.086.021.025.072-.012.134-.081l-.123.053c-.058,0-.055-.094-.052-.178H4.386a.288.288,0,0,0-.128.049l.02.028c-.043.031-.057.012-.067,0l.047-.026-.044-.067c.018.03.073.012.122-.01-.052-.026-.116-.032-.11-.127l.013-.009a1.508,1.508,0,0,1-.45.1,1.467,1.467,0,0,0-.395.309,2.306,2.306,0,0,1,.594.415l.037-.193A.221.221,0,0,1,4.04,29l-.015.076c0,.05.035.062.035.122-.012.028,0,.044.054-.021,0,.084.083.053.087.135,0,0-.006.026-.016.055a.843.843,0,0,0,.09.02.8.8,0,0,1,.436.206.864.864,0,0,1-.032-.218c.007-.131-.116-.061-.2-.063-.028.011,0-.074-.013-.087.16-.182.162,0,.245,0s.165.26.316.128c.061-.059.075.047.091.149-.025.049-.049.035-.06.028a.99.99,0,0,0-.318-.145c.073.157.2.142.288.316-.077-.011-.109-.157-.21-.062v.062l.117.151L5,29.784c.19-.237.3.061.469.034.013,0,.04-.068.064-.119a1.311,1.311,0,0,0-.143-.059.479.479,0,0,1,.042.135c-.05.011-.073-.12-.121-.111a.1.1,0,0,1,.079-.024.5.5,0,0,0-.079-.1c.069-.087.095.161.171.017a.047.047,0,0,1-.036-.016l.037.015h0c.039,0,.081-.049.117-.1-.065,0-.111-.123-.17-.123l-.031.009a.048.048,0,0,1,.031-.009c.139-.037.266.11.416.161l.013-.01-.017-.111A.618.618,0,0,1,5.516,29.163Z"/>
          </g>
        </g>
      </g>
      <g class="cls-5">
        <g class="cls-6">
          <g class="cls-6">
            <path class="cls-7" d="M9.637,35.935c-.048.007.055-.381-.116-.111l-.044.1,0,.03c-.035.236-.114.226-.043.209a1.566,1.566,0,0,0,.9.09c.04-.008,0-.116-.014-.17a.668.668,0,0,1-.114-.206.307.307,0,0,1-.394,0C9.786,35.83,9.636,35.943,9.637,35.935Z"/>
            <polygon class="cls-8" points="10.211 35.886 10.205 35.871 10.191 35.883 10.211 35.886"/>
            <path class="cls-9" d="M9.854,35.938a.135.135,0,0,1-.109-.066c-.048.024-.108.069-.108.063-.048.007.055-.381-.116-.111l-.043.095,0,.032a.761.761,0,0,1-.044.166l.009-.017c.044-.072-.007.025-.013.033.018-.024.017-.015.015-.009s-.033-.021.056.038c.064.039.2-.011.269.048a.5.5,0,0,1,.081.06,1.44,1.44,0,0,0,.492-.022c.039-.009,0-.117-.016-.17a.6.6,0,0,1-.07-.1.435.435,0,0,1-.209-.034.314.314,0,0,1-.177-.031Z"/>
            <path class="cls-8" d="M9.963,35.806a.327.327,0,0,0-.1.105.314.314,0,0,0,.177.031A.14.14,0,0,1,9.963,35.806Z"/>
            <path class="cls-10" d="M10.226,35.509c.042-.016-.136-.026-.105-.179A1.939,1.939,0,0,1,10.2,35l-.034-.034a1.647,1.647,0,0,0-.482-.236,1.931,1.931,0,0,0-.495-.038c-.071.01-.147.1-.212.245-.007.019-.021.031-.012.063l.006.041,0,.02v.017l.091.248h0l-.005-.019a.185.185,0,0,1,.005-.068.131.131,0,0,1,.022-.058c.006-.011,0,0-.008.007s-.02.016-.033.024l-.005,0h0l.124-.067.008,0,.022-.01c.078-.027.007,0-.046-.012a.568.568,0,0,1-.345-.192,1.472,1.472,0,0,0-.494-.08c.086.167.054.368.149.619a.569.569,0,0,0,.784.333c.078-.078.086-.168.143-.173s.121.125.1.288l.044-.1c.171-.27.068.118.116.111,0,.008.149-.105.172-.064a.307.307,0,0,0,.394,0,.934.934,0,0,1-.047-.216h0a.219.219,0,0,1,.022-.065C10.2,35.542,10.224,35.519,10.226,35.509Z"/>
            <path class="cls-11" d="M10.226,35.509c0,.01-.024.033-.048.082a.219.219,0,0,0-.022.065l0-.015a.394.394,0,0,1,.068-.127.847.847,0,0,1,.078-.091l.049-.048.117-.108h-.006A1.737,1.737,0,0,0,10.2,35a1.939,1.939,0,0,0-.076.327C10.09,35.483,10.268,35.493,10.226,35.509Z"/>
            <path class="cls-9" d="M10.226,35.509s-.089.151-.07.145a.206.206,0,0,1,.011-.039.672.672,0,0,1,.15-.206c.014.009-.015-.091-.016-.209l.062.124.013.025c-.024.032-.047.044-.068.07a.569.569,0,0,0-.147.215c.028-.08.067-.145.3-.37a1.646,1.646,0,0,0-.263-.259,1.9,1.9,0,0,0-.076.325C10.09,35.483,10.268,35.493,10.226,35.509Z"/>
            <path class="cls-12" d="M10.109,35.455a.577.577,0,0,0,.04.157c.006.007.015.012.018,0a.147.147,0,0,0-.011.044h0v0c-.019.006.07-.145.07-.145.042-.016-.136-.026-.105-.179a1.9,1.9,0,0,1,.076-.325l-.032-.033a1.635,1.635,0,0,0-.493-.241.587.587,0,0,1-.451.056l.185-.091c-.084,0-.146,0-.218,0s-.122.077-.181.184a1.35,1.35,0,0,1,.022.312v.047l.034.092h0v0l0-.015c0-.025,0-.026-.011.037l.012-.09a.255.255,0,0,0,0,.055.247.247,0,0,1,0-.069c-.007,0,.034-.084.025-.063l0,0a.249.249,0,0,1-.04.031l-.007.009C9,35.251,9,35.241,9,35.235a.193.193,0,0,0,.043-.022l-.009.005c.031-.018.011-.01.018-.016l.008-.017c0,.007.007.009.022,0l.006,0h0l-.057.031h0l.009,0L9.06,35.2l-.014.01-.008,0h0l.1-.053h0l-.008,0s0-.016.04-.033h.015a.562.562,0,0,1-.381-.194,1.472,1.472,0,0,0-.494-.08c.129.215-.011.576.365.9a.75.75,0,0,1,.028-.217.149.149,0,0,1,.026-.077l-.026.077c0,.06.042.085.057.155-.009.031.019.054.068-.014.033.1.136.059.211.13a.242.242,0,0,1,.025.056.454.454,0,0,0,.182-.059c.088-.095.1-.22.183-.155l-.058-.218c-.038-.136-.068.081-.091.157,0,.035-.031-.049-.045-.042-.017-.292.07-.192.106-.282.075-.135.192.139.3,0,.056-.048.058.087.029.227-.031.053-.039.03-.044.019-.036-.1-.137-.21-.224-.125.078.108.174.111.156.337-.019-.012-.019-.216-.082-.062l0,.081a.514.514,0,0,1,.007.173l.043-.095c.171-.27.068.118.116.111,0,.006.06-.039.108-.063-.011-.028,0-.08-.019-.109a.487.487,0,0,1-.071.128c-.02,0,.05-.125.027-.14.023-.009.036,0,.044.012a.6.6,0,0,0,.023-.131c.082-.035-.057.193.069.115a.039.039,0,0,1-.008-.034l.009.034h0c.017.02.081.015.145,0-.047-.039.01-.176-.033-.237L9.9,35.5a.04.04,0,0,1,.026.018c.14.116.057.3.261.369l.014-.012a.82.82,0,0,1-.032-.107C10.09,35.72,10.115,35.667,10.109,35.455Z"/>
          </g>
        </g>
      </g>
    </g>
  </g>
</svg>
