<svg id="left" xmlns="http://www.w3.org/2000/svg" viewBox="0 0 46.796 38.796">
  <defs>
    <style>
      .cls-1 {
        fill: #f7d52f;
      }
    </style>
  </defs>
  <g>
    <rect class="cls-1" x="21.129" y="-2.18" width="1.185" height="47.804" rx="0.593" transform="translate(52.441 21.722) rotate(135)"/>
    <path class="cls-1" d="M0,0C1.562,2.55,3.7,4.87,4.16,7.125A3.333,3.333,0,0,0,7.125,4.16C4.87,3.7,2.55,1.562,0,0Z"/>
    <path class="cls-1" d="M14.219,13.191a15.967,15.967,0,0,0,1.288-1.38,1.663,1.663,0,0,0,.368-1.359A2.983,2.983,0,0,0,14.89,9.11a14.24,14.24,0,0,1-1.4-1.488,9.54,9.54,0,0,1-1.883-3.585A7.716,7.716,0,0,1,11.683.07a7.525,7.525,0,0,0,.287,3.859,9,9,0,0,0,2.086,3.2A13.278,13.278,0,0,0,15.5,8.4a3.936,3.936,0,0,1,1.449,1.711,2.852,2.852,0,0,1-.328,2.4,15.948,15.948,0,0,1-1.253,1.65l-.451.6L13.707,13.74Z"/>
    <path class="cls-1" d="M11.683.07a7.359,7.359,0,0,0,1.1,2.763,7.236,7.236,0,0,0,1.053,1.252L11.9,4.651l-.413-2.5L11.555.762Z"/>
    <path class="cls-1" d="M14.161,15.364a15.948,15.948,0,0,1-1.65,1.253,2.852,2.852,0,0,1-2.4.328A3.936,3.936,0,0,1,8.4,15.5a13.278,13.278,0,0,0-1.27-1.44,8.992,8.992,0,0,0-3.2-2.086A7.525,7.525,0,0,0,.07,11.683a7.716,7.716,0,0,1,3.967-.072,9.54,9.54,0,0,1,3.585,1.883A14.337,14.337,0,0,1,9.11,14.889a2.978,2.978,0,0,0,1.342.986,1.663,1.663,0,0,0,1.359-.368,15.967,15.967,0,0,0,1.38-1.288l.549-.512,1.022,1.206Z"/>
    <path class="cls-1" d="M.07,11.683a7.359,7.359,0,0,1,2.763,1.1,7.236,7.236,0,0,1,1.252,1.053L4.651,11.9l-2.5-.413-1.388.072Z"/>
  </g>
</svg>
