<svg xmlns="http://www.w3.org/2000/svg" xmlns:xlink="http://www.w3.org/1999/xlink" viewBox="0 0 85.482 90.277">
  <defs>
    <style>
      .cls-1 {
        isolation: isolate;
      }

      .cls-2 {
        fill: url(#radial-gradient);
      }

      .cls-3 {
        fill: none;
        stroke: #6bc655;
        stroke-linecap: round;
        stroke-linejoin: round;
        mix-blend-mode: lighten;
      }
    </style>
    <radialGradient id="radial-gradient" cx="45.798" cy="41.486" fx="2.5420737424300484" r="43.314" gradientTransform="matrix(0.84, -0.543, 0.542, 0.839, -18.921, 33.223)" gradientUnits="userSpaceOnUse">
      <stop offset="0.11" stop-color="#26bc2d"/>
      <stop offset="0.229" stop-color="#1bb64e"/>
      <stop offset="0.45" stop-color="#08ad87"/>
      <stop offset="0.556" stop-color="#00a99d"/>
      <stop offset="0.623" stop-color="#00a495"/>
      <stop offset="0.726" stop-color="#00967f"/>
      <stop offset="0.853" stop-color="#007f5b"/>
      <stop offset="0.961" stop-color="#006837"/>
    </radialGradient>
  </defs>
  <g class="cls-1">
    <g id="monstera">
      <path class="cls-2" d="M76.725,22.55c-2.565-2.366-4.394-5.268-6.491-8.033-1.111-1.461-2.483-3.288-4.14-4.158a6.578,6.578,0,0,0-4.616-.159,53.323,53.323,0,0,0-8.012,2.821c-.709.3-1.426.612-2.108.958a5.14,5.14,0,0,1-1.718.694,1.509,1.509,0,0,1-1.24-.39.563.563,0,0,1-.149-.248c-.044-.234.164-.428.352-.561a16.044,16.044,0,0,1,5.248-2.417c1.509-.392,3-.867,4.467-1.4a29.907,29.907,0,0,0,2.8-1.133,7.363,7.363,0,0,0,2.445-1.283A.344.344,0,0,0,63.7,6.98a.368.368,0,0,0-.1-.187,3.614,3.614,0,0,0-1.492-1.037c-2.747-1.081-5.537-2.1-8.316-3.1A49.191,49.191,0,0,0,46.442.3C41.42-.733,36.174,1.063,31.807,3.517c-3.943,2.227-7.442,6.263-6.753,11.105a9.975,9.975,0,0,0,.815,2.735c1.171,2.53,3,4.694,4.008,7.305.171.449.279,1.058-.114,1.335-.336.253-.81.072-1.168-.149-1.543-.932-2.511-2.485-3.629-3.846a14.907,14.907,0,0,0-5-4.293c-2.136-.965-4.484-.673-6.7-.2A17.946,17.946,0,0,0,8.3,19.1a14.1,14.1,0,0,0-4.414,3.782C.809,26.889.259,31.84.037,36.747A31.413,31.413,0,0,0,3.242,52.572a25.371,25.371,0,0,0,3.729,5.2c.238.275.778.724,1.062.279.141-.223.034-.665.038-.918a7.813,7.813,0,0,1,.1-.983,20.5,20.5,0,0,1,2-4.865,30.29,30.29,0,0,1,2.841-4.98,28.3,28.3,0,0,1,5.4-5.8,1.226,1.226,0,0,1,.617-.315.56.56,0,0,1,.5.772,6.7,6.7,0,0,1-1.035,1.456c-.343.483-.685.966-1.036,1.455a54.046,54.046,0,0,0-4.308,6.286,26.367,26.367,0,0,0-1.6,3.561,17.5,17.5,0,0,0-1.254,7.9c.4,2.754,1.887,5.221,3.336,7.536a31.149,31.149,0,0,0,5.525,6.668,8.16,8.16,0,0,0,2.318,1.836c.533.18.117-1.421.085-1.674-.089-.764-.162-1.539-.2-2.313a34.054,34.054,0,0,1,.059-4.551,27.2,27.2,0,0,1,.913-5.127A73.744,73.744,0,0,1,25.265,55.8c.686-1.682,1.368-3.373,2.054-5.055a3.114,3.114,0,0,1,.672-1.172,1.115,1.115,0,0,1,1.243-.268,1.09,1.09,0,0,1,.513.978,3.1,3.1,0,0,1-.254,1.117c-.762,2.136-1.533,4.278-2.3,6.414A79.12,79.12,0,0,0,24.04,68.039a31.233,31.233,0,0,0-.709,6A22.6,22.6,0,0,0,23.484,77a11.082,11.082,0,0,0,.442,2.691c1.358,3.575,5.589,5.7,8.975,6.867a33.8,33.8,0,0,1,3.947,1.629c.614.3,1.211.658,1.808.974.254.134,1.095.459.968-.161a4.526,4.526,0,0,0-.561-.959c-.159-.3-.316-.618-.453-.922a17.2,17.2,0,0,1-1.291-3.988,51.187,51.187,0,0,1-.667-8.178,54.952,54.952,0,0,1,.282-8.351c.152-1.348.36-2.685.562-4.03.173-1.113.141-2.545.991-3.4a.994.994,0,0,1,.554-.323c.817-.135,1.058,1.471,1.083,2.027A26.8,26.8,0,0,1,39.672,65c-.151,1.443-.263,2.873-.377,4.316a29.356,29.356,0,0,0,1.63,13.557A10.042,10.042,0,0,0,43.5,86.929c2.217,1.9,5.259,1.946,8.026,1.9,3.543-.064,7.091-.119,10.632,0,2.154.072,5.1-.264,7.047.862.2.122,1.47.931,1.586.427a.522.522,0,0,0-.046-.291c-.668-2.01.147-3.751,1.461-5.255,1.218-1.395,2.549-2.708,3.712-4.15,2.089-2.589,3.544-5.828,2.787-9.209-.55-2.454-2.254-4.187-4.194-5.659A23.487,23.487,0,0,0,68.2,62.234c-1.424-.509-2.879-.973-4.257-1.594a15.866,15.866,0,0,1-4.163-2.775,1.7,1.7,0,0,1-.431-.519c-.229-.483.186-1,.63-1.181a2.518,2.518,0,0,1,1.34-.045c2.886.5,5.495,2.164,8.09,3.415a45.967,45.967,0,0,1,6.476,3.59c2.137,1.5,4.2,3.166,6.229,4.773.241.189.759.64,1.1.489.388-.155.225-.776.155-1.088-.406-1.714-.066-3.6-.008-5.353.075-1.93.1-3.854.049-5.783a13.526,13.526,0,0,0-2.979-7.517c-1.621-2.084-4.219-3.119-6.63-4.049A41.886,41.886,0,0,0,60.4,41.739c-2.553-.1-5.113-.064-7.665-.272-.7-.057-1.243-.412-.938-1.156a1.486,1.486,0,0,1,.355-.575,1.456,1.456,0,0,1,.656-.293c2.375-.618,4.877-.247,7.293-.083a63.489,63.489,0,0,1,7.746.911A45.628,45.628,0,0,1,82.55,46.077,4.809,4.809,0,0,0,85.274,47.1a.215.215,0,0,0,.136-.029c.114-.062.073-.237.01-.352a55.033,55.033,0,0,1-2.712-8.082,38.423,38.423,0,0,0-2.028-5.679,17.414,17.414,0,0,0-2.928-4.751,11.525,11.525,0,0,0-4.4-2.443,10.383,10.383,0,0,0-4.673-.634,94.133,94.133,0,0,0-15.662,3.42c-.894.257-1.783.522-2.68.792-.757.228-1.668.7-2.395.143a1.77,1.77,0,0,1-.588-.834c-.329-.859.928-1.089,1.488-1.272.887-.287,1.783-.521,2.687-.725a141.589,141.589,0,0,1,16.981-2.891,27.271,27.271,0,0,1,3.665-.3c1.212.05,2.4.248,3.6.375.388.048,1.738.258,1.8-.357C77.627,23.1,76.961,22.767,76.725,22.55ZM15.1,33.631A19.248,19.248,0,0,0,7.85,38.96a20.256,20.256,0,0,0-2.395,3.81c-.333.645-1.254,2.241-1.9.967a1.778,1.778,0,0,1-.179-.719,8.244,8.244,0,0,1-.022-1.342,12.494,12.494,0,0,1,5.48-9.187c3.285-2.231,7.144-2.249,10.962-1.978,1.691.11.931,1.494-.276,1.857A44.971,44.971,0,0,0,15.1,33.631Zm9.4,3.878a5.763,5.763,0,0,1-1.334.35.688.688,0,0,1-.318-.032c-.712-.255-.158-1.423.051-1.855a4.813,4.813,0,0,1,2-2.058,2.772,2.772,0,0,1,2.421-.4A1.455,1.455,0,0,1,27.8,35.2a3.009,3.009,0,0,1-1.368,1.42A11.5,11.5,0,0,1,24.5,37.509ZM38.661,53.944c-.693-.85.516-2.37,1.427-3.245a7.911,7.911,0,0,1,.645-.548c1.031-.726.883,2.287.8,2.71C41.318,53.929,39.539,55.008,38.661,53.944Zm11.77,9.716a6.028,6.028,0,0,1,.542,1.889c.105.789.028,2.53-1.113,2.589a.927.927,0,0,1-.7-.39,5.258,5.258,0,0,1-.939-2.43c-.162-.859-.426-2.225.456-2.795a1.365,1.365,0,0,1,.182-.105C49.6,62.087,50.183,63.13,50.431,63.66ZM34.23,39.851A18.77,18.77,0,0,1,33.5,42a10.388,10.388,0,0,1-2.535,3.723c-.922.822-.779-1.021-.712-1.433a8.048,8.048,0,0,1,.567-2.07A8.159,8.159,0,0,1,33.3,39.2c.25-.185.5-.348.754-.511C34.741,38.283,34.289,39.611,34.23,39.851ZM53.217,55.37c-1.167-.258-2.648-.908-3-2.184a.787.787,0,0,1,.039-.584.848.848,0,0,1,.29-.307,3.233,3.233,0,0,1,2.475.163A5.151,5.151,0,0,1,55.2,54.17C55.976,55.218,53.861,55.5,53.217,55.37ZM46.776,42.018a4.617,4.617,0,0,1-2.64.539c-.8-.1-.827-.763-.314-1.5a1.453,1.453,0,0,1,.121-.162,3.131,3.131,0,0,1,2.176-1.073c.675-.043,1.719-.123,1.912.36C48.24,40.69,47.567,41.566,46.776,42.018Zm-2.4-10.538a4.461,4.461,0,0,1-1.84,1.7c-.934.508-2.762.7-3.542-.211-.606-.716.34-1.685.916-2.046a5.352,5.352,0,0,1,4.027-.531.875.875,0,0,1,.469.376A.812.812,0,0,1,44.381,31.48Zm.717-12.6a19.527,19.527,0,0,1-3.21,2.587,2.99,2.99,0,0,0-1.258,1.444c-.122.4-.139.816-.294,1.2a2.2,2.2,0,0,1-1.2,1.159.736.736,0,0,1-.7-.062,1.059,1.059,0,0,1-.259-.345,3.633,3.633,0,0,1-.32-1.067c-.225-1.95,1.355-3.853,2.871-4.916a8.971,8.971,0,0,1,2.637-1.3,4.489,4.489,0,0,1,1.719-.159C46.118,17.569,45.6,18.332,45.1,18.883Zm-4.466-8.068a6.315,6.315,0,0,1-1.262,2.744,1.375,1.375,0,0,1-.8.494c-.439.022-.6-.824-.656-1.9a26.294,26.294,0,0,1,.258-4.3,6.07,6.07,0,0,1,2.292-3.767,8.134,8.134,0,0,1,6.868-1.165c.721.212,1.812,1.09.586,1.514a12.88,12.88,0,0,0-4.625,2.2A8.628,8.628,0,0,0,40.632,10.815Z"/>
    </g>
    <g id="veins">
      <path class="cls-3" d="M31.163,28.716C35.6,37.849,42.187,45.756,47.3,54.531c4.84,8.31,8.391,17.45,14.455,24.914l6.42,7.3"/>
      <path class="cls-3" d="M33.821,34.862A22.191,22.191,0,0,0,24.839,43.4,66.224,66.224,0,0,0,19.6,54.791l-2.387,6.191c-.738,1.915-1.488,3.979-1,5.972"/>
      <path class="cls-3" d="M40.535,44.84c-4.885,3.93-7.129,10.222-8.793,16.266-1.868,6.785-3.281,14.093-1.051,20.768"/>
      <path class="cls-3" d="M44.034,48.682a33.441,33.441,0,0,1,35.08,6.425"/>
      <path class="cls-3" d="M37.781,39.406a72.854,72.854,0,0,1,18.6-6.838,36.473,36.473,0,0,1,19.6,1.148"/>
      <path class="cls-3" d="M67.59,18.1c-12.551.264-23.874,7.217-34.29,14.224-.971-.716-3.493-2.512-4.523-3.138a20.32,20.32,0,0,0-24.8,2.865"/>
      <path class="cls-3" d="M31.438,29.276a30.365,30.365,0,0,1,.814-18.017,28.27,28.27,0,0,1,3.265-6.19"/>
      <path class="cls-3" d="M32.628,31.44A28.189,28.189,0,0,1,53.547,7.414"/>
      <path class="cls-3" d="M33.574,33.461a17.979,17.979,0,0,0-9.313-.3,19.178,19.178,0,0,0-7.5,3.908A33.682,33.682,0,0,0,7.029,49.194"/>
    </g>
  </g>
</svg>
