<svg id="right" xmlns="http://www.w3.org/2000/svg" viewBox="0 0 46.796 38.796">
  <defs>
    <style>
      .cls-1 {
        fill: #f7d52f;
      }
    </style>
  </defs>
  <g>
    <rect class="cls-1" x="24.482" y="-2.18" width="1.185" height="47.804" rx="0.593" transform="translate(22.704 -11.368) rotate(45)"/>
    <path class="cls-1" d="M46.8,0c-1.561,2.55-3.7,4.87-4.16,7.125A3.333,3.333,0,0,1,39.671,4.16C41.927,3.7,44.246,1.562,46.8,0Z"/>
    <path class="cls-1" d="M31.432,14.161a15.948,15.948,0,0,1-1.253-1.65,2.856,2.856,0,0,1-.328-2.4A3.936,3.936,0,0,1,31.3,8.4a13.278,13.278,0,0,0,1.44-1.27,9,9,0,0,0,2.086-3.2A7.536,7.536,0,0,0,35.114.07a7.716,7.716,0,0,1,.071,3.967A9.552,9.552,0,0,1,33.3,7.622a14.346,14.346,0,0,1-1.4,1.488,2.978,2.978,0,0,0-.986,1.342,1.667,1.667,0,0,0,.368,1.359,16.127,16.127,0,0,0,1.288,1.38l.512.549-1.206,1.022Z"/>
    <path class="cls-1" d="M35.114.07a7.381,7.381,0,0,1-1.1,2.763,7.236,7.236,0,0,1-1.053,1.252l1.941.566.413-2.5L35.242.762Z"/>
    <path class="cls-1" d="M33.6,14.219a15.967,15.967,0,0,0,1.38,1.288,1.663,1.663,0,0,0,1.359.368,2.986,2.986,0,0,0,1.343-.986,14.226,14.226,0,0,1,1.487-1.395,9.547,9.547,0,0,1,3.585-1.883,7.715,7.715,0,0,1,3.967.072,7.526,7.526,0,0,0-3.859.287,9,9,0,0,0-3.2,2.086A13.386,13.386,0,0,0,38.4,15.5a3.939,3.939,0,0,1-1.71,1.449,2.854,2.854,0,0,1-2.406-.328,16.057,16.057,0,0,1-1.65-1.253l-.6-.451,1.022-1.206Z"/>
    <path class="cls-1" d="M46.726,11.683a7.355,7.355,0,0,0-2.762,1.1,7.247,7.247,0,0,0-1.253,1.053L42.145,11.9l2.5-.413,1.388.072Z"/>
  </g>
</svg>
