<svg id="squid" xmlns="http://www.w3.org/2000/svg" viewBox="0 0 54.358 43.282">
  <defs>
    <style>
      .cls-1 {
        fill: #ed935a;
      }

      .cls-2 {
        fill: #ed5846;
      }

      .cls-3 {
        fill: #f2f2f2;
      }

      .cls-4 {
        fill: #242342;
      }
    </style>
  </defs>
  <g id="leggies">
    <path class="cls-1" d="M20.464,30.425c-.415,0-.65.628-1.038,1.247-.689,1.1-2.055,2.477-3.554,2.584a3.363,3.363,0,0,1-1.836-.475,4.868,4.868,0,0,1-2.379-2.551c-.738-1.994.16-4.144.472-6.136a26.273,26.273,0,0,0,.231-6.533c-.346-3.637-1.826-6.885-5.456-8.116A14.345,14.345,0,0,0,0,10.079c2.5.231,6.508.9,8.277,2.881,1.98,2.212,2.115,5.624,1.92,8.427-.192,2.768-1.257,5.373-1.654,8.107a8.932,8.932,0,0,0,1.322,6.045c1.209,1.905,2.936,2.176,5.084,2.119a7.433,7.433,0,0,0,1.724-.191,5.791,5.791,0,0,0,3.24-2.864,9.01,9.01,0,0,0,1.3-3.484C21.042,30.805,20.783,30.427,20.464,30.425Z"/>
    <path class="cls-2" d="M20.7,29.069c-.4-.074-.916,2.169-1.019,2.438-.491,1.282-1.18,2.7-2.749,2.749a3.836,3.836,0,0,1-1.836-.475,4.864,4.864,0,0,1-2.379-2.551c-.738-1.994.16-4.144.472-6.136a26.273,26.273,0,0,0,.231-6.533c-.346-3.637-1.826-6.885-5.456-8.116a14.345,14.345,0,0,0-6.9-.366c2.5.231,6.508.9,8.277,2.881,1.98,2.211,2.115,5.624,1.92,8.427-.169,2.442-1.114,4.747-1.556,7.14a9.657,9.657,0,0,0,1.217,7.042c1.172,1.907,3.007,2.145,5.091,2.089a7.433,7.433,0,0,0,1.724-.191,5.428,5.428,0,0,0,3.24-2.864,16.086,16.086,0,0,0,1.281-4.249.965.965,0,0,1-.73.071C20.906,30.185,20.978,29.12,20.7,29.069Z"/>
    <rect class="cls-1" x="22.375" y="30.235" width="2.533" height="8.087" rx="1.064"/>
    <rect class="cls-2" x="21.829" y="30.235" width="2.533" height="8.087" rx="1.064"/>
    <path class="cls-1" d="M28.283,33.429c1.421,3.683,5.652,6.427,9.392,5.167a9.365,9.365,0,0,0,2.488-1.366c3.74-2.718,6.213-7.766,7.436-12.074a4.186,4.186,0,0,0,.067-2.912c-.6-1.165-2.225-1.1-3.15-.37-.891.7-1.382,2.17-.325,2.933a3.172,3.172,0,0,0,2.949.153,14.907,14.907,0,0,0,4.518-3.191,17.686,17.686,0,0,0,1.715-1.906c.73-.943.948-1.427.98-1.41a12.876,12.876,0,0,1-4.872,7.141,6.344,6.344,0,0,1-4.859,1.285,3.4,3.4,0,0,1-2.889-3.065,4.407,4.407,0,0,1,1.631-3.61c2.444-1.95,5.9-.751,6.038,2.457a21.653,21.653,0,0,1-3.6,12.545c-2.766,4-7.077,7.386-11.2,7.842a6.1,6.1,0,0,1-3.806-.636,5.5,5.5,0,0,1-2.263-2.855c-.468-1.222-.108-1.757-.767-3.626-.247-.7-.575-1.454-.575-1.454-.657-1.5-1.111-2.1-.963-2.245C26.336,32.127,26.763,32.253,28.283,33.429Z"/>
    <path class="cls-2" d="M27.2,32.123A7.843,7.843,0,0,0,29.987,37.4a7.552,7.552,0,0,0,6.759,1.369,8.127,8.127,0,0,0,2.487-1.366c3.741-2.718,6.213-7.766,7.436-12.074a4.186,4.186,0,0,0,.067-2.912c-.6-1.165-2.225-1.1-3.15-.371-.891.7-1.382,2.171-.325,2.933a3.172,3.172,0,0,0,2.949.154,18.342,18.342,0,0,0,4.518-3.191c.645-.586,1.269-1.232,1.931-1.814a6.3,6.3,0,0,0,1.694-1.679,21.79,21.79,0,0,1-5.8,7.317,5.679,5.679,0,0,1-4.858,1.285A3.4,3.4,0,0,1,40.8,23.991a4.4,4.4,0,0,1,1.63-3.61c2.444-1.95,5.9-.752,6.038,2.457a21.653,21.653,0,0,1-3.6,12.545c-2.766,4-7.077,7.385-11.2,7.841a5.987,5.987,0,0,1-3.929-.7c-2.151-1.4-2.712-3.945-3.664-9.322-.044-.246-.117-.716.149-.97A1.087,1.087,0,0,1,27.2,32.123Z"/>
  </g>
  <path class="cls-1" d="M31.378,33.723c-4.179-.2-7.725-1.742-10.936-2.732a.726.726,0,0,1-.382-1.18,8.319,8.319,0,0,0,.809-1.542,1.041,1.041,0,0,1,1.22-.675c2.992.773,5.853,1.644,9.345,2.347a1.446,1.446,0,0,1,1.182,1.088c.037.519.064,1.053.064,1.627A1.238,1.238,0,0,1,31.378,33.723Z"/>
  <path class="cls-1" d="M34.565,1.256c1.686,4.275,2.034,8.366,5.064,12.086.529.644.369,1.584-.4,1.52-2.908-.279-6.269,1.143-9.053.4s-4.991-3.649-7.651-4.856c-.7-.328-.371-1.223.409-1.518C27.412,7.172,29.752,3.8,33.343.93A.768.768,0,0,1,34.565,1.256Z"/>
  <path class="cls-2" d="M34.383.2c-.541,9.587,1.217,20.331-1.407,29.45a3.023,3.023,0,0,1-3.453,1.782l-6.835-1.823a3.022,3.022,0,0,1-2.106-3.265C22.847,17.127,29.723,8.685,34.028.1A.188.188,0,0,1,34.383.2Z"/>
  <g id="eyes">
    <ellipse class="cls-3" cx="21.194" cy="27.591" rx="2.76" ry="1.562" transform="translate(-13.535 29.681) rotate(-55.915)"/>
    <ellipse class="cls-4" cx="21.194" cy="27.591" rx="1.931" ry="1.093" transform="translate(-13.535 29.681) rotate(-55.915)"/>
    <ellipse class="cls-3" cx="31.822" cy="30.426" rx="1.562" ry="2.76" transform="translate(-2.151 2.422) rotate(-4.216)"/>
    <ellipse class="cls-4" cx="31.822" cy="30.426" rx="1.093" ry="1.931" transform="translate(-2.151 2.422) rotate(-4.216)"/>
    <g id="Layer_11" data-name="Layer 11">
      <rect class="cls-3" x="31.761" y="29.005" width="0.524" height="1.163" rx="0.234" transform="translate(-2.088 2.434) rotate(-4.216)"/>
      <rect class="cls-3" x="21.708" y="26.405" width="0.524" height="1.163" rx="0.234" transform="matrix(0.997, -0.074, 0.074, 0.997, -1.924, 1.688)"/>
    </g>
  </g>
</svg>
