<svg xmlns="http://www.w3.org/2000/svg" viewBox="0 0 62.51 37.862">
  <defs>
    <style>
      .cls-1 {
        fill: #00a0d0;
      }
    </style>
  </defs>
  <g id="Layer_2" data-name="Layer 2">
    <rect class="cls-1" y="19.517" width="62.51" height="4.345" rx="2.173"/>
    <rect class="cls-1" y="33.517" width="62.51" height="4.345" rx="2.173"/>
  </g>
  <g id="waves">
    <g>
      <path class="cls-1" d="M50.96,10.4a4.736,4.736,0,0,0,3.79,1.46,8.127,8.127,0,0,0,.84-.04,17.446,17.446,0,0,0,5.753-1.684A2,2,0,0,0,62.51,8.32h0a2,2,0,0,0-2.849-1.8A13.806,13.806,0,0,1,55.25,7.843a2.725,2.725,0,0,1-1.3-.09,1.462,1.462,0,0,1-.02-.26,3.265,3.265,0,0,1,.04-.47c.18-1.19,1.63-1.98,2.07-2.2.05-.02.09-.04.13-.06.09-.04.18-.09.27-.14,0,0,0,.01.01,0a2.25,2.25,0,0,0,.43-.38,2,2,0,0,0-2.31-3.15,7.966,7.966,0,0,0-4.28,4.24,6.094,6.094,0,0,0-.27,1.08A4.692,4.692,0,0,0,50.96,10.4Z"/>
      <path class="cls-1" d="M35.564,11.862q.405,0,.845-.037c4.688-.395,9.918-3.866,13.043-5.941.7-.462,1.28-.851,1.717-1.107.086-.051.188-.115.3-.19A2.808,2.808,0,0,1,53,4a2.127,2.127,0,0,1,1.156.5,2,2,0,0,0,2.46-3.154A6.036,6.036,0,0,0,53.246.01a6.447,6.447,0,0,0-3.933,1.211l-.167.1c-.484.283-1.134.713-1.906,1.226-2.806,1.862-7.5,4.978-11.167,5.287a2.572,2.572,0,0,1-1.3-.091h0a2.039,2.039,0,0,1,.019-.722C35,5.643,36.906,4.8,36.987,4.763a2,2,0,0,0-1.6-3.667c-.938.409-4.04,2-4.554,5.316a4.688,4.688,0,0,0,.947,3.994A4.739,4.739,0,0,0,35.564,11.862Z"/>
      <path class="cls-1" d="M16.367,11.862c.271,0,.552-.012.845-.037,4.688-.395,9.919-3.867,13.044-5.941.7-.462,1.28-.852,1.716-1.107.085-.05.188-.115.3-.19A2.8,2.8,0,0,1,33.8,4a2.127,2.127,0,0,1,1.154.5,2,2,0,1,0,2.462-3.153A6.043,6.043,0,0,0,34.05.01a6.449,6.449,0,0,0-3.933,1.21l-.167.1c-.485.284-1.134.714-1.906,1.226-2.806,1.862-7.5,4.979-11.168,5.288a2.555,2.555,0,0,1-1.305-.091,1.55,1.55,0,0,1,.021-.722c.214-1.384,2.116-2.227,2.2-2.262a2,2,0,1,0-1.6-3.668,7.448,7.448,0,0,0-4.554,5.317,4.678,4.678,0,0,0,.946,3.992A4.735,4.735,0,0,0,16.367,11.862Z"/>
      <path class="cls-1" d="M8.85,2.553a46.864,46.864,0,0,1-7.6,4.332A2,2,0,0,0,0,8.732H0a2.005,2.005,0,0,0,2.78,1.842,49.054,49.054,0,0,0,8.28-4.691c.32-.21.62-.41.88-.58.32-.21.6-.39.83-.53.09-.05.19-.11.31-.19A2.812,2.812,0,0,1,14.61,4a2.127,2.127,0,0,1,1.15.5,1.992,1.992,0,0,0,2.81-.34c.01-.02.02-.03.03-.05a2.141,2.141,0,0,0,.13-.19,1.725,1.725,0,0,0,.16-.37,2.032,2.032,0,0,0,.01-1.22c-.01-.02-.01-.04-.02-.05-.02-.07-.05-.13-.07-.19a2,2,0,0,0-.59-.74,1.526,1.526,0,0,0-.16-.11A5.9,5.9,0,0,0,14.85.013a6.382,6.382,0,0,0-3.93,1.21l-.17.1C10.27,1.613,9.62,2.043,8.85,2.553Z"/>
    </g>
  </g>
</svg>
