<?xml version="1.0" encoding="utf-8"?>
<!-- Generator: Adobe Illustrator 24.0.3, SVG Export Plug-In . SVG Version: 6.00 Build 0)  -->
<svg version="1.1" id="Layer_1" xmlns="http://www.w3.org/2000/svg" xmlns:xlink="http://www.w3.org/1999/xlink" x="0px" y="0px"
	 viewBox="0 0 119.302 65.003" style="enable-background:new 0 0 119.302 65.003;" xml:space="preserve">
<style type="text/css">
	.st0{fill:#EFEFEF;}
</style>
<g>
	<path class="st0" d="M27.559,51.925c0.637,0.955,0.955,1.949,0.955,2.983c0,1.034-0.266,1.936-0.795,2.705
		c-0.531,0.769-1.261,1.339-2.188,1.711c-0.929,0.37-2.002,0.397-3.222,0.079c-0.955-0.266-1.83-0.716-2.625-1.353
		c-0.796-0.637-1.591-1.245-2.387-1.83c-1.857-1.378-3.687-2.756-5.49-4.136c-1.804-1.379-3.634-2.757-5.489-4.137
		c-0.531-0.424-1.181-0.875-1.949-1.353c-0.77-0.477-1.5-1.021-2.188-1.631c-0.69-0.609-1.247-1.285-1.671-2.029
		c-0.425-0.742-0.584-1.563-0.477-2.466c0.211-1.378,0.782-2.453,1.71-3.222c0.927-0.768,1.922-1.551,2.983-2.347
		c1.802-1.379,3.592-2.785,5.37-4.217c1.776-1.432,3.566-2.864,5.37-4.296c1.061-0.848,2.134-1.776,3.222-2.785
		c1.086-1.007,2.319-1.697,3.699-2.068c1.114-0.265,2.095-0.211,2.944,0.159c0.848,0.372,1.512,0.928,1.989,1.67
		c0.478,0.744,0.756,1.591,0.835,2.546s-0.119,1.883-0.597,2.785c-0.266,0.531-0.65,1.048-1.153,1.551
		c-0.505,0.505-1.062,0.982-1.671,1.432c-0.61,0.451-1.193,0.863-1.75,1.233c-0.557,0.372-1.021,0.69-1.392,0.955
		c-1.485,1.167-2.958,2.307-4.416,3.421c-1.459,1.114-2.904,2.255-4.336,3.421c2.493,1.698,4.919,3.475,7.28,5.331
		c2.359,1.857,4.733,3.687,7.12,5.489L27.559,51.925z"/>
	<path class="st0" d="M79.13,2.519c0.637-1.06,1.432-1.776,2.387-2.148c0.955-0.371,1.91-0.464,2.865-0.278
		c0.955,0.187,1.789,0.65,2.506,1.392c0.715,0.744,1.125,1.724,1.232,2.944c0.053,0.636-0.053,1.366-0.318,2.188
		c-0.266,0.823-0.57,1.645-0.914,2.466c-0.346,0.823-0.703,1.579-1.074,2.268c-0.371,0.69-0.611,1.167-0.717,1.432
		c-0.795,1.857-1.59,3.699-2.387,5.529c-0.795,1.83-1.59,3.673-2.387,5.529c-2.811,6.523-5.607,13.008-8.393,19.452
		c-2.785,6.444-5.609,12.876-8.472,19.293c-0.426,0.954-1.102,1.631-2.029,2.028c-0.928,0.398-1.883,0.49-2.863,0.278
		c-0.982-0.212-1.857-0.676-2.626-1.392c-0.77-0.717-1.207-1.711-1.313-2.983c-0.107-1.433,0.146-2.731,0.756-3.898
		c0.609-1.166,1.207-2.439,1.791-3.819c0.795-1.856,1.59-3.699,2.387-5.529c0.795-1.83,1.59-3.672,2.387-5.529
		c0.211-0.477,0.543-1.219,0.994-2.228c0.449-1.007,0.941-2.121,1.472-3.341c0.529-1.22,1.072-2.479,1.631-3.779
		c0.557-1.299,1.072-2.479,1.551-3.54c0.477-1.061,1.006-2.307,1.592-3.739c1.643-3.712,3.262-7.412,4.852-11.099
		c1.592-3.686,3.184-7.359,4.773-11.019L79.13,2.519z"/>
	<path class="st0" d="M92.347,51.288c2.387-1.75,4.734-3.526,7.041-5.33c2.308-1.803,4.654-3.553,7.041-5.251
		c-1.432-1.166-2.864-2.307-4.296-3.421c-1.433-1.114-2.892-2.228-4.376-3.341c-0.372-0.265-0.835-0.583-1.393-0.955
		c-0.557-0.37-1.127-0.782-1.71-1.233c-0.584-0.45-1.142-0.915-1.671-1.393c-0.53-0.477-0.929-0.98-1.193-1.511
		c-0.478-0.901-0.689-1.83-0.637-2.785s0.305-1.816,0.756-2.585c0.45-0.769,1.101-1.353,1.949-1.75
		c0.848-0.398,1.83-0.464,2.943-0.199c0.955,0.212,1.856,0.676,2.705,1.392c0.849,0.716,1.644,1.366,2.387,1.949
		c1.22,0.955,2.439,1.909,3.66,2.864c1.22,0.955,2.438,1.937,3.659,2.943c0.796,0.637,1.365,1.088,1.711,1.353
		c0.345,0.266,0.662,0.517,0.955,0.756c0.29,0.239,0.648,0.517,1.073,0.835c0.424,0.318,1.061,0.823,1.91,1.512
		c1.007,0.743,1.922,1.472,2.744,2.188c0.822,0.716,1.365,1.71,1.631,2.983c0.159,0.903,0.026,1.738-0.397,2.506
		c-0.425,0.77-0.969,1.459-1.631,2.068c-0.664,0.61-1.393,1.154-2.188,1.631c-0.796,0.478-1.46,0.929-1.989,1.353
		c-1.857,1.38-3.688,2.758-5.489,4.137c-1.804,1.38-3.634,2.758-5.49,4.137c-0.795,0.584-1.591,1.207-2.387,1.869
		c-0.795,0.663-1.67,1.127-2.625,1.393c-1.326,0.37-2.467,0.37-3.421,0c-0.955-0.372-1.671-0.955-2.148-1.75
		c-0.478-0.796-0.689-1.736-0.637-2.824c0.053-1.086,0.425-2.161,1.114-3.222L92.347,51.288z"/>
</g>
</svg>
