<svg xmlns="http://www.w3.org/2000/svg" xmlns:xlink="http://www.w3.org/1999/xlink" viewBox="0 0 445.743 423.184">
  <defs>
    <style>
      .cls-1 {
        isolation: isolate;
      }

      .cls-2 {
        fill: #261f1c;
      }

      .cls-3, .cls-32 {
        fill: #211b18;
      }

      .cls-3 {
        stroke: #352a25;
      }

      .cls-13, .cls-17, .cls-19, .cls-24, .cls-26, .cls-3 {
        stroke-miterlimit: 10;
      }

      .cls-4 {
        fill: #314231;
        stroke: #5a685a;
      }

      .cls-12, .cls-4, .cls-7, .cls-8 {
        stroke-linejoin: round;
      }

      .cls-13, .cls-5, .cls-7 {
        fill: #ffb9a4;
      }

      .cls-6 {
        fill: #eaa292;
      }

      .cls-13, .cls-7 {
        stroke: #ffb9a4;
      }

      .cls-7 {
        stroke-linecap: round;
      }

      .cls-12, .cls-8 {
        fill: #628461;
        stroke: #819d81;
      }

      .cls-9 {
        fill: #819d81;
      }

      .cls-10 {
        fill: #c7ddc7;
      }

      .cls-11 {
        fill: #9bb29b;
      }

      .cls-12 {
        stroke-width: 0.5px;
      }

      .cls-14 {
        fill: #da8774;
      }

      .cls-15 {
        fill: #c17427;
      }

      .cls-16 {
        fill: #352a25;
      }

      .cls-17 {
        fill: #d87373;
      }

      .cls-17, .cls-24 {
        stroke: #da8774;
      }

      .cls-18 {
        fill: #f2f2f2;
      }

      .cls-19, .cls-26 {
        stroke: #58391b;
      }

      .cls-19 {
        fill: url(#radial-gradient);
      }

      .cls-20 {
        opacity: 0.52;
      }

      .cls-20, .cls-23 {
        mix-blend-mode: hard-light;
      }

      .cls-21 {
        fill: #58391b;
      }

      .cls-22 {
        fill: #1a1a1a;
      }

      .cls-23 {
        fill: #f5f8fc;
      }

      .cls-23, .cls-28 {
        opacity: 0.5;
      }

      .cls-24 {
        fill: none;
      }

      .cls-25 {
        fill: #1c0d04;
      }

      .cls-26 {
        fill: url(#radial-gradient-2);
      }

      .cls-27 {
        fill: #2b2420;
      }

      .cls-29 {
        fill: url(#radial-gradient-3);
      }

      .cls-30 {
        fill: url(#radial-gradient-4);
      }

      .cls-31 {
        fill: #844a39;
      }
    </style>
    <radialGradient id="radial-gradient" cx="201.265" cy="121.474" r="7.45" gradientUnits="userSpaceOnUse">
      <stop offset="0" stop-color="#d98a52"/>
      <stop offset="1" stop-color="#5d1900"/>
    </radialGradient>
    <radialGradient id="radial-gradient-2" cx="273.685" cy="153.385" r="7.45" xlink:href="#radial-gradient"/>
    <radialGradient id="radial-gradient-3" cx="208.101" cy="203.603" r="34.207" gradientUnits="userSpaceOnUse">
      <stop offset="0" stop-color="#f28183"/>
      <stop offset="0.312" stop-color="#ef7f81"/>
      <stop offset="0.535" stop-color="#e67a7a"/>
      <stop offset="0.732" stop-color="#d6706f"/>
      <stop offset="0.911" stop-color="#c0635e"/>
      <stop offset="1" stop-color="#b25b54"/>
    </radialGradient>
    <radialGradient id="radial-gradient-4" cx="198.967" cy="223.636" r="35.318" gradientTransform="matrix(0.272, -0.962, 1.342, 0.38, -155.233, 330.166)" gradientUnits="userSpaceOnUse">
      <stop offset="0" stop-color="#f28183"/>
      <stop offset="0.233" stop-color="#e97c7d"/>
      <stop offset="0.609" stop-color="#d26e6b"/>
      <stop offset="1" stop-color="#b25b54"/>
    </radialGradient>
  </defs>
  <g class="cls-1">
    <g id="bulk_of_hair" data-name="bulk of hair">
      <path class="cls-2" d="M135.087,286.9q.358.542.739,1.03c3.658,4.677,11.342,6.633,16.663,8.406,28.531,9.508,59.183,13.819,88.785,18.457,24.126,3.78,48.328,7.061,72.56,10.078q20.646,2.571,41.323,4.881c4.76.534,40.556,7.349,42.436,4.531l18.574-27.83-9.47-139.9L353.339,45.132,288.329,9.62c-13.839.53-19.655,2.2-22.327,3.743-.369.213-2.707,1.594-6.011,3.316-1.492.778-3.15,1.643-4.954,2.452a64.247,64.247,0,0,1-9.09,3.145c-7.309,1.88-15,0-20.88,0-13.3,0-26.073,9.636-32.361,18.314-5.037,6.951-5.667,10.973-12.822,20.9-2.382,3.307-5.834,5.652-8.824,8.421-9.307,8.62-9.649,28.338-20.985,33.585a32.682,32.682,0,0,0-18.235,23.458c-1.16,6.418.16,14.135-4.073,19.524-5.111,6.507-8.538,5.189-13.223,11.645-4.7,6.481-5.583,15.1-4.877,22.867a144.165,144.165,0,0,0,5.316,25.845,26.81,26.81,0,0,0,7.8,12.78c3.454,3.24,7.987,7.2,6.723,12.517-.464,1.949-1.755,3.575-2.835,5.267-6.056,9.5-2.579,21.028,1.081,30.7C129.793,273.5,131.736,281.851,135.087,286.9Z"/>
    </g>
    <g id="hair_behind_shoulder" data-name="hair behind shoulder">
      <path class="cls-3" d="M224.284,38.442c-2.933-1.25-4.6-3.3-8.255-1.931-11.17,4.184-14.317,13.606-19.987,23.45-9.142,15.872-24.562,24.841-26.914,44.4-1.716,14.279-9.8,12.084-19.728,18.057-8.812,5.3.1,11.791,1.492,18.515,1.564,7.58-4.376,10.714-6.729,17.6-2.759,8.069,6.066,14.2,6.97,21.973.985,8.469-8.848,12.5-5.134,21.607,4.151,10.184,11.987,19.966,12.425,31.837s-7.381,22.754-2.664,34.585c1.145,2.87,3.712,4.075,5.3,6.789,1.257,2.144,4.01,4.6,4.339,7.283,1,8.136-4.838,14.086-6.935,21.519-1.679,5.95-1.677,11.818-1.53,18.02-4.512-8.714-5.164-14.2-5.267-24.807-.045-4.52-1.069-13.744-4.559-18.648-1.617-2.272-4.3-4.75-5.882-7.516-5.276-9.241-5.647-17.542-2.533-27.736.785-2.571,1.937-4.977,2.821-7.535,1.844-5.331,2.914-9.563-.6-14.488a57.782,57.782,0,0,0-7.724-8.781c-2.854-2.637-6.516-4.86-8.613-8.142-2.38-3.724-.029-9.075.977-11.938,1.322-3.765,4.152-4.528,5.183-7.129,2.621-6.614-1.865-10.852-5.082-15.81-2.2-3.382-5.459-6.038-4.534-10.153,1.042-4.643,5.8-6.527,9.2-8.632,3.955-2.443,6.551-3.2,5.75-8.3-.863-5.5-3.436-10.424-1.959-16.451A23.873,23.873,0,0,1,144.2,111.468c2.328-1.568,5.045-1.846,7.77-2.146,3.254-.359,6.02-.59,7.725-3.778,2.025-3.787,2.047-8.133,2.946-12.369s1.928-8.746,3.964-12.639c2.52-4.815,6.2-7.788,10.758-10.513s8.35-5.37,11.16-9.972c2.041-3.341,3.154-7.4,4.436-11.009s1.72-7.123,4.578-9.807c3.728-3.5,8.83-4.909,13.156-7.477,3.3-1.96,6.215-4.488,10.056-5.217,7.616-1.443,14.522,2.142,20.467,5.76a20.631,20.631,0,0,1,3.457,2.72c.735.937,4.156,3.41,2.839,3.508-3.638.272-7.617-.561-11.765.218-1.917.36-4.777,1.9-7.151,1.578C227.043,40.114,225.85,39.109,224.284,38.442Z"/>
    </g>
    <g id="collar_shade" data-name="collar shade">
      <path class="cls-4" d="M156.716,257.493,297.493,275l-14.3,20.594L157.424,280.25Z"/>
    </g>
    <g id="neck">
      <path class="cls-5" d="M292.769,295.546c-.26,3.39-4.69,33.38-6.78,45.89s-17.72,80.74-17.72,80.74H201s-6.63-68.94-30.77-115.68c0,0-13.96-27.03-5.69-35.65.42-.44.83-.88,1.23-1.33a44.4,44.4,0,0,0,8.67-14.56c.17-.46.53-1.79.99-3.35.89-3.06,2.12-7.02,2.89-7.16l90.21-16.42s10.16-7.04,8.34-1.83a107.357,107.357,0,0,0-2.71,12.62l-.01.03c-1.57,8.86-3.17,19.61-3.8,24.37-1.04,7.83,4.17,14.34,7.56,20.34S293.029,292.156,292.769,295.546Z"/>
      <path class="cls-6" d="M275.679,229.076l-1.52,9.74-.01.03-3.8,24.37-6.38,4.77c-6.39,4.76-13.81,9.11-29.82,13.53s-11.32,4.97-18.5,9.39-11.05,8-25.4,7.45a36.27,36.27,0,0,1-22.9-9.12s-.37-2.65-.54-3.89-.86-7.96-1.11-10.94a26.268,26.268,0,0,1,.07-4.89,44.4,44.4,0,0,0,8.67-14.56c.17-.46.53-1.79.99-3.35.8-2.07,2.14-5.4,2.14-5.4l22.56,7.71,50.59-6.27Z"/>
    </g>
    <g id="new_shirt" data-name="new shirt">
      <path class="cls-5" d="M433.919,377.814s4.467,3.129,7.549,15.667a201.729,201.729,0,0,1,4.275,27.053l-113.7,1.642,27.741-36.808,65.259-11.063Z"/>
      <path class="cls-7" d="M34.982,343.585a28.9,28.9,0,0,1-6.535-9.278c-1.231-2.941-1.03-4.066-1.839-4.414-7.4-3.184-17.568,21.87-19.05,26.958-3,10.307-4.438,20.99-5.316,31.666C1.405,398.693.15,409.34.592,419.548A6.926,6.926,0,0,0,.8,420.631c24.025,3.5,48.91,1.457,73.111,1.5.729,0,8.717-.068,8.725.043A60.239,60.239,0,0,0,79.2,405.6c-2.709-7.437-4.67-15.037-7.258-22.5a50.524,50.524,0,0,0-10.484-17.407A110.589,110.589,0,0,0,44.04,350.414C41.1,348.521,38.276,347,34.982,343.585Z"/>
      <path class="cls-8" d="M228.645,349.54a106.707,106.707,0,0,0,40.794-59.384c1.28-.548,3.215-1.341,5.616-2.187,3.658-1.29,6.392-2,7.038-2.174,3.215-.886,8.09-3.4,15.4-10.508-1.22,2.922-2.388,7.154-.592,10.927,5.444,11.44,30.9,4.224,61.464,12.2,15.367,4.009,43.98,19.657,50.338,30.276s29.2,52.376,29.2,52.376c-21.641-8.244-45.211-5.162-61.412,8.565-13.4,11.357-17.363,26.269-18.587,32.173l-140.046.373Z"/>
      <path class="cls-8" d="M2.862,378.219c.827-6.948,6.113-46.749,34.565-67.578,11.138-8.153,29.4-15.855,43.456-18.887,12.571-2.711,25.338-4.348,37.968-6.74,18.057-3.419,33.127-9.022,38.054-27.521a48.524,48.524,0,0,0,6.455,12.54c1.921,2.681,7.821,10.33,22.563,17.839,18.524,9.433,37.358,11.691,48.958,12.2-4.7,26.229-2.784,37.423.552,42.4a37.64,37.64,0,0,1,2.581,4.253c1.954,3.778,3.53,8.592,5.189,17.272,2.329,12.182,2.8,58.17,2.8,58.17l-126.751,0H78.7c1.338-.022-3.392-18.475-4.26-20.245-8.909-18.182-31.568-25.272-50.473-25.972A74.259,74.259,0,0,0,2.862,378.219Z"/>
      <g id="pit_creases" data-name="pit creases">
        <path class="cls-9" d="M80.039,365.617c-.859,3.453-1.6,6.925-2.136,10.428a105.358,105.358,0,0,0-1.192,10.544c-.251,3.526-.319,7.06-.259,10.59s.311,7.055.7,10.563v.008a.734.734,0,0,1-1.454.2c-.954-5.6-2.031-11.171-3.167-16.74-.567-2.785-1.2-5.556-1.8-8.337l-1.815-8.345c.872,2.712,1.657,5.449,2.455,8.184s1.493,5.5,2.2,8.26c1.411,5.524,2.589,11.11,3.579,16.727l-1.454.21A96.381,96.381,0,0,1,75,397.2a98.781,98.781,0,0,1,.476-10.716A105.9,105.9,0,0,1,77.133,375.9,84.048,84.048,0,0,1,80.039,365.617Z"/>
        <path class="cls-9" d="M356.653,370.492a84.457,84.457,0,0,1,2.906,10.284,105.946,105.946,0,0,1,1.656,10.584,98.551,98.551,0,0,1,.477,10.716,96.383,96.383,0,0,1-.687,10.712l-1.454-.211c.99-5.616,2.168-11.2,3.579-16.726.7-2.763,1.41-5.523,2.2-8.261s1.584-5.471,2.456-8.184l-1.815,8.345c-.6,2.781-1.234,5.552-1.8,8.337-1.135,5.569-2.212,11.143-3.166,16.74a.735.735,0,0,1-1.455-.2v-.009c.384-3.508.629-7.033.695-10.563s-.008-7.065-.26-10.591a104.775,104.775,0,0,0-1.192-10.544C358.251,377.418,357.512,373.945,356.653,370.492Z"/>
      </g>
      <g id="bottom_button" data-name="bottom button">
        <g>
          <circle class="cls-10" cx="227.793" cy="410.769" r="7.126"/>
          <path class="cls-11" d="M227.793,404.643a6.126,6.126,0,1,1-6.126,6.126,6.126,6.126,0,0,1,6.126-6.126m0-2a8.126,8.126,0,1,0,8.126,8.126,8.135,8.135,0,0,0-8.126-8.126Z"/>
        </g>
        <g id="Layer_36" data-name="Layer 36">
          <path class="cls-12" d="M231.439,407.622a1.889,1.889,0,0,1-2.293,2.293,1.889,1.889,0,0,1,2.293-2.293Z"/>
          <path class="cls-12" d="M231.439,413.915a1.889,1.889,0,0,0-2.293-2.293,1.889,1.889,0,0,0,2.293,2.293Z"/>
          <path class="cls-12" d="M224.146,407.622a1.889,1.889,0,0,0,2.293,2.293,1.889,1.889,0,0,0-2.293-2.293Z"/>
          <path class="cls-12" d="M224.146,413.915a1.889,1.889,0,0,1,2.293-2.293,1.889,1.889,0,0,1-2.293,2.293Z"/>
        </g>
      </g>
      <g id="top_button" data-name="top button">
        <g>
          <circle class="cls-10" cx="227.793" cy="366.769" r="7.126"/>
          <path class="cls-11" d="M227.793,360.643a6.126,6.126,0,1,1-6.126,6.126,6.126,6.126,0,0,1,6.126-6.126m0-2a8.126,8.126,0,1,0,8.126,8.126,8.135,8.135,0,0,0-8.126-8.126Z"/>
        </g>
        <g id="Layer_34" data-name="Layer 34">
          <path class="cls-12" d="M231.439,363.622a1.889,1.889,0,0,1-2.293,2.293,1.889,1.889,0,0,1,2.293-2.293Z"/>
          <path class="cls-12" d="M231.439,369.915a1.889,1.889,0,0,0-2.293-2.293,1.889,1.889,0,0,0,2.293,2.293Z"/>
          <path class="cls-12" d="M224.146,363.622a1.889,1.889,0,0,0,2.293,2.293,1.889,1.889,0,0,0-2.293-2.293Z"/>
          <path class="cls-12" d="M224.146,369.915a1.889,1.889,0,0,1,2.293-2.293,1.889,1.889,0,0,1-2.293,2.293Z"/>
        </g>
      </g>
    </g>
    <g id="ear">
      <path class="cls-13" d="M295.632,200.245c1.29,4.4,7.242,6.323,11.288,5.241,4.74-1.267,8.868-5.394,10.846-9.793,2.57-5.716,3.175-12.448,6.372-17.874,2.631-4.463,6.546-7.685,8.513-12.684,1.242-3.157,2.55-8.191-.237-10.912a8.79,8.79,0,0,0-3.908-2.036c-5.538-1.5-8.721.08-11.322,4.973l-5.574,10.485c-3.416,6.427-6.674,15.853-12.761,24.007-1.57,2.1-3.8,4.868-3.408,7.7A6.258,6.258,0,0,0,295.632,200.245Z"/>
      <g id="Layer_29" data-name="Layer 29">
        <g>
          <path class="cls-6" d="M310.015,172.294c-1.647,1.406-2.023,2.568-2.028,3.406-.006.883.4,1.36.23,2.618a7.208,7.208,0,0,1-.643,2.021,17.82,17.82,0,0,1-1.057,1.838c-1.144,1.988-1.635,3.549-2.208,4.356a3.446,3.446,0,0,0-.3.514,3.142,3.142,0,0,0-.255.863c-.178,1.107-1.34,4.263-.57,5.269,1.059,1.382,2.716-2.029,3.744-2.627a4.824,4.824,0,0,1,3.533-.448c2.092.509,3.374,3.042,5.36,1.013,1.244-1.271,1.55-3.5,1.794-5.183a36.6,36.6,0,0,1,2.935-10.31c2.748-4.945,6.452-4.14,8.613-9.472a8.428,8.428,0,0,0,.585-5.549c-.582-2.018-2.182-4.657-4.236-4.673-3-.024-4.113,3.739-5.261,5.819-1.646,2.983-4.158,5.247-5.627,8.341-.337.71-1.414,4.982-2.455,4.953-.572-.016-1.371-1.163-2.231-6.7"/>
          <path class="cls-6" d="M310.015,172.294a5.562,5.562,0,0,0-1.939,2.784,3.511,3.511,0,0,0,.092,1.7,4.214,4.214,0,0,1,.052,1.725,8.746,8.746,0,0,1-1.348,3.171,27.173,27.173,0,0,0-1.577,3.064c-.239.524-.463,1.056-.753,1.562a3.838,3.838,0,0,0-.695,1.536c-.213,1.143-.588,2.235-.748,3.368a3.669,3.669,0,0,0,.038,1.661.843.843,0,0,0,.511.522.921.921,0,0,0,.706-.25c.881-.7,1.43-1.748,2.315-2.551a4.706,4.706,0,0,1,3.407-.7A8.723,8.723,0,0,1,313.2,191.4a1.942,1.942,0,0,0,1.528.264,2.884,2.884,0,0,0,1.253-1,7.536,7.536,0,0,0,1.183-3.127c.2-1.118.324-2.275.547-3.411s.465-2.267.761-3.386.631-2.228,1.033-3.318a17,17,0,0,1,.676-1.616,12.01,12.01,0,0,1,.922-1.506,11.557,11.557,0,0,1,2.464-2.507c.927-.714,1.9-1.32,2.748-2.062a10.183,10.183,0,0,0,3.181-5.771,7.178,7.178,0,0,0-.07-3.272,8.926,8.926,0,0,0-1.507-2.942,3.153,3.153,0,0,0-2.618-1.437,3.453,3.453,0,0,0-2.562,1.613,18.177,18.177,0,0,0-1.616,2.964,18.691,18.691,0,0,1-1.775,3.036,60.237,60.237,0,0,0-3.942,5.607c-.141.243-.254.5-.382.746-.089.2-.181.5-.269.762-.177.546-.356,1.1-.555,1.651a12.783,12.783,0,0,1-.7,1.649,3.383,3.383,0,0,1-.574.821,1.106,1.106,0,0,1-.631.337.942.942,0,0,1-.75-.222,2.491,2.491,0,0,1-.619-.862,7.741,7.741,0,0,1-.347-.855c-.193-.569-.341-1.138-.48-1.709-.265-1.14-.47-2.283-.656-3.428l.988-.153c.173,1.131.365,2.258.612,3.363.129.55.266,1.1.439,1.621a3.508,3.508,0,0,0,.652,1.294c.057.041.057.037.042.025a.428.428,0,0,0,.1-.08,2.549,2.549,0,0,0,.409-.59,12.043,12.043,0,0,0,.662-1.522c.2-.531.377-1.072.56-1.62.1-.281.172-.536.318-.861.137-.263.262-.534.412-.788a60.1,60.1,0,0,1,4.046-5.655,17.937,17.937,0,0,0,1.734-2.905,18.626,18.626,0,0,1,1.719-3.075,5.6,5.6,0,0,1,1.322-1.287,3.472,3.472,0,0,1,1.8-.595,3.068,3.068,0,0,1,1.849.478,5.28,5.28,0,0,1,1.351,1.25,9.565,9.565,0,0,1,1.6,3.186,7.8,7.8,0,0,1,.054,3.574,10.768,10.768,0,0,1-3.427,6.077c-.9.773-1.891,1.375-2.794,2.06a11.044,11.044,0,0,0-2.381,2.377,11.661,11.661,0,0,0-.894,1.43,16.848,16.848,0,0,0-.67,1.563c-.4,1.068-.746,2.163-1.05,3.268s-.565,2.222-.784,3.347-.357,2.261-.577,3.407a7.873,7.873,0,0,1-1.278,3.264,3.2,3.2,0,0,1-1.427,1.1,2.262,2.262,0,0,1-1.778-.3,8.528,8.528,0,0,0-3.022-1.507,4.468,4.468,0,0,0-3.206.617c-.833.737-1.4,1.8-2.342,2.533a1.115,1.115,0,0,1-.882.28,1.043,1.043,0,0,1-.656-.657,3.826,3.826,0,0,1-.032-1.76c.173-1.15.561-2.248.779-3.368a4,4,0,0,1,.728-1.579c.287-.491.516-1.021.76-1.543a27.386,27.386,0,0,1,1.611-3.061,8.669,8.669,0,0,0,1.366-3.133,4.164,4.164,0,0,0-.035-1.7,3.539,3.539,0,0,1-.077-1.716A5.572,5.572,0,0,1,310.015,172.294Z"/>
        </g>
        <path class="cls-14" d="M326.718,155.972a6.877,6.877,0,0,1,2.63,2.268,7.354,7.354,0,0,1,1.2,3.361,11.568,11.568,0,0,1-1.806,6.866,9.12,9.12,0,0,1-2.5,2.671,17.172,17.172,0,0,0-2.554,2.075,17.584,17.584,0,0,0-3.513,5.438,17.09,17.09,0,0,0-1.519,6.292,11.427,11.427,0,0,1-.563,3.6,8.436,8.436,0,0,1-.811,1.672,6.92,6.92,0,0,1-1.185,1.5,3,3,0,0,1-1.978.84,3.087,3.087,0,0,1-1.921-.786,9.757,9.757,0,0,0-1.309-.947,3.443,3.443,0,0,0-1.427-.385,3.757,3.757,0,0,0-2.912.819c-.379.37-.607.889-1.023,1.355a3.207,3.207,0,0,1-.71.545l-.8.348-.036-.093.747-.391a3.111,3.111,0,0,0,.626-.557c.35-.432.561-.985.948-1.421a4.137,4.137,0,0,1,3.17-1.132,3.934,3.934,0,0,1,1.681.38,9.772,9.772,0,0,1,1.432.95,2.453,2.453,0,0,0,1.515.6,2.255,2.255,0,0,0,1.465-.687,6.056,6.056,0,0,0,1-1.355,8.21,8.21,0,0,0,.717-1.532,10.535,10.535,0,0,0,.472-3.347,18.047,18.047,0,0,1,1.51-6.663,18.465,18.465,0,0,1,3.788-5.689,18.2,18.2,0,0,1,2.686-2.129,9.077,9.077,0,0,0,2.364-2.406,10.954,10.954,0,0,0,1.923-6.4,6.916,6.916,0,0,0-.956-3.216,7.1,7.1,0,0,0-2.4-2.355Z"/>
      </g>
      <g id="tragus">
        <path class="cls-5" d="M304.387,174.254a3.459,3.459,0,0,1,.894-1.21c.964-.833,2.032.008,3.2-.71.857-.529,1.013-1.351,1.433-1.266.525.106.4,1.409.952,1.579.528.163,1.35-.7,2.445-1.837.458-.477.755-.839.9-.763s.045.463-.124,1.3c-.391,1.937-.255,1.515-.407,2.123,0,0-.52,2.2-.276,2.5.069.086.123.1.261.275a3.548,3.548,0,0,1,.559,1.015,3.748,3.748,0,0,1-.075,2.535l-1.423,3.321a3.53,3.53,0,0,1-3.966,2.03,13.569,13.569,0,0,0-3.1-.246q-.214.007-.423.021a3.481,3.481,0,0,1-3.43-4.9Z"/>
      </g>
      <path class="cls-15" d="M300.053,201.086c-.065.24,1.273.6,1.418.641a4.325,4.325,0,0,0,1.605.136,6.19,6.19,0,0,0,1.415-.4,1.326,1.326,0,0,1,.729-.028c-.005.165-.019.545-.065,1.228,0,.1-.041.3.086.381a.793.793,0,0,0,.442.089,1.436,1.436,0,0,0,.786-.267c.192-.147.033-.3-.083-.453a2.185,2.185,0,0,1-.021-.851,9.611,9.611,0,0,0,1,.021c.215-.006.4-.009.579-.027,0,.179.014.744.007,1-.009.215-.008.358.211.432a1.129,1.129,0,0,0,.749-.051c.126-.043.45-.141.455-.3,0-.122-.114-.244-.184-.333-.115-.144,0-1.046,0-1.046a2.593,2.593,0,0,0,1.451-2.016c0-.559-.406-1.087-.5-2.041-.075-.79.283-.789.283-.789a4.488,4.488,0,0,0,1.149-.181.527.527,0,0,0,.27-.789,1.7,1.7,0,0,0-1.469-.9,1.287,1.287,0,0,0-1.018.482c-.847,1.065.033,2.425-.126,3.622,0,0-.449-.21-.494-.236-.214-.117-.429-.24-.65-.356a3.28,3.28,0,0,0-1.371-.429,3.075,3.075,0,0,0-2.753,1.655c-.095.214-.153.446-.256.659-.431.963-1.9,1.163-2.832,1.145C300.374,201.067,300.077,201.006,300.053,201.086Z"/>
    </g>
    <g id="head">
      <path class="cls-13" d="M163.056,225.627c-.833-2.605-1.536-5.261-2.129-7.941-2.02-9.117-4.418-18.2-5.252-27.529-1.855-20.755,2.8-43.993,12.684-62.341,5.094-9.453,10.624-18.994,14.468-29.048,6.315-16.518,12.375-32.815,24.806-45.921,10.175-10.728,27.115-15.767,41.6-13.983,18,2.218,34.212,10.905,49,21.121,13.511,9.333,23.706,21.368,28.946,35.923a68.717,68.717,0,0,1,3.92,21.451c.089,3.83.077,16.968-14.46,47.739a258.493,258.493,0,0,1-17.192,31.544C283.045,222.25,269.583,243.275,246,253c-9.35,3.857-19.106,5.153-28.057,6.886a49.278,49.278,0,0,1-13.987.726c-5.422-.516-10.585-2.485-15.652-4.463,0,0-2.141-.836-4.006-1.782a34.79,34.79,0,0,1-10.521-8.491,53.519,53.519,0,0,1-7.233-11.381A70.181,70.181,0,0,1,163.056,225.627Z"/>
    </g>
    <g id="right_eyelashes" data-name="right eyelashes">
      <path class="cls-16" d="M272.429,143.775a12.539,12.539,0,0,0,6.811-.945,13.037,13.037,0,0,1-6.881,1.943Z"/>
      <path class="cls-16" d="M276.91,145.237a6.437,6.437,0,0,0,4.7-1.174,6.946,6.946,0,0,1-4.752,2.173Z"/>
      <path class="cls-16" d="M280.352,146.152a4.382,4.382,0,0,0,3.606-.835,4.881,4.881,0,0,1-3.686,1.832Z"/>
      <path class="cls-16" d="M282.487,147.876a4.969,4.969,0,0,0,3.3-.2,5.475,5.475,0,0,1-3.432,1.191Z"/>
      <path class="cls-16" d="M284.29,149.4a9.183,9.183,0,0,0,3.3.215,9.687,9.687,0,0,1-3.391.781Z"/>
      <path class="cls-16" d="M285.892,151.309a4.621,4.621,0,0,0,2.752-.038,5.124,5.124,0,0,1-2.858,1.033Z"/>
      <path class="cls-16" d="M287.194,152.89a7.327,7.327,0,0,0,2.987.257,7.794,7.794,0,0,1-3.11.735Z"/>
      <polygon class="cls-16" points="287.89 154.504 291.309 155.004 287.89 155.504 287.89 154.504"/>
      <polygon class="cls-16" points="288.738 156.17 291.843 156.651 288.713 157.17 288.738 156.17"/>
      <path class="cls-16" d="M289.342,157.984l1.3.273a4.39,4.39,0,0,0,.633.062,3.479,3.479,0,0,0,.658-.027,3.66,3.66,0,0,1-.619.274,5.085,5.085,0,0,1-.675.191l-1.329.227Z"/>
      <path class="cls-16" d="M289.052,159.945a19.512,19.512,0,0,0,3.861.476,20.015,20.015,0,0,1-3.955.52Z"/>
    </g>
    <g id="left_eyelashes" data-name="left eyelashes">
      <path class="cls-16" d="M208.24,119.054a9.71,9.71,0,0,1,.881-4.651,9.206,9.206,0,0,0,.106,4.492Z"/>
      <path class="cls-16" d="M205.927,115.906a9.532,9.532,0,0,1,.055-1.936c.088-.633.3-1.242.435-1.838.024.63-.014,1.238.065,1.838a8.791,8.791,0,0,0,.425,1.736Z"/>
      <path class="cls-16" d="M203.665,113.886l.069-.814a5.306,5.306,0,0,1,.1-.8l.372-1.536.128,1.543a4.779,4.779,0,0,0,.152.745l.173.726Z"/>
      <path class="cls-16" d="M201.505,112.438a10.145,10.145,0,0,1,.608-3,9.63,9.63,0,0,0,.386,2.891Z"/>
      <path class="cls-16" d="M198.871,111.342a6.987,6.987,0,0,1,.434-2.887,6.5,6.5,0,0,0,.542,2.67Z"/>
      <path class="cls-16" d="M196.232,110.261a7.943,7.943,0,0,1,.278-2.695,7.437,7.437,0,0,0,.692,2.451Z"/>
      <path class="cls-16" d="M194.028,110.583a6.337,6.337,0,0,1-.5-3.318,5.835,5.835,0,0,0,1.344,2.789Z"/>
      <path class="cls-16" d="M191.347,110.415a4.948,4.948,0,0,1-.827-3.046,4.45,4.45,0,0,0,1.576,2.384Z"/>
      <path class="cls-16" d="M188.865,110.952a5.9,5.9,0,0,1-.844-3.191,5.4,5.4,0,0,0,1.616,2.555Z"/>
      <path class="cls-16" d="M186.25,111.321a5.928,5.928,0,0,1-1.126-3.363,5.421,5.421,0,0,0,1.836,2.658Z"/>
      <path class="cls-16" d="M184.23,113.127a6.535,6.535,0,0,1-1.812-3.97,6.034,6.034,0,0,0,2.454,3.2Z"/>
    </g>
    <g id="eyes">
      <g id="left_eyeball" data-name="left eyeball">
        <path class="cls-17" d="M214.609,131.976a1.2,1.2,0,0,1-.81.72,4.677,4.677,0,0,1-3.63-.64,1.983,1.983,0,0,1-.2-.11,14.065,14.065,0,0,0-2.04-1.15,14.561,14.561,0,0,0-4.46-.72c-4.87-.29-10.01-1.22-14.19-3.88a13.1,13.1,0,0,1-4.38-4.64,9.287,9.287,0,0,1-1.1-7.03c.44-1.61,2.13-2.7,3.57-3.38a11.677,11.677,0,0,1,4.37-1.04,18.646,18.646,0,0,1,9.96,2.49,21.649,21.649,0,0,1,6,4.75,38.02,38.02,0,0,1,4.33,6.8c.42.82.83,1.65,1.19,2.49a18.311,18.311,0,0,1,1.39,4.59A1.725,1.725,0,0,1,214.609,131.976Z"/>
        <path class="cls-18" d="M213.219,126.636a14.53,14.53,0,0,1-3.05,5.42,1.983,1.983,0,0,1-.2-.11,14.065,14.065,0,0,0-2.04-1.15,14.561,14.561,0,0,0-4.46-.72c-4.87-.29-10.01-1.22-14.19-3.88a13.1,13.1,0,0,1-4.38-4.64,7.241,7.241,0,0,1-.954-7.439,7.317,7.317,0,0,1,7.794-4.011,18.646,18.646,0,0,1,9.96,2.49,21.649,21.649,0,0,1,6,4.75,38.02,38.02,0,0,1,4.33,6.8C212.449,124.966,212.859,125.8,213.219,126.636Z"/>
        <circle class="cls-19" cx="201.265" cy="121.474" r="7.45"/>
        <g id="Layer_12" data-name="Layer 12">
          <g>
            <g class="cls-20">
              <path class="cls-21" d="M200.946,117.389a4.433,4.433,0,0,0,.667-2.178,4.938,4.938,0,0,1,.278,2.5l0,.022a.513.513,0,0,1-1.016-.148A.53.53,0,0,1,200.946,117.389Z"/>
            </g>
            <g class="cls-20">
              <path class="cls-21" d="M199.269,118.725a16.341,16.341,0,0,1-1.636-.315,1.112,1.112,0,0,1-.713-.594.967.967,0,0,0-.15-.333c-.059-.063-.255-.081-.276.066-.026-.157.193-.242.342-.172a1.008,1.008,0,0,1,.3.315.748.748,0,0,0,.594.228c.457-.009,1.026-.131,1.55-.2l.026,0a.508.508,0,1,1,.122,1.009A.5.5,0,0,1,199.269,118.725Z"/>
            </g>
            <g class="cls-20">
              <path class="cls-21" d="M197.448,121c.14,0,.012-.093-.137,0a4.435,4.435,0,0,0-.526.433,1.044,1.044,0,0,1-.81.208,1.627,1.627,0,0,0-.7-.006,1.693,1.693,0,0,1,.685-.243.649.649,0,0,0,.47-.31,4.137,4.137,0,0,1,.39-.648,1.179,1.179,0,0,1,.432-.312.872.872,0,0,1,.728.035.5.5,0,1,1-.531.847Z"/>
            </g>
            <g class="cls-20">
              <path class="cls-21" d="M198.4,123.363a1.342,1.342,0,0,0-.872.961,2.406,2.406,0,0,0-.017.8,1,1,0,0,1-.23.841.88.88,0,0,0-.015-.793,2.777,2.777,0,0,1-.237-.888,2.1,2.1,0,0,1,.9-1.805l.041-.029a.511.511,0,0,1,.587.837A.577.577,0,0,1,198.4,123.363Z"/>
            </g>
            <g class="cls-20">
              <path class="cls-21" d="M199.962,124.605l.382.563.2.288a.688.688,0,0,1,.139.347.519.519,0,0,1-.163.409.867.867,0,0,1-.432.2l-.31.078c-.195.062-.339.13-.366.273l-.132-.14a.612.612,0,0,1,.358.976c.187-.331-.132-.735-.38-.69a.11.11,0,0,1-.126-.087v-.007l-.006-.047a.782.782,0,0,1,.453-.7c.19-.125.5-.252.469-.295-.006-.008-.049.042-.048.1s.018.075-.014.053l-.251-.216-.516-.444a.5.5,0,1,1,.659-.765A.589.589,0,0,1,199.962,124.605Z"/>
            </g>
            <g class="cls-20">
              <path class="cls-21" d="M202.3,124.782a.883.883,0,0,1,.568.434,1.044,1.044,0,0,1,.13.565,1.679,1.679,0,0,1-.32.8l-.361-.337a.823.823,0,0,1,.923.3,3.762,3.762,0,0,1,.372.719,3.669,3.669,0,0,0-.551-.528c-.186-.123-.439-.124-.5-.026a.223.223,0,0,1-.4-.177l.042-.16a1.017,1.017,0,0,0,.038-.556.189.189,0,0,0-.092-.095c-.034-.014-.042.023,0,.05a.5.5,0,0,1,.159-.987Z"/>
            </g>
            <g class="cls-20">
              <path class="cls-21" d="M204.37,123.7a.647.647,0,0,1,.655.248.789.789,0,0,1,.149.408.722.722,0,0,1-.06.377c-.114-.089-.067.094.171.015a1.715,1.715,0,0,1,.836-.109,1.278,1.278,0,0,1,.717.368,1.153,1.153,0,0,0-.72-.118,1.382,1.382,0,0,0-.627.314.863.863,0,0,1-.525.152.645.645,0,0,1-.587-.472c-.059-.235-.039-.42-.069-.392-.006.014-.022.017,0,.06a.308.308,0,0,0,.315.117.5.5,0,1,1-.252-.968Z"/>
            </g>
            <g class="cls-20">
              <path class="cls-21" d="M205.469,121.514a1.356,1.356,0,0,1,1.549.61c.078.142.04.12.032.144s.1,0,.17-.064c.12-.1.3-.407.541-.333-.234.038-.237.268-.342.484a.507.507,0,0,1-.343.287c-.242.048-.417-.192-.456-.214a.6.6,0,0,0-.755,0,.547.547,0,1,1-.571-.87Z"/>
            </g>
            <g class="cls-20">
              <path class="cls-21" d="M204.783,119.153a.66.66,0,0,1,.717-.014.93.93,0,0,1,.253.25c.12.168.107.215.214.3a.674.674,0,0,0,.785,0,.927.927,0,0,1-.93.48,1.52,1.52,0,0,1-.565-.214c-.061-.028-.124-.044-.13-.022-.035.027.171.085.274.009a.5.5,0,1,1-.618-.786Z"/>
            </g>
            <g class="cls-20">
              <path class="cls-21" d="M203.434,118.12a.7.7,0,0,1-.094-.5.7.7,0,0,1,.164-.329.962.962,0,0,1,.443-.276c.252-.067.484-.042.624-.259.043.275-.235.513-.364.686a.315.315,0,0,0-.051.22c.014.078.117-.023.065-.162a.5.5,0,0,1-.787.617Z"/>
            </g>
          </g>
        </g>
        <circle class="cls-22" cx="201.615" cy="121.474" r="2.592"/>
        <circle class="cls-23" cx="203.662" cy="120.64" r="0.834"/>
      </g>
      <g id="left_eye" data-name="left eye">
        <path class="cls-24" d="M214.609,131.976a1.2,1.2,0,0,1-.81.72,4.677,4.677,0,0,1-3.63-.64,1.983,1.983,0,0,1-.2-.11,14.065,14.065,0,0,0-2.04-1.15,14.561,14.561,0,0,0-4.46-.72c-4.87-.29-10.01-1.22-14.19-3.88a13.1,13.1,0,0,1-4.38-4.64,9.287,9.287,0,0,1-1.1-7.03c.44-1.61,2.13-2.7,3.57-3.38a11.677,11.677,0,0,1,4.37-1.04,18.646,18.646,0,0,1,9.96,2.49,21.649,21.649,0,0,1,6,4.75,38.02,38.02,0,0,1,4.33,6.8c.42.82.83,1.65,1.19,2.49a18.311,18.311,0,0,1,1.39,4.59A1.725,1.725,0,0,1,214.609,131.976Z"/>
        <path class="cls-25" d="M212.97,127.491a87.759,87.759,0,0,0-5.223-8.419,20.114,20.114,0,0,0-3.261-3.273,21.5,21.5,0,0,0-8.158-4.079,20.1,20.1,0,0,0-4.579-.6,34.037,34.037,0,0,0-9.669,1.426l-.094-.177a24.31,24.31,0,0,1,9.667-2.817,19.143,19.143,0,0,1,9.864,1.98,19.665,19.665,0,0,1,7.543,6.665,41.775,41.775,0,0,1,4.1,9.226Z"/>
        <path class="cls-14" d="M215.958,126.589a35.174,35.174,0,0,0-3.464-9.882,20.223,20.223,0,0,0-7.039-7.493,21.487,21.487,0,0,0-9.708-3.167,18.926,18.926,0,0,0-10.066,1.934l-.052-.086a16.379,16.379,0,0,1,10.179-2.846,19.746,19.746,0,0,1,10.083,3.494,20.887,20.887,0,0,1,7.044,7.928,35.475,35.475,0,0,1,3.121,10.1Z"/>
        <path class="cls-25" d="M202.425,130.761a17.125,17.125,0,0,1-6.4.306,10.822,10.822,0,0,1-1.6-.272c-.531-.109-1.058-.246-1.584-.4a21.388,21.388,0,0,1-3.062-1.241,19.671,19.671,0,0,1-2.8-1.855,14.052,14.052,0,0,1-2.3-2.491,10.717,10.717,0,0,1-2.072-6.216l.189-.064a21.389,21.389,0,0,0,1.266,2.775,13.635,13.635,0,0,0,1.787,2.456,16.472,16.472,0,0,0,4.85,3.623,31.619,31.619,0,0,0,11.737,3.18Z"/>
      </g>
      <g id="right_eyeball" data-name="right eyeball">
        <path class="cls-17" d="M284.763,164.854c-2.8,1.02-6.35.195-9.048-.672a34.813,34.813,0,0,1-11.636-6.506c-1.46-1.23-2.9-2.5-4.431-3.651a54,54,0,0,0-5.616-3.414c-1.034-.6-1.5-1.79-.414-2.675a4.354,4.354,0,0,1,1.646-.708c4.046-1.11,8.194-2.6,12.425-2.722a21.887,21.887,0,0,1,12.7,3.24c1.5.984,6.529,4.062,7.939,8.469a7.071,7.071,0,0,1-1.147,7.03A5.958,5.958,0,0,1,284.763,164.854Z"/>
        <path class="cls-18" d="M288.329,156.216a6.454,6.454,0,0,1-6.01,9.1,32.964,32.964,0,0,1-6.24-1.18,32.248,32.248,0,0,1-12-6.46c-1.46-1.23-2.9-2.5-4.43-3.65-.02-.21-.02-.43-.02-.64a14.5,14.5,0,0,1,2.48-8.12,32.3,32.3,0,0,1,5.58-.76,21.887,21.887,0,0,1,12.7,3.24A25.644,25.644,0,0,1,288.329,156.216Z"/>
        <circle class="cls-26" cx="273.685" cy="153.385" r="7.45"/>
        <g id="Layer_13" data-name="Layer 13">
          <g>
            <g class="cls-20">
              <path class="cls-21" d="M269.786,152.16a4.437,4.437,0,0,0-1.728-1.486,4.938,4.938,0,0,1,2.407.751l.018.012a.513.513,0,1,1-.543.871A.531.531,0,0,1,269.786,152.16Z"/>
            </g>
            <g class="cls-20">
              <path class="cls-21" d="M270.337,154.231a16.093,16.093,0,0,1-.945,1.372,1.11,1.11,0,0,1-.831.415.948.948,0,0,0-.364,0c-.082.028-.177.2-.051.279-.154-.039-.144-.274-.02-.382a1.027,1.027,0,0,1,.409-.15.744.744,0,0,0,.447-.452c.175-.423.292-.993.444-1.5l.008-.025a.508.508,0,1,1,.973.293A.535.535,0,0,1,270.337,154.231Z"/>
            </g>
            <g class="cls-20">
              <path class="cls-21" d="M271.685,156.81c.053-.129-.08-.049-.058.124a4.267,4.267,0,0,0,.185.656,1.041,1.041,0,0,1-.134.825,1.609,1.609,0,0,0-.287.64,1.687,1.687,0,0,1,.052-.725.647.647,0,0,0-.095-.555,4.042,4.042,0,0,1-.437-.618,1.161,1.161,0,0,1-.112-.521.875.875,0,0,1,.323-.653.5.5,0,0,1,.563.827Z"/>
            </g>
            <g class="cls-20">
              <path class="cls-21" d="M274.234,156.892a1.344,1.344,0,0,0,.531,1.186,2.391,2.391,0,0,0,.727.336c.268.1.594.256.678.549a.877.877,0,0,0-.732-.3,2.807,2.807,0,0,1-.909-.14,2.1,2.1,0,0,1-1.292-1.548l-.01-.049a.511.511,0,0,1,1-.2A.5.5,0,0,1,274.234,156.892Z"/>
            </g>
            <g class="cls-20">
              <path class="cls-21" d="M276,155.957l.669-.125.343-.064a.672.672,0,0,1,.374.011.519.519,0,0,1,.309.313.874.874,0,0,1,.01.477l-.053.315c-.021.2-.017.362.1.445l-.182.064a.612.612,0,0,1,1.037.064.469.469,0,0,0-.784.072.109.109,0,0,1-.13.08l-.007,0-.045-.014a.779.779,0,0,1-.458-.695c-.037-.224-.03-.558-.081-.548-.011,0,.018.062.074.085s.076.014.043.034l-.3.144-.613.294a.5.5,0,1,1-.436-.909A.5.5,0,0,1,276,155.957Z"/>
            </g>
            <g class="cls-20">
              <path class="cls-21" d="M277.1,153.884a.885.885,0,0,1,.625-.345,1.024,1.024,0,0,1,.57.108,1.684,1.684,0,0,1,.6.612l-.453.2a.821.821,0,0,1,.645-.725,3.754,3.754,0,0,1,.808-.052,3.711,3.711,0,0,0-.7.292c-.188.122-.29.353-.226.45a.223.223,0,0,1-.323.3l-.13-.1a1.016,1.016,0,0,0-.494-.259.194.194,0,0,0-.124.046c-.027.026,0,.048.045.023a.5.5,0,0,1-.841-.542Z"/>
            </g>
            <g class="cls-20">
              <path class="cls-21" d="M276.936,151.553a.648.648,0,0,1,.49-.5.79.79,0,0,1,.434.027.7.7,0,0,1,.32.207c-.127.068.06.1.083-.151a1.722,1.722,0,0,1,.236-.81,1.273,1.273,0,0,1,.624-.508,1.149,1.149,0,0,0-.4.612,1.372,1.372,0,0,0,.037.7.863.863,0,0,1-.072.542.647.647,0,0,1-.668.349c-.239-.04-.4-.133-.386-.094.01.011.006.027.053.027.032.015.2-.082.234-.243a.5.5,0,1,1-.988-.157Z"/>
            </g>
            <g class="cls-20">
              <path class="cls-21" d="M275.379,149.672a1.355,1.355,0,0,1,1.18-1.174c.162-.015.126.011.145.028s.038-.1.01-.181c-.047-.152-.254-.436-.088-.63-.059.231.15.325.306.508a.5.5,0,0,1,.125.429c-.052.241-.343.305-.379.332a.6.6,0,0,0-.3.693.547.547,0,1,1-1.026.174Z"/>
            </g>
            <g class="cls-20">
              <path class="cls-21" d="M272.941,149.352a.661.661,0,0,1,.275-.662.928.928,0,0,1,.331-.131c.2-.043.24-.012.359-.076a.676.676,0,0,0,.314-.72.926.926,0,0,1,.066,1.044,1.527,1.527,0,0,1-.422.432c-.05.045-.09.1-.072.11.01.043.145-.123.117-.247a.5.5,0,0,1-.968.25Z"/>
            </g>
            <g class="cls-20">
              <path class="cls-21" d="M271.453,150.174a.7.7,0,0,1-.492-.114.683.683,0,0,1-.235-.282.964.964,0,0,1-.076-.517c.041-.258.156-.459.013-.675.27.071.376.421.482.609a.317.317,0,0,0,.182.134c.077.02.025-.115-.122-.124a.5.5,0,0,1,.248.969Z"/>
            </g>
          </g>
        </g>
        <circle class="cls-22" cx="273.685" cy="153.385" r="2.592"/>
        <circle class="cls-23" cx="275.879" cy="152.495" r="0.834"/>
      </g>
      <g id="right_eye" data-name="right eye">
        <path class="cls-24" d="M284.763,164.854c-2.8,1.02-6.35.195-9.048-.672a34.813,34.813,0,0,1-11.636-6.506c-1.46-1.23-2.9-2.5-4.431-3.651a54,54,0,0,0-5.616-3.414c-1.034-.6-1.5-1.79-.414-2.675a4.354,4.354,0,0,1,1.646-.708c4.046-1.11,8.194-2.6,12.425-2.722a21.887,21.887,0,0,1,12.7,3.24c1.5.984,6.529,4.062,7.939,8.469a7.071,7.071,0,0,1-1.147,7.03A5.958,5.958,0,0,1,284.763,164.854Z"/>
        <path class="cls-25" d="M290.738,161.86a88.114,88.114,0,0,0-5.069-8.513,20.165,20.165,0,0,0-3.2-3.331,21.534,21.534,0,0,0-8.082-4.227,20.174,20.174,0,0,0-4.568-.682,34.062,34.062,0,0,0-9.694,1.25l-.09-.178a24.312,24.312,0,0,1,9.716-2.642,19.148,19.148,0,0,1,9.827,2.16,19.657,19.657,0,0,1,7.42,6.8,41.76,41.76,0,0,1,3.931,9.3Z"/>
        <path class="cls-25" d="M262.412,156.958a66.387,66.387,0,0,0,5.4,3.966c.913.565,1.809,1.115,2.747,1.576.471.22.926.469,1.4.678.483.181.946.415,1.439.556a17.444,17.444,0,0,0,2.95.873,20.58,20.58,0,0,0,3.081.522,40.521,40.521,0,0,0,6.641,0l.072.186a19.63,19.63,0,0,1-6.682,1.382,18.77,18.77,0,0,1-6.751-1.09,20.152,20.152,0,0,1-5.894-3.467,23.526,23.526,0,0,1-4.566-5.074Z"/>
        <path class="cls-14" d="M257.33,141.612a28.879,28.879,0,0,1,11.01-2.906,29.252,29.252,0,0,1,11.376,1.386,24.938,24.938,0,0,1,5.251,2.451,19.541,19.541,0,0,1,2.356,1.732,18.83,18.83,0,0,1,2.019,2.122A22.519,22.519,0,0,1,293.66,157l-.1.023c-1.142-3.615-2.541-7.192-4.991-9.992a21.846,21.846,0,0,0-9.12-6.186,30.52,30.52,0,0,0-22.076.854Z"/>
      </g>
    </g>
    <g id="eyebrows">
      <path class="cls-27" d="M226.305,107.688a1.323,1.323,0,0,0,1.607-1.14,13.16,13.16,0,0,0-.111-3.75c-.7-3.5-4.79-6.619-7.506-8.607-2.206-1.616-4.579-2.984-6.81-4.564-2.178-1.542-4.1-3.4-6.186-5.059-5.333-4.237-11.376-5.618-17.281-1.578a18.34,18.34,0,0,0-3.64,3.739,8.183,8.183,0,0,0-.674,1.9c.062.309-.129.342-.008.464.961.965,3.169-1.521,3.9-2.021a13.6,13.6,0,0,1,4.979-2.24c5.6-1.093,9.647,4.216,12.456,8.236a44.2,44.2,0,0,0,6.754,7.832,38.8,38.8,0,0,0,6.379,4.35A22.063,22.063,0,0,0,226.305,107.688Z"/>
      <g id="Layer_15" data-name="Layer 15">
        <path class="cls-27" d="M211.183,92.293a5.5,5.5,0,0,0,.793-5.084,7.038,7.038,0,0,1,2.034,6.09l-.029.2a1.58,1.58,0,1,1-3.129-.442A1.606,1.606,0,0,1,211.183,92.293Z"/>
        <path class="cls-27" d="M214.81,96.215a4.557,4.557,0,0,1-.4.542c-.072.083-.147.165-.221.239a1.272,1.272,0,0,1-.1.089c-.007,0-.028.025.023-.046l.045-.067a2.23,2.23,0,0,0,.155-.26l.065-.138c.029-.181-.011.289.188-.761a2.418,2.418,0,0,0-1.4-2.322,2.272,2.272,0,0,0-.734-.189,2.343,2.343,0,0,0-.717.047,1.751,1.751,0,0,0-.308.092l-.025.01a1.271,1.271,0,0,0-.353.232.27.27,0,0,0-.072.1c-.045.09.017.05.042.064a1.775,1.775,0,0,0,.646-.487,8.663,8.663,0,0,0,1.274-1.8,15.5,15.5,0,0,0,1.572-4.62,16.835,16.835,0,0,1,.862,5.192,12.039,12.039,0,0,1-.331,2.859,6.192,6.192,0,0,1-.631,1.619,2.916,2.916,0,0,1-.376.517,3.1,3.1,0,0,1-.3.3,3.749,3.749,0,0,1-.621.385l-.041.02a1.812,1.812,0,0,1-.313.093,2.344,2.344,0,0,1-.722.048,2.282,2.282,0,0,1-.738-.188,2.425,2.425,0,0,1-1.4-2.327c.2-1.051.159-.583.188-.765l.068-.143a2.285,2.285,0,0,1,.16-.268l.057-.082a.672.672,0,0,0,.071-.106c.012-.025,0-.026,0-.032a.074.074,0,0,0-.04-.01.418.418,0,0,0-.093,0,2.5,2.5,0,1,1,4.513,2.153Z"/>
        <path class="cls-27" d="M214.857,100.56a4.94,4.94,0,0,1-1.8-2.46,4.348,4.348,0,0,1-.031-2.486,12.369,12.369,0,0,1,1.269-2.734c.445-.778.88-1.534,1.294-2.313s.779-1.578,1.176-2.389c.1.881.231,1.784.294,2.688s.112,1.82.154,2.712a8.337,8.337,0,0,0,.3,2.322c.1.256.285.281.323.036a2.2,2.2,0,0,0-.066-.622,3,3,0,0,1-2.913,5.246Z"/>
        <path class="cls-27" d="M214.508,97.656a17.54,17.54,0,0,0,3.233-8.492,20.1,20.1,0,0,1,1.485,10.149l-.019.175a2.611,2.611,0,1,1-5.191-.569A2.647,2.647,0,0,1,214.508,97.656Z"/>
        <path class="cls-27" d="M217.854,101.975a8.566,8.566,0,0,1-.578-3.595,9.39,9.39,0,0,1,.733-3.1,14.727,14.727,0,0,1,3.139-4.534,13.125,13.125,0,0,0-.169,4.96,5.416,5.416,0,0,0,.736,1.933,3.151,3.151,0,0,0,1.194,1.1,3.361,3.361,0,1,1-4.667,4.22Z"/>
        <path class="cls-27" d="M218.188,100.76l3.754-8.713,2.224,9.223a3.162,3.162,0,1,1-5.978-.51Z"/>
        <path class="cls-27" d="M220.846,102.214a19.924,19.924,0,0,1,3.04-9.75,16.826,16.826,0,0,0,2.8,8.374,3.219,3.219,0,1,1-5.855,1.715Z"/>
        <path class="cls-27" d="M221.444,101.56l3.777-5.51,2.168,6.319a3.357,3.357,0,1,1-5.945-.809Z"/>
        <path class="cls-27" d="M224.751,104.561l2.893-5.263.014,6a1.549,1.549,0,0,1-3.1.008A1.567,1.567,0,0,1,224.751,104.561Z"/>
      </g>
      <path class="cls-27" d="M259.671,118.249c.01-.031.019-.053.026-.07.49-1.183,3.054-1.348,3.6-1.378a66.415,66.415,0,0,1,10.766-.032c10.006,1.374,20.313,1.912,27.7,9.806,2.486,2.655,3.819,6.081,5.048,9.443,1.04,2.845,2.858,6.132,3.019,9.2.09,1.7.358,2.507,0,2.866-.767.778-1.994-3.443-2.236-3.958a43.592,43.592,0,0,0-9.8-13.212c-3.784-3.412-8.448-3.735-11.26-4.227s-5.273-.493-10.17-.493c-6.067,0-10.6-.364-14.893-4.981C260.336,119.988,259.4,119.069,259.671,118.249Z"/>
      <g id="Layer_14" data-name="Layer 14">
        <g>
          <path class="cls-27" d="M280.279,119.662a7.039,7.039,0,0,1,6.183-1.732,5.512,5.512,0,0,0-3.765,3.508,1.58,1.58,0,1,1-2.575-1.633Z"/>
          <path class="cls-27" d="M280.593,124.245a.29.29,0,0,0-.054-.07.081.081,0,0,0-.034-.021c-.007,0-.013,0-.025.018a.464.464,0,0,0-.033.078l-.033.093-.018.048a2.58,2.58,0,0,1-.129.284l-.078.136c-.135.131.239-.179-.526.6a2.427,2.427,0,0,1-2.77.134,2.276,2.276,0,0,1-.535-.488,2.346,2.346,0,0,1-.351-.6,1.722,1.722,0,0,1-.1-.322l0-.021a3.836,3.836,0,0,1-.036-.709,2.468,2.468,0,0,1,.073-.434,2.889,2.889,0,0,1,.208-.612,6.253,6.253,0,0,1,.975-1.479,12.067,12.067,0,0,1,2.192-1.969,16.829,16.829,0,0,1,4.862-2.335,15.49,15.49,0,0,0-3,4,8.8,8.8,0,0,0-.779,2.125,1.88,1.88,0,0,0-.039.837c.021.024.029.084.074.006a.206.206,0,0,0,.042-.119,1.213,1.213,0,0,0-.011-.394l0-.012a2.383,2.383,0,0,0-.1-.316,2.324,2.324,0,0,0-.881-1.079,2.422,2.422,0,0,0-2.766.132c-.763.776-.389.465-.524.594l-.075.132a2.257,2.257,0,0,0-.125.275l-.015.038-.027.074c-.01.022-.013.023-.011,0l.02-.134c.018-.1.042-.212.07-.32a4.747,4.747,0,0,1,.218-.641,2.5,2.5,0,0,1,4.35,2.467Z"/>
          <path class="cls-27" d="M275.608,118.8a2.213,2.213,0,0,0-.553.294c-.181.169-.058.308.212.248a8.394,8.394,0,0,0,2.092-1.051c.763-.465,1.544-.945,2.332-1.393s1.606-.852,2.39-1.264c-.449.782-.911,1.528-1.318,2.313s-.795,1.564-1.19,2.368a12.3,12.3,0,0,1-1.551,2.585,4.353,4.353,0,0,1-2.076,1.368,4.937,4.937,0,0,1-3.048-.114,3,3,0,1,1,2.71-5.354Z"/>
          <path class="cls-27" d="M270.451,119.159c1.7-.7,3.423-1.4,5.137-2.136l5.106-2.345-3.21,4.67c-1.111,1.536-2.26,3.051-3.41,4.594a3.123,3.123,0,1,1-3.711-4.747Z"/>
          <path class="cls-27" d="M269.088,117.321a3.147,3.147,0,0,0,1.579.371,5.419,5.419,0,0,0,2.014-.475,13.134,13.134,0,0,0,4.012-2.921,14.7,14.7,0,0,1-1.994,5.141,9.341,9.341,0,0,1-2.153,2.344,8.565,8.565,0,0,1-3.3,1.538l-1.029.231a3.361,3.361,0,1,1,.871-6.229Z"/>
          <path class="cls-27" d="M266.324,117.748l8.883-3.331-5.108,8a3.162,3.162,0,1,1-3.775-4.664Z"/>
          <path class="cls-27" d="M265.268,115.42a16.824,16.824,0,0,0,8.5-2.379,19.937,19.937,0,0,1-6.367,7.986l-.272.2a3.219,3.219,0,1,1-1.865-5.808Z"/>
          <path class="cls-27" d="M263.607,115.7l6.447-1.749-2.444,6.218a3.357,3.357,0,1,1-4-4.469Z"/>
          <path class="cls-27" d="M261.026,117.119l4.98-3.356-2.735,5.346a1.549,1.549,0,1,1-2.758-1.411A1.583,1.583,0,0,1,261.026,117.119Z"/>
        </g>
      </g>
    </g>
    <g id="nose">
      <g id="nostrils">
        <path class="cls-6" d="M201.613,180.313c-.5.714-2.623-.083-3.861-.547-.928-.349-1.316-.633-1.524-1.069a1.659,1.659,0,0,1,.132-1.69c.7-.833,2.5-.427,3.569.283C201.141,178.093,202.047,179.693,201.613,180.313Z"/>
        <path class="cls-6" d="M227.72,191.577a1.721,1.721,0,0,1-1.422.487c-2.183-.209-3.788-4.261-2.908-5.169.477-.492,1.646-.023,1.908.082C227.331,187.792,228.5,190.542,227.72,191.577Z"/>
      </g>
      <path class="cls-14" d="M199.358,163.005c-2.008,1.152-4,2.378-5.135,4.329a12.312,12.312,0,0,0-1.843,6.313,8.9,8.9,0,0,0,2.174,6.054,10.044,10.044,0,0,0,2.549,2.165,10.764,10.764,0,0,0,3.147,1.319,9.5,9.5,0,0,1-3.381-.887,10.559,10.559,0,0,1-2.883-2.078,8.95,8.95,0,0,1-1.975-3.015,9.748,9.748,0,0,1-.631-3.567,11.811,11.811,0,0,1,2.21-6.734,9.493,9.493,0,0,1,2.6-2.439A19.474,19.474,0,0,1,199.358,163.005Z"/>
      <path class="cls-14" d="M200.342,180.551a8.915,8.915,0,0,1-3.234-.857,3.165,3.165,0,0,1-.728-.481,1.383,1.383,0,0,1-.424-.829,1.984,1.984,0,0,1,.65-1.678,2.254,2.254,0,0,1,1.708-.645,3.206,3.206,0,0,1,1.695.643,5.116,5.116,0,0,1,1.877,2.961c.266,1.14.268,2.279.508,3.269a5.191,5.191,0,0,0,1.71,2.5,14.269,14.269,0,0,0,5.706,2.856,11.724,11.724,0,0,0,6.323-.083,21.3,21.3,0,0,1,6.527-1.687,6.059,6.059,0,0,1,3.4.792,4.506,4.506,0,0,1,1.951,2.872,1.8,1.8,0,0,1-.527,1.728,1.683,1.683,0,0,1-1.747.146,5.039,5.039,0,0,1-2.145-2.548,5.209,5.209,0,0,0,2.243,2.3,1.214,1.214,0,0,0,1.7-1.529,3.993,3.993,0,0,0-1.8-2.428,5.372,5.372,0,0,0-3.032-.566,23.206,23.206,0,0,0-6.287,1.785,12.637,12.637,0,0,1-6.839.187,15.367,15.367,0,0,1-6.069-3.145,6.068,6.068,0,0,1-1.944-2.959c-.274-1.178-.222-2.291-.422-3.327a4.416,4.416,0,0,0-1.509-2.621,2.037,2.037,0,0,0-2.694-.139,1.557,1.557,0,0,0-.6,1.276c.012.5.433.848.908,1.122A9.732,9.732,0,0,0,200.342,180.551Z"/>
      <path class="cls-14" d="M219.9,189.1a8.658,8.658,0,0,0,6.414,5.465A7.668,7.668,0,0,0,233.8,191.5a11.874,11.874,0,0,0,2.105-8.228,18.286,18.286,0,0,0-.89-4.343,22.271,22.271,0,0,0-1.784-4.121,18.219,18.219,0,0,1,3.439,8.382,13.5,13.5,0,0,1-.143,4.638A10.99,10.99,0,0,1,234.6,192.1a8.495,8.495,0,0,1-3.746,2.875,8.168,8.168,0,0,1-4.688.339,8.32,8.32,0,0,1-4.051-2.253A8.974,8.974,0,0,1,219.9,189.1Z"/>
      <g class="cls-28">
        <path class="cls-14" d="M226.924,119.506a32.037,32.037,0,0,1,.906,7.906,28.461,28.461,0,0,1-1.089,7.944c-.2.645-.446,1.274-.668,1.911-.275.617-.555,1.234-.851,1.841-.352.578-.7,1.169-1.055,1.732s-.746,1.091-1.128,1.63l-2.285,3.241c-.792,1.06-1.555,2.139-2.372,3.183.627-1.168,1.309-2.3,1.962-3.451l2.051-3.394q.508-.851,1.038-1.688l.947-1.687.785-1.767c.2-.613.435-1.217.618-1.837a35.017,35.017,0,0,0,1.282-7.682c.095-1.306.108-2.619.073-3.932C227.137,122.139,227.044,120.825,226.924,119.506Z"/>
      </g>
    </g>
    <g id="mouth">
      <path class="cls-29" d="M176.549,198.779a8.552,8.552,0,0,1,.118,2.043c.79,8.779,5.554,18.13,13.066,23.111,12.065,8,26.349,5.582,38.8.079,1.214-.537,2.458-1.018,3.676-1.571.81-.367,2.3-1.47,3.176-1.5a71.565,71.565,0,0,1-24.7-3.5c-5.16-1.712-9.847-4.206-19.21-9.216a109.767,109.767,0,0,1-13.938-8.711C177.118,199.208,176.777,198.952,176.549,198.779Z"/>
      <g id="Layer_7" data-name="Layer 7">
        <path class="cls-30" d="M176.625,198.671c7.012-.37,14.918-2,21.3,1.861a22.076,22.076,0,0,1,5.932,5.43c1.014,1.31,3.006.6,4.38.549a17.5,17.5,0,0,1,9.225,2.339c3.632,2.068,5.935,5.59,9.414,7.833,4.368,2.818,8.661,3.7,8.5,4.263-.057.207-.962.216-2.773.233-1.653.016-2.9-.05-3.113-.062,0,0-3.036-.167-7.116-.749A99.785,99.785,0,0,1,207.5,217.2a104.092,104.092,0,0,1-16.587-7.434,70.511,70.511,0,0,1-8.2-5.335c-.368-.289-.733-.587-.734-.587-.988-.805-1.734-1.466-2.133-1.824C177.619,200.021,176.253,198.691,176.625,198.671Z"/>
      </g>
      <g id="Layer_8" data-name="Layer 8">
        <path class="cls-31" d="M173.067,195.041a88.538,88.538,0,0,0,6.906,6.337,84.387,84.387,0,0,0,24.089,14.061A82.637,82.637,0,0,0,222.1,220.1a90.206,90.206,0,0,0,18.683.673,75.314,75.314,0,0,1-9.378.634,83.323,83.323,0,0,1-9.405-.545,77.213,77.213,0,0,1-34.953-13.279A75.375,75.375,0,0,1,173.067,195.041Z"/>
      </g>
    </g>
    <g id="hairline">
      <g id="Layer_39" data-name="Layer 39">
        <path class="cls-5" d="M245.069,39.165a1.636,1.636,0,0,0,.118.191,1.868,1.868,0,0,0,.4.388c2.275,1.737,6.754,1.707,8.942-.2a.153.153,0,0,0,.059-.1c.077-.507-2.793-.665-4.416-2.6a2.911,2.911,0,0,1-.824-1.909,3.766,3.766,0,0,1,.554-1.654,4.554,4.554,0,0,1,.477-.682,5.982,5.982,0,0,0-4.238,2.031A5.421,5.421,0,0,0,245.069,39.165Z"/>
      </g>
      <path class="cls-27" d="M241.581,38.958c-.227.01-1.7,0-2.279.011a12.548,12.548,0,0,0-1.357-.044c-2.432.35-3.637.224-5.212.528a22.584,22.584,0,0,0-4.026,1.409c-6.72,3.134-12.425,8.057-17.784,13.1-2.671,2.511-5.287,5.08-7.94,7.611q-1.765,1.685-3.552,3.348c-1.078,1-3.612,2.551-4.19,3.869a63.4,63.4,0,0,1,5.234-9.594c1.448-2.182,2.684-3.748,3.165-4.35a45.308,45.308,0,0,1,7.686-7.9,41.793,41.793,0,0,1,15.959-7.5c7.219-1.841,10.829-2.761,13.313-2.3.695.128,2.827.593,4.055-.545.877-.813.608-1.811,1.513-3.026a5.937,5.937,0,0,1,3.344-1.976c5.447-1.6,12.388,1.618,12.388,1.618,8.37,2.455,14.984,7.507,22.252,13.819,5.449,4.526,10.713,6.566,16.409,11.58s16.011,12.46,20.568,18.357a69.6,69.6,0,0,1,9.694,17.3c2.667,6.4,4.042,17.891,4.8,23.931s-1.212,10.039-1.529,14.63c-.252,3.646-4.5,6.528-7.413,13.709a9.721,9.721,0,0,1-.8,2.062c-1.025,1.805-3.01,2.7-4.428,4.152a26.694,26.694,0,0,0-3.976,5.465c-1.222,2.12-2.816,4.016-4.145,6.071-.232.359-1.815,3.475-2.305,2.71a.778.778,0,0,1,0-.641c1.282-4.15,2.253-8.358,4.446-12.21,3.414-6,6.222-10.453,7.313-12.25,4.822-7.945,8.21-13.528,8.228-19.929.019-7.067-4.088-8.385-9.675-20.729C315.9,89.207,319,88.72,314.574,79.771c-5.369-10.843-14.463-18.809-25.094-25.684a74.7,74.7,0,0,0-13.152-6.934c-3.307-1.315-8.353-2.663-12.486-4.041a44.776,44.776,0,0,0-4.38-1.2c-.914-.162-2.9-.325-4.257-.653-2-.484-4.634-.774-5.875-2.9a4.95,4.95,0,0,1,.267-5.086,2.863,2.863,0,0,1,.393-.387c.086-.092.428-.189.361-.288s-.344.006-.538.06c-1.379.382-2.38,1.8-3.025,2.864a7.326,7.326,0,0,1-1.664,2.333,2.239,2.239,0,0,1-.748.454A7.713,7.713,0,0,1,241.581,38.958Z"/>
    </g>
    <g id="hair">
      <path class="cls-3" d="M413.7,116.793c.185-.2,3.816,1.844,4.077,2.042,3.4,2.578,7,4.147,9.481,7.44,6.449,8.575,8.529,18.059,10.07,28.49,1.138,7.7.925,14.115-3.3,20.817-2.209,3.5-5.676,5.62-6.5,10s.652,8.577,2.821,12.436c2.5,4.444,5.985,8.131,8.1,12.8,2.26,5,4.509,10.243,4.666,15.8.2,7.3-4.11,10.928-9.252,15.368-2.939,2.539-5.848,4.642-6.738,8.664s1.027,7.7,2.4,11.405c1.991,5.372,3.916,10.617,4,16.4a51.71,51.71,0,0,1-2.859,18.036,23.4,23.4,0,0,1-3.526,6.681,22.841,22.841,0,0,1-5.559,5.052c-12.249,8.429-19.092,25.008-33.819,29.719-5.218,1.669-12.6,1.745-15.679,7.151-2.375,4.172-.015,9.744,4.768,11.853a14.434,14.434,0,0,0,5.54.915c2.281-.1,4.966-.387,6.439-2.281a5.367,5.367,0,0,0,.382-5.986,5.218,5.218,0,0,0-2.588-2.382c-.206-.106-2.582-.853-2.54-.933.964-1.848,3.316-2.432,5.257-2.178a10.582,10.582,0,0,1,5.815,2.847,11.579,11.579,0,0,1,4.254,7.816,8.593,8.593,0,0,1-.935,4.988c-4.321,7.947-11.728,10.39-20.524,9.832-4.5-.285-9.6-1.81-12.633-5.132-12.245-13.415-10.429-25.242,2.154-36.328,6.288-5.54,11.409-6.17,14.1-13.308,1.527-4.053.832-6.484,1.784-10.376.809-3.3.681-6.62,2.9-9.508.95-1.234,2.139-1.72,4.642-2.777,8.341-3.521,20.689-4.611,18.42-17.022-.862-4.713-4-8.949-7.529-12.058-2.62-2.307-7.386-4.406-7.689-8.392-.32-4.221,3.612-8.228,5.024-12.018,1.737-4.661,3.108-9.52,4.994-14.118,1.632-3.978,4.658-6.777,7.446-9.988,1.09-1.254,2.656-1.977,3.358-3.676,2.264-5.487-.007-11.384-2.395-16.186-2.017-4.055-4.862-5.938-7.02-9.51-5-8.274-5.4-16.93-3.484-26.038,1.5-7.116,4.288-12.812,5.48-19.8a8.944,8.944,0,0,0-.771-5.7c-.574-1.13-1.5-1.421-1.544-2.8a15.122,15.122,0,0,1,1.874-7.121C409.042,123.829,410.616,120.128,413.7,116.793Z"/>
      <g>
        <path class="cls-32" d="M362.209,374.465a15.214,15.214,0,0,1-13.105-6.687c-1.4-1.936-1.477-4.171-1.558-6.537-.023-.654-.045-1.31-.1-1.964a48.073,48.073,0,0,1,.366-9.282,62.668,62.668,0,0,1,3.208-14.84c3.035-7.8,7.07-12.86,13.085-16.4,5.352-3.146,8.334-5.224,10.307-6.6.364-.254.689-.48.982-.68,6.483-4.432,10.064-13.421,10.25-20.01.188-6.664-2.957-12.3-6.6-18.836a103.4,103.4,0,0,1-7.651-15.99,16.707,16.707,0,0,1-1.087-7.765,19.543,19.543,0,0,1,3.853-9.13c1.759-2.5,3.683-4.927,5.544-7.276,4.468-5.64,9.088-11.472,11.62-18.561,1.926-5.39,1.321-10.751.537-15.781-.63-4.034-1.6-8.039-2.528-11.913a110.021,110.021,0,0,1-3.019-15.951,32.2,32.2,0,0,1,.293-6.791c.067-.55.125-1.1.185-1.649a41.077,41.077,0,0,1,.82-5.363,72.818,72.818,0,0,1,5.395-14.684,16.789,16.789,0,0,1,2.913-4.145,2.247,2.247,0,0,1,.643-.523,42.549,42.549,0,0,1,9.762-2.733c1.986-.388,4.035-.788,6.045-1.361-.013,20.6,4.247,39.636,10.641,61.816l.383,1.325c1.677,5.78,3.261,11.238,3.283,17.3a23.49,23.49,0,0,1-6.608,16.833,18.769,18.769,0,0,1-7.142,4.75,10.211,10.211,0,0,0-3.522,2.045c-3.977,3.979-.667,11.607,3.166,20.441,4.012,9.245,8.559,19.723,4.626,26.988-2.384,4.4-6.827,5.852-11.532,7.386-5.255,1.714-10.688,3.486-12.979,9.691-1.895,5.134-1.321,12.527-.859,18.469.154,1.994.356,3.581.534,4.981.426,3.354.661,5.2-.47,7.636-1.688,3.635-5.381,5.78-8.078,7.346-.786.457-1.529.888-2.118,1.3a26.26,26.26,0,0,1-6.854,3.091c-1.085.368-2.207.75-3.324,1.2-.2.082-.407.151-.611.219a6.413,6.413,0,0,0-1.379.6,20.7,20.7,0,0,0-7.951,8.283,29.794,29.794,0,0,0-2.6,8.159l-.025.125a3.911,3.911,0,0,0,.217,2.954,5.529,5.529,0,0,0,4.688,2.868,6.59,6.59,0,0,0,4.471-2,2.923,2.923,0,0,0,.655-3.735,3.288,3.288,0,0,0-2.8-1.3,9.89,9.89,0,0,0-2.916.572,6.691,6.691,0,0,0-1.195.518,5.651,5.651,0,0,1,5.524-4.694,6.967,6.967,0,0,1,6.577,5.375,9.71,9.71,0,0,1-1.909,7.436,6.742,6.742,0,0,1-4.337,2.812,26.971,26.971,0,0,1-5.723.673Z"/>
        <path class="cls-16" d="M411.877,133.672c.077,20.412,4.322,39.315,10.659,61.3l.386,1.331c1.666,5.743,3.24,11.168,3.261,17.154a23.006,23.006,0,0,1-6.47,16.486,18.107,18.107,0,0,1-6.973,4.634,10.749,10.749,0,0,0-3.682,2.152c-4.218,4.22-.845,11.993,3.06,20.993,3.967,9.141,8.462,19.5,4.645,26.552-2.288,4.227-6.64,5.646-11.248,7.149-5.367,1.75-10.917,3.56-13.292,9.993-1.934,5.236-1.354,12.691-.889,18.681.156,2.007.359,3.6.537,5.007.428,3.367.643,5.057-.427,7.36-1.622,3.492-5.236,5.591-7.875,7.124-.8.462-1.548.9-2.152,1.318a25.9,25.9,0,0,1-6.732,3.029c-1.092.371-2.22.754-3.349,1.213-.194.078-.389.143-.583.209a6.783,6.783,0,0,0-1.483.643,21.193,21.193,0,0,0-8.13,8.475,30.667,30.667,0,0,0-2.648,8.3l-.024.119a4.375,4.375,0,0,0,.282,3.322,6.015,6.015,0,0,0,5.112,3.1,7.084,7.084,0,0,0,4.817-2.145c1.125-1.079,1.757-2.986.71-4.394a3.762,3.762,0,0,0-3.2-1.5,10.354,10.354,0,0,0-3.07.6c-.07.023-.148.049-.234.08a5.036,5.036,0,0,1,4.716-3.28,6.067,6.067,0,0,1,3.107.91,6.006,6.006,0,0,1,2.98,4.066,9.194,9.194,0,0,1-1.823,7.04,6.265,6.265,0,0,1-4.039,2.618,26.449,26.449,0,0,1-5.617.662,14.744,14.744,0,0,1-12.7-6.479c-1.311-1.813-1.385-3.973-1.463-6.26-.022-.649-.045-1.319-.1-1.988a47.639,47.639,0,0,1,.364-9.183,62.112,62.112,0,0,1,3.178-14.718c2.99-7.691,6.96-12.671,12.873-16.147,5.368-3.156,8.359-5.242,10.339-6.622.363-.253.686-.478.978-.678,6.621-4.526,10.277-13.692,10.467-20.408.192-6.8-2.983-12.5-6.66-19.093a102.919,102.919,0,0,1-7.616-15.916,16.221,16.221,0,0,1-1.063-7.539,19.1,19.1,0,0,1,3.765-8.9c1.75-2.486,3.67-4.909,5.526-7.251,4.494-5.673,9.141-11.538,11.7-18.706,1.965-5.5,1.353-10.933.559-16.025-.633-4.055-1.6-8.071-2.537-11.955a109.785,109.785,0,0,1-3.006-15.877,31.769,31.769,0,0,1,.292-6.687c.066-.554.126-1.109.186-1.663a40.326,40.326,0,0,1,.808-5.289A72.208,72.208,0,0,1,393.461,142a16.357,16.357,0,0,1,2.827-4.022,1.865,1.865,0,0,1,.491-.412,41.492,41.492,0,0,1,9.648-2.7c1.789-.35,3.627-.709,5.45-1.2m1-1.326c-5.506,1.686-11.25,1.885-16.518,4.31a2.664,2.664,0,0,0-.8.633,17.328,17.328,0,0,0-3,4.269,72.749,72.749,0,0,0-5.43,14.786,58.521,58.521,0,0,0-1.016,7.07,32.641,32.641,0,0,0-.3,6.9c.844,9.515,4.081,18.48,5.551,27.9.816,5.233,1.32,10.4-.513,15.535-3.55,9.935-11.1,17.19-17.1,25.717a20.3,20.3,0,0,0-3.941,9.361,17.284,17.284,0,0,0,1.115,7.991c5.589,15.6,14.53,23.594,14.218,34.643-.193,6.835-3.944,15.45-10.032,19.611-1.838,1.256-4.908,3.529-11.259,7.263-6.608,3.884-10.453,9.329-13.3,16.647a63.056,63.056,0,0,0-3.239,14.96,49.5,49.5,0,0,0-.368,9.38c.236,3.043-.145,6.141,1.747,8.757a15.751,15.751,0,0,0,13.509,6.893,27.335,27.335,0,0,0,5.831-.685,7.256,7.256,0,0,0,4.634-3.006c2.954-4.059,3.231-9.778-1.457-12.555a7.078,7.078,0,0,0-3.615-1.05c-3.323,0-6.072,2.678-6.2,6.578.121-.692,1.5-1.257,2.021-1.427a9.361,9.361,0,0,1,2.762-.547,2.8,2.8,0,0,1,2.4,1.1,2.459,2.459,0,0,1-.6,3.075,6.059,6.059,0,0,1-4.125,1.867,5.028,5.028,0,0,1-4.265-2.633,3.631,3.631,0,0,1-.124-2.717,29.324,29.324,0,0,1,2.551-8.023,20.3,20.3,0,0,1,7.77-8.09,11.675,11.675,0,0,1,1.918-.778c3.533-1.434,7.056-2.115,10.274-4.346,2.575-1.785,8.11-3.987,10.365-8.842,1.669-3.594.519-5.939-.02-12.867-.461-5.933-1.028-13.226.83-18.257,4.184-11.328,19.234-7.319,24.481-17.012,7.7-14.227-15.755-39.432-7.877-47.314,2.278-2.278,5.912-1.808,10.672-6.8a23.928,23.928,0,0,0,6.746-17.18c-.024-6.6-1.9-12.554-3.686-18.758-5.968-20.7-10.73-40.693-10.619-62.347Z"/>
      </g>
      <g>
        <path class="cls-32" d="M350.7,364.861a34.1,34.1,0,0,0-4.582-3.592c-1.905-1.335-3.876-2.716-4.637-3.876-3.2-4.874-2.335-8.915-.977-13.319a37.555,37.555,0,0,1,15.878-20.262l1.873-1.2c10.77-6.869,17.885-11.407,20.924-25.112.9-4.063.111-8.652-2.415-14.027-1.405-2.991-3.8-5.4-6.121-7.732-2.336-2.348-4.751-4.776-6.227-7.836-5.724-11.865-5.343-23.514,1.2-36.659a28.318,28.318,0,0,1,4.452-6.076,27.776,27.776,0,0,0,4.526-6.22c5.314-10.954,2.35-17.137-.787-23.682-2.193-4.574-4.46-9.3-4.35-16.148.157-9.766,3.515-16.583,6.762-23.177,4.314-8.758,8.389-17.03,4.314-30.919a8.114,8.114,0,0,0-2.353-3.361,14.523,14.523,0,0,1-1.406-1.557c-7.987-10.829-13.523-22.92-17.951-39.206-.666-2.451-1.264-4.838-1.842-7.146-3.117-12.438-5.808-23.179-16.592-33.418-7.791-7.4-16.534-11.146-25.989-11.146a38.181,38.181,0,0,0-4.422.262c-8.85,1.033-19.148,5.926-25.043,11.9l-.059.059-.036.075c-1,2.064-1.778,4.122-2.536,6.113-.207.545-.415,1.091-.628,1.641q-2.007-.858-4-1.72c-3.45-1.489-7.019-3.028-10.6-4.479-1.566-.633-3.273-1.189-4.924-1.727l-.791-.258c-.679-.223-1.4-.443-2.088-.647-1.61-.481-3.321-.965-4.948-1.4l-.453-.123c-.635-.174-1.292-.354-1.815-.439a2.687,2.687,0,0,1-1.321-.52,2.323,2.323,0,0,1-.239-2.239l.027-.119a18.431,18.431,0,0,1,1.222-3.419c.151-.345.3-.69.444-1.037a49.03,49.03,0,0,0,1.96-6.27c.4-1.516.811-3.084,1.336-4.61,3.927-11.4,14.232-14.558,25.349-17.019A104.1,104.1,0,0,1,303.411.5a73.2,73.2,0,0,1,9.058.548c9.61,1.2,16.213,5.866,23.2,10.8,2.287,1.616,4.653,3.287,7.168,4.864,2.152,1.351,4.131,2.8,6.044,4.192a69.884,69.884,0,0,0,8.569,5.629,51.557,51.557,0,0,0,6.669,2.773c3.411,1.233,6.633,2.4,9.433,4.6,3.376,2.655,4.323,6.713,5.158,10.294.539,2.308.994,4.638,1.434,6.891,1.34,6.862,2.607,13.343,6.1,19.636,2.478,4.46,6.219,7.829,9.837,11.087,3.236,2.915,6.582,5.928,9.04,9.726,10.294,15.9,13.356,30.254,9.638,45.165-1.756,7.042-5.946,12.8-10,18.372-4.645,6.386-9.448,12.989-10.593,21.537-1.009,7.521,2.077,12.887,5.344,18.569,2.324,4.041,4.727,8.22,5.887,13.511,3.055,13.929,3.2,33.205-13.443,45.937a11.02,11.02,0,0,1-2.579,1.361c-1.474.613-3,1.248-3.857,3.166-.687,1.535-.11,2.662.557,3.968,2.048,4,4.045,7.434,5.976,10.752,7.258,12.474,12.054,20.714,7.238,38.5-2.334,8.617-9.179,12.935-16.426,17.506-1.434.9-2.918,1.84-4.356,2.807-2.634,1.77-6.023,2.887-9.3,3.968-4.118,1.358-8.377,2.762-11.487,5.5-6.337,5.589-6.6,12.2-6.87,19.208C350.815,362.508,350.77,363.677,350.7,364.861Z"/>
        <path class="cls-16" d="M303.411,1a72.79,72.79,0,0,1,9,.544c9.486,1.187,16.038,5.815,22.975,10.715,2.294,1.62,4.665,3.3,7.192,4.88,2.139,1.342,4.11,2.781,6.017,4.173a71.178,71.178,0,0,0,8.628,5.666,51.954,51.954,0,0,0,6.732,2.8c3.373,1.219,6.558,2.37,9.3,4.522,3,2.363,3.959,5.641,4.98,10.015.537,2.3.991,4.624,1.43,6.873,1.348,6.9,2.621,13.421,6.154,19.783,2.518,4.533,6.291,7.931,9.94,11.217,3.212,2.892,6.533,5.882,8.955,9.625,10.213,15.778,13.254,30.005,9.572,44.772-1.733,6.948-5.893,12.668-9.916,18.2-4.681,6.436-9.521,13.091-10.684,21.763-1.032,7.69,2.1,13.128,5.406,18.885,2.306,4.009,4.689,8.154,5.833,13.369,5.477,24.979-4.187,38.493-13.259,45.432a10.688,10.688,0,0,1-2.467,1.3c-1.564.651-3.181,1.324-4.121,3.423-.785,1.753-.1,3.1.568,4.4,2.055,4.016,4.055,7.453,5.989,10.777,7.2,12.365,11.949,20.534,7.187,38.112-2.283,8.429-9.047,12.695-16.208,17.213-1.438.907-2.925,1.844-4.37,2.815-2.577,1.733-5.783,2.79-9.177,3.909-4.166,1.374-8.474,2.8-11.661,5.605-6.5,5.732-6.76,12.451-7.038,19.565-.031.791-.063,1.6-.1,2.41a45.693,45.693,0,0,0-3.855-2.9c-1.866-1.308-3.8-2.66-4.506-3.741-3.08-4.692-2.237-8.617-.917-12.9a37.051,37.051,0,0,1,15.67-19.988q.954-.612,1.87-1.195c10.876-6.936,18.061-11.519,21.145-25.426.926-4.175.124-8.868-2.45-14.349-1.441-3.069-3.871-5.511-6.22-7.872-2.306-2.319-4.691-4.716-6.131-7.7-5.652-11.716-5.271-23.225,1.2-36.219a27.476,27.476,0,0,1,4.379-5.967,28.158,28.158,0,0,0,4.6-6.334c5.42-11.171,2.406-17.459-.786-24.116-2.167-4.522-4.408-9.2-4.3-15.924.155-9.654,3.488-16.42,6.71-22.964,4.358-8.848,8.475-17.205,4.346-31.28a8.516,8.516,0,0,0-2.479-3.575,13.852,13.852,0,0,1-1.358-1.5C369.225,109.035,363.714,97,359.3,80.772c-.665-2.446-1.262-4.831-1.84-7.137-3.135-12.513-5.843-23.32-16.732-33.658-7.887-7.488-16.746-11.284-26.332-11.284a38.77,38.77,0,0,0-4.482.265c-8.952,1.046-19.372,6-25.341,12.046l-.116.118-.073.15c-1,2.083-1.79,4.151-2.551,6.15q-.219.578-.442,1.157-1.767-.756-3.525-1.517c-3.452-1.489-7.021-3.029-10.61-4.481-1.576-.637-3.285-1.194-4.937-1.733l-.809-.264c-.684-.225-1.413-.446-2.1-.652-1.611-.48-3.326-.966-4.961-1.4l-.444-.121c-.651-.178-1.323-.362-1.874-.451a2.685,2.685,0,0,1-1.02-.351c-.4-.473-.321-.946-.131-1.809l.026-.118a17.767,17.767,0,0,1,1.192-3.323c.152-.349.3-.7.448-1.049a49.253,49.253,0,0,0,1.982-6.338c.4-1.506.806-3.063,1.325-4.57C259.8,9.222,269.544,6.226,280.936,3.7A103.689,103.689,0,0,1,303.411,1m0-1A105.463,105.463,0,0,0,280.72,2.728c-10.992,2.433-21.639,5.515-25.713,17.345-1.245,3.616-1.814,7.281-3.285,10.852a26.63,26.63,0,0,0-1.693,4.539,2.9,2.9,0,0,0,.319,2.788,3.073,3.073,0,0,0,1.623.691c.622.1,1.488.355,2.219.551,1.6.429,3.316.914,4.934,1.4.681.2,1.4.421,2.076.643,1.877.616,3.882,1.246,5.683,1.974,5.1,2.062,10.036,4.251,15.068,6.4,1.085-2.763,2.007-5.443,3.336-8.2,6.225-6.307,16.592-10.8,24.745-11.755a37.679,37.679,0,0,1,4.366-.258c10.325,0,18.736,4.451,25.643,11.009,12.666,12.025,14.04,24.677,18.3,40.333,3.919,14.414,9.092,27.251,18.03,39.371,1.212,1.643,3.1,2.76,3.682,4.762,7.07,24.1-10.728,31.052-11.1,53.947-.274,17.007,14.008,21.44,5.186,39.619-2.308,4.757-6.544,7.411-8.974,12.292-6.207,12.469-7.323,24.414-1.2,37.1,3,6.22,9.588,9.691,12.346,15.563,2.144,4.565,3.369,9.241,2.379,13.707-3.164,14.268-10.695,18.378-22.579,26a38.123,38.123,0,0,0-16.085,20.535c-1.42,4.6-2.229,8.766,1.036,13.741,1.653,2.518,7.954,5.533,10.054,8.447.694-9.026-.573-16.947,6.945-23.578,5.519-4.867,14.758-5.417,20.735-9.434,8.57-5.759,18.122-10.024,20.986-20.6,6.156-22.725-3.468-30.478-13.251-49.606-.642-1.255-1.135-2.222-.547-3.536,1.246-2.78,3.942-2.544,6.283-4.334,15.207-11.632,17.351-29.467,13.629-46.441-2.822-12.867-12.917-19.293-11.225-31.907,2.123-15.837,16.779-24.613,20.579-39.854,4.156-16.667-.576-31.458-9.7-45.558-5.26-8.127-14.226-12.441-18.86-20.784s-5.355-17.277-7.484-26.4c-.939-4.018-1.93-7.893-5.336-10.573-4.768-3.75-10.868-4.606-16.178-7.421s-9.362-6.527-14.582-9.8C332.948,9.921,325.448,2.168,312.532.552A73.455,73.455,0,0,0,303.411,0Z"/>
      </g>
    </g>
  </g>
</svg>
