<svg xmlns="http://www.w3.org/2000/svg" xmlns:xlink="http://www.w3.org/1999/xlink" viewBox="0 0 445.743 423.833">
  <defs>
    <style>
      .cls-1 {
        isolation: isolate;
      }

      .cls-2 {
        fill: #2b2420;
      }

      .cls-3 {
        fill: #161413;
        stroke: #352a25;
      }

      .cls-13, .cls-17, .cls-19, .cls-24, .cls-26, .cls-3, .cls-31 {
        stroke-miterlimit: 10;
      }

      .cls-4 {
        fill: #314231;
        stroke: #5a685a;
      }

      .cls-12, .cls-4, .cls-7, .cls-8 {
        stroke-linejoin: round;
      }

      .cls-13, .cls-5, .cls-7 {
        fill: #ffb9a4;
      }

      .cls-6 {
        fill: #eaa292;
      }

      .cls-13, .cls-7 {
        stroke: #ffb9a4;
      }

      .cls-7 {
        stroke-linecap: round;
      }

      .cls-12, .cls-8 {
        fill: #628461;
        stroke: #819d81;
      }

      .cls-9 {
        fill: #819d81;
      }

      .cls-10 {
        fill: #c7ddc7;
      }

      .cls-11 {
        fill: #9bb29b;
      }

      .cls-12 {
        stroke-width: 0.5px;
      }

      .cls-14 {
        fill: #da8774;
      }

      .cls-15 {
        fill: #c17427;
      }

      .cls-16 {
        fill: #352a25;
      }

      .cls-17 {
        fill: #d87373;
      }

      .cls-17, .cls-24 {
        stroke: #da8774;
      }

      .cls-18 {
        fill: #f2f2f2;
      }

      .cls-19, .cls-26 {
        stroke: #58391b;
      }

      .cls-19 {
        fill: url(#radial-gradient);
      }

      .cls-20 {
        opacity: 0.52;
      }

      .cls-20, .cls-23 {
        mix-blend-mode: hard-light;
      }

      .cls-21 {
        fill: #58391b;
      }

      .cls-22 {
        fill: #1a1a1a;
      }

      .cls-23 {
        fill: #f5f8fc;
      }

      .cls-23, .cls-27 {
        opacity: 0.5;
      }

      .cls-24 {
        fill: none;
      }

      .cls-25 {
        fill: #1c0d04;
      }

      .cls-26 {
        fill: url(#radial-gradient-2);
      }

      .cls-28 {
        fill: url(#radial-gradient-3);
      }

      .cls-29 {
        fill: url(#radial-gradient-4);
      }

      .cls-30 {
        fill: #844a39;
      }

      .cls-31, .cls-32 {
        fill: #211b18;
      }

      .cls-31 {
        stroke: #211b18;
      }
    </style>
    <radialGradient id="radial-gradient" cx="201.265" cy="122.124" r="7.45" gradientUnits="userSpaceOnUse">
      <stop offset="0" stop-color="#d98a52"/>
      <stop offset="1" stop-color="#5d1900"/>
    </radialGradient>
    <radialGradient id="radial-gradient-2" cx="273.685" cy="154.035" r="7.45" xlink:href="#radial-gradient"/>
    <radialGradient id="radial-gradient-3" cx="208.101" cy="204.253" r="34.207" gradientUnits="userSpaceOnUse">
      <stop offset="0" stop-color="#f28183"/>
      <stop offset="0.312" stop-color="#ef7f81"/>
      <stop offset="0.535" stop-color="#e67a7a"/>
      <stop offset="0.732" stop-color="#d6706f"/>
      <stop offset="0.911" stop-color="#c0635e"/>
      <stop offset="1" stop-color="#b25b54"/>
    </radialGradient>
    <radialGradient id="radial-gradient-4" cx="198.967" cy="224.285" r="35.318" gradientTransform="matrix(0.272, -0.962, 1.342, 0.38, -156.105, 330.569)" gradientUnits="userSpaceOnUse">
      <stop offset="0" stop-color="#f28183"/>
      <stop offset="0.233" stop-color="#e97c7d"/>
      <stop offset="0.609" stop-color="#d26e6b"/>
      <stop offset="1" stop-color="#b25b54"/>
    </radialGradient>
  </defs>
  <g class="cls-1">
    <g id="bulk_of_hair" data-name="bulk of hair">
      <path class="cls-2" d="M135.087,287.555q.358.541.739,1.03c3.658,4.677,11.342,6.632,16.663,8.405,28.531,9.509,59.183,13.82,88.785,18.458,24.126,3.78,48.328,7.061,72.56,10.078q20.646,2.569,41.323,4.881c4.76.534,40.556,7.349,42.436,4.531l18.574-27.83-9.47-139.9L353.339,45.781,288.329,10.27c-13.839.53-19.655,2.2-22.327,3.743-.369.213-2.707,1.594-6.011,3.316-1.492.778-3.15,1.643-4.954,2.451a64.1,64.1,0,0,1-9.09,3.145c-7.309,1.88-15,0-20.88,0-13.3,0-26.073,9.637-32.361,18.315-5.037,6.951-5.667,10.973-12.822,20.9-2.382,3.307-5.834,5.652-8.824,8.421-9.307,8.619-9.649,28.338-20.985,33.585A32.682,32.682,0,0,0,131.84,127.6c-1.16,6.419.16,14.136-4.073,19.525-5.111,6.506-8.538,5.189-13.223,11.645-4.7,6.481-5.583,15.1-4.877,22.867a144.183,144.183,0,0,0,5.316,25.845,26.8,26.8,0,0,0,7.8,12.779c3.454,3.241,7.987,7.206,6.723,12.517-.464,1.95-1.755,3.576-2.835,5.268-6.056,9.5-2.579,21.028,1.081,30.7C129.793,274.149,131.736,282.5,135.087,287.555Z"/>
    </g>
    <g id="hair_behind_shoulder" data-name="hair behind shoulder">
      <path class="cls-3" d="M223.573,38.271c-2.323-1.468-4.356-3.035-8.249-2.1-11.884,2.845-15.228,14.2-19.517,24.094-6.915,15.951-28.952,24.533-26.917,44.349,1.485,14.469-10.858,12.912-19.829,19.346-7.964,5.712-2.558,13.276-1.979,20.83.652,8.514-6.542,10.944-11.075,16.477-4.847,5.916-.156,9.1,1.05,15.292,1.936,9.937-9.714,16.627-3.782,26.2,6.658,10.751,15.61,24.083,15.365,37.237-.18,9.7-5.686,23.992.13,32.83,1.39,2.112,2.452,2.464,5.4,6.557,2.33,3.234,3.878,5.382,4.588,7.529,2.154,6.514-4.407,9.566-7.314,21.609a56.408,56.408,0,0,0-1.33,17.951s-6.316-7.646-5.318-23.6c.425-6.8-.752-13.935-4.454-19.761-1.715-2.7-4.212-4.747-6.055-7.371-6.155-8.765-6.753-17.915-2.594-27.668a57.248,57.248,0,0,0,2.509-7.579c.793-2.936,1.821-5.969,1.588-9.052-.238-3.14-2.312-5.7-4.06-8.172a28.466,28.466,0,0,0-7.2-7.077c-2.977-2.026-5.763-3.8-7.216-7.285-1.855-4.446-.868-8.45,1.124-12.551,2.62-5.392,3.589-5.409,4.177-7.541,1.494-5.423-.952-11.243-4.474-15.368-2.4-2.813-4.767-5.858-4.237-9.791.6-4.436,6.072-8.508,9.669-10.561,4.178-2.384,8.152-3.382,8.3-8.888.164-5.937.636-12,2.691-17.626,2.1-5.755,5.062-10.763,10.336-14.157a13.875,13.875,0,0,1,7.133-2.394c3.247-.188,6.131-.57,7.74-3.8,1.91-3.837,2.006-8.3,2.638-12.463a47.754,47.754,0,0,1,3.765-12.784c2.289-4.91,5.975-8.176,10.725-10.6s8.536-5.224,11.1-10.025a54.074,54.074,0,0,0,4.254-11.174c.966-3.531,1.628-7.176,4.3-9.9,3.488-3.556,9.136-4.756,13.24-7.529,3.132-2.116,6.2-4.516,9.919-5.5,7.375-1.949,15.17,1.744,21.046,5.933a22.389,22.389,0,0,1,3.592,2.847l2.724,3.168a45.377,45.377,0,0,0-11.854.119c-2.187.326-4.719,2.33-7.36,1.825A12.076,12.076,0,0,1,223.573,38.271Z"/>
    </g>
    <g id="collar_shade" data-name="collar shade">
      <path class="cls-4" d="M156.716,258.143l140.777,17.506-14.3,20.594L157.424,280.9Z"/>
    </g>
    <g id="neck">
      <path class="cls-5" d="M292.769,296.2c-.26,3.39-4.69,33.38-6.78,45.89s-17.72,80.74-17.72,80.74H201s-6.63-68.94-30.77-115.68c0,0-13.96-27.03-5.69-35.65.42-.44.83-.88,1.23-1.33a44.4,44.4,0,0,0,8.67-14.56c.17-.46.53-1.79.99-3.35.89-3.06,2.12-7.02,2.89-7.16l90.21-16.42s10.16-7.04,8.34-1.83a107.357,107.357,0,0,0-2.71,12.62l-.01.03c-1.57,8.86-3.17,19.61-3.8,24.37-1.04,7.83,4.17,14.34,7.56,20.34S293.029,292.806,292.769,296.2Z"/>
      <path class="cls-6" d="M275.679,229.726l-1.52,9.74-.01.03-3.8,24.37-6.38,4.77c-6.39,4.76-13.81,9.11-29.82,13.53s-11.32,4.97-18.5,9.39-11.05,8-25.4,7.45a36.27,36.27,0,0,1-22.9-9.12s-.37-2.65-.54-3.89-.86-7.96-1.11-10.94a26.268,26.268,0,0,1,.07-4.89,44.4,44.4,0,0,0,8.67-14.56c.17-.46.53-1.79.99-3.35.8-2.07,2.14-5.4,2.14-5.4l22.56,7.71,50.59-6.27Z"/>
    </g>
    <g id="new_shirt" data-name="new shirt">
      <path class="cls-5" d="M433.919,378.464s4.467,3.128,7.549,15.667a201.7,201.7,0,0,1,4.275,27.052l-113.7,1.643,27.741-36.808,65.259-11.064Z"/>
      <path class="cls-7" d="M34.982,344.235a28.909,28.909,0,0,1-6.535-9.278c-1.231-2.941-1.03-4.066-1.839-4.414-7.4-3.184-17.568,21.87-19.05,26.958-3,10.307-4.438,20.989-5.316,31.666C1.405,399.343.15,409.989.592,420.2A6.905,6.905,0,0,0,.8,421.28c24.025,3.5,48.91,1.458,73.111,1.5.729,0,8.717-.068,8.725.043a60.23,60.23,0,0,0-3.44-16.573c-2.709-7.438-4.67-15.037-7.258-22.5a50.528,50.528,0,0,0-10.484-17.408A110.589,110.589,0,0,0,44.04,351.063C41.1,349.17,38.276,347.645,34.982,344.235Z"/>
      <path class="cls-8" d="M228.645,350.19a106.7,106.7,0,0,0,40.794-59.385c1.28-.547,3.215-1.341,5.616-2.187,3.658-1.289,6.392-2,7.038-2.173,3.215-.886,8.09-3.4,15.4-10.508-1.22,2.921-2.388,7.154-.592,10.926,5.444,11.441,30.9,4.225,61.464,12.2,15.367,4.009,43.98,19.657,50.338,30.276s29.2,52.376,29.2,52.376c-21.641-8.245-45.211-5.163-61.412,8.565-13.4,11.357-17.363,26.269-18.587,32.173l-140.046.373Z"/>
      <path class="cls-8" d="M2.862,378.869c.827-6.949,6.113-46.749,34.565-67.578,11.138-8.153,29.4-15.856,43.456-18.887,12.571-2.712,25.338-4.349,37.968-6.74,18.057-3.419,33.127-9.022,38.054-27.521a48.524,48.524,0,0,0,6.455,12.54c1.921,2.68,7.821,10.33,22.563,17.838,18.524,9.434,37.358,11.692,48.958,12.206-4.7,26.228-2.784,37.422.552,42.4a37.539,37.539,0,0,1,2.581,4.253c1.954,3.778,3.53,8.592,5.189,17.272,2.329,12.181,2.8,58.17,2.8,58.17l-126.751,0H78.7c1.338-.023-3.392-18.475-4.26-20.245C65.53,384.4,42.871,377.305,23.966,376.605A74.223,74.223,0,0,0,2.862,378.869Z"/>
      <g id="pit_creases" data-name="pit creases">
        <path class="cls-9" d="M80.039,366.266c-.859,3.454-1.6,6.926-2.136,10.429a105.306,105.306,0,0,0-1.192,10.543c-.251,3.526-.319,7.061-.259,10.591s.311,7.055.7,10.563v.007a.734.734,0,0,1-1.454.2c-.954-5.6-2.031-11.172-3.167-16.741-.567-2.785-1.2-5.555-1.8-8.337L68.91,375.18c.872,2.713,1.657,5.45,2.455,8.185s1.493,5.5,2.2,8.26c1.411,5.523,2.589,11.11,3.579,16.726l-1.454.211A96.381,96.381,0,0,1,75,397.851a98.781,98.781,0,0,1,.476-10.716,105.923,105.923,0,0,1,1.657-10.585A84.149,84.149,0,0,1,80.039,366.266Z"/>
        <path class="cls-9" d="M356.653,371.142a84.406,84.406,0,0,1,2.906,10.284,105.9,105.9,0,0,1,1.656,10.584,98.529,98.529,0,0,1,.477,10.716,96.381,96.381,0,0,1-.687,10.711l-1.454-.21c.99-5.617,2.168-11.2,3.579-16.727.7-2.762,1.41-5.522,2.2-8.26s1.584-5.471,2.456-8.184l-1.815,8.345c-.6,2.781-1.234,5.552-1.8,8.337-1.135,5.569-2.212,11.143-3.166,16.74a.735.735,0,0,1-1.455-.2v-.009c.384-3.508.629-7.033.695-10.564s-.008-7.064-.26-10.59a104.775,104.775,0,0,0-1.192-10.544C358.251,378.067,357.512,374.6,356.653,371.142Z"/>
      </g>
      <g id="bottom_button" data-name="bottom button">
        <g>
          <circle class="cls-10" cx="227.793" cy="411.418" r="7.126"/>
          <path class="cls-11" d="M227.793,405.292a6.126,6.126,0,1,1-6.126,6.126,6.126,6.126,0,0,1,6.126-6.126m0-2a8.126,8.126,0,1,0,8.126,8.126,8.135,8.135,0,0,0-8.126-8.126Z"/>
        </g>
        <g id="Layer_36" data-name="Layer 36">
          <path class="cls-12" d="M231.439,408.272a1.889,1.889,0,0,1-2.293,2.293,1.889,1.889,0,0,1,2.293-2.293Z"/>
          <path class="cls-12" d="M231.439,414.565a1.889,1.889,0,0,0-2.293-2.293,1.889,1.889,0,0,0,2.293,2.293Z"/>
          <path class="cls-12" d="M224.146,408.272a1.889,1.889,0,0,0,2.293,2.293,1.889,1.889,0,0,0-2.293-2.293Z"/>
          <path class="cls-12" d="M224.146,414.565a1.889,1.889,0,0,1,2.293-2.293,1.889,1.889,0,0,1-2.293,2.293Z"/>
        </g>
      </g>
      <g id="top_button" data-name="top button">
        <g>
          <circle class="cls-10" cx="227.793" cy="367.418" r="7.126"/>
          <path class="cls-11" d="M227.793,361.292a6.126,6.126,0,1,1-6.126,6.126,6.126,6.126,0,0,1,6.126-6.126m0-2a8.126,8.126,0,1,0,8.126,8.126,8.135,8.135,0,0,0-8.126-8.126Z"/>
        </g>
        <g id="Layer_34" data-name="Layer 34">
          <path class="cls-12" d="M231.439,364.272a1.889,1.889,0,0,1-2.293,2.293,1.889,1.889,0,0,1,2.293-2.293Z"/>
          <path class="cls-12" d="M231.439,370.565a1.889,1.889,0,0,0-2.293-2.293,1.889,1.889,0,0,0,2.293,2.293Z"/>
          <path class="cls-12" d="M224.146,364.272a1.889,1.889,0,0,0,2.293,2.293,1.889,1.889,0,0,0-2.293-2.293Z"/>
          <path class="cls-12" d="M224.146,370.565a1.889,1.889,0,0,1,2.293-2.293,1.889,1.889,0,0,1-2.293,2.293Z"/>
        </g>
      </g>
    </g>
    <g id="ear">
      <path class="cls-13" d="M295.632,200.9c1.29,4.4,7.242,6.323,11.288,5.241,4.74-1.267,8.868-5.394,10.846-9.794,2.57-5.715,3.175-12.448,6.372-17.873,2.631-4.464,6.546-7.685,8.513-12.684,1.242-3.158,2.55-8.191-.237-10.912a8.79,8.79,0,0,0-3.908-2.036c-5.538-1.5-8.721.08-11.322,4.973L311.61,168.3c-3.416,6.427-6.674,15.853-12.761,24.006-1.57,2.1-3.8,4.869-3.408,7.7A6.258,6.258,0,0,0,295.632,200.9Z"/>
      <g id="Layer_29" data-name="Layer 29">
        <g>
          <path class="cls-6" d="M310.015,172.944c-1.647,1.406-2.023,2.568-2.028,3.406-.006.883.4,1.359.23,2.618a7.208,7.208,0,0,1-.643,2.021,17.82,17.82,0,0,1-1.057,1.837c-1.144,1.989-1.635,3.549-2.208,4.357a3.446,3.446,0,0,0-.3.514,3.142,3.142,0,0,0-.255.863c-.178,1.107-1.34,4.263-.57,5.269,1.059,1.382,2.716-2.029,3.744-2.627a4.82,4.82,0,0,1,3.533-.448c2.092.508,3.374,3.042,5.36,1.013,1.244-1.271,1.55-3.5,1.794-5.183a36.6,36.6,0,0,1,2.935-10.31c2.748-4.946,6.452-4.14,8.613-9.472a8.428,8.428,0,0,0,.585-5.549c-.582-2.018-2.182-4.657-4.236-4.674-3-.023-4.113,3.74-5.261,5.82-1.646,2.983-4.158,5.247-5.627,8.341-.337.71-1.414,4.982-2.455,4.953-.572-.016-1.371-1.163-2.231-6.705"/>
          <path class="cls-6" d="M310.015,172.944a5.564,5.564,0,0,0-1.939,2.783,3.516,3.516,0,0,0,.092,1.7,4.213,4.213,0,0,1,.052,1.725,8.746,8.746,0,0,1-1.348,3.171,27.173,27.173,0,0,0-1.577,3.064c-.239.523-.463,1.055-.753,1.562a3.838,3.838,0,0,0-.695,1.536c-.213,1.143-.588,2.234-.748,3.368a3.664,3.664,0,0,0,.038,1.66.843.843,0,0,0,.511.522.916.916,0,0,0,.706-.249c.881-.7,1.43-1.748,2.315-2.551a4.706,4.706,0,0,1,3.407-.7,8.723,8.723,0,0,1,3.128,1.511,1.942,1.942,0,0,0,1.528.264,2.879,2.879,0,0,0,1.253-1,7.531,7.531,0,0,0,1.183-3.127c.2-1.118.324-2.274.547-3.411s.465-2.267.761-3.385.631-2.228,1.033-3.318a17.013,17.013,0,0,1,.676-1.617,12.071,12.071,0,0,1,.922-1.5,11.557,11.557,0,0,1,2.464-2.507c.927-.714,1.9-1.32,2.748-2.063a10.177,10.177,0,0,0,3.181-5.77,7.182,7.182,0,0,0-.07-3.273,8.931,8.931,0,0,0-1.507-2.941,3.15,3.15,0,0,0-2.618-1.437,3.453,3.453,0,0,0-2.562,1.613,18.136,18.136,0,0,0-1.616,2.964,18.691,18.691,0,0,1-1.775,3.036,60.1,60.1,0,0,0-3.942,5.607c-.141.243-.254.5-.382.746-.089.2-.181.5-.269.762-.177.546-.356,1.1-.555,1.651a12.783,12.783,0,0,1-.7,1.649,3.383,3.383,0,0,1-.574.821,1.106,1.106,0,0,1-.631.337.942.942,0,0,1-.75-.222,2.484,2.484,0,0,1-.619-.863,7.807,7.807,0,0,1-.347-.854c-.193-.569-.341-1.139-.48-1.709-.265-1.14-.47-2.283-.656-3.428l.988-.153c.173,1.13.365,2.257.612,3.363.129.55.266,1.1.439,1.621a3.5,3.5,0,0,0,.652,1.293c.057.042.057.038.042.026a.428.428,0,0,0,.1-.08,2.571,2.571,0,0,0,.409-.59,12,12,0,0,0,.662-1.523c.2-.53.377-1.071.56-1.619.1-.281.172-.536.318-.861.137-.263.262-.534.412-.789a60.227,60.227,0,0,1,4.046-5.655,17.851,17.851,0,0,0,1.734-2.905,18.658,18.658,0,0,1,1.719-3.074,5.6,5.6,0,0,1,1.322-1.287,3.454,3.454,0,0,1,1.8-.595,3.061,3.061,0,0,1,1.849.478,5.294,5.294,0,0,1,1.351,1.249,9.579,9.579,0,0,1,1.6,3.187,7.792,7.792,0,0,1,.054,3.573,10.762,10.762,0,0,1-3.427,6.077c-.9.774-1.891,1.376-2.794,2.06a11.049,11.049,0,0,0-2.381,2.378,11.574,11.574,0,0,0-.894,1.429,16.752,16.752,0,0,0-.67,1.564c-.4,1.067-.746,2.163-1.05,3.268s-.565,2.222-.784,3.347-.357,2.261-.577,3.406a7.871,7.871,0,0,1-1.278,3.265,3.191,3.191,0,0,1-1.427,1.1,2.257,2.257,0,0,1-1.778-.3,8.531,8.531,0,0,0-3.022-1.508,4.473,4.473,0,0,0-3.206.618c-.833.737-1.4,1.8-2.342,2.533a1.11,1.11,0,0,1-.882.279,1.041,1.041,0,0,1-.656-.657,3.822,3.822,0,0,1-.032-1.759c.173-1.15.561-2.248.779-3.368a4.01,4.01,0,0,1,.728-1.58c.287-.491.516-1.021.76-1.542a27.213,27.213,0,0,1,1.611-3.061,8.669,8.669,0,0,0,1.366-3.133,4.169,4.169,0,0,0-.035-1.7,3.537,3.537,0,0,1-.077-1.716A5.57,5.57,0,0,1,310.015,172.944Z"/>
        </g>
        <path class="cls-14" d="M326.718,156.622a6.877,6.877,0,0,1,2.63,2.268,7.354,7.354,0,0,1,1.2,3.361,11.568,11.568,0,0,1-1.806,6.866,9.132,9.132,0,0,1-2.5,2.671,17.172,17.172,0,0,0-2.554,2.075,17.572,17.572,0,0,0-3.513,5.438,17.085,17.085,0,0,0-1.519,6.292,11.417,11.417,0,0,1-.563,3.6,8.436,8.436,0,0,1-.811,1.672,6.9,6.9,0,0,1-1.185,1.5,3,3,0,0,1-1.978.841,3.087,3.087,0,0,1-1.921-.786,9.669,9.669,0,0,0-1.309-.947,3.444,3.444,0,0,0-1.427-.386,3.765,3.765,0,0,0-2.912.819c-.379.37-.607.89-1.023,1.355a3.212,3.212,0,0,1-.71.546l-.8.348-.036-.094.747-.391a3.076,3.076,0,0,0,.626-.556c.35-.433.561-.986.948-1.421a4.133,4.133,0,0,1,3.17-1.132,3.919,3.919,0,0,1,1.681.38,9.766,9.766,0,0,1,1.432.949,2.46,2.46,0,0,0,1.515.6,2.255,2.255,0,0,0,1.465-.687,6.04,6.04,0,0,0,1-1.356,8.151,8.151,0,0,0,.717-1.532,10.529,10.529,0,0,0,.472-3.346,18.052,18.052,0,0,1,1.51-6.664,18.461,18.461,0,0,1,3.788-5.688,18.2,18.2,0,0,1,2.686-2.129,9.092,9.092,0,0,0,2.364-2.406,10.958,10.958,0,0,0,1.923-6.4,6.92,6.92,0,0,0-.956-3.217,7.12,7.12,0,0,0-2.4-2.355Z"/>
      </g>
      <g id="tragus">
        <path class="cls-5" d="M304.387,174.9a3.459,3.459,0,0,1,.894-1.21c.964-.833,2.032.007,3.2-.711.857-.528,1.013-1.35,1.433-1.265.525.106.4,1.408.952,1.579.528.163,1.35-.7,2.445-1.837.458-.477.755-.839.9-.764s.045.463-.124,1.3c-.391,1.937-.255,1.514-.407,2.122,0,0-.52,2.2-.276,2.5.069.085.123.1.261.275a3.535,3.535,0,0,1,.559,1.015,3.748,3.748,0,0,1-.075,2.535l-1.423,3.321a3.528,3.528,0,0,1-3.966,2.029,13.626,13.626,0,0,0-3.1-.246c-.143.006-.284.013-.423.022a3.481,3.481,0,0,1-3.43-4.9Z"/>
      </g>
      <path class="cls-15" d="M300.053,201.736c-.065.24,1.273.6,1.418.641a4.325,4.325,0,0,0,1.605.136,6.19,6.19,0,0,0,1.415-.4,1.326,1.326,0,0,1,.729-.028c-.005.165-.019.545-.065,1.228,0,.1-.041.3.086.381a.793.793,0,0,0,.442.089,1.444,1.444,0,0,0,.786-.267c.192-.147.033-.3-.083-.454a2.18,2.18,0,0,1-.021-.85,9.343,9.343,0,0,0,1,.02c.215,0,.4-.009.579-.026,0,.179.014.744.007,1-.009.215-.008.358.211.431a1.129,1.129,0,0,0,.749-.05c.126-.043.45-.141.455-.3,0-.121-.114-.244-.184-.333-.115-.143,0-1.045,0-1.045a2.593,2.593,0,0,0,1.451-2.017c0-.558-.406-1.086-.5-2.04-.075-.79.283-.789.283-.789a4.532,4.532,0,0,0,1.149-.181.527.527,0,0,0,.27-.789,1.7,1.7,0,0,0-1.469-.9,1.284,1.284,0,0,0-1.018.481c-.847,1.066.033,2.425-.126,3.623,0,0-.449-.21-.494-.236-.214-.117-.429-.241-.65-.357a3.278,3.278,0,0,0-1.371-.428,3.072,3.072,0,0,0-2.753,1.655c-.095.213-.153.446-.256.659-.431.963-1.9,1.163-2.832,1.145C300.374,201.717,300.077,201.656,300.053,201.736Z"/>
    </g>
    <g id="head">
      <path class="cls-13" d="M163.056,226.277c-.833-2.6-1.536-5.262-2.129-7.941-2.02-9.118-4.418-18.2-5.252-27.529-1.855-20.756,2.8-43.994,12.684-62.341,5.094-9.454,10.624-19,14.468-29.048C189.142,82.9,195.2,66.6,207.633,53.5c10.175-10.728,27.115-15.767,41.6-13.983,18,2.218,34.212,10.9,49,21.121C311.739,69.968,321.934,82,327.174,96.558a68.716,68.716,0,0,1,3.92,21.45c.089,3.83.077,16.969-14.46,47.74a258.567,258.567,0,0,1-17.192,31.544c-16.4,25.608-29.859,46.633-53.443,56.36-9.35,3.856-19.106,5.153-28.057,6.885a49.205,49.205,0,0,1-13.987.726c-5.422-.515-10.585-2.484-15.652-4.462,0,0-2.141-.836-4.006-1.783a34.782,34.782,0,0,1-10.521-8.49,53.5,53.5,0,0,1-7.233-11.382A70.167,70.167,0,0,1,163.056,226.277Z"/>
    </g>
    <g id="right_eyelashes" data-name="right eyelashes">
      <path class="cls-16" d="M272.429,144.425a12.539,12.539,0,0,0,6.811-.945,13.036,13.036,0,0,1-6.881,1.942Z"/>
      <path class="cls-16" d="M276.91,145.886a6.441,6.441,0,0,0,4.7-1.173,6.94,6.94,0,0,1-4.752,2.172Z"/>
      <path class="cls-16" d="M280.352,146.8a4.382,4.382,0,0,0,3.606-.835,4.884,4.884,0,0,1-3.686,1.832Z"/>
      <path class="cls-16" d="M282.487,148.526a4.969,4.969,0,0,0,3.3-.2,5.474,5.474,0,0,1-3.432,1.19Z"/>
      <path class="cls-16" d="M284.29,150.051a9.16,9.16,0,0,0,3.3.214,9.643,9.643,0,0,1-3.391.781Z"/>
      <path class="cls-16" d="M285.892,151.959a4.621,4.621,0,0,0,2.752-.039,5.124,5.124,0,0,1-2.858,1.033Z"/>
      <path class="cls-16" d="M287.194,153.54a7.31,7.31,0,0,0,2.987.256,7.812,7.812,0,0,1-3.11.736Z"/>
      <polygon class="cls-16" points="287.89 155.154 291.309 155.654 287.89 156.154 287.89 155.154"/>
      <polygon class="cls-16" points="288.738 156.82 291.843 157.301 288.713 157.82 288.738 156.82"/>
      <path class="cls-16" d="M289.342,158.634l1.3.272a4.392,4.392,0,0,0,.633.063,3.565,3.565,0,0,0,.658-.027,3.741,3.741,0,0,1-.619.274,5.079,5.079,0,0,1-.675.19l-1.329.227Z"/>
      <path class="cls-16" d="M289.052,160.6a19.437,19.437,0,0,0,3.861.475,19.868,19.868,0,0,1-3.955.52Z"/>
    </g>
    <g id="left_eyelashes" data-name="left eyelashes">
      <path class="cls-16" d="M208.24,119.7a9.714,9.714,0,0,1,.881-4.652,9.205,9.205,0,0,0,.106,4.492Z"/>
      <path class="cls-16" d="M205.927,116.556a9.53,9.53,0,0,1,.055-1.936c.088-.633.3-1.242.435-1.838.024.63-.014,1.238.065,1.838a8.808,8.808,0,0,0,.425,1.736Z"/>
      <path class="cls-16" d="M203.665,114.536l.069-.815a5.309,5.309,0,0,1,.1-.8l.372-1.536.128,1.543a4.8,4.8,0,0,0,.152.745l.173.726Z"/>
      <path class="cls-16" d="M201.505,113.088a10.145,10.145,0,0,1,.608-3,9.63,9.63,0,0,0,.386,2.891Z"/>
      <path class="cls-16" d="M198.871,111.992a6.987,6.987,0,0,1,.434-2.887,6.493,6.493,0,0,0,.542,2.669Z"/>
      <path class="cls-16" d="M196.232,110.911a7.949,7.949,0,0,1,.278-2.7,7.436,7.436,0,0,0,.692,2.452Z"/>
      <path class="cls-16" d="M194.028,111.233a6.337,6.337,0,0,1-.5-3.318,5.827,5.827,0,0,0,1.344,2.788Z"/>
      <path class="cls-16" d="M191.347,111.065a4.951,4.951,0,0,1-.827-3.047A4.446,4.446,0,0,0,192.1,110.4Z"/>
      <path class="cls-16" d="M188.865,111.6a5.9,5.9,0,0,1-.844-3.191,5.4,5.4,0,0,0,1.616,2.555Z"/>
      <path class="cls-16" d="M186.25,111.971a5.931,5.931,0,0,1-1.126-3.364,5.429,5.429,0,0,0,1.836,2.659Z"/>
      <path class="cls-16" d="M184.23,113.777a6.535,6.535,0,0,1-1.812-3.97,6.028,6.028,0,0,0,2.454,3.2Z"/>
    </g>
    <g id="eyes">
      <g id="left_eyeball" data-name="left eyeball">
        <path class="cls-17" d="M214.609,132.626a1.2,1.2,0,0,1-.81.72,4.677,4.677,0,0,1-3.63-.64,1.983,1.983,0,0,1-.2-.11,14.065,14.065,0,0,0-2.04-1.15,14.561,14.561,0,0,0-4.46-.72c-4.87-.29-10.01-1.22-14.19-3.88a13.1,13.1,0,0,1-4.38-4.64,9.287,9.287,0,0,1-1.1-7.03c.44-1.61,2.13-2.7,3.57-3.38a11.677,11.677,0,0,1,4.37-1.04,18.646,18.646,0,0,1,9.96,2.49,21.649,21.649,0,0,1,6,4.75,38.02,38.02,0,0,1,4.33,6.8c.42.82.83,1.65,1.19,2.49a18.311,18.311,0,0,1,1.39,4.59A1.725,1.725,0,0,1,214.609,132.626Z"/>
        <path class="cls-18" d="M213.219,127.286a14.53,14.53,0,0,1-3.05,5.42,1.983,1.983,0,0,1-.2-.11,14.065,14.065,0,0,0-2.04-1.15,14.561,14.561,0,0,0-4.46-.72c-4.87-.29-10.01-1.22-14.19-3.88a13.1,13.1,0,0,1-4.38-4.64,7.241,7.241,0,0,1-.954-7.439,7.317,7.317,0,0,1,7.794-4.011,18.646,18.646,0,0,1,9.96,2.49,21.649,21.649,0,0,1,6,4.75,38.02,38.02,0,0,1,4.33,6.8C212.449,125.616,212.859,126.446,213.219,127.286Z"/>
        <circle class="cls-19" cx="201.265" cy="122.124" r="7.45"/>
        <g id="Layer_12" data-name="Layer 12">
          <g>
            <g class="cls-20">
              <path class="cls-21" d="M200.946,118.039a4.433,4.433,0,0,0,.667-2.179,4.942,4.942,0,0,1,.278,2.506l0,.022a.513.513,0,0,1-1.016-.148A.53.53,0,0,1,200.946,118.039Z"/>
            </g>
            <g class="cls-20">
              <path class="cls-21" d="M199.269,119.375a16.629,16.629,0,0,1-1.636-.315,1.114,1.114,0,0,1-.713-.595.961.961,0,0,0-.15-.332c-.059-.064-.255-.081-.276.065-.026-.156.193-.241.342-.171a1.016,1.016,0,0,1,.3.314.742.742,0,0,0,.594.228c.457-.009,1.026-.131,1.55-.194l.026,0a.508.508,0,1,1,.122,1.009A.5.5,0,0,1,199.269,119.375Z"/>
            </g>
            <g class="cls-20">
              <path class="cls-21" d="M197.448,121.644c.14,0,.012-.093-.137,0a4.241,4.241,0,0,0-.526.433,1.044,1.044,0,0,1-.81.208,1.611,1.611,0,0,0-.7-.006,1.71,1.71,0,0,1,.685-.244.645.645,0,0,0,.47-.309,4.137,4.137,0,0,1,.39-.649,1.189,1.189,0,0,1,.432-.311.875.875,0,0,1,.728.034.5.5,0,1,1-.531.847Z"/>
            </g>
            <g class="cls-20">
              <path class="cls-21" d="M198.4,124.012a1.345,1.345,0,0,0-.872.962,2.4,2.4,0,0,0-.017.8.993.993,0,0,1-.23.841.878.878,0,0,0-.015-.792,2.776,2.776,0,0,1-.237-.889,2.1,2.1,0,0,1,.9-1.805l.041-.028a.511.511,0,0,1,.587.836A.523.523,0,0,1,198.4,124.012Z"/>
            </g>
            <g class="cls-20">
              <path class="cls-21" d="M199.962,125.255l.382.563.2.288a.684.684,0,0,1,.139.347.517.517,0,0,1-.163.408.871.871,0,0,1-.432.2l-.31.077c-.195.063-.339.131-.366.274l-.132-.14a.612.612,0,0,1,.358.975.471.471,0,0,0-.38-.69.108.108,0,0,1-.126-.087v-.006l-.006-.047a.784.784,0,0,1,.453-.7c.19-.124.5-.251.469-.294-.006-.008-.049.042-.048.1s.018.076-.014.053l-.251-.216-.516-.444a.5.5,0,1,1,.659-.764A.589.589,0,0,1,199.962,125.255Z"/>
            </g>
            <g class="cls-20">
              <path class="cls-21" d="M202.3,125.431a.89.89,0,0,1,.568.434,1.049,1.049,0,0,1,.13.566,1.674,1.674,0,0,1-.32.8l-.361-.336a.823.823,0,0,1,.923.3,3.762,3.762,0,0,1,.372.719,3.669,3.669,0,0,0-.551-.528c-.186-.124-.439-.124-.5-.026a.223.223,0,0,1-.4-.177l.042-.16a1.017,1.017,0,0,0,.038-.556.2.2,0,0,0-.092-.1c-.034-.013-.042.023,0,.051a.5.5,0,0,1,.159-.988Z"/>
            </g>
            <g class="cls-20">
              <path class="cls-21" d="M204.37,124.345a.647.647,0,0,1,.655.248.789.789,0,0,1,.149.408.716.716,0,0,1-.06.376c-.114-.088-.067.095.171.015a1.727,1.727,0,0,1,.836-.108,1.283,1.283,0,0,1,.717.367,1.152,1.152,0,0,0-.72-.117,1.382,1.382,0,0,0-.627.314.863.863,0,0,1-.525.152.647.647,0,0,1-.587-.472c-.059-.236-.039-.421-.069-.392-.006.014-.022.016,0,.06a.308.308,0,0,0,.315.116.5.5,0,1,1-.252-.967Z"/>
            </g>
            <g class="cls-20">
              <path class="cls-21" d="M205.469,122.164a1.356,1.356,0,0,1,1.549.61c.078.142.04.119.032.144s.1-.006.17-.064c.12-.1.3-.407.541-.334-.234.039-.237.269-.342.485a.507.507,0,0,1-.343.287c-.242.048-.417-.192-.456-.215a.6.6,0,0,0-.755,0,.547.547,0,1,1-.571-.87Z"/>
            </g>
            <g class="cls-20">
              <path class="cls-21" d="M204.783,119.8a.664.664,0,0,1,.717-.014.931.931,0,0,1,.253.251c.12.168.107.215.214.3a.674.674,0,0,0,.785,0,.927.927,0,0,1-.93.48,1.52,1.52,0,0,1-.565-.214c-.061-.028-.124-.044-.13-.022-.035.027.171.084.274.009a.5.5,0,0,1-.618-.787Z"/>
            </g>
            <g class="cls-20">
              <path class="cls-21" d="M203.434,118.769a.684.684,0,0,1,.07-.825.964.964,0,0,1,.443-.277c.252-.066.484-.041.624-.259.043.276-.235.513-.364.686a.316.316,0,0,0-.051.22c.014.079.117-.022.065-.161a.5.5,0,1,1-.787.616Z"/>
            </g>
          </g>
        </g>
        <circle class="cls-22" cx="201.615" cy="122.124" r="2.592"/>
        <circle class="cls-23" cx="203.662" cy="121.29" r="0.834"/>
      </g>
      <g id="left_eye" data-name="left eye">
        <path class="cls-24" d="M214.609,132.626a1.2,1.2,0,0,1-.81.72,4.677,4.677,0,0,1-3.63-.64,1.983,1.983,0,0,1-.2-.11,14.065,14.065,0,0,0-2.04-1.15,14.561,14.561,0,0,0-4.46-.72c-4.87-.29-10.01-1.22-14.19-3.88a13.1,13.1,0,0,1-4.38-4.64,9.287,9.287,0,0,1-1.1-7.03c.44-1.61,2.13-2.7,3.57-3.38a11.677,11.677,0,0,1,4.37-1.04,18.646,18.646,0,0,1,9.96,2.49,21.649,21.649,0,0,1,6,4.75,38.02,38.02,0,0,1,4.33,6.8c.42.82.83,1.65,1.19,2.49a18.311,18.311,0,0,1,1.39,4.59A1.725,1.725,0,0,1,214.609,132.626Z"/>
        <path class="cls-25" d="M212.97,128.14a88.008,88.008,0,0,0-5.223-8.419,20.147,20.147,0,0,0-3.261-3.272,19.218,19.218,0,0,0-3.862-2.478,19.443,19.443,0,0,0-4.3-1.6,20.156,20.156,0,0,0-4.579-.6,34.037,34.037,0,0,0-9.669,1.426l-.094-.177a24.328,24.328,0,0,1,9.667-2.818,19.143,19.143,0,0,1,9.864,1.981,19.665,19.665,0,0,1,7.543,6.665,41.788,41.788,0,0,1,4.1,9.225Z"/>
        <path class="cls-14" d="M215.958,127.239a35.18,35.18,0,0,0-3.464-9.883,20.212,20.212,0,0,0-7.039-7.492,21.475,21.475,0,0,0-9.708-3.167,18.934,18.934,0,0,0-10.066,1.933l-.052-.086a16.385,16.385,0,0,1,10.179-2.845,19.737,19.737,0,0,1,10.083,3.494,20.885,20.885,0,0,1,7.044,7.927,35.481,35.481,0,0,1,3.121,10.1Z"/>
        <path class="cls-25" d="M202.425,131.411a17.125,17.125,0,0,1-6.4.305,10.953,10.953,0,0,1-1.6-.271c-.531-.11-1.058-.246-1.584-.4a21.394,21.394,0,0,1-3.062-1.242,19.75,19.75,0,0,1-2.8-1.854,14.058,14.058,0,0,1-2.3-2.492,11.284,11.284,0,0,1-1.536-2.985,11.42,11.42,0,0,1-.536-3.23l.189-.064a21.389,21.389,0,0,0,1.266,2.775,13.635,13.635,0,0,0,1.787,2.456,16.452,16.452,0,0,0,4.85,3.622,31.581,31.581,0,0,0,11.737,3.18Z"/>
      </g>
      <g id="right_eyeball" data-name="right eyeball">
        <path class="cls-17" d="M284.763,165.5c-2.8,1.02-6.35.2-9.048-.672a34.847,34.847,0,0,1-11.636-6.506c-1.46-1.23-2.9-2.5-4.431-3.651a54,54,0,0,0-5.616-3.414c-1.034-.6-1.5-1.79-.414-2.675a4.338,4.338,0,0,1,1.646-.708c4.046-1.111,8.194-2.6,12.425-2.722a21.887,21.887,0,0,1,12.7,3.24c1.5.983,6.529,4.062,7.939,8.469a7.069,7.069,0,0,1-1.147,7.029A5.96,5.96,0,0,1,284.763,165.5Z"/>
        <path class="cls-18" d="M288.329,156.866a6.455,6.455,0,0,1-6.01,9.1,32.964,32.964,0,0,1-6.24-1.18,32.248,32.248,0,0,1-12-6.46c-1.46-1.23-2.9-2.5-4.43-3.65-.02-.21-.02-.43-.02-.64a14.5,14.5,0,0,1,2.48-8.12,32.3,32.3,0,0,1,5.58-.76,21.887,21.887,0,0,1,12.7,3.24A25.644,25.644,0,0,1,288.329,156.866Z"/>
        <circle class="cls-26" cx="273.685" cy="154.035" r="7.45"/>
        <g id="Layer_13" data-name="Layer 13">
          <g>
            <g class="cls-20">
              <path class="cls-21" d="M269.786,152.809a4.437,4.437,0,0,0-1.728-1.486,4.95,4.95,0,0,1,2.407.752l.018.012a.513.513,0,1,1-.543.871A.522.522,0,0,1,269.786,152.809Z"/>
            </g>
            <g class="cls-20">
              <path class="cls-21" d="M270.337,154.881a16.253,16.253,0,0,1-.945,1.372,1.106,1.106,0,0,1-.831.414.99.99,0,0,0-.364,0c-.082.029-.177.2-.051.28-.154-.039-.144-.274-.02-.382a1.012,1.012,0,0,1,.409-.15.744.744,0,0,0,.447-.452c.175-.423.292-.993.444-1.5l.008-.025a.508.508,0,1,1,.973.293A.55.55,0,0,1,270.337,154.881Z"/>
            </g>
            <g class="cls-20">
              <path class="cls-21" d="M271.685,157.46c.053-.13-.08-.049-.058.124a4.3,4.3,0,0,0,.185.656,1.041,1.041,0,0,1-.134.825,1.609,1.609,0,0,0-.287.64,1.691,1.691,0,0,1,.052-.726.646.646,0,0,0-.095-.554,4.042,4.042,0,0,1-.437-.618,1.164,1.164,0,0,1-.112-.521.872.872,0,0,1,.323-.653.5.5,0,0,1,.563.827Z"/>
            </g>
            <g class="cls-20">
              <path class="cls-21" d="M274.234,157.542a1.342,1.342,0,0,0,.531,1.185,2.392,2.392,0,0,0,.727.337.991.991,0,0,1,.678.549.881.881,0,0,0-.732-.305,2.754,2.754,0,0,1-.909-.14,2.1,2.1,0,0,1-1.292-1.548l-.01-.049a.511.511,0,1,1,1.007-.029Z"/>
            </g>
            <g class="cls-20">
              <path class="cls-21" d="M276,156.606l.669-.124.343-.065a.684.684,0,0,1,.374.012.517.517,0,0,1,.309.313.87.87,0,0,1,.01.476l-.053.316c-.021.2-.017.362.1.444l-.182.065a.611.611,0,0,1,1.037.064.47.47,0,0,0-.784.071.108.108,0,0,1-.13.08h-.007l-.045-.014a.78.78,0,0,1-.458-.695c-.037-.224-.03-.559-.081-.548-.011,0,.018.062.074.085s.076.014.043.034l-.3.144-.613.294a.5.5,0,0,1-.436-.91A.538.538,0,0,1,276,156.606Z"/>
            </g>
            <g class="cls-20">
              <path class="cls-21" d="M277.1,154.534a.89.89,0,0,1,.625-.346,1.041,1.041,0,0,1,.57.108,1.678,1.678,0,0,1,.6.613l-.453.2a.821.821,0,0,1,.645-.724,3.692,3.692,0,0,1,.808-.052,3.647,3.647,0,0,0-.7.292c-.188.121-.29.353-.226.45a.223.223,0,0,1-.323.3l-.13-.1a1.013,1.013,0,0,0-.494-.258.194.194,0,0,0-.124.046c-.027.026,0,.048.045.023a.5.5,0,0,1-.841-.542Z"/>
            </g>
            <g class="cls-20">
              <path class="cls-21" d="M276.936,152.2a.646.646,0,0,1,.49-.5.78.78,0,0,1,.434.027.719.719,0,0,1,.32.206c-.127.069.06.1.083-.151a1.718,1.718,0,0,1,.236-.809,1.275,1.275,0,0,1,.624-.509,1.156,1.156,0,0,0-.4.612,1.375,1.375,0,0,0,.037.7.863.863,0,0,1-.072.542.647.647,0,0,1-.668.349c-.239-.041-.4-.134-.386-.094.01.011.006.027.053.026.032.016.2-.081.234-.242a.5.5,0,0,1-.988-.157Z"/>
            </g>
            <g class="cls-20">
              <path class="cls-21" d="M275.379,150.322a1.354,1.354,0,0,1,1.18-1.174c.162-.015.126.01.145.028s.038-.1.01-.181c-.047-.153-.254-.436-.088-.63-.059.23.15.325.306.507a.5.5,0,0,1,.125.43c-.052.241-.343.305-.379.331a.6.6,0,0,0-.3.694.547.547,0,1,1-1.026.174Z"/>
            </g>
            <g class="cls-20">
              <path class="cls-21" d="M272.941,150a.663.663,0,0,1,.275-.663.942.942,0,0,1,.331-.13c.2-.043.24-.012.359-.077a.675.675,0,0,0,.314-.719.926.926,0,0,1,.066,1.044,1.54,1.54,0,0,1-.422.432c-.05.045-.09.095-.072.11.01.043.145-.123.117-.247a.5.5,0,1,1-.968.25Z"/>
            </g>
            <g class="cls-20">
              <path class="cls-21" d="M271.453,150.823a.7.7,0,0,1-.492-.113.689.689,0,0,1-.235-.282.965.965,0,0,1-.076-.517c.041-.258.156-.46.013-.676.27.072.376.421.482.61a.317.317,0,0,0,.182.134c.077.019.025-.116-.122-.124a.5.5,0,0,1,.248.968Z"/>
            </g>
          </g>
        </g>
        <circle class="cls-22" cx="273.685" cy="154.035" r="2.592"/>
        <circle class="cls-23" cx="275.879" cy="153.144" r="0.834"/>
      </g>
      <g id="right_eye" data-name="right eye">
        <path class="cls-24" d="M284.763,165.5c-2.8,1.02-6.35.2-9.048-.672a34.847,34.847,0,0,1-11.636-6.506c-1.46-1.23-2.9-2.5-4.431-3.651a54,54,0,0,0-5.616-3.414c-1.034-.6-1.5-1.79-.414-2.675a4.338,4.338,0,0,1,1.646-.708c4.046-1.111,8.194-2.6,12.425-2.722a21.887,21.887,0,0,1,12.7,3.24c1.5.983,6.529,4.062,7.939,8.469a7.069,7.069,0,0,1-1.147,7.029A5.96,5.96,0,0,1,284.763,165.5Z"/>
        <path class="cls-25" d="M290.738,162.51A87.872,87.872,0,0,0,285.669,154a20.165,20.165,0,0,0-3.2-3.331,21.5,21.5,0,0,0-8.082-4.227,20.062,20.062,0,0,0-4.568-.682,34.026,34.026,0,0,0-9.694,1.25l-.09-.179a24.327,24.327,0,0,1,9.716-2.641,19.138,19.138,0,0,1,9.827,2.16,19.657,19.657,0,0,1,7.42,6.8,41.76,41.76,0,0,1,3.931,9.3Z"/>
        <path class="cls-25" d="M262.412,157.608a66.625,66.625,0,0,0,5.4,3.966c.913.565,1.809,1.114,2.747,1.576.471.22.926.468,1.4.678.483.18.946.415,1.439.556a17.536,17.536,0,0,0,2.95.873,20.709,20.709,0,0,0,3.081.522,40.525,40.525,0,0,0,6.641,0l.072.187a19.63,19.63,0,0,1-6.682,1.382,18.77,18.77,0,0,1-6.751-1.09,20.174,20.174,0,0,1-5.894-3.467,23.554,23.554,0,0,1-4.566-5.075Z"/>
        <path class="cls-14" d="M257.33,142.262a28.9,28.9,0,0,1,11.01-2.907,29.272,29.272,0,0,1,11.376,1.387,24.938,24.938,0,0,1,5.251,2.451,19.641,19.641,0,0,1,2.356,1.731,18.925,18.925,0,0,1,2.019,2.123,22.52,22.52,0,0,1,4.318,10.6l-.1.023c-1.142-3.614-2.541-7.191-4.991-9.991a21.848,21.848,0,0,0-9.12-6.187,30.513,30.513,0,0,0-22.076.855Z"/>
      </g>
    </g>
    <g id="eyebrows">
      <path class="cls-2" d="M226.305,108.338a1.323,1.323,0,0,0,1.607-1.141,13.154,13.154,0,0,0-.111-3.749c-.7-3.5-4.79-6.619-7.506-8.608-2.206-1.615-4.579-2.984-6.81-4.563-2.178-1.542-4.1-3.4-6.186-5.059-5.333-4.237-11.376-5.618-17.281-1.578a18.34,18.34,0,0,0-3.64,3.739,8.173,8.173,0,0,0-.674,1.895c.062.309-.129.343-.008.465.961.964,3.169-1.521,3.9-2.021a13.579,13.579,0,0,1,4.979-2.24c5.6-1.094,9.647,4.216,12.456,8.236a44.271,44.271,0,0,0,6.754,7.832,38.859,38.859,0,0,0,6.379,4.35A22.093,22.093,0,0,0,226.305,108.338Z"/>
      <g id="Layer_15" data-name="Layer 15">
        <path class="cls-2" d="M211.183,92.943a5.5,5.5,0,0,0,.793-5.084,7.038,7.038,0,0,1,2.034,6.09l-.029.2a1.58,1.58,0,0,1-3.129-.443A1.6,1.6,0,0,1,211.183,92.943Z"/>
        <path class="cls-2" d="M214.81,96.865a4.546,4.546,0,0,1-.4.541c-.072.084-.147.166-.221.24a1.222,1.222,0,0,1-.1.088c-.007,0-.028.026.023-.045l.045-.067a2.23,2.23,0,0,0,.155-.26l.065-.139c.029-.18-.011.289.188-.76a2.418,2.418,0,0,0-1.4-2.322,2.272,2.272,0,0,0-.734-.189,2.343,2.343,0,0,0-.717.047,1.751,1.751,0,0,0-.308.092l-.025.01a1.249,1.249,0,0,0-.353.232.262.262,0,0,0-.072.1c-.045.09.017.05.042.064a1.775,1.775,0,0,0,.646-.487,8.69,8.69,0,0,0,1.274-1.8,15.52,15.52,0,0,0,1.572-4.62,16.83,16.83,0,0,1,.862,5.192,12.051,12.051,0,0,1-.331,2.859,6.2,6.2,0,0,1-.631,1.619,2.916,2.916,0,0,1-.376.517,3.214,3.214,0,0,1-.3.3,3.679,3.679,0,0,1-.621.384l-.041.02a1.38,1.38,0,0,1-.313.094,2.375,2.375,0,0,1-.722.048,2.308,2.308,0,0,1-.738-.188,2.427,2.427,0,0,1-1.4-2.327c.2-1.052.159-.584.188-.765l.068-.143a2.285,2.285,0,0,1,.16-.268l.057-.083a.648.648,0,0,0,.071-.105c.012-.025,0-.026,0-.032a.085.085,0,0,0-.04-.011.42.42,0,0,0-.093.006,2.5,2.5,0,1,1,4.513,2.153Z"/>
        <path class="cls-2" d="M214.857,101.21a4.94,4.94,0,0,1-1.8-2.46,4.348,4.348,0,0,1-.031-2.486,12.347,12.347,0,0,1,1.269-2.734c.445-.778.88-1.534,1.294-2.314s.779-1.577,1.176-2.388c.1.881.231,1.784.294,2.688s.112,1.82.154,2.712a8.33,8.33,0,0,0,.3,2.321c.1.257.285.282.323.036a2.2,2.2,0,0,0-.066-.621,3,3,0,0,1-2.913,5.246Z"/>
        <path class="cls-2" d="M214.508,98.306a17.544,17.544,0,0,0,3.233-8.493,20.106,20.106,0,0,1,1.485,10.149l-.019.176a2.611,2.611,0,1,1-5.191-.569A2.643,2.643,0,0,1,214.508,98.306Z"/>
        <path class="cls-2" d="M217.854,102.625a8.566,8.566,0,0,1-.578-3.595,9.39,9.39,0,0,1,.733-3.1,14.715,14.715,0,0,1,3.139-4.534,13.125,13.125,0,0,0-.169,4.96,5.416,5.416,0,0,0,.736,1.933,3.159,3.159,0,0,0,1.194,1.1,3.361,3.361,0,1,1-4.667,4.22Z"/>
        <path class="cls-2" d="M218.188,101.409l3.754-8.712,2.224,9.223a3.162,3.162,0,1,1-5.978-.511Z"/>
        <path class="cls-2" d="M220.846,102.864a19.918,19.918,0,0,1,3.04-9.75,16.826,16.826,0,0,0,2.8,8.374,3.219,3.219,0,1,1-5.855,1.715Z"/>
        <path class="cls-2" d="M221.444,102.21l3.777-5.51,2.168,6.319a3.357,3.357,0,1,1-5.945-.809Z"/>
        <path class="cls-2" d="M224.751,105.211l2.893-5.263.014,6.005a1.549,1.549,0,0,1-3.1.008A1.567,1.567,0,0,1,224.751,105.211Z"/>
      </g>
      <path class="cls-2" d="M259.671,118.9a.657.657,0,0,1,.026-.07c.49-1.183,3.054-1.348,3.6-1.378a66.415,66.415,0,0,1,10.766-.032c10.006,1.373,20.313,1.912,27.7,9.806,2.486,2.655,3.819,6.081,5.048,9.443,1.04,2.845,2.858,6.132,3.019,9.2.09,1.7.358,2.506,0,2.866-.767.778-1.994-3.443-2.236-3.959a43.588,43.588,0,0,0-9.8-13.211c-3.784-3.412-8.448-3.735-11.26-4.227s-5.273-.494-10.17-.493c-6.067,0-10.6-.364-14.893-4.981C260.336,120.637,259.4,119.719,259.671,118.9Z"/>
      <g id="Layer_14" data-name="Layer 14">
        <g>
          <path class="cls-2" d="M280.279,120.312a7.039,7.039,0,0,1,6.183-1.732,5.512,5.512,0,0,0-3.765,3.508,1.58,1.58,0,1,1-2.575-1.633Z"/>
          <path class="cls-2" d="M280.593,124.894a.285.285,0,0,0-.054-.069.072.072,0,0,0-.034-.021c-.007,0-.013,0-.025.018a.464.464,0,0,0-.033.078l-.033.093-.018.047a2.6,2.6,0,0,1-.129.285l-.078.135c-.135.131.239-.178-.526.6a2.427,2.427,0,0,1-2.77.134,2.3,2.3,0,0,1-.535-.488,2.351,2.351,0,0,1-.351-.6,1.762,1.762,0,0,1-.1-.321l0-.022a3.831,3.831,0,0,1-.036-.709,2.454,2.454,0,0,1,.073-.433,2.889,2.889,0,0,1,.208-.612,6.261,6.261,0,0,1,.975-1.48,12.1,12.1,0,0,1,2.192-1.968,16.778,16.778,0,0,1,4.862-2.335,15.5,15.5,0,0,0-3,4,8.788,8.788,0,0,0-.779,2.126,1.88,1.88,0,0,0-.039.837c.021.024.029.083.074,0a.2.2,0,0,0,.042-.119,1.208,1.208,0,0,0-.011-.393l0-.012a2.383,2.383,0,0,0-.1-.316,2.318,2.318,0,0,0-.348-.6,2.293,2.293,0,0,0-.533-.483,2.42,2.42,0,0,0-2.766.131c-.763.777-.389.466-.524.595l-.075.131a2.27,2.27,0,0,0-.125.276l-.015.038-.027.074c-.01.022-.013.022-.011,0l.02-.134c.018-.1.042-.213.07-.32a4.747,4.747,0,0,1,.218-.641,2.5,2.5,0,0,1,4.35,2.466Z"/>
          <path class="cls-2" d="M275.608,119.449a2.213,2.213,0,0,0-.553.294c-.181.169-.058.307.212.247a8.352,8.352,0,0,0,2.092-1.05c.763-.466,1.544-.945,2.332-1.393s1.606-.853,2.39-1.265c-.449.783-.911,1.529-1.318,2.313s-.795,1.565-1.19,2.369a12.3,12.3,0,0,1-1.551,2.584,4.354,4.354,0,0,1-2.076,1.369,4.937,4.937,0,0,1-3.048-.115,3,3,0,1,1,2.71-5.353Z"/>
          <path class="cls-2" d="M270.451,119.809c1.7-.7,3.423-1.4,5.137-2.137l5.106-2.344-3.21,4.67c-1.111,1.535-2.26,3.051-3.41,4.594a3.123,3.123,0,1,1-3.711-4.747Z"/>
          <path class="cls-2" d="M269.088,117.97a3.137,3.137,0,0,0,1.579.372,5.419,5.419,0,0,0,2.014-.475,13.121,13.121,0,0,0,4.012-2.922,14.7,14.7,0,0,1-1.994,5.142,9.375,9.375,0,0,1-2.153,2.344,8.578,8.578,0,0,1-3.3,1.537l-1.029.232a3.361,3.361,0,1,1,.871-6.23Z"/>
          <path class="cls-2" d="M266.324,118.4l8.883-3.331-5.108,7.994a3.162,3.162,0,1,1-3.775-4.663Z"/>
          <path class="cls-2" d="M265.268,116.07a16.824,16.824,0,0,0,8.5-2.379,19.944,19.944,0,0,1-6.367,7.986l-.272.2a3.219,3.219,0,1,1-1.865-5.808Z"/>
          <path class="cls-2" d="M263.607,116.346l6.447-1.749-2.444,6.217a3.357,3.357,0,1,1-4-4.468Z"/>
          <path class="cls-2" d="M261.026,117.769l4.98-3.356-2.735,5.346a1.549,1.549,0,1,1-2.758-1.411A1.567,1.567,0,0,1,261.026,117.769Z"/>
        </g>
      </g>
    </g>
    <g id="nose">
      <g id="nostrils">
        <path class="cls-6" d="M201.613,180.963c-.5.714-2.623-.083-3.861-.548-.928-.348-1.316-.632-1.524-1.068a1.659,1.659,0,0,1,.132-1.69c.7-.833,2.5-.427,3.569.283C201.141,178.742,202.047,180.342,201.613,180.963Z"/>
        <path class="cls-6" d="M227.72,192.227a1.723,1.723,0,0,1-1.422.486c-2.183-.209-3.788-4.26-2.908-5.168.477-.492,1.646-.024,1.908.081C227.331,188.442,228.5,191.192,227.72,192.227Z"/>
      </g>
      <path class="cls-14" d="M199.358,163.654c-2.008,1.153-4,2.379-5.135,4.33a12.312,12.312,0,0,0-1.843,6.313,8.9,8.9,0,0,0,2.174,6.054,10.044,10.044,0,0,0,2.549,2.165,10.764,10.764,0,0,0,3.147,1.319,9.5,9.5,0,0,1-3.381-.888,10.517,10.517,0,0,1-2.883-2.078,8.936,8.936,0,0,1-1.975-3.014,9.751,9.751,0,0,1-.631-3.567,11.816,11.816,0,0,1,2.21-6.735,9.489,9.489,0,0,1,2.6-2.438A19.563,19.563,0,0,1,199.358,163.654Z"/>
      <path class="cls-14" d="M200.342,181.2a8.915,8.915,0,0,1-3.234-.857,3.138,3.138,0,0,1-.728-.482,1.381,1.381,0,0,1-.424-.828,1.983,1.983,0,0,1,.65-1.678,2.25,2.25,0,0,1,1.708-.645,3.189,3.189,0,0,1,1.695.643,5.11,5.11,0,0,1,1.877,2.96c.266,1.14.268,2.28.508,3.269a5.189,5.189,0,0,0,1.71,2.5,14.282,14.282,0,0,0,5.706,2.856,11.724,11.724,0,0,0,6.323-.084,21.355,21.355,0,0,1,6.527-1.687,6.068,6.068,0,0,1,3.4.793,4.506,4.506,0,0,1,1.951,2.872,1.8,1.8,0,0,1-.527,1.727,1.681,1.681,0,0,1-1.747.146,5.037,5.037,0,0,1-2.145-2.547,5.209,5.209,0,0,0,2.243,2.3,1.214,1.214,0,0,0,1.7-1.529,4,4,0,0,0-1.8-2.429,5.363,5.363,0,0,0-3.032-.565,23.206,23.206,0,0,0-6.287,1.785,12.637,12.637,0,0,1-6.839.187,14.451,14.451,0,0,1-3.212-1.231,14.282,14.282,0,0,1-2.857-1.914,6.066,6.066,0,0,1-1.944-2.96c-.274-1.178-.222-2.29-.422-3.326a4.41,4.41,0,0,0-1.509-2.621,2.037,2.037,0,0,0-2.694-.139,1.555,1.555,0,0,0-.6,1.276c.012.5.433.847.908,1.122A9.781,9.781,0,0,0,200.342,181.2Z"/>
      <path class="cls-14" d="M219.9,189.747a8.66,8.66,0,0,0,6.414,5.465,7.67,7.67,0,0,0,7.487-3.062,11.877,11.877,0,0,0,2.105-8.229,18.278,18.278,0,0,0-.89-4.342,22.242,22.242,0,0,0-1.784-4.121,18.219,18.219,0,0,1,3.439,8.382,13.5,13.5,0,0,1-.143,4.638,10.99,10.99,0,0,1-1.928,4.272,8.5,8.5,0,0,1-3.746,2.875,8.176,8.176,0,0,1-4.688.338,8.311,8.311,0,0,1-4.051-2.252A8.974,8.974,0,0,1,219.9,189.747Z"/>
      <g class="cls-27">
        <path class="cls-14" d="M226.924,120.156a32.031,32.031,0,0,1,.906,7.906,28.467,28.467,0,0,1-1.089,7.944c-.2.645-.446,1.274-.668,1.911-.275.617-.555,1.234-.851,1.841-.352.578-.7,1.169-1.055,1.732s-.746,1.09-1.128,1.629l-2.285,3.242c-.792,1.06-1.555,2.139-2.372,3.183.627-1.168,1.309-2.3,1.962-3.452L222.4,142.7q.508-.851,1.038-1.688l.947-1.688.785-1.766c.2-.614.435-1.217.618-1.837a35.026,35.026,0,0,0,1.282-7.683c.095-1.305.108-2.618.073-3.931C227.137,122.789,227.044,121.475,226.924,120.156Z"/>
      </g>
    </g>
    <g id="mouth">
      <path class="cls-28" d="M176.549,199.429a8.547,8.547,0,0,1,.118,2.042c.79,8.78,5.554,18.13,13.066,23.111,12.065,8,26.349,5.583,38.8.08,1.214-.537,2.458-1.019,3.676-1.571.81-.367,2.3-1.471,3.176-1.5a71.565,71.565,0,0,1-24.7-3.5c-5.16-1.713-9.847-4.206-19.21-9.216a109.674,109.674,0,0,1-13.938-8.712C177.118,199.858,176.777,199.6,176.549,199.429Z"/>
      <g id="Layer_7" data-name="Layer 7">
        <path class="cls-29" d="M176.625,199.321c7.012-.37,14.918-2,21.3,1.86a22.1,22.1,0,0,1,5.932,5.431c1.014,1.31,3.006.6,4.38.549a17.5,17.5,0,0,1,9.225,2.338c3.632,2.068,5.935,5.59,9.414,7.834,4.368,2.817,8.661,3.7,8.5,4.263-.057.207-.962.215-2.773.233-1.653.016-2.9-.05-3.113-.062,0,0-3.036-.167-7.116-.749a99.939,99.939,0,0,1-14.883-3.173,104.05,104.05,0,0,1-16.587-7.435,70.436,70.436,0,0,1-8.2-5.334c-.368-.29-.733-.587-.734-.587-.988-.805-1.734-1.466-2.133-1.824C177.619,200.671,176.253,199.34,176.625,199.321Z"/>
      </g>
      <g id="Layer_8" data-name="Layer 8">
        <path class="cls-30" d="M173.067,195.691a88.329,88.329,0,0,0,6.906,6.336,84.412,84.412,0,0,0,24.089,14.062,82.692,82.692,0,0,0,18.038,4.663,90.137,90.137,0,0,0,18.683.674,75.122,75.122,0,0,1-9.378.633,83.322,83.322,0,0,1-9.405-.544,77.213,77.213,0,0,1-34.953-13.279A75.41,75.41,0,0,1,173.067,195.691Z"/>
      </g>
    </g>
    <g id="hair">
      <path class="cls-31" d="M406.511,137.342c.146-.213,4.466,2.346,4.731,2.5a43.5,43.5,0,0,1,9.466,7.515c7.161,7.706,8.657,19.645,10.172,29.683,1.118,7.41,1.832,15.474-3.3,21.657-2.68,3.23-5.811,5.957-6.727,10.242-.975,4.566.617,9.414,2.843,13.373,2.563,4.559,5.8,8.675,7.956,13.466a47.169,47.169,0,0,1,4.289,16.254c.477,7.4-4.408,11.362-10.091,15.208-3.249,2.2-6.555,4.895-7.53,8.695-1,3.891.624,8.063,2.293,11.535a54.793,54.793,0,0,1,4.847,15.959,49.982,49.982,0,0,1-3.031,25.283c-2.01,5.047-5.669,10.2-11.113,11.668-4.579,1.233-10.485-.482-14.444,2.61-2.812,2.2-3.247,6-3.2,9.321.08,5.286,1.035,10.459.33,15.757-.779,5.857-3.4,11.111-8.321,14.493-4.236,2.912-9.149,5.012-11.079,10.175-1.647,4.4-1.461,11.856,3.15,14.389a14.011,14.011,0,0,0,4.4,1.373c5.31.913,7.59-2.488,6.061-7.437a6.146,6.146,0,0,0-1.7-2.874,8.437,8.437,0,0,0-4.279-1.559c.436.073,1.711-1.529,2.131-1.713a6.541,6.541,0,0,1,4.092-.288c7.367,1.724,11.545,10.486,8.273,17.264-3.483,7.214-11.176,10.485-18.917,8.892-3.959-.816-7.924-2.259-10.856-5.042-11.838-11.237-8.9-30.428.645-41.664,4.772-5.615,11.691-12.467,11.4-20.264-.163-4.427-.335-8.86-.408-13.281-.062-3.753-.676-7.968,1.1-11.453a10.448,10.448,0,0,1,4.222-4.042c5.87-3.421,13.283-5.417,18.2-10.241,5.558-5.457,5.74-12.936,2.164-19.464a117.548,117.548,0,0,1-8.688-20.963c-2.284-7.168-3.073-14.765.666-21.6a36.611,36.611,0,0,1,8.134-9.859,21.953,21.953,0,0,0,3.669-3.629c3.222-4.54.01-12.789-2.151-17.211-1.826-3.734-4.529-6.343-6.971-9.567-5.653-7.467-5.69-18.531-3.595-27.234,1.637-6.8,4.46-13.3,5.387-20.27.265-2,.34-4.331-.865-6.064-.76-1.094-1.455-1.389-1.632-2.8-.312-2.484.945-5.277,1.914-7.487A70.868,70.868,0,0,1,406.511,137.342Z"/>
      <g>
        <path class="cls-32" d="M329.786,402.072c-.8-.664-2.153-1.558-4.222-2.9-2.41-1.557-5.409-3.5-6-4.466-2.058-3.378-2.394-7.952-1-13.595,2.066-8.366,8.1-19.314,16.475-23.583,1.632-.832,3.2-1.6,4.71-2.342,11.2-5.491,19.289-9.458,22.035-24.648.906-5.016,1.748-10.822.256-16.232-1.144-4.151-3.569-7.778-5.913-11.285a63.175,63.175,0,0,1-4.2-6.894c-6.688-13.483-1.87-30.182,5.435-39.992,1.63-2.191,3.5-4.26,5.315-6.26,1.718-1.9,3.5-3.862,5.079-5.941,8.011-10.514,3.927-18.616-.4-27.193-2.455-4.869-4.993-9.9-5.329-15.59-.51-8.64,4.011-15.973,8.382-23.065,6.151-9.979,12.512-20.3,4.1-33.906a32.511,32.511,0,0,0-3.616-4.536l-.648-.723c-9.361-10.507-14.865-24.264-17.319-43.293-.4-3.068-.7-6.119-1-9.07-1.4-13.792-2.711-26.818-12.612-38.578-6.951-8.256-15.6-18.531-27.332-18.531-.508,0-1.025.02-1.546.059-7.528.563-21.488,3.7-26.059,11.871L281.4,49.162a136.24,136.24,0,0,0-31.948-10.58l.276-1.752c.043-.215,4.833-23.588,16.852-30.1C273.774,2.829,285.431.5,297.756.5a73.109,73.109,0,0,1,17.989,2.009c11.277,2.943,19.243,11.7,26.947,20.166l1.327,1.457A121.088,121.088,0,0,0,356.548,36.6a40.864,40.864,0,0,0,7.136,4.34c3.085,1.6,6,3.112,8.241,5.42,2.4,2.47,3.737,6.228,4.1,11.489.1,1.488.185,3,.269,4.513.467,8.412.948,17.11,4.572,24.769,2.522,5.33,6.791,9.639,10.919,13.806a78.4,78.4,0,0,1,7.888,8.8c10.67,14.7,14.682,33.938,10.222,49.007-2.031,6.86-6.446,12.833-10.714,18.609-5.024,6.8-10.218,13.824-11.487,22.293-1.16,7.747,2.526,14.567,6.09,21.162,2.188,4.049,4.451,8.237,5.505,12.535,3.61,14.713-.358,44.918-17.671,50.123-.365.11-.743.216-1.125.322-2.5.7-5.328,1.488-6.295,4.007a7.658,7.658,0,0,0-.028,4.232,112.9,112.9,0,0,0,5.192,17.194c4.653,12.861,9.048,25.01,1.089,39.226-4.861,8.683-12.9,15.408-23.89,19.985-2.228.928-4.661,1.7-7.014,2.441-5.039,1.591-10.249,3.238-14.343,6.628-6.345,5.258-5.96,12.479-5.588,19.462C329.7,398.651,329.8,400.387,329.786,402.072Z"/>
        <path class="cls-2" d="M297.755,1a72.582,72.582,0,0,1,17.864,1.993c11.135,2.905,19.05,11.606,26.7,20.02l.936,1.028.392.43a121.36,121.36,0,0,0,12.58,12.513,41.25,41.25,0,0,0,7.221,4.4c3.048,1.581,5.927,3.074,8.113,5.324,2.311,2.381,3.606,6.036,3.956,11.175.1,1.485.185,2.989.269,4.5.469,8.461.954,17.211,4.619,24.959,2.558,5.407,6.858,9.747,11.016,13.944a78,78,0,0,1,7.838,8.741c10.582,14.581,14.565,33.646,10.147,48.571-2,6.776-6.393,12.713-10.637,18.454-5.059,6.846-10.291,13.924-11.578,22.516-1.185,7.913,2.541,14.807,6.144,21.475,2.174,4.021,4.421,8.179,5.46,12.415,1.935,7.891,1.534,19.068-1.023,28.474-1.786,6.568-6.278,18.036-16.307,21.052-.362.109-.736.213-1.115.318-2.611.73-5.571,1.556-6.627,4.31a8.165,8.165,0,0,0-.053,4.5,113.4,113.4,0,0,0,5.213,17.27c4.613,12.751,8.97,24.8,1.124,38.812-4.806,8.583-12.762,15.234-23.647,19.767-2.207.92-4.522,1.651-6.972,2.425-5.085,1.607-10.343,3.268-14.512,6.721-6.539,5.419-6.147,12.767-5.768,19.873.072,1.345.145,2.72.167,4.071-.813-.586-1.931-1.321-3.445-2.3-2.242-1.449-5.312-3.433-5.845-4.307-1.985-3.257-2.3-7.7-.941-13.214,2.039-8.259,7.984-19.06,16.217-23.258,1.628-.83,3.191-1.6,4.7-2.338,11.33-5.555,19.517-9.569,22.307-25.008.916-5.07,1.766-10.941.246-16.454-1.166-4.23-3.614-7.891-5.981-11.431a62.888,62.888,0,0,1-4.163-6.837c-6.3-12.7-2.058-29.472,5.389-39.472,1.616-2.171,3.48-4.23,5.283-6.221,1.727-1.907,3.512-3.879,5.108-5.975,8.2-10.763,3.854-19.384-.348-27.72-2.432-4.824-4.947-9.813-5.276-15.395-.5-8.484,3.977-15.748,8.308-22.774,6.23-10.108,12.673-20.56,4.1-34.431a32.886,32.886,0,0,0-3.673-4.613l-.642-.716c-9.292-10.428-14.756-24.1-17.2-43.024-.395-3.062-.7-6.109-1-9.056-1.4-13.871-2.726-26.972-12.727-38.851-7.017-8.335-15.751-18.709-27.714-18.707-.524,0-1.057.02-1.583.059A53.62,53.62,0,0,0,295.882,32.2c-5.852,2.236-9.868,5.245-11.936,8.941l-.035.063-.026.067-2.764,7.211a136.693,136.693,0,0,0-31.106-10.294l.026-.164.168-1.074c.047-.233,4.793-23.38,16.6-29.779C273.943,3.306,285.51,1,297.755,1m0-1c-11.424,0-23.584,2.045-31.419,6.29-12.369,6.7-17.107,30.463-17.107,30.463l-.351,2.227a135.688,135.688,0,0,1,32.79,10.867q1.577-4.11,3.151-8.22c4.347-7.772,17.553-11.01,25.661-11.617.508-.038,1.012-.056,1.508-.056,11.5,0,19.868,9.941,26.949,18.352,11.91,14.145,11.26,30.016,13.5,47.39,2.064,16,6.5,31.278,17.443,43.562a38.387,38.387,0,0,1,4.21,5.189c14.12,22.846-13.8,35.58-12.555,56.737.927,15.717,18.207,26.2,5.827,42.451-3.24,4.253-7.2,7.916-10.4,12.2-8.156,10.953-11.76,27.858-5.483,40.514,3.078,6.206,8.235,11.412,10.076,18.09,1.431,5.19.691,10.712-.266,16.01-3.059,16.928-12.551,19.531-26.48,26.633-8.382,4.274-14.558,15.095-16.734,23.909-1.124,4.554-1.485,9.8,1.058,13.975,1.288,2.112,11.17,7.249,11.119,8.436.374-8.778-2.83-18.816,5.264-25.524,5.942-4.922,14.286-6.1,21.23-8.992,9.956-4.147,18.784-10.645,24.135-20.2,11.5-20.544-2.4-36.727-6.227-56.758a7.3,7.3,0,0,1,0-3.959c1.014-2.643,4.385-3.213,7.1-4.029,17.61-5.294,21.675-35.789,18.013-50.722-2.776-11.318-13.433-21.17-11.586-33.5,2.32-15.484,17.726-25.77,22.185-40.834,4.876-16.473-.406-35.813-10.3-49.442-5.7-7.856-14.6-13.723-18.76-22.525-4.233-8.95-4.134-19.435-4.794-29.1-.291-4.26-1.262-8.74-4.237-11.8-4.163-4.288-10.725-5.964-15.418-9.8A123.984,123.984,0,0,1,344,23.368c-7.952-8.724-16.24-18.241-28.128-21.343A74.126,74.126,0,0,0,297.755,0Z"/>
      </g>
    </g>
  </g>
</svg>
