<svg xmlns="http://www.w3.org/2000/svg" viewBox="0 0 168.814 25.728">
  <defs>
    <style>
      .cls-1 {
        isolation: isolate;
      }

      .cls-2 {
        mix-blend-mode: multiply;
      }

      .cls-3 {
        opacity: 0.9;
      }

      .cls-4 {
        fill: #bdd4b6;
      }

      .cls-5 {
        fill: #d3e2ce;
      }

      .cls-6 {
        fill: #dce8d9;
      }

      .cls-7 {
        fill: #d7e5d3;
      }

      .cls-8 {
        fill: #c5d9bf;
      }

      .cls-9 {
        fill: #c8dbc2;
      }

      .cls-10 {
        fill: #acc8a3;
      }

      .cls-11 {
        fill: #b3cdab;
      }

      .cls-12 {
        fill: #b7d0b0;
      }

      .cls-13 {
        fill: #eaf1e8;
      }

      .cls-14 {
        fill: #e6eee3;
      }

      .cls-15 {
        fill: #e1e1d3;
      }

      .cls-16 {
        fill: #ebebe1;
      }

      .cls-17 {
        fill: #efefe8;
      }

      .cls-18 {
        fill: #edede4;
      }

      .cls-19 {
        fill: #e4e5d8;
      }

      .cls-20 {
        fill: #e6e6da;
      }

      .cls-21 {
        fill: #d9d9c7;
      }

      .cls-22 {
        fill: #dcddcc;
      }

      .cls-23 {
        fill: #dedfcf;
      }

      .cls-24 {
        fill: #f5f5f1;
      }

      .cls-25 {
        fill: #f3f3ee;
      }
    </style>
  </defs>
  <g class="cls-1">
    <g id="Layer_1" data-name="Layer 1">
      <g class="cls-2">
        <g class="cls-3">
          <g class="cls-3">
            <path class="cls-4" d="M67.38,22.149c-4.025.161-8.045.462-12.063.732l2.612-1.038C60.882,20.91,64.122,22.033,67.38,22.149Z"/>
            <path class="cls-4" d="M78.447,21.831a.08.08,0,0,0-.023.018c-3.112,0-6.216.116-9.322.229.212-.024.421-.052.632-.092C72.63,21.321,75.54,20.917,78.447,21.831Z"/>
            <path class="cls-5" d="M129.329,12.218c-3.4,3.575-7.456,6.558-11.189,9.568a16.488,16.488,0,0,1-2.684.586,19.942,19.942,0,0,1-3.061.159c-1.712.028-3.774.019-5.164-.061a22.43,22.43,0,0,0,4.371-5.33c-1.1-.406-3.311-.857-3.286-1.583.661-2.725,3.008-4.34,5.457-5.855C114.494,9.816,124.134,12.325,129.329,12.218Z"/>
            <path class="cls-6" d="M141.565,13.552a61.533,61.533,0,0,1,9.458,2.643,28.6,28.6,0,0,1-3.951,4.2,13.761,13.761,0,0,0,2.8,2.063l-.922.7q-8.346-.318-16.642-.276C132.728,21.92,139.8,16.316,141.565,13.552Z"/>
            <path class="cls-7" d="M131.568,13.088c1.286-.121,2.449-.253,3.555-.388a63.664,63.664,0,0,1,6.442.852,23.278,23.278,0,0,1-6.764,7.009c.37.025.623,1.076.993,1.1-1.829.557-3.052.267-3.487,1.216-5.132-.037-10.256.033-15.383-.09,1.135-.656,2.219-.238,3.32-.18a1.749,1.749,0,0,0-2.1-.821c3.733-3.01,7.788-5.993,11.189-9.568l1.085.091C130.694,12.779,130.944,13.247,131.568,13.088Z"/>
            <path class="cls-8" d="M74.874,17.944a19.548,19.548,0,0,0,7.135-6.823c.946.252,2.77.822,4.1.2,2.435.088,7.52.8,8.364-.117s-5.382,3.863-7.734,6.043c-.277,1.408-1.536,2.54-3.033,3.572-.476-.092-.069-.973-.544-1.109a8.8,8.8,0,0,1-.852,1.12l-5.2-.074c-.854-1.429-2.956-.3-3.018.008l-1.5.023-.047-.015c.652-.466,1.308-.93,1.973-1.373C74.88,19.03,74.874,17.944,74.874,17.944Z"/>
            <path class="cls-9" d="M108.316,15.557c.661-2.725,3.008-4.34,5.457-5.855L110.225,9c.259.634.705,1.316.138,1.563a24.644,24.644,0,0,1-4.508.556,39.948,39.948,0,0,1-4.463-1.6c-1.267.2-2.521.407-3.741.651a3.25,3.25,0,0,0-.778,1.428,9.914,9.914,0,0,1-2.4-.4c-.1.216-6.98,3.518-7.734,6.043-.277,1.408-1.536,2.54-3.033,3.572l2.41.111,3.847.213a2.94,2.94,0,0,0-1.033-.964c.281,0,2.248.885,3.032,1.089,1.277.09,4.412.179,4.7.117.369.01-.356-.734-.341-1.458a15.6,15.6,0,0,0,4.814,2.133l1.357.1c.132.283.229.475.04.47a7.744,7.744,0,0,1-.868.163l5.332.52a16.42,16.42,0,0,1-2.792-1.025l2.925.173.12-.011A22.415,22.415,0,0,0,111.6,17.14C110.5,16.734,108.291,16.283,108.316,15.557Z"/>
            <path class="cls-10" d="M13.129,24.633c-2.156-1.2-5.4-.894-7.358-2.5C2.711,19.127,3.467,15.242,2,11.549c8.821.685,17.594.735,26.369.619-2.067,1.744-5.844,1.083-7.449,3.844.026.361.794.668,1.19,1-2.15,1.251-5.823,1.887-5.684,3.693.085,1.106.848,2.256,1.27,3.669l-.816.067C15.98,23.98,14.66,24.455,13.129,24.633Z"/>
            <path class="cls-11" d="M29.286,24.844l-6.009.659a6.623,6.623,0,0,0-.214-.982c2.354-.2,4.705-.447,7.051-.8A10.145,10.145,0,0,0,29.286,24.844Z"/>
            <path class="cls-11" d="M22.11,17.012c-.4-.332-1.164-.639-1.19-1,1.6-2.761,5.382-2.1,7.449-3.844L38.478,11.9l-1.69.964c1.865-.091,2.361,2.424,4.218,2.334-5.3,2.873-12.521,3.859-16.263,8.307-2.346.354-4.693.667-7.047.865-.422-1.413-1.185-2.563-1.27-3.669C16.287,18.9,19.96,18.263,22.11,17.012Z"/>
            <path class="cls-12" d="M41.006,15.2c-1.857.09-2.353-2.425-4.218-2.334l1.69-.964,11.675-.45c.261.036.523.066.781.084,2.985.169,5.484-.057,8.275.166-1.814,1.5-3.615,2.974-5.468,4.417a43.58,43.58,0,0,0-11.767-4.233c1.51.289,1.215,2.118,1.974,2.445,2.83,1.894,5.386,5.955,4.095,7.78-2.866.227-5.728.517-8.591.812s-5.727.578-8.59.92c-.418-.436-1.022-1.151-1.329-1.132q-2.393.444-4.79.8C28.485,19.061,35.707,18.075,41.006,15.2Z"/>
            <path class="cls-4" d="M53.741,16.121c1.853-1.443,3.654-2.92,5.468-4.417.709.055,1.437.14,2.2.269a1.376,1.376,0,0,0-.274-.949l1.573-.058c.637.175,1.25,1.281,2.127-.082l2.218-.056a4.148,4.148,0,0,1,1.828,1.743l-.014-1.087c.74-.733,1.5-.017,2.242-.025a3.164,3.164,0,0,1,.054-.731c3.482.827,8.413-.1,9.321-.1.5.186,1.014.354,1.527.493a19.548,19.548,0,0,1-7.135,6.823s.006,1.086-.363,1.453c-.665.443-1.321.907-1.973,1.373-4.029-1.729-9.149.263-9.354.311l-1.725.09C58.2,21.1,53.111,19.362,49.385,22l-1.342.112c1.291-1.825-1.265-5.886-4.095-7.78-.756-.327-3.28-2.269-1.974-2.445C46.663,12,53.987,16.255,53.741,16.121Z"/>
            <path class="cls-13" d="M165.059,19.993l3.755,1.028c-1.392-.143-2.745-.661-3.573.095a4.868,4.868,0,0,0-1.985-.486A7.644,7.644,0,0,1,165.059,19.993Z"/>
            <path class="cls-13" d="M162.078,24.882l-1.1-.114a1.1,1.1,0,0,1,1.58-.931c.073-.72-.736-.075-.7-.436.1-.96.519-.954,1.01-.786-.17,1.616-.882,3.168-1.431,3.112l-.726-.073C161.156,25.372,161.831,25.26,162.078,24.882Z"/>
            <path class="cls-14" d="M149.871,22.453a13.761,13.761,0,0,1-2.8-2.063,28.6,28.6,0,0,0,3.951-4.195c3.292,1.022,6.528,1.881,9.838,2.817a7.65,7.65,0,0,0-1.8.64,4.891,4.891,0,0,1,1.989.486,1.727,1.727,0,0,0-.415.588l0,.021c-.492-.17-.915-.175-1.009.783-.036.363.773-.283.7.439a1.1,1.1,0,0,0-1.579.929l1.1.114c-.243.38-.918.491-1.37.774-3.183-.286-6.359-.478-9.53-.633Z"/>
          </g>
        </g>
      </g>
      <g class="cls-3">
        <g class="cls-3">
          <path class="cls-15" d="M67.38,22.149c-4.025.161-8.045.462-12.063.732l2.612-1.038C60.882,20.91,64.122,22.033,67.38,22.149Z"/>
          <path class="cls-15" d="M78.447,21.831a.08.08,0,0,0-.023.018c-3.112,0-6.216.116-9.322.229.212-.024.421-.052.632-.092C72.63,21.321,75.54,20.917,78.447,21.831Z"/>
          <path class="cls-16" d="M129.329,12.218c-3.4,3.575-7.456,6.558-11.189,9.568a16.488,16.488,0,0,1-2.684.586,19.942,19.942,0,0,1-3.061.159c-1.712.028-3.774.019-5.164-.061a22.43,22.43,0,0,0,4.371-5.33c-1.1-.406-3.311-.857-3.286-1.583.661-2.725,3.008-4.34,5.457-5.855C114.494,9.816,124.134,12.325,129.329,12.218Z"/>
          <path class="cls-17" d="M141.565,13.552a61.533,61.533,0,0,1,9.458,2.643,28.6,28.6,0,0,1-3.951,4.2,13.761,13.761,0,0,0,2.8,2.063l-.922.7q-8.346-.318-16.642-.276C132.728,21.92,139.8,16.316,141.565,13.552Z"/>
          <path class="cls-18" d="M131.568,13.088c1.286-.121,2.449-.253,3.555-.388a63.664,63.664,0,0,1,6.442.852,23.278,23.278,0,0,1-6.764,7.009c.37.025.623,1.076.993,1.1-1.829.557-3.052.267-3.487,1.216-5.132-.037-10.256.033-15.383-.09,1.135-.656,2.219-.238,3.32-.18a1.749,1.749,0,0,0-2.1-.821c3.733-3.01,7.788-5.993,11.189-9.568l1.085.091C130.694,12.779,130.944,13.247,131.568,13.088Z"/>
          <path class="cls-19" d="M74.874,17.944a19.548,19.548,0,0,0,7.135-6.823c.946.252,2.77.822,4.1.2,2.435.088,7.52.8,8.364-.117s-5.382,3.863-7.734,6.043c-.277,1.408-1.536,2.54-3.033,3.572-.476-.092-.069-.973-.544-1.109a8.8,8.8,0,0,1-.852,1.12l-5.2-.074c-.854-1.429-2.956-.3-3.018.008l-1.5.023-.047-.015c.652-.466,1.308-.93,1.973-1.373C74.88,19.03,74.874,17.944,74.874,17.944Z"/>
          <path class="cls-20" d="M108.316,15.557c.661-2.725,3.008-4.34,5.457-5.855L110.225,9c.259.634.705,1.316.138,1.563a24.644,24.644,0,0,1-4.508.556,39.948,39.948,0,0,1-4.463-1.6c-1.267.2-2.521.407-3.741.651a3.25,3.25,0,0,0-.778,1.428,9.914,9.914,0,0,1-2.4-.4c-.1.216-6.98,3.518-7.734,6.043-.277,1.408-1.536,2.54-3.033,3.572l2.41.111,3.847.213a2.94,2.94,0,0,0-1.033-.964c.281,0,2.248.885,3.032,1.089,1.277.09,4.412.179,4.7.117.369.01-.356-.734-.341-1.458a15.6,15.6,0,0,0,4.814,2.133l1.357.1c.132.283.229.475.04.47a7.744,7.744,0,0,1-.868.163l5.332.52a16.42,16.42,0,0,1-2.792-1.025l2.925.173.12-.011A22.415,22.415,0,0,0,111.6,17.14C110.5,16.734,108.291,16.283,108.316,15.557Z"/>
          <path class="cls-21" d="M13.129,24.633c-2.156-1.2-5.4-.894-7.358-2.5C2.711,19.127,3.467,15.242,2,11.549c8.821.685,17.594.735,26.369.619-2.067,1.744-5.844,1.083-7.449,3.844.026.361.794.668,1.19,1-2.15,1.251-5.823,1.887-5.684,3.693.085,1.106.848,2.256,1.27,3.669l-.816.067C15.98,23.98,14.66,24.455,13.129,24.633Z"/>
          <path class="cls-22" d="M29.286,24.844l-6.009.659a6.623,6.623,0,0,0-.214-.982c2.354-.2,4.705-.447,7.051-.8A10.145,10.145,0,0,0,29.286,24.844Z"/>
          <path class="cls-22" d="M22.11,17.012c-.4-.332-1.164-.639-1.19-1,1.6-2.761,5.382-2.1,7.449-3.844L38.478,11.9l-1.69.964c1.865-.091,2.361,2.424,4.218,2.334-5.3,2.873-12.521,3.859-16.263,8.307-2.346.354-4.693.667-7.047.865-.422-1.413-1.185-2.563-1.27-3.669C16.287,18.9,19.96,18.263,22.11,17.012Z"/>
          <path class="cls-23" d="M41.006,15.2c-1.857.09-2.353-2.425-4.218-2.334l1.69-.964,11.675-.45c.261.036.523.066.781.084,2.985.169,5.484-.057,8.275.166-1.814,1.5-3.615,2.974-5.468,4.417a43.58,43.58,0,0,0-11.767-4.233c1.51.289,1.215,2.118,1.974,2.445,2.83,1.894,5.386,5.955,4.095,7.78-2.866.227-5.728.517-8.591.812s-5.727.578-8.59.92c-.418-.436-1.022-1.151-1.329-1.132q-2.393.444-4.79.8C28.485,19.061,35.707,18.075,41.006,15.2Z"/>
          <path class="cls-15" d="M53.741,16.121c1.853-1.443,3.654-2.92,5.468-4.417.709.055,1.437.14,2.2.269a1.376,1.376,0,0,0-.274-.949l1.573-.058c.637.175,1.25,1.281,2.127-.082l2.218-.056a4.148,4.148,0,0,1,1.828,1.743l-.014-1.087c.74-.733,1.5-.017,2.242-.025a3.164,3.164,0,0,1,.054-.731c3.482.827,8.413-.1,9.321-.1.5.186,1.014.354,1.527.493a19.548,19.548,0,0,1-7.135,6.823s.006,1.086-.363,1.453c-.665.443-1.321.907-1.973,1.373-4.029-1.729-9.149.263-9.354.311l-1.725.09C58.2,21.1,53.111,19.362,49.385,22l-1.342.112c1.291-1.825-1.265-5.886-4.095-7.78-.756-.327-3.28-2.269-1.974-2.445C46.663,12,53.987,16.255,53.741,16.121Z"/>
          <path class="cls-24" d="M165.059,19.993l3.755,1.028c-1.392-.143-2.745-.661-3.573.095a4.868,4.868,0,0,0-1.985-.486A7.644,7.644,0,0,1,165.059,19.993Z"/>
          <path class="cls-24" d="M162.078,24.882l-1.1-.114a1.1,1.1,0,0,1,1.58-.931c.073-.72-.736-.075-.7-.436.1-.96.519-.954,1.01-.786-.17,1.616-.882,3.168-1.431,3.112l-.726-.073C161.156,25.372,161.831,25.26,162.078,24.882Z"/>
          <path class="cls-25" d="M149.871,22.453a13.761,13.761,0,0,1-2.8-2.063,28.6,28.6,0,0,0,3.951-4.195c3.292,1.022,6.528,1.881,9.838,2.817a7.65,7.65,0,0,0-1.8.64,4.891,4.891,0,0,1,1.989.486,1.727,1.727,0,0,0-.415.588l0,.021c-.492-.17-.915-.175-1.009.783-.036.363.773-.283.7.439a1.1,1.1,0,0,0-1.579.929l1.1.114c-.243.38-.918.491-1.37.774-3.183-.286-6.359-.478-9.53-.633Z"/>
        </g>
      </g>
      <g class="cls-2">
        <g class="cls-3">
          <g class="cls-3">
            <path class="cls-4" d="M65.38,13.149c-4.025.161-8.045.462-12.063.732l2.612-1.038C58.882,11.91,62.122,13.033,65.38,13.149Z"/>
            <path class="cls-4" d="M76.447,12.831a.08.08,0,0,0-.023.018c-3.112,0-6.216.116-9.322.229.212-.024.421-.052.632-.092C70.63,12.321,73.54,11.917,76.447,12.831Z"/>
            <path class="cls-5" d="M127.329,3.218c-3.4,3.575-7.456,6.558-11.189,9.568a16.488,16.488,0,0,1-2.684.586,19.942,19.942,0,0,1-3.061.159c-1.712.028-3.774.019-5.164-.061A22.43,22.43,0,0,0,109.6,8.14c-1.1-.406-3.311-.857-3.286-1.583.661-2.725,3.008-4.34,5.457-5.855C112.494.816,122.134,3.325,127.329,3.218Z"/>
            <path class="cls-6" d="M139.565,4.552A61.533,61.533,0,0,1,149.023,7.2a28.6,28.6,0,0,1-3.951,4.2,13.761,13.761,0,0,0,2.8,2.063l-.922.7q-8.346-.318-16.642-.276C130.728,12.92,137.8,7.316,139.565,4.552Z"/>
            <path class="cls-7" d="M129.568,4.088c1.286-.121,2.449-.253,3.555-.388a63.664,63.664,0,0,1,6.442.852,23.278,23.278,0,0,1-6.764,7.009c.37.025.623,1.076.993,1.1-1.829.557-3.052.267-3.487,1.216-5.132-.037-10.256.033-15.383-.09,1.135-.656,2.219-.238,3.32-.18a1.749,1.749,0,0,0-2.1-.821c3.733-3.01,7.788-5.993,11.189-9.568l1.085.091C128.694,3.779,128.944,4.247,129.568,4.088Z"/>
            <path class="cls-8" d="M72.874,8.944a19.548,19.548,0,0,0,7.135-6.823c.946.252,2.77.822,4.1.2,2.435.088,7.52.8,8.364-.117s-5.382,3.863-7.734,6.043c-.277,1.408-1.536,2.54-3.033,3.572-.476-.092-.069-.973-.544-1.109a8.8,8.8,0,0,1-.852,1.12l-5.2-.074c-.854-1.429-2.956-.3-3.018.008l-1.5.023-.047-.015c.652-.466,1.308-.93,1.973-1.373C72.88,10.03,72.874,8.944,72.874,8.944Z"/>
            <path class="cls-9" d="M106.316,6.557c.661-2.725,3.008-4.34,5.457-5.855L108.225,0c.259.634.705,1.316.138,1.563a24.644,24.644,0,0,1-4.508.556,39.948,39.948,0,0,1-4.463-1.6c-1.267.2-2.521.407-3.741.651A3.25,3.25,0,0,0,94.873,2.6a9.914,9.914,0,0,1-2.4-.4c-.1.216-6.98,3.518-7.734,6.043-.277,1.408-1.536,2.54-3.033,3.572l2.41.111,3.847.213a2.94,2.94,0,0,0-1.033-.964c.281,0,2.248.885,3.032,1.089,1.277.09,4.412.179,4.7.117.369.01-.356-.734-.341-1.458a15.6,15.6,0,0,0,4.814,2.133l1.357.1c.132.283.229.475.04.47a7.744,7.744,0,0,1-.868.163l5.332.52a16.42,16.42,0,0,1-2.792-1.025l2.925.173.12-.011A22.415,22.415,0,0,0,109.6,8.14C108.5,7.734,106.291,7.283,106.316,6.557Z"/>
            <path class="cls-10" d="M11.129,15.633c-2.156-1.2-5.4-.894-7.358-2.5C.711,10.127,1.467,6.242,0,2.549c8.821.685,17.594.735,26.369.619C24.3,4.912,20.525,4.251,18.92,7.012c.026.361.794.668,1.19,1-2.15,1.251-5.823,1.887-5.684,3.693.085,1.106.848,2.256,1.27,3.669l-.816.067C13.98,14.98,12.66,15.455,11.129,15.633Z"/>
            <path class="cls-11" d="M27.286,15.844l-6.009.659a6.623,6.623,0,0,0-.214-.982c2.354-.2,4.705-.447,7.051-.8A10.145,10.145,0,0,0,27.286,15.844Z"/>
            <path class="cls-11" d="M20.11,8.012c-.4-.332-1.164-.639-1.19-1,1.6-2.761,5.382-2.1,7.449-3.844L36.478,2.9l-1.69.964c1.865-.091,2.361,2.424,4.218,2.334-5.3,2.873-12.521,3.859-16.263,8.307-2.346.354-4.693.667-7.047.865-.422-1.413-1.185-2.563-1.27-3.669C14.287,9.9,17.96,9.263,20.11,8.012Z"/>
            <path class="cls-12" d="M39.006,6.2c-1.857.09-2.353-2.425-4.218-2.334l1.69-.964,11.675-.45c.261.036.523.066.781.084,2.985.169,5.484-.057,8.275.166C55.4,4.2,53.594,5.678,51.741,7.121A43.58,43.58,0,0,0,39.974,2.888c1.51.289,1.215,2.118,1.974,2.445,2.83,1.894,5.386,5.955,4.095,7.78-2.866.227-5.728.517-8.591.812s-5.727.578-8.59.92c-.418-.436-1.022-1.151-1.329-1.132q-2.393.444-4.79.8C26.485,10.061,33.707,9.075,39.006,6.2Z"/>
            <path class="cls-4" d="M51.741,7.121C53.594,5.678,55.4,4.2,57.209,2.7c.709.055,1.437.14,2.2.269a1.376,1.376,0,0,0-.274-.949l1.573-.058c.637.175,1.25,1.281,2.127-.082l2.218-.056a4.148,4.148,0,0,1,1.828,1.743l-.014-1.087c.74-.733,1.5-.017,2.242-.025a3.164,3.164,0,0,1,.054-.731c3.482.827,8.413-.1,9.321-.1.5.186,1.014.354,1.527.493a19.548,19.548,0,0,1-7.135,6.823s.006,1.086-.363,1.453c-.665.443-1.321.907-1.973,1.373-4.029-1.729-9.149.263-9.354.311l-1.725.09C56.2,12.1,51.111,10.362,47.385,13l-1.342.112c1.291-1.825-1.265-5.886-4.095-7.78-.756-.327-3.28-2.269-1.974-2.445C44.663,3,51.987,7.255,51.741,7.121Z"/>
            <path class="cls-13" d="M163.059,10.993l3.755,1.028c-1.392-.143-2.745-.661-3.573.095a4.868,4.868,0,0,0-1.985-.486A7.644,7.644,0,0,1,163.059,10.993Z"/>
            <path class="cls-13" d="M160.078,15.882l-1.1-.114a1.1,1.1,0,0,1,1.58-.931c.073-.72-.736-.075-.7-.436.1-.96.519-.954,1.01-.786-.17,1.616-.882,3.168-1.431,3.112l-.726-.073C159.156,16.372,159.831,16.26,160.078,15.882Z"/>
            <path class="cls-14" d="M147.871,13.453a13.761,13.761,0,0,1-2.8-2.063A28.6,28.6,0,0,0,149.023,7.2c3.292,1.022,6.528,1.881,9.838,2.817a7.65,7.65,0,0,0-1.8.64,4.891,4.891,0,0,1,1.989.486,1.727,1.727,0,0,0-.415.588l0,.021c-.492-.17-.915-.175-1.009.783-.036.363.773-.283.7.439a1.1,1.1,0,0,0-1.579.929l1.1.114c-.243.38-.918.491-1.37.774-3.183-.286-6.359-.478-9.53-.633Z"/>
          </g>
        </g>
      </g>
      <g class="cls-3">
        <g class="cls-3">
          <path class="cls-15" d="M65.38,13.149c-4.025.161-8.045.462-12.063.732l2.612-1.038C58.882,11.91,62.122,13.033,65.38,13.149Z"/>
          <path class="cls-15" d="M76.447,12.831a.08.08,0,0,0-.023.018c-3.112,0-6.216.116-9.322.229.212-.024.421-.052.632-.092C70.63,12.321,73.54,11.917,76.447,12.831Z"/>
          <path class="cls-16" d="M127.329,3.218c-3.4,3.575-7.456,6.558-11.189,9.568a16.488,16.488,0,0,1-2.684.586,19.942,19.942,0,0,1-3.061.159c-1.712.028-3.774.019-5.164-.061A22.43,22.43,0,0,0,109.6,8.14c-1.1-.406-3.311-.857-3.286-1.583.661-2.725,3.008-4.34,5.457-5.855C112.494.816,122.134,3.325,127.329,3.218Z"/>
          <path class="cls-17" d="M139.565,4.552A61.533,61.533,0,0,1,149.023,7.2a28.6,28.6,0,0,1-3.951,4.2,13.761,13.761,0,0,0,2.8,2.063l-.922.7q-8.346-.318-16.642-.276C130.728,12.92,137.8,7.316,139.565,4.552Z"/>
          <path class="cls-18" d="M129.568,4.088c1.286-.121,2.449-.253,3.555-.388a63.664,63.664,0,0,1,6.442.852,23.278,23.278,0,0,1-6.764,7.009c.37.025.623,1.076.993,1.1-1.829.557-3.052.267-3.487,1.216-5.132-.037-10.256.033-15.383-.09,1.135-.656,2.219-.238,3.32-.18a1.749,1.749,0,0,0-2.1-.821c3.733-3.01,7.788-5.993,11.189-9.568l1.085.091C128.694,3.779,128.944,4.247,129.568,4.088Z"/>
          <path class="cls-19" d="M72.874,8.944a19.548,19.548,0,0,0,7.135-6.823c.946.252,2.77.822,4.1.2,2.435.088,7.52.8,8.364-.117s-5.382,3.863-7.734,6.043c-.277,1.408-1.536,2.54-3.033,3.572-.476-.092-.069-.973-.544-1.109a8.8,8.8,0,0,1-.852,1.12l-5.2-.074c-.854-1.429-2.956-.3-3.018.008l-1.5.023-.047-.015c.652-.466,1.308-.93,1.973-1.373C72.88,10.03,72.874,8.944,72.874,8.944Z"/>
          <path class="cls-20" d="M106.316,6.557c.661-2.725,3.008-4.34,5.457-5.855L108.225,0c.259.634.705,1.316.138,1.563a24.644,24.644,0,0,1-4.508.556,39.948,39.948,0,0,1-4.463-1.6c-1.267.2-2.521.407-3.741.651A3.25,3.25,0,0,0,94.873,2.6a9.914,9.914,0,0,1-2.4-.4c-.1.216-6.98,3.518-7.734,6.043-.277,1.408-1.536,2.54-3.033,3.572l2.41.111,3.847.213a2.94,2.94,0,0,0-1.033-.964c.281,0,2.248.885,3.032,1.089,1.277.09,4.412.179,4.7.117.369.01-.356-.734-.341-1.458a15.6,15.6,0,0,0,4.814,2.133l1.357.1c.132.283.229.475.04.47a7.744,7.744,0,0,1-.868.163l5.332.52a16.42,16.42,0,0,1-2.792-1.025l2.925.173.12-.011A22.415,22.415,0,0,0,109.6,8.14C108.5,7.734,106.291,7.283,106.316,6.557Z"/>
          <path class="cls-21" d="M11.129,15.633c-2.156-1.2-5.4-.894-7.358-2.5C.711,10.127,1.467,6.242,0,2.549c8.821.685,17.594.735,26.369.619C24.3,4.912,20.525,4.251,18.92,7.012c.026.361.794.668,1.19,1-2.15,1.251-5.823,1.887-5.684,3.693.085,1.106.848,2.256,1.27,3.669l-.816.067C13.98,14.98,12.66,15.455,11.129,15.633Z"/>
          <path class="cls-22" d="M27.286,15.844l-6.009.659a6.623,6.623,0,0,0-.214-.982c2.354-.2,4.705-.447,7.051-.8A10.145,10.145,0,0,0,27.286,15.844Z"/>
          <path class="cls-22" d="M20.11,8.012c-.4-.332-1.164-.639-1.19-1,1.6-2.761,5.382-2.1,7.449-3.844L36.478,2.9l-1.69.964c1.865-.091,2.361,2.424,4.218,2.334-5.3,2.873-12.521,3.859-16.263,8.307-2.346.354-4.693.667-7.047.865-.422-1.413-1.185-2.563-1.27-3.669C14.287,9.9,17.96,9.263,20.11,8.012Z"/>
          <path class="cls-23" d="M39.006,6.2c-1.857.09-2.353-2.425-4.218-2.334l1.69-.964,11.675-.45c.261.036.523.066.781.084,2.985.169,5.484-.057,8.275.166C55.4,4.2,53.594,5.678,51.741,7.121A43.58,43.58,0,0,0,39.974,2.888c1.51.289,1.215,2.118,1.974,2.445,2.83,1.894,5.386,5.955,4.095,7.78-2.866.227-5.728.517-8.591.812s-5.727.578-8.59.92c-.418-.436-1.022-1.151-1.329-1.132q-2.393.444-4.79.8C26.485,10.061,33.707,9.075,39.006,6.2Z"/>
          <path class="cls-15" d="M51.741,7.121C53.594,5.678,55.4,4.2,57.209,2.7c.709.055,1.437.14,2.2.269a1.376,1.376,0,0,0-.274-.949l1.573-.058c.637.175,1.25,1.281,2.127-.082l2.218-.056a4.148,4.148,0,0,1,1.828,1.743l-.014-1.087c.74-.733,1.5-.017,2.242-.025a3.164,3.164,0,0,1,.054-.731c3.482.827,8.413-.1,9.321-.1.5.186,1.014.354,1.527.493a19.548,19.548,0,0,1-7.135,6.823s.006,1.086-.363,1.453c-.665.443-1.321.907-1.973,1.373-4.029-1.729-9.149.263-9.354.311l-1.725.09C56.2,12.1,51.111,10.362,47.385,13l-1.342.112c1.291-1.825-1.265-5.886-4.095-7.78-.756-.327-3.28-2.269-1.974-2.445C44.663,3,51.987,7.255,51.741,7.121Z"/>
          <path class="cls-24" d="M163.059,10.993l3.755,1.028c-1.392-.143-2.745-.661-3.573.095a4.868,4.868,0,0,0-1.985-.486A7.644,7.644,0,0,1,163.059,10.993Z"/>
          <path class="cls-24" d="M160.078,15.882l-1.1-.114a1.1,1.1,0,0,1,1.58-.931c.073-.72-.736-.075-.7-.436.1-.96.519-.954,1.01-.786-.17,1.616-.882,3.168-1.431,3.112l-.726-.073C159.156,16.372,159.831,16.26,160.078,15.882Z"/>
          <path class="cls-25" d="M147.871,13.453a13.761,13.761,0,0,1-2.8-2.063A28.6,28.6,0,0,0,149.023,7.2c3.292,1.022,6.528,1.881,9.838,2.817a7.65,7.65,0,0,0-1.8.64,4.891,4.891,0,0,1,1.989.486,1.727,1.727,0,0,0-.415.588l0,.021c-.492-.17-.915-.175-1.009.783-.036.363.773-.283.7.439a1.1,1.1,0,0,0-1.579.929l1.1.114c-.243.38-.918.491-1.37.774-3.183-.286-6.359-.478-9.53-.633Z"/>
        </g>
      </g>
    </g>
  </g>
</svg>
