<svg id="Layer_21" data-name="Layer 21" xmlns="http://www.w3.org/2000/svg" viewBox="0 0 330 360">
  <defs>
    <style>
      .cls-1, .cls-4, .cls-5 {
        fill: none;
      }

      .cls-2 {
        fill: #a6ae9a;
      }

      .cls-3 {
        fill: #fff;
      }

      .cls-4, .cls-5 {
        stroke: #a6ae9a;
      }

      .cls-4 {
        stroke-linecap: round;
        stroke-linejoin: round;
        stroke-width: 3px;
      }

      .cls-5 {
        stroke-miterlimit: 10;
      }
    </style>
  </defs>
  <g>
    <rect class="cls-1" width="330" height="360"/>
    <g>
      <g>
        <path class="cls-2" d="M349.614,309.434v.03l-.15,1.44-.04.4.68-.32,2.46-1.17.04-.02Zm-2.62-.29-2.44,1.16-2.59,1.23,5.57.67.09-.04.15-1.46.15-1.45.01-.02-.9-.11Zm18.18-4.6-.54-.07-5.07,2.42.53.06,5.04.61,5.07-2.41Zm17.45,3.24a1.6,1.6,0,0,0-1.42-1.31l-2.37-.29-.2,1.47c0,.01,0,.01-.01.02a2.732,2.732,0,0,1-1.2.89l-18.99,9.07c-1.34.66-2.69,1.33-4.04,1.99a2.578,2.578,0,0,1-1.5.25l-19.89-2.4-2.61-.32a3.727,3.727,0,0,0-.3.26,1.647,1.647,0,0,0-.54,1.48,1.616,1.616,0,0,0,1.43,1.32l21.76,2.62a1.7,1.7,0,0,0,.23.01,7.694,7.694,0,0,0,2.74-.8l25.06-11.93C381.444,309.794,382.844,309.124,382.624,307.784Z"/>
        <path class="cls-3" d="M331.054,308.674l7.65.92-.16,1.53-7.56-.91a1.8,1.8,0,0,1-.95-.45.927.927,0,0,1-.14-.14l-.04-.05.03-.24a.792.792,0,0,1,.89-.69l.15.02Z"/>
        <path class="cls-4" d="M331.038,308.544a7.1,7.1,0,0,0-1.963,3.485,7.9,7.9,0,0,0,1.91,6.612"/>
        <path class="cls-2" d="M354.414,309.344a6.559,6.559,0,0,1-1.33.49.41.41,0,0,1-.11.01l-.37-.05-.04.02-2.46,1.17,2.93.36,1.68.2-.05.39c.69-.23,1.37-.47,2.05-.7a2.659,2.659,0,0,0,1.79-2.17l.19-1.44.05-.34Zm0,0a6.559,6.559,0,0,1-1.33.49.41.41,0,0,1-.11.01l-.37-.05-.04.02-2.46,1.17,2.93.36,1.68.2-.05.39c.69-.23,1.37-.47,2.05-.7a2.659,2.659,0,0,0,1.79-2.17l.19-1.44.05-.34Zm0,0a6.559,6.559,0,0,1-1.33.49.41.41,0,0,1-.11.01l-.37-.05-.04.02-2.46,1.17,2.93.36,1.68.2-.05.39c.69-.23,1.37-.47,2.05-.7a2.659,2.659,0,0,0,1.79-2.17l.19-1.44.05-.34Zm0,0a6.559,6.559,0,0,1-1.33.49,8.089,8.089,0,0,0,2.63-.79l2.98-1.42.05-.34Zm-1.81.45-.04.02.18.02a1.7,1.7,0,0,0,.23.01Zm6.83-15.95a1.148,1.148,0,0,0-.18.01l-.07-.01a.371.371,0,0,0-.09.02,1.431,1.431,0,0,0-.29.01,9.139,9.139,0,0,0-2.33.76l-6.9,3.29-2.56,1.22.52.06,5.04.61,2.11-1.01,3.07-1.46c.11-.05.21-.1.31-.14a6.515,6.515,0,0,1,1.12-.37l.94.11,5.01-2.38.05-.03Zm-20.27,11.37-3.92-.47-3.84,1.83a5.523,5.523,0,0,0-.89.51,1.94,1.94,0,0,0-.94,1.21l-.14.77.42.51.04.05a.927.927,0,0,0,.14.14,1.8,1.8,0,0,0,.95.45l7.56.91.16-1.53.15-1.43v-.02l-3.01-.36,3.21-1.53Zm43.46-7.42a1.567,1.567,0,0,0-.95-1.19,1.42,1.42,0,0,0-.47-.13l-4.54-.55-5.04,2.41,1.49.18,3.22.39-11.7,5.57-5.07,2.42-.82.39-4.33,2.06a6.559,6.559,0,0,1-1.33.49.41.41,0,0,1-.11.01l-.37-.05-2.99-.36v.03l-.15,1.44-.04.4-.12,1.11,3.43.42.18.01h.19a7.927,7.927,0,0,0,2.61-.8l9.42-4.48,5.07-2.41,9.37-4.47.89-.42.31-.15C381.444,299.794,382.844,299.124,382.624,297.794Zm-42.08,10.55-.01.02-.15,1.44-.16,1.52,1.74.21,5.57.67.08.01.01-.05.15-1.46.15-1.45.01-.02-.9-.11Zm13.87,1a6.559,6.559,0,0,1-1.33.49.41.41,0,0,1-.11.01l-.37-.05-.04.02-2.46,1.17,2.93.36,1.68.2-.05.39c.69-.23,1.37-.47,2.05-.7a2.659,2.659,0,0,0,1.79-2.17l.19-1.44.05-.34Zm0,0a6.559,6.559,0,0,1-1.33.49.41.41,0,0,1-.11.01l-.37-.05-.04.02-2.46,1.17,2.93.36,1.68.2-.05.39c.69-.23,1.37-.47,2.05-.7a2.659,2.659,0,0,0,1.79-2.17l.19-1.44.05-.34Zm0,0a6.559,6.559,0,0,1-1.33.49.41.41,0,0,1-.11.01l-.37-.05-.04.02-2.46,1.17,2.93.36,1.68.2-.05.39c.69-.23,1.37-.47,2.05-.7a2.659,2.659,0,0,0,1.79-2.17l.19-1.44.05-.34Zm0,0a6.559,6.559,0,0,1-1.33.49.41.41,0,0,1-.11.01l-.37-.05-.04.02-2.46,1.17,2.93.36,1.68.2-.05.39c.69-.23,1.37-.47,2.05-.7a2.659,2.659,0,0,0,1.79-2.17l.19-1.44.05-.34Z"/>
      </g>
      <g>
        <path class="cls-2" d="M335.244,304.744l-2.24-.27-2.61-.32c-.1.08-.2.16-.3.25a1.64,1.64,0,0,0-.54,1.49,1.579,1.579,0,0,0,.96,1.19,1.491,1.491,0,0,0,.47.13l7.87.95v-.02l.2-1.89.11-1.04Zm47.38-9.96a1.6,1.6,0,0,0-1.42-1.31l-2.37-.29-.2,1.47c0,.01,0,.01-.01.02a2.732,2.732,0,0,1-1.2.89l-.76.36-5.04,2.41-13.19,6.3c-1.34.66-2.69,1.33-4.04,1.99a2.578,2.578,0,0,1-1.5.25l-2.97-.36-.31,2.92v.03l2.95.35.18.02a1.7,1.7,0,0,0,.23.01.41.41,0,0,0,.11-.01,8.089,8.089,0,0,0,2.63-.79l2.98-1.42,1.4-.67,5.08-2.41,14.22-6.78h.01l1.37-.65a6.3,6.3,0,0,0,.9-.51A1.816,1.816,0,0,0,382.624,294.784Zm-42.08,13.56-.01.02,6.46.78.93.11.01-.02.3-2.92-7.38-.9Zm20.89-17.25-1.99-.24a7.036,7.036,0,0,0-2.98.78l-11.91,5.67-2.59,1.23,5.05.61.52.06,2.57-1.22,7.65-3.64a8.172,8.172,0,0,1,1.04-.41,1.556,1.556,0,0,1,.3-.07.86.86,0,0,1,.16-.01l5.88.71.05-.03,5.02-2.38Z"/>
        <path class="cls-3" d="M329.164,302.244a8.381,8.381,0,0,0,.75,1.85l-.17-.02a.8.8,0,0,1-.69-.89Z"/>
        <path class="cls-3" d="M379.954,284.834l-.14,1.08-.24,1.77-9.37,4.47-5.02,2.38-.05.03-5.01,2.38-4.41,2.1a7.927,7.927,0,0,1-2.61.8h-.19l-.18-.01-.16-.02-5.04-.61-.52-.06-5.05-.61-10.98-1.32a1.8,1.8,0,0,1-.95-.45c-.08.13-.17.27-.25.42l.07-.61.03-.24a.792.792,0,0,1,.89-.69l.15.02.13.01,13.5,1.63,2.77.34,2.25.28.53.06,2.93.36,1.68.2-.03.26-.02.13c.69-.23,1.37-.47,2.05-.7a2.626,2.626,0,0,0,1.35-1.03,2.522,2.522,0,0,0,.44-1.14l.29-2.13.01-.06.17-1.28a.512.512,0,0,1,.2-.26,4.56,4.56,0,0,1,1-.64l1.26-.6,13.5-6.45a2.761,2.761,0,0,1,1.47-.24Z"/>
        <path class="cls-4" d="M330.984,305.644a9.4,9.4,0,0,1-.89-1.24c-.06-.1-.12-.2-.18-.31a8.381,8.381,0,0,1-.75-1.85v-.01a6.576,6.576,0,0,1,.62-5.04v-.01c.08-.15.17-.29.25-.42a6.648,6.648,0,0,1,.89-1.1,1.2,1.2,0,0,1,.11-.12"/>
        <path class="cls-2" d="M380.774,287.114l-.31.15-.89.42-9.37,4.47-5.02,2.38-.05.03-5.01,2.38-4.41,2.1a7.927,7.927,0,0,1-2.61.8h-.19l-.18-.01-.16-.02-5.04-.61-.52-.06-5.05-.61-10.98-1.32a1.8,1.8,0,0,1-.95-.45.927.927,0,0,1-.14-.14l-.04-.05-.42-.51.14-.77c.15-.67.68-1.17,1.83-1.72l25.07-11.94a7.112,7.112,0,0,1,2.96-.79l21.77,2.63a1.615,1.615,0,0,1,1.42,1.32C382.844,286.124,381.444,286.794,380.774,287.114Z"/>
      </g>
      <g>
        <rect class="cls-2" x="278.247" y="227.053" width="4.725" height="42.594" transform="translate(222.166 618.491) rotate(-122.537)"/>
        <rect class="cls-5" x="297.969" y="233.836" width="4.544" height="3.979" rx="0.156" transform="translate(262.915 615.78) rotate(-122.537)"/>
        <rect class="cls-2" x="300.87" y="231.906" width="4.707" height="4.034" rx="1.02" transform="translate(269.106 615.368) rotate(-122.537)"/>
        <polygon class="cls-2" points="261.381 257.814 255.021 264.672 263.925 261.802 263.371 260.934 258.368 262.536 261.935 258.683 261.381 257.814 261.381 257.814"/>
        <g>
          <path class="cls-2" d="M263.443,260.515l.555.87c-.438.28-.919.314-1.07.076S263.005,260.8,263.443,260.515Z"/>
          <path class="cls-2" d="M262.892,259.651l.551.864c-.438.28-.919.313-1.071.076S262.454,259.931,262.892,259.651Z"/>
          <path class="cls-2" d="M262.341,258.788l.551.863c-.438.28-.919.314-1.071.076S261.9,259.067,262.341,258.788Z"/>
          <path class="cls-2" d="M261.79,257.924l.551.864c-.438.279-.919.313-1.071.075S261.351,258.2,261.79,257.924Z"/>
        </g>
      </g>
      <path class="cls-2" d="M233.145,275.08a3.733,3.733,0,0,0,3.646-1.148,8.621,8.621,0,0,0,2.176-3.293,5.609,5.609,0,0,0,.384-1.867,2.066,2.066,0,0,0-.662-1.528,1.8,1.8,0,0,0-1.414-.638.947.947,0,0,0-.833.929c-.021.425.352.744.948.945a7.22,7.22,0,0,0,1.9.308,25.656,25.656,0,0,0,4.043-.154,38.432,38.432,0,0,0,7.984-1.822l-.007.07-.439-.333.483.267a.037.037,0,0,1,.014.051.035.035,0,0,1-.016.016l0,0a28.679,28.679,0,0,1-7.907,2.538,22.659,22.659,0,0,1-4.194.322,8.134,8.134,0,0,1-2.168-.336,2.875,2.875,0,0,1-1.081-.6,1.707,1.707,0,0,1-.551-1.284,1.855,1.855,0,0,1,.506-1.269,2.016,2.016,0,0,1,1.193-.614,2.663,2.663,0,0,1,2.229.962,2.972,2.972,0,0,1,.846,2.189,5.764,5.764,0,0,1-.55,2.132A9.068,9.068,0,0,1,237.1,274.3,3.838,3.838,0,0,1,233.145,275.08Z"/>
    </g>
    <g>
      <g>
        <rect class="cls-2" x="113.247" y="317.053" width="4.725" height="42.594" transform="translate(-107.453 617.796) rotate(-122.537)"/>
        <rect class="cls-5" x="132.969" y="323.836" width="4.544" height="3.979" rx="0.156" transform="translate(-66.704 615.085) rotate(-122.537)"/>
        <rect class="cls-2" x="135.87" y="321.906" width="4.707" height="4.034" rx="1.02" transform="translate(-60.513 614.673) rotate(-122.537)"/>
        <polygon class="cls-2" points="96.381 347.814 90.021 354.672 98.925 351.802 98.371 350.934 93.368 352.536 96.935 348.683 96.381 347.814 96.381 347.814"/>
        <g>
          <path class="cls-2" d="M98.443,350.515l.555.87c-.438.28-.919.314-1.07.076S98.005,350.8,98.443,350.515Z"/>
          <path class="cls-2" d="M97.892,349.651l.551.864c-.438.28-.919.313-1.071.076S97.454,349.931,97.892,349.651Z"/>
          <path class="cls-2" d="M97.341,348.788l.551.863c-.438.28-.919.314-1.071.076S96.9,349.067,97.341,348.788Z"/>
          <path class="cls-2" d="M96.79,347.924l.551.864c-.438.279-.919.313-1.071.075S96.351,348.2,96.79,347.924Z"/>
        </g>
      </g>
      <path class="cls-2" d="M68.145,365.08a3.733,3.733,0,0,0,3.646-1.148,8.621,8.621,0,0,0,2.176-3.293,5.609,5.609,0,0,0,.384-1.867,2.066,2.066,0,0,0-.662-1.528,1.8,1.8,0,0,0-1.414-.638.947.947,0,0,0-.833.929c-.021.425.352.744.948.945a7.22,7.22,0,0,0,1.9.308,25.656,25.656,0,0,0,4.043-.154,38.432,38.432,0,0,0,7.984-1.822l-.007.07-.439-.333.483.267a.037.037,0,0,1,.014.051.035.035,0,0,1-.016.016l0,0a28.679,28.679,0,0,1-7.907,2.538,22.659,22.659,0,0,1-4.194.322,8.134,8.134,0,0,1-2.168-.336,2.875,2.875,0,0,1-1.081-.6,1.707,1.707,0,0,1-.551-1.284,1.855,1.855,0,0,1,.506-1.269,2.016,2.016,0,0,1,1.193-.614,2.663,2.663,0,0,1,2.229.962,2.972,2.972,0,0,1,.846,2.189,5.764,5.764,0,0,1-.55,2.132A9.068,9.068,0,0,1,72.1,364.3,3.838,3.838,0,0,1,68.145,365.08Z"/>
      <g>
        <path class="cls-2" d="M199.326,282.633q-.675.435-1.471.916c.586.03,1.166.065,1.751.105.521-.325.981-.626,1.4-.9C200.442,282.708,199.886,282.668,199.326,282.633Zm-16.73.09q.623.42,1.4.906c.59-.035,1.176-.07,1.766-.1q-.8-.48-1.486-.916C183.717,282.643,183.157,282.683,182.6,282.723Zm28.312,4.433a9.1,9.1,0,0,0-4.363-3.462,10.853,10.853,0,0,0-1.16-.38c.03.08.055.16.08.24,0,.015.11.35.24.9a8.29,8.29,0,0,1,1.131.461,7.926,7.926,0,0,1,3.232,2.786,6.946,6.946,0,0,1,.78,6,121.091,121.091,0,0,0-4.6,28.117,2.671,2.671,0,0,1-1.786,2.551,79.882,79.882,0,0,1-25.69,0,2.671,2.671,0,0,1-1.786-2.551,121.037,121.037,0,0,0-4.608-28.132,6.936,6.936,0,0,1,.786-5.989,8.045,8.045,0,0,1,3.677-2.992,8.513,8.513,0,0,1,1.14-.395c.116-.465.2-.745.206-.76.04-.12.075-.235.12-.355a9.657,9.657,0,0,0-1.146.325,9.172,9.172,0,0,0-4.838,3.632,7.892,7.892,0,0,0-.9,6.824,120.212,120.212,0,0,1,4.562,27.887,3.621,3.621,0,0,0,2.627,3.5,81.063,81.063,0,0,0,26.01,0,3.619,3.619,0,0,0,2.622-3.5A120.4,120.4,0,0,1,211.8,294,7.92,7.92,0,0,0,210.908,287.156Z"/>
        <g>
          <path class="cls-2" d="M180.1,279.316a.367.367,0,0,1,.04-.17q-.322.548-.6,1.111a15.285,15.285,0,0,0,3.057,2.466c.561-.04,1.121-.08,1.681-.11C181.521,280.867,180.17,279.732,180.1,279.316Zm0,0a.367.367,0,0,1,.04-.17q-.322.548-.6,1.111a15.285,15.285,0,0,0,3.057,2.466c.561-.04,1.121-.08,1.681-.11C181.521,280.867,180.17,279.732,180.1,279.316Zm24.284-.655c-.04-.065-.08-.135-.125-.2a.172.172,0,0,0-.045-.06c-1.386-1.841-6.919-2.8-12.392-2.8-5.554,0-11.162.986-12.453,2.877a1.677,1.677,0,0,0-.1.18,1.384,1.384,0,0,0-.165.655c0,.155,0,.421.44.941a15.285,15.285,0,0,0,3.057,2.466q.623.42,1.4.906c1.421.895,3.257,1.971,5.618,3.272l.541.3c.095.05.195.1.295.16a2.836,2.836,0,0,0,1.191.345c.06,0,.12,0,.18,0s.13,0,.19,0h0a2.854,2.854,0,0,0,1.176-.345l.3-.165c.18-.1.36-.195.535-.29,2.341-1.291,4.162-2.357,5.578-3.247.521-.325.981-.626,1.4-.9a15.689,15.689,0,0,0,3.112-2.506c.43-.515.43-.776.43-.931A1.44,1.44,0,0,0,204.384,278.661Zm-.84.645c-.08.426-1.441,1.571-4.218,3.327q-.675.435-1.471.916-2.146,1.3-5.143,2.932a1.875,1.875,0,0,1-1.781,0q-3.017-1.644-5.168-2.952-.8-.48-1.486-.916c-2.756-1.746-4.107-2.881-4.177-3.3a.367.367,0,0,1,.04-.17.51.51,0,0,1,.08-.155,0,0,0,0,0,0,0c.765-1.066,5.123-2.381,11.6-2.381,6.539,0,10.921,1.345,11.622,2.416.02.03.035.065.055.095A.527.527,0,0,1,203.544,279.306Zm-19.267,3.307c-2.756-1.746-4.107-2.881-4.177-3.3a.367.367,0,0,1,.04-.17q-.322.548-.6,1.111a15.285,15.285,0,0,0,3.057,2.466q.623.42,1.4.906c.59-.035,1.176-.07,1.766-.1Q184.961,283.049,184.277,282.613Z"/>
          <path class="cls-2" d="M191.827,287.611a.388.388,0,0,1-.11.06l-.075.03-1.061.4c-1.371.521-2.772,1.051-4.148,1.646-.655.281-1.305.576-1.941.891-.915.455-1.816.976-2.681,1.486-.7.4-1.426.83-2.157,1.216l-.13.07a3.131,3.131,0,0,1-1.39.49.943.943,0,0,1-.706-.285.837.837,0,0,1-.16-.23c-1.376-2.632-.92-6.494-.43-8.676.11-.49.225-.895.32-1.185a2.3,2.3,0,0,1,.09-.265l-.015,0a22.874,22.874,0,0,1,2.031-4.593c.025-.05.05-.1.08-.145a.212.212,0,0,1,.025-.035.5.5,0,0,1,.661-.14.49.49,0,0,1,.195.645,0,0,0,0,1,0,0,.071.071,0,0,1-.01.03c-.025.04-.05.085-.07.125q-.322.548-.6,1.111A21.144,21.144,0,0,0,178.3,283.2c-.045.12-.08.235-.12.355,0,.015-.09.3-.206.76-.425,1.706-1.24,5.894.176,8.6a2.743,2.743,0,0,0,.885-.385l.145-.08c.716-.375,1.431-.79,2.121-1.2.881-.515,1.8-1.05,2.742-1.516.58-.29,1.171-.56,1.766-.82,1.441-.63,2.907-1.186,4.343-1.726l.075-.03.59-.225.535-.2a.5.5,0,0,1,.471.055.53.53,0,0,1,.14.16.305.305,0,0,1,.035.07A.5.5,0,0,1,191.827,287.611Z"/>
          <path class="cls-2" d="M206.385,293.385a.876.876,0,0,1-.16.23.946.946,0,0,1-.71.285,3.136,3.136,0,0,1-1.386-.49l-.13-.07c-.73-.386-1.456-.811-2.151-1.216-.871-.51-1.771-1.031-2.687-1.486-.635-.315-1.286-.61-1.941-.9-1.376-.59-2.777-1.12-4.148-1.641l-1.055-.4h0l-.075-.03a.388.388,0,0,1-.11-.06.5.5,0,0,1-.18-.585.305.305,0,0,1,.035-.07.447.447,0,0,1,.145-.16.52.52,0,0,1,.47-.055l.53.2h0l.591.225a.392.392,0,0,0,.07.025c1.436.545,2.9,1.1,4.342,1.731.6.26,1.186.53,1.771.82.946.466,1.861,1,2.742,1.516.69.406,1.406.821,2.116,1.2l.15.08a2.122,2.122,0,0,0,.9.365c1.356-2.641.625-6.664.2-8.445-.13-.55-.235-.885-.24-.9-.025-.08-.05-.16-.08-.24a21.987,21.987,0,0,0-1.271-3.067c-.195-.385-.4-.761-.615-1.131-.02-.03-.035-.065-.055-.095a.5.5,0,0,1,.18-.68.5.5,0,0,1,.59.06.172.172,0,0,1,.045.06.156.156,0,0,1,.045.055c.03.05.055.095.08.145a22.838,22.838,0,0,1,2.036,4.593c.01.035.06.19.125.44.081.29.186.71.291,1.221C207.286,287.041,207.761,290.758,206.385,293.385Z"/>
        </g>
      </g>
      <g>
        <path class="cls-2" d="M197.833,288.92c-.205.28-.41.55-.615.82-1.3,1.711-2.552,3.307-3.547,4.908a.755.755,0,0,1-.726.32,18.617,18.617,0,0,0-2.241,0,.749.749,0,0,1-.725-.32c-1-1.6-2.252-3.192-3.547-4.9-.206-.27-.416-.545-.621-.825,1.441-.631,2.907-1.186,4.343-1.726l-.541-.3c.406.02.806.035,1.206.04.285.01.575.015.861.015h.285c.29,0,.57,0,.86-.015h.005c.4,0,.8-.02,1.2-.04-.175.1-.355.19-.535.29C194.927,287.734,196.392,288.289,197.833,288.92Z"/>
        <polygon class="cls-2" points="196.13 315.729 191.82 320.379 187.51 315.729 190.411 294.779 193.24 294.779 196.13 315.729"/>
      </g>
      <path class="cls-2" d="M289,359.267l-14.66,6.431a3.322,3.322,0,0,1-4.206-1.976l-15.782-27.135a3.712,3.712,0,0,1,2.134-4.778l19.673-8.629a3.713,3.713,0,0,1,4.96,1.665l.027.072,9.249,29.918A3.322,3.322,0,0,1,289,359.267ZM255.579,336.01l15.779,27.132a2.019,2.019,0,0,0,2.439,1.316l14.66-6.43a2.018,2.018,0,0,0,.683-2.686l-.026-.073-9.249-29.912a2.372,2.372,0,0,0-3.162-.938l-19.672,8.63A2.371,2.371,0,0,0,255.579,336.01Z"/>
      <path class="cls-2" d="M257.923,342.551l9.472,14.824,20.037-8.79-4.5-17Zm17.824,6.628a4.335,4.335,0,1,1,2.225-5.7A4.333,4.333,0,0,1,275.747,349.179Z"/>
      <g>
        <rect class="cls-2" x="250.132" y="325.632" width="32.927" height="4.964" rx="1.248" transform="translate(-109.349 134.73) rotate(-23.685)"/>
        <path class="cls-2" d="M279.065,321.75l-25.6,11.228a.653.653,0,0,1-.869-.305l0-4.087a.6.6,0,0,1,.307-.787l22.734-9.972a.6.6,0,0,1,.787.307l3,2.77A.653.653,0,0,1,279.065,321.75Z"/>
        <ellipse class="cls-2" cx="264.371" cy="323.043" rx="12.862" ry="1.096" transform="translate(-107.5 133.409) rotate(-23.685)"/>
      </g>
    </g>
    <g>
      <g>
        <path class="cls-2" d="M19.614,309.434v.03l-.15,1.44-.04.4.68-.32,2.46-1.17.04-.02Zm-2.62-.29-2.44,1.16-2.59,1.23,5.57.67.09-.04.15-1.46.15-1.45.01-.02-.9-.11Zm18.18-4.6-.54-.07-5.07,2.42.53.06,5.04.61,5.07-2.41Zm17.45,3.24a1.6,1.6,0,0,0-1.42-1.31l-2.37-.29-.2,1.47c0,.01,0,.01-.01.02a2.732,2.732,0,0,1-1.2.89l-18.99,9.07c-1.34.66-2.69,1.33-4.04,1.99a2.578,2.578,0,0,1-1.5.25L3,317.474l-2.61-.32a3.727,3.727,0,0,0-.3.26,1.647,1.647,0,0,0-.54,1.48,1.616,1.616,0,0,0,1.43,1.32l21.76,2.62a1.7,1.7,0,0,0,.23.01,7.694,7.694,0,0,0,2.74-.8l25.06-11.93C51.444,309.794,52.844,309.124,52.624,307.784Z"/>
        <path class="cls-3" d="M1.054,308.674l7.65.92-.16,1.53-7.56-.91a1.8,1.8,0,0,1-.95-.45.927.927,0,0,1-.14-.14l-.04-.05.03-.24a.792.792,0,0,1,.89-.69l.15.02Z"/>
        <polygon class="cls-3" points="17.324 310.644 17.774 310.704 17.624 312.164 17.614 312.214 17.534 312.204 11.964 311.534 10.224 311.324 10.384 309.804 14.554 310.304 17.324 310.644"/>
        <path class="cls-3" d="M49.954,297.834l-.14,1.08-.24,1.77-9.37,4.47-5.07,2.41-9.42,4.48a7.927,7.927,0,0,1-2.61.8h-.19l-.18-.01-3.43-.42.12-1.11.04-.4.64.08,2.93.36,1.68.2-.05.39c.69-.23,1.37-.47,2.05-.7a2.659,2.659,0,0,0,1.79-2.17l.19-1.44.05-.34.05-.35a2.481,2.481,0,0,1,.39-.09l.38.05,5.07-2.42,11.7-5.57-3.22-.39,1.82-.87a2.761,2.761,0,0,1,1.47-.24l2.99.36h.01Z"/>
        <path class="cls-4" d="M1.038,308.544a7.1,7.1,0,0,0-1.963,3.485,7.9,7.9,0,0,0,1.91,6.612"/>
        <path class="cls-2" d="M24.414,309.344a6.559,6.559,0,0,1-1.33.49.41.41,0,0,1-.11.01l-.37-.05-.04.02-2.46,1.17,2.93.36,1.68.2-.05.39c.69-.23,1.37-.47,2.05-.7a2.659,2.659,0,0,0,1.79-2.17l.19-1.44.05-.34Zm0,0a6.559,6.559,0,0,1-1.33.49.41.41,0,0,1-.11.01l-.37-.05-.04.02-2.46,1.17,2.93.36,1.68.2-.05.39c.69-.23,1.37-.47,2.05-.7a2.659,2.659,0,0,0,1.79-2.17l.19-1.44.05-.34Zm0,0a6.559,6.559,0,0,1-1.33.49.41.41,0,0,1-.11.01l-.37-.05-.04.02-2.46,1.17,2.93.36,1.68.2-.05.39c.69-.23,1.37-.47,2.05-.7a2.659,2.659,0,0,0,1.79-2.17l.19-1.44.05-.34Zm0,0a6.559,6.559,0,0,1-1.33.49,8.089,8.089,0,0,0,2.63-.79l2.98-1.42.05-.34Zm-1.81.45-.04.02.18.02a1.7,1.7,0,0,0,.23.01Zm6.83-15.95a1.148,1.148,0,0,0-.18.01l-.07-.01a.371.371,0,0,0-.09.02,1.431,1.431,0,0,0-.29.01,9.139,9.139,0,0,0-2.33.76l-6.9,3.29-2.56,1.22.52.06,5.04.61,2.11-1.01,3.07-1.46c.11-.05.21-.1.31-.14a6.515,6.515,0,0,1,1.12-.37l.94.11,5.01-2.38.05-.03Zm-20.27,11.37-3.92-.47-3.84,1.83a5.523,5.523,0,0,0-.89.51,1.94,1.94,0,0,0-.94,1.21l-.14.77.42.51.04.05a.927.927,0,0,0,.14.14,1.8,1.8,0,0,0,.95.45l7.56.91.16-1.53.15-1.43v-.02l-3.01-.36,3.21-1.53Zm43.46-7.42a1.567,1.567,0,0,0-.95-1.19,1.42,1.42,0,0,0-.47-.13l-4.54-.55-5.04,2.41,1.49.18,3.22.39-11.7,5.57-5.07,2.42-.82.39-4.33,2.06a6.559,6.559,0,0,1-1.33.49.41.41,0,0,1-.11.01l-.37-.05-2.99-.36v.03l-.15,1.44-.04.4-.12,1.11,3.43.42.18.01h.19a7.927,7.927,0,0,0,2.61-.8l9.42-4.48,5.07-2.41,9.37-4.47.89-.42.31-.15C51.444,299.794,52.844,299.124,52.624,297.794Zm-42.08,10.55-.01.02-.15,1.44-.16,1.52,1.74.21,5.57.67.08.01.01-.05.15-1.46.15-1.45.01-.02-.9-.11Zm13.87,1a6.559,6.559,0,0,1-1.33.49.41.41,0,0,1-.11.01l-.37-.05-.04.02-2.46,1.17,2.93.36,1.68.2-.05.39c.69-.23,1.37-.47,2.05-.7a2.659,2.659,0,0,0,1.79-2.17l.19-1.44.05-.34Zm0,0a6.559,6.559,0,0,1-1.33.49.41.41,0,0,1-.11.01l-.37-.05-.04.02-2.46,1.17,2.93.36,1.68.2-.05.39c.69-.23,1.37-.47,2.05-.7a2.659,2.659,0,0,0,1.79-2.17l.19-1.44.05-.34Zm0,0a6.559,6.559,0,0,1-1.33.49.41.41,0,0,1-.11.01l-.37-.05-.04.02-2.46,1.17,2.93.36,1.68.2-.05.39c.69-.23,1.37-.47,2.05-.7a2.659,2.659,0,0,0,1.79-2.17l.19-1.44.05-.34Zm0,0a6.559,6.559,0,0,1-1.33.49.41.41,0,0,1-.11.01l-.37-.05-.04.02-2.46,1.17,2.93.36,1.68.2-.05.39c.69-.23,1.37-.47,2.05-.7a2.659,2.659,0,0,0,1.79-2.17l.19-1.44.05-.34Z"/>
      </g>
      <g>
        <path class="cls-2" d="M5.244,304.744,3,304.474l-2.61-.32c-.1.08-.2.16-.3.25a1.64,1.64,0,0,0-.54,1.49,1.579,1.579,0,0,0,.96,1.19,1.491,1.491,0,0,0,.47.13l7.87.95v-.02l.2-1.89.11-1.04Zm47.38-9.96a1.6,1.6,0,0,0-1.42-1.31l-2.37-.29-.2,1.47c0,.01,0,.01-.01.02a2.732,2.732,0,0,1-1.2.89l-.76.36-5.04,2.41-13.19,6.3c-1.34.66-2.69,1.33-4.04,1.99a2.578,2.578,0,0,1-1.5.25l-2.97-.36-.31,2.92v.03l2.95.35.18.02a1.7,1.7,0,0,0,.23.01.41.41,0,0,0,.11-.01,8.089,8.089,0,0,0,2.63-.79l2.98-1.42,1.4-.67,5.08-2.41,14.22-6.78h.01l1.37-.65a6.3,6.3,0,0,0,.9-.51A1.816,1.816,0,0,0,52.624,294.784Zm-42.08,13.56-.01.02,6.46.78.93.11.01-.02.3-2.92-7.38-.9Zm20.89-17.25-1.99-.24a7.036,7.036,0,0,0-2.98.78l-11.91,5.67-2.59,1.23,5.05.61.52.06,2.57-1.22,7.65-3.64a8.172,8.172,0,0,1,1.04-.41,1.556,1.556,0,0,1,.3-.07.86.86,0,0,1,.16-.01l5.88.71.05-.03,5.02-2.38Z"/>
        <path class="cls-3" d="M49.954,284.834l-.14,1.08-.24,1.77-9.37,4.47-5.02,2.38-.05.03-5.01,2.38-4.41,2.1a7.927,7.927,0,0,1-2.61.8h-.19l-.18-.01-.16-.02-5.04-.61-.52-.06-5.05-.61-10.98-1.32a1.8,1.8,0,0,1-.95-.45c-.08.13-.17.27-.25.42l.07-.61.03-.24a.792.792,0,0,1,.89-.69l.15.02.13.01,13.5,1.63,2.77.34,2.25.28.53.06,2.93.36,1.68.2-.03.26-.02.13c.69-.23,1.37-.47,2.05-.7a2.626,2.626,0,0,0,1.35-1.03,2.522,2.522,0,0,0,.44-1.14l.29-2.13.01-.06.17-1.28a.512.512,0,0,1,.2-.26,4.56,4.56,0,0,1,1-.64l1.26-.6,13.5-6.45a2.761,2.761,0,0,1,1.47-.24Z"/>
        <path class="cls-4" d="M.984,305.644a9.4,9.4,0,0,1-.89-1.24c-.06-.1-.12-.2-.18-.31a8.381,8.381,0,0,1-.75-1.85v-.01a6.576,6.576,0,0,1,.62-5.04v-.01c.08-.15.17-.29.25-.42a6.648,6.648,0,0,1,.89-1.1,1.2,1.2,0,0,1,.11-.12"/>
        <path class="cls-2" d="M50.774,287.114l-.31.15-.89.42-9.37,4.47-5.02,2.38-.05.03-5.01,2.38-4.41,2.1a7.927,7.927,0,0,1-2.61.8h-.19l-.18-.01-.16-.02-5.04-.61-.52-.06-5.05-.61-10.98-1.32a1.8,1.8,0,0,1-.95-.45.927.927,0,0,1-.14-.14l-.04-.05-.42-.51.14-.77c.15-.67.68-1.17,1.83-1.72l25.07-11.94a7.112,7.112,0,0,1,2.96-.79l21.77,2.63a1.615,1.615,0,0,1,1.42,1.32C52.844,286.124,51.444,286.794,50.774,287.114Z"/>
      </g>
      <g>
        <path class="cls-2" d="M18.454,304.264l-.22,2.05-.3,2.92-.01.02-.15,1.45-.15,1.46-.01.05-.4,3.8c-.01.16-.27.21-.4.09l-2.89-2.79a.289.289,0,0,0-.32-.03l-3.41,2.12c-.16.1-.39-.01-.38-.17l.41-3.91.16-1.52.15-1.44.01-.02.31-2.93.2-1.93,7.38.78Z"/>
        <polygon class="cls-2" points="20.334 302.734 18.794 303.974 18.784 303.974 18.434 304.264 11.054 303.484 11.034 303.484 11.384 303.204 12.934 301.954 20.334 302.734"/>
      </g>
      <g>
        <path class="cls-2" d="M34.326,192.633q-.675.435-1.471.916c.586.03,1.166.065,1.751.1.521-.325.981-.626,1.4-.9C35.442,192.708,34.886,192.668,34.326,192.633Zm-16.73.09q.622.42,1.4.906c.59-.035,1.176-.07,1.766-.1q-.8-.48-1.486-.916C18.717,192.643,18.157,192.683,17.6,192.723Zm28.312,4.433a9.1,9.1,0,0,0-4.363-3.462,10.853,10.853,0,0,0-1.16-.38c.03.08.055.16.08.24,0,.015.11.35.24.9a8.29,8.29,0,0,1,1.131.461,7.926,7.926,0,0,1,3.232,2.786,6.946,6.946,0,0,1,.78,6,121.091,121.091,0,0,0-4.6,28.117,2.671,2.671,0,0,1-1.786,2.551,79.882,79.882,0,0,1-25.69,0,2.671,2.671,0,0,1-1.786-2.551A121.037,121.037,0,0,0,7.375,203.69a6.936,6.936,0,0,1,.786-5.989,8.045,8.045,0,0,1,3.677-2.992,8.513,8.513,0,0,1,1.14-.4c.116-.465.2-.745.206-.76.04-.12.075-.235.12-.355a9.657,9.657,0,0,0-1.146.325,9.172,9.172,0,0,0-4.838,3.632,7.892,7.892,0,0,0-.9,6.824,120.212,120.212,0,0,1,4.562,27.887,3.621,3.621,0,0,0,2.627,3.5,81.063,81.063,0,0,0,26.01,0,3.619,3.619,0,0,0,2.622-3.5A120.4,120.4,0,0,1,46.8,204,7.92,7.92,0,0,0,45.908,197.156Z"/>
        <g>
          <path class="cls-2" d="M15.1,189.316a.367.367,0,0,1,.04-.17q-.322.548-.6,1.111a15.285,15.285,0,0,0,3.057,2.466c.561-.04,1.121-.08,1.681-.11C16.521,190.867,15.17,189.732,15.1,189.316Zm0,0a.367.367,0,0,1,.04-.17q-.322.548-.6,1.111a15.285,15.285,0,0,0,3.057,2.466c.561-.04,1.121-.08,1.681-.11C16.521,190.867,15.17,189.732,15.1,189.316Zm24.284-.655c-.04-.065-.08-.135-.125-.2a.172.172,0,0,0-.045-.06c-1.386-1.841-6.919-2.8-12.392-2.8-5.554,0-11.162.986-12.453,2.877a1.677,1.677,0,0,0-.105.18,1.384,1.384,0,0,0-.165.655c0,.155,0,.421.44.941a15.285,15.285,0,0,0,3.057,2.466q.622.42,1.4.906c1.421.9,3.257,1.971,5.618,3.272l.541.295c.1.05.2.1.3.16a2.836,2.836,0,0,0,1.191.345c.06,0,.12,0,.18,0s.13,0,.19,0h0a2.854,2.854,0,0,0,1.176-.345l.3-.165c.18-.1.36-.195.535-.29,2.341-1.291,4.162-2.357,5.578-3.247.521-.325.981-.626,1.4-.9a15.689,15.689,0,0,0,3.112-2.506c.43-.515.43-.776.43-.931A1.44,1.44,0,0,0,39.384,188.661Zm-.84.645c-.08.426-1.441,1.571-4.218,3.327q-.675.435-1.471.916-2.146,1.3-5.143,2.932a1.875,1.875,0,0,1-1.781,0q-3.016-1.644-5.168-2.952-.8-.48-1.486-.916c-2.756-1.746-4.107-2.881-4.177-3.3a.367.367,0,0,1,.04-.17.51.51,0,0,1,.08-.155,0,0,0,0,0,0-.005c.765-1.066,5.123-2.381,11.6-2.381,6.539,0,10.921,1.345,11.622,2.416.02.03.035.065.055.1A.527.527,0,0,1,38.544,189.306Zm-19.267,3.307c-2.756-1.746-4.107-2.881-4.177-3.3a.367.367,0,0,1,.04-.17q-.322.548-.6,1.111a15.285,15.285,0,0,0,3.057,2.466q.622.42,1.4.906c.59-.035,1.176-.07,1.766-.1Q19.961,193.049,19.277,192.613Z"/>
          <path class="cls-2" d="M26.827,197.611a.388.388,0,0,1-.11.06l-.075.03-1.061.4c-1.371.521-2.772,1.051-4.148,1.646-.655.281-1.3.576-1.941.891-.915.455-1.816.976-2.681,1.486-.7.405-1.426.83-2.157,1.216l-.13.07a3.131,3.131,0,0,1-1.39.49.943.943,0,0,1-.706-.285.837.837,0,0,1-.16-.23c-1.376-2.632-.92-6.494-.43-8.676.11-.49.225-.9.32-1.185a2.3,2.3,0,0,1,.09-.265l-.015,0a22.874,22.874,0,0,1,2.031-4.593c.025-.05.05-.095.08-.145a.212.212,0,0,1,.025-.035.5.5,0,0,1,.661-.14.49.49,0,0,1,.2.645,0,0,0,0,1,0,.005.071.071,0,0,1-.01.03c-.025.04-.05.085-.07.125q-.322.548-.6,1.111A21.144,21.144,0,0,0,13.3,193.2c-.045.12-.08.235-.12.355,0,.015-.09.295-.206.76-.425,1.706-1.24,5.894.176,8.605a2.743,2.743,0,0,0,.885-.385l.145-.08c.716-.375,1.431-.79,2.121-1.2.881-.515,1.8-1.05,2.742-1.516.58-.29,1.171-.56,1.766-.82,1.441-.63,2.907-1.186,4.343-1.726l.075-.03.59-.225.535-.2a.5.5,0,0,1,.471.055.53.53,0,0,1,.14.16.305.305,0,0,1,.035.07A.5.5,0,0,1,26.827,197.611Z"/>
          <path class="cls-2" d="M41.385,203.385a.876.876,0,0,1-.16.23.946.946,0,0,1-.71.285,3.136,3.136,0,0,1-1.386-.49l-.13-.07c-.73-.386-1.456-.811-2.151-1.216-.871-.51-1.771-1.031-2.687-1.486-.635-.315-1.286-.61-1.941-.9-1.376-.59-2.777-1.12-4.148-1.641l-1.055-.4h0l-.075-.03a.388.388,0,0,1-.11-.06.5.5,0,0,1-.18-.585.305.305,0,0,1,.035-.07.447.447,0,0,1,.145-.16.52.52,0,0,1,.47-.055l.53.2h0l.591.225a.392.392,0,0,0,.07.025c1.436.545,2.9,1.1,4.342,1.731.6.26,1.186.53,1.771.82.946.466,1.861,1,2.742,1.516.69.406,1.406.821,2.116,1.2l.15.08a2.122,2.122,0,0,0,.9.365c1.356-2.641.625-6.664.2-8.445-.13-.55-.235-.885-.24-.9-.025-.08-.05-.16-.08-.24a21.987,21.987,0,0,0-1.271-3.067c-.2-.385-.4-.761-.615-1.131-.02-.03-.035-.065-.055-.1a.5.5,0,0,1,.18-.68.5.5,0,0,1,.59.06.172.172,0,0,1,.045.06.156.156,0,0,1,.045.055c.03.05.055.095.08.145a22.838,22.838,0,0,1,2.036,4.593c.01.035.06.19.125.44.081.29.186.71.291,1.221C42.286,197.041,42.761,200.758,41.385,203.385Z"/>
        </g>
      </g>
      <g>
        <path class="cls-2" d="M32.833,198.92c-.2.28-.41.55-.615.82-1.3,1.711-2.552,3.307-3.547,4.908a.755.755,0,0,1-.726.32,18.617,18.617,0,0,0-2.241,0,.749.749,0,0,1-.725-.32c-1-1.6-2.252-3.192-3.547-4.9-.206-.27-.416-.545-.621-.825,1.441-.631,2.907-1.186,4.343-1.726l-.541-.295c.406.02.806.035,1.206.04.285.01.575.015.861.015h.285c.29,0,.57,0,.86-.015h0c.4,0,.8-.02,1.2-.04-.175.095-.355.19-.535.29C29.927,197.734,31.392,198.289,32.833,198.92Z"/>
        <polygon class="cls-2" points="31.13 225.729 26.82 230.379 22.51 225.729 25.411 204.779 28.24 204.779 31.13 225.729"/>
      </g>
      <path class="cls-2" d="M124,269.267l-14.66,6.431a3.322,3.322,0,0,1-4.206-1.976L89.353,246.587a3.712,3.712,0,0,1,2.134-4.778l19.673-8.629a3.713,3.713,0,0,1,4.96,1.665l.027.072,9.249,29.918A3.322,3.322,0,0,1,124,269.267ZM90.579,246.01l15.779,27.132a2.019,2.019,0,0,0,2.439,1.316l14.66-6.43a2.018,2.018,0,0,0,.683-2.686l-.026-.073-9.249-29.912a2.372,2.372,0,0,0-3.162-.938l-19.672,8.63A2.371,2.371,0,0,0,90.579,246.01Z"/>
      <path class="cls-2" d="M92.923,252.551l9.472,14.824,20.037-8.79-4.5-17Zm17.824,6.628a4.335,4.335,0,1,1,2.225-5.7A4.333,4.333,0,0,1,110.747,259.179Z"/>
      <g>
        <rect class="cls-2" x="85.132" y="235.632" width="32.927" height="4.964" rx="1.248" transform="translate(-87.094 60.868) rotate(-23.685)"/>
        <path class="cls-2" d="M114.065,231.75l-25.6,11.228a.653.653,0,0,1-.869-.305l0-4.087a.6.6,0,0,1,.307-.787l22.734-9.972a.6.6,0,0,1,.787.307l3,2.77A.653.653,0,0,1,114.065,231.75Z"/>
        <ellipse class="cls-2" cx="99.371" cy="233.043" rx="12.862" ry="1.096" transform="translate(-85.244 59.547) rotate(-23.685)"/>
      </g>
    </g>
    <g>
      <g>
        <path class="cls-2" d="M349.614,129.434v.03l-.15,1.44-.04.4.68-.32,2.46-1.17.04-.02Zm-2.62-.29-2.44,1.16-2.59,1.23,5.57.67.09-.04.15-1.46.15-1.45.01-.02-.9-.11Zm18.18-4.6-.54-.07-5.07,2.42.53.06,5.04.61,5.07-2.41Zm17.45,3.24a1.6,1.6,0,0,0-1.42-1.31l-2.37-.29-.2,1.47c0,.01,0,.01-.01.02a2.732,2.732,0,0,1-1.2.89l-18.99,9.07c-1.34.66-2.69,1.33-4.04,1.99a2.578,2.578,0,0,1-1.5.25l-19.89-2.4-2.61-.32a3.727,3.727,0,0,0-.3.26,1.647,1.647,0,0,0-.54,1.48,1.616,1.616,0,0,0,1.43,1.32l21.76,2.62a1.7,1.7,0,0,0,.23.01,7.694,7.694,0,0,0,2.74-.8l25.06-11.93C381.444,129.794,382.844,129.124,382.624,127.784Z"/>
        <path class="cls-3" d="M331.054,128.674l7.65.92-.16,1.53-7.56-.91a1.8,1.8,0,0,1-.95-.45.927.927,0,0,1-.14-.14l-.04-.05.03-.24a.792.792,0,0,1,.89-.69l.15.02Z"/>
        <path class="cls-4" d="M331.038,128.544a7.1,7.1,0,0,0-1.963,3.485,7.9,7.9,0,0,0,1.91,6.612"/>
        <path class="cls-2" d="M354.414,129.344a6.559,6.559,0,0,1-1.33.49.41.41,0,0,1-.11.01l-.37-.05-.04.02-2.46,1.17,2.93.36,1.68.2-.05.39c.69-.23,1.37-.47,2.05-.7a2.659,2.659,0,0,0,1.79-2.17l.19-1.44.05-.34Zm0,0a6.559,6.559,0,0,1-1.33.49.41.41,0,0,1-.11.01l-.37-.05-.04.02-2.46,1.17,2.93.36,1.68.2-.05.39c.69-.23,1.37-.47,2.05-.7a2.659,2.659,0,0,0,1.79-2.17l.19-1.44.05-.34Zm0,0a6.559,6.559,0,0,1-1.33.49.41.41,0,0,1-.11.01l-.37-.05-.04.02-2.46,1.17,2.93.36,1.68.2-.05.39c.69-.23,1.37-.47,2.05-.7a2.659,2.659,0,0,0,1.79-2.17l.19-1.44.05-.34Zm0,0a6.559,6.559,0,0,1-1.33.49,8.089,8.089,0,0,0,2.63-.79l2.98-1.42.05-.34Zm-1.81.45-.04.02.18.02a1.7,1.7,0,0,0,.23.01Zm6.83-15.95a1.148,1.148,0,0,0-.18.01l-.07-.01a.371.371,0,0,0-.09.02,1.431,1.431,0,0,0-.29.01,9.139,9.139,0,0,0-2.33.76l-6.9,3.29-2.56,1.22.52.06,5.04.61,2.11-1.01,3.07-1.46c.11-.05.21-.1.31-.14a6.515,6.515,0,0,1,1.12-.37l.94.11,5.01-2.38.05-.03Zm-20.27,11.37-3.92-.47-3.84,1.83a5.523,5.523,0,0,0-.89.51,1.94,1.94,0,0,0-.94,1.21l-.14.77.42.51.04.05a.927.927,0,0,0,.14.14,1.8,1.8,0,0,0,.95.45l7.56.91.16-1.53.15-1.43v-.02l-3.01-.36,3.21-1.53Zm43.46-7.42a1.567,1.567,0,0,0-.95-1.19,1.42,1.42,0,0,0-.47-.13l-4.54-.55-5.04,2.41,1.49.18,3.22.39-11.7,5.57-5.07,2.42-.82.39-4.33,2.06a6.559,6.559,0,0,1-1.33.49.41.41,0,0,1-.11.01l-.37-.05-2.99-.36v.03l-.15,1.44-.04.4-.12,1.11,3.43.42.18.01h.19a7.927,7.927,0,0,0,2.61-.8l9.42-4.48,5.07-2.41,9.37-4.47.89-.42.31-.15C381.444,119.794,382.844,119.124,382.624,117.794Zm-42.08,10.55-.01.02-.15,1.44-.16,1.52,1.74.21,5.57.67.08.01.01-.05.15-1.46.15-1.45.01-.02-.9-.11Zm13.87,1a6.559,6.559,0,0,1-1.33.49.41.41,0,0,1-.11.01l-.37-.05-.04.02-2.46,1.17,2.93.36,1.68.2-.05.39c.69-.23,1.37-.47,2.05-.7a2.659,2.659,0,0,0,1.79-2.17l.19-1.44.05-.34Zm0,0a6.559,6.559,0,0,1-1.33.49.41.41,0,0,1-.11.01l-.37-.05-.04.02-2.46,1.17,2.93.36,1.68.2-.05.39c.69-.23,1.37-.47,2.05-.7a2.659,2.659,0,0,0,1.79-2.17l.19-1.44.05-.34Zm0,0a6.559,6.559,0,0,1-1.33.49.41.41,0,0,1-.11.01l-.37-.05-.04.02-2.46,1.17,2.93.36,1.68.2-.05.39c.69-.23,1.37-.47,2.05-.7a2.659,2.659,0,0,0,1.79-2.17l.19-1.44.05-.34Zm0,0a6.559,6.559,0,0,1-1.33.49.41.41,0,0,1-.11.01l-.37-.05-.04.02-2.46,1.17,2.93.36,1.68.2-.05.39c.69-.23,1.37-.47,2.05-.7a2.659,2.659,0,0,0,1.79-2.17l.19-1.44.05-.34Z"/>
      </g>
      <g>
        <path class="cls-2" d="M335.244,124.744l-2.24-.27-2.61-.32c-.1.08-.2.16-.3.25a1.64,1.64,0,0,0-.54,1.49,1.579,1.579,0,0,0,.96,1.19,1.491,1.491,0,0,0,.47.13l7.87.95v-.02l.2-1.89.11-1.04Zm47.38-9.96a1.6,1.6,0,0,0-1.42-1.31l-2.37-.29-.2,1.47c0,.01,0,.01-.01.02a2.732,2.732,0,0,1-1.2.89l-.76.36-5.04,2.41-13.19,6.3c-1.34.66-2.69,1.33-4.04,1.99a2.578,2.578,0,0,1-1.5.25l-2.97-.36-.31,2.92v.03l2.95.35.18.02a1.7,1.7,0,0,0,.23.01.41.41,0,0,0,.11-.01,8.089,8.089,0,0,0,2.63-.79l2.98-1.42,1.4-.67,5.08-2.41,14.22-6.78h.01l1.37-.65a6.3,6.3,0,0,0,.9-.51A1.816,1.816,0,0,0,382.624,114.784Zm-42.08,13.56-.01.02,6.46.78.93.11.01-.02.3-2.92-7.38-.9Zm20.89-17.25-1.99-.24a7.036,7.036,0,0,0-2.98.78l-11.91,5.67-2.59,1.23,5.05.61.52.06,2.57-1.22,7.65-3.64a8.172,8.172,0,0,1,1.04-.41,1.556,1.556,0,0,1,.3-.07.86.86,0,0,1,.16-.01l5.88.71.05-.03,5.02-2.38Z"/>
        <path class="cls-3" d="M329.164,122.244a8.381,8.381,0,0,0,.75,1.85l-.17-.02a.8.8,0,0,1-.69-.89Z"/>
        <path class="cls-3" d="M379.954,104.834l-.14,1.08-.24,1.77-9.37,4.47-5.02,2.38-.05.03-5.01,2.38-4.41,2.1a7.927,7.927,0,0,1-2.61.8h-.19l-.18-.01-.16-.02-5.04-.61-.52-.06-5.05-.61-10.98-1.32a1.8,1.8,0,0,1-.95-.45c-.08.13-.17.27-.25.42l.07-.61.03-.24a.792.792,0,0,1,.89-.69l.15.02.13.01,13.5,1.63,2.77.34,2.25.28.53.06,2.93.36,1.68.2-.03.26-.02.13c.69-.23,1.37-.47,2.05-.7a2.626,2.626,0,0,0,1.35-1.03,2.522,2.522,0,0,0,.44-1.14l.29-2.13.01-.06.17-1.28a.512.512,0,0,1,.2-.26,4.56,4.56,0,0,1,1-.64l1.26-.6,13.5-6.45a2.761,2.761,0,0,1,1.47-.24Z"/>
        <path class="cls-4" d="M330.984,125.644a9.4,9.4,0,0,1-.89-1.24c-.06-.1-.12-.2-.18-.31a8.381,8.381,0,0,1-.75-1.85v-.01a6.576,6.576,0,0,1,.62-5.04v-.01c.08-.15.17-.29.25-.42a6.648,6.648,0,0,1,.89-1.1,1.2,1.2,0,0,1,.11-.12"/>
        <path class="cls-2" d="M380.774,107.114l-.31.15-.89.42-9.37,4.47-5.02,2.38-.05.03-5.01,2.38-4.41,2.1a7.927,7.927,0,0,1-2.61.8h-.19l-.18-.01-.16-.02-5.04-.61-.52-.06-5.05-.61-10.98-1.32a1.8,1.8,0,0,1-.95-.45.927.927,0,0,1-.14-.14l-.04-.05-.42-.51.14-.77c.15-.67.68-1.17,1.83-1.72l25.07-11.94a7.112,7.112,0,0,1,2.96-.79l21.77,2.63a1.615,1.615,0,0,1,1.42,1.32C382.844,106.124,381.444,106.794,380.774,107.114Z"/>
      </g>
      <g>
        <rect class="cls-2" x="278.247" y="47.053" width="4.725" height="42.594" transform="translate(373.913 341.678) rotate(-122.537)"/>
        <rect class="cls-5" x="297.969" y="53.836" width="4.544" height="3.979" rx="0.156" transform="translate(414.663 338.967) rotate(-122.537)"/>
        <rect class="cls-2" x="300.87" y="51.906" width="4.707" height="4.034" rx="1.02" transform="translate(420.854 338.555) rotate(-122.537)"/>
        <polygon class="cls-2" points="261.381 77.814 255.021 84.672 263.925 81.802 263.371 80.934 258.368 82.536 261.935 78.683 261.381 77.814 261.381 77.814"/>
        <g>
          <path class="cls-2" d="M263.443,80.515l.555.87c-.438.28-.919.314-1.07.076S263.005,80.8,263.443,80.515Z"/>
          <path class="cls-2" d="M262.892,79.651l.551.864c-.438.28-.919.313-1.071.076S262.454,79.931,262.892,79.651Z"/>
          <path class="cls-2" d="M262.341,78.788l.551.863c-.438.28-.919.314-1.071.076S261.9,79.067,262.341,78.788Z"/>
          <path class="cls-2" d="M261.79,77.924l.551.864c-.438.279-.919.313-1.071.075S261.351,78.2,261.79,77.924Z"/>
        </g>
      </g>
      <path class="cls-2" d="M233.145,95.08a3.733,3.733,0,0,0,3.646-1.148,8.621,8.621,0,0,0,2.176-3.293,5.609,5.609,0,0,0,.384-1.867,2.066,2.066,0,0,0-.662-1.528,1.8,1.8,0,0,0-1.414-.638.947.947,0,0,0-.833.929c-.021.425.352.744.948.945a7.22,7.22,0,0,0,1.9.308,25.656,25.656,0,0,0,4.043-.154,38.432,38.432,0,0,0,7.984-1.822l-.007.07-.439-.333.483.267a.037.037,0,0,1,.014.051.035.035,0,0,1-.016.016l0,0a28.679,28.679,0,0,1-7.907,2.538,22.659,22.659,0,0,1-4.194.322,8.134,8.134,0,0,1-2.168-.336,2.875,2.875,0,0,1-1.081-.6,1.707,1.707,0,0,1-.551-1.284,1.855,1.855,0,0,1,.506-1.269,2.016,2.016,0,0,1,1.193-.614,2.663,2.663,0,0,1,2.229.962,2.972,2.972,0,0,1,.846,2.189,5.764,5.764,0,0,1-.55,2.132A9.068,9.068,0,0,1,237.1,94.3,3.838,3.838,0,0,1,233.145,95.08Z"/>
    </g>
    <g>
      <g>
        <path class="cls-2" d="M184.614,219.434v.03l-.15,1.44-.04.4.68-.32,2.46-1.17.04-.02Zm-2.62-.29-2.44,1.16-2.59,1.23,5.57.67.09-.04.15-1.46.15-1.45.01-.02-.9-.11Zm18.18-4.6-.54-.07-5.07,2.42.53.06,5.04.61,5.07-2.41Zm17.45,3.24a1.6,1.6,0,0,0-1.42-1.31l-2.37-.29-.2,1.47c0,.01,0,.01-.01.02a2.732,2.732,0,0,1-1.2.89l-18.99,9.07c-1.34.66-2.69,1.33-4.04,1.99a2.578,2.578,0,0,1-1.5.25l-19.89-2.4-2.61-.32a3.727,3.727,0,0,0-.3.26,1.647,1.647,0,0,0-.54,1.48,1.616,1.616,0,0,0,1.43,1.32l21.76,2.62a1.7,1.7,0,0,0,.23.01,7.694,7.694,0,0,0,2.74-.8l25.06-11.93C216.444,219.794,217.844,219.124,217.624,217.784Z"/>
        <path class="cls-3" d="M166.054,218.674l7.65.92-.16,1.53-7.56-.91a1.8,1.8,0,0,1-.95-.45.927.927,0,0,1-.14-.14l-.04-.05.03-.24a.792.792,0,0,1,.89-.69l.15.02Z"/>
        <polygon class="cls-3" points="182.324 220.644 182.774 220.704 182.624 222.164 182.614 222.214 182.534 222.204 176.964 221.534 175.224 221.324 175.384 219.804 179.554 220.304 182.324 220.644"/>
        <path class="cls-3" d="M214.954,207.834l-.14,1.08-.24,1.77-9.37,4.47-5.07,2.41-9.42,4.48a7.927,7.927,0,0,1-2.61.8h-.19l-.18-.01-3.43-.42.12-1.11.04-.4.64.08,2.93.36,1.68.2-.05.39c.69-.23,1.37-.47,2.05-.7a2.659,2.659,0,0,0,1.79-2.17l.19-1.44.05-.34.05-.35a2.481,2.481,0,0,1,.39-.09l.38.05,5.07-2.42,11.7-5.57-3.22-.39,1.82-.87a2.761,2.761,0,0,1,1.47-.24l2.99.36h.01Z"/>
        <path class="cls-4" d="M166.038,218.544a7.1,7.1,0,0,0-1.963,3.485,7.9,7.9,0,0,0,1.91,6.612"/>
        <path class="cls-2" d="M189.414,219.344a6.559,6.559,0,0,1-1.33.49.41.41,0,0,1-.11.01l-.37-.05-.04.02-2.46,1.17,2.93.36,1.68.2-.05.39c.69-.23,1.37-.47,2.05-.7a2.659,2.659,0,0,0,1.79-2.17l.19-1.44.05-.34Zm0,0a6.559,6.559,0,0,1-1.33.49.41.41,0,0,1-.11.01l-.37-.05-.04.02-2.46,1.17,2.93.36,1.68.2-.05.39c.69-.23,1.37-.47,2.05-.7a2.659,2.659,0,0,0,1.79-2.17l.19-1.44.05-.34Zm0,0a6.559,6.559,0,0,1-1.33.49.41.41,0,0,1-.11.01l-.37-.05-.04.02-2.46,1.17,2.93.36,1.68.2-.05.39c.69-.23,1.37-.47,2.05-.7a2.659,2.659,0,0,0,1.79-2.17l.19-1.44.05-.34Zm0,0a6.559,6.559,0,0,1-1.33.49,8.089,8.089,0,0,0,2.63-.79l2.98-1.42.05-.34Zm-1.81.45-.04.02.18.02a1.7,1.7,0,0,0,.23.01Zm6.83-15.95a1.148,1.148,0,0,0-.18.01l-.07-.01a.371.371,0,0,0-.09.02,1.431,1.431,0,0,0-.29.01,9.139,9.139,0,0,0-2.33.76l-6.9,3.29-2.56,1.22.52.06,5.04.61,2.11-1.01,3.07-1.46c.11-.05.21-.1.31-.14a6.515,6.515,0,0,1,1.12-.37l.94.11,5.01-2.38.05-.03Zm-20.27,11.37-3.92-.47-3.84,1.83a5.523,5.523,0,0,0-.89.51,1.94,1.94,0,0,0-.94,1.21l-.14.77.42.51.04.05a.927.927,0,0,0,.14.14,1.8,1.8,0,0,0,.95.45l7.56.91.16-1.53.15-1.43v-.02l-3.01-.36,3.21-1.53Zm43.46-7.42a1.567,1.567,0,0,0-.95-1.19,1.42,1.42,0,0,0-.47-.13l-4.54-.55-5.04,2.41,1.49.18,3.22.39-11.7,5.57-5.07,2.42-.82.39-4.33,2.06a6.559,6.559,0,0,1-1.33.49.41.41,0,0,1-.11.01l-.37-.05-2.99-.36v.03l-.15,1.44-.04.4-.12,1.11,3.43.42.18.01h.19a7.927,7.927,0,0,0,2.61-.8l9.42-4.48,5.07-2.41,9.37-4.47.89-.42.31-.15C216.444,209.794,217.844,209.124,217.624,207.794Zm-42.08,10.55-.01.02-.15,1.44-.16,1.52,1.74.21,5.57.67.08.01.01-.05.15-1.46.15-1.45.01-.02-.9-.11Zm13.87,1a6.559,6.559,0,0,1-1.33.49.41.41,0,0,1-.11.01l-.37-.05-.04.02-2.46,1.17,2.93.36,1.68.2-.05.39c.69-.23,1.37-.47,2.05-.7a2.659,2.659,0,0,0,1.79-2.17l.19-1.44.05-.34Zm0,0a6.559,6.559,0,0,1-1.33.49.41.41,0,0,1-.11.01l-.37-.05-.04.02-2.46,1.17,2.93.36,1.68.2-.05.39c.69-.23,1.37-.47,2.05-.7a2.659,2.659,0,0,0,1.79-2.17l.19-1.44.05-.34Zm0,0a6.559,6.559,0,0,1-1.33.49.41.41,0,0,1-.11.01l-.37-.05-.04.02-2.46,1.17,2.93.36,1.68.2-.05.39c.69-.23,1.37-.47,2.05-.7a2.659,2.659,0,0,0,1.79-2.17l.19-1.44.05-.34Zm0,0a6.559,6.559,0,0,1-1.33.49.41.41,0,0,1-.11.01l-.37-.05-.04.02-2.46,1.17,2.93.36,1.68.2-.05.39c.69-.23,1.37-.47,2.05-.7a2.659,2.659,0,0,0,1.79-2.17l.19-1.44.05-.34Z"/>
      </g>
      <g>
        <path class="cls-2" d="M170.244,214.744l-2.24-.27-2.61-.32c-.1.08-.2.16-.3.25a1.64,1.64,0,0,0-.54,1.49,1.579,1.579,0,0,0,.96,1.19,1.491,1.491,0,0,0,.47.13l7.87.95v-.02l.2-1.89.11-1.04Zm47.38-9.96a1.6,1.6,0,0,0-1.42-1.31l-2.37-.29-.2,1.47c0,.01,0,.01-.01.02a2.732,2.732,0,0,1-1.2.89l-.76.36-5.04,2.41-13.19,6.3c-1.34.66-2.69,1.33-4.04,1.99a2.578,2.578,0,0,1-1.5.25l-2.97-.36-.31,2.92v.03l2.95.35.18.02a1.7,1.7,0,0,0,.23.01.41.41,0,0,0,.11-.01,8.089,8.089,0,0,0,2.63-.79l2.98-1.42,1.4-.67,5.08-2.41,14.22-6.78h.01l1.37-.65a6.3,6.3,0,0,0,.9-.51A1.816,1.816,0,0,0,217.624,204.784Zm-42.08,13.56-.01.02,6.46.78.93.11.01-.02.3-2.92-7.38-.9Zm20.89-17.25-1.99-.24a7.036,7.036,0,0,0-2.98.78l-11.91,5.67-2.59,1.23,5.05.61.52.06,2.57-1.22,7.65-3.64a8.172,8.172,0,0,1,1.04-.41,1.556,1.556,0,0,1,.3-.07.86.86,0,0,1,.16-.01l5.88.71.05-.03,5.02-2.38Z"/>
        <path class="cls-3" d="M164.164,212.244a8.381,8.381,0,0,0,.75,1.85l-.17-.02a.8.8,0,0,1-.69-.89Z"/>
        <path class="cls-3" d="M214.954,194.834l-.14,1.08-.24,1.77-9.37,4.47-5.02,2.38-.05.03-5.01,2.38-4.41,2.1a7.927,7.927,0,0,1-2.61.8h-.19l-.18-.01-.16-.02-5.04-.61-.52-.06-5.05-.61-10.98-1.32a1.8,1.8,0,0,1-.95-.45c-.08.13-.17.27-.25.42l.07-.61.03-.24a.792.792,0,0,1,.89-.69l.15.02.13.01,13.5,1.63,2.77.34,2.25.28.53.06,2.93.36,1.68.2-.03.26-.02.13c.69-.23,1.37-.47,2.05-.7a2.626,2.626,0,0,0,1.35-1.03,2.522,2.522,0,0,0,.44-1.14l.29-2.13.01-.06.17-1.28a.512.512,0,0,1,.2-.26,4.56,4.56,0,0,1,1-.64l1.26-.6,13.5-6.45a2.761,2.761,0,0,1,1.47-.24Z"/>
        <path class="cls-4" d="M165.984,215.644a9.4,9.4,0,0,1-.89-1.24c-.06-.1-.12-.2-.18-.31a8.381,8.381,0,0,1-.75-1.85v-.01a6.576,6.576,0,0,1,.62-5.04v-.01c.08-.15.17-.29.25-.42a6.648,6.648,0,0,1,.89-1.1,1.2,1.2,0,0,1,.11-.12"/>
        <path class="cls-2" d="M215.774,197.114l-.31.15-.89.42-9.37,4.47-5.02,2.38-.05.03-5.01,2.38-4.41,2.1a7.927,7.927,0,0,1-2.61.8h-.19l-.18-.01-.16-.02-5.04-.61-.52-.06-5.05-.61-10.98-1.32a1.8,1.8,0,0,1-.95-.45.927.927,0,0,1-.14-.14l-.04-.05-.42-.51.14-.77c.15-.67.68-1.17,1.83-1.72l25.07-11.94a7.112,7.112,0,0,1,2.96-.79l21.77,2.63a1.615,1.615,0,0,1,1.42,1.32C217.844,196.124,216.444,196.794,215.774,197.114Z"/>
      </g>
      <g>
        <path class="cls-2" d="M183.454,214.264l-.22,2.05-.3,2.92-.01.02-.15,1.45-.15,1.46-.01.05-.4,3.8c-.01.16-.27.21-.4.09l-2.89-2.79a.289.289,0,0,0-.32-.03l-3.41,2.12c-.16.1-.39-.01-.38-.17l.41-3.91.16-1.52.15-1.44.01-.02.31-2.93.2-1.93,7.38.78Z"/>
        <polygon class="cls-2" points="185.334 212.734 183.794 213.974 183.784 213.974 183.434 214.264 176.054 213.484 176.034 213.484 176.384 213.204 177.934 211.954 185.334 212.734"/>
      </g>
      <g>
        <rect class="cls-2" x="113.247" y="137.053" width="4.725" height="42.594" transform="translate(44.294 340.983) rotate(-122.537)"/>
        <rect class="cls-5" x="132.969" y="143.836" width="4.544" height="3.979" rx="0.156" transform="translate(85.044 338.272) rotate(-122.537)"/>
        <rect class="cls-2" x="135.87" y="141.906" width="4.707" height="4.034" rx="1.02" transform="matrix(-0.538, -0.843, 0.843, -0.538, 91.235, 337.86)"/>
        <polygon class="cls-2" points="96.381 167.814 90.021 174.672 98.925 171.802 98.371 170.934 93.368 172.536 96.935 168.683 96.381 167.814 96.381 167.814"/>
        <g>
          <path class="cls-2" d="M98.443,170.515l.555.87c-.438.28-.919.314-1.07.076S98.005,170.8,98.443,170.515Z"/>
          <path class="cls-2" d="M97.892,169.651l.551.864c-.438.28-.919.313-1.071.076S97.454,169.931,97.892,169.651Z"/>
          <path class="cls-2" d="M97.341,168.788l.551.863c-.438.28-.919.314-1.071.076S96.9,169.067,97.341,168.788Z"/>
          <path class="cls-2" d="M96.79,167.924l.551.864c-.438.279-.919.313-1.071.075S96.351,168.2,96.79,167.924Z"/>
        </g>
      </g>
      <path class="cls-2" d="M68.145,185.08a3.733,3.733,0,0,0,3.646-1.148,8.621,8.621,0,0,0,2.176-3.293,5.609,5.609,0,0,0,.384-1.867,2.066,2.066,0,0,0-.662-1.528,1.8,1.8,0,0,0-1.414-.638.947.947,0,0,0-.833.929c-.021.425.352.744.948.945a7.22,7.22,0,0,0,1.9.308,25.656,25.656,0,0,0,4.043-.154,38.432,38.432,0,0,0,7.984-1.822l-.007.07-.439-.333.483.267a.037.037,0,0,1,.014.051.035.035,0,0,1-.016.016l0,0a28.679,28.679,0,0,1-7.907,2.538,22.659,22.659,0,0,1-4.194.322,8.134,8.134,0,0,1-2.168-.336,2.875,2.875,0,0,1-1.081-.6,1.707,1.707,0,0,1-.551-1.284,1.855,1.855,0,0,1,.506-1.269,2.016,2.016,0,0,1,1.193-.614,2.663,2.663,0,0,1,2.229.962,2.972,2.972,0,0,1,.846,2.189,5.764,5.764,0,0,1-.55,2.132A9.068,9.068,0,0,1,72.1,184.3,3.838,3.838,0,0,1,68.145,185.08Z"/>
      <g>
        <path class="cls-2" d="M199.326,102.633q-.675.435-1.471.916c.586.03,1.166.065,1.751.1.521-.325.981-.626,1.4-.9C200.442,102.708,199.886,102.668,199.326,102.633Zm-16.73.09q.623.42,1.4.906c.59-.035,1.176-.07,1.766-.1q-.8-.48-1.486-.916C183.717,102.643,183.157,102.683,182.6,102.723Zm28.312,4.433a9.1,9.1,0,0,0-4.363-3.462,10.853,10.853,0,0,0-1.16-.38c.03.08.055.16.08.24,0,.015.11.35.24.9a8.29,8.29,0,0,1,1.131.461,7.926,7.926,0,0,1,3.232,2.786,6.946,6.946,0,0,1,.78,6,121.091,121.091,0,0,0-4.6,28.117,2.671,2.671,0,0,1-1.786,2.551,79.882,79.882,0,0,1-25.69,0,2.671,2.671,0,0,1-1.786-2.551,121.037,121.037,0,0,0-4.608-28.132,6.936,6.936,0,0,1,.786-5.989,8.045,8.045,0,0,1,3.677-2.992,8.513,8.513,0,0,1,1.14-.4c.116-.465.2-.745.206-.76.04-.12.075-.235.12-.355a9.657,9.657,0,0,0-1.146.325,9.172,9.172,0,0,0-4.838,3.632,7.892,7.892,0,0,0-.9,6.824,120.212,120.212,0,0,1,4.562,27.887,3.621,3.621,0,0,0,2.627,3.5,81.063,81.063,0,0,0,26.01,0,3.619,3.619,0,0,0,2.622-3.5A120.4,120.4,0,0,1,211.8,114,7.92,7.92,0,0,0,210.908,107.156Z"/>
        <g>
          <path class="cls-2" d="M180.1,99.316a.367.367,0,0,1,.04-.17q-.322.547-.6,1.111a15.285,15.285,0,0,0,3.057,2.466c.561-.04,1.121-.08,1.681-.11C181.521,100.867,180.17,99.732,180.1,99.316Zm0,0a.367.367,0,0,1,.04-.17q-.322.547-.6,1.111a15.285,15.285,0,0,0,3.057,2.466c.561-.04,1.121-.08,1.681-.11C181.521,100.867,180.17,99.732,180.1,99.316Zm24.284-.655c-.04-.065-.08-.135-.125-.2a.172.172,0,0,0-.045-.06c-1.386-1.841-6.919-2.8-12.392-2.8-5.554,0-11.162.986-12.453,2.877a1.677,1.677,0,0,0-.1.18,1.384,1.384,0,0,0-.165.655c0,.155,0,.421.44.941a15.285,15.285,0,0,0,3.057,2.466q.623.42,1.4.906c1.421.895,3.257,1.971,5.618,3.272l.541.3c.095.05.195.105.295.16a2.836,2.836,0,0,0,1.191.345c.06.005.12.005.18.005s.13,0,.19-.005h0a2.854,2.854,0,0,0,1.176-.345l.3-.165c.18-.1.36-.2.535-.29,2.341-1.291,4.162-2.357,5.578-3.247.521-.325.981-.626,1.4-.9a15.689,15.689,0,0,0,3.112-2.506c.43-.515.43-.776.43-.931A1.44,1.44,0,0,0,204.384,98.661Zm-.84.645c-.08.426-1.441,1.571-4.218,3.327q-.675.435-1.471.916-2.146,1.3-5.143,2.932a1.875,1.875,0,0,1-1.781,0q-3.017-1.644-5.168-2.952-.8-.48-1.486-.916c-2.756-1.746-4.107-2.881-4.177-3.3a.367.367,0,0,1,.04-.17.51.51,0,0,1,.08-.155,0,0,0,0,0,0,0c.765-1.066,5.123-2.381,11.6-2.381,6.539,0,10.921,1.345,11.622,2.416.02.03.035.065.055.095A.527.527,0,0,1,203.544,99.306Zm-19.267,3.307c-2.756-1.746-4.107-2.881-4.177-3.3a.367.367,0,0,1,.04-.17q-.322.547-.6,1.111a15.285,15.285,0,0,0,3.057,2.466q.623.42,1.4.906c.59-.035,1.176-.07,1.766-.1Q184.961,103.049,184.277,102.613Z"/>
          <path class="cls-2" d="M191.827,107.611a.388.388,0,0,1-.11.06l-.075.03-1.061.4c-1.371.521-2.772,1.051-4.148,1.646-.655.281-1.305.576-1.941.891-.915.455-1.816.976-2.681,1.486-.7.405-1.426.83-2.157,1.216l-.13.07a3.131,3.131,0,0,1-1.39.49.943.943,0,0,1-.706-.285.837.837,0,0,1-.16-.23c-1.376-2.632-.92-6.494-.43-8.676.11-.49.225-.9.32-1.185a2.3,2.3,0,0,1,.09-.265l-.015,0a22.874,22.874,0,0,1,2.031-4.593c.025-.05.05-.095.08-.145a.212.212,0,0,1,.025-.035.5.5,0,0,1,.661-.14.49.49,0,0,1,.195.645,0,0,0,0,1,0,0,.071.071,0,0,1-.01.03c-.025.04-.05.085-.07.125q-.322.547-.6,1.111A21.144,21.144,0,0,0,178.3,103.2c-.045.12-.08.235-.12.355,0,.015-.09.3-.206.76-.425,1.706-1.24,5.894.176,8.605a2.743,2.743,0,0,0,.885-.385l.145-.08c.716-.375,1.431-.79,2.121-1.2.881-.515,1.8-1.05,2.742-1.516.58-.29,1.171-.56,1.766-.82,1.441-.63,2.907-1.186,4.343-1.726l.075-.03.59-.225.535-.2a.5.5,0,0,1,.471.055.53.53,0,0,1,.14.16.305.305,0,0,1,.035.07A.5.5,0,0,1,191.827,107.611Z"/>
          <path class="cls-2" d="M206.385,113.385a.876.876,0,0,1-.16.23.946.946,0,0,1-.71.285,3.136,3.136,0,0,1-1.386-.49l-.13-.07c-.73-.386-1.456-.811-2.151-1.216-.871-.51-1.771-1.031-2.687-1.486-.635-.315-1.286-.61-1.941-.9-1.376-.59-2.777-1.12-4.148-1.641l-1.055-.4h0l-.075-.03a.388.388,0,0,1-.11-.06.5.5,0,0,1-.18-.585.305.305,0,0,1,.035-.07.447.447,0,0,1,.145-.16.52.52,0,0,1,.47-.055l.53.2h0l.591.225a.392.392,0,0,0,.07.025c1.436.545,2.9,1.1,4.342,1.731.6.26,1.186.53,1.771.82.946.466,1.861,1,2.742,1.516.69.406,1.406.821,2.116,1.2l.15.08a2.122,2.122,0,0,0,.9.365c1.356-2.641.625-6.664.2-8.445-.13-.55-.235-.885-.24-.9-.025-.08-.05-.16-.08-.24a21.987,21.987,0,0,0-1.271-3.067c-.195-.385-.4-.761-.615-1.131-.02-.03-.035-.065-.055-.095a.5.5,0,0,1,.18-.68.5.5,0,0,1,.59.06.172.172,0,0,1,.045.06.156.156,0,0,1,.045.055c.03.05.055.095.08.145a22.838,22.838,0,0,1,2.036,4.593c.01.035.06.19.125.44.081.29.186.71.291,1.221C207.286,107.041,207.761,110.758,206.385,113.385Z"/>
        </g>
      </g>
      <g>
        <path class="cls-2" d="M197.833,108.92c-.205.28-.41.55-.615.82-1.3,1.711-2.552,3.307-3.547,4.908a.755.755,0,0,1-.726.32,18.617,18.617,0,0,0-2.241,0,.749.749,0,0,1-.725-.32c-1-1.6-2.252-3.192-3.547-4.9-.206-.27-.416-.545-.621-.825,1.441-.631,2.907-1.186,4.343-1.726l-.541-.3c.406.02.806.035,1.206.04.285.01.575.015.861.015h.285c.29,0,.57,0,.86-.015h.005c.4,0,.8-.02,1.2-.04-.175.095-.355.19-.535.29C194.927,107.734,196.392,108.289,197.833,108.92Z"/>
        <polygon class="cls-2" points="196.13 135.729 191.82 140.379 187.51 135.729 190.411 114.779 193.24 114.779 196.13 135.729"/>
      </g>
      <path class="cls-2" d="M289,179.267l-14.66,6.431a3.322,3.322,0,0,1-4.206-1.976l-15.782-27.135a3.712,3.712,0,0,1,2.134-4.778l19.673-8.629a3.713,3.713,0,0,1,4.96,1.665l.027.072,9.249,29.918A3.322,3.322,0,0,1,289,179.267ZM255.579,156.01l15.779,27.132a2.019,2.019,0,0,0,2.439,1.316l14.66-6.43a2.018,2.018,0,0,0,.683-2.686l-.026-.073-9.249-29.912a2.372,2.372,0,0,0-3.162-.938l-19.672,8.63A2.371,2.371,0,0,0,255.579,156.01Z"/>
      <path class="cls-2" d="M257.923,162.551l9.472,14.824,20.037-8.79-4.5-17Zm17.824,6.628a4.335,4.335,0,1,1,2.225-5.7A4.333,4.333,0,0,1,275.747,169.179Z"/>
      <g>
        <rect class="cls-2" x="250.132" y="145.632" width="32.927" height="4.964" rx="1.248" transform="translate(-37.043 119.568) rotate(-23.685)"/>
        <path class="cls-2" d="M279.065,141.75l-25.6,11.228a.653.653,0,0,1-.869-.305l0-4.087a.6.6,0,0,1,.307-.787l22.734-9.972a.6.6,0,0,1,.787.307l3,2.77A.653.653,0,0,1,279.065,141.75Z"/>
        <ellipse class="cls-2" cx="264.371" cy="143.043" rx="12.862" ry="1.096" transform="translate(-35.193 118.247) rotate(-23.685)"/>
      </g>
    </g>
    <g>
      <g>
        <path class="cls-2" d="M19.614,129.434v.03l-.15,1.44-.04.4.68-.32,2.46-1.17.04-.02Zm-2.62-.29-2.44,1.16-2.59,1.23,5.57.67.09-.04.15-1.46.15-1.45.01-.02-.9-.11Zm18.18-4.6-.54-.07-5.07,2.42.53.06,5.04.61,5.07-2.41Zm17.45,3.24a1.6,1.6,0,0,0-1.42-1.31l-2.37-.29-.2,1.47c0,.01,0,.01-.01.02a2.732,2.732,0,0,1-1.2.89l-18.99,9.07c-1.34.66-2.69,1.33-4.04,1.99a2.578,2.578,0,0,1-1.5.25L3,137.474l-2.61-.32a3.727,3.727,0,0,0-.3.26,1.647,1.647,0,0,0-.54,1.48,1.616,1.616,0,0,0,1.43,1.32l21.76,2.62a1.7,1.7,0,0,0,.23.01,7.694,7.694,0,0,0,2.74-.8l25.06-11.93C51.444,129.794,52.844,129.124,52.624,127.784Z"/>
        <path class="cls-3" d="M1.054,128.674l7.65.92-.16,1.53-7.56-.91a1.8,1.8,0,0,1-.95-.45.927.927,0,0,1-.14-.14l-.04-.05.03-.24a.792.792,0,0,1,.89-.69l.15.02Z"/>
        <polygon class="cls-3" points="17.324 130.644 17.774 130.704 17.624 132.164 17.614 132.214 17.534 132.204 11.964 131.534 10.224 131.324 10.384 129.804 14.554 130.304 17.324 130.644"/>
        <path class="cls-3" d="M49.954,117.834l-.14,1.08-.24,1.77-9.37,4.47-5.07,2.41-9.42,4.48a7.927,7.927,0,0,1-2.61.8h-.19l-.18-.01-3.43-.42.12-1.11.04-.4.64.08,2.93.36,1.68.2-.05.39c.69-.23,1.37-.47,2.05-.7a2.659,2.659,0,0,0,1.79-2.17l.19-1.44.05-.34.05-.35a2.481,2.481,0,0,1,.39-.09l.38.05,5.07-2.42,11.7-5.57-3.22-.39,1.82-.87a2.761,2.761,0,0,1,1.47-.24l2.99.36h.01Z"/>
        <path class="cls-4" d="M1.038,128.544a7.1,7.1,0,0,0-1.963,3.485,7.9,7.9,0,0,0,1.91,6.612"/>
        <path class="cls-2" d="M24.414,129.344a6.559,6.559,0,0,1-1.33.49.41.41,0,0,1-.11.01l-.37-.05-.04.02-2.46,1.17,2.93.36,1.68.2-.05.39c.69-.23,1.37-.47,2.05-.7a2.659,2.659,0,0,0,1.79-2.17l.19-1.44.05-.34Zm0,0a6.559,6.559,0,0,1-1.33.49.41.41,0,0,1-.11.01l-.37-.05-.04.02-2.46,1.17,2.93.36,1.68.2-.05.39c.69-.23,1.37-.47,2.05-.7a2.659,2.659,0,0,0,1.79-2.17l.19-1.44.05-.34Zm0,0a6.559,6.559,0,0,1-1.33.49.41.41,0,0,1-.11.01l-.37-.05-.04.02-2.46,1.17,2.93.36,1.68.2-.05.39c.69-.23,1.37-.47,2.05-.7a2.659,2.659,0,0,0,1.79-2.17l.19-1.44.05-.34Zm0,0a6.559,6.559,0,0,1-1.33.49,8.089,8.089,0,0,0,2.63-.79l2.98-1.42.05-.34Zm-1.81.45-.04.02.18.02a1.7,1.7,0,0,0,.23.01Zm6.83-15.95a1.148,1.148,0,0,0-.18.01l-.07-.01a.371.371,0,0,0-.09.02,1.431,1.431,0,0,0-.29.01,9.139,9.139,0,0,0-2.33.76l-6.9,3.29-2.56,1.22.52.06,5.04.61,2.11-1.01,3.07-1.46c.11-.05.21-.1.31-.14a6.515,6.515,0,0,1,1.12-.37l.94.11,5.01-2.38.05-.03Zm-20.27,11.37-3.92-.47-3.84,1.83a5.523,5.523,0,0,0-.89.51,1.94,1.94,0,0,0-.94,1.21l-.14.77.42.51.04.05a.927.927,0,0,0,.14.14,1.8,1.8,0,0,0,.95.45l7.56.91.16-1.53.15-1.43v-.02l-3.01-.36,3.21-1.53Zm43.46-7.42a1.567,1.567,0,0,0-.95-1.19,1.42,1.42,0,0,0-.47-.13l-4.54-.55-5.04,2.41,1.49.18,3.22.39-11.7,5.57-5.07,2.42-.82.39-4.33,2.06a6.559,6.559,0,0,1-1.33.49.41.41,0,0,1-.11.01l-.37-.05-2.99-.36v.03l-.15,1.44-.04.4-.12,1.11,3.43.42.18.01h.19a7.927,7.927,0,0,0,2.61-.8l9.42-4.48,5.07-2.41,9.37-4.47.89-.42.31-.15C51.444,119.794,52.844,119.124,52.624,117.794Zm-42.08,10.55-.01.02-.15,1.44-.16,1.52,1.74.21,5.57.67.08.01.01-.05.15-1.46.15-1.45.01-.02-.9-.11Zm13.87,1a6.559,6.559,0,0,1-1.33.49.41.41,0,0,1-.11.01l-.37-.05-.04.02-2.46,1.17,2.93.36,1.68.2-.05.39c.69-.23,1.37-.47,2.05-.7a2.659,2.659,0,0,0,1.79-2.17l.19-1.44.05-.34Zm0,0a6.559,6.559,0,0,1-1.33.49.41.41,0,0,1-.11.01l-.37-.05-.04.02-2.46,1.17,2.93.36,1.68.2-.05.39c.69-.23,1.37-.47,2.05-.7a2.659,2.659,0,0,0,1.79-2.17l.19-1.44.05-.34Zm0,0a6.559,6.559,0,0,1-1.33.49.41.41,0,0,1-.11.01l-.37-.05-.04.02-2.46,1.17,2.93.36,1.68.2-.05.39c.69-.23,1.37-.47,2.05-.7a2.659,2.659,0,0,0,1.79-2.17l.19-1.44.05-.34Zm0,0a6.559,6.559,0,0,1-1.33.49.41.41,0,0,1-.11.01l-.37-.05-.04.02-2.46,1.17,2.93.36,1.68.2-.05.39c.69-.23,1.37-.47,2.05-.7a2.659,2.659,0,0,0,1.79-2.17l.19-1.44.05-.34Z"/>
      </g>
      <g>
        <path class="cls-2" d="M5.244,124.744,3,124.474l-2.61-.32c-.1.08-.2.16-.3.25a1.64,1.64,0,0,0-.54,1.49,1.579,1.579,0,0,0,.96,1.19,1.491,1.491,0,0,0,.47.13l7.87.95v-.02l.2-1.89.11-1.04Zm47.38-9.96a1.6,1.6,0,0,0-1.42-1.31l-2.37-.29-.2,1.47c0,.01,0,.01-.01.02a2.732,2.732,0,0,1-1.2.89l-.76.36-5.04,2.41-13.19,6.3c-1.34.66-2.69,1.33-4.04,1.99a2.578,2.578,0,0,1-1.5.25l-2.97-.36-.31,2.92v.03l2.95.35.18.02a1.7,1.7,0,0,0,.23.01.41.41,0,0,0,.11-.01,8.089,8.089,0,0,0,2.63-.79l2.98-1.42,1.4-.67,5.08-2.41,14.22-6.78h.01l1.37-.65a6.3,6.3,0,0,0,.9-.51A1.816,1.816,0,0,0,52.624,114.784Zm-42.08,13.56-.01.02,6.46.78.93.11.01-.02.3-2.92-7.38-.9Zm20.89-17.25-1.99-.24a7.036,7.036,0,0,0-2.98.78l-11.91,5.67-2.59,1.23,5.05.61.52.06,2.57-1.22,7.65-3.64a8.172,8.172,0,0,1,1.04-.41,1.556,1.556,0,0,1,.3-.07.86.86,0,0,1,.16-.01l5.88.71.05-.03,5.02-2.38Z"/>
        <path class="cls-3" d="M49.954,104.834l-.14,1.08-.24,1.77-9.37,4.47-5.02,2.38-.05.03-5.01,2.38-4.41,2.1a7.927,7.927,0,0,1-2.61.8h-.19l-.18-.01-.16-.02-5.04-.61-.52-.06-5.05-.61-10.98-1.32a1.8,1.8,0,0,1-.95-.45c-.08.13-.17.27-.25.42l.07-.61.03-.24a.792.792,0,0,1,.89-.69l.15.02.13.01,13.5,1.63,2.77.34,2.25.28.53.06,2.93.36,1.68.2-.03.26-.02.13c.69-.23,1.37-.47,2.05-.7a2.626,2.626,0,0,0,1.35-1.03,2.522,2.522,0,0,0,.44-1.14l.29-2.13.01-.06.17-1.28a.512.512,0,0,1,.2-.26,4.56,4.56,0,0,1,1-.64l1.26-.6,13.5-6.45a2.761,2.761,0,0,1,1.47-.24Z"/>
        <path class="cls-4" d="M.984,125.644a9.4,9.4,0,0,1-.89-1.24c-.06-.1-.12-.2-.18-.31a8.381,8.381,0,0,1-.75-1.85v-.01a6.576,6.576,0,0,1,.62-5.04v-.01c.08-.15.17-.29.25-.42a6.648,6.648,0,0,1,.89-1.1,1.2,1.2,0,0,1,.11-.12"/>
        <path class="cls-2" d="M50.774,107.114l-.31.15-.89.42-9.37,4.47-5.02,2.38-.05.03-5.01,2.38-4.41,2.1a7.927,7.927,0,0,1-2.61.8h-.19l-.18-.01-.16-.02-5.04-.61-.52-.06-5.05-.61-10.98-1.32a1.8,1.8,0,0,1-.95-.45.927.927,0,0,1-.14-.14l-.04-.05-.42-.51.14-.77c.15-.67.68-1.17,1.83-1.72l25.07-11.94a7.112,7.112,0,0,1,2.96-.79l21.77,2.63a1.615,1.615,0,0,1,1.42,1.32C52.844,106.124,51.444,106.794,50.774,107.114Z"/>
      </g>
      <g>
        <path class="cls-2" d="M18.454,124.264l-.22,2.05-.3,2.92-.01.02-.15,1.45-.15,1.46-.01.05-.4,3.8c-.01.16-.27.21-.4.09l-2.89-2.79a.289.289,0,0,0-.32-.03l-3.41,2.12c-.16.1-.39-.01-.38-.17l.41-3.91.16-1.52.15-1.44.01-.02.31-2.93.2-1.93,7.38.78Z"/>
        <polygon class="cls-2" points="20.334 122.734 18.794 123.974 18.784 123.974 18.434 124.264 11.054 123.484 11.034 123.484 11.384 123.204 12.934 121.954 20.334 122.734"/>
      </g>
      <g>
        <path class="cls-2" d="M34.326,12.633q-.675.435-1.471.916c.586.03,1.166.065,1.751.105.521-.325.981-.626,1.4-.9C35.442,12.708,34.886,12.668,34.326,12.633Zm-16.73.09q.622.42,1.4.906c.59-.035,1.176-.07,1.766-.1q-.8-.48-1.486-.916C18.717,12.643,18.157,12.683,17.6,12.723Zm28.312,4.433a9.1,9.1,0,0,0-4.363-3.462,10.853,10.853,0,0,0-1.16-.38c.03.08.055.16.08.24,0,.015.11.35.24.9a8.29,8.29,0,0,1,1.131.461A7.926,7.926,0,0,1,45.068,17.7a6.946,6.946,0,0,1,.78,6,121.091,121.091,0,0,0-4.6,28.117,2.671,2.671,0,0,1-1.786,2.551,79.882,79.882,0,0,1-25.69,0,2.671,2.671,0,0,1-1.786-2.551A121.037,121.037,0,0,0,7.375,23.69,6.936,6.936,0,0,1,8.161,17.7a8.045,8.045,0,0,1,3.677-2.992,8.513,8.513,0,0,1,1.14-.395c.116-.465.2-.745.206-.76.04-.12.075-.235.12-.355a9.657,9.657,0,0,0-1.146.325A9.172,9.172,0,0,0,7.32,17.156a7.892,7.892,0,0,0-.9,6.824,120.212,120.212,0,0,1,4.562,27.887,3.621,3.621,0,0,0,2.627,3.5,81.144,81.144,0,0,0,13,1.05,81.156,81.156,0,0,0,13.007-1.05,3.619,3.619,0,0,0,2.622-3.5A120.4,120.4,0,0,1,46.8,24,7.92,7.92,0,0,0,45.908,17.156Z"/>
        <g>
          <path class="cls-2" d="M15.1,9.316a.367.367,0,0,1,.04-.17q-.322.547-.6,1.111A15.285,15.285,0,0,0,17.6,12.723c.561-.04,1.121-.08,1.681-.11C16.521,10.867,15.17,9.732,15.1,9.316Zm0,0a.367.367,0,0,1,.04-.17q-.322.547-.6,1.111A15.285,15.285,0,0,0,17.6,12.723c.561-.04,1.121-.08,1.681-.11C16.521,10.867,15.17,9.732,15.1,9.316Zm24.284-.655c-.04-.065-.08-.135-.125-.2a.172.172,0,0,0-.045-.06C37.828,6.56,32.3,5.6,26.822,5.6c-5.554,0-11.162.986-12.453,2.877a1.677,1.677,0,0,0-.105.18,1.384,1.384,0,0,0-.165.655c0,.155,0,.421.44.941A15.285,15.285,0,0,0,17.6,12.723q.622.42,1.4.906c1.421.895,3.257,1.971,5.618,3.272l.541.3c.1.05.2.1.3.16a2.836,2.836,0,0,0,1.191.345c.06,0,.12,0,.18,0s.13,0,.19,0h0a2.854,2.854,0,0,0,1.176-.345l.3-.165c.18-.1.36-.2.535-.29,2.341-1.291,4.162-2.357,5.578-3.247.521-.325.981-.626,1.4-.9a15.689,15.689,0,0,0,3.112-2.506c.43-.515.43-.776.43-.931A1.44,1.44,0,0,0,39.384,8.661Zm-.84.645c-.08.426-1.441,1.571-4.218,3.327q-.675.435-1.471.916-2.146,1.3-5.143,2.932a1.875,1.875,0,0,1-1.781,0q-3.016-1.644-5.168-2.952-.8-.48-1.486-.916c-2.756-1.746-4.107-2.881-4.177-3.3a.367.367,0,0,1,.04-.17.51.51,0,0,1,.08-.155,0,0,0,0,0,0,0c.765-1.066,5.123-2.381,11.6-2.381,6.539,0,10.921,1.345,11.622,2.416.02.03.035.065.055.095A.527.527,0,0,1,38.544,9.306ZM19.277,12.613c-2.756-1.746-4.107-2.881-4.177-3.3a.367.367,0,0,1,.04-.17q-.322.547-.6,1.111A15.285,15.285,0,0,0,17.6,12.723q.622.42,1.4.906c.59-.035,1.176-.07,1.766-.1Q19.961,13.049,19.277,12.613Z"/>
          <path class="cls-2" d="M26.827,17.611a.388.388,0,0,1-.11.06l-.075.03-1.061.4c-1.371.521-2.772,1.051-4.148,1.646-.655.281-1.3.576-1.941.891-.915.455-1.816.976-2.681,1.486-.7.405-1.426.83-2.157,1.216l-.13.07a3.131,3.131,0,0,1-1.39.49.943.943,0,0,1-.706-.285.837.837,0,0,1-.16-.23c-1.376-2.632-.92-6.494-.43-8.676.11-.49.225-.895.32-1.185a2.3,2.3,0,0,1,.09-.265l-.015-.005a22.874,22.874,0,0,1,2.031-4.593c.025-.05.05-.095.08-.145a.212.212,0,0,1,.025-.035.5.5,0,0,1,.661-.14.49.49,0,0,1,.2.645,0,0,0,0,1,0,0,.071.071,0,0,1-.01.03c-.025.04-.05.085-.07.125q-.322.547-.6,1.111A21.144,21.144,0,0,0,13.3,13.2c-.045.12-.08.235-.12.355,0,.015-.09.295-.206.76-.425,1.706-1.24,5.894.176,8.605a2.743,2.743,0,0,0,.885-.385l.145-.08c.716-.375,1.431-.79,2.121-1.2.881-.515,1.8-1.05,2.742-1.516.58-.29,1.171-.56,1.766-.82,1.441-.63,2.907-1.186,4.343-1.726l.075-.03.59-.225.535-.2a.5.5,0,0,1,.471.055.53.53,0,0,1,.14.16.305.305,0,0,1,.035.07A.5.5,0,0,1,26.827,17.611Z"/>
          <path class="cls-2" d="M41.385,23.385a.876.876,0,0,1-.16.23.946.946,0,0,1-.71.285,3.136,3.136,0,0,1-1.386-.49L39,23.34c-.73-.386-1.456-.811-2.151-1.216-.871-.51-1.771-1.031-2.687-1.486-.635-.315-1.286-.61-1.941-.9-1.376-.59-2.777-1.12-4.148-1.641l-1.055-.4h0l-.075-.03a.388.388,0,0,1-.11-.06.5.5,0,0,1-.18-.585.305.305,0,0,1,.035-.07.447.447,0,0,1,.145-.16.52.52,0,0,1,.47-.055l.53.2h0l.591.225a.392.392,0,0,0,.07.025c1.436.545,2.9,1.1,4.342,1.731.6.26,1.186.53,1.771.82.946.466,1.861,1,2.742,1.516.69.406,1.406.821,2.116,1.2l.15.08a2.122,2.122,0,0,0,.9.365c1.356-2.641.625-6.664.2-8.445-.13-.55-.235-.885-.24-.9-.025-.08-.05-.16-.08-.24a21.987,21.987,0,0,0-1.271-3.067c-.2-.385-.4-.761-.615-1.131-.02-.03-.035-.065-.055-.095a.5.5,0,0,1,.18-.68.5.5,0,0,1,.59.06.172.172,0,0,1,.045.06.156.156,0,0,1,.045.055c.03.05.055.1.08.145a22.838,22.838,0,0,1,2.036,4.593c.01.035.06.19.125.44.081.29.186.71.291,1.221C42.286,17.041,42.761,20.758,41.385,23.385Z"/>
        </g>
      </g>
      <g>
        <path class="cls-2" d="M32.833,18.92c-.2.28-.41.55-.615.82-1.3,1.711-2.552,3.307-3.547,4.908a.755.755,0,0,1-.726.32,18.617,18.617,0,0,0-2.241,0,.749.749,0,0,1-.725-.32c-1-1.6-2.252-3.192-3.547-4.9-.206-.27-.416-.545-.621-.825,1.441-.631,2.907-1.186,4.343-1.726l-.541-.295c.406.02.806.035,1.206.04.285.01.575.015.861.015h.285c.29,0,.57,0,.86-.015h0c.4,0,.8-.02,1.2-.04-.175.095-.355.19-.535.29C29.927,17.734,31.392,18.289,32.833,18.92Z"/>
        <polygon class="cls-2" points="31.13 45.729 26.82 50.379 22.51 45.729 25.411 24.779 28.24 24.779 31.13 45.729"/>
      </g>
      <path class="cls-2" d="M124,89.267,109.341,95.7a3.322,3.322,0,0,1-4.206-1.976L89.353,66.587a3.712,3.712,0,0,1,2.134-4.778L111.16,53.18a3.713,3.713,0,0,1,4.96,1.665l.027.072L125.4,84.835A3.322,3.322,0,0,1,124,89.267ZM90.579,66.01l15.779,27.132a2.019,2.019,0,0,0,2.439,1.316l14.66-6.43a2.018,2.018,0,0,0,.683-2.686l-.026-.073-9.249-29.912a2.372,2.372,0,0,0-3.162-.938l-19.672,8.63A2.371,2.371,0,0,0,90.579,66.01Z"/>
      <path class="cls-2" d="M92.923,72.551,102.4,87.375l20.037-8.79-4.5-17Zm17.824,6.628a4.335,4.335,0,1,1,2.225-5.7A4.333,4.333,0,0,1,110.747,79.179Z"/>
      <g>
        <rect class="cls-2" x="85.132" y="55.632" width="32.927" height="4.964" rx="1.248" transform="translate(-14.787 45.706) rotate(-23.685)"/>
        <path class="cls-2" d="M114.065,51.75l-25.6,11.228a.653.653,0,0,1-.869-.3l0-4.087A.6.6,0,0,1,87.9,57.8l22.734-9.972a.6.6,0,0,1,.787.307l3,2.77A.653.653,0,0,1,114.065,51.75Z"/>
        <ellipse class="cls-2" cx="99.371" cy="53.043" rx="12.862" ry="1.096" transform="translate(-12.938 44.385) rotate(-23.685)"/>
      </g>
    </g>
    <g>
      <g>
        <path class="cls-2" d="M184.614,39.434v.03l-.15,1.44-.04.4.68-.32,2.46-1.17.04-.02Zm-2.62-.29-2.44,1.16-2.59,1.23,5.57.67.09-.04.15-1.46.15-1.45.01-.02-.9-.11Zm18.18-4.6-.54-.07-5.07,2.42.53.06,5.04.61,5.07-2.41Zm17.45,3.24a1.6,1.6,0,0,0-1.42-1.31l-2.37-.29-.2,1.47c0,.01,0,.01-.01.02a2.732,2.732,0,0,1-1.2.89l-18.99,9.07c-1.34.66-2.69,1.33-4.04,1.99a2.578,2.578,0,0,1-1.5.25L168,47.474l-2.61-.32a3.727,3.727,0,0,0-.3.26,1.647,1.647,0,0,0-.54,1.48,1.616,1.616,0,0,0,1.43,1.32l21.76,2.62a1.7,1.7,0,0,0,.23.01,7.694,7.694,0,0,0,2.74-.8l25.06-11.93C216.444,39.794,217.844,39.124,217.624,37.784Z"/>
        <path class="cls-3" d="M166.054,38.674l7.65.92-.16,1.53-7.56-.91a1.8,1.8,0,0,1-.95-.45.927.927,0,0,1-.14-.14l-.04-.05.03-.24a.792.792,0,0,1,.89-.69l.15.02Z"/>
        <polygon class="cls-3" points="182.324 40.644 182.774 40.704 182.624 42.164 182.614 42.214 182.534 42.204 176.964 41.534 175.224 41.324 175.384 39.804 179.554 40.304 182.324 40.644"/>
        <path class="cls-3" d="M214.954,27.834l-.14,1.08-.24,1.77-9.37,4.47-5.07,2.41-9.42,4.48a7.927,7.927,0,0,1-2.61.8h-.19l-.18-.01-3.43-.42.12-1.11.04-.4.64.08,2.93.36,1.68.2-.05.39c.69-.23,1.37-.47,2.05-.7a2.659,2.659,0,0,0,1.79-2.17l.19-1.44.05-.34.05-.35a2.481,2.481,0,0,1,.39-.09l.38.05,5.07-2.42,11.7-5.57-3.22-.39,1.82-.87a2.761,2.761,0,0,1,1.47-.24l2.99.36h.01Z"/>
        <path class="cls-4" d="M166.038,38.544a7.1,7.1,0,0,0-1.963,3.485,7.9,7.9,0,0,0,1.91,6.612"/>
        <path class="cls-2" d="M189.414,39.344a6.559,6.559,0,0,1-1.33.49.41.41,0,0,1-.11.01l-.37-.05-.04.02-2.46,1.17,2.93.36,1.68.2-.05.39c.69-.23,1.37-.47,2.05-.7a2.659,2.659,0,0,0,1.79-2.17l.19-1.44.05-.34Zm0,0a6.559,6.559,0,0,1-1.33.49.41.41,0,0,1-.11.01l-.37-.05-.04.02-2.46,1.17,2.93.36,1.68.2-.05.39c.69-.23,1.37-.47,2.05-.7a2.659,2.659,0,0,0,1.79-2.17l.19-1.44.05-.34Zm0,0a6.559,6.559,0,0,1-1.33.49.41.41,0,0,1-.11.01l-.37-.05-.04.02-2.46,1.17,2.93.36,1.68.2-.05.39c.69-.23,1.37-.47,2.05-.7a2.659,2.659,0,0,0,1.79-2.17l.19-1.44.05-.34Zm0,0a6.559,6.559,0,0,1-1.33.49,8.089,8.089,0,0,0,2.63-.79l2.98-1.42.05-.34Zm-1.81.45-.04.02.18.02a1.7,1.7,0,0,0,.23.01Zm6.83-15.95a1.148,1.148,0,0,0-.18.01l-.07-.01a.371.371,0,0,0-.09.02,1.431,1.431,0,0,0-.29.01,9.139,9.139,0,0,0-2.33.76l-6.9,3.29-2.56,1.22.52.06,5.04.61,2.11-1.01,3.07-1.46c.11-.05.21-.1.31-.14a6.515,6.515,0,0,1,1.12-.37l.94.11,5.01-2.38.05-.03Zm-20.27,11.37-3.92-.47-3.84,1.83a5.523,5.523,0,0,0-.89.51,1.94,1.94,0,0,0-.94,1.21l-.14.77.42.51.04.05a.927.927,0,0,0,.14.14,1.8,1.8,0,0,0,.95.45l7.56.91.16-1.53.15-1.43v-.02l-3.01-.36,3.21-1.53Zm43.46-7.42a1.567,1.567,0,0,0-.95-1.19,1.42,1.42,0,0,0-.47-.13l-4.54-.55-5.04,2.41,1.49.18,3.22.39-11.7,5.57-5.07,2.42-.82.39-4.33,2.06a6.559,6.559,0,0,1-1.33.49.41.41,0,0,1-.11.01l-.37-.05-2.99-.36v.03l-.15,1.44-.04.4-.12,1.11,3.43.42.18.01h.19a7.927,7.927,0,0,0,2.61-.8l9.42-4.48,5.07-2.41,9.37-4.47.89-.42.31-.15C216.444,29.794,217.844,29.124,217.624,27.794Zm-42.08,10.55-.01.02-.15,1.44-.16,1.52,1.74.21,5.57.67.08.01.01-.05.15-1.46.15-1.45.01-.02-.9-.11Zm13.87,1a6.559,6.559,0,0,1-1.33.49.41.41,0,0,1-.11.01l-.37-.05-.04.02-2.46,1.17,2.93.36,1.68.2-.05.39c.69-.23,1.37-.47,2.05-.7a2.659,2.659,0,0,0,1.79-2.17l.19-1.44.05-.34Zm0,0a6.559,6.559,0,0,1-1.33.49.41.41,0,0,1-.11.01l-.37-.05-.04.02-2.46,1.17,2.93.36,1.68.2-.05.39c.69-.23,1.37-.47,2.05-.7a2.659,2.659,0,0,0,1.79-2.17l.19-1.44.05-.34Zm0,0a6.559,6.559,0,0,1-1.33.49.41.41,0,0,1-.11.01l-.37-.05-.04.02-2.46,1.17,2.93.36,1.68.2-.05.39c.69-.23,1.37-.47,2.05-.7a2.659,2.659,0,0,0,1.79-2.17l.19-1.44.05-.34Zm0,0a6.559,6.559,0,0,1-1.33.49.41.41,0,0,1-.11.01l-.37-.05-.04.02-2.46,1.17,2.93.36,1.68.2-.05.39c.69-.23,1.37-.47,2.05-.7a2.659,2.659,0,0,0,1.79-2.17l.19-1.44.05-.34Z"/>
      </g>
      <g>
        <path class="cls-2" d="M170.244,34.744l-2.24-.27-2.61-.32c-.1.08-.2.16-.3.25a1.64,1.64,0,0,0-.54,1.49,1.579,1.579,0,0,0,.96,1.19,1.491,1.491,0,0,0,.47.13l7.87.95v-.02l.2-1.89.11-1.04Zm47.38-9.96a1.6,1.6,0,0,0-1.42-1.31l-2.37-.29-.2,1.47c0,.01,0,.01-.01.02a2.732,2.732,0,0,1-1.2.89l-.76.36-5.04,2.41-13.19,6.3c-1.34.66-2.69,1.33-4.04,1.99a2.578,2.578,0,0,1-1.5.25l-2.97-.36-.31,2.92v.03l2.95.35.18.02a1.7,1.7,0,0,0,.23.01.41.41,0,0,0,.11-.01,8.089,8.089,0,0,0,2.63-.79l2.98-1.42,1.4-.67,5.08-2.41,14.22-6.78h.01l1.37-.65a6.3,6.3,0,0,0,.9-.51A1.816,1.816,0,0,0,217.624,24.784Zm-42.08,13.56-.01.02,6.46.78.93.11.01-.02.3-2.92-7.38-.9Zm20.89-17.25-1.99-.24a7.036,7.036,0,0,0-2.98.78l-11.91,5.67-2.59,1.23,5.05.61.52.06,2.57-1.22,7.65-3.64a8.172,8.172,0,0,1,1.04-.41,1.556,1.556,0,0,1,.3-.07.86.86,0,0,1,.16-.01l5.88.71.05-.03,5.02-2.38Z"/>
        <path class="cls-3" d="M164.164,32.244a8.381,8.381,0,0,0,.75,1.85l-.17-.02a.8.8,0,0,1-.69-.89Z"/>
        <path class="cls-3" d="M214.954,14.834l-.14,1.08-.24,1.77-9.37,4.47-5.02,2.38-.05.03-5.01,2.38-4.41,2.1a7.927,7.927,0,0,1-2.61.8h-.19l-.18-.01-.16-.02-5.04-.61-.52-.06-5.05-.61-10.98-1.32a1.8,1.8,0,0,1-.95-.45c-.08.13-.17.27-.25.42l.07-.61.03-.24a.792.792,0,0,1,.89-.69l.15.02.13.01,13.5,1.63,2.77.34,2.25.28.53.06,2.93.36,1.68.2-.03.26-.02.13c.69-.23,1.37-.47,2.05-.7a2.626,2.626,0,0,0,1.35-1.03,2.522,2.522,0,0,0,.44-1.14l.29-2.13.01-.06.17-1.28a.512.512,0,0,1,.2-.26,4.56,4.56,0,0,1,1-.64l1.26-.6,13.5-6.45a2.761,2.761,0,0,1,1.47-.24Z"/>
        <path class="cls-4" d="M165.984,35.644a9.4,9.4,0,0,1-.89-1.24c-.06-.1-.12-.2-.18-.31a8.381,8.381,0,0,1-.75-1.85v-.01a6.576,6.576,0,0,1,.62-5.04v-.01c.08-.15.17-.29.25-.42a6.648,6.648,0,0,1,.89-1.1,1.2,1.2,0,0,1,.11-.12"/>
        <path class="cls-2" d="M215.774,17.114l-.31.15-.89.42-9.37,4.47-5.02,2.38-.05.03-5.01,2.38-4.41,2.1a7.927,7.927,0,0,1-2.61.8h-.19l-.18-.01-.16-.02-5.04-.61-.52-.06-5.05-.61-10.98-1.32a1.8,1.8,0,0,1-.95-.45.927.927,0,0,1-.14-.14l-.04-.05-.42-.51.14-.77c.15-.67.68-1.17,1.83-1.72l25.07-11.94a7.112,7.112,0,0,1,2.96-.79l21.77,2.63a1.615,1.615,0,0,1,1.42,1.32C217.844,16.124,216.444,16.794,215.774,17.114Z"/>
      </g>
      <g>
        <path class="cls-2" d="M183.454,34.264l-.22,2.05-.3,2.92-.01.02-.15,1.45-.15,1.46-.01.05-.4,3.8c-.01.16-.27.21-.4.09l-2.89-2.79a.289.289,0,0,0-.32-.03l-3.41,2.12c-.16.1-.39-.01-.38-.17l.41-3.91.16-1.52.15-1.44.01-.02.31-2.93.2-1.93,7.38.78Z"/>
        <polygon class="cls-2" points="185.334 32.734 183.794 33.974 183.784 33.974 183.434 34.264 176.054 33.484 176.034 33.484 176.384 33.204 177.934 31.954 185.334 32.734"/>
      </g>
      <path class="cls-2" d="M68.145,5.08a3.733,3.733,0,0,0,3.646-1.148A8.621,8.621,0,0,0,73.967.639a5.609,5.609,0,0,0,.384-1.867,2.066,2.066,0,0,0-.662-1.528,1.8,1.8,0,0,0-1.414-.638.947.947,0,0,0-.833.929c-.021.425.352.744.948.945a7.22,7.22,0,0,0,1.9.308,25.656,25.656,0,0,0,4.043-.154,38.432,38.432,0,0,0,7.984-1.822l-.007.07-.439-.333.483.267a.037.037,0,0,1,.014.051.035.035,0,0,1-.016.016l0,0A28.679,28.679,0,0,1,78.439-.577a22.659,22.659,0,0,1-4.194.322,8.134,8.134,0,0,1-2.168-.336A2.875,2.875,0,0,1,71-1.192a1.707,1.707,0,0,1-.551-1.284,1.855,1.855,0,0,1,.506-1.269,2.016,2.016,0,0,1,1.193-.614,2.663,2.663,0,0,1,2.229.962,2.972,2.972,0,0,1,.846,2.189,5.764,5.764,0,0,1-.55,2.132A9.068,9.068,0,0,1,72.1,4.3,3.838,3.838,0,0,1,68.145,5.08Z"/>
      <path class="cls-2" d="M289-.733,274.341,5.7a3.322,3.322,0,0,1-4.206-1.976L254.353-23.413a3.712,3.712,0,0,1,2.134-4.778L276.16-36.82a3.713,3.713,0,0,1,4.96,1.665l.027.072L290.4-5.165A3.322,3.322,0,0,1,289-.733ZM255.579-23.99,271.358,3.142A2.019,2.019,0,0,0,273.8,4.458l14.66-6.43a2.018,2.018,0,0,0,.683-2.686l-.026-.073-9.249-29.912a2.372,2.372,0,0,0-3.162-.938l-19.672,8.63A2.371,2.371,0,0,0,255.579-23.99Z"/>
    </g>
  </g>
</svg>
