<svg id="Layer_5" data-name="Layer 5" xmlns="http://www.w3.org/2000/svg" viewBox="0 0 240 181.46">
  <defs>
    <style>
      .cls-1, .cls-3 {
        fill: none;
      }

      .cls-2 {
        fill: #a9bcae;
      }

      .cls-3 {
        stroke: #a9bcae;
        stroke-miterlimit: 10;
        stroke-width: 2px;
      }
    </style>
  </defs>
  <g>
    <rect class="cls-1" width="240" height="181.46"/>
    <g>
      <rect class="cls-2" x="176.251" y="143.186" width="16.657" height="8.582" transform="translate(119.999 -79.786) rotate(35.512)"/>
      <path class="cls-2" d="M201.314,143.284l-6.426,4.08-13.557-9.675,1.773-7.4,18.849-10.643.982.7-7.8,10.932a2.237,2.237,0,1,0,1.327.947l7.8-10.932.987.7Z"/>
    </g>
    <g>
      <path class="cls-2" d="M32.89,184.256v2.28H5.568v-2.28c0-3.161,2.228-5.749,4.949-5.749H27.941C30.662,178.507,32.89,181.1,32.89,184.256Z"/>
      <path class="cls-2" d="M22.872,180.805H15.587l-1.858-1.858v-.88a1.862,1.862,0,0,0,1.858-1.857h7.285a1.862,1.862,0,0,0,1.857,1.857v.88Z"/>
      <path class="cls-2" d="M15.668,169.48h0c-2.716-5.376-5.194-6.176-2.706-12.522,3.083-6.369,9.451-6.369,12.535,0,2.488,6.346.009,7.146-2.707,12.522h0c-2.478,4.85-1.4,10.192-2.317,10.961a1.6,1.6,0,0,1-2.488,0C17.071,179.672,18.147,174.33,15.668,169.48Z"/>
    </g>
    <g>
      <path class="cls-2" d="M241.032,72.1a5.293,5.293,0,0,0-5.871,5.782,6.4,6.4,0,0,0,2.008,4.548c5.907,5.172,11.77,10.556,17.428,16a7.88,7.88,0,0,0,2.81,1.666,2.554,2.554,0,0,1,1.468,1.235,3.3,3.3,0,0,0,.572.786,3.828,3.828,0,0,0,5.437-5.354,3.291,3.291,0,0,0-.776-.585,2.544,2.544,0,0,1-1.2-1.478,7.8,7.8,0,0,0-1.639-2.844c-5.351-5.734-10.637-11.686-15.71-17.651A6.369,6.369,0,0,0,241.032,72.1Zm18.62,21.257.042.051c.446.548.85,1.111,1.305,1.655a24.85,24.85,0,0,1,1.594,2.193,6.961,6.961,0,0,0,.716,1.06,1.638,1.638,0,0,1-2.287,2.252,8.032,8.032,0,0,0-1.231-.853c-1.142-.777-2.156-1.735-3.264-2.56a15.165,15.165,0,0,1-1.359-1.251q-.783-.749-1.57-1.494-1.577-1.494-3.166-2.975-3.184-2.969-6.419-5.882-2.681-2.414-5.4-4.788a4.308,4.308,0,0,1-1.25-2.965,3.1,3.1,0,0,1,3.548-3.494,4.3,4.3,0,0,1,2.946,1.309q2.807,3.313,5.675,6.574t5.8,6.484q1.46,1.6,2.931,3.2C258.724,92.362,259.223,92.837,259.652,93.356Z"/>
      <path class="cls-2" d="M245.662,69.632l.835.848a3.2,3.2,0,0,1-.028,4.5l-8.515,8.384a3.2,3.2,0,0,1-4.5-.042l-.835-.848a3.194,3.194,0,0,1,.035-4.5l1.325-1.3c-.084-.071-.168-.156-.252-.242L230.6,74.105a4.691,4.691,0,0,1-1.3-1.439,4.821,4.821,0,0,1,.822-5.778,4.833,4.833,0,0,1,5.79-.733,4.543,4.543,0,0,1,1.411,1.333l2.281,3.158c.084.085.168.171.239.256l1.325-1.305A3.188,3.188,0,0,1,245.662,69.632Z"/>
      <path class="cls-2" d="M199.972,16.127c1.07.525,1.113,2.648.1,4.717L187.049,49.386c-.988,2.012-3.03,3.052-4.539,2.311"/>
      <path class="cls-2" d="M174.366,43.219h0c-.68-1.537.441-3.536,2.491-4.442L205.9,26.91c2.108-.932,4.227-.8,4.709.286h0"/>
      <ellipse class="cls-3" cx="208.498" cy="32.419" rx="5.942" ry="4.861" transform="matrix(0.86, -0.511, 0.511, 0.86, 12.7, 111.066)"/>
      <ellipse class="cls-3" cx="194.705" cy="18.062" rx="5.942" ry="4.861" transform="translate(73.465 171.481) rotate(-56.982)"/>
    </g>
    <g>
      <rect class="cls-2" x="56.251" y="52.456" width="16.657" height="8.582" transform="translate(44.975 -26.957) rotate(35.512)"/>
      <path class="cls-2" d="M81.314,52.554l-6.426,4.08L61.331,46.959l1.773-7.4L81.953,28.917l.982.7-7.8,10.933a2.237,2.237,0,1,0,1.327.947l7.8-10.933.987.7Z"/>
      <path class="cls-2" d="M121.032,162.829a5.293,5.293,0,0,0-5.871,5.781,6.4,6.4,0,0,0,2.008,4.549c5.907,5.172,11.77,10.556,17.428,16a7.88,7.88,0,0,0,2.81,1.666,2.554,2.554,0,0,1,1.468,1.235,3.276,3.276,0,0,0,.572.786,3.828,3.828,0,0,0,5.437-5.354,3.291,3.291,0,0,0-.776-.585,2.544,2.544,0,0,1-1.2-1.478,7.8,7.8,0,0,0-1.639-2.844c-5.351-5.734-10.637-11.686-15.71-17.651A6.365,6.365,0,0,0,121.032,162.829Zm18.62,21.257.042.051c.446.548.85,1.111,1.305,1.655a24.984,24.984,0,0,1,1.594,2.192,6.921,6.921,0,0,0,.716,1.061,1.638,1.638,0,0,1-2.287,2.252,8.032,8.032,0,0,0-1.231-.853c-1.142-.777-2.156-1.736-3.264-2.56a15.165,15.165,0,0,1-1.359-1.251q-.783-.749-1.57-1.494-1.577-1.494-3.166-2.976-3.184-2.967-6.419-5.881-2.681-2.414-5.4-4.788a4.308,4.308,0,0,1-1.25-2.965,3.106,3.106,0,0,1,3.548-3.5,4.309,4.309,0,0,1,2.946,1.31q2.807,3.314,5.675,6.574t5.8,6.484q1.46,1.6,2.931,3.2C138.724,183.092,139.223,183.567,139.652,184.086Z"/>
      <path class="cls-2" d="M125.662,160.362l.835.848a3.2,3.2,0,0,1-.028,4.5l-8.515,8.384a3.2,3.2,0,0,1-4.5-.042l-.835-.848a3.194,3.194,0,0,1,.035-4.5l1.325-1.305c-.084-.071-.168-.157-.252-.242l-3.122-2.329a4.691,4.691,0,0,1-1.3-1.439,4.819,4.819,0,0,1,.822-5.778,4.833,4.833,0,0,1,5.79-.733,4.543,4.543,0,0,1,1.411,1.333l2.281,3.158c.084.085.168.171.239.256l1.325-1.305A3.188,3.188,0,0,1,125.662,160.362Z"/>
      <path class="cls-2" d="M79.972,106.857c1.07.525,1.113,2.648.1,4.717L67.049,140.116c-.988,2.012-3.03,3.052-4.539,2.311"/>
      <path class="cls-2" d="M54.366,133.949h0c-.68-1.537.441-3.536,2.491-4.443L85.9,117.64c2.108-.932,4.227-.8,4.709.286h0"/>
      <ellipse class="cls-3" cx="88.498" cy="123.149" rx="5.942" ry="4.861" transform="matrix(0.86, -0.511, 0.511, 0.86, -50.494, 62.495)"/>
      <ellipse class="cls-3" cx="74.705" cy="108.792" rx="5.942" ry="4.861" transform="translate(-57.224 112.152) rotate(-56.982)"/>
      <rect class="cls-2" x="126.61" y="97.098" width="25.239" height="3.002" rx="1.214"/>
      <path class="cls-2" d="M152.89,93.526v2.28H125.568v-2.28c0-3.16,2.228-5.749,4.949-5.749h17.424C150.662,87.777,152.89,90.366,152.89,93.526Z"/>
      <path class="cls-2" d="M142.872,90.075h-7.285l-1.858-1.858v-.879a1.863,1.863,0,0,0,1.858-1.858h7.285a1.863,1.863,0,0,0,1.857,1.858v.879Z"/>
      <path class="cls-2" d="M135.668,78.751h0c-2.716-5.376-5.194-6.176-2.706-12.522,3.083-6.369,9.451-6.369,12.535,0,2.488,6.346.009,7.146-2.707,12.522h0c-2.478,4.849-1.4,10.191-2.317,10.96a1.6,1.6,0,0,1-2.488,0C137.071,88.942,138.147,83.6,135.668,78.751Z"/>
    </g>
    <g>
      <path class="cls-2" d="M1.032,72.1a5.626,5.626,0,0,0-4.325,1.494,5.615,5.615,0,0,0-1.546,4.288,6.4,6.4,0,0,0,2.008,4.548c5.907,5.172,11.77,10.556,17.428,16a7.88,7.88,0,0,0,2.81,1.666,2.554,2.554,0,0,1,1.468,1.235,3.276,3.276,0,0,0,.572.786,3.828,3.828,0,0,0,5.437-5.354,3.291,3.291,0,0,0-.776-.585,2.544,2.544,0,0,1-1.2-1.478,7.8,7.8,0,0,0-1.639-2.844c-5.351-5.734-10.637-11.686-15.71-17.651A6.369,6.369,0,0,0,1.032,72.1Zm18.62,21.257.042.051c.446.548.85,1.111,1.3,1.655a24.85,24.85,0,0,1,1.594,2.193,6.961,6.961,0,0,0,.716,1.06,1.638,1.638,0,0,1-2.287,2.252,8.032,8.032,0,0,0-1.231-.853c-1.142-.777-2.156-1.735-3.264-2.56A15.165,15.165,0,0,1,15.168,95.9q-.783-.749-1.57-1.494-1.577-1.494-3.166-2.975-3.185-2.969-6.419-5.882-2.68-2.414-5.395-4.788A4.308,4.308,0,0,1-2.632,77.8a3.5,3.5,0,0,1,.89-2.631,3.508,3.508,0,0,1,2.658-.863,4.3,4.3,0,0,1,2.946,1.309q2.807,3.313,5.675,6.574t5.8,6.484q1.459,1.6,2.931,3.2C18.724,92.362,19.223,92.837,19.652,93.356Z"/>
      <path class="cls-2" d="M5.662,69.632l.835.848a3.2,3.2,0,0,1-.028,4.5l-8.515,8.384a3.2,3.2,0,0,1-4.5-.042l-.835-.848a3.194,3.194,0,0,1,.035-4.5l1.325-1.3c-.084-.071-.168-.156-.253-.242L-9.4,74.105a4.691,4.691,0,0,1-1.3-1.439,4.819,4.819,0,0,1,.822-5.778,4.753,4.753,0,0,1,2.8-1.343,4.8,4.8,0,0,1,2.986.61A4.543,4.543,0,0,1-2.68,67.488L-.4,70.646c.084.085.168.171.238.256L1.165,69.6A3.188,3.188,0,0,1,5.662,69.632Z"/>
      <rect class="cls-2" x="6.61" y="6.368" width="25.239" height="3.002" rx="1.214"/>
      <path class="cls-2" d="M32.89,2.8V5.076H5.568V2.8c0-3.161,2.228-5.749,4.949-5.749H27.941C30.662-2.952,32.89-.364,32.89,2.8Z"/>
    </g>
    <path class="cls-2" d="M121.032-18.631a5.626,5.626,0,0,0-4.325,1.494,5.615,5.615,0,0,0-1.546,4.288A6.4,6.4,0,0,0,117.169-8.3c5.907,5.172,11.77,10.556,17.428,16a7.9,7.9,0,0,0,2.81,1.666,2.549,2.549,0,0,1,1.468,1.234,3.276,3.276,0,0,0,.572.786,3.683,3.683,0,0,0,5.192-.172,3.674,3.674,0,0,0,.245-5.182,3.318,3.318,0,0,0-.776-.585,2.544,2.544,0,0,1-1.2-1.478,7.8,7.8,0,0,0-1.639-2.844c-5.351-5.733-10.637-11.686-15.71-17.651A6.369,6.369,0,0,0,121.032-18.631Zm18.62,21.257.042.051c.446.548.85,1.111,1.305,1.655a24.85,24.85,0,0,1,1.594,2.193,6.961,6.961,0,0,0,.716,1.06,1.474,1.474,0,0,1-.221,2.056,1.485,1.485,0,0,1-2.066.2,8.032,8.032,0,0,0-1.231-.853c-1.142-.777-2.156-1.735-3.264-2.56a15.165,15.165,0,0,1-1.359-1.251q-.783-.748-1.57-1.494Q132.022,2.185,130.432.7q-3.184-2.968-6.419-5.882-2.681-2.413-5.4-4.788a4.308,4.308,0,0,1-1.25-2.965,3.5,3.5,0,0,1,.89-2.631,3.508,3.508,0,0,1,2.658-.863,4.308,4.308,0,0,1,2.946,1.309q2.807,3.313,5.675,6.574t5.8,6.484q1.46,1.6,2.931,3.2C138.724,1.632,139.223,2.107,139.652,2.626Z"/>
  </g>
</svg>
