<svg xmlns="http://www.w3.org/2000/svg" viewBox="0 0 42 47.322">
  <defs>
    <style>
      .cls-1 {
        fill: #1c213e;
      }

      .cls-2 {
        opacity: 0.3;
      }

      .cls-3 {
        fill: none;
      }

      .cls-4 {
        fill: #b96d00;
      }
    </style>
  </defs>
  <g id="Layer_5" data-name="Layer 5">
    <rect class="cls-1" x="-16.068" y="-24.292" width="73.771" height="96.004"/>
  </g>
  <g id="Layer_7" data-name="Layer 7">
    <g class="cls-2">
      <rect class="cls-3" width="42" height="47.322"/>
      <g>
        <path class="cls-4" d="M39.41,39.572h-.5l.05.5h.51Zm9.73,0-.13.5h5.61L44.2,63.662l-.22.5h.54l.22-.5,10.65-24.09ZM42,69.152l-.71-.89.71,1.61.71-1.61Zm-2.2-5.49L29.37,40.072h5.61l-.13-.5H28.61l10.65,24.09.22.5h.54Zm4.79-24.09-.06.5h.5l.06-.5Z"/>
        <path class="cls-4" d="M40.71,61.9l-5.73-21.83-.13-.5-2.05-7.81h5.74l-.05-.5H32.15l2.18,8.31.13.5,5.98,22.78.25.95.27-.95Zm4.8-30.64-.05.5h5.73l-2.05,7.81-.13.5L43.29,61.9l-.25.95.27.95.25-.95,5.97-22.78.13-.5,2.18-8.31Z"/>
        <path class="cls-4" d="M44.53,40.072l-2.09,18.82-.15,1.31.36,1.27.15-1.31,2.23-20.09Zm-2.97,18.82-2.09-18.82-.06-.5-.87-7.81h-.5l.87,7.81.05.5,2.24,20.09.15,1.31.36-1.27Zm0,0-2.09-18.82-.06-.5-.87-7.81h-.5l.87,7.81.05.5,2.24,20.09.15,1.31.36-1.27Zm0,0-2.09-18.82-.06-.5-.87-7.81h-.5l.87,7.81.05.5,2.24,20.09.15,1.31.36-1.27Zm-4.31-34.2.73,6.57.06.5.87,7.81.05.5,2.24,20.09.15,1.31.36-1.27-.15-1.31-2.09-18.82-.06-.5-.87-7.81-.05-.5-.68-6.07h8.38l-.68,6.07-.05.5-.87,7.81-.06.5-2.09,18.82-.15,1.31.36,1.27.15-1.31,2.23-20.09.06-.5.86-7.81.06-.5.73-6.57Zm4.31,34.2-2.09-18.82-.06-.5-.87-7.81h-.5l.87,7.81.05.5,2.24,20.09.15,1.31.36-1.27Zm0,0-2.09-18.82-.06-.5-.87-7.81h-.5l.87,7.81.05.5,2.24,20.09.15,1.31.36-1.27Zm0,0-2.09-18.82-.06-.5-.87-7.81h-.5l.87,7.81.05.5,2.24,20.09.15,1.31.36-1.27Z"/>
      </g>
      <g>
        <path class="cls-4" d="M-2.59,39.572h-.5l.05.5h.51Zm9.73,0-.13.5h5.61L2.2,63.662l-.22.5h.54l.22-.5,10.65-24.09ZM0,69.152l-.71-.89L0,69.872l.71-1.61Zm-2.2-5.49-10.43-23.59h5.61l-.13-.5h-6.24l10.65,24.09.22.5h.54Zm4.79-24.09-.06.5h.5l.06-.5Z"/>
        <path class="cls-4" d="M-1.29,61.9l-5.73-21.83-.13-.5-2.05-7.81h5.74l-.05-.5H-9.85l2.18,8.31.13.5,5.98,22.78.25.95.27-.95Zm4.8-30.64-.05.5H9.19l-2.05,7.81-.13.5L1.29,61.9l-.25.95.27.95.25-.95,5.97-22.78.13-.5,2.18-8.31Z"/>
        <path class="cls-4" d="M2.53,40.072.44,58.892.29,60.2l.36,1.27.15-1.31,2.23-20.09ZM-.44,58.892l-2.09-18.82-.06-.5-.87-7.81h-.5l.87,7.81.05.5L-.8,60.162l.15,1.31.36-1.27Zm0,0-2.09-18.82-.06-.5-.87-7.81h-.5l.87,7.81.05.5L-.8,60.162l.15,1.31.36-1.27Zm0,0-2.09-18.82-.06-.5-.87-7.81h-.5l.87,7.81.05.5L-.8,60.162l.15,1.31.36-1.27Zm-4.31-34.2.73,6.57.06.5.87,7.81.05.5L-.8,60.162l.15,1.31.36-1.27-.15-1.31-2.09-18.82-.06-.5-.87-7.81-.05-.5-.68-6.07H4.19l-.68,6.07-.05.5-.87,7.81-.06.5L.44,58.892.29,60.2l.36,1.27.15-1.31,2.23-20.09.06-.5.86-7.81.06-.5.73-6.57Zm4.31,34.2-2.09-18.82-.06-.5-.87-7.81h-.5l.87,7.81.05.5L-.8,60.162l.15,1.31.36-1.27Zm0,0-2.09-18.82-.06-.5-.87-7.81h-.5l.87,7.81.05.5L-.8,60.162l.15,1.31.36-1.27Zm0,0-2.09-18.82-.06-.5-.87-7.81h-.5l.87,7.81.05.5L-.8,60.162l.15,1.31.36-1.27Z"/>
      </g>
      <g>
        <path class="cls-4" d="M39.41-7.749h-.5l.05.5h.51Zm9.73,0-.13.5h5.61L44.2,16.341l-.22.5h.54l.22-.5L55.39-7.749ZM42,21.831l-.71-.89.71,1.61.71-1.61Zm-2.2-5.49L29.37-7.249h5.61l-.13-.5H28.61l10.65,24.09.22.5h.54Zm4.79-24.09-.06.5h.5l.06-.5Z"/>
        <path class="cls-4" d="M40.71,14.581,34.98-7.249l-.13-.5-2.05-7.81h5.74l-.05-.5H32.15l2.18,8.31.13.5,5.98,22.78.25.95.27-.95Zm4.8-30.64-.05.5h5.73l-2.05,7.81-.13.5-5.72,21.83-.25.95.27.95.25-.95,5.97-22.78.13-.5,2.18-8.31Z"/>
        <path class="cls-4" d="M44.53-7.249l-2.09,18.82-.15,1.31.36,1.27.15-1.31,2.23-20.09Zm-2.97,18.82L39.47-7.249l-.06-.5-.87-7.81h-.5l.87,7.81.05.5,2.24,20.09.15,1.31.36-1.27Zm0,0L39.47-7.249l-.06-.5-.87-7.81h-.5l.87,7.81.05.5,2.24,20.09.15,1.31.36-1.27Zm0,0L39.47-7.249l-.06-.5-.87-7.81h-.5l.87,7.81.05.5,2.24,20.09.15,1.31.36-1.27Zm-4.31-34.2.73,6.57.06.5.87,7.81.05.5,2.24,20.09.15,1.31.36-1.27-.15-1.31L39.47-7.249l-.06-.5-.87-7.81-.05-.5-.68-6.07h8.38l-.68,6.07-.05.5-.87,7.81-.06.5-2.09,18.82-.15,1.31.36,1.27.15-1.31,2.23-20.09.06-.5.86-7.81.06-.5.73-6.57Zm4.31,34.2L39.47-7.249l-.06-.5-.87-7.81h-.5l.87,7.81.05.5,2.24,20.09.15,1.31.36-1.27Zm0,0L39.47-7.249l-.06-.5-.87-7.81h-.5l.87,7.81.05.5,2.24,20.09.15,1.31.36-1.27Zm0,0L39.47-7.249l-.06-.5-.87-7.81h-.5l.87,7.81.05.5,2.24,20.09.15,1.31.36-1.27Z"/>
        <path class="cls-4" d="M43.79,16.341l-.23-.81-.27-.95-.49-1.74-.32-1.12-.04-.15L42,10.021l-.44,1.55-.04.15-.32,1.12-.49,1.74-.27.95-.23.81H36.96l.66.81,3.99,4.99.39.49.39-.49,3.99-4.99.65-.81Zm-1.08,4.6-.71.89-.71-.89-3.28-4.1h2.58l.1-.36.27-.95.39-1.37v-.01l.36-1.27.29-1.03.29,1.03.36,1.27v.01l.39,1.37.27.95.1.36h2.58Z"/>
      </g>
      <g>
        <path class="cls-4" d="M18.41,15.912h-.5l.05.5h.51Zm9.73,0-.13.5h5.61L23.2,40l-.22.5h.54l.22-.5L34.39,15.912ZM21,45.491l-.71-.889.71,1.61.71-1.61ZM18.8,40,8.37,16.412h5.61l-.13-.5H7.61L18.26,40l.22.5h.54Zm4.79-24.089-.06.5h.5l.06-.5Z"/>
        <path class="cls-4" d="M19.71,38.241,13.98,16.412l-.13-.5L11.8,8.1h5.74l-.05-.5H11.15l2.18,8.31.13.5,5.98,22.78.25.95.27-.95ZM24.51,7.6l-.05.5h5.73l-2.05,7.81-.13.5L22.29,38.241l-.25.951.27.95.25-.95,5.97-22.78.13-.5L30.84,7.6Z"/>
        <path class="cls-4" d="M23.53,16.412,21.44,35.231l-.15,1.31.36,1.27.15-1.31,2.23-20.089ZM20.56,35.231,18.47,16.412l-.06-.5L17.54,8.1h-.5l.87,7.81.05.5L20.2,36.5l.15,1.31.36-1.27Zm0,0L18.47,16.412l-.06-.5L17.54,8.1h-.5l.87,7.81.05.5L20.2,36.5l.15,1.31.36-1.27Zm0,0L18.47,16.412l-.06-.5L17.54,8.1h-.5l.87,7.81.05.5L20.2,36.5l.15,1.31.36-1.27Zm-4.31-34.2.73,6.57.06.5.87,7.81.05.5L20.2,36.5l.15,1.31.36-1.27-.15-1.31L18.47,16.412l-.06-.5L17.54,8.1l-.05-.5-.68-6.07h8.38L24.51,7.6l-.05.5-.87,7.81-.06.5L21.44,35.231l-.15,1.31.36,1.27.15-1.31,2.23-20.089.06-.5.86-7.81.06-.5.73-6.57Zm4.31,34.2L18.47,16.412l-.06-.5L17.54,8.1h-.5l.87,7.81.05.5L20.2,36.5l.15,1.31.36-1.27Zm0,0L18.47,16.412l-.06-.5L17.54,8.1h-.5l.87,7.81.05.5L20.2,36.5l.15,1.31.36-1.27Zm0,0L18.47,16.412l-.06-.5L17.54,8.1h-.5l.87,7.81.05.5L20.2,36.5l.15,1.31.36-1.27Z"/>
        <path class="cls-4" d="M22.79,40l-.23-.809-.27-.951L21.8,36.5l-.32-1.119-.04-.151L21,33.681l-.44,1.55-.04.151L20.2,36.5l-.49,1.74-.27.951L19.21,40H15.96l.66.81,3.99,4.99.39.49.39-.49,3.99-4.99.65-.81Zm-1.08,4.6-.71.889-.71-.889-3.28-4.1h2.58l.1-.359.27-.95.39-1.37v-.011l.36-1.27L21,35.512l.29,1.029.36,1.27v.011l.39,1.37.27.95.1.359h2.58Z"/>
      </g>
      <g>
        <path class="cls-4" d="M-2.59-7.749h-.5l.05.5h.51Zm9.73,0-.13.5h5.61L2.2,16.341l-.22.5h.54l.22-.5L13.39-7.749ZM0,21.831l-.71-.89L0,22.551l.71-1.61Zm-2.2-5.49L-12.63-7.249h5.61l-.13-.5h-6.24l10.65,24.09.22.5h.54ZM2.59-7.749l-.06.5h.5l.06-.5Z"/>
        <path class="cls-4" d="M-1.29,14.581-7.02-7.249l-.13-.5-2.05-7.81h5.74l-.05-.5H-9.85l2.18,8.31.13.5,5.98,22.78.25.95.27-.95Zm4.8-30.64-.05.5H9.19L7.14-7.749l-.13.5L1.29,14.581l-.25.95.27.95.25-.95L7.53-7.249l.13-.5,2.18-8.31Z"/>
        <path class="cls-4" d="M2.53-7.249.44,11.571l-.15,1.31.36,1.27.15-1.31L3.03-7.249ZM-.44,11.571-2.53-7.249l-.06-.5-.87-7.81h-.5l.87,7.81.05.5L-.8,12.841l.15,1.31.36-1.27Zm0,0L-2.53-7.249l-.06-.5-.87-7.81h-.5l.87,7.81.05.5L-.8,12.841l.15,1.31.36-1.27Zm0,0L-2.53-7.249l-.06-.5-.87-7.81h-.5l.87,7.81.05.5L-.8,12.841l.15,1.31.36-1.27Zm-4.31-34.2.73,6.57.06.5.87,7.81.05.5L-.8,12.841l.15,1.31.36-1.27-.15-1.31L-2.53-7.249l-.06-.5-.87-7.81-.05-.5-.68-6.07H4.19l-.68,6.07-.05.5-.87,7.81-.06.5L.44,11.571l-.15,1.31.36,1.27.15-1.31L3.03-7.249l.06-.5.86-7.81.06-.5.73-6.57Zm4.31,34.2L-2.53-7.249l-.06-.5-.87-7.81h-.5l.87,7.81.05.5L-.8,12.841l.15,1.31.36-1.27Zm0,0L-2.53-7.249l-.06-.5-.87-7.81h-.5l.87,7.81.05.5L-.8,12.841l.15,1.31.36-1.27Zm0,0L-2.53-7.249l-.06-.5-.87-7.81h-.5l.87,7.81.05.5L-.8,12.841l.15,1.31.36-1.27Z"/>
        <path class="cls-4" d="M1.79,16.341l-.23-.81-.27-.95L.8,12.841l-.32-1.12-.04-.15L0,10.021l-.44,1.55-.04.15-.32,1.12-.49,1.74-.27.95-.23.81H-5.04l.66.81,3.99,4.99.39.49.39-.49,3.99-4.99.65-.81Zm-1.08,4.6-.71.89-.71-.89-3.28-4.1h2.58l.1-.36.27-.95.39-1.37v-.01l.36-1.27L0,11.851l.29,1.03.36,1.27v.01l.39,1.37.27.95.1.36H3.99Z"/>
      </g>
    </g>
  </g>
</svg>
