<svg xmlns="http://www.w3.org/2000/svg" viewBox="0 0 330 360">
  <defs>
    <style>
      .cls-1, .cls-2, .cls-4, .cls-6 {
        fill: none;
      }

      .cls-2, .cls-4, .cls-5, .cls-6 {
        stroke: #e08c72;
        stroke-miterlimit: 10;
      }

      .cls-2, .cls-4, .cls-5 {
        stroke-linecap: round;
      }

      .cls-2, .cls-5 {
        stroke-width: 2.5px;
      }

      .cls-3, .cls-5 {
        fill: #e08c72;
      }

      .cls-4, .cls-6 {
        stroke-width: 2px;
      }
    </style>
  </defs>
  <g id="Layer_5" data-name="Layer 5">
    <g>
      <rect class="cls-1" width="330" height="360"/>
      <line class="cls-2" x1="333.863" y1="347.794" x2="330.127" y2="371.574"/>
      <g>
        <line class="cls-2" x1="3.863" y1="347.794" x2="0.127" y2="371.574"/>
        <line class="cls-2" x1="20.51" y1="347.794" x2="16.774" y2="371.574"/>
        <line class="cls-2" x1="3.863" y1="347.794" x2="20.51" y2="347.794"/>
        <line class="cls-2" x1="3.656" y1="350.948" x2="19.876" y2="350.948"/>
        <line class="cls-2" x1="2.841" y1="356.285" x2="18.642" y2="356.285"/>
      </g>
      <g>
        <path class="cls-3" d="M253.049,239.587a25.631,25.631,0,0,1-.594-7.2,18,18,0,0,1,2.091-7.341,13.471,13.471,0,0,1,5.9-5.661,18.765,18.765,0,0,1,15.681.035,13.529,13.529,0,0,1,5.913,5.633,17.92,17.92,0,0,1,2.122,7.333,25.562,25.562,0,0,1-.581,7.2l-.006.027a.149.149,0,0,1-.177.114.151.151,0,0,1-.117-.142,36.994,36.994,0,0,0-.67-6.885,18.528,18.528,0,0,0-2.537-6.352,11.738,11.738,0,0,0-5.118-4.368,16.38,16.38,0,0,0-6.667-1.3,16.155,16.155,0,0,0-6.668,1.273,11.648,11.648,0,0,0-5.1,4.384,18.678,18.678,0,0,0-2.513,6.363,37.436,37.436,0,0,0-.663,6.886.149.149,0,0,1-.294.029Z"/>
        <rect class="cls-3" x="252.325" y="234.812" width="4.644" height="9.549" rx="1.372"/>
        <path class="cls-3" d="M251.033,235.868h-.543a.936.936,0,0,0-.933.933v5.571a.936.936,0,0,0,.933.933h.543"/>
        <path class="cls-3" d="M249.557,242.162c-1.052,0-1.906-1.153-1.906-2.576s.854-2.576,1.906-2.576"/>
        <rect class="cls-3" x="279.729" y="234.812" width="4.644" height="9.549" rx="1.372" transform="translate(564.102 479.173) rotate(-180)"/>
        <path class="cls-3" d="M285.664,235.868h.543a.936.936,0,0,1,.933.933v5.571a.936.936,0,0,1-.933.933h-.543"/>
        <path class="cls-3" d="M287.14,237.01c1.053,0,1.906,1.154,1.906,2.576s-.853,2.576-1.906,2.576"/>
        <path class="cls-3" d="M273.788,223.907a14.692,14.692,0,0,0-11.3,0,1.45,1.45,0,0,1-1.825-.556l-.318-.6a1.39,1.39,0,0,1,.894-1.839,17.94,17.94,0,0,1,13.8,0,1.39,1.39,0,0,1,.894,1.839l-.318.6A1.45,1.45,0,0,1,273.788,223.907Z"/>
        <g id="downy">
          <path class="cls-3" d="M274.827,308.061c-.27.42-.55.81-.82,1.17-3.55-4.72-6.94-4.92-10.13-4.7a1,1,0,1,1-.14-2c3.72-.26,7.65.21,11.47,4.99C275.077,307.691,274.957,307.871,274.827,308.061Z"/>
          <path class="cls-3" d="M288.517,315.881a.984.984,0,0,1-.93,1.06c-.5.04-1.02.06-1.53.06-3.31,0-6.75-.91-10.1-5.05.18-.25.35-.51.53-.78.22-.33.45-.64.67-.93,3.59,4.74,7.05,4.94,10.3,4.71A1.023,1.023,0,0,1,288.517,315.881Z"/>
        </g>
        <path class="cls-4" d="M287.521,303.53c-3.822-.267-7.84.168-11.857,6.08-4.018,6.162-8.036,6.606-11.858,6.338"/>
        <line class="cls-4" x1="286.457" y1="300.448" x2="289.301" y2="303.218"/>
        <line class="cls-4" x1="287.092" y1="306.538" x2="289.304" y2="303.241"/>
        <line class="cls-4" x1="286.459" y1="319.05" x2="289.303" y2="316.28"/>
        <line class="cls-4" x1="287.093" y1="312.96" x2="289.305" y2="316.257"/>
        <line class="cls-2" x1="333.863" y1="167.794" x2="330.127" y2="191.574"/>
        <ellipse class="cls-5" cx="326.896" cy="191.644" rx="3.326" ry="2.049" transform="translate(-40.246 97.861) rotate(-16.052)"/>
      </g>
      <g>
        <path class="cls-3" d="M88.049,329.587a25.631,25.631,0,0,1-.594-7.2,18,18,0,0,1,2.091-7.341,13.471,13.471,0,0,1,5.9-5.661,18.765,18.765,0,0,1,15.681.035,13.529,13.529,0,0,1,5.913,5.633,17.92,17.92,0,0,1,2.122,7.333,25.562,25.562,0,0,1-.581,7.2l-.006.027a.149.149,0,0,1-.177.114.151.151,0,0,1-.117-.142,36.994,36.994,0,0,0-.67-6.885,18.528,18.528,0,0,0-2.537-6.352,11.738,11.738,0,0,0-5.118-4.368,16.38,16.38,0,0,0-6.667-1.3,16.155,16.155,0,0,0-6.668,1.273,11.648,11.648,0,0,0-5.1,4.384,18.678,18.678,0,0,0-2.513,6.363,37.436,37.436,0,0,0-.663,6.886.149.149,0,0,1-.294.029Z"/>
        <rect class="cls-3" x="87.325" y="324.812" width="4.644" height="9.549" rx="1.372"/>
        <path class="cls-3" d="M86.033,325.868H85.49a.936.936,0,0,0-.933.933v5.571a.936.936,0,0,0,.933.933h.543"/>
        <path class="cls-3" d="M84.557,332.162c-1.052,0-1.906-1.153-1.906-2.576s.854-2.576,1.906-2.576"/>
        <rect class="cls-3" x="114.729" y="324.812" width="4.644" height="9.549" rx="1.372" transform="translate(234.102 659.173) rotate(-180)"/>
        <path class="cls-3" d="M120.664,325.868h.543a.936.936,0,0,1,.933.933v5.571a.936.936,0,0,1-.933.933h-.543"/>
        <path class="cls-3" d="M122.14,327.01c1.053,0,1.906,1.154,1.906,2.576s-.853,2.576-1.906,2.576"/>
        <path class="cls-3" d="M108.788,313.907a14.692,14.692,0,0,0-11.3,0,1.45,1.45,0,0,1-1.825-.556l-.318-.6a1.39,1.39,0,0,1,.894-1.839,17.94,17.94,0,0,1,13.8,0,1.39,1.39,0,0,1,.894,1.839l-.318.6A1.45,1.45,0,0,1,108.788,313.907Z"/>
        <line class="cls-2" x1="168.863" y1="257.794" x2="165.127" y2="281.574"/>
        <line class="cls-2" x1="185.51" y1="257.794" x2="181.774" y2="281.574"/>
        <line class="cls-2" x1="168.863" y1="257.794" x2="185.51" y2="257.794"/>
        <line class="cls-2" x1="168.656" y1="260.948" x2="184.876" y2="260.948"/>
        <line class="cls-2" x1="167.841" y1="266.285" x2="183.642" y2="266.285"/>
        <ellipse class="cls-5" cx="161.896" cy="281.644" rx="3.326" ry="2.049" transform="translate(-71.565 55.746) rotate(-16.052)"/>
        <ellipse class="cls-5" cx="178.543" cy="281.644" rx="3.326" ry="2.049" transform="translate(-70.916 60.349) rotate(-16.052)"/>
        <path class="cls-3" d="M217.457,344.15H183.313a11.264,11.264,0,0,0-11.233,11.233v17.322a11.264,11.264,0,0,0,11.233,11.233h34.144a11.264,11.264,0,0,0,11.233-11.233V355.383A11.264,11.264,0,0,0,217.457,344.15Zm-19.728,15.139a1.245,1.245,0,0,1,1.683.515,1.247,1.247,0,1,1-2.2,1.181A1.244,1.244,0,0,1,197.729,359.289Zm-4.379,2.322a1.268,1.268,0,0,1,1.7.514,1.253,1.253,0,1,1-2.21,1.182A1.271,1.271,0,0,1,193.35,361.611Zm-9.9-5.881a1.25,1.25,0,1,1-.362,1.738A1.253,1.253,0,0,1,183.452,355.73Zm-5.019,9.315a1.244,1.244,0,1,1,1.251,1.251A1.246,1.246,0,0,1,178.433,365.045Zm2.989,5.756a1.25,1.25,0,1,1,.514-1.7A1.256,1.256,0,0,1,181.422,370.8Zm.625-10.01a1.231,1.231,0,0,1-1.7.458,1.245,1.245,0,1,1,1.7-.458ZM185.176,374a1.25,1.25,0,0,1-2.086-1.376A1.249,1.249,0,0,1,185.176,374Zm.625-5.533a1.247,1.247,0,1,1-1.182-2.2,1.247,1.247,0,1,1,1.182,2.2Zm.556-5.241a1.249,1.249,0,1,1-2.169-1.238,1.234,1.234,0,0,1,1.7-.458A1.249,1.249,0,0,1,186.357,363.224Zm3.212,12.957a1.245,1.245,0,1,1,1.251-1.238A1.24,1.24,0,0,1,189.569,376.181Zm0-4.936a1.251,1.251,0,1,1,1.251-1.251A1.252,1.252,0,0,1,189.569,371.245Zm0-4.949a1.251,1.251,0,1,1,1.251-1.251A1.252,1.252,0,0,1,189.569,366.3Zm0-4.949a1.252,1.252,0,1,1,1.251-1.251A1.243,1.243,0,0,1,189.569,361.347Zm0-4.949a1.252,1.252,0,1,1,1.251-1.252A1.243,1.243,0,0,1,189.569,356.4Zm3.7,12.164a1.245,1.245,0,0,1,1.223-2.169,1.245,1.245,0,1,1-1.223,2.169Zm2.433,5.784a1.244,1.244,0,0,1-1.377-2.072,1.251,1.251,0,0,1,1.738.348A1.238,1.238,0,0,1,195.7,374.346Zm.361-16.878a1.249,1.249,0,1,1-.361-1.738A1.251,1.251,0,0,1,196.061,357.468Zm3.212,13.068a1.248,1.248,0,1,1-.473-1.71A1.269,1.269,0,0,1,199.273,370.536Zm.194-4.24a1.251,1.251,0,1,1,1.251-1.251A1.252,1.252,0,0,1,199.467,366.3ZM215.08,376a3.219,3.219,0,1,1,3.211-3.211A3.216,3.216,0,0,1,215.08,376Zm5.825-10.51H209.254a1.544,1.544,0,0,1,0-3.087h11.651a1.544,1.544,0,0,1,0,3.087Zm0-5.77H209.254a1.543,1.543,0,1,1,0-3.086h11.651a1.543,1.543,0,0,1,0,3.086Z"/>
        <ellipse class="cls-3" cx="187.55" cy="345.039" rx="4.044" ry="4.677"/>
        <line class="cls-6" x1="188.328" y1="342.399" x2="221.573" y2="330.024"/>
        <circle class="cls-3" cx="221.573" cy="330.024" r="3.321"/>
      </g>
      <g>
        <line class="cls-2" x1="3.863" y1="167.794" x2="0.127" y2="191.574"/>
        <line class="cls-2" x1="20.51" y1="167.794" x2="16.774" y2="191.574"/>
        <line class="cls-2" x1="3.863" y1="167.794" x2="20.51" y2="167.794"/>
        <line class="cls-2" x1="3.656" y1="170.948" x2="19.876" y2="170.948"/>
        <line class="cls-2" x1="2.841" y1="176.285" x2="18.642" y2="176.285"/>
        <ellipse class="cls-5" cx="-3.104" cy="191.644" rx="3.326" ry="2.049" transform="translate(-53.112 6.614) rotate(-16.052)"/>
        <ellipse class="cls-5" cx="13.543" cy="191.644" rx="3.326" ry="2.049" transform="translate(-52.463 11.217) rotate(-16.052)"/>
        <path class="cls-3" d="M52.457,254.15H18.313A11.264,11.264,0,0,0,7.08,265.383v17.322a11.264,11.264,0,0,0,11.233,11.233H52.457A11.264,11.264,0,0,0,63.69,282.705V265.383A11.264,11.264,0,0,0,52.457,254.15ZM32.729,269.289a1.245,1.245,0,0,1,1.683.515,1.247,1.247,0,1,1-2.2,1.181A1.244,1.244,0,0,1,32.729,269.289Zm-4.379,2.322a1.268,1.268,0,0,1,1.7.514,1.253,1.253,0,1,1-2.21,1.182A1.271,1.271,0,0,1,28.35,271.611Zm-9.9-5.881a1.25,1.25,0,1,1-.362,1.738A1.253,1.253,0,0,1,18.452,265.73Zm-5.019,9.315a1.244,1.244,0,1,1,1.251,1.251A1.246,1.246,0,0,1,13.433,275.045Zm2.989,5.756a1.25,1.25,0,1,1,.514-1.7A1.256,1.256,0,0,1,16.422,280.8Zm.625-10.01a1.231,1.231,0,0,1-1.7.458,1.245,1.245,0,1,1,1.7-.458ZM20.176,284a1.25,1.25,0,0,1-2.086-1.376A1.249,1.249,0,0,1,20.176,284Zm.625-5.533a1.247,1.247,0,1,1-1.182-2.2,1.247,1.247,0,1,1,1.182,2.2Zm.556-5.241a1.249,1.249,0,1,1-2.169-1.238,1.234,1.234,0,0,1,1.7-.458A1.249,1.249,0,0,1,21.357,273.224Zm3.212,12.957a1.245,1.245,0,1,1,1.251-1.238A1.24,1.24,0,0,1,24.569,286.181Zm0-4.936a1.251,1.251,0,1,1,1.251-1.251A1.252,1.252,0,0,1,24.569,281.245Zm0-4.949a1.251,1.251,0,1,1,1.251-1.251A1.252,1.252,0,0,1,24.569,276.3Zm0-4.949A1.252,1.252,0,1,1,25.82,270.1,1.243,1.243,0,0,1,24.569,271.347Zm0-4.949a1.252,1.252,0,1,1,1.251-1.252A1.243,1.243,0,0,1,24.569,266.4Zm3.7,12.164a1.245,1.245,0,0,1,1.223-2.169,1.245,1.245,0,1,1-1.223,2.169Zm2.433,5.784a1.244,1.244,0,0,1-1.377-2.072,1.251,1.251,0,0,1,1.738.348A1.238,1.238,0,0,1,30.7,284.346Zm.361-16.878a1.249,1.249,0,1,1-.361-1.738A1.251,1.251,0,0,1,31.061,267.468Zm3.212,13.068a1.248,1.248,0,1,1-.473-1.71A1.269,1.269,0,0,1,34.273,280.536Zm.194-4.24a1.251,1.251,0,1,1,1.251-1.251A1.252,1.252,0,0,1,34.467,276.3ZM50.08,286a3.219,3.219,0,1,1,3.211-3.211A3.216,3.216,0,0,1,50.08,286Zm5.825-10.51H44.254a1.544,1.544,0,0,1,0-3.087H55.905a1.544,1.544,0,0,1,0,3.087Zm0-5.77H44.254a1.543,1.543,0,1,1,0-3.086H55.905a1.543,1.543,0,0,1,0,3.086Z"/>
        <ellipse class="cls-3" cx="22.55" cy="255.039" rx="4.044" ry="4.677"/>
        <line class="cls-6" x1="23.328" y1="252.399" x2="56.573" y2="240.024"/>
        <circle class="cls-3" cx="56.573" cy="240.024" r="3.321"/>
      </g>
      <g>
        <path class="cls-3" d="M253.049,59.587a25.631,25.631,0,0,1-.594-7.2,18,18,0,0,1,2.091-7.341,13.471,13.471,0,0,1,5.9-5.661,18.765,18.765,0,0,1,15.681.035,13.529,13.529,0,0,1,5.913,5.633,17.92,17.92,0,0,1,2.122,7.333,25.562,25.562,0,0,1-.581,7.205l-.006.027a.149.149,0,0,1-.177.114.151.151,0,0,1-.117-.142,36.994,36.994,0,0,0-.67-6.885,18.528,18.528,0,0,0-2.537-6.352,11.738,11.738,0,0,0-5.118-4.368,16.38,16.38,0,0,0-6.667-1.3,16.155,16.155,0,0,0-6.668,1.273,11.648,11.648,0,0,0-5.1,4.384,18.678,18.678,0,0,0-2.513,6.363,37.436,37.436,0,0,0-.663,6.886.149.149,0,0,1-.294.029Z"/>
        <rect class="cls-3" x="252.325" y="54.812" width="4.644" height="9.549" rx="1.372"/>
        <path class="cls-3" d="M251.033,55.868h-.543a.936.936,0,0,0-.933.933v5.571a.936.936,0,0,0,.933.933h.543"/>
        <path class="cls-3" d="M249.557,62.162c-1.052,0-1.906-1.153-1.906-2.576s.854-2.576,1.906-2.576"/>
        <rect class="cls-3" x="279.729" y="54.812" width="4.644" height="9.549" rx="1.372" transform="translate(564.102 119.173) rotate(-180)"/>
        <path class="cls-3" d="M285.664,55.868h.543a.936.936,0,0,1,.933.933v5.571a.936.936,0,0,1-.933.933h-.543"/>
        <path class="cls-3" d="M287.14,57.01c1.053,0,1.906,1.154,1.906,2.576s-.853,2.576-1.906,2.576"/>
        <path class="cls-3" d="M273.788,43.907a14.692,14.692,0,0,0-11.3,0,1.45,1.45,0,0,1-1.825-.556l-.318-.6a1.39,1.39,0,0,1,.894-1.839,17.94,17.94,0,0,1,13.8,0,1.39,1.39,0,0,1,.894,1.839l-.318.6A1.45,1.45,0,0,1,273.788,43.907Z"/>
        <g id="downy-2" data-name="downy">
          <path class="cls-3" d="M274.827,128.061c-.27.42-.55.81-.82,1.17-3.55-4.72-6.94-4.92-10.13-4.7a1,1,0,1,1-.14-2c3.72-.26,7.65.21,11.47,4.99C275.077,127.691,274.957,127.871,274.827,128.061Z"/>
          <path class="cls-3" d="M288.517,135.881a.984.984,0,0,1-.93,1.06c-.5.04-1.02.06-1.53.06-3.31,0-6.75-.91-10.1-5.05.18-.25.35-.51.53-.78.22-.33.45-.64.67-.93,3.59,4.74,7.05,4.94,10.3,4.71A1.023,1.023,0,0,1,288.517,135.881Z"/>
        </g>
        <path class="cls-4" d="M287.521,123.53c-3.822-.267-7.84.168-11.857,6.08-4.018,6.162-8.036,6.606-11.858,6.338"/>
        <line class="cls-4" x1="286.457" y1="120.448" x2="289.301" y2="123.218"/>
        <line class="cls-4" x1="287.092" y1="126.538" x2="289.304" y2="123.241"/>
        <line class="cls-4" x1="286.459" y1="139.05" x2="289.303" y2="136.28"/>
        <line class="cls-4" x1="287.093" y1="132.96" x2="289.305" y2="136.257"/>
        <line class="cls-2" x1="333.863" y1="-12.206" x2="330.127" y2="11.574"/>
        <ellipse class="cls-5" cx="326.896" cy="11.644" rx="3.326" ry="2.049" transform="translate(9.525 90.843) rotate(-16.052)"/>
      </g>
      <g>
        <path class="cls-3" d="M88.049,149.587a25.631,25.631,0,0,1-.594-7.2,18,18,0,0,1,2.091-7.341,13.471,13.471,0,0,1,5.9-5.661,18.765,18.765,0,0,1,15.681.035,13.529,13.529,0,0,1,5.913,5.633,17.92,17.92,0,0,1,2.122,7.333,25.562,25.562,0,0,1-.581,7.2l-.006.027a.149.149,0,0,1-.177.114.151.151,0,0,1-.117-.142,36.994,36.994,0,0,0-.67-6.885,18.528,18.528,0,0,0-2.537-6.352,11.738,11.738,0,0,0-5.118-4.368,16.38,16.38,0,0,0-6.667-1.3,16.155,16.155,0,0,0-6.668,1.273,11.648,11.648,0,0,0-5.1,4.384,18.678,18.678,0,0,0-2.513,6.363,37.436,37.436,0,0,0-.663,6.886.149.149,0,0,1-.294.029Z"/>
        <rect class="cls-3" x="87.325" y="144.812" width="4.644" height="9.549" rx="1.372"/>
        <path class="cls-3" d="M86.033,145.868H85.49a.936.936,0,0,0-.933.933v5.571a.936.936,0,0,0,.933.933h.543"/>
        <path class="cls-3" d="M84.557,152.162c-1.052,0-1.906-1.153-1.906-2.576s.854-2.576,1.906-2.576"/>
        <rect class="cls-3" x="114.729" y="144.812" width="4.644" height="9.549" rx="1.372" transform="translate(234.102 299.173) rotate(-180)"/>
        <path class="cls-3" d="M120.664,145.868h.543a.936.936,0,0,1,.933.933v5.571a.936.936,0,0,1-.933.933h-.543"/>
        <path class="cls-3" d="M122.14,147.01c1.053,0,1.906,1.154,1.906,2.576s-.853,2.576-1.906,2.576"/>
        <path class="cls-3" d="M108.788,133.907a14.692,14.692,0,0,0-11.3,0,1.45,1.45,0,0,1-1.825-.556l-.318-.6a1.39,1.39,0,0,1,.894-1.839,17.94,17.94,0,0,1,13.8,0,1.39,1.39,0,0,1,.894,1.839l-.318.6A1.45,1.45,0,0,1,108.788,133.907Z"/>
        <g id="downy-3" data-name="downy">
          <path class="cls-3" d="M109.827,218.061c-.27.42-.55.81-.82,1.17-3.55-4.72-6.94-4.92-10.13-4.7a1,1,0,0,1-.14-2c3.72-.26,7.65.21,11.47,4.99C110.077,217.691,109.957,217.871,109.827,218.061Z"/>
          <path class="cls-3" d="M123.517,225.881a.984.984,0,0,1-.93,1.06c-.5.04-1.02.06-1.53.06-3.31,0-6.75-.91-10.1-5.05.18-.25.35-.51.53-.78.22-.33.45-.64.67-.93,3.59,4.74,7.05,4.94,10.3,4.71A1.023,1.023,0,0,1,123.517,225.881Z"/>
        </g>
        <path class="cls-4" d="M122.521,213.53c-3.822-.267-7.84.168-11.857,6.08-4.018,6.162-8.036,6.606-11.858,6.338"/>
        <line class="cls-4" x1="121.457" y1="210.448" x2="124.301" y2="213.218"/>
        <line class="cls-4" x1="122.092" y1="216.538" x2="124.304" y2="213.241"/>
        <line class="cls-4" x1="121.459" y1="229.05" x2="124.303" y2="226.28"/>
        <line class="cls-4" x1="122.093" y1="222.96" x2="124.305" y2="226.257"/>
        <line class="cls-2" x1="168.863" y1="77.794" x2="165.127" y2="101.574"/>
        <line class="cls-2" x1="185.51" y1="77.794" x2="181.774" y2="101.574"/>
        <line class="cls-2" x1="168.863" y1="77.794" x2="185.51" y2="77.794"/>
        <line class="cls-2" x1="168.656" y1="80.948" x2="184.876" y2="80.948"/>
        <line class="cls-2" x1="167.841" y1="86.285" x2="183.642" y2="86.285"/>
        <ellipse class="cls-5" cx="161.896" cy="101.644" rx="3.326" ry="2.049" transform="matrix(0.961, -0.277, 0.277, 0.961, -21.793, 48.728)"/>
        <ellipse class="cls-5" cx="178.543" cy="101.644" rx="3.326" ry="2.049" transform="translate(-21.144 53.331) rotate(-16.052)"/>
        <path class="cls-3" d="M217.457,164.15H183.313a11.264,11.264,0,0,0-11.233,11.233v17.322a11.264,11.264,0,0,0,11.233,11.233h34.144a11.264,11.264,0,0,0,11.233-11.233V175.383A11.264,11.264,0,0,0,217.457,164.15Zm-19.728,15.139a1.245,1.245,0,0,1,1.683.515,1.247,1.247,0,1,1-2.2,1.181A1.244,1.244,0,0,1,197.729,179.289Zm-4.379,2.322a1.268,1.268,0,0,1,1.7.514,1.253,1.253,0,0,1-2.21,1.182A1.271,1.271,0,0,1,193.35,181.611Zm-9.9-5.881a1.25,1.25,0,1,1-.362,1.738A1.253,1.253,0,0,1,183.452,175.73Zm-5.019,9.315a1.244,1.244,0,1,1,1.251,1.251A1.246,1.246,0,0,1,178.433,185.045Zm2.989,5.756a1.25,1.25,0,1,1,.514-1.7A1.256,1.256,0,0,1,181.422,190.8Zm.625-10.01a1.231,1.231,0,0,1-1.7.458,1.245,1.245,0,1,1,1.7-.458ZM185.176,194a1.25,1.25,0,0,1-2.086-1.376A1.249,1.249,0,0,1,185.176,194Zm.625-5.533a1.247,1.247,0,1,1-1.182-2.2,1.247,1.247,0,1,1,1.182,2.2Zm.556-5.241a1.249,1.249,0,1,1-2.169-1.238,1.234,1.234,0,0,1,1.7-.458A1.249,1.249,0,0,1,186.357,183.224Zm3.212,12.957a1.245,1.245,0,1,1,1.251-1.238A1.24,1.24,0,0,1,189.569,196.181Zm0-4.936a1.251,1.251,0,1,1,1.251-1.251A1.252,1.252,0,0,1,189.569,191.245Zm0-4.949a1.251,1.251,0,1,1,1.251-1.251A1.252,1.252,0,0,1,189.569,186.3Zm0-4.949a1.252,1.252,0,1,1,1.251-1.251A1.243,1.243,0,0,1,189.569,181.347Zm0-4.949a1.252,1.252,0,1,1,1.251-1.252A1.243,1.243,0,0,1,189.569,176.4Zm3.7,12.164a1.245,1.245,0,0,1,1.223-2.169,1.245,1.245,0,1,1-1.223,2.169Zm2.433,5.784a1.244,1.244,0,0,1-1.377-2.072,1.251,1.251,0,0,1,1.738.348A1.238,1.238,0,0,1,195.7,194.346Zm.361-16.878a1.249,1.249,0,1,1-.361-1.738A1.251,1.251,0,0,1,196.061,177.468Zm3.212,13.068a1.248,1.248,0,1,1-.473-1.71A1.269,1.269,0,0,1,199.273,190.536Zm.194-4.24a1.251,1.251,0,1,1,1.251-1.251A1.252,1.252,0,0,1,199.467,186.3ZM215.08,196a3.219,3.219,0,1,1,3.211-3.211A3.216,3.216,0,0,1,215.08,196Zm5.825-10.51H209.254a1.544,1.544,0,0,1,0-3.087h11.651a1.544,1.544,0,0,1,0,3.087Zm0-5.77H209.254a1.543,1.543,0,1,1,0-3.086h11.651a1.543,1.543,0,0,1,0,3.086Z"/>
        <ellipse class="cls-3" cx="187.55" cy="165.039" rx="4.044" ry="4.677"/>
        <line class="cls-6" x1="188.328" y1="162.399" x2="221.573" y2="150.024"/>
        <circle class="cls-3" cx="221.573" cy="150.024" r="3.321"/>
      </g>
      <g>
        <line class="cls-2" x1="3.863" y1="-12.206" x2="0.127" y2="11.574"/>
        <line class="cls-2" x1="20.51" y1="-12.206" x2="16.774" y2="11.574"/>
        <ellipse class="cls-5" cx="-3.104" cy="11.644" rx="3.326" ry="2.049" transform="translate(-3.341 -0.404) rotate(-16.052)"/>
        <ellipse class="cls-5" cx="13.543" cy="11.644" rx="3.326" ry="2.049" transform="translate(-2.692 4.199) rotate(-16.052)"/>
        <path class="cls-3" d="M52.457,74.15H18.313A11.264,11.264,0,0,0,7.08,85.383v17.322a11.264,11.264,0,0,0,11.233,11.233H52.457A11.264,11.264,0,0,0,63.69,102.705V85.383A11.264,11.264,0,0,0,52.457,74.15ZM32.729,89.289a1.245,1.245,0,0,1,1.683.515,1.247,1.247,0,1,1-2.2,1.181A1.244,1.244,0,0,1,32.729,89.289ZM28.35,91.611a1.268,1.268,0,0,1,1.7.514,1.253,1.253,0,1,1-2.21,1.182A1.271,1.271,0,0,1,28.35,91.611Zm-9.9-5.881a1.25,1.25,0,1,1-.362,1.738A1.253,1.253,0,0,1,18.452,85.73Zm-5.019,9.315A1.244,1.244,0,1,1,14.684,96.3,1.246,1.246,0,0,1,13.433,95.045Zm2.989,5.756a1.25,1.25,0,1,1,.514-1.7A1.256,1.256,0,0,1,16.422,100.8Zm.625-10.01a1.231,1.231,0,0,1-1.7.458,1.245,1.245,0,1,1,1.7-.458ZM20.176,104a1.25,1.25,0,0,1-2.086-1.376A1.249,1.249,0,0,1,20.176,104Zm.625-5.533a1.247,1.247,0,1,1-1.182-2.2,1.247,1.247,0,1,1,1.182,2.2Zm.556-5.241a1.249,1.249,0,1,1-2.169-1.238,1.234,1.234,0,0,1,1.7-.458A1.249,1.249,0,0,1,21.357,93.224Zm3.212,12.957a1.245,1.245,0,1,1,1.251-1.238A1.24,1.24,0,0,1,24.569,106.181Zm0-4.936a1.251,1.251,0,1,1,1.251-1.251A1.252,1.252,0,0,1,24.569,101.245Zm0-4.949a1.251,1.251,0,1,1,1.251-1.251A1.252,1.252,0,0,1,24.569,96.3Zm0-4.949A1.252,1.252,0,1,1,25.82,90.1,1.243,1.243,0,0,1,24.569,91.347Zm0-4.949a1.252,1.252,0,1,1,1.251-1.252A1.243,1.243,0,0,1,24.569,86.4Zm3.7,12.164a1.245,1.245,0,0,1,1.223-2.169,1.245,1.245,0,1,1-1.223,2.169Zm2.433,5.784a1.244,1.244,0,0,1-1.377-2.072,1.251,1.251,0,0,1,1.738.348A1.238,1.238,0,0,1,30.7,104.346Zm.361-16.878A1.249,1.249,0,1,1,30.7,85.73,1.251,1.251,0,0,1,31.061,87.468Zm3.212,13.068a1.248,1.248,0,1,1-.473-1.71A1.269,1.269,0,0,1,34.273,100.536Zm.194-4.24a1.251,1.251,0,1,1,1.251-1.251A1.252,1.252,0,0,1,34.467,96.3ZM50.08,106a3.219,3.219,0,1,1,3.211-3.211A3.216,3.216,0,0,1,50.08,106Zm5.825-10.51H44.254a1.544,1.544,0,0,1,0-3.087H55.905a1.544,1.544,0,0,1,0,3.087Zm0-5.77H44.254a1.543,1.543,0,0,1,0-3.086H55.905a1.543,1.543,0,0,1,0,3.086Z"/>
        <ellipse class="cls-3" cx="22.55" cy="75.039" rx="4.044" ry="4.677"/>
        <line class="cls-6" x1="23.328" y1="72.399" x2="56.573" y2="60.024"/>
        <circle class="cls-3" cx="56.573" cy="60.024" r="3.321"/>
      </g>
      <g>
        <g id="downy-4" data-name="downy">
          <path class="cls-3" d="M109.827,38.061c-.27.42-.55.81-.82,1.17-3.55-4.72-6.94-4.92-10.13-4.7a1,1,0,1,1-.14-2c3.72-.26,7.65.21,11.47,4.99C110.077,37.691,109.957,37.871,109.827,38.061Z"/>
          <path class="cls-3" d="M123.517,45.881a.984.984,0,0,1-.93,1.06c-.5.04-1.02.06-1.53.06-3.31,0-6.75-.91-10.1-5.05.18-.25.35-.51.53-.78.22-.33.45-.64.67-.93,3.59,4.74,7.05,4.94,10.3,4.71A1.023,1.023,0,0,1,123.517,45.881Z"/>
        </g>
        <path class="cls-4" d="M122.521,33.53c-3.822-.267-7.84.168-11.857,6.08-4.018,6.162-8.036,6.606-11.858,6.338"/>
        <line class="cls-4" x1="121.457" y1="30.448" x2="124.301" y2="33.218"/>
        <line class="cls-4" x1="122.092" y1="36.538" x2="124.304" y2="33.241"/>
        <line class="cls-4" x1="121.459" y1="49.05" x2="124.303" y2="46.28"/>
        <line class="cls-4" x1="122.093" y1="42.96" x2="124.305" y2="46.257"/>
        <path class="cls-3" d="M217.457-15.85H183.313A11.264,11.264,0,0,0,172.08-4.617V12.705a11.264,11.264,0,0,0,11.233,11.233h34.144A11.264,11.264,0,0,0,228.69,12.705V-4.617A11.264,11.264,0,0,0,217.457-15.85ZM197.729-.711a1.245,1.245,0,0,1,1.683.515,1.247,1.247,0,1,1-2.2,1.181A1.244,1.244,0,0,1,197.729-.711ZM193.35,1.611a1.268,1.268,0,0,1,1.7.514,1.253,1.253,0,0,1-2.21,1.182A1.271,1.271,0,0,1,193.35,1.611Zm-9.9-5.881a1.253,1.253,0,0,1,1.724.362,1.25,1.25,0,0,1-.348,1.724,1.251,1.251,0,0,1-1.738-.348A1.257,1.257,0,0,1,183.452-4.27Zm-5.019,9.315A1.244,1.244,0,1,1,179.684,6.3,1.246,1.246,0,0,1,178.433,5.045Zm2.989,5.756a1.25,1.25,0,1,1,.514-1.7A1.256,1.256,0,0,1,181.422,10.8Zm.625-10.01a1.231,1.231,0,0,1-1.7.458,1.249,1.249,0,0,1-.472-1.7A1.248,1.248,0,1,1,182.047.791ZM185.176,14a1.25,1.25,0,0,1-2.086-1.376A1.249,1.249,0,0,1,185.176,14Zm.625-5.533a1.247,1.247,0,1,1-1.182-2.2,1.247,1.247,0,1,1,1.182,2.2Zm.556-5.241a1.249,1.249,0,1,1-2.169-1.238,1.234,1.234,0,0,1,1.7-.458A1.249,1.249,0,0,1,186.357,3.224Zm3.212,12.957a1.245,1.245,0,1,1,1.251-1.238A1.24,1.24,0,0,1,189.569,16.181Zm0-4.936a1.251,1.251,0,1,1,1.251-1.251A1.252,1.252,0,0,1,189.569,11.245Zm0-4.949a1.251,1.251,0,1,1,1.251-1.251A1.252,1.252,0,0,1,189.569,6.3Zm0-4.949A1.243,1.243,0,0,1,188.331.1a1.244,1.244,0,0,1,1.238-1.252A1.247,1.247,0,0,1,190.82.1,1.246,1.246,0,0,1,189.569,1.347Zm0-4.949a1.243,1.243,0,0,1-1.238-1.252A1.252,1.252,0,0,1,189.569-6.1a1.255,1.255,0,0,1,1.251,1.251A1.246,1.246,0,0,1,189.569-3.6Zm3.7,12.164a1.245,1.245,0,0,1,1.223-2.169,1.245,1.245,0,1,1-1.223,2.169Zm2.433,5.784a1.244,1.244,0,0,1-1.377-2.072,1.251,1.251,0,0,1,1.738.348A1.238,1.238,0,0,1,195.7,14.346Zm.361-16.878a1.251,1.251,0,0,1-1.738.348,1.249,1.249,0,0,1-.347-1.724A1.253,1.253,0,0,1,195.7-4.27,1.257,1.257,0,0,1,196.061-2.532Zm3.212,13.068a1.248,1.248,0,1,1-.473-1.71A1.269,1.269,0,0,1,199.273,10.536Zm.194-4.24a1.251,1.251,0,1,1,1.251-1.251A1.252,1.252,0,0,1,199.467,6.3ZM215.08,16a3.219,3.219,0,1,1,3.211-3.211A3.216,3.216,0,0,1,215.08,16Zm5.825-10.51H209.254a1.544,1.544,0,0,1,0-3.087h11.651a1.544,1.544,0,0,1,0,3.087Zm0-5.77H209.254a1.548,1.548,0,0,1-1.543-1.543,1.548,1.548,0,0,1,1.543-1.543h11.651a1.536,1.536,0,0,1,1.529,1.543A1.536,1.536,0,0,1,220.905-.28Z"/>
      </g>
    </g>
  </g>
</svg>
