<svg id="Layer_4" data-name="Layer 4" xmlns="http://www.w3.org/2000/svg" viewBox="0 0 99.034 112.954">
  <defs>
    <style>
      .cls-1 {
        fill: none;
      }

      .cls-2 {
        fill: #443e39;
      }
    </style>
  </defs>
  <g>
    <rect class="cls-1" width="99.034" height="112.954"/>
    <g>
      <path class="cls-2" d="M0,84.038c1.957-3.7,4.043-7.309,6.208-10.871s4.37-7.1,6.727-10.536c2.378-3.424,4.881-6.767,7.2-10.229s4.475-7.03,6.587-10.626q3.146-5.408,6.445-10.718c2.2-3.539,4.388-7.086,6.669-10.572C44.426,13.528,49.153,6.661,54.2,0l.168.108c-3.986,7.346-8.292,14.485-12.737,21.534-2.236,3.516-4.565,6.972-6.881,10.436s-4.686,6.894-7.106,10.292c-2.4,3.407-4.768,6.841-6.962,10.383s-4.21,7.2-6.348,10.781C12.173,67.1,9.862,70.566,7.51,74.007S2.728,80.839.168,84.146Z"/>
      <path class="cls-2" d="M65.587,7.344a103.253,103.253,0,0,1-5.64,11.237c-1.036,1.811-2.085,3.613-3.195,5.376-1.089,1.777-2.242,3.512-3.481,5.192C50.8,32.51,48,35.663,45.636,39.1a103.357,103.357,0,0,0-6.4,10.748c-.987,1.842-1.933,3.711-2.958,5.529s-2.082,3.615-3.148,5.407c-2.135,3.581-4.258,7.17-6.569,10.638a191.626,191.626,0,0,1-15.177,19.96l-.336-.217A191.624,191.624,0,0,1,22.974,69.106c2.2-3.535,4.6-6.949,6.982-10.371,1.192-1.71,2.381-3.422,3.627-5.1s2.545-3.316,3.816-4.976A103.179,103.179,0,0,0,44.552,38.4c2.157-3.567,3.875-7.417,5.915-11.059,1.02-1.822,2.125-3.588,3.3-5.313,1.148-1.738,2.357-3.437,3.58-5.128a103.264,103.264,0,0,1,7.909-9.773Z"/>
      <path class="cls-2" d="M22.228,98.374c1.777-3.812,3.823-7.451,5.924-11.054,2.119-3.591,4.3-7.144,6.7-10.551s5.086-6.636,7.415-10.092,4.472-7.032,6.494-10.686,4.084-7.282,6.274-10.828c2.154-3.569,4.34-7.117,6.622-10.6,4.632-6.929,9.441-13.744,14.768-20.224l.252.163c-3.705,7.526-7.93,14.717-12.331,21.795-2.235,3.516-4.566,6.971-6.928,10.406-2.327,3.457-4.771,6.839-7.277,10.181S45.261,63.648,43.088,67.2c-2.188,3.548-4.035,7.315-6.135,10.918S32.5,85.169,30.106,88.58c-2.416,3.4-4.886,6.765-7.626,9.956Z"/>
      <path class="cls-2" d="M33.447,105.609Q39.8,94.83,46.691,84.4C49,80.935,51.4,77.523,53.669,74.029c2.3-3.474,4.5-7.014,6.69-10.56q6.546-10.651,13.347-21.14T87.647,21.572l.084.054Q81.347,32.383,74.573,42.888,67.84,53.42,60.819,63.766c-2.326,3.458-4.644,6.921-6.859,10.45-2.247,3.509-4.367,7.1-6.573,10.636q-6.68,10.564-13.856,20.812Z"/>
      <path class="cls-2" d="M65.243,100.014a77.189,77.189,0,0,1,8.317,4.409c1.339.806,2.671,1.621,3.972,2.481,1.312.845,2.592,1.737,3.829,2.692,2.475,1.91,4.789,4.057,7.322,5.881a77.291,77.291,0,0,0,7.94,4.967c1.363.77,2.746,1.509,4.09,2.307s2.672,1.619,4,2.446c2.646,1.658,5.3,3.307,7.854,5.094a143.616,143.616,0,0,1,14.69,11.694l-.168.248a143.557,143.557,0,0,1-16.315-9.292c-2.61-1.71-5.126-3.559-7.648-5.4-1.26-.921-2.522-1.84-3.756-2.8s-2.44-1.961-3.661-2.94a77.578,77.578,0,0,0-7.562-5.525c-2.635-1.674-5.488-3.024-8.181-4.612-1.347-.794-2.65-1.65-3.922-2.554s-2.534-1.822-3.78-2.766a77.317,77.317,0,0,1-7.184-6.083Z"/>
      <path class="cls-2" d="M132.667,133.985c-2.824-1.393-5.514-2.985-8.177-4.618s-5.276-3.336-7.787-5.193-4.883-3.918-7.431-5.719-5.19-3.465-7.892-5.039-5.384-3.178-8-4.876c-2.635-1.672-5.255-3.368-7.827-5.134-5.11-3.583-10.132-7.3-14.894-11.391l.126-.187c5.572,2.9,10.885,6.182,16.111,9.594,2.595,1.732,5.143,3.534,7.675,5.359,2.549,1.8,5.04,3.686,7.5,5.617s4.985,3.768,7.611,5.454,5.408,3.141,8.071,4.774,5.2,3.448,7.715,5.3,4.983,3.771,7.327,5.874Z"/>
      <path class="cls-2" d="M138.27,125.707q-7.963-4.932-15.656-10.267c-2.557-1.787-5.072-3.638-7.65-5.4-2.562-1.78-5.175-3.485-7.793-5.184q-7.866-5.076-15.6-10.342T76.26,83.736l.042-.062q7.945,4.959,15.7,10.2,7.772,5.216,15.4,10.643c2.55,1.8,5.1,3.592,7.709,5.309,2.589,1.74,5.242,3.387,7.852,5.1q7.8,5.176,15.35,10.718Z"/>
      <path class="cls-2" d="M99.034,28.916a59.587,59.587,0,0,1-2.479,5.838c-.889,1.906-1.863,3.757-2.87,5.586s-2.057,3.631-3.154,5.4a58.539,58.539,0,0,1-3.5,5.177c-2.531,3.326-5.465,6.392-7.85,9.812a82.116,82.116,0,0,0-6.3,10.809c-.952,1.865-1.852,3.764-2.851,5.6-.984,1.845-2.038,3.644-3.088,5.446-2.1,3.6-4.193,7.212-6.517,10.671s-4.785,6.83-7.364,10.124a117.08,117.08,0,0,1-8.22,9.574l-.42-.271a117.286,117.286,0,0,1,5.33-11.437q2.907-5.562,6.186-10.885c2.192-3.544,4.62-6.936,7.033-10.338,1.209-1.7,2.413-3.4,3.687-5.059,1.259-1.667,2.618-3.27,3.924-4.907a82,82,0,0,0,7.247-10.2c2.132-3.583,3.715-7.52,5.7-11.2a58.2,58.2,0,0,1,3.271-5.328q1.741-2.6,3.62-5.1c1.252-1.672,2.536-3.323,3.906-4.918a59.767,59.767,0,0,1,4.3-4.667Z"/>
    </g>
    <g>
      <path class="cls-2" d="M-33.792,100.014a77.3,77.3,0,0,1,8.318,4.409c1.339.806,2.67,1.621,3.972,2.481,1.312.845,2.592,1.737,3.829,2.692,2.475,1.91,4.789,4.057,7.322,5.881a77.183,77.183,0,0,0,7.94,4.967c1.362.77,2.746,1.509,4.089,2.307s2.672,1.619,4,2.446c2.645,1.658,5.3,3.307,7.854,5.094a143.616,143.616,0,0,1,14.69,11.694l-.168.248a143.471,143.471,0,0,1-16.315-9.292c-2.61-1.71-5.126-3.559-7.648-5.4-1.26-.921-2.522-1.84-3.756-2.8s-2.44-1.961-3.661-2.94a77.47,77.47,0,0,0-7.563-5.525c-2.634-1.674-5.488-3.024-8.18-4.612-1.347-.794-2.651-1.65-3.923-2.554s-2.534-1.822-3.779-2.766a77.329,77.329,0,0,1-7.185-6.083Z"/>
      <path class="cls-2" d="M33.632,133.985c-2.824-1.393-5.514-2.985-8.176-4.618s-5.277-3.336-7.787-5.193-4.883-3.918-7.432-5.719-5.189-3.465-7.891-5.039-5.384-3.178-8-4.876c-2.636-1.672-5.256-3.368-7.828-5.134-5.109-3.583-10.131-7.3-14.894-11.391l.126-.187c5.573,2.9,10.886,6.182,16.111,9.594,2.6,1.732,5.143,3.534,7.675,5.359,2.55,1.8,5.041,3.686,7.5,5.617s4.984,3.768,7.611,5.454,5.408,3.141,8.071,4.774,5.2,3.448,7.715,5.3,4.983,3.771,7.326,5.874Z"/>
      <path class="cls-2" d="M39.235,125.707q-7.963-4.932-15.655-10.267c-2.557-1.787-5.072-3.638-7.65-5.4-2.562-1.78-5.176-3.485-7.793-5.184Q.271,99.784-7.467,94.518T-22.774,83.736l.042-.062q7.946,4.959,15.7,10.2,7.773,5.216,15.4,10.643c2.55,1.8,5.1,3.592,7.709,5.309,2.59,1.74,5.243,3.387,7.853,5.1q7.8,5.176,15.349,10.718Z"/>
    </g>
    <g>
      <path class="cls-2" d="M65.243-12.94A77.546,77.546,0,0,1,73.56-8.531c1.339.806,2.671,1.621,3.972,2.482,1.312.844,2.592,1.736,3.829,2.692C83.836-1.448,86.15.7,88.683,2.523a77.3,77.3,0,0,0,7.94,4.968c1.363.77,2.746,1.509,4.09,2.307s2.672,1.618,4,2.446c2.646,1.658,5.3,3.306,7.854,5.094a143.47,143.47,0,0,1,14.69,11.693l-.168.248a143.557,143.557,0,0,1-16.315-9.292c-2.61-1.71-5.126-3.559-7.648-5.4-1.26-.921-2.522-1.839-3.756-2.8s-2.44-1.96-3.661-2.939a77.423,77.423,0,0,0-7.562-5.526C85.507,1.649,82.654.3,79.961-1.289c-1.347-.793-2.65-1.65-3.922-2.554-1.283-.888-2.534-1.822-3.78-2.765a77.482,77.482,0,0,1-7.184-6.084Z"/>
      <path class="cls-2" d="M132.667,21.032c-2.824-1.394-5.514-2.986-8.177-4.619s-5.276-3.336-7.787-5.193S111.82,7.3,109.272,5.5s-5.19-3.464-7.892-5.038-5.384-3.178-8-4.877c-2.635-1.672-5.255-3.367-7.827-5.133-5.11-3.583-10.132-7.3-14.894-11.392l.126-.186c5.572,2.9,10.885,6.182,16.111,9.594C89.489-9.8,92.037-8,94.569-6.172c2.549,1.8,5.04,3.685,7.5,5.616s4.985,3.769,7.611,5.454,5.408,3.142,8.071,4.774,5.2,3.448,7.715,5.3,4.983,3.77,7.327,5.874Z"/>
      <path class="cls-2" d="M138.27,12.754q-7.963-4.933-15.656-10.267c-2.557-1.788-5.072-3.639-7.65-5.4-2.562-1.781-5.175-3.485-7.793-5.184q-7.866-5.078-15.6-10.343T76.26-29.217l.042-.062q7.945,4.958,15.7,10.2,7.772,5.215,15.4,10.642c2.55,1.8,5.1,3.592,7.709,5.309,2.589,1.74,5.242,3.387,7.852,5.1q7.8,5.177,15.35,10.719Z"/>
    </g>
    <g>
      <path class="cls-2" d="M-33.792-12.94a77.656,77.656,0,0,1,8.318,4.409c1.339.806,2.67,1.621,3.972,2.482,1.312.844,2.592,1.736,3.829,2.692C-15.2-1.448-12.884.7-10.351,2.523a77.191,77.191,0,0,0,7.94,4.968C-1.049,8.261.335,9,1.678,9.8s2.672,1.618,4,2.446c2.645,1.658,5.3,3.306,7.854,5.094a143.47,143.47,0,0,1,14.69,11.693l-.168.248a143.471,143.471,0,0,1-16.315-9.292c-2.61-1.71-5.126-3.559-7.648-5.4-1.26-.921-2.522-1.839-3.756-2.8s-2.44-1.96-3.661-2.939a77.315,77.315,0,0,0-7.563-5.526C-13.527,1.649-16.381.3-19.073-1.289-20.42-2.082-21.724-2.939-23-3.843c-1.282-.888-2.534-1.822-3.779-2.765a77.494,77.494,0,0,1-7.185-6.084Z"/>
      <path class="cls-2" d="M33.632,21.032c-2.824-1.394-5.514-2.986-8.176-4.619s-5.277-3.336-7.787-5.193S12.786,7.3,10.237,5.5,5.048,2.037,2.346.463s-5.384-3.178-8-4.877c-2.636-1.672-5.256-3.367-7.828-5.133-5.109-3.583-10.131-7.3-14.894-11.392l.126-.186c5.573,2.9,10.886,6.182,16.111,9.594C-9.545-9.8-7-8-4.466-6.172c2.55,1.8,5.041,3.685,7.5,5.616S8.019,3.213,10.646,4.9s5.408,3.142,8.071,4.774,5.2,3.448,7.715,5.3,4.983,3.77,7.326,5.874Z"/>
      <path class="cls-2" d="M39.235,12.754Q31.272,7.821,23.58,2.487C21.023.7,18.508-1.152,15.93-2.909,13.368-4.69,10.754-6.394,8.137-8.093Q.271-13.17-7.467-18.436T-22.774-29.217l.042-.062q7.946,4.958,15.7,10.2Q.738-13.859,8.366-8.433c2.55,1.8,5.1,3.592,7.709,5.309,2.59,1.74,5.243,3.387,7.853,5.1q7.8,5.177,15.349,10.719Z"/>
    </g>
  </g>
</svg>
