<svg id="Layer_8" data-name="Layer 8" xmlns="http://www.w3.org/2000/svg" viewBox="0 0 240 170.667">
  <defs>
    <style>
      .cls-1, .cls-2 {
        fill: none;
      }

      .cls-2, .cls-3 {
        stroke: #78a7be;
        stroke-miterlimit: 10;
      }

      .cls-3, .cls-4 {
        fill: #78a7be;
      }
    </style>
  </defs>
  <g>
    <rect class="cls-1" width="240" height="170.667"/>
    <g>
      <path class="cls-2" d="M254.848,157.961l-36.526,21a1.8,1.8,0,0,1-2.456-.662h0c-3.937-6.848,7.684-16.661,14.532-20.6h0c6.848-3.937,21.176-9.043,25.113-2.195h0A1.8,1.8,0,0,1,254.848,157.961Z"/>
      <path class="cls-2" d="M261.739,169.947l-36.526,21a1.8,1.8,0,0,0-.663,2.455h0c3.937,6.848,17.019-.424,23.867-4.361h0c6.848-3.937,19.714-11.583,15.777-18.431h0A1.8,1.8,0,0,0,261.739,169.947Z"/>
      <rect class="cls-3" x="217.166" y="170.866" width="45.729" height="7.177" rx="2.872" transform="translate(-55.012 142.852) rotate(-29.896)"/>
      <g>
        <path class="cls-4" d="M230,163.567c.36-.758.846-.86,1.257-.665s.639.636.279,1.394a2.231,2.231,0,0,1-1.265.972.176.176,0,0,1-.223-.106A2.227,2.227,0,0,1,230,163.567Z"/>
        <path class="cls-4" d="M229.219,161.728c-.728.418-1.185.225-1.412-.169s-.163-.887.564-1.305a2.226,2.226,0,0,1,1.594-.078.175.175,0,0,1,.123.214A2.225,2.225,0,0,1,229.219,161.728Z"/>
        <path class="cls-4" d="M225.306,168.515c-.241.8-.706.977-1.142.846s-.727-.532-.486-1.336a2.23,2.23,0,0,1,1.1-1.151.175.175,0,0,1,.236.071A2.225,2.225,0,0,1,225.306,168.515Z"/>
        <path class="cls-4" d="M238.85,156.918c-.241.8-.706.978-1.142.847s-.728-.533-.486-1.336a2.219,2.219,0,0,1,1.1-1.151.174.174,0,0,1,.236.071A2.222,2.222,0,0,1,238.85,156.918Z"/>
        <path class="cls-4" d="M219.552,169.857c-.267-.795.012-1.206.443-1.351s.9.014,1.169.81a2.231,2.231,0,0,1-.236,1.578.176.176,0,0,1-.235.078A2.228,2.228,0,0,1,219.552,169.857Z"/>
        <path class="cls-4" d="M226.312,169.907c.347-.765.831-.875,1.245-.688s.65.625.3,1.39a2.23,2.23,0,0,1-1.248.993.175.175,0,0,1-.225-.1A2.22,2.22,0,0,1,226.312,169.907Z"/>
        <path class="cls-4" d="M227.45,164.031c.418.728.225,1.185-.169,1.412s-.887.163-1.305-.564a2.226,2.226,0,0,1-.078-1.594.175.175,0,0,1,.214-.123A2.225,2.225,0,0,1,227.45,164.031Z"/>
        <path class="cls-4" d="M231.61,167.637c.688.48.709.976.449,1.349s-.733.525-1.422.045a2.223,2.223,0,0,1-.749-1.408.176.176,0,0,1,.141-.2A2.226,2.226,0,0,1,231.61,167.637Z"/>
        <path class="cls-4" d="M235.267,166.272c-.7.47-1.166.311-1.421-.066s-.227-.873.469-1.343a2.23,2.23,0,0,1,1.584-.193.176.176,0,0,1,.138.205A2.229,2.229,0,0,1,235.267,166.272Z"/>
        <path class="cls-4" d="M234.06,158.522c.6.589.534,1.082.215,1.405s-.812.394-1.409-.195a2.233,2.233,0,0,1-.5-1.515.176.176,0,0,1,.174-.176A2.223,2.223,0,0,1,234.06,158.522Z"/>
        <path class="cls-4" d="M240.317,163.214c-.695-.471-.721-.967-.466-1.343s.726-.535,1.42-.065a2.226,2.226,0,0,1,.768,1.4.175.175,0,0,1-.138.2A2.222,2.222,0,0,1,240.317,163.214Z"/>
        <path class="cls-4" d="M235.961,160.875c.358-.759.844-.862,1.256-.668s.64.635.282,1.394a2.23,2.23,0,0,1-1.264.974.174.174,0,0,1-.223-.1A2.225,2.225,0,0,1,235.961,160.875Z"/>
      </g>
      <rect class="cls-4" x="193.534" y="97.351" width="30.056" height="2.489" rx="1.236"/>
      <rect class="cls-4" x="193.534" y="106.411" width="30.056" height="2.489" rx="1.236"/>
      <rect class="cls-4" x="193.534" y="115.47" width="30.056" height="2.489" rx="1.236"/>
    </g>
    <g>
      <path class="cls-2" d="M14.848,157.961l-36.526,21a1.8,1.8,0,0,1-2.456-.662h0c-3.937-6.848,7.684-16.661,14.532-20.6h0c6.848-3.937,21.176-9.043,25.113-2.195h0A1.8,1.8,0,0,1,14.848,157.961Z"/>
      <path class="cls-2" d="M21.739,169.947l-36.526,21a1.8,1.8,0,0,0-.663,2.455h0c3.937,6.848,17.019-.424,23.867-4.361h0c6.848-3.937,19.714-11.583,15.777-18.431h0A1.8,1.8,0,0,0,21.739,169.947Z"/>
      <rect class="cls-3" x="-22.834" y="170.866" width="45.729" height="7.177" rx="2.872" transform="translate(-86.948 23.229) rotate(-29.896)"/>
      <g>
        <path class="cls-4" d="M13.117,155.988c.8.265.957.735.813,1.167s-.554.711-1.35.446a2.228,2.228,0,0,1-1.118-1.138.175.175,0,0,1,.078-.234A2.231,2.231,0,0,1,13.117,155.988Z"/>
        <path class="cls-4" d="M2.681,158.325c.8.265.956.735.813,1.167s-.554.712-1.35.446A2.227,2.227,0,0,1,1.025,158.8a.176.176,0,0,1,.078-.234A2.232,2.232,0,0,1,2.681,158.325Z"/>
        <path class="cls-4" d="M7.419,160.02c-.241.8-.707.978-1.142.847s-.728-.533-.486-1.336a2.223,2.223,0,0,1,1.1-1.151.174.174,0,0,1,.236.071A2.222,2.222,0,0,1,7.419,160.02Z"/>
        <path class="cls-4" d="M3.289,154.8c.347-.764.831-.875,1.245-.687s.65.625.3,1.389a2.228,2.228,0,0,1-1.248.994.175.175,0,0,1-.225-.1A2.223,2.223,0,0,1,3.289,154.8Z"/>
        <path class="cls-4" d="M8.834,156.418c-.828.139-1.19-.2-1.265-.65s.157-.888.984-1.027a2.228,2.228,0,0,1,1.521.482.176.176,0,0,1,.041.244A2.224,2.224,0,0,1,8.834,156.418Z"/>
        <path class="cls-4" d="M.317,163.214c-.695-.471-.722-.967-.466-1.343s.726-.535,1.42-.065a2.226,2.226,0,0,1,.768,1.4.175.175,0,0,1-.139.2A2.22,2.22,0,0,1,.317,163.214Z"/>
      </g>
      <rect class="cls-4" x="55.03" y="127.276" width="1.606" height="13.391" rx="0.803" transform="translate(-78.379 78.72) rotate(-45)"/>
      <rect class="cls-4" x="63.364" y="127.276" width="1.606" height="13.391" rx="0.803" transform="translate(14.807 274.077) rotate(-135)"/>
    </g>
    <g>
      <path class="cls-2" d="M254.848-12.7l-36.526,21a1.8,1.8,0,0,1-2.456-.663h0C211.929.784,223.55-9.029,230.4-12.966h0c6.848-3.937,21.176-9.043,25.113-2.2h0A1.8,1.8,0,0,1,254.848-12.7Z"/>
      <path class="cls-2" d="M261.739-.72l-36.526,21a1.8,1.8,0,0,0-.663,2.456h0c3.937,6.848,17.019-.424,23.867-4.362h0c6.848-3.937,19.714-11.583,15.777-18.431h0A1.8,1.8,0,0,0,261.739-.72Z"/>
      <rect class="cls-3" x="217.166" y="0.199" width="45.729" height="7.177" rx="2.872" transform="translate(30.053 120.141) rotate(-29.896)"/>
      <g>
        <path class="cls-4" d="M218.848,3.463c.8.265.956.735.813,1.167s-.554.711-1.35.446a2.227,2.227,0,0,1-1.119-1.138.177.177,0,0,1,.078-.234A2.227,2.227,0,0,1,218.848,3.463Z"/>
        <path class="cls-4" d="M219.552-.809c-.267-.8.012-1.207.443-1.352s.9.015,1.169.81a2.23,2.23,0,0,1-.236,1.578.177.177,0,0,1-.235.079A2.228,2.228,0,0,1,219.552-.809Z"/>
        <path class="cls-4" d="M226.312-.76c.347-.765.831-.875,1.245-.687s.65.624.3,1.389a2.226,2.226,0,0,1-1.248.993.175.175,0,0,1-.225-.1A2.223,2.223,0,0,1,226.312-.76Z"/>
        <path class="cls-4" d="M222.477,3.447c-.827.138-1.189-.2-1.264-.651s.156-.888.984-1.026a2.225,2.225,0,0,1,1.521.482.176.176,0,0,1,.04.244A2.229,2.229,0,0,1,222.477,3.447Z"/>
      </g>
    </g>
    <g>
      <path class="cls-2" d="M134.848,72.628l-36.526,21a1.8,1.8,0,0,1-2.456-.663h0c-3.937-6.848,7.684-16.66,14.532-20.6h0c6.848-3.938,21.176-9.043,25.113-2.195h0A1.8,1.8,0,0,1,134.848,72.628Z"/>
      <path class="cls-2" d="M141.739,84.614l-36.526,21a1.8,1.8,0,0,0-.663,2.455h0c3.937,6.848,17.019-.424,23.867-4.361h0c6.848-3.937,19.714-11.584,15.777-18.432h0A1.8,1.8,0,0,0,141.739,84.614Z"/>
      <rect class="cls-3" x="97.166" y="85.532" width="45.729" height="7.177" rx="2.872" transform="translate(-28.448 71.685) rotate(-29.896)"/>
      <g>
        <path class="cls-4" d="M98.848,88.8c.8.265.956.735.813,1.167s-.554.712-1.35.447a2.234,2.234,0,0,1-1.119-1.138.178.178,0,0,1,.078-.235A2.232,2.232,0,0,1,98.848,88.8Z"/>
        <path class="cls-4" d="M133.117,70.655c.8.265.957.735.813,1.166s-.553.712-1.35.447a2.228,2.228,0,0,1-1.118-1.138.174.174,0,0,1,.078-.234A2.22,2.22,0,0,1,133.117,70.655Z"/>
        <path class="cls-4" d="M122.681,72.992c.8.265.956.735.813,1.166s-.554.712-1.35.447a2.227,2.227,0,0,1-1.119-1.138.176.176,0,0,1,.078-.234A2.227,2.227,0,0,1,122.681,72.992Z"/>
        <path class="cls-4" d="M110,78.234c.36-.758.846-.861,1.257-.665s.639.636.279,1.394a2.224,2.224,0,0,1-1.265.971.174.174,0,0,1-.223-.106A2.224,2.224,0,0,1,110,78.234Z"/>
        <path class="cls-4" d="M109.219,76.4c-.728.418-1.185.225-1.412-.169s-.163-.887.564-1.306a2.225,2.225,0,0,1,1.594-.077.174.174,0,0,1,.123.214A2.225,2.225,0,0,1,109.219,76.4Z"/>
        <path class="cls-4" d="M105.306,83.181c-.241.8-.706.978-1.142.847s-.728-.533-.486-1.336a2.226,2.226,0,0,1,1.105-1.151.174.174,0,0,1,.236.071A2.222,2.222,0,0,1,105.306,83.181Z"/>
        <path class="cls-4" d="M127.419,74.687c-.241.8-.707.978-1.142.847s-.728-.533-.486-1.337a2.227,2.227,0,0,1,1.105-1.151.175.175,0,0,1,.236.072A2.222,2.222,0,0,1,127.419,74.687Z"/>
        <path class="cls-4" d="M118.85,71.585c-.241.8-.707.978-1.142.847s-.728-.533-.486-1.337a2.227,2.227,0,0,1,1.105-1.151.175.175,0,0,1,.236.071A2.226,2.226,0,0,1,118.85,71.585Z"/>
        <path class="cls-4" d="M99.552,84.524c-.267-.8.012-1.207.443-1.351s.9.014,1.169.81a2.227,2.227,0,0,1-.236,1.577.176.176,0,0,1-.235.079A2.228,2.228,0,0,1,99.552,84.524Z"/>
        <path class="cls-4" d="M106.312,84.573c.347-.764.831-.875,1.245-.687s.65.625.3,1.389a2.228,2.228,0,0,1-1.248.994.175.175,0,0,1-.225-.1A2.223,2.223,0,0,1,106.312,84.573Z"/>
        <path class="cls-4" d="M123.289,69.467c.347-.765.831-.875,1.245-.687s.65.624.3,1.389a2.226,2.226,0,0,1-1.248.993.175.175,0,0,1-.225-.1A2.22,2.22,0,0,1,123.289,69.467Z"/>
        <path class="cls-4" d="M102.477,88.78c-.827.139-1.189-.2-1.264-.65s.156-.888.984-1.027a2.235,2.235,0,0,1,1.521.482.176.176,0,0,1,.04.244A2.221,2.221,0,0,1,102.477,88.78Z"/>
        <path class="cls-4" d="M128.834,71.085c-.828.138-1.19-.2-1.265-.651s.157-.888.984-1.026a2.223,2.223,0,0,1,1.521.482.176.176,0,0,1,.041.244A2.232,2.232,0,0,1,128.834,71.085Z"/>
        <path class="cls-4" d="M107.45,78.7c.418.727.225,1.185-.169,1.412s-.887.163-1.305-.565a2.218,2.218,0,0,1-.078-1.593.174.174,0,0,1,.214-.123A2.225,2.225,0,0,1,107.45,78.7Z"/>
        <path class="cls-4" d="M111.61,82.3c.688.48.709.977.449,1.35s-.733.525-1.422.045a2.225,2.225,0,0,1-.749-1.408.176.176,0,0,1,.141-.2A2.23,2.23,0,0,1,111.61,82.3Z"/>
        <path class="cls-4" d="M115.267,80.939c-.7.47-1.166.31-1.421-.067s-.227-.872.469-1.342a2.225,2.225,0,0,1,1.584-.193.176.176,0,0,1,.138.2A2.229,2.229,0,0,1,115.267,80.939Z"/>
        <path class="cls-4" d="M114.06,73.188c.6.59.534,1.082.215,1.406s-.812.394-1.409-.195a2.234,2.234,0,0,1-.5-1.515.176.176,0,0,1,.174-.176A2.227,2.227,0,0,1,114.06,73.188Z"/>
        <path class="cls-4" d="M120.317,77.881c-.695-.471-.722-.967-.466-1.344s.726-.535,1.42-.064a2.224,2.224,0,0,1,.768,1.4.175.175,0,0,1-.139.2A2.23,2.23,0,0,1,120.317,77.881Z"/>
        <path class="cls-4" d="M115.961,75.542c.358-.759.844-.862,1.256-.668s.64.635.282,1.393a2.228,2.228,0,0,1-1.264.975.175.175,0,0,1-.223-.106A2.221,2.221,0,0,1,115.961,75.542Z"/>
      </g>
      <path class="cls-4" d="M151.788,142.814a11.26,11.26,0,1,0,11.26,11.26A11.263,11.263,0,0,0,151.788,142.814Zm5.033,16.264a.7.7,0,0,1-.1.992.695.695,0,0,1-.992-.093l-3.933-4.789-3.94,4.789a.69.69,0,0,1-.547.259.719.719,0,0,1-.453-.166.706.706,0,0,1-.093-.992l4.113-5-4.113-5.005a.71.71,0,0,1,1.093-.906l3.94,4.789,3.933-4.789a.706.706,0,0,1,.992-.093.713.713,0,0,1,.1,1l-4.113,5.005Z"/>
      <rect class="cls-4" x="73.534" y="12.018" width="30.056" height="2.489" rx="1.236"/>
      <rect class="cls-4" x="73.534" y="21.077" width="30.056" height="2.489" rx="1.236"/>
      <rect class="cls-4" x="73.534" y="30.136" width="30.056" height="2.489" rx="1.236"/>
      <rect class="cls-4" x="175.03" y="41.943" width="1.606" height="13.391" rx="0.803" transform="translate(17.108 138.579) rotate(-45)"/>
      <rect class="cls-4" x="183.364" y="41.943" width="1.606" height="13.391" rx="0.803" transform="translate(280 213.257) rotate(-135)"/>
    </g>
    <g>
      <path class="cls-2" d="M14.848-12.7l-36.526,21a1.8,1.8,0,0,1-2.456-.663h0C-28.071.784-16.45-9.029-9.6-12.966h0c6.848-3.937,21.176-9.043,25.113-2.2h0A1.8,1.8,0,0,1,14.848-12.7Z"/>
      <path class="cls-2" d="M21.739-.72l-36.526,21a1.8,1.8,0,0,0-.663,2.456h0c3.937,6.848,17.019-.424,23.867-4.362h0C15.265,14.437,28.131,6.791,24.194-.057h0A1.8,1.8,0,0,0,21.739-.72Z"/>
      <rect class="cls-3" x="-22.834" y="0.199" width="45.729" height="7.177" rx="2.872" transform="translate(-1.884 0.519) rotate(-29.896)"/>
      <path class="cls-4" d="M31.788,57.48a11.26,11.26,0,1,0,11.26,11.26A11.264,11.264,0,0,0,31.788,57.48Zm5.033,16.265a.706.706,0,0,1-.1.992.7.7,0,0,1-.445.165.687.687,0,0,1-.547-.259L31.8,69.855l-3.94,4.788a.687.687,0,0,1-.547.259.718.718,0,0,1-.453-.165.706.706,0,0,1-.093-.992l4.113-5.005-4.113-5a.71.71,0,1,1,1.093-.906l3.94,4.789,3.933-4.789a.707.707,0,0,1,.992-.094.715.715,0,0,1,.1,1l-4.113,5Z"/>
    </g>
  </g>
</svg>
