<svg xmlns="http://www.w3.org/2000/svg" viewBox="0 0 94.96 57.706">
  <defs>
    <style>
      .cls-1 {
        fill: #25355b;
      }

      .cls-2, .cls-3 {
        fill: none;
      }

      .cls-3 {
        stroke: #e6e6e6;
        stroke-miterlimit: 10;
      }

      .cls-4 {
        fill: #e6e6e6;
      }
    </style>
  </defs>
  <g id="Layer_1" data-name="Layer 1">
    <rect class="cls-1" x="-61.282" y="-87.461" width="210.642" height="219.68"/>
  </g>
  <g id="Layer_7" data-name="Layer 7">
    <g>
      <rect class="cls-2" width="94.96" height="57.706"/>
      <g>
        <polygon class="cls-3" points="141.734 57.706 94.96 85.975 48.187 57.706 94.96 29.437 141.734 57.706"/>
        <path class="cls-4" d="M89.652,41.06l-3.33,2.01.52.86,3.33-2.01Zm-6.67,4.03-3.33,2.02.52.85,3.33-2.01Zm-6.67,4.03-3.33,2.02.52.85,3.33-2.01Zm-6.67,4.03-3.33,2.02.52.85,3.33-2.01Zm-6.66,4.03-3.34,2.02.52.85,3.33-2.01Z"/>
        <polyline class="cls-3" points="93.248 39.472 94.96 38.437 96.672 39.472"/>
        <path class="cls-4" d="M69.642,62.15l-3.33,2.02.52.85,3.33-2.01Zm6.67-4.03-3.33,2.02.52.85,3.33-2.01Zm6.67-4.03-3.33,2.02.52.85,3.33-2.01Zm6.67-4.03-3.33,2.01.52.86,3.33-2.01Z"/>
        <polyline class="cls-3" points="93.248 48.472 94.96 47.437 96.672 48.472"/>
        <polyline class="cls-3" points="93.248 57.472 94.96 56.437 96.672 57.472"/>
      </g>
      <g>
        <polygon class="cls-3" points="46.773 57.706 0 85.975 -46.773 57.706 0 29.437 46.773 57.706"/>
        <polyline class="cls-3" points="-1.712 39.472 0 38.437 1.712 39.472"/>
        <path class="cls-4" d="M5.3,41.06l-.51.85,3.33,2.02.52-.86Zm6.67,4.03-.52.86,3.34,2.01.52-.85Zm6.67,4.03-.52.86,3.34,2.01.52-.85Zm6.67,4.03-.52.86,3.34,2.01.51-.85Zm6.67,4.03-.52.86,3.34,2.01.51-.85Z"/>
        <polyline class="cls-3" points="-1.712 48.472 0 47.437 1.712 48.472"/>
        <path class="cls-4" d="M25.312,62.15l-.52.86,3.34,2.01.51-.85Zm-6.67-4.03-.52.86,3.34,2.01.52-.85Zm-6.67-4.03-.52.86,3.34,2.01.52-.85ZM5.3,50.06l-.51.85,3.33,2.02.52-.86Z"/>
        <polyline class="cls-3" points="-1.712 57.472 0 56.437 1.712 57.472"/>
      </g>
      <polygon class="cls-3" points="189.214 28.853 142.44 57.122 95.667 28.853 142.44 0.584 189.214 28.853"/>
      <g>
        <polygon class="cls-3" points="141.734 0 94.96 28.269 48.187 0 94.96 -28.269 141.734 0"/>
        <path class="cls-4" d="M89.652-16.646l-3.33,2.01.52.86,3.33-2.01Zm-6.67,4.03-3.33,2.02.52.85,3.33-2.01Zm-6.67,4.03-3.33,2.02.52.85,3.33-2.01Zm-6.67,4.03-3.33,2.02.52.85,3.33-2.01Zm-6.66,4.03-3.34,2.02.52.85,3.33-2.01Z"/>
        <path class="cls-4" d="M69.642,4.444l-3.33,2.02.52.85,3.33-2.01Zm6.67-4.03-3.33,2.02.52.85,3.33-2.01Zm6.67-4.03L79.652-1.6l.52.85,3.33-2.01Zm6.67-4.03-3.33,2.01.52.86,3.33-2.01Z"/>
        <path class="cls-4" d="M89.652,1.354l-3.33,2.02.52.85,3.33-2.01Zm-6.67,4.03L79.652,7.4l.52.85,3.33-2.01Zm-6.67,4.03-3.33,2.02.52.85,3.33-2.01Z"/>
        <polyline class="cls-3" points="93.248 -0.234 94.96 -1.269 96.672 -0.234"/>
      </g>
      <g>
        <polygon class="cls-3" points="94.253 28.853 47.48 57.122 0.707 28.853 47.48 0.584 94.253 28.853"/>
        <path class="cls-4" d="M42.172,12.207l-3.33,2.01.52.86,3.33-2.01Zm-6.67,4.03-3.33,2.02.52.85,3.33-2.01Zm-6.67,4.03-3.33,2.02.52.85,3.33-2.01Zm-6.67,4.03-3.33,2.02.52.85,3.33-2.01Zm-6.66,4.03-3.34,2.02.52.85,3.33-2.01Z"/>
        <polyline class="cls-3" points="45.768 10.619 47.48 9.584 49.192 10.619"/>
        <path class="cls-4" d="M52.782,12.207l-.51.85,3.33,2.02.52-.86Zm6.67,4.03-.52.86,3.34,2.01.52-.85Zm6.67,4.03-.52.86,3.34,2.01.52-.85Zm6.67,4.03-.52.86,3.34,2.01.51-.85Zm6.67,4.03-.52.86,3.34,2.01.51-.85Z"/>
        <path class="cls-4" d="M22.162,33.3l-3.33,2.02.52.85,3.33-2.01Zm6.67-4.03-3.33,2.02.52.85,3.33-2.01Zm6.67-4.03-3.33,2.02.52.85,3.33-2.01Zm6.67-4.03-3.33,2.01.52.86,3.33-2.01Z"/>
        <polyline class="cls-3" points="45.768 19.619 47.48 18.584 49.192 19.619"/>
        <path class="cls-4" d="M72.792,33.3l-.52.86,3.34,2.01.51-.85Zm-6.67-4.03-.52.86,3.34,2.01.52-.85Zm-6.67-4.03-.52.86,3.34,2.01.52-.85Zm-6.67-4.03-.51.85,3.33,2.02.52-.86Z"/>
        <path class="cls-4" d="M42.172,30.207l-3.33,2.02.52.85,3.33-2.01Zm-6.67,4.03-3.33,2.02.52.85,3.33-2.01Zm-6.67,4.03-3.33,2.02.52.85,3.33-2.01Z"/>
        <polyline class="cls-3" points="45.768 28.619 47.48 27.584 49.192 28.619"/>
        <path class="cls-4" d="M52.782,30.207l-.51.86,3.33,2.01.52-.85Zm6.67,4.03-.52.86,3.34,2.01.52-.85Zm6.67,4.03-.52.86,3.34,2.01.52-.85Z"/>
      </g>
      <g>
        <polygon class="cls-3" points="46.773 0 0 28.269 -46.773 0 0 -28.269 46.773 0"/>
        <path class="cls-4" d="M5.3-16.646l-.51.85,3.33,2.02.52-.86Zm6.67,4.03-.52.86,3.34,2.01.52-.85Zm6.67,4.03-.52.86,3.34,2.01.52-.85Zm6.67,4.03-.52.86,3.34,2.01.51-.85Zm6.67,4.03-.52.86,3.34,2.01.51-.85Z"/>
        <path class="cls-4" d="M25.312,4.444l-.52.86,3.34,2.01.51-.85ZM18.642.414l-.52.86,3.34,2.01.52-.85Zm-6.67-4.03-.52.86,3.34,2.01.52-.85ZM5.3-7.646l-.51.85,3.33,2.02.52-.86Z"/>
        <polyline class="cls-3" points="-1.712 -0.234 0 -1.269 1.712 -0.234"/>
        <path class="cls-4" d="M5.3,1.354l-.51.86,3.33,2.01.52-.85Zm6.67,4.03-.52.86,3.34,2.01.52-.85Zm6.67,4.03-.52.86,3.34,2.01.52-.85Z"/>
      </g>
      <polygon class="cls-3" points="-0.707 28.853 -47.48 57.122 -94.254 28.853 -47.48 0.584 -0.707 28.853"/>
    </g>
  </g>
</svg>
