<svg xmlns="http://www.w3.org/2000/svg" viewBox="0 0 80.964 73.51">
  <defs>
    <style>
      .cls-1, .cls-3 {
        fill: none;
      }

      .cls-2 {
        fill: #8a2000;
      }

      .cls-3 {
        stroke: #f7931e;
        stroke-linecap: round;
        stroke-miterlimit: 10;
        stroke-width: 3px;
      }

      .cls-3, .cls-6 {
        opacity: 0.86;
      }

      .cls-4 {
        fill: #bd2c00;
      }

      .cls-5 {
        fill: #fba42b;
      }

      .cls-6 {
        fill: #f7931e;
      }
    </style>
  </defs>
  <g id="Layer_1" data-name="Layer 1">
    <g>
      <rect class="cls-1" width="80.964" height="73.51"/>
      <g>
        <polygon class="cls-2" points="38.434 53.51 9.224 93.017 19.501 115.856 37.13 121.984 57.124 117.254 71.741 99.84 74.915 85.758 43.472 56.52 40.985 53.51 38.434 53.51"/>
        <path class="cls-3" d="M63.243,93.805A31.216,31.216,0,0,1,49.9,86.6a30.523,30.523,0,0,1-9.4-18.218"/>
        <path class="cls-3" d="M58.849,104.713a62.223,62.223,0,0,1-18.34-36.331"/>
        <path class="cls-3" d="M50.827,111.462c-1.27-2.867-2.491-5.923-3.624-9.166a123.885,123.885,0,0,1-6.694-33.914"/>
        <line class="cls-3" x1="40.509" y1="68.382" x2="40.509" y2="113.85"/>
        <path class="cls-3" d="M17.722,93.805A31.214,31.214,0,0,0,31.06,86.6a30.523,30.523,0,0,0,9.4-18.218"/>
        <path class="cls-3" d="M22.115,104.713A62.591,62.591,0,0,0,30.36,94.87,62.988,62.988,0,0,0,40.455,68.382"/>
        <path class="cls-3" d="M30.137,111.462c1.27-2.867,2.491-5.923,3.624-9.166a123.885,123.885,0,0,0,6.694-33.914"/>
      </g>
      <g>
        <polygon class="cls-2" points="38.434 -20 9.224 19.506 19.501 42.346 37.13 48.473 57.124 43.744 71.741 26.33 74.915 12.248 43.472 -16.99 40.985 -20 38.434 -20"/>
        <path class="cls-2" d="M34.9,49.18l-.86,3.84-.12.5-.11.5-.62,2.75-1.46,6.5L17.112,80.68,1.632,84.34,1,84.49l-1,.24V16.94h.97l2.49,3.01.75.7,2.87,2.67,13.53,12.57a.078.078,0,0,0,.04.04l2.45,2.28Z"/>
        <polygon class="cls-2" points="80.962 16.94 80.962 84.73 80.462 84.85 79.962 84.97 79.772 85.01 78.102 85.41 60.472 79.28 50.192 56.44 50.372 56.19 51.982 54.02 52.722 53.02 79.402 16.94 80.962 16.94"/>
        <g>
          <path class="cls-4" d="M.5,81A28.014,28.014,0,0,0,27.978,53.525h12A40.03,40.03,0,0,1,.5,93Z"/>
          <path class="cls-5" d="M27.482,53.02c0,.75-.03,1.49-.1,2.22A27.5,27.5,0,0,1,0,80.51v13a40.524,40.524,0,0,0,40.24-36.09,40,40,0,0,0,.24-4.4Zm11.76,4.38A39.552,39.552,0,0,1,1.072,92.49H1v-11h.08a28.513,28.513,0,0,0,27.28-25.92c.05-.51.08-1.03.1-1.55h11.01C39.442,55.16,39.362,56.29,39.242,57.4Z"/>
        </g>
        <g>
          <circle class="cls-5" cx="28.317" cy="72.546" r="2.049"/>
          <circle class="cls-5" cx="34.441" cy="56.922" r="2.049"/>
        </g>
        <path class="cls-6" d="M1.5,32.13V77.6A1.5,1.5,0,0,1,0,79.1V30.63h.03c.01,0,.01,0,.02.01a1.21,1.21,0,0,1,.19.01c.02,0,.05.01.08.01v.01c.02,0,.04.01.07.01a.145.145,0,0,0,.07.02,1.122,1.122,0,0,1,.13.05A1.514,1.514,0,0,1,1.5,32.13Z"/>
        <path class="cls-6" d="M24.242,57.93a1.51,1.51,0,0,1-1.45,1.13,1.652,1.652,0,0,1-.38-.05,32.769,32.769,0,0,1-13.98-7.56c-.53-.49-1.04-.99-1.51-1.49a30.981,30.981,0,0,1-4-5.23v-.01c-.53-.89-1.01-1.77-1.42-2.64A31.688,31.688,0,0,1,0,38.43V30.64a.037.037,0,0,1,.03-.01,1.492,1.492,0,0,1,.21.02c.02,0,.05.01.08.01a.737.737,0,0,1,.14.04.527.527,0,0,1,.12.03,1.108,1.108,0,0,1,.45.27c.01.01.03.02.03.04a.474.474,0,0,1,.1.1.481.481,0,0,1,.09.11.717.717,0,0,1,.11.15.355.355,0,0,1,.04.09c.01,0,.01.01.01.02a.424.424,0,0,1,.06.14.169.169,0,0,1,.03.1.359.359,0,0,1,.02.11.142.142,0,0,1,.02.06v.01c.05.36.11.76.18,1.18,0,.03.01.05.01.08a28.852,28.852,0,0,0,8.73,16.06,29.8,29.8,0,0,0,12.7,6.85A1.514,1.514,0,0,1,24.242,57.93Z"/>
        <path class="cls-6" d="M19.472,69.51a1.523,1.523,0,0,1-1.08.45,1.484,1.484,0,0,1-1.04-.42A63.138,63.138,0,0,1,4.082,50.96,58.747,58.747,0,0,1,1.5,44.6Q.647,42.155,0,39.62V30.64h.05a1.21,1.21,0,0,1,.19.01c.02,0,.05.01.08.01s.05.01.07.02a.145.145,0,0,0,.07.02.527.527,0,0,1,.12.03,1.665,1.665,0,0,1,.23.12c.02.01.03.02.04.02a2.028,2.028,0,0,1,.18.13c.01.01.03.02.03.04a.474.474,0,0,1,.1.1.481.481,0,0,1,.09.11.717.717,0,0,1,.11.15.355.355,0,0,1,.04.09c.01,0,.01.01.01.02a.424.424,0,0,1,.06.14.169.169,0,0,1,.03.1.359.359,0,0,1,.02.11.142.142,0,0,1,.02.06v.01c.06.39.12.79.18,1.18,0,.03.01.05.01.08a61.607,61.607,0,0,0,5.19,16.77,59.986,59.986,0,0,0,4.47,7.82,60.872,60.872,0,0,0,8.05,9.61A1.509,1.509,0,0,1,19.472,69.51Z"/>
        <path class="cls-6" d="M10.982,76.58A1.5,1.5,0,0,1,9,75.82c-1.34-3.03-2.58-6.15-3.67-9.28A125.089,125.089,0,0,1,1.5,53.18Q.632,49.37,0,45.5V30.64h.05a1.241,1.241,0,0,1,.27.03c.02,0,.04.01.07.01a.145.145,0,0,0,.07.02,1.122,1.122,0,0,1,.13.05,1.472,1.472,0,0,1,.22.1c.02.01.03.02.04.02a1.932,1.932,0,0,1,.21.17.474.474,0,0,1,.1.1.481.481,0,0,1,.09.11.974.974,0,0,1,.15.24c.01,0,.01.01.01.02a.854.854,0,0,1,.09.24.359.359,0,0,1,.02.11.582.582,0,0,1,.03.19,124.214,124.214,0,0,0,1.37,12.67v.01c.33,2.1.72,4.17,1.16,6.23a123.1,123.1,0,0,0,4.08,14.59c1.07,3.05,2.27,6.1,3.58,9.06A1.491,1.491,0,0,1,10.982,76.58Z"/>
        <g>
          <path class="cls-4" d="M80.465,93a40.031,40.031,0,0,1-39.48-39.479h12A28.013,28.013,0,0,0,80.465,81Z"/>
          <path class="cls-5" d="M53.582,55.24c-.07-.73-.1-1.47-.1-2.22h-13a40,40,0,0,0,.24,4.4,40.524,40.524,0,0,0,40.24,36.09v-13A27.5,27.5,0,0,1,53.582,55.24Zm26.38,37.25A39.546,39.546,0,0,1,41.722,57.4c-.12-1.11-.2-2.24-.23-3.38H52.5c.02.52.05,1.04.1,1.55a28.5,28.5,0,0,0,27.36,25.92Z"/>
        </g>
        <g>
          <circle class="cls-5" cx="52.684" cy="72.546" r="2.049"/>
          <circle class="cls-5" cx="46.559" cy="56.922" r="2.049"/>
        </g>
        <path class="cls-6" d="M80.962,30.63V79.1a1.5,1.5,0,0,1-1.5-1.5V32.13a1.5,1.5,0,0,1,.92-1.38c.01-.02.03-.02.05-.02l.06-.03c.04-.01.08-.02.13-.03h.01a.031.031,0,0,0,.02-.01h.04a1.231,1.231,0,0,1,.2-.02.06.06,0,0,1,.04-.01Z"/>
        <path class="cls-6" d="M80.932,30.63a.037.037,0,0,1,.03.01v7.79a31.688,31.688,0,0,1-1.5,3.65,27.171,27.171,0,0,1-1.42,2.63,30.329,30.329,0,0,1-4.01,5.26c-.47.5-.97.99-1.5,1.48a32.769,32.769,0,0,1-13.98,7.56,1.652,1.652,0,0,1-.38.05,1.5,1.5,0,0,1-.37-2.96,29.8,29.8,0,0,0,12.7-6.85,28.883,28.883,0,0,0,8.73-16.06c0-.03.01-.05.01-.08.07-.42.13-.82.18-1.18v-.01a.142.142,0,0,1,.02-.06.164.164,0,0,1,.02-.1v-.01l.01-.01a.037.037,0,0,1,.01-.03.127.127,0,0,1,.01-.06.031.031,0,0,1,.01-.02c0-.01,0-.02.01-.02s0-.01.01-.02,0-.01.01-.02c-.01-.01,0-.02.01-.03a.133.133,0,0,1,.03-.08v-.01c0-.01.01-.02.02-.04l.01-.01a1.429,1.429,0,0,1,.14-.2c.01-.01.01-.02.03-.03a.572.572,0,0,1,.07-.08l.08-.08.01-.01c.02-.01.03-.03.05-.04.04-.03.09-.06.13-.09a1.151,1.151,0,0,1,.25-.12l.01-.01c.01,0,.01,0,.02-.01.03-.01.06-.02.1-.03s.08-.02.13-.03h.01a.031.031,0,0,0,.02-.01h.04a1.231,1.231,0,0,1,.2-.02A.06.06,0,0,1,80.932,30.63Z"/>
        <path class="cls-6" d="M80.962,30.64V45.5q-.63,3.87-1.5,7.68a125.089,125.089,0,0,1-3.83,13.36c-1.09,3.12-2.32,6.25-3.67,9.28a1.5,1.5,0,0,1-2.74-1.21c1.31-2.96,2.51-6.01,3.58-9.06a119.565,119.565,0,0,0,4.08-14.6l.01-.01q.66-3.09,1.15-6.23a124.02,124.02,0,0,0,1.37-12.66.582.582,0,0,1,.03-.19.164.164,0,0,1,.02-.1v-.01l.01-.01a.037.037,0,0,1,.01-.03.127.127,0,0,1,.01-.06.031.031,0,0,1,.01-.02c0-.01,0-.02.01-.02s0-.01.01-.02,0-.01.01-.02c-.01-.01,0-.02.01-.03a.133.133,0,0,1,.03-.08v-.01l.02-.02c0-.01.01-.02.01-.03a1.429,1.429,0,0,1,.14-.2c.01-.01.01-.02.03-.03a.572.572,0,0,1,.07-.08l.08-.08.01-.01c.02-.01.03-.03.05-.04.04-.03.09-.06.13-.09a1.151,1.151,0,0,1,.25-.12l.01-.01.01.01c.01-.02.03-.02.05-.02a.7.7,0,0,1,.19-.06h.01a.031.031,0,0,0,.02-.01h.04a1.231,1.231,0,0,1,.2-.02Z"/>
        <path class="cls-6" d="M80.962,30.64v8.98q-.645,2.535-1.5,4.98a61.35,61.35,0,0,1-2.57,6.34l-.01.01a61.142,61.142,0,0,1-4.82,8.51,64.251,64.251,0,0,1-8.45,10.08,1.5,1.5,0,0,1-1.04.42,1.523,1.523,0,0,1-1.08-.45,1.5,1.5,0,0,1,.03-2.12,61.237,61.237,0,0,0,8.05-9.61,59.315,59.315,0,0,0,4.46-7.81,61.24,61.24,0,0,0,5.2-16.78c0-.03.01-.05.01-.08.06-.39.12-.79.18-1.18v-.01a.142.142,0,0,1,.02-.06.164.164,0,0,1,.02-.1v-.01l.01-.01a.037.037,0,0,1,.01-.03.127.127,0,0,1,.01-.06.031.031,0,0,1,.01-.02c0-.01,0-.02.01-.02s0-.01.01-.02,0-.01.01-.02c-.01-.01,0-.02.01-.03a.133.133,0,0,1,.03-.08v-.01l.02-.02v-.02l.01-.01a1.429,1.429,0,0,1,.14-.2c.01-.01.01-.02.03-.03a.572.572,0,0,1,.07-.08l.08-.08.01-.01c.02-.01.03-.03.05-.04.04-.03.09-.06.13-.09a1.151,1.151,0,0,1,.25-.12l.01-.01c.01,0,.01,0,.02-.01.03-.01.06-.02.1-.03s.08-.02.13-.03h.01a.031.031,0,0,0,.02-.01h.04a1.231,1.231,0,0,1,.2-.02Z"/>
        <g>
          <path class="cls-4" d="M40.482,56.92A40.029,40.029,0,0,1,.5,17.437h12a27.982,27.982,0,0,0,55.956,0h12A40.03,40.03,0,0,1,40.482,56.92Z"/>
          <path class="cls-5" d="M79.952,17.937a39.482,39.482,0,0,1-78.939,0h11a28.483,28.483,0,0,0,56.93,0h11m1.012-1h-13a27.482,27.482,0,1,1-54.964,0H0a40.482,40.482,0,1,0,80.964,0Z"/>
        </g>
        <g>
          <circle class="cls-5" cx="40.482" cy="51.549" r="2.049"/>
          <circle class="cls-5" cx="56.128" cy="47.801" r="2.049"/>
          <circle class="cls-5" cx="68.791" cy="37.178" r="2.049"/>
          <circle class="cls-5" cx="74.915" cy="21.555" r="2.049"/>
          <circle class="cls-5" cx="24.836" cy="47.801" r="2.049"/>
          <circle class="cls-5" cx="12.173" cy="37.178" r="2.049"/>
          <circle class="cls-5" cx="6.049" cy="21.555" r="2.049"/>
        </g>
        <path class="cls-3" d="M63.243,20.294a31.2,31.2,0,0,1-13.339-7.2,30.518,30.518,0,0,1-9.4-18.217"/>
        <path class="cls-3" d="M58.849,31.2A62.534,62.534,0,0,1,50.6,21.36,62.993,62.993,0,0,1,40.509-5.128"/>
        <path class="cls-3" d="M50.827,37.952c-1.27-2.867-2.491-5.923-3.624-9.167A123.871,123.871,0,0,1,40.509-5.128"/>
        <line class="cls-3" x1="40.509" y1="-5.128" x2="40.509" y2="40.339"/>
        <path class="cls-3" d="M17.722,20.294a31.2,31.2,0,0,0,13.338-7.2,30.518,30.518,0,0,0,9.4-18.217"/>
        <path class="cls-3" d="M22.115,31.2A62.534,62.534,0,0,0,30.36,21.36,62.993,62.993,0,0,0,40.455-5.128"/>
        <path class="cls-3" d="M30.137,37.952c1.27-2.867,2.491-5.923,3.624-9.167A123.871,123.871,0,0,0,40.455-5.128"/>
      </g>
      <g>
        <path class="cls-2" d="M34.9-24.33l-.86,3.84-.12.5-.11.5-.62,2.75-1.46,6.5L17.112,7.17,1.632,10.83,1,10.98l-1,.24V-56.57h.97l2.49,3.01.75.7,2.87,2.67,13.53,12.57a.078.078,0,0,0,.04.04L23.1-35.3Z"/>
        <polygon class="cls-2" points="80.962 -56.57 80.962 11.22 80.462 11.34 79.962 11.46 79.772 11.5 78.102 11.9 60.472 5.77 50.192 -17.07 50.372 -17.32 51.982 -19.49 52.722 -20.49 79.402 -56.57 80.962 -56.57"/>
        <g>
          <path class="cls-4" d="M.5,7.492A28.014,28.014,0,0,0,27.978-19.986h12A40.03,40.03,0,0,1,.5,19.494Z"/>
          <path class="cls-5" d="M27.482-20.49c0,.75-.03,1.49-.1,2.22A27.5,27.5,0,0,1,0,7V20a40.524,40.524,0,0,0,40.24-36.09,40,40,0,0,0,.24-4.4Zm11.76,4.38A39.552,39.552,0,0,1,1.072,18.98H1v-11h.08a28.513,28.513,0,0,0,27.28-25.92c.05-.51.08-1.03.1-1.55h11.01C39.442-18.35,39.362-17.22,39.242-16.11Z"/>
        </g>
        <g>
          <path class="cls-5" d="M2.052,13.41a1.948,1.948,0,0,1-.42,1.23,1.758,1.758,0,0,1-.63.55,1.69,1.69,0,0,1-.5.2,1.935,1.935,0,0,1-.49.06H0V11.36h.01a1.935,1.935,0,0,1,.49.06,1.69,1.69,0,0,1,.5.2,1.846,1.846,0,0,1,.63.55A2.037,2.037,0,0,1,2.052,13.41Z"/>
          <circle class="cls-5" cx="15.654" cy="9.658" r="2.049"/>
          <circle class="cls-5" cx="28.317" cy="-0.965" r="2.049"/>
        </g>
        <path class="cls-6" d="M1.5-41.38V4.09A1.5,1.5,0,0,1,0,5.59V-42.88h.03c.01,0,.01,0,.02.01a1.21,1.21,0,0,1,.19.01c.02,0,.05.01.08.01v.01c.02,0,.04.01.07.01a.145.145,0,0,0,.07.02,1.122,1.122,0,0,1,.13.05A1.514,1.514,0,0,1,1.5-41.38Z"/>
        <path class="cls-6" d="M10.982,3.07A1.5,1.5,0,0,1,9,2.31c-1.34-3.03-2.58-6.15-3.67-9.28A125.089,125.089,0,0,1,1.5-20.33Q.632-24.14,0-28.01V-42.87h.05a1.241,1.241,0,0,1,.27.03c.02,0,.04.01.07.01a.145.145,0,0,0,.07.02,1.122,1.122,0,0,1,.13.05,1.472,1.472,0,0,1,.22.1c.02.01.03.02.04.02a1.932,1.932,0,0,1,.21.17.474.474,0,0,1,.1.1.481.481,0,0,1,.09.11.974.974,0,0,1,.15.24c.01,0,.01.01.01.02a.854.854,0,0,1,.09.24.359.359,0,0,1,.02.11.582.582,0,0,1,.03.19,124.214,124.214,0,0,0,1.37,12.67v.01c.33,2.1.72,4.17,1.16,6.23A123.1,123.1,0,0,0,8.162-7.96c1.07,3.05,2.27,6.1,3.58,9.06A1.491,1.491,0,0,1,10.982,3.07Z"/>
        <g>
          <path class="cls-4" d="M80.465,19.494a40.031,40.031,0,0,1-39.48-39.48h12A28.013,28.013,0,0,0,80.465,7.492Z"/>
          <path class="cls-5" d="M53.582-18.27c-.07-.73-.1-1.47-.1-2.22h-13a40,40,0,0,0,.24,4.4A40.524,40.524,0,0,0,80.962,20V7A27.5,27.5,0,0,1,53.582-18.27Zm26.38,37.25a39.546,39.546,0,0,1-38.24-35.09c-.12-1.11-.2-2.24-.23-3.38H52.5c.02.52.05,1.04.1,1.55A28.5,28.5,0,0,0,79.962,7.98Z"/>
        </g>
        <g>
          <path class="cls-5" d="M80.462,11.43a2.08,2.08,0,0,1,.5-.07v4.09a2.08,2.08,0,0,1-.5-.07,2.03,2.03,0,0,1-.5-.21.8.8,0,0,1-.19-.13,2.025,2.025,0,0,1,0-3.27.8.8,0,0,1,.19-.13A2.03,2.03,0,0,1,80.462,11.43Z"/>
          <circle class="cls-5" cx="65.346" cy="9.658" r="2.049"/>
          <circle class="cls-5" cx="52.684" cy="-0.965" r="2.049"/>
        </g>
        <path class="cls-6" d="M80.962-42.88V5.59a1.5,1.5,0,0,1-1.5-1.5V-41.38a1.5,1.5,0,0,1,.92-1.38c.01-.02.03-.02.05-.02l.06-.03c.04-.01.08-.02.13-.03h.01a.031.031,0,0,0,.02-.01h.04a1.231,1.231,0,0,1,.2-.02.06.06,0,0,1,.04-.01Z"/>
        <path class="cls-6" d="M80.962-42.87v14.86q-.63,3.87-1.5,7.68a125.089,125.089,0,0,1-3.83,13.36c-1.09,3.12-2.32,6.25-3.67,9.28a1.5,1.5,0,0,1-2.74-1.21c1.31-2.96,2.51-6.01,3.58-9.06a119.565,119.565,0,0,0,4.08-14.6l.01-.01q.66-3.09,1.15-6.23a124.02,124.02,0,0,0,1.37-12.66.582.582,0,0,1,.03-.19.164.164,0,0,1,.02-.1v-.01l.01-.01a.037.037,0,0,1,.01-.03.127.127,0,0,1,.01-.06.031.031,0,0,1,.01-.02c0-.01,0-.02.01-.02s0-.01.01-.02,0-.01.01-.02c-.01-.01,0-.02.01-.03a.133.133,0,0,1,.03-.08v-.01l.02-.02c0-.01.01-.02.01-.03a1.429,1.429,0,0,1,.14-.2c.01-.01.01-.02.03-.03a.572.572,0,0,1,.07-.08l.08-.08.01-.01c.02-.01.03-.03.05-.04.04-.03.09-.06.13-.09a1.151,1.151,0,0,1,.25-.12l.01-.01.01.01c.01-.02.03-.02.05-.02a.7.7,0,0,1,.19-.06h.01a.031.031,0,0,0,.02-.01h.04a1.231,1.231,0,0,1,.2-.02Z"/>
      </g>
    </g>
  </g>
  <g id="stroke_cover" data-name="stroke cover">
    <path class="cls-4" d="M1.027,8.22H.937c-.16.01-.33.01-.5.01H.4c-.15,0-.31,0-.46-.01V7.97c.17.01.34.01.5.01h.1c.13,0,.27,0,.4-.01h.08v.12Z"/>
    <path class="cls-4" d="M1.007,18.86v.11H.937c-.14.01-.27.01-.42.01H.377c-.15,0-.3,0-.44-.01v-.25c.17.01.33.01.5.01h.08c.14,0,.28,0,.42-.01H1Z"/>
    <rect class="cls-4" x="-0.063" y="8.09" width="1.63" height="10.77"/>
    <path class="cls-4" d="M81.072,7.97v.25c-.13.01-.26.01-.39.01-.26,0-.52,0-.8-.02h-.01l.01-.12V7.96c.32.02.64.02.94.02A2.09,2.09,0,0,0,81.072,7.97Z"/>
    <path class="cls-4" d="M81.072,18.72v.25a2.437,2.437,0,0,1-.27.01h-.13c-.27,0-.55,0-.82-.02l.01-.25h.02c.31.02.62.02.92.02A2.437,2.437,0,0,0,81.072,18.72Z"/>
    <rect class="cls-4" x="79.882" y="8.09" width="1.19" height="10.77"/>
  </g>
  <g id="dots">
    <circle class="cls-5" cx="80.991" cy="13.401" r="2.049"/>
    <circle class="cls-5" cx="0.002" cy="13.405" r="2.049"/>
  </g>
</svg>
