<svg xmlns="http://www.w3.org/2000/svg" viewBox="0 0 188.226 156.398">
  <defs>
    <style>
      .cls-1, .cls-2 {
        fill: none;
      }

      .cls-2 {
        stroke: #78a7be;
        stroke-miterlimit: 10;
      }

      .cls-3 {
        fill: #78a7be;
      }
    </style>
  </defs>
  <g id="Layer_5" data-name="Layer 5">
    <rect class="cls-1" width="188.226" height="156.398"/>
    <path class="cls-2" d="M52.336,72.337,23.1,89.145a1.443,1.443,0,0,1-1.965-.531h0c-3.151-5.481,6.15-13.335,11.631-16.486h0c5.481-3.151,16.948-7.238,20.1-1.757h0A1.444,1.444,0,0,1,52.336,72.337Z"/>
    <path class="cls-2" d="M57.851,81.93,28.616,98.738a1.443,1.443,0,0,0-.53,1.965h0c3.151,5.481,13.622-.339,19.1-3.491h0c5.481-3.151,15.779-9.271,12.628-14.752h0A1.444,1.444,0,0,0,57.851,81.93Z"/>
    <rect class="cls-2" x="22.176" y="82.665" width="36.601" height="5.744" rx="2.872" transform="matrix(0.867, -0.498, 0.498, 0.867, -37.248, 31.557)"/>
    <g>
      <path class="cls-3" d="M23.522,85.277c.637.213.766.589.651.934s-.443.57-1.081.358a1.788,1.788,0,0,1-.895-.911.141.141,0,0,1,.063-.188A1.785,1.785,0,0,1,23.522,85.277Z"/>
      <path class="cls-3" d="M50.951,70.757c.637.212.766.589.651.934s-.444.57-1.081.358a1.787,1.787,0,0,1-.9-.911.141.141,0,0,1,.062-.188A1.787,1.787,0,0,1,50.951,70.757Z"/>
      <path class="cls-3" d="M42.6,72.628c.637.212.765.588.65.934s-.443.569-1.08.357a1.776,1.776,0,0,1-.895-.911.14.14,0,0,1,.062-.187A1.782,1.782,0,0,1,42.6,72.628Z"/>
      <path class="cls-3" d="M32.445,76.823c.288-.606.677-.688,1.006-.532s.512.509.224,1.116a1.789,1.789,0,0,1-1.013.778.142.142,0,0,1-.179-.085A1.789,1.789,0,0,1,32.445,76.823Z"/>
      <path class="cls-3" d="M31.823,75.351c-.582.335-.949.181-1.13-.135s-.131-.71.452-1.044a1.78,1.78,0,0,1,1.275-.063.14.14,0,0,1,.1.171A1.782,1.782,0,0,1,31.823,75.351Z"/>
      <path class="cls-3" d="M28.692,80.783c-.194.644-.566.783-.915.678s-.582-.426-.389-1.07a1.784,1.784,0,0,1,.884-.921.142.142,0,0,1,.19.057A1.783,1.783,0,0,1,28.692,80.783Z"/>
      <path class="cls-3" d="M46.39,73.985c-.193.643-.565.782-.914.677s-.582-.426-.389-1.069a1.78,1.78,0,0,1,.884-.921.141.141,0,0,1,.19.056A1.787,1.787,0,0,1,46.39,73.985Z"/>
      <path class="cls-3" d="M39.532,71.5c-.194.643-.566.782-.915.677s-.582-.426-.389-1.069a1.785,1.785,0,0,1,.885-.921.139.139,0,0,1,.189.057A1.783,1.783,0,0,1,39.532,71.5Z"/>
      <path class="cls-3" d="M24.086,81.858c-.214-.637.01-.966.355-1.082s.721.012.935.649a1.786,1.786,0,0,1-.189,1.263A.14.14,0,0,1,25,82.75,1.783,1.783,0,0,1,24.086,81.858Z"/>
      <path class="cls-3" d="M29.5,81.9c.278-.611.665-.7,1-.55s.52.5.243,1.112a1.783,1.783,0,0,1-1,.8.14.14,0,0,1-.18-.082A1.783,1.783,0,0,1,29.5,81.9Z"/>
      <path class="cls-3" d="M43.085,69.806c.277-.611.664-.7,1-.55s.52.5.243,1.112a1.783,1.783,0,0,1-1,.8.14.14,0,0,1-.18-.082A1.779,1.779,0,0,1,43.085,69.806Z"/>
      <path class="cls-3" d="M26.427,85.265c-.662.11-.952-.162-1.012-.521s.125-.711.788-.822a1.787,1.787,0,0,1,1.217.386.14.14,0,0,1,.032.195A1.78,1.78,0,0,1,26.427,85.265Z"/>
      <path class="cls-3" d="M47.522,71.1c-.662.11-.952-.162-1.012-.521s.125-.711.788-.822a1.782,1.782,0,0,1,1.217.386.141.141,0,0,1,.033.2A1.786,1.786,0,0,1,47.522,71.1Z"/>
      <path class="cls-3" d="M30.407,77.195c.335.582.18.948-.135,1.13s-.71.13-1.045-.452a1.779,1.779,0,0,1-.062-1.275.14.14,0,0,1,.171-.1A1.784,1.784,0,0,1,30.407,77.195Z"/>
      <path class="cls-3" d="M33.737,80.081c.551.384.567.781.359,1.08s-.587.42-1.138.036a1.784,1.784,0,0,1-.6-1.127.142.142,0,0,1,.114-.163A1.783,1.783,0,0,1,33.737,80.081Z"/>
      <path class="cls-3" d="M36.664,78.989c-.557.376-.934.248-1.137-.054s-.182-.7.375-1.074a1.784,1.784,0,0,1,1.267-.155.14.14,0,0,1,.111.164A1.788,1.788,0,0,1,36.664,78.989Z"/>
      <path class="cls-3" d="M35.7,72.785c.478.472.427.866.171,1.125s-.649.316-1.127-.156a1.786,1.786,0,0,1-.4-1.213.141.141,0,0,1,.139-.14A1.781,1.781,0,0,1,35.7,72.785Z"/>
      <path class="cls-3" d="M40.706,76.541c-.556-.377-.578-.774-.374-1.075s.582-.429,1.137-.052a1.779,1.779,0,0,1,.615,1.12.14.14,0,0,1-.111.163A1.785,1.785,0,0,1,40.706,76.541Z"/>
      <path class="cls-3" d="M37.219,74.669c.287-.608.676-.69,1-.535s.513.508.226,1.116a1.781,1.781,0,0,1-1.011.779.141.141,0,0,1-.179-.084A1.783,1.783,0,0,1,37.219,74.669Z"/>
    </g>
    <path class="cls-3" d="M162.4,41.256c-2.717,6.451-14.855,1.34-20.043-.845s-17.327-7.3-14.61-13.748a1.942,1.942,0,0,1,2.541-1.035l31.077,13.087A1.942,1.942,0,0,1,162.4,41.256Z"/>
    <rect class="cls-2" x="129.48" y="24.666" width="36.601" height="5.744" rx="2.872" transform="translate(22.273 -55.198) rotate(22.838)"/>
    <path class="cls-3" d="M153.977,12.818a37.83,37.83,0,0,0-11.515-2.777c-4.922-.294-8.14,1.01-9.3,3.774a1.941,1.941,0,0,0,1.035,2.541l31.076,13.088a1.942,1.942,0,0,0,2.541-1.035C170.352,22.372,160.677,15.639,153.977,12.818Zm-13.19-.553c.376-.558.774-.575,1.07-.374s.427.581.051,1.139a1.778,1.778,0,0,1-1.116.615.155.155,0,0,1-.169-.114A1.813,1.813,0,0,1,140.787,12.265Zm-3.418,2.706c-.341.116-.722-.012-.933-.643a1.754,1.754,0,0,1,.186-1.267A.142.142,0,0,1,136.8,13a1.809,1.809,0,0,1,.914.9C137.937,14.526,137.711,14.854,137.369,14.971Zm3.352,1.574a1.765,1.765,0,0,1-1.228-.355c-.492-.456-.455-.853-.2-1.116s.641-.337,1.129.128a1.757,1.757,0,0,1,.437,1.2A.137.137,0,0,1,140.721,16.545Zm2.609-1.582c-.126-.345-.012-.72.619-.954a1.776,1.776,0,0,1,1.273.145.142.142,0,0,1,.065.18,1.849,1.849,0,0,1-.856.952C143.8,15.52,143.459,15.3,143.33,14.963Zm1,2.96a1.815,1.815,0,0,1-1.235-.314.143.143,0,0,1-.048-.194,1.855,1.855,0,0,1,.986-.821c.649-.15.952.108,1.043.461S144.987,17.777,144.329,17.923Zm3.013-2.876c-.332-.14-.534-.485-.274-1.1a1.815,1.815,0,0,1,.977-.825.151.151,0,0,1,.184.078,1.811,1.811,0,0,1,.092,1.275C148.061,15.09,147.673,15.187,147.342,15.047Zm.055,4.765c-.363.01-.691-.215-.712-.886a1.76,1.76,0,0,1,.533-1.164.14.14,0,0,1,.2,0,1.812,1.812,0,0,1,.628,1.111C148.074,19.544,147.763,19.793,147.4,19.812Zm2.738-2.612a1.768,1.768,0,0,1-1.236-.336.145.145,0,0,1-.04-.19,1.826,1.826,0,0,1,.992-.809c.663-.133.958.121,1.035.479S150.789,17.063,150.135,17.2Zm1.78-2.809a1.792,1.792,0,0,1-1.267.1c-.617-.26-.714-.649-.574-.98s.485-.534,1.1-.274a1.748,1.748,0,0,1,.817.973A.135.135,0,0,1,151.915,14.391Zm.03,5.958a1.717,1.717,0,0,1-1.261.185c-.637-.214-.76-.591-.648-.934s.447-.572,1.08-.349a1.776,1.776,0,0,1,.9.91A.142.142,0,0,1,151.945,20.349Zm1.736-4.509a1.782,1.782,0,0,1,.725-1.051.149.149,0,0,1,.2.018,1.833,1.833,0,0,1,.437,1.2c-.086.669-.441.867-.8.823S153.6,16.5,153.681,15.84Zm1.058,3.852a1.746,1.746,0,0,1-1.228-.332.127.127,0,0,1-.039-.19,1.739,1.739,0,0,1,.988-.8c.658-.146.962.112,1.03.467S155.393,19.555,154.739,19.692Zm1.176,3.675a.127.127,0,0,1-.188.007,1.75,1.75,0,0,1-.645-1.1c-.04-.679.262-.931.628-.951s.685.2.729.872A1.775,1.775,0,0,1,155.915,23.367Zm2.465-5.082c-.63.234-.966.027-1.092-.319s-.011-.72.61-.958a1.759,1.759,0,0,1,1.269.155.136.136,0,0,1,.075.183A1.787,1.787,0,0,1,158.38,18.285Zm.606,4.2c-.342.116-.713-.007-.934-.643a1.73,1.73,0,0,1,.182-1.258.145.145,0,0,1,.193-.07,1.832,1.832,0,0,1,.914.894C159.553,22.045,159.337,22.377,158.986,22.49Zm1.573,2.757c-.63.233-.966.027-1.1-.31s-.02-.725.614-.968a1.815,1.815,0,0,1,1.269.155.124.124,0,0,1,.066.18A1.725,1.725,0,0,1,160.559,25.247Zm1.624-3.83a1.821,1.821,0,0,1-1.235-.314.139.139,0,0,1-.049-.194,1.79,1.79,0,0,1,.977-.826c.659-.146.962.112,1.043.461S162.832,21.267,162.183,21.417Zm2.575,3.341a1.737,1.737,0,0,1-1.22-.351c-.487-.466-.45-.862-.2-1.125s.637-.329,1.128.128a1.792,1.792,0,0,1,.428,1.2A.139.139,0,0,1,164.758,24.758Zm.781,3.248c-.342.116-.727,0-.943-.647a1.834,1.834,0,0,1,.182-1.258.136.136,0,0,1,.189-.061,1.748,1.748,0,0,1,.918.885C166.106,27.561,165.881,27.889,165.539,28.006Z"/>
    <rect class="cls-3" x="124.414" y="95.773" width="1.644" height="24.646" rx="0.822" transform="translate(-40.151 104.09) rotate(-39.411)"/>
    <rect class="cls-3" x="124.414" y="95.773" width="1.644" height="24.646" rx="0.822" transform="translate(97.106 -54.93) rotate(39.411)"/>
    <rect class="cls-3" x="36.197" y="10.222" width="29.86" height="1.544" rx="0.772"/>
    <rect class="cls-3" x="36.197" y="16.722" width="29.86" height="1.544" rx="0.772"/>
    <rect class="cls-3" x="36.197" y="23.222" width="29.86" height="1.544" rx="0.772"/>
  </g>
</svg>
