<svg id="pattern" xmlns="http://www.w3.org/2000/svg" viewBox="0 0 52.59 55.155">
  <defs>
    <style>
      .cls-1 {
        opacity: 0.37;
      }

      .cls-10, .cls-11, .cls-12, .cls-13, .cls-14, .cls-17, .cls-18, .cls-2, .cls-3, .cls-4, .cls-5, .cls-8, .cls-9 {
        fill: none;
      }

      .cls-17, .cls-18, .cls-3, .cls-4, .cls-5 {
        stroke: #b3b3b3;
        stroke-width: 0.75px;
      }

      .cls-10, .cls-11, .cls-12, .cls-13, .cls-14, .cls-17, .cls-18, .cls-3, .cls-4, .cls-5, .cls-8, .cls-9 {
        stroke-linecap: round;
        stroke-linejoin: round;
      }

      .cls-3 {
        stroke-dasharray: 0 3.093;
      }

      .cls-5 {
        stroke-dasharray: 0 3.238;
      }

      .cls-6 {
        fill: #ff9500;
      }

      .cls-7 {
        fill: #00ab9c;
      }

      .cls-10, .cls-11, .cls-12, .cls-13, .cls-14, .cls-8, .cls-9 {
        stroke: #1c00b2;
        stroke-width: 2px;
      }

      .cls-9 {
        stroke-dasharray: 0 3.277;
      }

      .cls-10 {
        stroke-dasharray: 0 2.897;
      }

      .cls-11 {
        stroke-dasharray: 0 3.276;
      }

      .cls-12 {
        stroke-dasharray: 0 2.988;
      }

      .cls-13 {
        stroke-dasharray: 0 3.276;
      }

      .cls-14 {
        stroke-dasharray: 0 2.989;
      }

      .cls-15 {
        fill: #1c00b2;
      }

      .cls-16 {
        fill: #9fe0f7;
      }

      .cls-17 {
        stroke-dasharray: 0 3.093;
      }

      .cls-18 {
        stroke-dasharray: 0 3.238;
      }
    </style>
  </defs>
  <g class="cls-1">
    <rect class="cls-2" width="52.59" height="55.155"/>
    <g>
      <g>
        <g>
          <path class="cls-3" d="M42.942,59.927a6.024,6.024,0,0,1-2.925-4.772c0-2.405,1.927-4.542,4.914-5.9"/>
          <line class="cls-4" x1="46.37" y1="48.687" x2="46.37" y2="48.687"/>
        </g>
        <g>
          <line class="cls-4" x1="47.684" y1="46.963" x2="47.684" y2="46.963"/>
          <line class="cls-4" x1="49.615" y1="45.541" x2="49.615" y2="45.541"/>
        </g>
        <g>
          <line class="cls-4" x1="50.942" y1="44.049" x2="50.942" y2="44.049"/>
          <path class="cls-5" d="M52.947,42a1.172,1.172,0,0,1,.764.712l.2.5"/>
        </g>
      </g>
      <path class="cls-6" d="M26.3,8.641a.8.8,0,0,1,.758.519l1.59,4.044.23.583.625.048a4.568,4.568,0,0,1,4.122,3.8l.1.628.611.176c6.035,1.735,9.935,5.321,9.935,9.135s-3.9,7.4-9.935,9.136l-.611.176-.1.628a4.568,4.568,0,0,1-4.122,3.8l-.625.048-.23.583L27.055,46a.794.794,0,0,1-.757.517A.8.8,0,0,1,25.534,46l-1.59-4.044-.23-.583-.625-.048a4.57,4.57,0,0,1-4.122-3.8l-.1-.626-.61-.177c-6.036-1.744-9.936-5.33-9.936-9.136s3.9-7.391,9.936-9.135l.611-.177.1-.627a4.568,4.568,0,0,1,4.122-3.8l.625-.048.23-.583,1.589-4.042a.806.806,0,0,1,.765-.521m0-1A1.8,1.8,0,0,0,24.6,8.794l-1.59,4.044a5.549,5.549,0,0,0-5.033,4.643C11.671,19.3,7.321,23.137,7.321,27.577s4.35,8.274,10.659,10.1a5.556,5.556,0,0,0,5.033,4.643l1.59,4.044a1.818,1.818,0,0,0,3.384,0l1.59-4.044a5.541,5.541,0,0,0,5.033-4.643c6.316-1.815,10.659-5.656,10.659-10.1S40.926,19.3,34.61,17.481a5.541,5.541,0,0,0-5.033-4.643l-1.59-4.044A1.786,1.786,0,0,0,26.3,7.641Z"/>
      <path class="cls-7" d="M36.721,27.577c0,2.441-2.387,4.551-5.857,5.548A3.046,3.046,0,0,1,28.1,35.677L27.224,37.9a1,1,0,0,1-1.858,0l-.874-2.221a3.054,3.054,0,0,1-2.766-2.552c-3.466-1-5.857-3.107-5.857-5.548s2.391-4.546,5.857-5.547a3.05,3.05,0,0,1,2.766-2.552l.874-2.221a1,1,0,0,1,1.858,0l.874,2.221a3.046,3.046,0,0,1,2.766,2.552C34.334,23.027,36.721,25.137,36.721,27.577Z"/>
      <g>
        <line class="cls-8" x1="37.38" y1="41.037" x2="37.38" y2="41.037"/>
        <path class="cls-9" d="M36.169,44.055a7.4,7.4,0,0,1-3.885,2.864"/>
        <line class="cls-8" x1="30.67" y1="47.227" x2="30.67" y2="47.227"/>
        <path class="cls-10" d="M29.609,49.924,28.55,52.618a2.423,2.423,0,0,1-4.51,0l-1.59-4.042"/>
        <line class="cls-8" x1="21.92" y1="47.227" x2="21.92" y2="47.227"/>
        <path class="cls-11" d="M18.816,46.262a7.465,7.465,0,0,1-3.166-3.643"/>
        <line class="cls-8" x1="15.21" y1="41.037" x2="15.21" y2="41.037"/>
        <path class="cls-12" d="M12.379,40.081C5.526,37.4,1,32.807,1,27.577,1,22,6.15,17.14,13.78,14.565"/>
        <line class="cls-8" x1="15.21" y1="14.118" x2="15.21" y2="14.118"/>
        <path class="cls-13" d="M16.422,11.1a7.427,7.427,0,0,1,3.885-2.865"/>
        <line class="cls-8" x1="21.92" y1="7.928" x2="21.92" y2="7.928"/>
        <path class="cls-10" d="M22.98,5.231l1.06-2.694a2.423,2.423,0,0,1,4.51,0l1.59,4.042"/>
        <line class="cls-8" x1="30.67" y1="7.928" x2="30.67" y2="7.928"/>
        <path class="cls-9" d="M33.776,8.89a7.429,7.429,0,0,1,3.166,3.645"/>
        <line class="cls-8" x1="37.38" y1="14.118" x2="37.38" y2="14.118"/>
        <path class="cls-14" d="M40.213,15.071c6.858,2.671,11.377,7.277,11.377,12.506,0,5.579-5.141,10.447-12.779,13.015"/>
      </g>
      <circle class="cls-6" cx="52.59" cy="55.155" r="2.005"/>
      <path class="cls-15" d="M23.253,28.666a4.674,4.674,0,0,1,2.994-1.134.079.079,0,0,1,.07.071A4.671,4.671,0,0,1,25.184,30.6a4.675,4.675,0,0,1-2.993,1.133.077.077,0,0,1-.071-.071A4.675,4.675,0,0,1,23.253,28.666Z"/>
      <path class="cls-15" d="M27.406,24.513A4.675,4.675,0,0,1,30.4,23.38a.077.077,0,0,1,.071.071,4.675,4.675,0,0,1-1.133,2.993,4.671,4.671,0,0,1-2.994,1.133.079.079,0,0,1-.071-.07A4.674,4.674,0,0,1,27.406,24.513Z"/>
      <path class="cls-15" d="M23.253,26.444a4.675,4.675,0,0,1-1.133-2.993.077.077,0,0,1,.071-.071,4.675,4.675,0,0,1,2.993,1.133,4.671,4.671,0,0,1,1.133,2.994.077.077,0,0,1-.07.07A4.671,4.671,0,0,1,23.253,26.444Z"/>
      <path class="cls-15" d="M27.406,30.6A4.675,4.675,0,0,0,30.4,31.73a.077.077,0,0,0,.071-.071,4.675,4.675,0,0,0-1.133-2.993,4.674,4.674,0,0,0-2.994-1.134.081.081,0,0,0-.071.071A4.674,4.674,0,0,0,27.406,30.6Z"/>
      <circle class="cls-16" cx="26.295" cy="27.566" r="0.314"/>
    </g>
    <g>
      <g>
        <g>
          <path class="cls-5" d="M.357,42a1.172,1.172,0,0,1,.764.712l.2.5"/>
          <line class="cls-4" x1="1.911" y1="44.718" x2="1.911" y2="44.718"/>
        </g>
        <g>
          <line class="cls-4" x1="3.721" y1="45.868" x2="3.721" y2="45.868"/>
          <line class="cls-4" x1="5.292" y1="47.68" x2="5.292" y2="47.68"/>
        </g>
        <g>
          <line class="cls-4" x1="6.918" y1="48.939" x2="6.918" y2="48.939"/>
          <path class="cls-17" d="M9.65,50.381a6.024,6.024,0,0,1,2.923,4.774c0,2.406-1.924,4.545-4.912,5.9"/>
        </g>
      </g>
      <circle class="cls-6" cy="55.155" r="2.005"/>
    </g>
    <g>
      <g>
        <g>
          <path class="cls-18" d="M52.234,13.158a1.182,1.182,0,0,1-.765-.712l-.2-.5"/>
          <line class="cls-4" x1="50.679" y1="10.437" x2="50.679" y2="10.437"/>
        </g>
        <g>
          <line class="cls-4" x1="48.87" y1="9.286" x2="48.87" y2="9.286"/>
          <line class="cls-4" x1="47.298" y1="7.475" x2="47.298" y2="7.475"/>
        </g>
        <g>
          <line class="cls-4" x1="45.673" y1="6.215" x2="45.673" y2="6.215"/>
          <path class="cls-3" d="M42.942,4.772A6.024,6.024,0,0,1,40.017,0c0-2.4,1.927-4.542,4.914-5.9"/>
        </g>
      </g>
      <circle class="cls-6" cx="52.59" r="2.005"/>
    </g>
    <g>
      <g>
        <g>
          <line class="cls-4" x1="4.905" y1="8.195" x2="4.905" y2="8.195"/>
          <line class="cls-4" x1="2.975" y1="9.614" x2="2.975" y2="9.614"/>
        </g>
        <g>
          <line class="cls-4" x1="1.648" y1="11.106" x2="1.648" y2="11.106"/>
          <path class="cls-18" d="M-.356,13.158a1.182,1.182,0,0,1-.765-.712l-.2-.5"/>
        </g>
        <g>
          <path class="cls-17" d="M9.65-4.774A6.024,6.024,0,0,1,12.573,0c0,2.406-1.924,4.545-4.912,5.9"/>
          <line class="cls-4" x1="6.221" y1="6.469" x2="6.221" y2="6.469"/>
        </g>
      </g>
      <circle class="cls-6" r="2.005"/>
    </g>
  </g>
</svg>
