<svg id="Layer_7" data-name="Layer 7" xmlns="http://www.w3.org/2000/svg" viewBox="0 0 262.5 165">
  <defs>
    <style>
      .cls-1, .cls-3 {
        fill: none;
      }

      .cls-2 {
        fill: #afbbcf;
      }

      .cls-3 {
        stroke: #afbbcf;
        stroke-miterlimit: 10;
        stroke-width: 2px;
      }
    </style>
  </defs>
  <g>
    <rect class="cls-1" width="262.5" height="165"/>
    <g>
      <path class="cls-2" d="M261.874,96.96V97.1l.115-.069V96.24A2.213,2.213,0,0,0,261.874,96.96Zm0,0V97.1l.115-.069V96.24A2.213,2.213,0,0,0,261.874,96.96Zm0,0V97.1l.115-.069V96.24A2.213,2.213,0,0,0,261.874,96.96Z"/>
      <path id="ok" class="cls-2" d="M290.559,118.905a3.311,3.311,0,0,0,3.3-3.3V115.1A3.594,3.594,0,0,1,290.559,118.905Zm0-22.32H263.643a3.259,3.259,0,0,0-1.654.444l-.115.069v2.781a1.774,1.774,0,0,1,1.769-1.762h26.916a1.768,1.768,0,0,1,1.769,1.762V97.106A3.263,3.263,0,0,0,290.559,96.585ZM260.342,115.1v.506a3.306,3.306,0,0,0,3.3,3.3A3.589,3.589,0,0,1,260.342,115.1Z"/>
      <path class="cls-2" d="M293.094,94.54a3.2,3.2,0,0,0-.766-.774,2.939,2.939,0,0,0-1.769-.605H276.718a.965.965,0,0,1-.727-.352,6.293,6.293,0,0,0-3.907-2.459,37.392,37.392,0,0,0-6.618-.168c-.153,0-.306.007-.459.015a5.156,5.156,0,0,0-3.355.9,3.333,3.333,0,0,0-.82,1.034v.008c-.007,0-.007.008-.007.008a5.644,5.644,0,0,0-.345,1.171.026.026,0,0,1-.008.023,14.9,14.9,0,0,0-.13,2.559v19.2a3.589,3.589,0,0,0,3.3,3.807h26.916a3.594,3.594,0,0,0,3.3-3.807V96.96A4.122,4.122,0,0,0,293.094,94.54Zm-.766,21.064a1.774,1.774,0,0,1-1.769,1.769H263.643a1.775,1.775,0,0,1-1.769-1.769V96.96a2.213,2.213,0,0,1,.115-.72v-2.6a1.832,1.832,0,0,1,.651-1.371,3.945,3.945,0,0,1,2.405-.536l.49-.023c.812-.031,1.685-.061,2.589-.061a28.027,28.027,0,0,1,3.753.222,4.27,4.27,0,0,1,2.367,1.294c.061.054.115.115.169.169a7.633,7.633,0,0,0,1.424,1.34,1.969,1.969,0,0,0,.483.222,5.128,5.128,0,0,0,1.287.039h12.952a1.917,1.917,0,0,1,1.769,2.029Z"/>
    </g>
    <g>
      <path id="ok-2" data-name="ok" class="cls-2" d="M28.059,118.905a3.311,3.311,0,0,0,3.3-3.3V115.1A3.594,3.594,0,0,1,28.059,118.905Zm0-22.32H1.143a3.259,3.259,0,0,0-1.654.444l-.115.069v2.781a1.774,1.774,0,0,1,1.769-1.762H28.059a1.768,1.768,0,0,1,1.769,1.762V97.106A3.263,3.263,0,0,0,28.059,96.585ZM-2.158,115.1v.506a3.306,3.306,0,0,0,3.3,3.3A3.589,3.589,0,0,1-2.158,115.1Z"/>
      <path class="cls-2" d="M30.594,94.54a3.2,3.2,0,0,0-.766-.774,2.939,2.939,0,0,0-1.769-.605H14.218a.965.965,0,0,1-.727-.352A6.293,6.293,0,0,0,9.584,90.35a37.392,37.392,0,0,0-6.618-.168c-.153,0-.306.007-.459.015a5.156,5.156,0,0,0-3.355.9,3.333,3.333,0,0,0-.82,1.034v.008c-.007,0-.007.008-.007.008a5.644,5.644,0,0,0-.345,1.171.026.026,0,0,1-.008.023,14.9,14.9,0,0,0-.13,2.559v19.2a3.589,3.589,0,0,0,3.3,3.807H28.059a3.594,3.594,0,0,0,3.3-3.807V96.96A4.122,4.122,0,0,0,30.594,94.54ZM29.828,115.6a1.774,1.774,0,0,1-1.769,1.769H1.143A1.775,1.775,0,0,1-.626,115.6V96.96a2.213,2.213,0,0,1,.115-.72v-2.6A1.832,1.832,0,0,1,.14,92.265a3.945,3.945,0,0,1,2.4-.536l.49-.023c.812-.031,1.685-.061,2.589-.061a28.027,28.027,0,0,1,3.753.222,4.27,4.27,0,0,1,2.367,1.294c.061.054.115.115.169.169a7.633,7.633,0,0,0,1.424,1.34,1.969,1.969,0,0,0,.483.222,5.128,5.128,0,0,0,1.287.039H28.059a1.917,1.917,0,0,1,1.769,2.029Z"/>
    </g>
    <g>
      <g>
        <path class="cls-2" d="M197.247,63.851c.9.609,1.045,1.132,1.045,2.671v4.672c0,1.132.493,1.944,1.684,1.944a1.185,1.185,0,0,1,1.218,1.335,1.129,1.129,0,0,1-1.218,1.278c-2.932,0-4.586-1.335-4.586-4.557V66.2c0-.812-.29-1.19-1.074-1.277a1.312,1.312,0,0,1,0-2.612c.784-.087,1.074-.465,1.074-1.277V56.044c0-3.222,1.654-4.557,4.586-4.557a1.128,1.128,0,0,1,1.218,1.277,1.185,1.185,0,0,1-1.218,1.335c-1.191,0-1.684.813-1.684,1.945v4.673c0,1.538-.145,2.06-1.045,2.67a.29.29,0,0,0,0,.464Z"/>
        <path class="cls-2" d="M225.488,63.387c-.9-.61-1.045-1.132-1.045-2.67V56.044c0-1.132-.493-1.945-1.683-1.945a1.185,1.185,0,0,1-1.219-1.335,1.128,1.128,0,0,1,1.219-1.277c2.931,0,4.585,1.335,4.585,4.557v4.992c0,.812.29,1.19,1.074,1.277a1.312,1.312,0,0,1,0,2.612c-.784.087-1.074.465-1.074,1.277v4.992c0,3.222-1.654,4.557-4.585,4.557a1.129,1.129,0,0,1-1.219-1.278,1.185,1.185,0,0,1,1.219-1.335c1.19,0,1.683-.812,1.683-1.944V66.522c0-1.539.145-2.062,1.045-2.671a.29.29,0,0,0,0-.464Z"/>
      </g>
      <path class="cls-2" d="M213.544,58.743a2.177,2.177,0,0,1-4.353,0,2.177,2.177,0,1,1,4.353,0Zm0,9.781a2.177,2.177,0,0,1-4.353,0,2.177,2.177,0,1,1,4.353,0Z"/>
    </g>
    <g>
      <g>
        <path class="cls-2" d="M188.352,144.692l8.223,3.936a1.321,1.321,0,0,1,.832,1.215,1.666,1.666,0,0,1-1.44,1.7,1.7,1.7,0,0,1-.8-.225l-9.824-4.768c-1.024-.479-1.824-.9-1.824-2.079s.8-1.6,1.824-2.08l9.824-4.767a1.7,1.7,0,0,1,.8-.225,1.651,1.651,0,0,1,1.44,1.7,1.32,1.32,0,0,1-.832,1.216l-8.223,3.936a.237.237,0,0,0,0,.448Z"/>
        <path class="cls-2" d="M211.776,132.565c.224-.9.576-1.216,1.151-1.216.769,0,1.889.352,1.889,1.279a2.117,2.117,0,0,1-.1.544l-5.791,22.591c-.224.9-.576,1.216-1.152,1.216-.768,0-1.888-.351-1.888-1.28a2.205,2.205,0,0,1,.1-.544Z"/>
        <path class="cls-2" d="M225.6,144.244l-8.223-3.936a1.319,1.319,0,0,1-.831-1.216,1.65,1.65,0,0,1,1.439-1.7,1.7,1.7,0,0,1,.8.225l9.823,4.767c1.024.48,1.824.9,1.824,2.08s-.8,1.6-1.824,2.079l-9.823,4.768a1.7,1.7,0,0,1-.8.225,1.666,1.666,0,0,1-1.439-1.7,1.32,1.32,0,0,1,.831-1.215l8.223-3.936a.237.237,0,0,0,0-.448Z"/>
      </g>
      <g>
        <path class="cls-2" d="M130.624,14.46V14.6l.115-.069V13.74A2.213,2.213,0,0,0,130.624,14.46Zm0,0V14.6l.115-.069V13.74A2.213,2.213,0,0,0,130.624,14.46Zm0,0V14.6l.115-.069V13.74A2.213,2.213,0,0,0,130.624,14.46Z"/>
        <path id="ok-3" data-name="ok" class="cls-2" d="M159.309,36.405a3.311,3.311,0,0,0,3.3-3.3V32.6A3.594,3.594,0,0,1,159.309,36.405Zm0-22.32H132.393a3.259,3.259,0,0,0-1.654.444l-.115.069v2.781a1.774,1.774,0,0,1,1.769-1.762h26.916a1.768,1.768,0,0,1,1.769,1.762V14.606A3.263,3.263,0,0,0,159.309,14.085ZM129.092,32.6V33.1a3.306,3.306,0,0,0,3.3,3.3A3.589,3.589,0,0,1,129.092,32.6Z"/>
        <path class="cls-2" d="M161.844,12.04a3.2,3.2,0,0,0-.766-.774,2.939,2.939,0,0,0-1.769-.605H145.468a.965.965,0,0,1-.727-.352,6.293,6.293,0,0,0-3.907-2.459,37.392,37.392,0,0,0-6.618-.168c-.153,0-.306.007-.459.015a5.156,5.156,0,0,0-3.355.9,3.333,3.333,0,0,0-.82,1.034v.008c-.007,0-.007.008-.007.008a5.644,5.644,0,0,0-.345,1.171.026.026,0,0,1-.008.023,14.9,14.9,0,0,0-.13,2.559V32.6a3.589,3.589,0,0,0,3.3,3.807h26.916a3.594,3.594,0,0,0,3.3-3.807V14.46A4.122,4.122,0,0,0,161.844,12.04ZM161.078,33.1a1.774,1.774,0,0,1-1.769,1.769H132.393a1.775,1.775,0,0,1-1.769-1.769V14.46a2.213,2.213,0,0,1,.115-.72v-2.6a1.832,1.832,0,0,1,.651-1.371,3.945,3.945,0,0,1,2.405-.536l.49-.023c.812-.031,1.685-.061,2.589-.061a28.027,28.027,0,0,1,3.753.222,4.27,4.27,0,0,1,2.367,1.294c.061.054.115.115.169.169a7.633,7.633,0,0,0,1.424,1.34,1.969,1.969,0,0,0,.483.222,5.128,5.128,0,0,0,1.287.039h12.952a1.917,1.917,0,0,1,1.769,2.029Z"/>
      </g>
      <g>
        <path class="cls-2" d="M66,146.351c.9.609,1.045,1.132,1.045,2.671v4.672c0,1.132.493,1.944,1.684,1.944a1.185,1.185,0,0,1,1.218,1.335,1.129,1.129,0,0,1-1.218,1.278c-2.932,0-4.586-1.335-4.586-4.557V148.7c0-.812-.29-1.19-1.074-1.277a1.312,1.312,0,0,1,0-2.612c.784-.087,1.074-.465,1.074-1.277v-4.992c0-3.222,1.654-4.557,4.586-4.557a1.128,1.128,0,0,1,1.218,1.277,1.185,1.185,0,0,1-1.218,1.335c-1.191,0-1.684.813-1.684,1.945v4.673c0,1.538-.145,2.06-1.045,2.67a.29.29,0,0,0,0,.464Z"/>
        <path class="cls-2" d="M94.238,145.887c-.9-.61-1.045-1.132-1.045-2.67v-4.673c0-1.132-.493-1.945-1.683-1.945a1.185,1.185,0,0,1-1.219-1.335,1.128,1.128,0,0,1,1.219-1.277c2.931,0,4.585,1.335,4.585,4.557v4.992c0,.812.29,1.19,1.074,1.277a1.312,1.312,0,0,1,0,2.612c-.784.087-1.074.465-1.074,1.277v4.992c0,3.222-1.654,4.557-4.585,4.557a1.129,1.129,0,0,1-1.219-1.278,1.185,1.185,0,0,1,1.219-1.335c1.19,0,1.683-.812,1.683-1.944v-4.672c0-1.539.145-2.062,1.045-2.671a.29.29,0,0,0,0-.464Z"/>
      </g>
      <path class="cls-2" d="M82.294,141.243a2.177,2.177,0,0,1-4.353,0,2.177,2.177,0,1,1,4.353,0Zm0,9.781a2.177,2.177,0,0,1-4.353,0,2.177,2.177,0,1,1,4.353,0Z"/>
      <circle class="cls-3" cx="137.506" cy="92.887" r="5.12"/>
      <circle class="cls-3" cx="154.971" cy="98.962" r="5.12"/>
      <circle class="cls-3" cx="137.506" cy="116.427" r="5.12"/>
      <line class="cls-3" x1="137.506" y1="98.008" x2="137.506" y2="111.306"/>
      <path class="cls-3" d="M137.506,111.306c5.822-6.821,11.643-.4,17.465-7.224"/>
    </g>
    <g>
      <g>
        <path class="cls-2" d="M57.1,62.192l8.223,3.936a1.321,1.321,0,0,1,.832,1.215,1.666,1.666,0,0,1-1.44,1.7,1.7,1.7,0,0,1-.8-.225l-9.824-4.768c-1.024-.479-1.824-.895-1.824-2.079s.8-1.6,1.824-2.08l9.824-4.767a1.7,1.7,0,0,1,.8-.225,1.651,1.651,0,0,1,1.44,1.7,1.32,1.32,0,0,1-.832,1.216L57.1,61.744a.237.237,0,0,0,0,.448Z"/>
        <path class="cls-2" d="M80.526,50.065c.224-.9.576-1.216,1.151-1.216.769,0,1.889.352,1.889,1.279a2.117,2.117,0,0,1-.1.544L77.678,73.263c-.224.9-.576,1.216-1.152,1.216-.768,0-1.888-.351-1.888-1.28a2.205,2.205,0,0,1,.1-.544Z"/>
        <path class="cls-2" d="M94.348,61.744l-8.223-3.936a1.319,1.319,0,0,1-.831-1.216,1.65,1.65,0,0,1,1.439-1.7,1.7,1.7,0,0,1,.8.225l9.823,4.767c1.024.48,1.824.9,1.824,2.08s-.8,1.6-1.824,2.079l-9.823,4.768a1.7,1.7,0,0,1-.8.225,1.666,1.666,0,0,1-1.439-1.7,1.32,1.32,0,0,1,.831-1.215l8.223-3.936a.237.237,0,0,0,0-.448Z"/>
      </g>
      <circle class="cls-3" cx="6.256" cy="10.387" r="5.12"/>
      <circle class="cls-3" cx="23.721" cy="16.462" r="5.12"/>
      <circle class="cls-3" cx="6.256" cy="33.927" r="5.12"/>
      <line class="cls-3" x1="6.256" y1="15.508" x2="6.256" y2="28.806"/>
      <path class="cls-3" d="M6.256,28.806c5.822-6.821,11.643-.4,17.465-7.224"/>
    </g>
  </g>
</svg>
