<svg id="Layer_5" data-name="Layer 5" xmlns="http://www.w3.org/2000/svg" viewBox="0 0 322.5 190">
  <defs>
    <style>
      .cls-1, .cls-3, .cls-4, .cls-5 {
        fill: none;
      }

      .cls-2, .cls-6 {
        fill: #b692a0;
      }

      .cls-3, .cls-4, .cls-5, .cls-6 {
        stroke: #b692a0;
        stroke-miterlimit: 10;
      }

      .cls-3, .cls-4 {
        stroke-width: 2px;
      }

      .cls-4, .cls-5, .cls-6 {
        stroke-linecap: round;
      }

      .cls-5, .cls-6 {
        stroke-width: 2.5px;
      }
    </style>
  </defs>
  <g>
    <rect class="cls-1" width="322.5" height="190"/>
    <g>
      <g>
        <path class="cls-2" d="M203.791,160.746a25.631,25.631,0,0,1-.594-7.2,17.99,17.99,0,0,1,2.091-7.34,13.462,13.462,0,0,1,5.9-5.662,18.76,18.76,0,0,1,15.681.036,13.522,13.522,0,0,1,5.913,5.632,17.92,17.92,0,0,1,2.122,7.333,25.562,25.562,0,0,1-.581,7.205l-.006.028a.149.149,0,0,1-.294-.029,37.079,37.079,0,0,0-.67-6.885,18.528,18.528,0,0,0-2.537-6.352,11.738,11.738,0,0,0-5.118-4.368,16.383,16.383,0,0,0-6.667-1.3,16.155,16.155,0,0,0-6.668,1.273,11.648,11.648,0,0,0-5.1,4.384,18.678,18.678,0,0,0-2.513,6.363,37.436,37.436,0,0,0-.663,6.886.149.149,0,0,1-.294.029Z"/>
        <rect class="cls-2" x="203.066" y="155.971" width="4.644" height="9.549" rx="1.372"/>
        <path class="cls-2" d="M201.775,157.027h-.543a.936.936,0,0,0-.933.933v5.571a.936.936,0,0,0,.933.933h.543"/>
        <path class="cls-2" d="M200.3,163.321c-1.052,0-1.906-1.153-1.906-2.576s.854-2.576,1.906-2.576"/>
        <rect class="cls-2" x="230.471" y="155.971" width="4.644" height="9.549" rx="1.372" transform="translate(465.585 321.491) rotate(-180)"/>
        <path class="cls-2" d="M236.406,157.027h.543a.936.936,0,0,1,.933.933v5.571a.936.936,0,0,1-.933.933h-.543"/>
        <path class="cls-2" d="M237.882,158.169c1.053,0,1.906,1.154,1.906,2.576s-.853,2.576-1.906,2.576"/>
        <path class="cls-2" d="M224.53,145.066a14.692,14.692,0,0,0-11.3,0,1.45,1.45,0,0,1-1.825-.556l-.318-.6a1.391,1.391,0,0,1,.894-1.839,17.94,17.94,0,0,1,13.8,0,1.39,1.39,0,0,1,.894,1.839l-.318.6A1.45,1.45,0,0,1,224.53,145.066Z"/>
      </g>
      <g>
        <path class="cls-2" d="M328.46,178.779H303.9a8.1,8.1,0,0,0-8.08,8.08v12.46a8.1,8.1,0,0,0,8.08,8.08h24.56a8.1,8.1,0,0,0,8.08-8.08v-12.46A8.1,8.1,0,0,0,328.46,178.779Zm-14.19,10.89a.894.894,0,0,1,1.21.37.9.9,0,1,1-1.58.85A.9.9,0,0,1,314.27,189.669Zm-3.15,1.67a.9.9,0,1,1-.37,1.22A.912.912,0,0,1,311.12,191.339Zm-7.12-4.23a.9.9,0,1,1-.26,1.25A.9.9,0,0,1,304,187.109Zm-3.61,6.7a.9.9,0,1,1,.9.9A.9.9,0,0,1,300.39,193.809Zm2.15,4.14a.9.9,0,1,1,.37-1.22A.9.9,0,0,1,302.54,197.949Zm.45-7.2a.887.887,0,0,1-1.22.33.9.9,0,1,1,1.22-.33Zm2.25,9.5a.9.9,0,0,1-1.5-.99.9.9,0,0,1,1.5.99Zm.45-3.98a.9.9,0,1,1-.85-1.58.9.9,0,1,1,.85,1.58Zm.4-3.77a.9.9,0,1,1-1.56-.89.887.887,0,0,1,1.22-.33A.9.9,0,0,1,306.09,192.5Zm2.31,9.32a.9.9,0,1,1,.9-.89A.892.892,0,0,1,308.4,201.819Zm0-3.55a.9.9,0,1,1,.9-.9A.9.9,0,0,1,308.4,198.269Zm0-3.56a.9.9,0,1,1,.9-.9A.9.9,0,0,1,308.4,194.709Zm0-3.56a.9.9,0,1,1,.9-.9A.894.894,0,0,1,308.4,191.149Zm0-3.56a.9.9,0,1,1,.9-.9A.894.894,0,0,1,308.4,187.589Zm2.66,8.75a.9.9,0,1,1,.88-1.56.9.9,0,0,1-.88,1.56Zm1.75,4.16a.894.894,0,0,1-.99-1.49.9.9,0,0,1,1.25.25A.89.89,0,0,1,312.81,200.5Zm.26-12.14a.9.9,0,1,1-.26-1.25A.9.9,0,0,1,313.07,188.359Zm2.31,9.4a.9.9,0,1,1-.34-1.23A.913.913,0,0,1,315.38,197.759Zm.14-3.05a.9.9,0,1,1,.9-.9A.9.9,0,0,1,315.52,194.709Zm11.23,6.98a2.315,2.315,0,1,1,2.31-2.31A2.313,2.313,0,0,1,326.75,201.689Zm4.19-7.56h-8.38a1.11,1.11,0,0,1,0-2.22h8.38a1.11,1.11,0,0,1,0,2.22Zm0-4.15h-8.38a1.11,1.11,0,0,1,0-2.22h8.38a1.11,1.11,0,0,1,0,2.22Z"/>
        <ellipse class="cls-2" cx="306.948" cy="179.419" rx="2.909" ry="3.364"/>
        <line class="cls-3" x1="307.508" y1="177.52" x2="331.421" y2="168.618"/>
      </g>
    </g>
    <g>
      <g>
        <g id="downy">
          <path class="cls-2" d="M65.7,138.664c-.27.42-.55.81-.82,1.17-3.55-4.72-6.94-4.92-10.13-4.7a1,1,0,0,1-.14-2c3.72-.26,7.65.21,11.47,4.99C65.953,138.294,65.833,138.474,65.7,138.664Z"/>
          <path class="cls-2" d="M79.393,146.484a.984.984,0,0,1-.93,1.06c-.5.04-1.02.06-1.53.06-3.31,0-6.75-.91-10.1-5.05.18-.25.35-.51.53-.78.22-.33.45-.64.67-.93,3.59,4.74,7.05,4.94,10.3,4.71A1.023,1.023,0,0,1,79.393,146.484Z"/>
        </g>
        <g id="uppy">
          <path class="cls-4" d="M78.4,134.133c-3.822-.267-7.839.168-11.857,6.08-4.018,6.162-8.036,6.606-11.858,6.337"/>
        </g>
        <line class="cls-4" x1="77.333" y1="131.05" x2="80.178" y2="133.821"/>
        <line class="cls-4" x1="77.968" y1="137.141" x2="80.18" y2="133.844"/>
        <line class="cls-4" x1="77.335" y1="149.653" x2="80.179" y2="146.883"/>
        <line class="cls-4" x1="77.969" y1="143.563" x2="80.181" y2="146.86"/>
      </g>
      <g>
        <path class="cls-2" d="M5.96,178.779H-18.6a8.1,8.1,0,0,0-8.08,8.08v12.46a8.1,8.1,0,0,0,8.08,8.08H5.96a8.1,8.1,0,0,0,8.08-8.08v-12.46A8.1,8.1,0,0,0,5.96,178.779Zm-14.19,10.89a.894.894,0,0,1,1.21.37.906.906,0,0,1-.37,1.22.9.9,0,0,1-1.21-.37A.9.9,0,0,1-8.23,189.669Zm-3.15,1.67a.912.912,0,0,1,1.22.37.9.9,0,0,1-.37,1.22.906.906,0,0,1-1.22-.37A.915.915,0,0,1-11.38,191.339Zm-7.12-4.23a.9.9,0,0,1,1.24.26.9.9,0,0,1-.25,1.24.9.9,0,0,1-1.25-.25A.9.9,0,0,1-18.5,187.109Zm-3.61,6.7a.9.9,0,0,1,.9-.9.894.894,0,0,1,.89.9.9.9,0,0,1-.89.9A.9.9,0,0,1-22.11,193.809Zm2.15,4.14a.9.9,0,0,1-1.21-.37.906.906,0,0,1,.37-1.22.9.9,0,0,1,1.21.37A.9.9,0,0,1-19.96,197.949Zm.45-7.2a.887.887,0,0,1-1.22.33.9.9,0,0,1-.34-1.22.9.9,0,0,1,1.22-.34A.9.9,0,0,1-19.51,190.749Zm2.25,9.5a.89.89,0,0,1-1.24.25.89.89,0,0,1-.26-1.24.9.9,0,0,1,1.25-.25A.9.9,0,0,1-17.26,200.249Zm.45-3.98a.9.9,0,0,1-1.22-.37.894.894,0,0,1,.37-1.21.906.906,0,0,1,1.22.37A.9.9,0,0,1-16.81,196.269Zm.4-3.77a.9.9,0,0,1-1.22.34.893.893,0,0,1-.34-1.23.887.887,0,0,1,1.22-.33A.9.9,0,0,1-16.41,192.5Zm2.31,9.32a.892.892,0,0,1-.89-.89.894.894,0,0,1,.89-.9.9.9,0,0,1,.9.9A.894.894,0,0,1-14.1,201.819Zm0-3.55a.9.9,0,0,1-.89-.9.894.894,0,0,1,.89-.9.9.9,0,0,1,.9.9A.9.9,0,0,1-14.1,198.269Zm0-3.56a.9.9,0,0,1-.89-.9.894.894,0,0,1,.89-.9.9.9,0,0,1,.9.9A.9.9,0,0,1-14.1,194.709Zm0-3.56a.894.894,0,0,1-.89-.9.894.894,0,0,1,.89-.9.9.9,0,0,1,.9.9A.9.9,0,0,1-14.1,191.149Zm0-3.56a.894.894,0,0,1-.89-.9.9.9,0,0,1,.89-.9.9.9,0,0,1,.9.9A.9.9,0,0,1-14.1,187.589Zm2.66,8.75a.9.9,0,0,1-.34-1.22.9.9,0,0,1,1.22-.34.884.884,0,0,1,.34,1.22A.881.881,0,0,1-11.44,196.339Zm1.75,4.16a.89.89,0,0,1-1.24-.25.9.9,0,0,1,.25-1.24.9.9,0,0,1,1.25.25A.89.89,0,0,1-9.69,200.5Zm.26-12.14a.9.9,0,0,1-1.25.25.9.9,0,0,1-.25-1.24.9.9,0,0,1,1.24-.26A.9.9,0,0,1-9.43,188.359Zm2.31,9.4a.9.9,0,0,1-1.22.34.9.9,0,0,1-.34-1.23.9.9,0,0,1,1.22-.34A.913.913,0,0,1-7.12,197.759Zm.14-3.05a.9.9,0,0,1-.89-.9.894.894,0,0,1,.89-.9.9.9,0,0,1,.9.9A.9.9,0,0,1-6.98,194.709Zm11.23,6.98a2.315,2.315,0,1,1,2.31-2.31A2.313,2.313,0,0,1,4.25,201.689Zm4.19-7.56H.06a1.11,1.11,0,0,1,0-2.22H8.44a1.11,1.11,0,0,1,0,2.22Zm0-4.15H.06a1.11,1.11,0,0,1,0-2.22H8.44a1.11,1.11,0,0,1,0,2.22Z"/>
        <line class="cls-3" x1="-14.992" y1="177.52" x2="8.921" y2="168.618"/>
        <circle class="cls-2" cx="8.921" cy="168.618" r="2.389"/>
      </g>
    </g>
    <g>
      <g>
        <line class="cls-5" x1="284.726" y1="87.784" x2="281.808" y2="106.354"/>
        <line class="cls-5" x1="297.726" y1="87.784" x2="294.808" y2="106.354"/>
        <line class="cls-5" x1="284.726" y1="87.784" x2="297.726" y2="87.784"/>
        <line class="cls-5" x1="284.565" y1="90.247" x2="297.231" y2="90.247"/>
        <line class="cls-5" x1="283.928" y1="94.415" x2="296.267" y2="94.415"/>
        <ellipse class="cls-6" cx="279.286" cy="106.41" rx="2.598" ry="1.6" transform="matrix(0.961, -0.277, 0.277, 0.961, -18.534, 81.373)"/>
        <ellipse class="cls-6" cx="292.286" cy="106.41" rx="2.598" ry="1.6" transform="matrix(0.961, -0.277, 0.277, 0.961, -18.027, 84.968)"/>
      </g>
      <path class="cls-2" d="M328.46-11.221H303.9a8.1,8.1,0,0,0-8.08,8.08V9.319a8.1,8.1,0,0,0,8.08,8.08h24.56a8.1,8.1,0,0,0,8.08-8.08V-3.141A8.1,8.1,0,0,0,328.46-11.221ZM314.27-.331a.894.894,0,0,1,1.21.37.9.9,0,1,1-1.58.85A.9.9,0,0,1,314.27-.331Zm-3.15,1.67a.9.9,0,1,1-.37,1.22A.912.912,0,0,1,311.12,1.339ZM304-2.891a.9.9,0,0,1,1.24.26.9.9,0,0,1-.25,1.24.9.9,0,0,1-1.25-.25A.9.9,0,0,1,304-2.891Zm-3.61,6.7a.9.9,0,1,1,.9.9A.9.9,0,0,1,300.39,3.809Zm2.15,4.14a.9.9,0,1,1,.37-1.22A.9.9,0,0,1,302.54,7.949Zm.45-7.2a.887.887,0,0,1-1.22.33.9.9,0,0,1-.34-1.22.9.9,0,1,1,1.56.89Zm2.25,9.5a.9.9,0,0,1-1.5-.99.9.9,0,0,1,1.5.99Zm.45-3.98a.9.9,0,1,1-.85-1.58.9.9,0,1,1,.85,1.58Zm.4-3.77a.9.9,0,1,1-1.56-.89.887.887,0,0,1,1.22-.33A.9.9,0,0,1,306.09,2.5Zm2.31,9.32a.9.9,0,1,1,.9-.89A.892.892,0,0,1,308.4,11.819Zm0-3.55a.9.9,0,1,1,.9-.9A.9.9,0,0,1,308.4,8.269Zm0-3.56a.9.9,0,1,1,.9-.9A.9.9,0,0,1,308.4,4.709Zm0-3.56a.894.894,0,0,1-.89-.9.9.9,0,1,1,1.79,0A.9.9,0,0,1,308.4,1.149Zm0-3.56a.894.894,0,0,1-.89-.9.9.9,0,0,1,.89-.9.9.9,0,0,1,.9.9A.9.9,0,0,1,308.4-2.411Zm2.66,8.75a.9.9,0,0,1,.88-1.56.9.9,0,1,1-.88,1.56Zm1.75,4.16a.894.894,0,1,1-.99-1.49.9.9,0,0,1,1.25.25A.89.89,0,0,1,312.81,10.5Zm.26-12.14a.9.9,0,0,1-1.25.25.9.9,0,0,1-.25-1.24.9.9,0,0,1,1.24-.26A.9.9,0,0,1,313.07-1.641Zm2.31,9.4a.9.9,0,1,1-.34-1.23A.913.913,0,0,1,315.38,7.759Zm.14-3.05a.9.9,0,1,1,.9-.9A.9.9,0,0,1,315.52,4.709Zm11.23,6.98a2.315,2.315,0,1,1,2.31-2.31A2.313,2.313,0,0,1,326.75,11.689Zm4.19-7.56h-8.38a1.11,1.11,0,0,1,0-2.22h8.38a1.11,1.11,0,0,1,0,2.22Zm0-4.15h-8.38a1.114,1.114,0,0,1-1.11-1.11,1.114,1.114,0,0,1,1.11-1.11h8.38a1.105,1.105,0,0,1,1.1,1.11A1.105,1.105,0,0,1,330.94-.021Z"/>
    </g>
    <g>
      <g>
        <path class="cls-2" d="M42.541,65.746a25.631,25.631,0,0,1-.594-7.2,17.99,17.99,0,0,1,2.091-7.34,13.462,13.462,0,0,1,5.9-5.662,18.76,18.76,0,0,1,15.681.036,13.522,13.522,0,0,1,5.913,5.632,17.92,17.92,0,0,1,2.122,7.333,25.562,25.562,0,0,1-.581,7.2l-.006.028a.149.149,0,0,1-.294-.029,37.079,37.079,0,0,0-.67-6.885,18.528,18.528,0,0,0-2.537-6.352,11.738,11.738,0,0,0-5.118-4.368,16.383,16.383,0,0,0-6.667-1.3,16.155,16.155,0,0,0-6.668,1.273,11.648,11.648,0,0,0-5.1,4.384A18.678,18.678,0,0,0,43.5,58.859a37.436,37.436,0,0,0-.663,6.886.149.149,0,0,1-.294.029Z"/>
        <rect class="cls-2" x="41.816" y="60.971" width="4.644" height="9.549" rx="1.372"/>
        <path class="cls-2" d="M40.525,62.027h-.543a.936.936,0,0,0-.933.933v5.571a.936.936,0,0,0,.933.933h.543"/>
        <path class="cls-2" d="M39.049,68.321c-1.052,0-1.906-1.153-1.906-2.576s.854-2.576,1.906-2.576"/>
        <rect class="cls-2" x="69.221" y="60.971" width="4.644" height="9.549" rx="1.372" transform="translate(143.085 131.491) rotate(-180)"/>
        <path class="cls-2" d="M75.156,62.027H75.7a.936.936,0,0,1,.933.933v5.571a.936.936,0,0,1-.933.933h-.543"/>
        <path class="cls-2" d="M76.632,63.169c1.053,0,1.906,1.154,1.906,2.576s-.853,2.576-1.906,2.576"/>
        <path class="cls-2" d="M63.28,50.066a14.692,14.692,0,0,0-11.3,0,1.45,1.45,0,0,1-1.825-.556l-.318-.6a1.391,1.391,0,0,1,.894-1.839,17.94,17.94,0,0,1,13.8,0,1.39,1.39,0,0,1,.894,1.839l-.318.6A1.45,1.45,0,0,1,63.28,50.066Z"/>
      </g>
      <g>
        <g id="downy-2" data-name="downy">
          <path class="cls-2" d="M226.953,43.664c-.27.42-.55.81-.82,1.17-3.55-4.72-6.94-4.92-10.13-4.7a1,1,0,0,1-.14-2c3.72-.26,7.65.21,11.47,4.99C227.2,43.294,227.083,43.474,226.953,43.664Z"/>
          <path class="cls-2" d="M240.643,51.484a.984.984,0,0,1-.93,1.06c-.5.04-1.02.06-1.53.06-3.31,0-6.75-.91-10.1-5.05.18-.25.35-.51.53-.78.22-.33.45-.64.67-.93,3.59,4.74,7.05,4.94,10.3,4.71A1.023,1.023,0,0,1,240.643,51.484Z"/>
        </g>
        <g id="uppy-2" data-name="uppy">
          <path class="cls-4" d="M239.647,39.133c-3.822-.267-7.839.168-11.857,6.08-4.018,6.162-8.036,6.606-11.858,6.337"/>
        </g>
        <line class="cls-4" x1="238.583" y1="36.05" x2="241.428" y2="38.821"/>
        <line class="cls-4" x1="239.218" y1="42.141" x2="241.43" y2="38.844"/>
        <line class="cls-4" x1="238.585" y1="54.653" x2="241.429" y2="51.883"/>
        <line class="cls-4" x1="239.219" y1="48.563" x2="241.431" y2="51.86"/>
      </g>
      <g>
        <line class="cls-5" x1="123.476" y1="182.784" x2="120.558" y2="201.354"/>
        <line class="cls-5" x1="136.476" y1="182.784" x2="133.558" y2="201.354"/>
        <line class="cls-5" x1="123.476" y1="182.784" x2="136.476" y2="182.784"/>
        <line class="cls-5" x1="123.315" y1="185.247" x2="135.981" y2="185.247"/>
        <line class="cls-5" x1="122.678" y1="189.415" x2="135.017" y2="189.415"/>
      </g>
      <g>
        <path class="cls-2" d="M167.21,83.779H142.65a8.1,8.1,0,0,0-8.08,8.08v12.46a8.1,8.1,0,0,0,8.08,8.08h24.56a8.1,8.1,0,0,0,8.08-8.08V91.859A8.1,8.1,0,0,0,167.21,83.779Zm-14.19,10.89a.894.894,0,0,1,1.21.37.9.9,0,1,1-1.58.85A.9.9,0,0,1,153.02,94.669Zm-3.15,1.67a.9.9,0,1,1-.37,1.22A.912.912,0,0,1,149.87,96.339Zm-7.12-4.23a.9.9,0,1,1-.26,1.25A.9.9,0,0,1,142.75,92.109Zm-3.61,6.7a.9.9,0,1,1,.9.9A.9.9,0,0,1,139.14,98.809Zm2.15,4.14a.9.9,0,1,1,.37-1.22A.9.9,0,0,1,141.29,102.949Zm.45-7.2a.887.887,0,0,1-1.22.33.9.9,0,1,1,1.22-.33Zm2.25,9.5a.9.9,0,0,1-1.5-.99.9.9,0,0,1,1.5.99Zm.45-3.98a.9.9,0,1,1-.85-1.58.9.9,0,1,1,.85,1.58Zm.4-3.77a.9.9,0,1,1-1.56-.89.887.887,0,0,1,1.22-.33A.9.9,0,0,1,144.84,97.5Zm2.31,9.32a.9.9,0,1,1,.9-.89A.892.892,0,0,1,147.15,106.819Zm0-3.55a.9.9,0,1,1,.9-.9A.9.9,0,0,1,147.15,103.269Zm0-3.56a.9.9,0,1,1,.9-.9A.9.9,0,0,1,147.15,99.709Zm0-3.56a.9.9,0,1,1,.9-.9A.894.894,0,0,1,147.15,96.149Zm0-3.56a.9.9,0,1,1,.9-.9A.894.894,0,0,1,147.15,92.589Zm2.66,8.75a.9.9,0,1,1,.88-1.56.9.9,0,0,1-.88,1.56Zm1.75,4.16a.894.894,0,1,1-.99-1.49.9.9,0,0,1,1.25.25A.89.89,0,0,1,151.56,105.5Zm.26-12.14a.9.9,0,1,1-.26-1.25A.9.9,0,0,1,151.82,93.359Zm2.31,9.4a.9.9,0,1,1-.34-1.23A.913.913,0,0,1,154.13,102.759Zm.14-3.05a.9.9,0,1,1,.9-.9A.9.9,0,0,1,154.27,99.709Zm11.23,6.98a2.315,2.315,0,1,1,2.31-2.31A2.313,2.313,0,0,1,165.5,106.689Zm4.19-7.56h-8.38a1.11,1.11,0,0,1,0-2.22h8.38a1.11,1.11,0,0,1,0,2.22Zm0-4.15h-8.38a1.11,1.11,0,0,1,0-2.22h8.38a1.11,1.11,0,0,1,0,2.22Z"/>
        <ellipse class="cls-2" cx="145.698" cy="84.419" rx="2.909" ry="3.364"/>
        <line class="cls-3" x1="146.258" y1="82.52" x2="170.171" y2="73.618"/>
        <circle class="cls-2" cx="170.171" cy="73.618" r="2.389"/>
      </g>
    </g>
    <path class="cls-2" d="M5.96-11.221H-18.6a8.1,8.1,0,0,0-8.08,8.08V9.319A8.1,8.1,0,0,0-18.6,17.4H5.96a8.1,8.1,0,0,0,8.08-8.08V-3.141A8.1,8.1,0,0,0,5.96-11.221ZM-8.23-.331a.894.894,0,0,1,1.21.37.906.906,0,0,1-.37,1.22A.9.9,0,0,1-8.6.889.9.9,0,0,1-8.23-.331Zm-3.15,1.67a.912.912,0,0,1,1.22.37.9.9,0,0,1-.37,1.22.906.906,0,0,1-1.22-.37A.915.915,0,0,1-11.38,1.339Zm-7.12-4.23a.9.9,0,0,1,1.24.26.9.9,0,0,1-.25,1.24.9.9,0,0,1-1.25-.25A.9.9,0,0,1-18.5-2.891Zm-3.61,6.7a.9.9,0,0,1,.9-.9.894.894,0,0,1,.89.9.9.9,0,0,1-.89.9A.9.9,0,0,1-22.11,3.809Zm2.15,4.14a.9.9,0,0,1-1.21-.37.906.906,0,0,1,.37-1.22.9.9,0,0,1,1.21.37A.9.9,0,0,1-19.96,7.949Zm.45-7.2a.887.887,0,0,1-1.22.33.9.9,0,0,1-.34-1.22.9.9,0,0,1,1.22-.34A.9.9,0,0,1-19.51.749Zm2.25,9.5a.89.89,0,0,1-1.24.25.89.89,0,0,1-.26-1.24.9.9,0,0,1,1.25-.25A.9.9,0,0,1-17.26,10.249Zm.45-3.98a.9.9,0,0,1-1.22-.37.894.894,0,0,1,.37-1.21.906.906,0,0,1,1.22.37A.9.9,0,0,1-16.81,6.269Zm.4-3.77a.9.9,0,0,1-1.22.34.893.893,0,0,1-.34-1.23.887.887,0,0,1,1.22-.33A.9.9,0,0,1-16.41,2.5Zm2.31,9.32a.892.892,0,0,1-.89-.89.894.894,0,0,1,.89-.9.9.9,0,0,1,.9.9A.894.894,0,0,1-14.1,11.819Zm0-3.55a.9.9,0,0,1-.89-.9.894.894,0,0,1,.89-.9.9.9,0,0,1,.9.9A.9.9,0,0,1-14.1,8.269Zm0-3.56a.9.9,0,0,1-.89-.9.894.894,0,0,1,.89-.9.9.9,0,0,1,.9.9A.9.9,0,0,1-14.1,4.709Zm0-3.56a.894.894,0,0,1-.89-.9.894.894,0,0,1,.89-.9.9.9,0,0,1,.9.9A.9.9,0,0,1-14.1,1.149Zm0-3.56a.894.894,0,0,1-.89-.9.9.9,0,0,1,.89-.9.9.9,0,0,1,.9.9A.9.9,0,0,1-14.1-2.411Zm2.66,8.75a.9.9,0,0,1-.34-1.22.9.9,0,0,1,1.22-.34A.884.884,0,0,1-10.22,6,.881.881,0,0,1-11.44,6.339Zm1.75,4.16a.89.89,0,0,1-1.24-.25.9.9,0,0,1,.25-1.24.9.9,0,0,1,1.25.25A.89.89,0,0,1-9.69,10.5Zm.26-12.14a.9.9,0,0,1-1.25.25.9.9,0,0,1-.25-1.24.9.9,0,0,1,1.24-.26A.9.9,0,0,1-9.43-1.641Zm2.31,9.4a.9.9,0,0,1-1.22.34.9.9,0,0,1-.34-1.23.9.9,0,0,1,1.22-.34A.913.913,0,0,1-7.12,7.759Zm.14-3.05a.9.9,0,0,1-.89-.9.894.894,0,0,1,.89-.9.9.9,0,0,1,.9.9A.9.9,0,0,1-6.98,4.709Zm11.23,6.98a2.315,2.315,0,1,1,2.31-2.31A2.313,2.313,0,0,1,4.25,11.689Zm4.19-7.56H.06a1.11,1.11,0,0,1,0-2.22H8.44a1.11,1.11,0,0,1,0,2.22Zm0-4.15H.06a1.114,1.114,0,0,1-1.11-1.11A1.114,1.114,0,0,1,.06-2.241H8.44a1.105,1.105,0,0,1,1.1,1.11A1.105,1.105,0,0,1,8.44-.021Z"/>
    <g>
      <line class="cls-5" x1="123.476" y1="-7.216" x2="120.558" y2="11.354"/>
      <line class="cls-5" x1="136.476" y1="-7.216" x2="133.558" y2="11.354"/>
      <line class="cls-5" x1="122.678" y1="-0.585" x2="135.017" y2="-0.585"/>
      <ellipse class="cls-6" cx="118.036" cy="11.41" rx="2.598" ry="1.6" transform="translate(1.447 33.082) rotate(-16.052)"/>
      <ellipse class="cls-6" cx="131.036" cy="11.41" rx="2.598" ry="1.6" transform="translate(1.954 36.677) rotate(-16.052)"/>
    </g>
  </g>
</svg>
