<svg xmlns="http://www.w3.org/2000/svg" xmlns:xlink="http://www.w3.org/1999/xlink" viewBox="0 0 1247 1247">
  <defs>
    <style>
      .cls-1, .cls-16, .cls-22 {
        fill: none;
      }

      .cls-2 {
        fill: #76ad9b;
      }

      .cls-3 {
        isolation: isolate;
      }

      .cls-4 {
        fill: #24233f;
      }

      .cls-5 {
        opacity: 0.29;
        fill: url(#New_Pattern);
      }

      .cls-6 {
        fill: #edecda;
      }

      .cls-7 {
        fill: #1a1a1a;
      }

      .cls-8 {
        fill: #cea97c;
      }

      .cls-9 {
        fill: #614b31;
        opacity: 0.47;
      }

      .cls-10 {
        fill: #edeaea;
      }

      .cls-11 {
        fill: #bc976f;
      }

      .cls-12 {
        fill: #a67c52;
      }

      .cls-13 {
        fill: #736357;
        mix-blend-mode: hard-light;
      }

      .cls-14 {
        fill: #333;
      }

      .cls-15 {
        fill: #e6e6e6;
      }

      .cls-16 {
        stroke: #ccc;
      }

      .cls-16, .cls-17 {
        stroke-miterlimit: 10;
      }

      .cls-17 {
        fill: #99402b;
        stroke: #99402b;
      }

      .cls-18 {
        fill: #a56c56;
      }

      .cls-19 {
        fill: #f2f2f2;
      }

      .cls-20 {
        fill: url(#radial-gradient);
      }

      .cls-21 {
        fill: #351c0f;
      }

      .cls-22 {
        stroke: #501b17;
        stroke-linecap: round;
        stroke-linejoin: round;
        stroke-width: 0.5px;
        opacity: 0.44;
        mix-blend-mode: overlay;
      }

      .cls-23 {
        fill: #d2d7d8;
        opacity: 0.9;
        mix-blend-mode: screen;
      }

      .cls-24 {
        fill: #2e3192;
      }

      .cls-25 {
        fill: #619fda;
      }

      .cls-26 {
        fill: url(#radial-gradient-2);
      }

      .cls-27 {
        fill: #484848;
      }

      .cls-28 {
        fill: #504f65;
      }

      .cls-29 {
        fill: #deb714;
      }
    </style>
    <pattern id="New_Pattern" data-name="New Pattern" width="302.454" height="302.454" patternTransform="translate(-25)" patternUnits="userSpaceOnUse" viewBox="0 0 302.454 302.454">
      <rect class="cls-1" width="302.454" height="302.454"/>
      <path class="cls-2" d="M151.227,0s-5.383,62.324-47.143,104.084S0,151.227,0,151.227,5.383,88.9,47.143,47.143,151.227,0,151.227,0Z"/>
      <path class="cls-2" d="M302.454,151.227S297.071,88.9,255.311,47.143,151.227,0,151.227,0s5.383,62.324,47.143,104.084S302.454,151.227,302.454,151.227Z"/>
      <path class="cls-2" d="M151.227,302.454s-5.383-62.324-47.143-104.084S0,151.227,0,151.227s5.383,62.324,47.143,104.084S151.227,302.454,151.227,302.454Z"/>
      <path class="cls-2" d="M302.454,151.227s-5.383,62.324-47.143,104.084-104.084,47.143-104.084,47.143S156.61,240.13,198.37,198.37,302.454,151.227,302.454,151.227Z"/>
    </pattern>
    <radialGradient id="radial-gradient" cx="728.065" cy="704.142" r="24.166" gradientUnits="userSpaceOnUse">
      <stop offset="0" stop-color="#d16e3a"/>
      <stop offset="1" stop-color="#8b3c00"/>
    </radialGradient>
    <radialGradient id="radial-gradient-2" cx="944.065" cy="704.142" r="24.166" gradientTransform="matrix(-1, 0, 0, 1, 1462.549, 0)" xlink:href="#radial-gradient"/>
  </defs>
  <g class="cls-3">
    <g id="Layer_30" data-name="Layer 30">
      <rect class="cls-4" x="-21.744" y="-21.744" width="1290.488" height="1290.488"/>
      <rect class="cls-5" x="-21.744" y="-21.744" width="1290.488" height="1290.488"/>
    </g>
    <g id="Layer_31" data-name="Layer 31">
      <path class="cls-6" d="M-23.006-40.122-39.2,704.9a2362.189,2362.189,0,0,1,1331.708,1.848L1298.3-43.563Z"/>
    </g>
    <g id="Layer_24" data-name="Layer 24">
      <path class="cls-7" d="M832.711,749.95s3.133,49.659,19.664,95.986c14.655,41.07,29.862,82.713,34.973,126.274,4.743,40.428-.764,75.69-7.816,126.69-3.793,27.436-8.18,50.04-11.518,65.706L741.081,1039.463l-15.746-82.169Z"/>
    </g>
    <g id="Layer_22" data-name="Layer 22">
      <path class="cls-8" d="M950.94,1158.37l-89.26,101.88H371.89s26.17-122.28,33.09-125.25c44.77-19.19,75.28-48.45,84.84-98.44.67-3.48,2.16-11.88,3.68-22,2.21-14.75,4.47-33.13,4.29-45.15,2.76-.85,10.94,3.55,13.45,4.51,1.73.66,3.47,1.32,5.2,1.98l52.07,45.77,89.92,2.4a92.678,92.678,0,0,0,29.98-11.99c14.95-9.37,26.31-22.78,34.47-34.15q8.235-4.575,16.47-9.14v.01c2.46,23.87,16.03,51.54,31.92,73.97a185.7,185.7,0,0,0,25.82,29.85C810.4,1084.67,935.36,1175.93,950.94,1158.37Z"/>
      <path class="cls-9" d="M771.27,1042.77q-15.135,14.415-30.25,28.83c-11.6,11.06-23.47,22.3-37.93,29.2-22.27,10.63-48.06,9.82-72.71,8.73-10.23-.45-20.66-.95-30.23-4.56-9.34-3.52-17.34-9.79-25.17-15.98-15.43-12.19-30.85-24.42-45.54-37.49-12.85-11.44-25.15-23.56-35.94-36.94,2.21-14.75,4.47-33.13,4.29-45.15,2.76-.85,10.94,3.55,13.45,4.51,1.73.66,3.47,1.32,5.2,1.98l52.07,45.77,89.92,2.4a92.678,92.678,0,0,0,29.98-11.99c14.95-9.37,26.31-22.78,34.47-34.15q8.235-4.575,16.47-9.14v.01C741.81,992.67,755.38,1020.34,771.27,1042.77Z"/>
      <g id="Layer_25" data-name="Layer 25">
        <path class="cls-8" d="M956.149,1257.112s33.945-75.246,38.471-78.074,22.63-7.355,25.459-5.658,44.1,36.255,50.015,51.165,11.37,25.462,12.1,28.009S956.149,1257.112,956.149,1257.112Z"/>
      </g>
    </g>
    <g id="sleeves">
      <path class="cls-10" d="M832.711,1258.062s64.934-87.209,84.211-97.307,24.786-10.1,52.325-9.18,41.077,4.451,52.709,11.609a122.88,122.88,0,0,1,30.8,26.45c1.616,1.974,11.025,11.718,14.653,21.565,1.04,2.823,2.095,6.128,2.095,6.129a98.282,98.282,0,0,1,3.077,13.314,38.4,38.4,0,0,0-2.534-6.4s-.358-.713-.745-1.409a48.383,48.383,0,0,0-8.756-10.7c-11.075-10.49-23.843-22.359-37.073-30.045-11.332-6.582-24.647-2.592-31.938,7.941-8.053,11.631-27.737,57.335-31.316,68.036S832.711,1258.062,832.711,1258.062Z"/>
      <path class="cls-10" d="M197.628,1252.187s12.921-62.612,22.859-83.483,21.865-35.779,28.822-37.766,23.852-6.957,50.686-5.963,19.877,71.557,19.877,71.557l.811,55.655Z"/>
    </g>
    <g id="Layer_6" data-name="Layer 6">
      <path class="cls-7" d="M432.992,667.1c-11.593,48.389-26.168,111.232-45.7,154.448-19.023,42.089-41.834,74.043-54.3,114.974-22.765,74.75-37.753,156.494-25.16,233.282,3.208,19.559,6.458,30.725,7.573,48.834s.681,34.869-21.457,35.271c-10.5.191-24.425-.329-33.741-7.011-19.367-13.89,4.324-36.215,17.974-43.556,3.546-1.908.691-.313,3.932-1.784-12.381-2.353-9.815-4.721-24.974-2-43.6,7.84-60.967,63.472-53.721,104.012,1.169,6.537,2.42,13.163,7.164,18.218,27.117,28.89,70.1,29.067,107.488,26.335,115.826-8.463,122.738-125.8,145.871-213.356,9.722-36.794,16.353-72.734,27-109.822,12.094-42.12,37.9-80.48,61.713-117.221,5.6-80.2,11.057-160.092,17.24-240.226C524.189,667.562,478.9,666.42,432.992,667.1Z"/>
    </g>
    <g id="Layer_8" data-name="Layer 8">
      <g id="Layer_9" data-name="Layer 9">
        <path class="cls-8" d="M437.462,745s-14.291-29.982-27.389-34.09c-7.274-2.281-18.646-4.084-25.234,1.168-9.022,7.191-5.132,29.863-2.187,39.074,3.582,11.2,13.055,17.027,17.712,27.177,5.3,11.548.806,25.568,4.136,37.629,4.5,16.308,20,38.147,39.487,26.875a25.377,25.377,0,0,0,7.241-6.824C457.2,827.384,451.808,791.4,437.462,745Z"/>
        <path class="cls-8" d="M803.452,745s14.291-29.982,27.389-34.09c7.275-2.281,18.646-4.084,25.234,1.168,9.022,7.191,5.133,29.863,2.188,39.074-3.583,11.2-13.055,17.027-17.712,27.177-5.3,11.548-.807,25.568-4.136,37.629-4.5,16.308-20,38.147-39.488,26.875a25.367,25.367,0,0,1-7.24-6.824C783.711,827.384,789.107,791.4,803.452,745Z"/>
      </g>
      <g id="Layer_26" data-name="Layer 26">
        <path class="cls-11" d="M817.2,761.018a47.056,47.056,0,0,0,4.906-8.068c1.474-3.088,1.691-4.417,3.491-9.438,2.4-6.683,3.594-10.025,5.409-12.632,1.517-2.178,4.522-6.374,9.514-7.679a11.736,11.736,0,0,1,4.687-.316,12.781,12.781,0,0,1,5.608,2.384c6.085,4.991.074,22.172-.645,24.175a59.126,59.126,0,0,1-8.275,15.118c-3.885,5.193-8,8.987-13.758,14.257-8.728,7.982-12.395,10.029-11.791,12.806.859,3.953,9.625,5.94,9.87,9.865.021.344.132,3.192.132,3.192h0a12.4,12.4,0,0,1-3.169,4c-4.388,3.589-8.268,1.288-14.189,4.129-5.249,2.517-6.638,6.453-8.637,5.731-1.8-.65-2.144-4.374-2.109-7.734l12-43.879Z"/>
        <path class="cls-12" d="M826.069,740.418a23.206,23.206,0,0,1,4.864-10.182,26.958,26.958,0,0,1,4.088-4.087,29.9,29.9,0,0,1,4.912-3.137,19.163,19.163,0,0,1,5.75-1.752,11.34,11.34,0,0,1,6.19.908,8.554,8.554,0,0,1,4.222,4.573,7.023,7.023,0,0,1,.465,3.023,5,5,0,0,1-1.053,2.731l-.176-.094a5.612,5.612,0,0,0-.178-5.184,7.741,7.741,0,0,0-3.876-3.6,10.226,10.226,0,0,0-5.322-.5,17.9,17.9,0,0,0-5.148,1.69,30.034,30.034,0,0,0-14.552,15.681Z"/>
        <path class="cls-12" d="M800.094,832.418a42.35,42.35,0,0,1-.292-5.956,23.006,23.006,0,0,1,.886-6A13.191,13.191,0,0,1,803.716,815c.186-.192.367-.391.561-.577l.625-.508a9.318,9.318,0,0,1,1.322-.919,15.16,15.16,0,0,1,2.888-1.284c3.977-1.25,7.975-1.206,11.468-2.571a8.835,8.835,0,0,0,4.341-3.271,6.063,6.063,0,0,0,.938-5.41,5.161,5.161,0,0,1,.724,2.916,7.316,7.316,0,0,1-.815,2.991,8.621,8.621,0,0,1-1.927,2.493,11.233,11.233,0,0,1-2.636,1.711c-3.805,1.813-7.941,1.859-11.478,3.042a11.326,11.326,0,0,0-7.566,7.352C800.811,824.513,800.5,828.488,800.094,832.418Z"/>
        <path class="cls-12" d="M827.682,739.381a27.616,27.616,0,0,1,2.464-7.232,20.659,20.659,0,0,1,4.622-6.121,13.967,13.967,0,0,1,6.918-3.379,12.473,12.473,0,0,1,7.667,1.069,7.883,7.883,0,0,1,2.918,2.707,11.234,11.234,0,0,1,1.431,3.684,23.633,23.633,0,0,1,.105,7.757,54.789,54.789,0,0,1-4.422,14.725,69.112,69.112,0,0,1-7.845,13.21,72.78,72.78,0,0,1-10.586,11.112c-1.933,1.675-3.926,3.273-5.916,4.864a74,74,0,0,0-5.785,4.944,11.716,11.716,0,0,0-2.275,2.96,4.789,4.789,0,0,0-.471,1.766,4.11,4.11,0,0,0,.358,1.791,6.467,6.467,0,0,0,2.539,2.7,16.235,16.235,0,0,0,3.439,1.626,16.374,16.374,0,0,1-3.519-1.5,6.655,6.655,0,0,1-2.7-2.716,4.41,4.41,0,0,1-.44-1.911,5.157,5.157,0,0,1,.45-1.916,12.114,12.114,0,0,1,2.267-3.143,72.375,72.375,0,0,1,5.737-5.093c1.962-1.627,3.917-3.253,5.807-4.951a77.262,77.262,0,0,0,10.368-11.084,68.348,68.348,0,0,0,7.66-13.072,53.858,53.858,0,0,0,4.433-14.435,22.823,22.823,0,0,0-.05-7.46,10.637,10.637,0,0,0-1.292-3.416,7.086,7.086,0,0,0-2.582-2.481,11.8,11.8,0,0,0-7.2-1.117,13.476,13.476,0,0,0-6.693,3.127C831.206,729.657,828.884,734.465,827.682,739.381Z"/>
      </g>
      <g id="Layer_27" data-name="Layer 27">
        <path class="cls-11" d="M423.041,761.018a46.992,46.992,0,0,1-4.906-8.068c-1.475-3.088-1.691-4.417-3.491-9.438-2.4-6.683-3.594-10.025-5.41-12.632-1.516-2.178-4.521-6.374-9.514-7.679a11.736,11.736,0,0,0-4.687-.316,12.781,12.781,0,0,0-5.608,2.384c-6.084,4.991-.074,22.172.646,24.175a59.126,59.126,0,0,0,8.275,15.118c3.884,5.193,8,8.987,13.758,14.257,8.727,7.982,12.4,10.029,11.791,12.806-.86,3.953-9.626,5.94-9.87,9.865-.022.344-.133,3.192-.133,3.192h0a12.412,12.412,0,0,0,3.169,4c4.389,3.589,8.268,1.288,14.19,4.129,5.248,2.517,6.637,6.453,8.637,5.731,1.8-.65,2.144-4.374,2.109-7.734q-6-21.939-12-43.879Z"/>
        <path class="cls-12" d="M413.989,740.491a30.024,30.024,0,0,0-14.551-15.681,17.9,17.9,0,0,0-5.149-1.689,10.2,10.2,0,0,0-5.321.5,7.729,7.729,0,0,0-3.876,3.6,5.607,5.607,0,0,0-.178,5.183l-.177.094a4.994,4.994,0,0,1-1.055-2.731,7.033,7.033,0,0,1,.464-3.025,8.563,8.563,0,0,1,4.224-4.576,11.355,11.355,0,0,1,6.192-.907,19.2,19.2,0,0,1,5.75,1.756,29.828,29.828,0,0,1,4.909,3.14,26.906,26.906,0,0,1,4.087,4.087,23.26,23.26,0,0,1,4.867,10.179Z"/>
        <path class="cls-12" d="M440.15,832.418c-.4-3.93-.717-7.9-2.066-11.455a11.327,11.327,0,0,0-7.567-7.352c-3.536-1.183-7.673-1.229-11.478-3.042a11.206,11.206,0,0,1-2.635-1.711,8.625,8.625,0,0,1-1.928-2.493,7.3,7.3,0,0,1-.814-2.991,5.169,5.169,0,0,1,.723-2.916,6.063,6.063,0,0,0,.938,5.41,8.84,8.84,0,0,0,4.341,3.271c3.493,1.365,7.492,1.321,11.469,2.571a15.188,15.188,0,0,1,2.888,1.284,9.434,9.434,0,0,1,1.322.919l.624.508c.194.186.375.385.562.577a13.2,13.2,0,0,1,3.028,5.468,23.006,23.006,0,0,1,.886,6A42.2,42.2,0,0,1,440.15,832.418Z"/>
        <path class="cls-12" d="M412.562,739.381c-1.2-4.915-3.524-9.723-7.4-12.982a13.465,13.465,0,0,0-6.693-3.126,11.781,11.781,0,0,0-7.2,1.117,7.057,7.057,0,0,0-2.581,2.48,10.581,10.581,0,0,0-1.294,3.415,22.8,22.8,0,0,0-.049,7.46,53.856,53.856,0,0,0,4.432,14.435,68.178,68.178,0,0,0,7.659,13.072A77.221,77.221,0,0,0,409.8,776.338c1.889,1.7,3.845,3.323,5.806,4.95a72.014,72.014,0,0,1,5.738,5.093,12.126,12.126,0,0,1,2.267,3.142,5.176,5.176,0,0,1,.449,1.916,4.387,4.387,0,0,1-.439,1.91,6.637,6.637,0,0,1-2.7,2.716,16.341,16.341,0,0,1-3.518,1.5,16.3,16.3,0,0,0,3.439-1.625,6.469,6.469,0,0,0,2.539-2.7,4.1,4.1,0,0,0,.359-1.791,4.828,4.828,0,0,0-.471-1.766,11.73,11.73,0,0,0-2.276-2.961,73.6,73.6,0,0,0-5.785-4.944c-1.99-1.591-3.983-3.189-5.915-4.864A72.591,72.591,0,0,1,398.706,765.8a69.16,69.16,0,0,1-7.846-13.209,54.673,54.673,0,0,1-4.423-14.725,23.661,23.661,0,0,1,.1-7.757,11.283,11.283,0,0,1,1.431-3.685,7.891,7.891,0,0,1,2.918-2.707,12.465,12.465,0,0,1,7.669-1.069,13.972,13.972,0,0,1,6.918,3.379,20.646,20.646,0,0,1,4.622,6.122A27.578,27.578,0,0,1,412.562,739.381Z"/>
      </g>
      <path class="cls-8" d="M832.69,648.44c-1.08,26.34-24.41,125.45-32.91,162.21-4.14,17.92-5.2,34.84-6.37,53.05-2.66,41.28-20.99,80.85-47.78,112.11-11.27,13.15-25.65,21.72-37.98,33.66-13.17,12.76-34.15,25.39-52.53,28.37-3.46.56-36.84,2.26-36.87-.15-.06,2.41-33.41.18-36.86-.44-18.33-3.27-39.1-16.24-52.07-29.21-12.13-12.14-26.38-20.94-37.43-34.26-26.29-31.69-43.98-71.55-45.98-112.86-.88-18.23-1.67-35.17-5.52-53.15-7.91-36.89-29.65-136.36-30.31-162.71s41.51-161.4,41.51-161.4L623.5,382.87,793.78,486.4S833.77,622.11,832.69,648.44Z"/>
    </g>
    <g id="Layer_18" data-name="Layer 18">
      <g id="Layer_19" data-name="Layer 19">
        <path class="cls-13" d="M586.159,825.2l-1.231-.514a4.426,4.426,0,0,1,3.248-8.233l5.223,1.336a18.783,18.783,0,0,1,6.393,4.225c-.533.262-1.284.614-2.2.985a37.735,37.735,0,0,1-5.253,1.639,16.663,16.663,0,0,1-4.008.723A12.144,12.144,0,0,1,586.159,825.2Z"/>
        <g id="Layer_20" data-name="Layer 20">
          <path class="cls-13" d="M658.653,826.71a6.641,6.641,0,0,1-.762-.181s-.146-.045-.368-.128a7.579,7.579,0,0,1-.822-.364c-.353-.181-2.541-1.164-7.592-3.4.232-.229.557-.545.953-.915.579-.541,1.522-1.419,2.766-2.391a10.592,10.592,0,0,1,1.8-1.316l3.889-2.032a4.19,4.19,0,0,1,1.715.1c2.3.637,3.715,3.331,3.748,5.63a5.228,5.228,0,0,1-.948,3.237,4.336,4.336,0,0,1-4.381,1.762Z"/>
        </g>
      </g>
      <path class="cls-12" d="M592.068,824.688a17.458,17.458,0,0,1-3.865.749,6.475,6.475,0,0,1-3.823-.923,6.613,6.613,0,0,1-1.5-1.332,4.629,4.629,0,0,1-.869-1.833,4.148,4.148,0,0,1,.095-2.045,4.639,4.639,0,0,1,1.075-1.755,5.221,5.221,0,0,1,1.748-1.092,6.438,6.438,0,0,1,2.019-.337,15.387,15.387,0,0,1,3.968.51,19.893,19.893,0,0,1,7.192,3.4c4.27,3.223,7.283,7.7,11.08,11.185a24.694,24.694,0,0,0,13.613,6.719,17.658,17.658,0,0,0,7.566-.727,23.569,23.569,0,0,0,6.793-3.584c4.176-3.084,7.5-7.189,11.277-10.86a40.945,40.945,0,0,1,6.1-5.057,18.476,18.476,0,0,1,3.532-1.886,4.124,4.124,0,0,1,2.076-.154,4.047,4.047,0,0,1,1.852.935,6.623,6.623,0,0,1,1.963,3.493,6.3,6.3,0,0,1-.291,3.954,4.454,4.454,0,0,1-2.88,2.613,5.372,5.372,0,0,1-3.839-.516,5.3,5.3,0,0,0,3.8.371,4.255,4.255,0,0,0,2.678-2.569,5.969,5.969,0,0,0,.168-3.763,6.193,6.193,0,0,0-1.913-3.208,3.4,3.4,0,0,0-3.434-.622,18.055,18.055,0,0,0-3.357,1.877,40.215,40.215,0,0,0-5.908,5.078c-3.653,3.714-7.009,7.828-11.275,11.044a24.5,24.5,0,0,1-7.045,3.764,18.565,18.565,0,0,1-7.971.809,25.633,25.633,0,0,1-14.114-7.041c-1.967-1.8-3.646-3.846-5.388-5.789a46.221,46.221,0,0,0-5.549-5.462,19.232,19.232,0,0,0-6.88-3.4,14.845,14.845,0,0,0-3.8-.557,5.84,5.84,0,0,0-1.848.273,4.844,4.844,0,0,0-1.585.945,4.21,4.21,0,0,0-1.005,1.54,3.756,3.756,0,0,0-.136,1.838,4.289,4.289,0,0,0,.755,1.711,5.92,5.92,0,0,0,5.068,2.3A17.348,17.348,0,0,0,592.068,824.688Z"/>
      <path class="cls-12" d="M591.783,827.269a45.83,45.83,0,0,1-9.217.965,19.786,19.786,0,0,1-9.172-2.133,13.5,13.5,0,0,1-6.125-7.335,17.975,17.975,0,0,1-.4-9.555,26.687,26.687,0,0,1,3.745-8.706,25.824,25.824,0,0,1,6.5-6.839,21.177,21.177,0,0,1,4.106-2.379c1.464-.6,2.946-1.041,4.407-1.5a32.348,32.348,0,0,0,4.29-1.54,9.049,9.049,0,0,0,3.536-2.754l.086.052a8.87,8.87,0,0,1-3.468,2.994,32.481,32.481,0,0,1-4.271,1.745c-1.449.51-2.914.98-4.314,1.6a20.485,20.485,0,0,0-3.9,2.4,26.309,26.309,0,0,0-9.739,15.138,17.068,17.068,0,0,0,.288,9.05,13.408,13.408,0,0,0,2.205,3.984l.758.858c.267.272.562.517.841.777a6.972,6.972,0,0,0,.894.713,6.872,6.872,0,0,0,.958.624,19.243,19.243,0,0,0,8.8,2.278,49.744,49.744,0,0,0,9.178-.537Z"/>
      <path class="cls-12" d="M657.255,829.609a36.03,36.03,0,0,0,9.757,1.769,26.676,26.676,0,0,0,9.668-1.112,22.848,22.848,0,0,0,2.236-.887c.711-.359,1.406-.751,2.086-1.158A14.475,14.475,0,0,0,684.435,825l.7-.953A10.628,10.628,0,0,0,685.7,823l.549-1.049c.142-.37.262-.75.394-1.124a13.481,13.481,0,0,0,.911-4.619,18.805,18.805,0,0,0-2.184-9.21,32.359,32.359,0,0,0-5.709-7.857A72.106,72.106,0,0,0,671.884,793a27.244,27.244,0,0,1-7-7.19l.084-.055a26.9,26.9,0,0,0,7.225,6.816,71.64,71.64,0,0,1,8.007,6.011,31.572,31.572,0,0,1,5.987,8.006,19.771,19.771,0,0,1,2.372,9.662,14.342,14.342,0,0,1-1.009,4.907c-.145.394-.276.793-.431,1.182l-.591,1.111a11.747,11.747,0,0,1-.616,1.1l-.753,1.009a15.35,15.35,0,0,1-3.682,3.394c-.72.423-1.456.834-2.209,1.2a23.261,23.261,0,0,1-2.356.867,27.206,27.206,0,0,1-9.937.893,36.361,36.361,0,0,1-9.751-2.2Z"/>
    </g>
    <g id="Layer_12" data-name="Layer 12">
      <g id="Layer_17" data-name="Layer 17">
        <path class="cls-14" d="M669.843,912.792,562.732,912.6c-2.715-.78-9.951-3-13.376-6.062-.526-.47-.967-.963-.844-1.356.362-1.157,5.315-.513,8.121-.233a91.2,91.2,0,0,0,18.086-.08c2.279-.509,5.874-1.314,10.278-2.31,28.5-6.445,30.71-7.271,36.252-7.171,4.53.082,11.386,1.941,25.1,5.657,10,2.709,18.21,5.3,23.961,7.2a38.315,38.315,0,0,0,14.277-1.535c4.723-1.473,10.081-4.242,10.426-3.62.07.127-.195.509-.724,1.275a10.52,10.52,0,0,1-1.316,1.585,6.669,6.669,0,0,1-2.854,1.484C688.2,907.977,680.465,910.074,669.843,912.792Z"/>
      </g>
      <g id="Layer_13" data-name="Layer 13">
        <rect class="cls-15" x="563.472" y="882.595" width="115.554" height="23.587" rx="11.794"/>
      </g>
      <g id="Layer_14" data-name="Layer 14">
        <line class="cls-16" x1="622.589" y1="891.767" x2="622.293" y2="906.183"/>
        <line class="cls-16" x1="610.989" y1="891.767" x2="610.693" y2="906.183"/>
        <line class="cls-16" x1="599.389" y1="891.767" x2="599.093" y2="906.183"/>
        <line class="cls-16" x1="587.789" y1="891.767" x2="587.493" y2="906.183"/>
        <line class="cls-16" x1="634.189" y1="891.767" x2="633.893" y2="906.183"/>
        <line class="cls-16" x1="645.789" y1="891.767" x2="645.493" y2="906.183"/>
      </g>
      <path class="cls-17" d="M551.113,900.431c4.8-7.212,13.8-12.732,20.67-16.909,11.2-6.811,25.909-9.138,38.837-8.185,5.231.386,8.192,1.877,11.783,5.468-1.362-1.363,7.943-4.785,8.75-4.948a54.034,54.034,0,0,1,16.385-.645,63.785,63.785,0,0,1,26.566,9.473c1.843,1.141,21.511,17.8,20.481,18.43-17.619,10.849-41.364,3.6-59.056-3.28-10.086-3.922-16.959-5.535-27.5-2.119-9.644,3.126-19.3,6.41-29.3,8.214-9.594,1.731-20.633,3.391-29.774-.969A13.238,13.238,0,0,1,551.113,900.431Z"/>
      <path class="cls-17" d="M549.2,907.1c.9.083,2.944,3.08,3.494,3.694a116.909,116.909,0,0,1,8.411,10.588c5.337,7.572,9.731,15.916,16.459,22.409,9.44,9.108,22.53,11.091,34.983,12.775,13.342,1.8,25.082.355,37.263-5.443,10.186-4.849,18.2-12.969,25.123-21.7,3.434-4.33,6.635-8.837,9.874-13.312,1.968-2.72,5.216-8.68,8.475-9.895-8.228,3.065-17.111,5.545-25.88,6.222-7.193.555-14.188-1.587-21.38-1.922-11.269-.526-22.162,3.455-33.365,1.746-10.177-1.551-20.438-3.956-30.78-2.547a68.113,68.113,0,0,1-18.383.379C558.636,909.428,554.09,907.546,549.2,907.1Z"/>
    </g>
    <g id="Layer_10" data-name="Layer 10">
      <g id="Layer_16" data-name="Layer 16">
        <path class="cls-18" d="M776.89,705.7c-.12.18-.25.39-.38.62a34.433,34.433,0,0,1-13.75,13,39.084,39.084,0,0,1-14.09,3.84c-3.25.36-6.65.5-10.21.6-.94.02-1.9.03-2.86.03a152.761,152.761,0,0,1-24.83-2.31q-2.805-.465-5.61-1.03c-4.35-.87-8.67-1.93-12.91-3.16-1-.29-2-.6-2.98-.91-.74-.24-1.46-.48-2.18-.72a.689.689,0,0,0-.08-.03c-.9-.3-1.82-.59-2.74-.86-1.71-.52-3.43-1-5.17-1.42a41.54,41.54,0,0,0-5.54-1.02,13.14,13.14,0,0,0-2.26-.07c-.58.04-1.16.17-1.73.24-.5.06-1.01.11-1.5.19.2-.04.31-.07.31-.09a2.624,2.624,0,0,1-.42-.57l-.21-.34.29-.28c1.2-1.17,2.4-2.38,3.62-3.59,5.16-5.19,10.49-10.53,16.88-14.04.54-.31,1.1-.6,1.66-.87l12.23-5.93a29.254,29.254,0,0,1,3.26-1.36c4.92-1.73,10.04-2.12,16.29-2.12,1.17-.06,2.35-.14,3.53-.22,6.32-.42,12.29-.82,18.45,1.39l7.85,2.81,3.82,1.37a65.048,65.048,0,0,1,8.55,3.54,30.227,30.227,0,0,1,3.64,2.3c1.78,1.28,3.43,2.69,4.95,3.99.43.37.91.73,1.4,1.1a15.946,15.946,0,0,1,2.71,2.36C778.15,703.65,777.65,704.47,776.89,705.7Z"/>
        <path class="cls-19" d="M766.349,694.7v21.353c1.373-1,2.476-1.884,3.261-2.537,4.058-3.374,5.534-5.463,6.216-6.528a6.712,6.712,0,0,0,1.152-2.342l-.871-5.328h0Z"/>
        <path class="cls-19" d="M768.12,696.15c-.09-.49-.19-.98-.3-1.46a30.227,30.227,0,0,0-3.64-2.3,65.048,65.048,0,0,0-8.55-3.54l-3.82-1.37-7.85-2.81c-6.16-2.21-12.13-1.81-18.45-1.39-1.18.08-2.36.16-3.53.22-6.25,0-11.37.39-16.29,2.12a29.254,29.254,0,0,0-3.26,1.36l-12.23,5.93c-.56.27-1.12.56-1.66.87-.12.43-.22.87-.31,1.31a40.879,40.879,0,0,0,.68,20.11c.11.4.23.79.36,1.18.98.31,1.98.62,2.98.91,4.24,1.23,8.56,2.29,12.91,3.16q2.8.57,5.61,1.03a152.761,152.761,0,0,0,24.83,2.31c.96,0,1.92-.01,2.86-.03,3.56-.1,6.96-.24,10.21-.6a39.084,39.084,0,0,0,14.09-3.84,34.989,34.989,0,0,0,3.92-2.38c.18-.54.35-1.07.5-1.62a40.561,40.561,0,0,0,1.66-11.52A41.078,41.078,0,0,0,768.12,696.15Z"/>
        <g>
          <path class="cls-20" d="M735.6,724.332a145.718,145.718,0,0,1-24.662-2.383c-1.837-.317-3.542-.639-5.2-.983-.2-.285-.4-.574-.589-.872a29.557,29.557,0,0,1,.247-32.248c.264-.418.55-.825.9-1.283,4.784-1.692,9.738-2.042,15.678-2.042,1.229-.065,2.415-.148,3.6-.232,2.536-.175,4.911-.338,7.289-.338a29.6,29.6,0,0,1,10.742,1.721l7.536,2.8c.225.356.443.714.648,1.085a29.525,29.525,0,0,1-2.872,33.318c-.234.293-.471.57-.729.85-2.982.327-6.074.468-9.763.576C737.505,724.321,736.553,724.332,735.6,724.332Z"/>
          <path class="cls-21" d="M732.87,684.951h0a28.674,28.674,0,0,1,10.394,1.659l7.215,2.68c.149.241.3.5.454.775a28.521,28.521,0,0,1-2.779,32.169l-.016.02-.017.021c-.131.166-.268.331-.413.5-3.042.315-6.26.442-9.292.53-.926.02-1.871.031-2.816.031a144.668,144.668,0,0,1-24.491-2.369c-1.674-.288-3.244-.582-4.776-.9-.117-.172-.23-.344-.342-.521a28.553,28.553,0,0,1,.24-31.144l.016-.024.015-.024c.187-.3.4-.609.654-.945,4.564-1.561,9.343-1.888,15.064-1.888h.053l.053,0c1.182-.063,2.373-.147,3.585-.232,2.5-.172,4.854-.335,7.2-.335m0-2c-2.421,0-4.863.169-7.36.341-1.18.083-2.36.166-3.53.229-6.25,0-11.37.4-16.29,2.2a18.354,18.354,0,0,0-1.12,1.567,30.555,30.555,0,0,0-.26,33.343c.27.425.55.83.85,1.235q2.8.591,5.61,1.068a147.3,147.3,0,0,0,24.83,2.4c.96,0,1.92-.011,2.86-.032,3.56-.1,6.96-.249,10.21-.622.36-.374.7-.758,1.02-1.162a30.523,30.523,0,0,0,2.98-34.443c-.27-.488-.56-.955-.86-1.422l-7.85-2.916a31.01,31.01,0,0,0-11.09-1.784Z"/>
        </g>
        <path class="cls-22" d="M744.956,697.752c-.662.016-.681,1.129-.119,1.482a3.6,3.6,0,0,0,1.944.22c.8,0,1.6.212,2.4.219a2.386,2.386,0,0,0,2.1-.936,14.228,14.228,0,0,0-5.985,1.885c-.647.378-1.341.967-1.246,1.71a1.865,1.865,0,0,0,.7,1.072,8.739,8.739,0,0,0,5.351,2.221.716.716,0,0,0-.329-.99,1.966,1.966,0,0,0-1.164-.1,25.113,25.113,0,0,0-3.662.75c-.754.213-1.667.735-1.5,1.5a1.525,1.525,0,0,0,.574.776,13.277,13.277,0,0,0,4.284,2.446,1.441,1.441,0,0,0,1,.076c.317-.133.494-.605.233-.83a.767.767,0,0,0-.5-.128,24.057,24.057,0,0,0-5.164.47c-.94.19-2.084.709-2.031,1.666a2.121,2.121,0,0,0,.635,1.188c1.256,1.47,2.777,3.066,4.711,3.04.419-1.138-.908-2.148-2.082-2.454a9.166,9.166,0,0,0-3.552-.209,2.176,2.176,0,0,0-1.532.721,2.2,2.2,0,0,0-.276,1.4,6.372,6.372,0,0,0,1.1,3.487,3.608,3.608,0,0,0,3.193,1.533,7.609,7.609,0,0,0-6.911-4.785,2.061,2.061,0,0,0-1.583.518,2,2,0,0,0-.406,1.5,6.809,6.809,0,0,0,1.81,4.043,7.182,7.182,0,0,0-.695-3.451,3.742,3.742,0,0,0-1.6-1.974,3.266,3.266,0,0,0-4.211,4.6,22,22,0,0,0-1.943-4.511,1.316,1.316,0,0,0-.8-.675c-.685-.119-1.336.709-1.531.958a4.863,4.863,0,0,0-.705,3.764,3.429,3.429,0,0,0,.367-1.7c-.07-1.268-.923-2.876-2.341-3.066-1.515-.2-2.61,1.354-2.762,1.578a3.99,3.99,0,0,0-.58,2.9,5.1,5.1,0,0,0,.312-4.952,6.954,6.954,0,0,0-5.832,3.824,5.927,5.927,0,0,0,3.033-5.258,1.061,1.061,0,0,0-.128-.654,1.075,1.075,0,0,0-.559-.348,7.239,7.239,0,0,0-6.914,1.309,9.192,9.192,0,0,0,5.961-1.088c.49-.332.97-.872.824-1.446a1.583,1.583,0,0,0-.6-.772,13.3,13.3,0,0,0-4.233-2.346,3.484,3.484,0,0,0-3.455.848l3.9-.509c1.359-.177,2.967-.542,3.447-1.825a2.5,2.5,0,0,0-.377-2.228,5.988,5.988,0,0,0-1.74-1.554,8.745,8.745,0,0,0-5.1-1.719c-.321.017-.744.207-.653.514a.565.565,0,0,0,.332.3,10.773,10.773,0,0,0,3.359,1.225,3.651,3.651,0,0,0,3.27-1.078,1.14,1.14,0,0,0,.32-.836,1.413,1.413,0,0,0-.416-.718,38.54,38.54,0,0,0-4.322-4.143,1.046,1.046,0,0,0-.566-.291c-.215-.012-.452.174-.4.385.032.139.166.226.289.3q1.812,1.062,3.708,1.974a2.788,2.788,0,0,0,2.307.344,17.087,17.087,0,0,0,.838-3.681,5.523,5.523,0,0,0-.385-3.379,2.415,2.415,0,0,0-2.9-1.227,35.665,35.665,0,0,0,3.364,3.381,2.666,2.666,0,0,0,1.627.839c1.114.009,1.77-1.244,2.018-2.331a12.824,12.824,0,0,0,.314-2.507,2.44,2.44,0,0,0-.391-1.635.962.962,0,0,0-1.475-.07,4.261,4.261,0,0,0,1.918,2.541,3.814,3.814,0,0,0,3.489.245,3.12,3.12,0,0,0,1.809-2.909c-.042-.669-.762-1.44-1.263-.995-.284.252-.225.7-.125,1.071a11.646,11.646,0,0,0,1.062,2.6.966.966,0,0,0,.365.42.911.911,0,0,0,.929-.256,4.208,4.208,0,0,0,1.488-3.465,1.1,1.1,0,0,0-.955.475,1.985,1.985,0,0,0,.425,2.619,2.912,2.912,0,0,0,2.782.364,5.667,5.667,0,0,0,2.319-1.741,1.682,1.682,0,0,0,.467-.864.646.646,0,0,0-.508-.735.7.7,0,0,0-.312.062c-1.1.449-1.049,2.23-.094,2.944a3.48,3.48,0,0,0,3.411.091,4.041,4.041,0,0,0,2.575-2.926c-1.235-.264-2.077,1.19-2.492,2.383a1.5,1.5,0,0,0-.064,1.209,1.38,1.38,0,0,0,1.1.535,8.252,8.252,0,0,0,6.79-2.469,2.579,2.579,0,0,0-2.991,2.442c.006.446-.121.89.238,1.155a2.678,2.678,0,0,0,1.253.429,7.607,7.607,0,0,0,4.878-1.009c.38-.228.778-.557.786-1a5.236,5.236,0,0,0-4.909,1.643,1.892,1.892,0,0,0-.406.658,1.572,1.572,0,0,0,1.016,1.766,4.587,4.587,0,0,0,2.207.152l2.738-.261a2.11,2.11,0,0,0,.95-.244.724.724,0,0,0,.335-.846,6.558,6.558,0,0,0-5.583,2.378c-.134.167-.394.547-.259.787S744.856,697.759,744.956,697.752Z"/>
        <circle cx="728.758" cy="703.377" r="10.322"/>
        <circle class="cls-23" cx="720.637" cy="697.928" r="3.444"/>
        <path class="cls-12" d="M776.88,702.14a15.946,15.946,0,0,0-2.71-2.36c-.49-.37-.97-.73-1.4-1.1-1.52-1.3-3.17-2.71-4.95-3.99a30.227,30.227,0,0,0-3.64-2.3,65.048,65.048,0,0,0-8.55-3.54l-3.82-1.37-7.85-2.81c-6.16-2.21-12.13-1.81-18.45-1.39-1.18.08-2.36.16-3.53.22-6.25,0-11.37.39-16.29,2.12a29.254,29.254,0,0,0-3.26,1.36l-12.23,5.93c-.56.27-1.12.56-1.66.87-6.39,3.51-11.72,8.85-16.88,14.04-1.22,1.21-2.42,2.42-3.62,3.59l-.29.28.21.34a2.625,2.625,0,0,0,.423.568l-.317-.023c.21,0,.315,0,.317.023a1.666,1.666,0,0,1-.557.134c.563-.1,1.163-.159,1.742-.231s1.15-.2,1.73-.241a13.3,13.3,0,0,1,2.266.071,41.723,41.723,0,0,1,5.54,1.022c1.736.419,3.459.9,5.169,1.413.917.277,1.832.563,2.74.868a.536.536,0,0,1,.077.026c.72.24,1.44.48,2.18.72.98.31,1.98.62,2.98.91,4.24,1.23,8.56,2.29,12.91,3.16q2.8.57,5.61,1.03a152.761,152.761,0,0,0,24.83,2.31c.96,0,1.92-.01,2.86-.03,3.56-.1,6.96-.24,10.21-.6a39.084,39.084,0,0,0,14.09-3.84,34.433,34.433,0,0,0,13.75-13c.13-.23.26-.44.38-.62C777.65,704.47,778.15,703.65,776.88,702.14Zm-.84,3.03c-.12.19-.25.4-.39.64a33.333,33.333,0,0,1-15.31,13.472c-6.9,3.054-14.475,3.271-21.9,3.478a142.019,142.019,0,0,1-34.469-3.486c-5.631-1.241-11.187-2.79-16.666-4.586-5.082-1.665-10.248-3.338-15.655-3.338q-.615,0-1.23.03a2.084,2.084,0,0,0-1.24.34c1.07-1.08,2.11-2.12,3.18-3.2,4.9-4.92,9.95-9.98,15.87-13.43.78-.46,1.58-.88,2.4-1.28l12.23-5.93c.57-.27,1.14-.53,1.71-.75,5.25-2.17,10.65-2.63,17.44-2.63,1.2-.06,2.39-.14,3.57-.22,6.21-.41,12.07-.81,18.04,1.33l9.05,3.24,2.62.94a64.072,64.072,0,0,1,8.42,3.48,32.773,32.773,0,0,1,4.41,2.88c1.42,1.08,2.75,2.22,4,3.29.44.38.94.76,1.45,1.14a14.948,14.948,0,0,1,2.54,2.2C776.92,703.74,776.79,703.96,776.04,705.17Z"/>
      </g>
      <path class="cls-24" d="M666.457,712.762c-1.257-1.586,12.613-20.464,35.1-29.964a66.536,66.536,0,0,1,37.836-4.111c13.353,2.494,24.475,10.778,37.55,14.2,14.147,3.705,19.536,4.042,19.536,4.042s-6.347,2.32-10.817,3.56a63.314,63.314,0,0,0-8.045,2.84c-.774.347-7.3-4.54-8.155-5.037a98.424,98.424,0,0,0-12.252-6.236c-14.576-6.307-30.686-5.806-30.689-5.806-10.284.306-21.537,2.225-30.578,7.416C692.577,695.6,668.6,715.467,666.457,712.762Z"/>
      <path d="M672.755,714.5q-.056.825-.1,1.664a95.536,95.536,0,0,0,0,9.591s1.624-7.673,2.8-9.149,2.213-1.032,3.246-.147,2.508,5.372,2.656,7.334,0,5.06,0,9.339.065,5.017.065,5.017c.605-3.095,3.2-22.718,9.594-17.209,3.1,2.669,4.322,6.189,4.641,10.146.189,2.346.9,4.706.9,7.063,0,1.328,0-.148,1.623-4.132s3.984-9.59,3.984-9.59a26.957,26.957,0,0,1,.738,4.131c.148,1.918.59,7.525,0,11.214a32.914,32.914,0,0,0-.443,6.344l5.46-19.329c2.018-.466,3.22-1.408,4.309.273a17.256,17.256,0,0,1,1.366,3.469c1.52,4.312.7,8.925.374,13.374l2.951-6.935,1.515,9.148,1.436,3.837s0-17.854,1.181-20.215a8.7,8.7,0,0,1,2.508-3.246s1.918,7.673,2.508,10.329,2,8.853,2,8.853v3.1s1.841-17.411,2.726-19.476,3.4-1.771,3.4-1.771c.592.069,2.606,4.285,3.023,4.943,3.482,5.487,3.849,11.2,4.492,17.485l1.476-8.263,2.508-13.132,5.165-1.033.737,16.231,2.509-8.116,2.536-5.016,1,7.672,1.893,10.919s1.795-14.82,2.681-18.107a12.749,12.749,0,0,1,3.688-5.648c-2.022,1.711,7.6,11.439,8.263,12.836l1.181,2.509c-.986-2.1-1.4-4.569-2.205-6.746-1.592-4.3-1.268-8.548-1.189-13.026,5.256,3.083,9.4,7.062,13.867,11.216-1.763-1.644-2.006-6.674-2.538-8.875q-1.047-4.334-2.2-8.642c-.328-1.224-2.063-4.857-1.525-6.067.286-.759,12.9,3.25,12.9,3.25q-.885-.525-1.768-1.052-1.881-1.124-3.756-2.257c-1.145-.694-2.292-1.387-3.421-2.109-.426-.272-.873-.509-1.306-.769-.342-.206-.817-.678-1.253-.552-.176.051-.251.176-.459.4a3.61,3.61,0,0,1-.822.705,14.76,14.76,0,0,0-1.937,1.937,22.526,22.526,0,0,1-2.349,1.938c-11.332,8.46-18.918,11.834-18.918,11.835-11.058,4.919-22.84,3.38-35.422,1.737-1.2-.157-16.466-2.192-28-5.74a76.756,76.756,0,0,0-14.122-3.018C676.328,714.663,674.181,714.547,672.755,714.5Z"/>
      <path class="cls-25" d="M669.093,714.667a4.234,4.234,0,0,1,1.037-.2c.325-.034.649-.058.972-.075.647-.035,1.291-.05,1.935-.055,1.282.015,2.559.049,3.882.18,2.6.264,5.108.786,7.617,1.271,2.493.536,4.962,1.13,7.416,1.685l3.629.835c.6.136,1.159.243,1.75.35l1.845.318c4.957.782,9.893,1.751,14.836,2.491,2.466.389,4.919.833,7.35,1.163,1.208.164,2.428.325,3.575.418s2.461.174,3.681.258a117.372,117.372,0,0,0,14.61.429c.584-.021,1.149-.065,1.7-.116l.834-.1.942-.127c1.247-.168,2.456-.333,3.626-.534a40.408,40.408,0,0,0,6.748-1.734,47.191,47.191,0,0,0,6.463-3,52.012,52.012,0,0,0,6.133-3.93,150.254,150.254,0,0,0,11.661-9.518l.307.256a98.05,98.05,0,0,1-10.586,10.857,49.858,49.858,0,0,1-12.744,8.227,37,37,0,0,1-7.275,2.267c-1.243.261-2.491.476-3.735.688a36.49,36.49,0,0,1-3.78.508,111.78,111.78,0,0,1-15.183-.19,113.152,113.152,0,0,1-15.027-2.121q-7.443-1.431-14.829-3.119c-2.469-.52-4.92-1.244-7.323-2l-7.231-2.238c-2.414-.722-4.835-1.436-7.29-1.964-1.222-.261-2.471-.436-3.718-.6-.624-.081-1.248-.152-1.872-.2-.312-.026-.624-.045-.934-.055a4.909,4.909,0,0,0-.85.03Z"/>
      <path class="cls-12" d="M666.075,704.648a75.428,75.428,0,0,1,9.44-16.513,76.283,76.283,0,0,1,13.478-13.55,67.95,67.95,0,0,1,35.314-14.008,76.59,76.59,0,0,1,19.171.913l4.7.973c1.555.378,3.086.846,4.629,1.265,1.555.386,3.039.991,4.552,1.506l2.253.816,2.2.952a100.068,100.068,0,0,1,31.424,21.266,118.207,118.207,0,0,0-15.2-11.3c-1.356-.806-2.663-1.69-4.046-2.444l-4.151-2.253c-2.837-1.363-5.663-2.747-8.61-3.847a91.326,91.326,0,0,0-18.061-5.142,75.121,75.121,0,0,0-18.683-.718c-1.548.181-3.107.3-4.649.53l-4.593.9c-1.527.321-3,.841-4.51,1.25a45.264,45.264,0,0,0-4.432,1.511,73.482,73.482,0,0,0-16.387,9.049A78.263,78.263,0,0,0,666.075,704.648Z"/>
    </g>
    <g id="Layer_15" data-name="Layer 15">
      <g id="Layer_11" data-name="Layer 11">
        <path class="cls-18" d="M578.59,712.03a2.624,2.624,0,0,1-.42.57c0,.02.11.05.31.09-.49-.08-1-.13-1.5-.19-.58-.07-1.15-.2-1.73-.24a13.14,13.14,0,0,0-2.26.07,41.54,41.54,0,0,0-5.54,1.02c-1.74.42-3.46.9-5.17,1.42-.92.27-1.84.56-2.74.86a.689.689,0,0,0-.08.03c-.72.24-1.44.48-2.18.72-.98.31-1.98.62-2.98.91-4.24,1.23-8.56,2.29-12.91,3.16q-2.8.57-5.61,1.03a152.761,152.761,0,0,1-24.83,2.31c-.96,0-1.92-.01-2.86-.03-3.56-.1-6.96-.24-10.21-.6a39.084,39.084,0,0,1-14.09-3.84,34.433,34.433,0,0,1-13.75-13c-.13-.23-.26-.44-.38-.62-.76-1.23-1.26-2.05.01-3.56a15.946,15.946,0,0,1,2.71-2.36c.49-.37.97-.73,1.4-1.1,1.52-1.3,3.17-2.71,4.95-3.99a30.227,30.227,0,0,1,3.64-2.3,65.048,65.048,0,0,1,8.55-3.54l3.82-1.37,7.85-2.81c6.16-2.21,12.13-1.81,18.45-1.39,1.18.08,2.36.16,3.53.22,6.25,0,11.37.39,16.29,2.12a29.254,29.254,0,0,1,3.26,1.36l12.23,5.93c.56.27,1.12.56,1.66.87,6.39,3.51,11.72,8.85,16.88,14.04,1.22,1.21,2.42,2.42,3.62,3.59l.29.28Z"/>
        <path class="cls-19" d="M479.845,694.7v21.353s-10.153-8.9-10.06-11.407a29.276,29.276,0,0,1,.825-5.328Z"/>
        <path class="cls-19" d="M477.709,703.8a40.561,40.561,0,0,0,1.66,11.52c.15.55.32,1.08.5,1.62a34.989,34.989,0,0,0,3.92,2.38,39.084,39.084,0,0,0,14.09,3.84c3.25.36,6.65.5,10.21.6.94.02,1.9.03,2.86.03a152.761,152.761,0,0,0,24.83-2.31q2.805-.465,5.61-1.03c4.35-.87,8.67-1.93,12.91-3.16,1-.29,2-.6,2.98-.91.13-.39.25-.78.36-1.18a40.879,40.879,0,0,0,.68-20.11c-.09-.44-.19-.88-.31-1.31-.54-.31-1.1-.6-1.66-.87l-12.23-5.93a29.254,29.254,0,0,0-3.26-1.36c-4.92-1.73-10.04-2.12-16.29-2.12-1.17-.06-2.35-.14-3.53-.22-6.32-.42-12.29-.82-18.45,1.39l-7.85,2.81-3.82,1.37a65.048,65.048,0,0,0-8.55,3.54,30.227,30.227,0,0,0-3.64,2.3c-.11.48-.21.97-.3,1.46A41.078,41.078,0,0,0,477.709,703.8Z"/>
        <g>
          <path class="cls-26" d="M510.949,724.332c-.953,0-1.905-.011-2.839-.031-3.682-.108-6.773-.249-9.756-.576-.257-.279-.491-.552-.709-.829a29.524,29.524,0,0,1-2.9-33.328c.211-.38.43-.74.655-1.1l7.536-2.8a29.6,29.6,0,0,1,10.742-1.721c2.378,0,4.753.163,7.266.337,1.208.085,2.395.168,3.57.232,5.993,0,10.948.351,15.732,2.043.352.459.636.864.884,1.257a29.557,29.557,0,0,1,.267,32.269c-.192.3-.387.591-.591.876-1.659.346-3.364.668-5.2.984A145.678,145.678,0,0,1,510.949,724.332Z"/>
          <path class="cls-21" d="M513.68,684.951c2.343,0,4.7.163,7.219.336,1.191.084,2.382.168,3.564.231l.053,0h.053c5.721,0,10.5.327,15.064,1.888.251.336.467.648.654.945l.015.024.016.024a28.554,28.554,0,0,1,.232,31.157c-.107.17-.219.338-.334.508-1.532.314-3.1.608-4.773.9a144.729,144.729,0,0,1-24.494,2.369c-.945,0-1.89-.011-2.8-.031-3.045-.088-6.264-.215-9.306-.53-.145-.165-.282-.33-.413-.5l-.017-.021-.016-.02a28.522,28.522,0,0,1-2.766-32.193c.144-.26.294-.513.441-.751l7.217-2.681a28.68,28.68,0,0,1,10.393-1.658m0-2a31.012,31.012,0,0,0-11.091,1.784l-7.85,2.916c-.3.467-.59.934-.86,1.422a30.523,30.523,0,0,0,2.98,34.443c.32.4.66.788,1.02,1.162,3.25.373,6.65.519,10.21.622.94.021,1.9.032,2.86.032a147.3,147.3,0,0,0,24.83-2.4q2.805-.481,5.61-1.068c.3-.4.58-.81.85-1.235a30.555,30.555,0,0,0-.26-33.343,18.354,18.354,0,0,0-1.12-1.567c-4.92-1.8-10.04-2.2-16.29-2.2-1.17-.063-2.35-.146-3.53-.229-2.5-.172-4.939-.341-7.359-.341Z"/>
        </g>
        <path class="cls-22" d="M501.593,697.752c.662.016.681,1.129.119,1.482a3.6,3.6,0,0,1-1.944.22c-.8,0-1.6.212-2.4.219a2.386,2.386,0,0,1-2.105-.936,14.228,14.228,0,0,1,5.985,1.885c.647.378,1.341.967,1.246,1.71a1.865,1.865,0,0,1-.7,1.072,8.739,8.739,0,0,1-5.351,2.221.716.716,0,0,1,.329-.99,1.966,1.966,0,0,1,1.164-.1,25.113,25.113,0,0,1,3.662.75c.754.213,1.667.735,1.5,1.5a1.525,1.525,0,0,1-.574.776,13.277,13.277,0,0,1-4.284,2.446,1.441,1.441,0,0,1-1.005.076c-.317-.133-.494-.605-.233-.83a.767.767,0,0,1,.5-.128,24.057,24.057,0,0,1,5.164.47c.94.19,2.084.709,2.031,1.666a2.121,2.121,0,0,1-.635,1.188c-1.256,1.47-2.777,3.066-4.711,3.04-.419-1.138.908-2.148,2.082-2.454a9.166,9.166,0,0,1,3.552-.209,2.176,2.176,0,0,1,1.532.721,2.2,2.2,0,0,1,.276,1.4,6.372,6.372,0,0,1-1.1,3.487,3.608,3.608,0,0,1-3.193,1.533,7.609,7.609,0,0,1,6.911-4.785,2.061,2.061,0,0,1,1.583.518,2,2,0,0,1,.406,1.5,6.809,6.809,0,0,1-1.81,4.043,7.182,7.182,0,0,1,.7-3.451,3.742,3.742,0,0,1,1.6-1.974,3.266,3.266,0,0,1,4.211,4.6,22,22,0,0,1,1.943-4.511,1.316,1.316,0,0,1,.8-.675c.685-.119,1.336.709,1.531.958a4.863,4.863,0,0,1,.7,3.764,3.429,3.429,0,0,1-.367-1.7c.07-1.268.923-2.876,2.341-3.066,1.515-.2,2.61,1.354,2.762,1.578a3.99,3.99,0,0,1,.58,2.9,5.1,5.1,0,0,1-.312-4.952,6.954,6.954,0,0,1,5.832,3.824,5.927,5.927,0,0,1-3.033-5.258,1.061,1.061,0,0,1,.128-.654,1.075,1.075,0,0,1,.559-.348,7.239,7.239,0,0,1,6.914,1.309,9.192,9.192,0,0,1-5.961-1.088c-.49-.332-.97-.872-.824-1.446a1.583,1.583,0,0,1,.6-.772,13.3,13.3,0,0,1,4.233-2.346,3.484,3.484,0,0,1,3.455.848l-3.9-.509c-1.359-.177-2.967-.542-3.447-1.825a2.5,2.5,0,0,1,.377-2.228,5.988,5.988,0,0,1,1.74-1.554,8.745,8.745,0,0,1,5.1-1.719c.321.017.744.207.653.514a.565.565,0,0,1-.332.3,10.773,10.773,0,0,1-3.359,1.225,3.651,3.651,0,0,1-3.27-1.078,1.14,1.14,0,0,1-.32-.836,1.413,1.413,0,0,1,.416-.718,38.54,38.54,0,0,1,4.322-4.143,1.046,1.046,0,0,1,.566-.291c.215-.012.452.174.4.385-.032.139-.166.226-.289.3q-1.812,1.062-3.708,1.974a2.788,2.788,0,0,1-2.307.344,17.087,17.087,0,0,1-.838-3.681,5.523,5.523,0,0,1,.385-3.379,2.415,2.415,0,0,1,2.9-1.227,35.665,35.665,0,0,1-3.364,3.381,2.666,2.666,0,0,1-1.627.839c-1.114.009-1.77-1.244-2.018-2.331a12.824,12.824,0,0,1-.314-2.507,2.44,2.44,0,0,1,.391-1.635.962.962,0,0,1,1.475-.07,4.261,4.261,0,0,1-1.918,2.541,3.814,3.814,0,0,1-3.489.245,3.12,3.12,0,0,1-1.809-2.909c.042-.669.762-1.44,1.263-.995.284.252.225.7.125,1.071a11.646,11.646,0,0,1-1.062,2.6.966.966,0,0,1-.365.42.911.911,0,0,1-.929-.256,4.208,4.208,0,0,1-1.488-3.465,1.1,1.1,0,0,1,.955.475,1.985,1.985,0,0,1-.425,2.619,2.912,2.912,0,0,1-2.782.364,5.667,5.667,0,0,1-2.319-1.741,1.682,1.682,0,0,1-.467-.864.646.646,0,0,1,.508-.735.7.7,0,0,1,.312.062c1.1.449,1.049,2.23.094,2.944a3.48,3.48,0,0,1-3.411.091,4.041,4.041,0,0,1-2.575-2.926c1.235-.264,2.077,1.19,2.492,2.383a1.5,1.5,0,0,1,.064,1.209,1.38,1.38,0,0,1-1.1.535,8.252,8.252,0,0,1-6.79-2.469,2.579,2.579,0,0,1,2.991,2.442c-.006.446.121.89-.238,1.155a2.678,2.678,0,0,1-1.253.429,7.607,7.607,0,0,1-4.878-1.009c-.38-.228-.778-.557-.786-1a5.233,5.233,0,0,1,4.908,1.643,1.88,1.88,0,0,1,.407.658,1.572,1.572,0,0,1-1.016,1.766,4.587,4.587,0,0,1-2.207.152l-2.738-.261a2.11,2.11,0,0,1-.95-.244.724.724,0,0,1-.335-.846,6.558,6.558,0,0,1,5.583,2.378c.134.167.394.547.259.787S501.693,697.759,501.593,697.752Z"/>
        <circle cx="517.791" cy="703.377" r="10.322"/>
        <circle class="cls-23" cx="508.912" cy="697.928" r="3.444"/>
        <path class="cls-12" d="M469.659,705.7c.12.18.25.39.38.62a34.433,34.433,0,0,0,13.75,13,39.084,39.084,0,0,0,14.09,3.84c3.25.36,6.65.5,10.21.6.94.02,1.9.03,2.86.03a152.761,152.761,0,0,0,24.83-2.31q2.805-.465,5.61-1.03c4.35-.87,8.67-1.93,12.91-3.16,1-.29,2-.6,2.98-.91.74-.24,1.46-.48,2.18-.72a.536.536,0,0,1,.077-.026c.908-.305,1.823-.591,2.74-.868,1.71-.516,3.433-.994,5.169-1.413a41.723,41.723,0,0,1,5.54-1.022,13.3,13.3,0,0,1,2.266-.071c.58.039,1.154.17,1.73.241s1.179.134,1.742.231a1.666,1.666,0,0,1-.557-.134c0-.019.107-.026.317-.023l-.317.023a2.625,2.625,0,0,0,.423-.568l.21-.34-.29-.28c-1.2-1.17-2.4-2.38-3.62-3.59-5.16-5.19-10.49-10.53-16.88-14.04-.54-.31-1.1-.6-1.66-.87l-12.23-5.93a29.254,29.254,0,0,0-3.26-1.36c-4.92-1.73-10.04-2.12-16.29-2.12-1.17-.06-2.35-.14-3.53-.22-6.32-.42-12.29-.82-18.45,1.39l-7.85,2.81-3.82,1.37a65.048,65.048,0,0,0-8.55,3.54,30.227,30.227,0,0,0-3.64,2.3c-1.78,1.28-3.43,2.69-4.95,3.99-.43.37-.91.73-1.4,1.1a15.946,15.946,0,0,0-2.71,2.36C468.4,703.65,468.9,704.47,469.659,705.7Zm.78-2.92a14.948,14.948,0,0,1,2.54-2.2c.51-.38,1.01-.76,1.45-1.14,1.25-1.07,2.58-2.21,4-3.29a32.773,32.773,0,0,1,4.41-2.88,64.072,64.072,0,0,1,8.42-3.48l2.62-.94,9.05-3.24c5.97-2.14,11.83-1.74,18.04-1.33,1.18.08,2.37.16,3.57.22,6.79,0,12.19.46,17.44,2.63.57.22,1.14.48,1.71.75l12.23,5.93c.82.4,1.62.82,2.4,1.28,5.92,3.45,10.97,8.51,15.87,13.43,1.07,1.08,2.11,2.12,3.18,3.2a2.084,2.084,0,0,0-1.24-.34q-.615-.03-1.23-.03c-5.407,0-10.573,1.673-15.655,3.338-5.479,1.8-11.035,3.345-16.666,4.586a142.019,142.019,0,0,1-34.469,3.486c-7.425-.207-15-.424-21.9-3.478A33.333,33.333,0,0,1,470.9,705.81c-.14-.24-.27-.45-.39-.64C469.759,703.96,469.629,703.74,470.439,702.78Z"/>
      </g>
      <path class="cls-24" d="M580.092,712.762c1.257-1.586-12.613-20.464-35.1-29.964a66.536,66.536,0,0,0-37.836-4.111c-13.353,2.494-24.475,10.778-37.55,14.2-14.147,3.705-19.536,4.042-19.536,4.042s6.347,2.32,10.817,3.56a63.314,63.314,0,0,1,8.045,2.84c.774.347,7.3-4.54,8.155-5.037a98.424,98.424,0,0,1,12.252-6.236c14.576-6.307,30.686-5.806,30.689-5.806,10.284.306,21.537,2.225,30.578,7.416C553.972,695.6,577.951,715.467,580.092,712.762Z"/>
      <path d="M573.794,714.5q.056.825.1,1.664a95.536,95.536,0,0,1,0,9.591s-1.624-7.673-2.8-9.149-2.213-1.032-3.246-.147-2.508,5.372-2.656,7.334,0,5.06,0,9.339-.065,5.017-.065,5.017c-.6-3.095-3.2-22.718-9.594-17.209-3.1,2.669-4.322,6.189-4.641,10.146-.189,2.346-.9,4.706-.9,7.063,0,1.328,0-.148-1.623-4.132s-3.984-9.59-3.984-9.59a26.957,26.957,0,0,0-.738,4.131c-.148,1.918-.59,7.525,0,11.214a32.914,32.914,0,0,1,.443,6.344l-5.46-19.329c-2.018-.466-3.22-1.408-4.309.273a17.256,17.256,0,0,0-1.366,3.469c-1.52,4.312-.7,8.925-.374,13.374l-2.951-6.935-1.515,9.148-1.436,3.837s0-17.854-1.181-20.215a8.7,8.7,0,0,0-2.508-3.246s-1.918,7.673-2.508,10.329-2,8.853-2,8.853v3.1s-1.841-17.411-2.726-19.476-3.4-1.771-3.4-1.771c-.592.069-2.606,4.285-3.023,4.943-3.482,5.487-3.849,11.2-4.492,17.485l-1.476-8.263-2.508-13.132-5.165-1.033-.737,16.231-2.509-8.116-2.536-5.016-1,7.672-1.893,10.919s-1.8-14.82-2.681-18.107a12.749,12.749,0,0,0-3.688-5.648c2.022,1.711-7.605,11.439-8.263,12.836L471.2,740.8c.986-2.1,1.4-4.569,2.205-6.746,1.592-4.3,1.268-8.548,1.189-13.026-5.256,3.083-9.4,7.062-13.867,11.216,1.763-1.644,2.006-6.674,2.538-8.875q1.047-4.334,2.2-8.642c.328-1.224,2.063-4.857,1.525-6.067-.286-.759-12.9,3.25-12.9,3.25q.885-.525,1.768-1.052,1.881-1.124,3.756-2.257c1.145-.694,2.292-1.387,3.421-2.109.426-.272.873-.509,1.306-.769.342-.206.817-.678,1.253-.552.176.051.251.176.459.4a3.61,3.61,0,0,0,.822.705,14.76,14.76,0,0,1,1.937,1.937,22.526,22.526,0,0,0,2.349,1.938c11.332,8.46,18.918,11.834,18.918,11.835,11.058,4.919,22.84,3.38,35.422,1.737,1.2-.157,16.466-2.192,28-5.74a76.756,76.756,0,0,1,14.122-3.018C570.221,714.663,572.368,714.547,573.794,714.5Z"/>
      <path class="cls-25" d="M577.282,715.027a4.909,4.909,0,0,0-.85-.03c-.31.01-.622.029-.934.055-.624.051-1.248.122-1.872.2-1.248.164-2.5.339-3.719.6-2.454.528-4.875,1.242-7.289,1.964l-7.231,2.239c-2.4.75-4.854,1.474-7.324,2-4.926,1.115-9.866,2.165-14.829,3.118a113.612,113.612,0,0,1-15.026,2.122,111.3,111.3,0,0,1-15.183.191,36.49,36.49,0,0,1-3.78-.508c-1.244-.212-2.493-.427-3.735-.688a36.916,36.916,0,0,1-7.275-2.268,49.814,49.814,0,0,1-12.744-8.227,98.05,98.05,0,0,1-10.586-10.857l.307-.256c3.786,3.378,7.661,6.6,11.667,9.511a51.5,51.5,0,0,0,6.133,3.928,46.644,46.644,0,0,0,6.461,3,40.8,40.8,0,0,0,6.745,1.736c1.171.2,2.379.365,3.627.533l.942.127.833.094c.553.051,1.118.095,1.7.115a116.57,116.57,0,0,0,14.61-.419c1.22-.076,2.526-.15,3.682-.254s2.366-.254,3.575-.419c2.431-.326,4.883-.78,7.351-1.156,4.942-.746,9.879-1.706,14.836-2.491l1.845-.319c.591-.107,1.146-.215,1.75-.35l3.63-.834c2.454-.555,4.922-1.153,7.416-1.686,2.508-.487,5.013-1.011,7.615-1.275,1.322-.131,2.6-.167,3.881-.182.644,0,1.288.019,1.935.054.323.017.647.04.972.073a4.282,4.282,0,0,1,1.037.2Z"/>
      <path class="cls-12" d="M580.474,704.648a78.263,78.263,0,0,0-23.839-28.84,73.482,73.482,0,0,0-16.387-9.049,45.264,45.264,0,0,0-4.432-1.511c-1.506-.409-2.983-.929-4.51-1.25l-4.593-.9c-1.542-.226-3.1-.349-4.649-.53a75.121,75.121,0,0,0-18.683.718,91.326,91.326,0,0,0-18.061,5.142c-2.947,1.1-5.773,2.484-8.61,3.847l-4.151,2.253c-1.383.754-2.69,1.638-4.046,2.444a118.207,118.207,0,0,0-15.2,11.3A100.068,100.068,0,0,1,484.736,667l2.2-.952,2.253-.816c1.513-.515,3-1.12,4.552-1.506,1.543-.419,3.074-.887,4.629-1.265l4.7-.973a76.59,76.59,0,0,1,19.171-.913,67.95,67.95,0,0,1,35.314,14.008,76.283,76.283,0,0,1,13.478,13.55A75.428,75.428,0,0,1,580.474,704.648Z"/>
    </g>
    <g id="Layer_21" data-name="Layer 21">
      <path class="cls-7" d="M569.24,638.388l-.144.222c-4.278,6.768-9.017,11.545-17.3,8.266-8.718-3.452-17.885-6.628-27.287-7.4-17.054-1.408-35.486-4.457-52.042,1.294-18.228,6.332-30.669,10.51-30.669,10.51s8.294-11.781,17.971-16.619c5.516-2.758,9.445-5.215,14.707-6.734,5.848-1.687,10.537-1.612,15.429-1.56,15.575.167,26.37.936,40.582,1.7,12.963.7,25.781,1.825,38.777,1.67C575.364,629.664,570.877,635.918,569.24,638.388Z"/>
      <path class="cls-7" d="M688.932,638.388l.144.222c4.279,6.768,9.017,11.545,17.3,8.266,8.718-3.452,17.886-6.628,27.287-7.4,17.054-1.408,35.486-4.457,52.042,1.294,18.228,6.332,30.669,10.51,30.669,10.51s-8.294-11.781-17.97-16.619c-5.517-2.758-9.446-5.215-14.708-6.734-5.848-1.687-10.536-1.612-15.429-1.56-15.575.167-26.37.936-40.581,1.7-12.964.7-25.782,1.825-38.778,1.67C682.809,629.664,687.3,635.918,688.932,638.388Z"/>
    </g>
    <g id="Layer_28" data-name="Layer 28">
      <path class="cls-27" d="M804.15,649.44c16.817,52.607,10.807,87.388,1.826,109.688-11.39,28.282-33.092,50.229-32.444,89.785.229,13.975,2.559,25.415,5.13,32.561,15.921,44.243,36.559,67.666,36.559,67.666s-2.491-4.962-5.377-11.612a222.076,222.076,0,0,1-7.754-21.736c-8.327-28.831-3.163-69.961-3.163-69.961,4.1-32.639,10.434-43.263,23.183-92.881,6.032-23.478,10.159-42.68,12.6-54.65Z"/>
      <path class="cls-7" d="M802.15,646.44c16.817,52.607,10.807,87.388,1.826,109.688-11.39,28.282-33.092,50.229-32.444,89.785.229,13.975,2.559,25.415,5.13,32.561,15.921,44.243,36.559,67.666,36.559,67.666s-2.491-4.962-5.377-11.612a222.076,222.076,0,0,1-7.754-21.736c-8.327-28.831-3.163-69.961-3.163-69.961,4.1-32.639,10.434-43.263,23.183-92.881,6.032-23.478,10.159-42.68,12.6-54.65Z"/>
    </g>
    <g id="Layer_2" data-name="Layer 2">
      <path class="cls-7" d="M393.82,474.432c-30.252-49.586-37.865-96.323-39.406-154-2.089-78.173,31.211-141.909,97.539-183.932,93.765-59.407,214.893-72.3,318.411-32.255,104.268,40.333,162.567,152.9,158.362,261.68-1.52,39.322-11.782,76.037-27.755,111.782-5.045,11.291-24.98,66.747-39.565,65.624C746.038,387.474,668.421,364.464,618.842,372.3,524.405,387.225,442.336,528.189,412.39,508.792,410.658,507.67,406.744,495.616,393.82,474.432Z"/>
    </g>
    <g id="Layer_3" data-name="Layer 3">
      <path class="cls-7" d="M591.368,391.043c-6.052,17.321-8.139,17.165-10.4,28.465-1.781,8.908-7.008,35.045,6.728,57.491,5.481,8.956,15.889,12.428,23.842,18.944,12.252,10.037,21.15,23.279,28.895,36.936a273.877,273.877,0,0,1,15.146,30.337c4.48,10.835,5.974,22.045,9.711,33.036,4.829,14.2,19.591,21.556,32.564,26.718,8.136,3.238,16.513,6.132,24.063,10.642,9.946,5.94,17.921,15.194,24.956,24.236a139.483,139.483,0,0,1,9.235,13.414c2.746,4.537,4.566,10.129,7.594,14.4,1.02,1.439,23.912,23.284,26.059,21.2.63-.61-6.788-9.733-7.334-10.636-4.455-7.36-6.015-14.41-2.989-22.646,4.444-12.1,11.413-23.931,12.78-36.965,1.243-11.856-2.71-21.147-4.038-24.61-10.456-27.266,1.361-71.442-11.555-125.2-12.017-50.01-15.26-77.807-28.26-87.919-28.26-21.98-69.079-53.379-91.059-58.089-27.043-5.795-35.893-21.06-45.53-17.27C599.421,328.394,606.076,348.951,591.368,391.043Z"/>
      <path class="cls-7" d="M605.5,315.684s23.55,32.97,53.38,47.1c59.108,28,69.821,34.565,89.489,61.23,12.2,16.541,16.644,48.009,25.53,110.944,8.221,58.221,3.721,63.135,13.72,88.543,7.877,20.019,17.883,35.3,25.631,66.334a257.775,257.775,0,0,1,6.58,38.721,260.049,260.049,0,0,0,41.579-51.224C883.888,641,892.422,609.1,899.662,572.124c4.7-24,10.293-48.59,8.28-73.21-2.327-28.464-18.39-46.2-36.067-67.168-15.926-18.885-33.372-38.394-54.429-51.693-29.829-18.84-47.1-50.239-105.189-56.519S605.5,315.684,605.5,315.684Z"/>
      <path class="cls-7" d="M610.835,332.077s8.257,126.537-5.337,181.336-17.579,78.712-36.51,90.669S475.331,629.987,456.4,652.9s-30.887,55.8-30.887,70.741V738.59s-14.945-49.818-29.89-65.76S357.761,586.147,357.761,545.3s5.978-62.771,12.953-80.705,16.938-34.872,38.858-49.818,58.785-30.887,86.683-42.843,68.748-37.861,81.7-39.854S610.835,332.077,610.835,332.077Z"/>
    </g>
    <g id="Layer_7" data-name="Layer 7">
      <g id="FEMME_FATALE" data-name="FEMME FATALE">
        <path class="cls-4" d="M25.9,536.626v-128h48v6.2H32.7v54.6H73.9v6.4H32.7v60.8Z"/>
        <path class="cls-4" d="M107.7,536.626v-128h48v6.2H114.5v54.6h41.2v6.4H114.5v54.6h41.2v6.2Z"/>
        <path class="cls-4" d="M276.3,536.827v-114l-41.6,41.4-41.6-41.4v114h-6v-128.6l47.6,47.6,47.6-47.6v128.6Z"/>
        <polygon class="cls-4" points="368.499 455.828 320.899 408.229 320.899 536.827 326.899 536.827 326.899 422.828 368.499 464.228 373.105 459.643 378.655 445.672 368.499 455.828"/>
        <polygon class="cls-28" points="378.655 445.672 373.105 459.643 410.098 422.828 410.098 536.827 416.098 536.827 416.098 408.229 378.655 445.672"/>
        <path class="cls-28" d="M457.1,536.626v-128h48v6.2H463.9v54.6h41.2v6.4H463.9v54.6h41.2v6.2Z"/>
        <path class="cls-28" d="M633.7,536.626v-128h48v6.2H640.5v54.6h41.2v6.4H640.5v60.8Z"/>
        <path class="cls-28" d="M832.3,538.426l-37-62.6H729.9l-37,62.6-5.4-3,75-126.8,75,126.8Zm-69.6-118-29,49h57.8Z"/>
        <path class="cls-28" d="M875.3,536.626v-121.8H838.5v-6.2h80v6.2H881.7v121.8Z"/>
        <path class="cls-4" d="M1065.5,538.426l-37-62.6H963.1l-37,62.6-5.4-3,75-126.8,75,126.8Zm-69.6-118-29,49h57.8Z"/>
        <path class="cls-4" d="M1095.5,536.626v-128h6.8v121.8h41.2v6.2Z"/>
        <path class="cls-4" d="M1177.3,536.626v-128h48v6.2h-41.2v54.6h41.2v6.4h-41.2v54.6h41.2v6.2Z"/>
      </g>
      <g id="kinda_60s" data-name="kinda &apos;60s">
        <path class="cls-29" d="M30.653,231.244q0-8.118-2.32-12.412t-8.584-8a5.851,5.851,0,0,1-1.972-1.508,2.892,2.892,0,0,1-.348-1.508v-2.784q0-2.316,2.784-2.32H80.3q4.4,0,6.148,1.74t1.74,5.684v62.64a43.507,43.507,0,0,1,16.82-17.632,47.387,47.387,0,0,1,24.244-6.264q17.862,0,29.348,10.092a32.384,32.384,0,0,1,11.484,25.4q0,13-8.816,21.112t-22.736,8.12q-19.026,0-26.912-14.848-3.948,0-3.944,4.176t3.944,8.12a32.021,32.021,0,0,0,10.9,6.728,38.991,38.991,0,0,0,14.616,2.784q19.95,0,32.712-13.688a13.239,13.239,0,0,1,1.972-1.74,3.44,3.44,0,0,1,1.74-.348h2.784a2.233,2.233,0,0,1,2.2,1.16,13.029,13.029,0,0,1,.58,4.872q0,28.77-11.136,45.124T137.373,372.3q-19.956,0-31.088-14.964T95.149,315.692q0-23.43,9.28-37.7t24.824-14.268a4.322,4.322,0,0,0,.928-2.784,2.707,2.707,0,0,0-1.276-2.436,5.737,5.737,0,0,0-3.132-.812,28.126,28.126,0,0,0-19.256,7.424q-8.352,7.428-13.34,21.46a89.757,89.757,0,0,0-4.988,30.276v45.24q0,3.948-1.856,5.684t-6.032,1.74H38.541q-7.89,0-7.888-7.424Z"/>
        <path class="cls-29" d="M240.844,251.66q4.4,0,6.148,1.74t1.74,5.684v75.4q0,3.948.7,5.336a2.4,2.4,0,0,0,2.32,1.392,2.957,2.957,0,0,0,2.9-1.624q.81-1.62,1.74-7.424a17.567,17.567,0,0,1,.928-4.756,1.953,1.953,0,0,1,1.856-.812h3.944a2.06,2.06,0,0,1,1.972,1.624,18.613,18.613,0,0,1,.58,5.568q0,18.564-9.976,28.536T227.156,372.3q-17.868,0-27.492-10.092t-9.628-28.884V280.2q0-8.118-2.32-12.412t-8.584-8a5.851,5.851,0,0,1-1.972-1.508,2.892,2.892,0,0,1-.348-1.508V253.98q0-2.316,2.784-2.32Zm-53.36-32.48a20.028,20.028,0,0,1,8.12-16.7q8.118-6.264,21.808-6.264t21.924,6.264a19.943,19.943,0,0,1,8.236,16.7,19.718,19.718,0,0,1-8.236,16.472q-8.238,6.264-21.924,6.264T195.6,235.768A19.714,19.714,0,0,1,187.484,219.18Z"/>
        <path class="cls-29" d="M302.321,251.66q11.364,0,18.212,4.06t9.4,12.644a36.341,36.341,0,0,1,14.5-14.5,42.731,42.731,0,0,1,20.764-4.988q16.706,0,25.52,9.976t8.816,28.3v74.936q0,3.948-1.739,5.684t-6.148,1.74H349.881q-4.41,0-6.148-1.74t-1.74-5.684V282.284a7.032,7.032,0,0,0-1.16-4.176,3.77,3.77,0,0,0-3.248-1.624,4.282,4.282,0,0,0-3.943,1.856v83.752q0,3.948-1.741,5.684t-6.148,1.74h-41.76q-4.409,0-6.148-1.74t-1.74-5.684V280.2q0-8.118-2.32-12.412t-8.584-8a5.851,5.851,0,0,1-1.972-1.508,2.9,2.9,0,0,1-.348-1.508V253.98q0-2.316,2.785-2.32Z"/>
        <path class="cls-29" d="M483.745,231.244q0-8.118-2.32-12.412t-8.584-8a5.807,5.807,0,0,1-1.972-1.508,2.892,2.892,0,0,1-.348-1.508v-2.784q0-2.316,2.784-2.32h60.088q4.406,0,6.148,1.74t1.74,5.684V334.484q0,3.948.7,5.336a2.4,2.4,0,0,0,2.32,1.392,3.136,3.136,0,0,0,3.016-1.856,26.17,26.17,0,0,0,1.624-7.192,17.567,17.567,0,0,1,.928-4.756,1.953,1.953,0,0,1,1.856-.812h3.944a2.06,2.06,0,0,1,1.972,1.624,17.535,17.535,0,0,1,.58,5.336q0,18.564-9.628,28.652T521.1,372.3q-23.2,0-33.408-19.256Q477.477,372.3,456.137,372.3q-20.418,0-31.9-16.588T412.753,309.66q0-28.764,11.6-44.776t32.48-16.008q17.166,0,26.912,9.744Zm-8.352,107.88q0,5.568,4.408,5.568a4.634,4.634,0,0,0,3.944-1.856V271.148a4.645,4.645,0,0,0-3.944-1.856q-4.41,0-4.408,5.568Z"/>
        <path class="cls-29" d="M667.483,372.3q-23.436,0-33.408-19.256-5.339,9.978-13.108,14.616t-19.139,4.64q-16.01,0-25.753-7.888t-9.743-20.88q0-11.364,8-17.98t24.708-8.932q42.684-5.568,42.688-32.248a25.813,25.813,0,0,0-7.423-18.444,23.584,23.584,0,0,0-17.633-7.772q-4.872,0-4.872,3.248a4.467,4.467,0,0,0,.7,2.32q9.744,0,16.007,5.8a19.333,19.333,0,0,1,6.264,14.848q0,10.674-8.932,17.632t-22.852,6.96q-14.152,0-22.5-7.076t-8.352-18.676q0-15.54,15.08-24.94t39.9-9.4q29.694,0,45.124,14.384t15.428,42.224v29q0,3.948.7,5.336a2.4,2.4,0,0,0,2.321,1.392,3.135,3.135,0,0,0,3.015-1.856,26.17,26.17,0,0,0,1.624-7.192,17.567,17.567,0,0,1,.928-4.756,1.954,1.954,0,0,1,1.856-.812h3.944a2.059,2.059,0,0,1,1.972,1.624,17.528,17.528,0,0,1,.581,5.336q0,18.564-9.628,28.652T667.483,372.3Zm-37.352-50.112a4.415,4.415,0,0,0-3.712-1.856q-3.946,0-3.943,4.64V339.82q0,4.644,3.943,4.64a4.4,4.4,0,0,0,3.712-1.856Z"/>
        <path class="cls-29" d="M796.471,251.2a5.672,5.672,0,0,0-1.393-4.176,20.8,20.8,0,0,1-14.848,6.264,18.574,18.574,0,0,1-14.036-5.684q-5.452-5.682-5.452-14.732,0-9.744,6.612-15.66t17.516-5.916q11.364,0,18.1,7.076t6.728,18.908a44.392,44.392,0,0,1-1.971,14.152,33.445,33.445,0,0,1-6.613,11.136q-3.946,4.41-11.715,8t-13.8,3.6a2.264,2.264,0,0,1-2.319-2.088l-.233-.928c-.155-.616-.271-1.16-.348-1.624a6.965,6.965,0,0,1-.116-1.16q0-2.088,3.248-2.784,9.277-2.088,14.964-6.032T796.471,251.2Z"/>
        <path class="cls-29" d="M870.245,253.98a46.3,46.3,0,0,0,4.176,18.444,42.637,42.637,0,0,0,10.439,15.2,125.382,125.382,0,0,1,16.241-1.16q25.056,0,38.164,10.092T952.373,325.9q0,14.616-7.54,25.172t-21.924,16.472q-14.388,5.916-32.944,5.916-34.338,0-52.432-20.648t-18.1-59.624q0-23.892,8.816-42.572a66.662,66.662,0,0,1,25.519-29q16.705-10.32,40.369-10.324a70.627,70.627,0,0,1,26.679,4.872,47.808,47.808,0,0,1,19.489,13.92,30.743,30.743,0,0,1,7.423,19.952q0,14.154-10.091,22.968t-26.564,8.816q-15.312,0-24.244-7.54T877.9,253.516q0-10.9,7.309-17.4t20.067-6.5h1.393a4.447,4.447,0,0,0,1.392-3.248q0-3.48-5.8-3.48-13.921,0-22.968,8.7T870.245,253.98Zm17.863,107.648q4.178,0,4.177-6.264v-49.88q0-6.264-4.177-6.264t-4.175,6.264v49.88Q883.933,361.628,888.108,361.628Z"/>
        <path class="cls-29" d="M1028,373.46q-31.32,0-49.416-21.692t-18.1-59.276q0-39.438,17.283-60.32T1028,211.292q32.94,0,50.227,20.88t17.285,60.32q0,37.584-18.1,59.276T1028,373.46Zm0-11.832q4.176,0,4.176-6.264V229.388q0-6.264-4.176-6.264t-4.176,6.264V355.364Q1023.827,361.628,1028,361.628Z"/>
        <path class="cls-29" d="M1159.081,342.836a13.5,13.5,0,0,1-4.176,10.092q-4.176,4.062-11.368,4.524a4.707,4.707,0,0,0-.928,2.552q0,3.018,4.176,3.016,7.422,0,13.341-6.38a21.021,21.021,0,0,0,5.915-14.732q0-9.51-6.495-14.964t-22.505-9.164q-30.4-6.96-30.392-29.7,0-18.1,17.516-28.652t47.444-10.556q24.59,0,38.281,7.54t13.687,21a17.521,17.521,0,0,1-7.191,14.732q-7.194,5.454-19.952,5.452-12.53,0-20.416-5.336t-7.888-13.92a13.506,13.506,0,0,1,4.176-10.092q4.176-4.056,11.368-4.524a4.721,4.721,0,0,0,.928-2.552q0-3.012-4.176-3.016-7.428,0-13.34,6.38a21.024,21.024,0,0,0-5.916,14.732q0,9.516,7.075,15.08t23.549,9.048q19.486,3.948,27.84,11.02t8.351,20.068q0,18.33-16.355,28.072t-46.981,9.744q-27.838,0-44.427-7.888t-16.588-20.88a17.128,17.128,0,0,1,7.307-14.616q7.308-5.334,19.836-5.336t20.416,5.336Q1159.079,334.256,1159.081,342.836Z"/>
      </g>
      <g id="MANIC_PIXIE" data-name="MANIC PIXIE">
        <path class="cls-4" d="M129.031,171.465V47.2L83.686,92.33,38.342,47.2V171.465H31.8V31.29L83.686,83.174,135.571,31.29V171.465Z"/>
        <path class="cls-4" d="M313.239,173.209l-40.331-68.234H201.622l-40.331,68.234-5.886-3.27L237.156,31.726l81.751,138.213ZM237.374,44.588,205.764,98h63Z"/>
        <polygon class="cls-4" points="338.524 68.786 338.524 171.247 345.064 171.247 345.064 84.482 420.71 160.128 425.767 156.028 338.524 68.786"/>
        <polygon class="cls-28" points="431.829 151.113 431.829 162.091 425.767 156.028 420.71 160.128 431.829 171.247 438.37 171.247 438.37 145.81 431.829 151.113"/>
        <polygon class="cls-4" points="438.37 18.646 431.829 18.646 431.829 151.113 438.37 145.81 438.37 18.646"/>
        <polygon class="cls-4" points="495.265 31.726 487.853 31.726 487.853 116.658 495.265 113.201 495.265 31.726"/>
        <polygon class="cls-28" points="487.853 116.658 487.853 171.247 495.265 171.247 495.265 113.201 487.853 116.658"/>
        <path class="cls-28" d="M532.541,101.486c0,42.293,34.88,76.3,76.954,76.3a78.03,78.03,0,0,0,29-5.668l-3.707-5.886a71.354,71.354,0,0,1-25.288,4.8c-38.15,0-69.978-31.175-69.978-69.543,0-1.642.078-3.265.19-4.879l-7.1,2.221C532.578,99.712,532.541,100.594,532.541,101.486Z"/>
        <path class="cls-4" d="M609.5,31.943A70.078,70.078,0,0,1,656.8,50.474l5.014-5.014a77.65,77.65,0,0,0-52.1-20.274c-41.4,0-75.683,32.393-77.1,73.642l7.1-2.221C542.241,60.326,572.76,31.943,609.5,31.943Z"/>
        <polygon class="cls-28" points="786.291 171.247 793.486 171.247 793.486 114.785 786.291 111.16 786.291 171.247"/>
        <path class="cls-4" d="M827.494,25.186a43.567,43.567,0,0,0-34.008,17.222V31.943h-7.195V111.16l7.195,3.625V61.374c0-16.568,18.53-29.431,34.008-29.431,18.313,0,34.227,14.389,34.227,33.137,0,17.44-13.735,31.174-30.739,32.918v6.977c20.928-1.745,37.932-18.749,37.932-39.895C868.914,42.408,849.73,25.186,827.494,25.186Z"/>
        <path class="cls-4" d="M905.973,171.247V31.726h7.412V171.247Z"/>
        <path class="cls-4" d="M1023.037,120.453l-39.676,67.8-5.886-3.27,40.331-69.543L953.277,51.564l4.578-4.8,63.657,62.784,47.742-81.969,6.1,3.271-48.833,83.712,50.578,49.923-4.579,4.8Z"/>
        <path class="cls-4" d="M1117.865,171.247V31.726h7.412V171.247Z"/>
        <path class="cls-4" d="M1171.273,171.247V31.726h52.321v6.758h-44.908V98h44.908v6.977h-44.908v59.514h44.908v6.758Z"/>
      </g>
    </g>
  </g>
</svg>
