<svg xmlns="http://www.w3.org/2000/svg" xmlns:xlink="http://www.w3.org/1999/xlink" viewBox="0 0 1247 1247">
  <defs>
    <style>
      .cls-1, .cls-10, .cls-11, .cls-13, .cls-14, .cls-15, .cls-16, .cls-17, .cls-18, .cls-19, .cls-20, .cls-26, .cls-29, .cls-30, .cls-33, .cls-37, .cls-38, .cls-39, .cls-40, .cls-41, .cls-43, .cls-44, .cls-45, .cls-7 {
        fill: none;
      }

      .cls-2 {
        fill: #ccc;
        stroke: #ccc;
      }

      .cls-14, .cls-15, .cls-16, .cls-17, .cls-18, .cls-19, .cls-2, .cls-20, .cls-21, .cls-22, .cls-33, .cls-37, .cls-38, .cls-39, .cls-41, .cls-44, .cls-45 {
        stroke-linecap: round;
      }

      .cls-18, .cls-2, .cls-21, .cls-22 {
        stroke-linejoin: round;
      }

      .cls-3 {
        fill: #84c6b9;
      }

      .cls-4 {
        fill: #32a08b;
      }

      .cls-5 {
        fill: #042a37;
      }

      .cls-6 {
        fill: #212223;
      }

      .cls-7 {
        stroke: #111112;
      }

      .cls-10, .cls-11, .cls-13, .cls-14, .cls-15, .cls-16, .cls-17, .cls-19, .cls-20, .cls-26, .cls-29, .cls-30, .cls-33, .cls-37, .cls-38, .cls-39, .cls-40, .cls-43, .cls-44, .cls-45, .cls-7 {
        stroke-miterlimit: 10;
      }

      .cls-14, .cls-21, .cls-22, .cls-26, .cls-37, .cls-38, .cls-39, .cls-7 {
        stroke-width: 3px;
      }

      .cls-8 {
        fill: #4d4e4f;
      }

      .cls-9 {
        fill: #d3d3d3;
      }

      .cls-10, .cls-11 {
        stroke: #212223;
      }

      .cls-10, .cls-11, .cls-29, .cls-30 {
        stroke-width: 2px;
      }

      .cls-11, .cls-30 {
        stroke-dasharray: 6.182 6.182;
      }

      .cls-12 {
        fill: #721920;
      }

      .cls-13, .cls-14, .cls-15 {
        stroke: #561318;
      }

      .cls-13, .cls-15 {
        stroke-width: 1.5px;
      }

      .cls-14, .cls-39 {
        stroke-dasharray: 10;
      }

      .cls-16, .cls-17 {
        stroke: #dbcc8a;
        stroke-width: 4px;
      }

      .cls-17 {
        stroke-dasharray: 19.313 19.313;
      }

      .cls-18, .cls-21, .cls-22 {
        stroke: #1c0608;
      }

      .cls-18 {
        stroke-width: 10px;
      }

      .cls-19 {
        stroke: #160506;
        stroke-width: 5px;
      }

      .cls-20 {
        stroke: #0e0a32;
      }

      .cls-20, .cls-33 {
        stroke-width: 8px;
      }

      .cls-21, .cls-23 {
        fill: #1c0608;
      }

      .cls-22 {
        fill: #fcdb21;
      }

      .cls-24 {
        fill: #b86267;
      }

      .cls-25 {
        fill: #1e214c;
      }

      .cls-26 {
        stroke: #0f1126;
      }

      .cls-27 {
        fill: #4b4d70;
      }

      .cls-28 {
        fill: #d2d3db;
      }

      .cls-29, .cls-30 {
        stroke: #4b4d70;
      }

      .cls-31 {
        fill: #fffffa;
      }

      .cls-32 {
        fill: #f2f2e4;
      }

      .cls-33, .cls-41 {
        stroke: #332833;
      }

      .cls-34 {
        fill: #f7f7ef;
      }

      .cls-35 {
        fill: url(#New_Pattern);
      }

      .cls-36 {
        fill: #fbb03b;
      }

      .cls-37, .cls-38, .cls-39 {
        stroke: #fdd089;
      }

      .cls-38 {
        stroke-dasharray: 10.048 10.048;
      }

      .cls-40 {
        stroke: #e6e6e6;
        stroke-width: 6px;
      }

      .cls-41 {
        stroke-linejoin: bevel;
        stroke-width: 11px;
      }

      .cls-42 {
        fill: #332833;
      }

      .cls-43, .cls-45 {
        stroke: #fffffa;
      }

      .cls-44 {
        stroke: #e6f1f5;
      }

      .cls-44, .cls-45 {
        stroke-width: 12px;
      }

      .cls-46 {
        fill: #c5d0d3;
      }

      .cls-47 {
        fill: #d4a1a4;
      }

      .cls-48 {
        fill: #8a4a4d;
      }

      .cls-49 {
        fill: #e3c0c2;
      }
    </style>
    <pattern id="New_Pattern" data-name="New Pattern" width="24.358" height="15.401" patternTransform="translate(5.087 9.953) scale(0.836)" patternUnits="userSpaceOnUse" viewBox="0 0 24.358 15.401">
      <rect class="cls-1" width="24.358" height="15.401"/>
      <g>
        <line class="cls-2" x1="24.619" y1="15.828" x2="48.457" y2="30.375"/>
        <line class="cls-2" x1="48.457" y1="15.828" x2="24.619" y2="30.375"/>
      </g>
      <g>
        <line class="cls-2" x1="0.26" y1="15.828" x2="24.098" y2="30.375"/>
        <line class="cls-2" x1="24.098" y1="15.828" x2="0.26" y2="30.375"/>
      </g>
      <g>
        <line class="cls-2" x1="-24.098" y1="15.828" x2="-0.26" y2="30.375"/>
        <line class="cls-2" x1="-0.26" y1="15.828" x2="-24.098" y2="30.375"/>
      </g>
      <g>
        <line class="cls-2" x1="24.619" y1="0.427" x2="48.457" y2="14.974"/>
        <line class="cls-2" x1="48.457" y1="0.427" x2="24.619" y2="14.974"/>
      </g>
      <g>
        <line class="cls-2" x1="0.26" y1="0.427" x2="24.098" y2="14.974"/>
        <line class="cls-2" x1="24.098" y1="0.427" x2="0.26" y2="14.974"/>
      </g>
      <g>
        <line class="cls-2" x1="-24.098" y1="0.427" x2="-0.26" y2="14.974"/>
        <line class="cls-2" x1="-0.26" y1="0.427" x2="-24.098" y2="14.974"/>
      </g>
      <g>
        <line class="cls-2" x1="24.619" y1="-14.974" x2="48.457" y2="-0.427"/>
        <line class="cls-2" x1="48.457" y1="-14.974" x2="24.619" y2="-0.427"/>
      </g>
      <g>
        <line class="cls-2" x1="0.26" y1="-14.974" x2="24.098" y2="-0.427"/>
        <line class="cls-2" x1="24.098" y1="-14.974" x2="0.26" y2="-0.427"/>
      </g>
      <g>
        <line class="cls-2" x1="-24.098" y1="-14.974" x2="-0.26" y2="-0.427"/>
        <line class="cls-2" x1="-0.26" y1="-14.974" x2="-24.098" y2="-0.427"/>
      </g>
    </pattern>
  </defs>
  <g id="Layer_9" data-name="Layer 9">
    <polyline class="cls-3" points="1262.311 -15.311 -15.311 -15.311 -15.311 1262.311"/>
    <polyline class="cls-4" points="-15.311 1262.311 1262.311 1262.311 1262.311 -15.311"/>
  </g>
  <g id="doc_s_sock" data-name="doc&apos;s sock">
    <path class="cls-5" d="M235.6,538.866c-35.544,25.824-82.792,25.128-114.262-.287-25.212-20.361-37.119-54.024-31.631-87.537q-2.12-52.911-4.24-105.821a12.035,12.035,0,0,1,12-12H235.6a12.035,12.035,0,0,1,12,12V526.866A12.035,12.035,0,0,1,235.6,538.866Z"/>
  </g>
  <g id="doc_s_leg" data-name="doc&apos;s leg">
    <rect class="cls-6" x="61.134" y="-27.801" width="210.808" height="383.6" rx="12"/>
    <line class="cls-7" x1="166.538" y1="-11.823" x2="166.538" y2="360.951"/>
    <path class="cls-8" d="M278.6,381.321a993.83,993.83,0,0,1-223.152,8.293c-7-.527-12.268-6.424-11.7-13q.96-11.334,1.939-22.665a12.231,12.231,0,0,1,13.149-10.96,947.064,947.064,0,0,0,212.686-7.878,12.21,12.21,0,0,1,13.843,9.967q1.854,11.221,3.729,22.44C290.2,374.026,285.488,380.282,278.6,381.321Z"/>
    <path class="cls-9" d="M179.786,392.468l-24.567.944a4.016,4.016,0,0,1-4.156-3.849l.37-42.6a3.628,3.628,0,0,1,3.368-3.845l21.544-.828A3.627,3.627,0,0,1,180,345.862l3.638,42.45A4.016,4.016,0,0,1,179.786,392.468Z"/>
    <line class="cls-10" x1="165.573" y1="342.701" x2="167.503" y2="392.94"/>
    <g>
      <line class="cls-10" x1="160.573" y1="342.701" x2="160.707" y2="346.199"/>
      <line class="cls-11" x1="160.944" y1="352.376" x2="162.25" y2="386.354"/>
      <line class="cls-10" x1="162.368" y1="389.443" x2="162.503" y2="392.94"/>
    </g>
    <g>
      <line class="cls-10" x1="170.573" y1="342.701" x2="170.707" y2="346.199"/>
      <line class="cls-11" x1="170.944" y1="352.376" x2="172.25" y2="386.354"/>
      <line class="cls-10" x1="172.368" y1="389.443" x2="172.503" y2="392.94"/>
    </g>
  </g>
  <g id="doc_marten" data-name="doc marten">
    <path class="cls-12" d="M81.65,438.368s8.234,69.584,8.234,109.654S41.631,690.273,50.567,738.357L59.5,786.442s144.281,11.191,165.964,10.6,109.253,11.435,134.277,13.439c54.655,4.376,110.242,3.744,162.993-12.827,21.593-6.783,57.88-16.516,69.605-36.688a45.545,45.545,0,0,0,4.912-13.368c5.688-26.621-12.716-52.419-39.682-56.144-30.45-4.206-102.671-9.665-126.994-11.2-6.483-.409-12.918-3.478-18.691-6.211A276.286,276.286,0,0,1,385.1,659.114a763.464,763.464,0,0,1-62.973-43.989c-17.477-13.4-34.934-27.225-50.626-42.72-5.619-5.548-11.576-11.378-13.259-19.4a113.278,113.278,0,0,1-1.674-13.8c-.95-11.435-1.244-22.926-1.416-34.395-.338-22.558-.011-45.129.6-67.679.1-3.775.208-7.549.343-11.322Z"/>
    <g id="Layer_12" data-name="Layer 12">
      <path class="cls-13" d="M59.5,665.99c27.35-6.155,59.193-5.73,82.974,10.9,36.659,25.63,42.615,74.318,37.244,103.661-.291,1.591-.574,2.9-.777,3.8"/>
      <path class="cls-14" d="M62.381,663.248c27.351-6.156,59.193-5.73,82.975,10.9,36.658,25.63,42.615,74.318,37.244,103.662-.291,1.59-.575,2.9-.778,3.795"/>
    </g>
    <g id="Layer_13" data-name="Layer 13">
      <path class="cls-15" d="M208.085,437.163s2.749,99.871,6.414,120.029,39.4,59.556,73.3,85.212,92.541,57.723,92.541,57.723"/>
      <g id="Layer_16" data-name="Layer 16">
        <path class="cls-13" d="M380.34,700.127v23.219c0-6.3-54.651-9.567-60.085-9.675-53.326-1.058-112.365,15.106-130,71.379"/>
        <path class="cls-14" d="M187.746,781.6a92.368,92.368,0,0,1,15.19-30.2c49.154-64.068,168.714-35.552,174.391-34.123"/>
      </g>
    </g>
    <path d="M600.713,822.938a62.666,62.666,0,0,1-8.05,4.95c-.81-.92-1.61-1.87-2.49-2.86-.17-.19-1.84.39-2.68.79s-4.5,1.87-5.38,2.16-2.48,1.03-2.48,1.28c.08,1.72.2,3.29.27,4.86-6.35,2.86-13.87,5.94-22.34,9.03-1.19-1.48-2.27-3-3.54-4.65-.15-.2-1.87.26-2.73.6s-4.64,1.55-5.54,1.78-2.56.85-2.57,1.1c-.05,2.19-.02,4.14-.13,6.15-7.1,2.28-14.68,4.51-22.65,6.58-1.22-1.7-2.26-3.42-3.51-5.31-.14-.21-1.89.13-2.78.41s-4.75,1.22-5.68,1.38-2.62.67-2.65.92c-.21,2.22-.32,4.2-.58,6.24-7.56,1.66-15.39,3.15-23.43,4.41-.98-1.64-1.84-3.29-2.87-5.09-.12-.22-1.9,0-2.81.21s-4.85.89-5.79.99-2.68.48-2.73.73c-.31,1.83-.53,3.51-.84,5.19q-5.67.645-11.44,1.11-6.66.525-13.42.9c-.54-1.14-1.06-2.3-1.66-3.54-.11-.23-1.91-.14-2.84.01s-4.93.54-5.88.57-2.73.29-2.79.54c-.26,1.05-.48,2.05-.71,3.03-8.64.3-17.33.43-25.97.42-.34-.88-.69-1.79-1.07-2.73-.09-.24-1.9-.28-2.85-.19s-5,.19-5.95.15-2.77.1-2.84.34c-.26.8-.49,1.57-.73,2.32-9.04-.14-17.98-.4-26.72-.75-.18-.6-.38-1.21-.58-1.84-.08-.24-1.9-.41-2.86-.39s-5.04-.17-6-.27-2.79-.1-2.88.13c-.25.61-.48,1.19-.7,1.77-9.41-.48-18.5-1.04-27.14-1.64-.12-.46-.23-.94-.35-1.42-.07-.25-1.89-.55-2.86-.6s-5.06-.53-6.02-.71-2.8-.3-2.91-.08c-.32.64-.61,1.26-.9,1.87-9.71-.74-18.67-1.49-26.65-2.16-.23-1.31-.44-2.63-.7-4.06-.05-.26-1.87-.69-2.84-.81s-5.07-.91-6.02-1.16-2.81-.51-2.94-.29c-1.04,1.79-1.92,3.42-2.92,5.04-.95-.07-1.88-.14-2.78-.21-37.43-2.88-58.77-13.09-58.77-13.09s-28.35-12.44-29.84-6.97-11.36,17.23-11.36,17.23c-1.12.68-7.45,1.07-16.72,1.26l-1.86-5.66a5.972,5.972,0,0,0-2.67-.32h-6.01a5.972,5.972,0,0,0-2.67.32l-1.91,5.81c-7,.03-14.69-.01-22.56-.09l-1.88-5.72a5.972,5.972,0,0,0-2.67-.32h-6.02a5.972,5.972,0,0,0-2.67.32l-1.82,5.54c-7.91-.11-15.69-.24-22.83-.38l-1.7-5.16a5.972,5.972,0,0,0-2.67-.32h-6.02a5.972,5.972,0,0,0-2.67.32l-1.6,4.86c-11.74-.25-19.55-.46-19.55-.46-1.81-.05,1.43-28.59,1.73-31.32,1.47-13.22,3.88-26.76,9.76-38.8.9-1.85,3.51-8.73,6.22-8.63l246.04,11.49c95.19,4.44,205.68,15.14,292.52-32.3,0,0,7.1,7.36,11.42,20.36a162.888,162.888,0,0,1,4.89,20.98A24.665,24.665,0,0,1,600.713,822.938Z"/>
    <g id="yellow_stitches" data-name="yellow stitches">
      <g>
        <path class="cls-16" d="M59.5,786.442c2.921.068,6.263.15,9.992.25"/>
        <path class="cls-17" d="M88.8,787.273c12.395.414,27,.979,43.2,1.754,211.052,10.1,288.454,36.513,398.018-.767a401.364,401.364,0,0,0,44.81-18.355"/>
        <path class="cls-16" d="M583.485,765.616q4.342-2.213,8.857-4.646"/>
      </g>
    </g>
    <g id="Layer_14" data-name="Layer 14">
      <line class="cls-18" x1="81.65" y1="438.368" x2="256.087" y2="425.807"/>
    </g>
    <g id="Layer_17" data-name="Layer 17">
      <circle class="cls-19" cx="229.975" cy="461.366" r="6.73"/>
      <circle class="cls-19" cx="229.975" cy="502.92" r="6.73"/>
      <circle class="cls-19" cx="234.725" cy="545.596" r="6.73"/>
      <circle class="cls-19" cx="251.915" cy="583.277" r="6.73"/>
      <circle class="cls-19" cx="282.536" cy="612.568" r="6.73"/>
      <circle class="cls-19" cx="317.146" cy="638.907" r="6.73"/>
      <circle class="cls-19" cx="350.405" cy="661.348" r="6.73"/>
      <circle class="cls-19" cx="384.057" cy="681.296" r="6.73"/>
    </g>
    <g id="Layer_18" data-name="Layer 18">
      <path class="cls-20" d="M229.975,461.366a90.254,90.254,0,0,0,27.386,22.9"/>
      <path class="cls-20" d="M229.975,502.92A40.491,40.491,0,0,0,246.619,515.9a38.735,38.735,0,0,0,8.821,2.457"/>
      <path class="cls-20" d="M234.725,545.6a49.245,49.245,0,0,0,25.759,10.353"/>
      <path class="cls-20" d="M251.915,583.277a53.792,53.792,0,0,0,22.052,4.625,52.848,52.848,0,0,0,12.506-1.6"/>
      <path class="cls-20" d="M282.536,612.568a63.661,63.661,0,0,0,26.638,4.615,61.6,61.6,0,0,0,10.457-1.395"/>
      <path class="cls-20" d="M317.146,638.907a49.852,49.852,0,0,0,27.235,3.025,46.9,46.9,0,0,0,10.1-3.025"/>
      <path class="cls-20" d="M350.405,661.348a64.372,64.372,0,0,0,40.382,0"/>
      <path class="cls-20" d="M384.057,681.3a108.606,108.606,0,0,0,39.172-2.5"/>
    </g>
    <g id="Layer_32" data-name="Layer 32">
      <path class="cls-21" d="M83.961,431.272c-2.825-.562-10.594-2.134-18.65-4.44-8.063-6.017-17.257-12.111-21.728-12.341-.256-.013-.623-.036-1.034-.021a5.017,5.017,0,0,0-3.793,1.406l3.613-6.1.009-.03.561-.94c1.321-1.559,3.839-1.429,4.826-1.384C55.976,407.839,80.147,428.055,83.961,431.272Z"/>
      <path class="cls-22" d="M79.778,438.339c-6.454-1.274-38.658-7.851-41.266-16.3-.34-1.108-1.329-4.307.244-6.164a5.017,5.017,0,0,1,3.793-1.406c.411-.015.778.008,1.034.021,4.471.23,13.665,6.324,21.728,12.341C72.073,431.882,78.034,436.876,79.778,438.339Z"/>
      <rect class="cls-23" x="69.596" y="426.668" width="18.638" height="8.722" transform="translate(278.201 40.774) rotate(37.426)"/>
    </g>
  </g>
  <g id="chuck_s_sock" data-name="chuck&apos;s sock">
    <path class="cls-24" d="M1162.427,601.864h-129a12.035,12.035,0,0,1-12-12V437.807a12.035,12.035,0,0,1,12-12h129a12.035,12.035,0,0,1,12,12q-2.611,76.287-5.224,152.576a6.78,6.78,0,0,1-6.776,11.481Z"/>
  </g>
  <g id="chuck_s_leg" data-name="chuck&apos;s leg">
    <rect class="cls-25" x="992.525" y="-14.941" width="210.808" height="421.249" rx="12" transform="translate(2195.858 391.367) rotate(-180)"/>
    <line class="cls-26" x1="1097.929" y1="-8.347" x2="1097.929" y2="411.46"/>
    <path class="cls-27" d="M985.867,431.829a993.765,993.765,0,0,0,223.151,8.294c7-.527,12.268-6.423,11.7-13q-.96-11.334-1.939-22.666a12.232,12.232,0,0,0-13.149-10.959,947.123,947.123,0,0,1-212.686-7.878,12.21,12.21,0,0,0-13.843,9.966q-1.854,11.223-3.729,22.441C974.265,424.535,978.978,430.791,985.867,431.829Z"/>
    <g id="Layer_22" data-name="Layer 22">
      <g>
        <path class="cls-28" d="M1084.68,442.977l24.568.944a4.017,4.017,0,0,0,4.156-3.849l-.37-42.6a3.628,3.628,0,0,0-3.368-3.845l-21.544-.828a3.627,3.627,0,0,0-3.652,3.575l-3.638,42.45A4.016,4.016,0,0,0,1084.68,442.977Z"/>
        <line class="cls-29" x1="1098.894" y1="393.21" x2="1096.964" y2="443.449"/>
        <g>
          <line class="cls-29" x1="1103.894" y1="393.21" x2="1103.76" y2="396.707"/>
          <line class="cls-30" x1="1103.522" y1="402.885" x2="1102.217" y2="436.863"/>
          <line class="cls-29" x1="1102.099" y1="439.952" x2="1101.964" y2="443.449"/>
        </g>
        <g>
          <line class="cls-29" x1="1093.894" y1="393.21" x2="1093.76" y2="396.707"/>
          <line class="cls-30" x1="1093.522" y1="402.885" x2="1092.217" y2="436.863"/>
          <line class="cls-29" x1="1092.099" y1="439.952" x2="1091.964" y2="443.449"/>
        </g>
      </g>
    </g>
  </g>
  <g id="converse">
    <g id="mid">
      <path class="cls-31" d="M663.625,774.429s-7.311,12.937-8.065,18.354l-.754,5.418s12.619,13.578,78.346,14.332q27.469.315,54.941.356,25.837.027,51.675-.227,25.9-.254,51.8-.756,27.8-.525,55.605-1.23,31.548-.777,63.092-1.646c32.95-.889,65.9-1.939,98.846-2.83,5.209-.141,76.412-2.266,75.81,1.423a94.153,94.153,0,0,0,.83-24.411q-.1-.981-.212-1.947s-.183-6.836-6.123-6.836Z"/>
    </g>
    <g id="lower_right" data-name="lower right">
      <path class="cls-32" d="M817.672,811.231l361.612-7.482c10.6-.222,7.66,18.388,7.66,18.388-.933,13.652-2.333,26.645-7.02,35.2a8.373,8.373,0,0,1-7.2,4.368l-359.968,6.127v-56.5Z"/>
      <line id="bottom_piping" data-name="bottom piping" class="cls-33" x1="812.758" y1="842.163" x2="1182.634" y2="835.871"/>
    </g>
    <g id="lower_left" data-name="lower left">
      <path class="cls-34" d="M646.72,823.487a62.84,62.84,0,0,1-6.609-2.462,37.3,37.3,0,0,0,2.126,8.243,26.543,26.543,0,0,0,2.9,5.522c8.9,12.768,28.11,15.2,42.122,18.174,41.255,8.759,83.256,14.867,125.5,14.867V843.65c-.467-.027-.934-.059-1.4-.106C756.2,840.2,700.206,841.872,646.72,823.487Z"/>
      <path class="cls-34" d="M711.038,810.813c-18.537-1.735-36.353-4.578-53.792-11.276a3.468,3.468,0,0,1-2.124-1.731c-.126-.328-.133-.592.1-2.059.195-1.24.409-2.478.679-3.7.033-.151.644-2.635.708-2.606a2.953,2.953,0,0,0-.818-.133c-.346-.047-.694-.086-1.042-.116-.452-.04-.932-.078-1.419-.093a7.028,7.028,0,0,0-3.036.453,9.478,9.478,0,0,0-3.317,2.021q-.294.274-.567.572a19.514,19.514,0,0,0-3.1,4.94,37.535,37.535,0,0,0-3.128,10.421,45.811,45.811,0,0,0-.344,11.257c.07.757.164,1.512.272,2.266a62.84,62.84,0,0,0,6.609,2.462c53.486,18.385,109.48,16.714,164.637,20.057.467.047.934.079,1.4.106V811.333C778.811,811.671,744.927,813.985,711.038,810.813Z"/>
      <path class="cls-35" d="M711.038,810.813c-18.537-1.735-36.353-4.578-53.792-11.276a3.468,3.468,0,0,1-2.124-1.731c-.126-.328-.133-.592.1-2.059.195-1.24.409-2.478.679-3.7.033-.151.644-2.635.708-2.606a2.953,2.953,0,0,0-.818-.133c-.346-.047-.694-.086-1.042-.116-.452-.04-.932-.078-1.419-.093a7.028,7.028,0,0,0-3.036.453,9.478,9.478,0,0,0-3.317,2.021q-.294.274-.567.572a19.514,19.514,0,0,0-3.1,4.94,37.535,37.535,0,0,0-3.128,10.421,45.811,45.811,0,0,0-.344,11.257c.07.757.164,1.512.272,2.266a62.84,62.84,0,0,0,6.609,2.462c53.486,18.385,109.48,16.714,164.637,20.057.467.047.934.079,1.4.106V811.333C778.811,811.671,744.927,813.985,711.038,810.813Z"/>
    </g>
    <path id="toe" class="cls-32" d="M756.838,735.863a1.53,1.53,0,0,0-1.215-.2c-20.629,3.268-40.691,9.588-59.923,17.659-9.843,4.13-34.314,11.21-32.328,25.6.132.954.54,3.1,4.934,6.395,10.811,8.109,64.846,7.447,64.846,7.447q6.13-14.712,12.208-29.446,2.978-7.171,5.98-14.332C753.039,744.946,756.138,739.971,756.838,735.863Z"/>
    <path id="canvas" class="cls-36" d="M1009.839,494.617s4.77,40.549-19.082,78.713S799.939,721.214,778.472,728.369l-21.467,7.156q-1.578,2.229-3.106,4.579a145.833,145.833,0,0,0-20.747,52.666l450.808-11.926s19.082-52.475,0-126.417-9.541-128.8-2.385-143.113L1188.731,497s-123.819,9.237-142.661,4.955S1009.839,494.617,1009.839,494.617Z"/>
    <g id="Layer_30" data-name="Layer 30">
      <g>
        <path class="cls-37" d="M831.285,774.43q2.247-.949,4.594-1.965"/>
        <path class="cls-38" d="M845.058,768.385c46.014-20.985,114.182-60.125,174.9-130.818a501.476,501.476,0,0,0,73.813-114.435"/>
        <path class="cls-37" d="M1095.879,518.565q1.05-2.3,2.05-4.558"/>
      </g>
      <g>
        <path class="cls-37" d="M836.285,781.43q2.247-.949,4.594-1.965"/>
        <path class="cls-38" d="M850.058,775.385c46.014-20.985,114.182-60.125,174.9-130.818a501.476,501.476,0,0,0,73.813-114.435"/>
        <path class="cls-37" d="M1100.879,525.565q1.05-2.3,2.05-4.558"/>
      </g>
      <path class="cls-39" d="M1014.434,500.617a459.768,459.768,0,0,0,117.327,7.565,454.9,454.9,0,0,0,49.085-5.866"/>
      <path class="cls-39" d="M1014.434,506.617a459.768,459.768,0,0,0,117.327,7.565,454.9,454.9,0,0,0,49.085-5.866"/>
    </g>
    <g id="washers">
      <circle class="cls-40" cx="1035.605" cy="559.799" r="10.697"/>
      <circle class="cls-40" cx="1010.734" cy="601.864" r="10.697"/>
      <circle class="cls-40" cx="977.3" cy="639.897" r="10.697"/>
      <circle class="cls-40" cx="937.561" cy="672.217" r="10.697"/>
      <circle class="cls-40" cx="896.829" cy="701.075" r="10.697"/>
      <circle class="cls-40" cx="853.78" cy="725.834" r="10.697"/>
      <circle class="cls-40" cx="807.215" cy="740.754" r="10.697"/>
    </g>
    <g id="top_piping" data-name="top piping">
      <polyline class="cls-41" points="882.215 789.139 962.102 786.92 1044.282 784.638 1118.009 782.59 1174.154 781.03 1180.846 780.844"/>
      <path class="cls-42" d="M663.625,779.631a12.387,12.387,0,0,0,5.044,5.309,22.364,22.364,0,0,0,6.831,2.652,46.688,46.688,0,0,0,7.322.983c2.5.187,5,.324,7.509.456,5.015.237,10.034.422,15.052.611,5.017.173,10.048.307,15.053.4l-.2,0c9.651-.588,19.306-.981,28.958-1.481l28.958-1.4q28.957-1.449,57.923-2.568,57.923-2.255,115.9-3.544t115.957-1.515c38.665-.03,77.334.1,116.031,1.316-38.579,3.261-77.187,5.435-115.8,7.45q-57.923,2.9-115.875,4.617-57.954,1.78-115.934,2.59-28.995.366-57.993.5c-9.665.08-19.337-.05-29.007-.148-9.67-.121-19.338-.136-29.008-.346l-.2,0c-5.043-.471-10.053-.984-15.073-1.537s-10.03-1.159-15.033-1.877c-2.5-.362-5-.728-7.5-1.146a43.877,43.877,0,0,1-7.5-1.749,23.622,23.622,0,0,1-6.857-3.543A12.4,12.4,0,0,1,663.625,779.631Z"/>
    </g>
    <g id="logo">
      <path class="cls-42" d="M1183.725,852.121q-2.079-.363-4.159-.721a1.889,1.889,0,0,1-1.528-2.159,215.071,215.071,0,0,0,2.2-50.052,1.893,1.893,0,0,1,1.711-2.032q2.1-.166,4.208-.33a1.913,1.913,0,0,1,2.007,1.809,223.128,223.128,0,0,1-2.291,51.894A1.885,1.885,0,0,1,1183.725,852.121Z"/>
      <g id="Layer_25" data-name="Layer 25">
        <path class="cls-31" d="M1183.96,844.207s3.5-29.411,2.229-33l-1.267-3.586,3.552-.519-2.513,37.1Z"/>
        <line class="cls-43" x1="1186.189" y1="827.707" x2="1188.337" y2="827.669"/>
        <rect class="cls-31" x="1183.259" y="844.207" width="3.285" height="1.06"/>
      </g>
    </g>
    <g id="bottom_laces" data-name="bottom laces">
      <line class="cls-44" x1="1000.717" y1="558.238" x2="1010.734" y2="602.208"/>
      <line class="cls-44" x1="977.3" y1="639.897" x2="973.589" y2="597.827"/>
      <line class="cls-44" x1="937.561" y1="672.217" x2="934.399" y2="632.866"/>
      <line class="cls-44" x1="896.829" y1="701.075" x2="894.549" y2="667.582"/>
      <line class="cls-44" x1="853.78" y1="725.834" x2="851.675" y2="696.619"/>
      <line class="cls-44" x1="807.215" y1="740.754" x2="810.17" y2="715.137"/>
      <line class="cls-44" x1="1035.244" y1="559.799" x2="1007.945" y2="528.234"/>
    </g>
    <g id="top_laces" data-name="top laces">
      <line class="cls-45" x1="1035.244" y1="559.799" x2="999.439" y2="556.677"/>
      <line class="cls-45" x1="1010.542" y1="601.757" x2="968.565" y2="594.819"/>
      <line class="cls-45" x1="977.279" y1="639.534" x2="926.858" y2="631.2"/>
      <line class="cls-45" x1="937.752" y1="672.578" x2="882.215" y2="663.398"/>
      <line class="cls-45" x1="896.829" y1="701.075" x2="844.806" y2="688.858"/>
      <line class="cls-45" x1="853.78" y1="725.834" x2="808.79" y2="711.772"/>
      <line class="cls-45" x1="807.215" y1="740.754" x2="787.343" y2="730.057"/>
    </g>
    <g id="bow">
      <g id="Layer_29" data-name="Layer 29">
        <rect class="cls-46" x="901.399" y="608.682" width="21.632" height="7.48" rx="1.616" transform="translate(-139.312 293.852) rotate(-17.021)"/>
        <path class="cls-45" d="M1012.1,531.712a131.45,131.45,0,0,1-42.672,54.911,129.8,129.8,0,0,1-45.795,21.6"/>
      </g>
      <path class="cls-45" d="M995.253,517.5a28.114,28.114,0,0,0-15.645-2.885c-8.037.905-24.73,8.655-22.646,19.212,1.52,7.677,13.287,10.1,19.705,10.241,18.133.4,26.138-13.728,39.029-23.442,13.3-10.021,37.153-21.5,47.194-.2,7.136,15.139-6.374,35.221-22.865,24.841-7.907-4.976-14.679-10.2-23-14.437C1009.352,526.922,1002.743,521.05,995.253,517.5Z"/>
    </g>
  </g>
  <g id="rom-com_soundtrack" data-name="rom-com soundtrack">
    <g>
      <path class="cls-32" d="M80.14,1183.267c-5.6-4.551-12.95-17.851-12.95-23.452,0-2.449.7-3.5,1.75-3.5,1.75,0,4.9,3.5,8.05,9.8,2.8,5.25,6.3,10.15,7.7,10.85l8.4,4.2c6.3,3.15,10.85,3.5,10.85,1.4,0-.7,3.15-2.8,7.351-3.5,5.25-1.049,8.4-3.5,10.5-7a19.357,19.357,0,0,0,3.15-10.5c0-9.45-7.351-20.65-24.5-36.75-9.45-9.1-18.55-19.251-19.25-21.7a54.888,54.888,0,0,1-1.4-11.551,42.443,42.443,0,0,1,1.75-11.9c2.1-6.3,17.15-17.85,26.251-19.6a51.625,51.625,0,0,1,9.1-1.05,17.588,17.588,0,0,1,8.4,2.1c2.8,1.4,5.95,2.8,7,2.8,4.9,0,15.4,18.9,10.85,18.9-3.15,0-7.35-3.849-8.4-7.35-1.4-5.25-10.85-9.8-19.95-9.8-5.25,0-8.4,1.05-12.6,5.25l-5.6,5.25c.35,3.851.35,8.051.7,11.9.7,13.651,1.75,14.7,23.8,37.452,15.4,16.1,19.25,22.4,19.25,32.2,0,7.7-7.7,19.6-15.4,23.45a63.866,63.866,0,0,1-27.651,6.3C90.29,1187.466,83.64,1186.066,80.14,1183.267Z"/>
      <path class="cls-32" d="M190.036,1177.316c-2.8-2.1-5.951-3.85-6.651-3.85-2.8,0-12.25-11.55-15.05-18.2a41.771,41.771,0,0,1-3.149-16.451,56.668,56.668,0,0,1,.7-10.5c3.5-24.85,14.7-43.05,31.151-51.1,6.65-3.15,11.2-4.9,13.3-4.9,3.15,0,1.4,3.5-5.6,11.2a57.844,57.844,0,0,0-10.5,16.1c-1.75,4.551-3.5,10.5-4.55,12.251a24.412,24.412,0,0,0-2.1,5.95,82.228,82.228,0,0,0-2.8,20.651c0,3.149.349,6.649.7,10.149.349,3.851,1.05,7.7,1.4,11.551l13.3,13.65,7.35-1.05c11.9-1.75,33.951-16.8,40.6-28.351,2.449-4.2,5.25-7.35,5.949-7.35,2.451,0,5.951-20.65,5.951-32.9s-1.4-15.051-4.9-20.3c-3.5-4.55-7.35-7-11.9-7-5.95,0-12.95,3.851-19.95,11.9-7,7.7-16.1,24.85-16.1,31.15,0,3.15-.7,4.9-2.45,4.9s-2.45-2.45-2.45-5.95a32.89,32.89,0,0,1,2.1-10.85c3.15-8.4,13.651-22.75,19.25-26.6a60.82,60.82,0,0,1,14.351-6.649,32.5,32.5,0,0,1,9.45-1.4c6.3,0,10.85,2.8,15.4,10.151,3.85,6.3,4.55,8.75,4.55,22.049,0,10.151-.7,17.151-2.8,21a81.573,81.573,0,0,0-4.9,11.55c-2.45,7.351-19.6,24.5-33.6,34.3-10.5,7.351-12.6,8.4-21.35,8.4C197.736,1180.816,193.536,1180.116,190.036,1177.316Z"/>
      <path class="cls-32" d="M319.882,1176.266c-5.95-.7-12.25-1.75-14-2.8-3.85-2.1-9.8-12.95-10.5-20.3a20.737,20.737,0,0,0-2.1-7.351c-.7-1.4-1.4-7.7-1.4-14.7,0-7.7.7-16.1,1.75-18.55s2.8-10.85,4.2-18.9c2.1-11.2,3.15-15.051,6.3-17.5,1.75-1.75,4.55-2.45,7.35-2.45,3.5,0,6.65,1.4,6.65,4.9a173.039,173.039,0,0,1-2.1,20.651c-2.1,14-2.8,26.95-2.449,43.751.349,7.7.349,15.75.7,23.45l3.85,3.85c2.8,2.8,4.9,3.15,8.05,2.45,5.25-1.05,15.051-10.85,15.051-14.7,0-1.4,1.4-4.9,2.449-7.349a120.029,120.029,0,0,0,4.551-16.45c1.4-6.651,2.45-12.951,3.5-14,.7-.7,2.45-6.65,4.2-12.951,1.4-4.549,2.45-9.45,3.85-14,1.05-2.45,1.05-3.5,3.15-13.3.7-3.151,1.4-5.951,1.75-5.951a11.425,11.425,0,0,0,3.5-1.049,5.894,5.894,0,0,1,1.75-.7c.7,0,.7.35.7,1.4a23.877,23.877,0,0,1-.35,4.2c-2.45,17.5-4.9,24.851-7,28.351-1.4,2.45-3.85,10.5-5.25,18.2-2.8,16.1-8.05,30.451-10.151,32.551a6.639,6.639,0,0,0-1.4,4.2c0,1.75-3.5,6.3-8.051,9.8l-7.7,6.3Z"/>
      <path class="cls-32" d="M457.078,1178.366c-7.7-.7-11.55-4.2-14.7-15.4-.7-2.45-3.149-8.05-5.25-12.95-4.549-10.5-10.15-24.5-10.849-30.451-.351-2.45-2.45-7-4.551-10.5a85.946,85.946,0,0,1-4.9-9.1c-.7-2.1-1.751-3.151-2.451-3.151-1.4,0-2.45,1.75-3.5,4.9a63.89,63.89,0,0,1-2.1,6.3,9.923,9.923,0,0,0-1.4,4.55c0,7-3.15,20.651-4.2,25.2-.7,2.8-3.15,11.2-4.551,18.2-3.849,18.55-4.2,19.25-6.3,19.25-4.55,0-7-2.8-5.25-6.3,4.549-9.1,8.75-24.851,9.1-33.251.35-5.95,8.75-37.8,10.15-40.95a87.505,87.505,0,0,0,3.85-12.25c2.1-8.051,3.15-10.851,6.3-11.2h1.75a9.266,9.266,0,0,1,4.9,1.049c3.85,3.15,11.9,18.55,16.451,30.8,2.1,5.6,5.25,13.3,7,17.15a121.635,121.635,0,0,1,5.6,14.35q2.1,7.351,4.2,7.351c1.4,0,2.451-1.75,3.5-5.6a88.265,88.265,0,0,1,4.2-12.6,91.731,91.731,0,0,0,4.9-16.452c1.05-5.25,2.8-11.9,4.55-14.7a20.333,20.333,0,0,0,2.8-6.649c0-1.75,12.25-19.251,15.75-21.7a18.57,18.57,0,0,1,5.95-2.8,57.419,57.419,0,0,1,8.05-.7h4.2l-4.2,1.75a66.07,66.07,0,0,0-8.4,4.9c-4.2,2.8-16.1,19.25-16.1,22.4,0,1.05-1.4,5.25-3.151,9.451-1.75,3.85-4.9,15.05-7,24.5-2.1,9.8-4.55,19.25-5.6,21.7-1.05,2.1-1.75,10.5-1.75,18.55,0,8.4-1.4,15.05-3.5,14.7Z"/>
      <path class="cls-32" d="M512.374,1168.216a24.981,24.981,0,0,1-.351-5.95c0-15.05,3.851-50.4,7.351-68.952,2.8-14.349,5.6-20.65,10.15-24.85,1.75-1.75,3.85-2.449,7-2.449,4.55,0,11.2,1.4,22.75,4.549,31.15,8.05,42.7,18.55,42.7,38.5,0,9.8-7.35,31.152-10.5,31.152-.7,0-3.5,3.149-6.3,7.349-3.5,5.25-8.4,8.75-18.9,14-15.05,7.351-32.2,11.9-37.45,10.851h-1.4a4.519,4.519,0,0,0-2.8.7C523.223,1175.916,513.773,1172.066,512.374,1168.216Zm23.1-1.75c10.85,0,21.7-4.9,31.151-14.351,4.9-4.9,9.1-10.149,9.1-11.55s2.1-5.25,4.2-8.75c3.151-5.25,3.851-8.75,3.851-21.35,0-17.851-2.1-22.05-15.751-29.4-7-3.85-15.75-6.3-21-6.3a7.532,7.532,0,0,0-3.5.7c-1.05.7-3.851,15.751-5.95,33.6-2.1,17.5-4.9,33.251-5.6,35s-1.4,7.351-1.4,12.6v9.8Z"/>
      <path class="cls-32" d="M655.873,1181.866c-1.4-1.05-2.1-2.8-2.1-7.7,0-2.8.35-6.65.7-11.9.7-9.8,1.049-19.951,1.049-22.75,0-8.051,5.25-55.3,7-58.452a4.645,4.645,0,0,0,1.05-2.8q0-4.2-12.6-4.2c-2.1,0-4.551.35-7.351.35-12.6.7-15.4,1.4-17.851,4.551-2.1,2.449-4.55,3.849-6.649,3.849-1.4,0-3.151-.7-3.151-2.45,0-2.1,2.45-4.2,8.05-7,4.9-2.45,10.851-2.8,32.551-2.8,14.7,0,27.651.35,28.7,1.05s4.9,1.05,9.8,1.05c9.1,0,21.351-1.05,24.5-2.8,5.95-3.15,7.351-3.15,7.351-.349,0,5.25-4.55,6.3-23.8,6.3-20.3,0-22.4.7-22.75,8.05-.351,9.8-4.55,54.251-5.25,56.7-1.05,3.85-1.75,4.9-3.15,18.9-1.75,18.551-2.451,20.3-8.05,22.75-2.1.7-3.5,1.4-4.55,1.4C657.974,1183.616,657.273,1182.916,655.873,1181.866Z"/>
      <path class="cls-32" d="M810.571,1191.666c-5.25-4.9-9.45-9.8-9.45-10.85s-3.149-9.45-7.7-18.55-8.05-16.8-8.05-17.5c0-.351-2.45-3.5-5.95-7-5.25-5.25-7.35-5.951-14-5.951-5.25,0-7.7.7-7.7,2.1,0,7.7-2.1,22.751-4.55,30.451s-5.95,12.25-9.1,12.25q-1.574,0-3.15-2.1c-1.4-1.75-1.75-11.55-1.75-24.5,0-26.25,2.45-65.452,6.3-78.052,1.75-5.6,2.45-6.3,7-6.3,6.3,0,8.4,2.8,8.4,14,0,2.8,0,6.3-.35,10.15-.7,9.1-1.75,19.25-2.451,22.4a8.722,8.722,0,0,0-.349,2.8c0,2.1.7,3.15,1.75,3.5,9.8,2.45,15.4,3.85,19.95,3.85a17.289,17.289,0,0,0,8.4-1.75c4.2-1.75,11.2-6.65,16.1-11.9l8.4-8.75c0-2.45-.349-5.25-.349-7.7-.7-12.6-8.05-22.75-16.8-24.151-2.449-.349-4.9-.7-5.95-1.4-2.45-1.75-17.5-3.15-23.8-3.15-4.2,0-4.55-.35-2.45-1.75,1.05-.7,3.849-1.05,8.05-1.05,9.1,0,24.15,1.75,34.3,3.85,14.7,3.151,24.151,13.651,24.151,24.5,0,4.9-2.1,9.8-5.951,14.351-3.149,3.5-6.3,6.65-7,7-1.049.35-2.45,1.75-3.849,3.15s-7,4.55-12.251,7-10.15,4.9-10.5,5.6,3.85,5.6,8.75,11.2c5.251,6.3,10.85,14.351,12.95,19.951,5.251,13.65,15.751,31.5,19.951,36.4,1.75,2.1,5.6,4.9,8.4,6.65,2.1,1.4,3.5,2.1,4.9,2.1a7.374,7.374,0,0,0,3.851-1.4c4.9-3.149,11.549-4.9,11.549-3.149,0,.7-1.75,2.45-3.85,3.849a25.543,25.543,0,0,1-14.35,4.2C831.922,1206.017,820.372,1200.767,810.571,1191.666Z"/>
      <path class="cls-32" d="M915.22,1189.216c-1.4-1.4-2.1-9.1-1.75-23.45,0-3.85.35-7.35.35-10.15,0-10.5-1.4-12.951-5.251-12.951a15.649,15.649,0,0,0-3.849.351c-2.1.349-7.7,1.049-12.25,1.4-14.351,1.051-31.5,6.3-33.951,10.15-1.4,2.1-2.1,8.4-2.1,14,0,4.9.7,9.451,1.75,10.5a8.6,8.6,0,0,1,1.75,5.25c0,2.1-.7,2.8-2.45,2.8-4.9,0-7.35-4.9-7.35-14a82.259,82.259,0,0,1,1.05-11.9c2.8-16.1,8.75-37.8,10.5-40.6a54.36,54.36,0,0,0,4.55-11.551c2.45-9.45,10.15-19.95,18.551-27.65,11.9-11.2,18.2-15.4,23.8-17.149,4.551-1.4,7.351-2.1,9.8-2.1a15.956,15.956,0,0,1,7.7,2.1c7.35,3.85,9.1,6.65,10.85,18.55a113.162,113.162,0,0,1,.351,12.6c0,28.7-3.851,91-6.3,92.4a27.4,27.4,0,0,1-10.85,2.451C917.67,1190.267,915.92,1189.916,915.22,1189.216Zm-40.251-45.151c5.95-1.75,16.1-4.2,23.451-4.549,7-.351,13.3-1.75,14-2.451,1.75-1.75,3.5-35.7,3.5-54.951,0-7,0-11.9-.7-12.95a3.622,3.622,0,0,0-2.45-1.75c-3.15,0-16.8,9.8-18.55,11.9a66.28,66.28,0,0,1-7.351,7.7c-3.149,2.8-5.95,5.95-5.95,6.65,0,1.05-1.75,3.5-3.5,6.3-6.649,10.5-16.8,43.4-14,46.2C864.119,1146.865,869.369,1145.815,874.969,1144.065Z"/>
      <path class="cls-32" d="M993.965,1183.267c-19.951-6.3-28.7-20.651-28.7-45.5a179.637,179.637,0,0,1,1.4-18.2c2.8-22.4,22.4-46.2,43.751-53.2,3.5-1.05,5.95-1.75,8.05-1.75,3.5,0,5.95,1.4,9.8,4.2,5.95,4.55,10.5,15.05,10.5,23.8,0,8.4-4.551,18.2-8.751,18.2-2.1,0-3.15-.35-3.15-2.1,0-1.05.7-3.151,1.75-6.651a29.815,29.815,0,0,0,1.4-8.049c0-7-2.45-14-6.65-18.2l-5.25-5.25-4.9,2.451c-5.95,3.149-15.051,15.75-18.9,25.9-5.25,13.3-7.7,30.1-7.7,44.45,0,9.8,1.4,18.551,3.851,24.151,3.149,7,4.9,9.45,9.1,9.45a36.364,36.364,0,0,0,5.25-.7c4.2-1.05,7.7-3.85,14-11.55,4.551-5.25,8.051-9.1,9.8-9.1,3.5,0-8.4,19.6-11.9,19.6-1.4,0-2.1.7-2.1,1.4,0,1.05-3.15,3.5-7,5.25s-5.949,2.45-8.05,2.45A17.419,17.419,0,0,1,993.965,1183.267Z"/>
      <path class="cls-32" d="M1148.664,1190.267c-6.3-7-17.149-24.851-17.149-28.351,0-1.75-2.8-7.351-6.651-12.95-3.5-5.25-7.7-12.25-9.45-15.4l-3.15-5.6-6.3.7c-19.25,2.1-18.551,2.1-20.651,21.351-2.8,25.55-3.15,26.95-12.25,26.95q-5.775,0-7.35-3.15c-.7-1.05-.7-4.2-.7-7.7,0-6.65.7-15.751,2.45-18.2.7-1.051,3.5-16.1,5.95-33.951,4.55-34.3,7.7-43.051,14.7-45.151a26.01,26.01,0,0,1,5.25-1.049c1.4,0,1.75.7,3.151,2.1,1.049,1.05,1.4,3.85,1.4,7.35,0,7.7-1.75,19.6-4.9,29.751-2.1,6.65-3.151,10.85-3.151,12.95s1.05,2.8,3.151,2.8a26.623,26.623,0,0,0,4.9-.35c14-2.1,21.35-7.35,44.1-28.7,19.95-18.9,29.75-25.9,29.75-21.351,0,2.8-12.25,17.151-19.25,21.351a58.992,58.992,0,0,0-7,4.9c-2.1,2.1-21,17.151-23.8,18.9l-3.15,1.75,4.9,3.85c7,5.6,21.7,24.851,24.85,33.951,1.4,4.2,3.5,7.7,4.55,7.7.7,0,1.4,1.4,1.4,3.15s1.75,5.25,3.5,8.05l4.549,8.05c2.1,4.2,14.7,15.751,17.5,15.751,1.4,0,4.9-1.75,7.7-3.851s5.6-3.149,5.949-2.8.35.7.35,1.4c0,2.1-2.45,5.25-5.95,6.649a28.711,28.711,0,0,1-9.8,1.75C1167.915,1202.866,1156.015,1198.316,1148.664,1190.267Z"/>
    </g>
    <g>
      <path class="cls-32" d="M292.236,1041.465c-5.251-4.9-9.45-9.8-9.45-10.85s-3.151-9.45-7.7-18.551-8.05-16.8-8.05-17.5c0-.35-2.45-3.5-5.95-7-5.25-5.25-7.35-5.95-14-5.95-5.251,0-7.7.7-7.7,2.1,0,7.7-2.1,22.751-4.551,30.451s-5.95,12.25-9.1,12.25q-1.573,0-3.15-2.1c-1.4-1.75-1.75-11.549-1.75-24.5,0-26.25,2.45-65.451,6.3-78.051,1.75-5.6,2.45-6.3,7-6.3,6.3,0,8.4,2.8,8.4,14,0,2.8,0,6.3-.35,10.15-.7,9.1-1.75,19.25-2.45,22.4a8.692,8.692,0,0,0-.35,2.8c0,2.1.7,3.151,1.75,3.5,9.8,2.451,15.4,3.851,19.95,3.851a17.3,17.3,0,0,0,8.4-1.75c4.2-1.75,11.2-6.65,16.1-11.9l8.4-8.75c0-2.451-.35-5.25-.35-7.7-.7-12.6-8.051-22.75-16.8-24.15-2.45-.35-4.9-.7-5.95-1.4-2.45-1.75-17.5-3.15-23.8-3.15-4.2,0-4.55-.35-2.45-1.75,1.05-.7,3.85-1.051,8.05-1.051,9.1,0,24.15,1.75,34.3,3.851,14.7,3.15,24.151,13.65,24.151,24.5,0,4.9-2.1,9.8-5.95,14.351-3.15,3.5-6.3,6.65-7,7-1.05.35-2.45,1.75-3.851,3.15s-7,4.55-12.25,7-10.15,4.9-10.5,5.6,3.85,5.6,8.75,11.2c5.25,6.3,10.851,14.35,12.951,19.951,5.25,13.649,15.75,31.5,19.95,36.4,1.75,2.1,5.6,4.9,8.4,6.651,2.1,1.4,3.5,2.1,4.9,2.1a7.365,7.365,0,0,0,3.849-1.4c4.9-3.149,11.55-4.9,11.55-3.149,0,.7-1.75,2.45-3.85,3.849a25.545,25.545,0,0,1-14.35,4.2C313.586,1055.815,302.036,1050.565,292.236,1041.465Z"/>
      <path class="cls-32" d="M355.234,1030.265c-4.9-1.05-14.7-9.451-17.5-15.4-1.751-3.849-2.8-13.649-2.8-22.05,0-4.2,0-8.049.7-10.85l3.151-14.35c2.45-10.85,10.15-24.5,17.849-30.451,3.151-2.45,9.8-5.6,14.351-7.35q7.875-3.15,13.65-3.15c4.55,0,9.1,1.4,14.351,4.2,10.5,5.25,16.1,11.55,16.1,18.55,0,13.65-4.2,33.6-8.049,43.051-2.1,5.251-5.25,12.251-6.3,15.4-2.45,7-11.2,16.8-21,21.351a25.578,25.578,0,0,1-11.55,2.8A69.943,69.943,0,0,1,355.234,1030.265Zm18.9-4.9c8.75-3.85,11.9-7.35,18.2-17.15,8.05-12.6,12.951-28.7,14.351-46.2.35-5.25,1.05-10.5,1.4-15.75l-2.8-4.2c-1.75-2.45-4.9-5.25-7.351-5.6a26.951,26.951,0,0,1-9.1-3.5c-2.45-1.4-3.85-2.1-5.25-2.1a19.628,19.628,0,0,0-5.25,1.4c-12.6,4.549-16.8,12.25-22.05,40.6-1.75,10.151-2.8,18.9-2.8,26.25,0,12.95,3.149,21.351,9.45,26.251l4.2,3.15Z"/>
      <path class="cls-32" d="M523.929,1025.365c0-10.85.7-27.65,1.4-50.4.349-10.15.7-18.9.7-25.2s-.35-10.151-.7-10.151c-3.5,0-26.951,42.7-28.7,52.152a28.915,28.915,0,0,1-5.251,12.95,7.961,7.961,0,0,1-5.949,2.8c-5.251,0-9.1-6.651-11.551-18.9a113.975,113.975,0,0,0-3.849-15.05,80.335,80.335,0,0,1-3.151-9.8c-2.1-8.05-7-16.451-8.4-14.351-3.149,4.551-4.9,10.851-6.649,22.751a132.87,132.87,0,0,1-3.5,16.45c-.7,2.45-2.45,12.25-3.85,22.051-2.8,19.25-2.8,21-6.3,21-1.4,0-2.1-3.85-2.1-7.7,0-3.5.35-7.351,1.4-9.45,1.4-2.8,4.2-22.051,8.05-43.751,1.05-5.951,2.8-13.3,4.2-15.75,1.4-2.8,3.851-10.851,5.25-17.851,1.4-7.7,3.5-12.95,4.55-12.95h1.75c2.45,0,4.9.35,5.95,1.4,4.2,4.2,8.751,14.351,9.8,19.95,1.75,10.151,7.7,29.751,9.45,34.3,1.05,2.8,2.45,4.2,3.85,4.2,2.45,0,4.9-3.5,7-10.15a38.263,38.263,0,0,1,6.65-12.25c3.15-3.5,4.9-7,4.9-7.7,0-1.75,4.9-11.551,7.7-12.95.7-.351,3.5-4.9,6.3-9.8,3.5-5.95,6.651-9.1,9.1-9.1h3.85c7.35,0,9.1.7,9.1,10.5,0,3.151,0,7.351-.35,12.95-.7,12.6-1.05,24.851-1.75,37.452-.7,11.549-1.4,21.349-2.1,22.4-.351.7-1.05,8.05-1.75,16.45-.7,9.45-2.1,15.4-3.851,15.75l-3.149.7c-3.15.7-6.3,1.05-7,.35S523.929,1033.415,523.929,1025.365Z"/>
      <path class="cls-32" d="M592.177,980.914c0-1.75,1.4-2.8,4.55-3.5l37.1-3.85c1.4,0,2.45,1.05,3.5,1.05,1.4,0,2.1,0,2.8-.7.35-.35.7-.7,1.05-.7s.7.35,1.051.7h18.2c9.1,0,18.55,0,18.9.35,4.2.35,6.65,2.45,8.75,4.9a15.159,15.159,0,0,1,.35,1.75c0,1.4-.35,3.15-1.75,3.5h-44.45c-1.05,0-2.8-.35-4.551-.35l-28.7,3.5h-10.85C594.977,987.564,592.177,983.015,592.177,980.914Z"/>
      <path class="cls-32" d="M759.125,1033.065c-19.951-6.3-28.7-20.65-28.7-45.5a179.641,179.641,0,0,1,1.4-18.2c2.8-22.4,22.4-46.2,43.751-53.2,3.5-1.05,5.95-1.75,8.05-1.75,3.5,0,5.95,1.4,9.8,4.2,5.95,4.55,10.5,15.05,10.5,23.8,0,8.4-4.551,18.2-8.751,18.2-2.1,0-3.15-.35-3.15-2.1,0-1.05.7-3.151,1.75-6.651a29.777,29.777,0,0,0,1.4-8.05c0-7-2.449-14-6.65-18.2l-5.25-5.25-4.9,2.45c-5.95,3.15-15.051,15.75-18.9,25.9-5.25,13.3-7.7,30.1-7.7,44.45,0,9.8,1.4,18.551,3.851,24.15,3.149,7,4.9,9.451,9.1,9.451a36.28,36.28,0,0,0,5.25-.7c4.2-1.049,7.7-3.849,14-11.549,4.55-5.25,8.05-9.1,9.8-9.1,3.5,0-8.4,19.6-11.9,19.6-1.4,0-2.1.7-2.1,1.4,0,1.05-3.15,3.5-7,5.25s-5.949,2.45-8.049,2.45A17.405,17.405,0,0,1,759.125,1033.065Z"/>
      <path class="cls-32" d="M845.224,1030.265c-4.9-1.05-14.7-9.451-17.5-15.4-1.75-3.849-2.8-13.649-2.8-22.05,0-4.2,0-8.049.7-10.85l3.15-14.35c2.451-10.85,10.151-24.5,17.85-30.451,3.15-2.45,9.8-5.6,14.351-7.35q7.875-3.15,13.65-3.15c4.55,0,9.1,1.4,14.351,4.2,10.5,5.25,16.1,11.55,16.1,18.55,0,13.65-4.2,33.6-8.05,43.051-2.1,5.251-5.25,12.251-6.3,15.4-2.451,7-11.2,16.8-21,21.351a25.578,25.578,0,0,1-11.55,2.8A69.943,69.943,0,0,1,845.224,1030.265Zm18.9-4.9c8.75-3.85,11.9-7.35,18.2-17.15,8.05-12.6,12.95-28.7,14.351-46.2.349-5.25,1.05-10.5,1.4-15.75l-2.8-4.2c-1.75-2.45-4.9-5.25-7.35-5.6a26.951,26.951,0,0,1-9.1-3.5c-2.45-1.4-3.85-2.1-5.25-2.1a19.628,19.628,0,0,0-5.25,1.4c-12.6,4.549-16.8,12.25-22.051,40.6-1.75,10.151-2.8,18.9-2.8,26.25,0,12.95,3.149,21.351,9.45,26.251l4.2,3.15Z"/>
      <path class="cls-32" d="M1013.919,1025.365c0-10.85.7-27.65,1.4-50.4.35-10.15.7-18.9.7-25.2s-.35-10.151-.7-10.151c-3.5,0-26.95,42.7-28.7,52.152a28.927,28.927,0,0,1-5.251,12.95,7.961,7.961,0,0,1-5.949,2.8c-5.251,0-9.1-6.651-11.551-18.9a114.293,114.293,0,0,0-3.849-15.05,80.162,80.162,0,0,1-3.151-9.8c-2.1-8.05-7-16.451-8.4-14.351-3.15,4.551-4.9,10.851-6.65,22.751a132.489,132.489,0,0,1-3.5,16.45c-.7,2.45-2.449,12.25-3.849,22.051-2.8,19.25-2.8,21-6.3,21-1.4,0-2.1-3.85-2.1-7.7,0-3.5.351-7.351,1.4-9.45,1.4-2.8,4.2-22.051,8.05-43.751,1.049-5.951,2.8-13.3,4.2-15.75,1.4-2.8,3.85-10.851,5.25-17.851,1.4-7.7,3.5-12.95,4.55-12.95h1.751c2.449,0,4.9.35,5.949,1.4,4.2,4.2,8.751,14.351,9.8,19.95,1.75,10.151,7.7,29.751,9.45,34.3,1.05,2.8,2.45,4.2,3.849,4.2,2.451,0,4.9-3.5,7-10.15a38.286,38.286,0,0,1,6.651-12.25c3.15-3.5,4.9-7,4.9-7.7,0-1.75,4.9-11.551,7.7-12.95.7-.351,3.5-4.9,6.3-9.8,3.5-5.95,6.651-9.1,9.1-9.1h3.849c7.351,0,9.1.7,9.1,10.5,0,3.151,0,7.351-.351,12.95-.7,12.6-1.049,24.851-1.75,37.452-.7,11.549-1.4,21.349-2.1,22.4-.351.7-1.051,8.05-1.75,16.45-.7,9.45-2.1,15.4-3.851,15.75l-3.149.7c-3.151.7-6.3,1.05-7,.35S1013.919,1033.415,1013.919,1025.365Z"/>
    </g>
  </g>
  <g id="hearts">
    <path class="cls-47" d="M87.606,944.013c-5.576-.512-11.906,2.5-13.173,7.95-1.281,5.514,2.835,10.724,6.895,14.669,10.576,10.275,22.713,18.78,34.792,27.237,1.767,1.237,4.16,2.49,5.917,1.239l6.446-39.019c.716-4.335,1.433-8.764.709-13.1s-3.164-8.63-7.18-10.41c-5.022-2.225-11.223.2-14.62,4.513a19.358,19.358,0,0,0-3.247,6.447c-.574,1.913-.326,4.62-2.654,5.135-1.963.435-4.431-1.575-6.073-2.352A23.359,23.359,0,0,0,87.606,944.013Z"/>
    <path class="cls-48" d="M160.942,984.126c-2.576-2.243-6.78-3.015-9.354-.769-2.6,2.27-2.425,6.317-1.825,9.717,1.565,8.858,4.533,17.4,7.49,25.891.432,1.242,1.169,2.716,2.485,2.725l17.114-17a24.472,24.472,0,0,0,5.025-6.225c1.188-2.4,1.515-5.4.163-7.711-1.689-2.893-5.621-3.909-8.842-2.986a11.817,11.817,0,0,0-3.908,2.03c-.966.742-1.81,2.169-3.145,1.593-1.126-.485-1.629-2.36-2.164-3.331A14.275,14.275,0,0,0,160.942,984.126Z"/>
    <path class="cls-49" d="M1176.142,949.306c5.576-.511,11.906,2.5,13.173,7.95,1.281,5.514-2.835,10.725-6.895,14.67-10.575,10.275-22.713,18.78-34.792,27.237-1.766,1.237-4.16,2.49-5.917,1.239l-6.446-39.02c-.716-4.334-1.432-8.763-.708-13.1s3.164-8.629,7.18-10.409c5.021-2.225,11.222.2,14.619,4.513a19.351,19.351,0,0,1,3.248,6.447c.574,1.913.325,4.62,2.653,5.135,1.963.434,4.431-1.575,6.073-2.352A23.368,23.368,0,0,1,1176.142,949.306Z"/>
    <path class="cls-24" d="M1102.807,989.419c2.575-2.243,6.78-3.014,9.353-.768,2.6,2.27,2.425,6.316,1.825,9.717-1.564,8.857-4.533,17.4-7.489,25.891-.433,1.242-1.17,2.716-2.485,2.724l-17.115-17a24.468,24.468,0,0,1-5.024-6.225c-1.189-2.4-1.515-5.4-.164-7.712,1.69-2.893,5.622-3.908,8.842-2.985a11.807,11.807,0,0,1,3.908,2.03c.967.741,1.81,2.169,3.145,1.593,1.126-.486,1.63-2.361,2.165-3.331A14.256,14.256,0,0,1,1102.807,989.419Z"/>
  </g>
</svg>
