<svg xmlns="http://www.w3.org/2000/svg" xmlns:xlink="http://www.w3.org/1999/xlink" viewBox="0 0 1247 1247">
  <defs>
    <style>
      .cls-1, .cls-10, .cls-11, .cls-13, .cls-14, .cls-15, .cls-16, .cls-17, .cls-18, .cls-19, .cls-20, .cls-23, .cls-26, .cls-27, .cls-30, .cls-34, .cls-35, .cls-7 {
        fill: none;
      }

      .cls-2 {
        fill: #ccc;
        stroke: #ccc;
      }

      .cls-14, .cls-15, .cls-16, .cls-17, .cls-18, .cls-19, .cls-2, .cls-20, .cls-30, .cls-35 {
        stroke-linecap: round;
      }

      .cls-18, .cls-2 {
        stroke-linejoin: round;
      }

      .cls-3 {
        fill: #84c6b9;
      }

      .cls-4 {
        fill: #32a08b;
      }

      .cls-5 {
        fill: #042a37;
      }

      .cls-6 {
        fill: #212223;
      }

      .cls-7 {
        stroke: #111112;
      }

      .cls-10, .cls-11, .cls-13, .cls-14, .cls-15, .cls-16, .cls-17, .cls-19, .cls-20, .cls-23, .cls-26, .cls-27, .cls-30, .cls-34, .cls-7 {
        stroke-miterlimit: 10;
      }

      .cls-14, .cls-23, .cls-7 {
        stroke-width: 3px;
      }

      .cls-8 {
        fill: #4d4e4f;
      }

      .cls-9 {
        fill: #d3d3d3;
      }

      .cls-10, .cls-11 {
        stroke: #212223;
      }

      .cls-10, .cls-11, .cls-26, .cls-27 {
        stroke-width: 2px;
      }

      .cls-11, .cls-27 {
        stroke-dasharray: 6.182 6.182;
      }

      .cls-12 {
        fill: #721920;
      }

      .cls-13, .cls-14, .cls-15 {
        stroke: #561318;
      }

      .cls-13, .cls-15 {
        stroke-width: 1.5px;
      }

      .cls-14 {
        stroke-dasharray: 10;
      }

      .cls-16, .cls-17 {
        stroke: #dbcc8a;
        stroke-width: 4px;
      }

      .cls-17 {
        stroke-dasharray: 19.313 19.313;
      }

      .cls-18 {
        stroke: #1c0608;
        stroke-width: 10px;
      }

      .cls-19 {
        stroke: #160506;
        stroke-width: 5px;
      }

      .cls-20 {
        stroke: #0e0a32;
      }

      .cls-20, .cls-30 {
        stroke-width: 8px;
      }

      .cls-21 {
        fill: #b86267;
      }

      .cls-22 {
        fill: #1e214c;
      }

      .cls-23 {
        stroke: #0f1126;
      }

      .cls-24 {
        fill: #4b4d70;
      }

      .cls-25 {
        fill: #d2d3db;
      }

      .cls-26, .cls-27 {
        stroke: #4b4d70;
      }

      .cls-28 {
        fill: #fffffa;
      }

      .cls-29 {
        fill: #f2f2e4;
      }

      .cls-30, .cls-35 {
        stroke: #332833;
      }

      .cls-31 {
        fill: #f7f7ef;
      }

      .cls-32 {
        fill: url(#New_Pattern);
      }

      .cls-33 {
        fill: #fbb03b;
      }

      .cls-34 {
        stroke: #e6e6e6;
        stroke-width: 6px;
      }

      .cls-35 {
        stroke-linejoin: bevel;
        stroke-width: 11px;
      }

      .cls-36 {
        fill: #332833;
      }
    </style>
    <pattern id="New_Pattern" data-name="New Pattern" width="24.358" height="15.401" patternTransform="translate(5.087 9.953) scale(0.836)" patternUnits="userSpaceOnUse" viewBox="0 0 24.358 15.401">
      <rect class="cls-1" width="24.358" height="15.401"/>
      <g>
        <line class="cls-2" x1="24.619" y1="15.828" x2="48.457" y2="30.375"/>
        <line class="cls-2" x1="48.457" y1="15.828" x2="24.619" y2="30.375"/>
      </g>
      <g>
        <line class="cls-2" x1="0.26" y1="15.828" x2="24.098" y2="30.375"/>
        <line class="cls-2" x1="24.098" y1="15.828" x2="0.26" y2="30.375"/>
      </g>
      <g>
        <line class="cls-2" x1="-24.098" y1="15.828" x2="-0.26" y2="30.375"/>
        <line class="cls-2" x1="-0.26" y1="15.828" x2="-24.098" y2="30.375"/>
      </g>
      <g>
        <line class="cls-2" x1="24.619" y1="0.427" x2="48.457" y2="14.974"/>
        <line class="cls-2" x1="48.457" y1="0.427" x2="24.619" y2="14.974"/>
      </g>
      <g>
        <line class="cls-2" x1="0.26" y1="0.427" x2="24.098" y2="14.974"/>
        <line class="cls-2" x1="24.098" y1="0.427" x2="0.26" y2="14.974"/>
      </g>
      <g>
        <line class="cls-2" x1="-24.098" y1="0.427" x2="-0.26" y2="14.974"/>
        <line class="cls-2" x1="-0.26" y1="0.427" x2="-24.098" y2="14.974"/>
      </g>
      <g>
        <line class="cls-2" x1="24.619" y1="-14.974" x2="48.457" y2="-0.427"/>
        <line class="cls-2" x1="48.457" y1="-14.974" x2="24.619" y2="-0.427"/>
      </g>
      <g>
        <line class="cls-2" x1="0.26" y1="-14.974" x2="24.098" y2="-0.427"/>
        <line class="cls-2" x1="24.098" y1="-14.974" x2="0.26" y2="-0.427"/>
      </g>
      <g>
        <line class="cls-2" x1="-24.098" y1="-14.974" x2="-0.26" y2="-0.427"/>
        <line class="cls-2" x1="-0.26" y1="-14.974" x2="-24.098" y2="-0.427"/>
      </g>
    </pattern>
  </defs>
  <g id="Layer_9" data-name="Layer 9">
    <polyline class="cls-3" points="1262.311 -15.311 -15.311 -15.311 -15.311 1262.311"/>
    <polyline class="cls-4" points="-15.311 1262.311 1262.311 1262.311 1262.311 -15.311"/>
  </g>
  <g id="doc_s_sock" data-name="doc&apos;s sock">
    <path class="cls-5" d="M235.6,538.866c-35.544,25.824-82.792,25.128-114.262-.287-25.212-20.361-37.119-54.024-31.631-87.537q-2.12-52.911-4.24-105.821a12.035,12.035,0,0,1,12-12H235.6a12.035,12.035,0,0,1,12,12V526.866A12.035,12.035,0,0,1,235.6,538.866Z"/>
  </g>
  <g id="doc_s_leg" data-name="doc&apos;s leg">
    <rect class="cls-6" x="61.134" y="-27.801" width="210.808" height="383.6" rx="12"/>
    <line class="cls-7" x1="166.538" y1="-11.823" x2="166.538" y2="360.951"/>
    <path class="cls-8" d="M278.6,381.321a993.83,993.83,0,0,1-223.152,8.293c-7-.527-12.268-6.424-11.7-13q.96-11.334,1.939-22.665a12.231,12.231,0,0,1,13.149-10.96,947.064,947.064,0,0,0,212.686-7.878,12.21,12.21,0,0,1,13.843,9.967q1.854,11.221,3.729,22.44C290.2,374.026,285.488,380.282,278.6,381.321Z"/>
    <path class="cls-9" d="M179.786,392.468l-24.567.944a4.016,4.016,0,0,1-4.156-3.849l.37-42.6a3.628,3.628,0,0,1,3.368-3.845l21.544-.828A3.627,3.627,0,0,1,180,345.862l3.638,42.45A4.016,4.016,0,0,1,179.786,392.468Z"/>
    <line class="cls-10" x1="165.573" y1="342.701" x2="167.503" y2="392.94"/>
    <g>
      <line class="cls-10" x1="160.573" y1="342.701" x2="160.707" y2="346.199"/>
      <line class="cls-11" x1="160.944" y1="352.376" x2="162.25" y2="386.354"/>
      <line class="cls-10" x1="162.368" y1="389.443" x2="162.503" y2="392.94"/>
    </g>
    <g>
      <line class="cls-10" x1="170.573" y1="342.701" x2="170.707" y2="346.199"/>
      <line class="cls-11" x1="170.944" y1="352.376" x2="172.25" y2="386.354"/>
      <line class="cls-10" x1="172.368" y1="389.443" x2="172.503" y2="392.94"/>
    </g>
  </g>
  <g id="doc_marten" data-name="doc marten">
    <path class="cls-12" d="M81.65,438.368s8.234,69.584,8.234,109.654S41.631,690.273,50.567,738.357L59.5,786.442s144.281,11.191,165.964,10.6,109.253,11.435,134.277,13.439c54.655,4.376,110.242,3.744,162.993-12.827,21.593-6.783,57.88-16.516,69.605-36.688a45.545,45.545,0,0,0,4.912-13.368c5.688-26.621-12.716-52.419-39.682-56.144-30.45-4.206-102.671-9.665-126.994-11.2-6.483-.409-12.918-3.478-18.691-6.211A276.286,276.286,0,0,1,385.1,659.114a763.464,763.464,0,0,1-62.973-43.989c-17.477-13.4-34.934-27.225-50.626-42.72-5.619-5.548-11.576-11.378-13.259-19.4a113.278,113.278,0,0,1-1.674-13.8c-.95-11.435-1.244-22.926-1.416-34.395-.338-22.558-.011-45.129.6-67.679.1-3.775.208-7.549.343-11.322Z"/>
    <g id="Layer_12" data-name="Layer 12">
      <path class="cls-13" d="M59.5,665.99c27.35-6.155,59.193-5.73,82.974,10.9,36.659,25.63,42.615,74.318,37.244,103.661-.291,1.591-.574,2.9-.777,3.8"/>
      <path class="cls-14" d="M62.381,663.248c27.351-6.156,59.193-5.73,82.975,10.9,36.658,25.63,42.615,74.318,37.244,103.662-.291,1.59-.575,2.9-.778,3.795"/>
    </g>
    <g id="Layer_13" data-name="Layer 13">
      <path class="cls-15" d="M208.085,437.163s2.749,99.871,6.414,120.029,39.4,59.556,73.3,85.212,92.541,57.723,92.541,57.723"/>
      <g id="Layer_16" data-name="Layer 16">
        <path class="cls-13" d="M380.34,700.127v23.219c0-6.3-54.651-9.567-60.085-9.675-53.326-1.058-112.365,15.106-130,71.379"/>
        <path class="cls-14" d="M187.746,781.6a92.368,92.368,0,0,1,15.19-30.2c49.154-64.068,168.714-35.552,174.391-34.123"/>
      </g>
    </g>
    <path d="M600.713,822.938a62.666,62.666,0,0,1-8.05,4.95c-.81-.92-1.61-1.87-2.49-2.86-.17-.19-1.84.39-2.68.79s-4.5,1.87-5.38,2.16-2.48,1.03-2.48,1.28c.08,1.72.2,3.29.27,4.86-6.35,2.86-13.87,5.94-22.34,9.03-1.19-1.48-2.27-3-3.54-4.65-.15-.2-1.87.26-2.73.6s-4.64,1.55-5.54,1.78-2.56.85-2.57,1.1c-.05,2.19-.02,4.14-.13,6.15-7.1,2.28-14.68,4.51-22.65,6.58-1.22-1.7-2.26-3.42-3.51-5.31-.14-.21-1.89.13-2.78.41s-4.75,1.22-5.68,1.38-2.62.67-2.65.92c-.21,2.22-.32,4.2-.58,6.24-7.56,1.66-15.39,3.15-23.43,4.41-.98-1.64-1.84-3.29-2.87-5.09-.12-.22-1.9,0-2.81.21s-4.85.89-5.79.99-2.68.48-2.73.73c-.31,1.83-.53,3.51-.84,5.19q-5.67.645-11.44,1.11-6.66.525-13.42.9c-.54-1.14-1.06-2.3-1.66-3.54-.11-.23-1.91-.14-2.84.01s-4.93.54-5.88.57-2.73.29-2.79.54c-.26,1.05-.48,2.05-.71,3.03-8.64.3-17.33.43-25.97.42-.34-.88-.69-1.79-1.07-2.73-.09-.24-1.9-.28-2.85-.19s-5,.19-5.95.15-2.77.1-2.84.34c-.26.8-.49,1.57-.73,2.32-9.04-.14-17.98-.4-26.72-.75-.18-.6-.38-1.21-.58-1.84-.08-.24-1.9-.41-2.86-.39s-5.04-.17-6-.27-2.79-.1-2.88.13c-.25.61-.48,1.19-.7,1.77-9.41-.48-18.5-1.04-27.14-1.64-.12-.46-.23-.94-.35-1.42-.07-.25-1.89-.55-2.86-.6s-5.06-.53-6.02-.71-2.8-.3-2.91-.08c-.32.64-.61,1.26-.9,1.87-9.71-.74-18.67-1.49-26.65-2.16-.23-1.31-.44-2.63-.7-4.06-.05-.26-1.87-.69-2.84-.81s-5.07-.91-6.02-1.16-2.81-.51-2.94-.29c-1.04,1.79-1.92,3.42-2.92,5.04-.95-.07-1.88-.14-2.78-.21-37.43-2.88-58.77-13.09-58.77-13.09s-28.35-12.44-29.84-6.97-11.36,17.23-11.36,17.23c-1.12.68-7.45,1.07-16.72,1.26l-1.86-5.66a5.972,5.972,0,0,0-2.67-.32h-6.01a5.972,5.972,0,0,0-2.67.32l-1.91,5.81c-7,.03-14.69-.01-22.56-.09l-1.88-5.72a5.972,5.972,0,0,0-2.67-.32h-6.02a5.972,5.972,0,0,0-2.67.32l-1.82,5.54c-7.91-.11-15.69-.24-22.83-.38l-1.7-5.16a5.972,5.972,0,0,0-2.67-.32h-6.02a5.972,5.972,0,0,0-2.67.32l-1.6,4.86c-11.74-.25-19.55-.46-19.55-.46-1.81-.05,1.43-28.59,1.73-31.32,1.47-13.22,3.88-26.76,9.76-38.8.9-1.85,3.51-8.73,6.22-8.63l246.04,11.49c95.19,4.44,205.68,15.14,292.52-32.3,0,0,7.1,7.36,11.42,20.36a162.888,162.888,0,0,1,4.89,20.98A24.665,24.665,0,0,1,600.713,822.938Z"/>
    <g id="yellow_stitches" data-name="yellow stitches">
      <g>
        <path class="cls-16" d="M59.5,786.442c2.921.068,6.263.15,9.992.25"/>
        <path class="cls-17" d="M88.8,787.273c12.395.414,27,.979,43.2,1.754,211.052,10.1,288.454,36.513,398.018-.767a401.364,401.364,0,0,0,44.81-18.355"/>
        <path class="cls-16" d="M583.485,765.616q4.342-2.213,8.857-4.646"/>
      </g>
    </g>
    <g id="Layer_14" data-name="Layer 14">
      <line class="cls-18" x1="81.65" y1="438.368" x2="256.087" y2="425.807"/>
    </g>
    <g id="Layer_17" data-name="Layer 17">
      <circle class="cls-19" cx="229.975" cy="461.366" r="6.73"/>
      <circle class="cls-19" cx="229.975" cy="502.92" r="6.73"/>
      <circle class="cls-19" cx="234.725" cy="545.596" r="6.73"/>
      <circle class="cls-19" cx="251.915" cy="583.277" r="6.73"/>
      <circle class="cls-19" cx="282.536" cy="612.568" r="6.73"/>
      <circle class="cls-19" cx="317.146" cy="638.907" r="6.73"/>
      <circle class="cls-19" cx="350.405" cy="661.348" r="6.73"/>
      <circle class="cls-19" cx="384.057" cy="681.296" r="6.73"/>
    </g>
    <g id="Layer_18" data-name="Layer 18">
      <path class="cls-20" d="M229.975,461.366a90.254,90.254,0,0,0,27.386,22.9"/>
      <path class="cls-20" d="M229.975,502.92A40.491,40.491,0,0,0,246.619,515.9a38.735,38.735,0,0,0,8.821,2.457"/>
      <path class="cls-20" d="M234.725,545.6a49.245,49.245,0,0,0,25.759,10.353"/>
      <path class="cls-20" d="M251.915,583.277a53.792,53.792,0,0,0,22.052,4.625,52.848,52.848,0,0,0,12.506-1.6"/>
      <path class="cls-20" d="M282.536,612.568a63.661,63.661,0,0,0,26.638,4.615,61.6,61.6,0,0,0,10.457-1.395"/>
      <path class="cls-20" d="M317.146,638.907a49.852,49.852,0,0,0,27.235,3.025,46.9,46.9,0,0,0,10.1-3.025"/>
      <path class="cls-20" d="M350.405,661.348a64.372,64.372,0,0,0,40.382,0"/>
      <path class="cls-20" d="M384.057,681.3a108.606,108.606,0,0,0,39.172-2.5"/>
    </g>
  </g>
  <g id="chuck_s_sock" data-name="chuck&apos;s sock">
    <path class="cls-21" d="M1162.427,601.864h-129a12.035,12.035,0,0,1-12-12V437.807a12.035,12.035,0,0,1,12-12h129a12.035,12.035,0,0,1,12,12q-2.611,76.287-5.224,152.576a6.78,6.78,0,0,1-6.776,11.481Z"/>
  </g>
  <g id="chuck_s_leg" data-name="chuck&apos;s leg">
    <rect class="cls-22" x="992.525" y="-14.941" width="210.808" height="421.249" rx="12" transform="translate(2195.858 391.367) rotate(-180)"/>
    <line class="cls-23" x1="1097.929" y1="-8.347" x2="1097.929" y2="411.46"/>
    <path class="cls-24" d="M985.867,431.829a993.765,993.765,0,0,0,223.151,8.294c7-.527,12.268-6.423,11.7-13q-.96-11.334-1.939-22.666a12.231,12.231,0,0,0-13.149-10.959,947.123,947.123,0,0,1-212.686-7.878,12.21,12.21,0,0,0-13.843,9.966q-1.854,11.223-3.729,22.441C974.266,424.535,978.978,430.791,985.867,431.829Z"/>
    <g id="Layer_22" data-name="Layer 22">
      <g>
        <path class="cls-25" d="M1084.68,442.977l24.568.944a4.017,4.017,0,0,0,4.156-3.849l-.37-42.6a3.628,3.628,0,0,0-3.368-3.845l-21.544-.828a3.627,3.627,0,0,0-3.652,3.575l-3.638,42.45A4.016,4.016,0,0,0,1084.68,442.977Z"/>
        <line class="cls-26" x1="1098.894" y1="393.21" x2="1096.964" y2="443.449"/>
        <g>
          <line class="cls-26" x1="1103.894" y1="393.21" x2="1103.76" y2="396.707"/>
          <line class="cls-27" x1="1103.522" y1="402.885" x2="1102.217" y2="436.863"/>
          <line class="cls-26" x1="1102.099" y1="439.952" x2="1101.964" y2="443.449"/>
        </g>
        <g>
          <line class="cls-26" x1="1093.894" y1="393.21" x2="1093.76" y2="396.707"/>
          <line class="cls-27" x1="1093.522" y1="402.885" x2="1092.217" y2="436.863"/>
          <line class="cls-26" x1="1092.099" y1="439.952" x2="1091.964" y2="443.449"/>
        </g>
      </g>
    </g>
  </g>
  <g id="converse">
    <g id="mid">
      <path class="cls-28" d="M663.625,774.429s-7.311,12.937-8.065,18.354l-.754,5.418s12.619,13.578,78.346,14.332q27.469.315,54.941.356,25.837.027,51.675-.227,25.9-.254,51.8-.756,27.8-.525,55.605-1.23,31.548-.777,63.092-1.646c32.95-.889,65.9-1.939,98.846-2.83,5.209-.141,76.412-2.266,75.81,1.423a94.153,94.153,0,0,0,.83-24.411q-.1-.981-.212-1.947s-.183-6.836-6.123-6.836Z"/>
    </g>
    <g id="lower_right" data-name="lower right">
      <path class="cls-29" d="M817.672,811.231l361.612-7.482c10.6-.222,7.66,18.388,7.66,18.388-.933,13.652-2.333,26.645-7.02,35.2a8.373,8.373,0,0,1-7.2,4.368l-359.968,6.127v-56.5Z"/>
      <line id="bottom_piping" data-name="bottom piping" class="cls-30" x1="812.758" y1="842.163" x2="1182.634" y2="835.871"/>
    </g>
    <g id="lower_left" data-name="lower left">
      <path class="cls-31" d="M646.72,823.487a62.84,62.84,0,0,1-6.609-2.462,37.3,37.3,0,0,0,2.126,8.243,26.543,26.543,0,0,0,2.9,5.522c8.9,12.768,28.11,15.2,42.122,18.174,41.255,8.759,83.256,14.867,125.5,14.867V843.65c-.467-.027-.934-.059-1.4-.106C756.2,840.2,700.206,841.872,646.72,823.487Z"/>
      <path class="cls-31" d="M711.038,810.813c-18.537-1.735-36.353-4.578-53.792-11.276a3.468,3.468,0,0,1-2.124-1.731c-.126-.328-.133-.592.1-2.059.195-1.24.409-2.478.679-3.7.033-.151.644-2.635.708-2.606a2.953,2.953,0,0,0-.818-.133c-.346-.047-.694-.086-1.042-.116-.452-.04-.932-.078-1.419-.093a7.028,7.028,0,0,0-3.036.453,9.478,9.478,0,0,0-3.317,2.021q-.294.274-.567.572a19.514,19.514,0,0,0-3.1,4.94,37.535,37.535,0,0,0-3.128,10.421,45.811,45.811,0,0,0-.344,11.257c.07.757.164,1.512.272,2.266a62.84,62.84,0,0,0,6.609,2.462c53.486,18.385,109.48,16.714,164.637,20.057.467.047.934.079,1.4.106V811.333C778.811,811.671,744.927,813.985,711.038,810.813Z"/>
      <path class="cls-32" d="M711.038,810.813c-18.537-1.735-36.353-4.578-53.792-11.276a3.468,3.468,0,0,1-2.124-1.731c-.126-.328-.133-.592.1-2.059.195-1.24.409-2.478.679-3.7.033-.151.644-2.635.708-2.606a2.953,2.953,0,0,0-.818-.133c-.346-.047-.694-.086-1.042-.116-.452-.04-.932-.078-1.419-.093a7.028,7.028,0,0,0-3.036.453,9.478,9.478,0,0,0-3.317,2.021q-.294.274-.567.572a19.514,19.514,0,0,0-3.1,4.94,37.535,37.535,0,0,0-3.128,10.421,45.811,45.811,0,0,0-.344,11.257c.07.757.164,1.512.272,2.266a62.84,62.84,0,0,0,6.609,2.462c53.486,18.385,109.48,16.714,164.637,20.057.467.047.934.079,1.4.106V811.333C778.811,811.671,744.927,813.985,711.038,810.813Z"/>
    </g>
    <path id="toe" class="cls-29" d="M756.838,735.863a1.53,1.53,0,0,0-1.215-.2c-20.629,3.268-40.691,9.588-59.923,17.659-9.843,4.13-34.314,11.21-32.328,25.6.132.954.54,3.1,4.934,6.395,10.811,8.109,64.846,7.447,64.846,7.447q6.13-14.712,12.208-29.446,2.978-7.171,5.98-14.332C753.039,744.946,756.138,739.971,756.838,735.863Z"/>
    <path class="cls-33" d="M1009.839,494.617s4.77,40.549-19.082,78.713S799.939,721.214,778.472,728.369l-21.467,7.156q-1.578,2.229-3.106,4.579a145.833,145.833,0,0,0-20.747,52.666l450.808-11.926s19.082-52.475,0-126.417-9.541-128.8-2.385-143.113L1188.731,497s-123.819,9.237-142.661,4.955S1009.839,494.617,1009.839,494.617Z"/>
    <g id="Layer_23" data-name="Layer 23">
      <circle class="cls-34" cx="1035.605" cy="559.799" r="10.697"/>
      <circle class="cls-34" cx="1010.734" cy="601.864" r="10.697"/>
      <circle class="cls-34" cx="977.3" cy="639.897" r="10.697"/>
      <circle class="cls-34" cx="937.561" cy="672.217" r="10.697"/>
      <circle class="cls-34" cx="896.829" cy="701.075" r="10.697"/>
      <circle class="cls-34" cx="853.78" cy="725.834" r="10.697"/>
      <circle class="cls-34" cx="807.215" cy="740.754" r="10.697"/>
    </g>
    <g id="top_piping" data-name="top piping">
      <polyline class="cls-35" points="882.215 789.139 962.102 786.92 1044.282 784.638 1118.009 782.59 1174.154 781.03 1180.846 780.844"/>
      <path class="cls-36" d="M663.625,779.631a12.387,12.387,0,0,0,5.044,5.309,22.364,22.364,0,0,0,6.831,2.652,46.688,46.688,0,0,0,7.322.983c2.5.187,5,.324,7.509.456,5.015.237,10.034.422,15.052.611,5.017.173,10.048.307,15.053.4l-.2,0c9.651-.588,19.306-.981,28.958-1.481l28.958-1.4q28.957-1.449,57.923-2.568,57.923-2.255,115.9-3.544t115.957-1.515c38.665-.03,77.334.1,116.031,1.316-38.579,3.261-77.187,5.435-115.8,7.45q-57.923,2.9-115.875,4.617-57.954,1.78-115.934,2.59-28.995.366-57.993.5c-9.665.08-19.337-.05-29.007-.148-9.67-.121-19.338-.136-29.008-.346l-.2,0c-5.043-.471-10.053-.984-15.073-1.537s-10.03-1.159-15.033-1.877c-2.5-.362-5-.728-7.5-1.146a43.877,43.877,0,0,1-7.5-1.749,23.622,23.622,0,0,1-6.857-3.543A12.4,12.4,0,0,1,663.625,779.631Z"/>
    </g>
  </g>
  <g id="rom-com_soundtrack" data-name="rom-com soundtrack">
    <g>
      <path class="cls-29" d="M201.232,1183.344c-4.352-3.535-10.064-13.872-10.064-18.224,0-1.9.544-2.72,1.36-2.72,1.36,0,3.808,2.72,6.256,7.616,2.176,4.08,4.9,7.888,5.984,8.432l6.528,3.264c4.9,2.448,8.432,2.721,8.432,1.088,0-.544,2.448-2.176,5.712-2.72a11.39,11.39,0,0,0,8.16-5.44,15.043,15.043,0,0,0,2.448-8.16c0-7.344-5.712-16.048-19.04-28.56-7.344-7.072-14.416-14.96-14.96-16.864a42.665,42.665,0,0,1-1.088-8.977,32.99,32.99,0,0,1,1.36-9.248c1.632-4.895,13.328-13.872,20.4-15.232a40.128,40.128,0,0,1,7.072-.816,13.668,13.668,0,0,1,6.528,1.632c2.176,1.088,4.624,2.176,5.44,2.176,3.808,0,11.969,14.688,8.432,14.688-2.448,0-5.712-2.992-6.527-5.712-1.089-4.08-8.433-7.616-15.5-7.616-4.08,0-6.528.817-9.792,4.08l-4.352,4.08c.272,2.993.272,6.256.544,9.248.544,10.609,1.36,11.424,18.5,29.105,11.968,12.512,14.961,17.408,14.961,25.024,0,5.984-5.985,15.232-11.969,18.224a49.615,49.615,0,0,1-21.488,4.9C209.12,1186.608,203.952,1185.521,201.232,1183.344Z"/>
      <path class="cls-29" d="M286.637,1178.72c-2.176-1.632-4.624-2.991-5.168-2.991-2.176,0-9.52-8.977-11.7-14.145a32.476,32.476,0,0,1-2.447-12.784,43.977,43.977,0,0,1,.544-8.16c2.72-19.313,11.424-33.456,24.208-39.713,5.168-2.448,8.7-3.808,10.336-3.808,2.448,0,1.088,2.72-4.352,8.7a45,45,0,0,0-8.16,12.512c-1.36,3.536-2.72,8.16-3.536,9.52a19,19,0,0,0-1.632,4.624,63.873,63.873,0,0,0-2.176,16.048c0,2.449.272,5.169.544,7.889.272,2.992.816,5.984,1.088,8.976L294.525,1176l5.712-.815c9.248-1.361,26.384-13.057,31.552-22.034,1.9-3.263,4.08-5.712,4.624-5.712,1.9,0,4.624-16.047,4.624-25.568s-1.088-11.7-3.808-15.775c-2.719-3.536-5.711-5.441-9.248-5.441-4.624,0-10.064,2.992-15.5,9.248-5.441,5.985-12.513,19.313-12.513,24.208,0,2.449-.544,3.809-1.9,3.809s-1.9-1.9-1.9-4.624a25.565,25.565,0,0,1,1.632-8.433c2.448-6.528,10.608-17.679,14.96-20.672a47.33,47.33,0,0,1,11.152-5.168,25.278,25.278,0,0,1,7.344-1.087c4.9,0,8.433,2.175,11.969,7.887,2.991,4.9,3.536,6.8,3.536,17.137,0,7.888-.545,13.328-2.177,16.319a63.408,63.408,0,0,0-3.807,8.977c-1.905,5.712-15.233,19.04-26.113,26.656-8.16,5.712-9.792,6.528-16.592,6.528C292.621,1181.44,289.357,1180.9,286.637,1178.72Z"/>
      <path class="cls-29" d="M387.546,1177.9c-4.624-.544-9.521-1.36-10.88-2.175-2.992-1.633-7.616-10.065-8.16-15.777a16.145,16.145,0,0,0-1.632-5.712c-.544-1.089-1.088-5.984-1.088-11.425,0-5.983.544-12.511,1.36-14.416s2.175-8.431,3.264-14.688c1.632-8.7,2.447-11.695,4.9-13.6a8.082,8.082,0,0,1,5.712-1.9c2.72,0,5.168,1.088,5.168,3.809a134.49,134.49,0,0,1-1.632,16.047,191.183,191.183,0,0,0-1.9,34c.273,5.985.273,12.241.545,18.225l2.992,2.992c2.176,2.176,3.808,2.449,6.256,1.9,4.08-.817,11.7-8.433,11.7-11.425,0-1.088,1.089-3.808,1.9-5.712a93.386,93.386,0,0,0,3.536-12.784c1.088-5.168,1.9-10.065,2.72-10.88.544-.544,1.9-5.168,3.264-10.065,1.088-3.536,1.9-7.343,2.993-10.88.815-1.9.815-2.719,2.447-10.335.544-2.449,1.089-4.625,1.36-4.625a8.857,8.857,0,0,0,2.72-.816,4.634,4.634,0,0,1,1.36-.544c.544,0,.544.273.544,1.088a18.638,18.638,0,0,1-.271,3.265c-1.9,13.6-3.809,19.311-5.441,22.032-1.087,1.9-2.992,8.16-4.08,14.143-2.175,12.513-6.256,23.665-7.887,25.3a5.159,5.159,0,0,0-1.089,3.264c0,1.36-2.72,4.9-6.256,7.616l-5.983,4.9Z"/>
      <path class="cls-29" d="M494.166,1179.536c-5.983-.544-8.976-3.264-11.424-11.968-.544-1.9-2.448-6.256-4.08-10.064-3.536-8.16-7.888-19.04-8.433-23.664-.271-1.9-1.9-5.441-3.535-8.16a66.865,66.865,0,0,1-3.808-7.073c-.544-1.631-1.36-2.448-1.905-2.448-1.087,0-1.9,1.361-2.719,3.809a49.9,49.9,0,0,1-1.632,4.895,7.722,7.722,0,0,0-1.088,3.536c0,5.441-2.448,16.049-3.265,19.584-.544,2.177-2.447,8.705-3.535,14.145-2.992,14.416-3.264,14.96-4.9,14.96-3.536,0-5.441-2.176-4.08-4.9,3.536-7.072,6.8-19.312,7.072-25.84.271-4.624,6.8-29.376,7.888-31.825a67.931,67.931,0,0,0,2.992-9.52c1.632-6.256,2.448-8.432,4.9-8.7h1.36a7.206,7.206,0,0,1,3.808.816c2.992,2.448,9.248,14.416,12.784,23.937,1.632,4.351,4.08,10.336,5.44,13.328a94.341,94.341,0,0,1,4.352,11.152q1.632,5.712,3.264,5.712c1.088,0,1.9-1.36,2.721-4.352a68.505,68.505,0,0,1,3.263-9.792,71.143,71.143,0,0,0,3.808-12.785c.816-4.08,2.177-9.248,3.536-11.423a15.773,15.773,0,0,0,2.176-5.168c0-1.361,9.52-14.96,12.24-16.865a14.418,14.418,0,0,1,4.624-2.175,44.521,44.521,0,0,1,6.257-.544h3.264l-3.264,1.359a51.249,51.249,0,0,0-6.528,3.809c-3.265,2.175-12.513,14.959-12.513,17.408a36.1,36.1,0,0,1-2.447,7.343c-1.361,2.993-3.809,11.7-5.441,19.041-1.631,7.616-3.536,14.959-4.351,16.864-.817,1.632-1.361,8.16-1.361,14.416,0,6.528-1.087,11.7-2.719,11.425Z"/>
      <path class="cls-29" d="M537.139,1171.648a19.465,19.465,0,0,1-.272-4.624c0-11.7,2.992-39.169,5.712-53.585,2.176-11.152,4.353-16.047,7.888-19.312,1.36-1.359,2.992-1.9,5.44-1.9,3.536,0,8.7,1.088,17.681,3.535,24.208,6.257,33.183,14.417,33.183,29.921,0,7.616-5.711,24.208-8.16,24.208-.544,0-2.719,2.448-4.895,5.712-2.72,4.08-6.528,6.8-14.689,10.88-11.7,5.712-25.024,9.249-29.1,8.432h-1.088a3.524,3.524,0,0,0-2.176.544C545.571,1177.632,538.228,1174.64,537.139,1171.648Zm17.952-1.36c8.432,0,16.864-3.808,24.209-11.152,3.807-3.808,7.072-7.888,7.072-8.976s1.632-4.08,3.264-6.8c2.448-4.08,2.992-6.8,2.992-16.591,0-13.872-1.632-17.136-12.24-22.849-5.441-2.992-12.241-4.9-16.321-4.9a5.847,5.847,0,0,0-2.719.544c-.817.544-2.993,12.241-4.624,26.113-1.633,13.6-3.809,25.84-4.353,27.2s-1.088,5.712-1.088,9.792v7.616Z"/>
      <path class="cls-29" d="M648.658,1182.256c-1.088-.816-1.632-2.176-1.632-5.984,0-2.176.273-5.168.544-9.248.544-7.616.817-15.5.817-17.68,0-6.256,4.08-42.977,5.439-45.425a3.614,3.614,0,0,0,.817-2.176q0-3.264-9.792-3.264c-1.632,0-3.537.272-5.712.272-9.793.544-11.969,1.088-13.872,3.536-1.633,1.9-3.537,2.992-5.169,2.992-1.088,0-2.448-.544-2.448-1.9,0-1.632,1.9-3.264,6.256-5.439,3.808-1.9,8.432-2.177,25.3-2.177,11.425,0,21.488.272,22.3.816s3.807.817,7.616.817c7.071,0,16.592-.817,19.04-2.177,4.624-2.447,5.712-2.447,5.712-.272,0,4.08-3.536,4.9-18.5,4.9-15.776,0-17.408.544-17.681,6.257-.271,7.615-3.536,42.16-4.08,44.064-.815,2.991-1.359,3.808-2.447,14.688-1.36,14.417-1.9,15.776-6.257,17.68a15.761,15.761,0,0,1-3.536,1.088C650.29,1183.616,649.746,1183.072,648.658,1182.256Z"/>
      <path class="cls-29" d="M768.88,1189.872c-4.08-3.808-7.344-7.616-7.344-8.432s-2.448-7.344-5.984-14.416-6.256-13.056-6.256-13.6a29.934,29.934,0,0,0-4.624-5.441c-4.08-4.08-5.712-4.624-10.88-4.624-4.08,0-5.984.544-5.984,1.633,0,5.984-1.632,17.68-3.537,23.664s-4.624,9.52-7.072,9.52a3.288,3.288,0,0,1-2.447-1.632c-1.089-1.359-1.36-8.976-1.36-19.04,0-20.4,1.9-50.864,4.895-60.656,1.36-4.353,1.9-4.9,5.441-4.9,4.9,0,6.528,2.176,6.528,10.88,0,2.176,0,4.9-.273,7.889-.544,7.071-1.359,14.96-1.9,17.408a6.757,6.757,0,0,0-.272,2.176c0,1.632.544,2.448,1.36,2.719,7.616,1.905,11.968,2.993,15.5,2.993a13.439,13.439,0,0,0,6.528-1.361c3.264-1.359,8.7-5.168,12.512-9.248l6.528-6.8c0-1.9-.272-4.08-.272-5.984-.544-9.792-6.256-17.68-13.056-18.768-1.9-.272-3.808-.543-4.624-1.087-1.9-1.361-13.6-2.449-18.5-2.449-3.265,0-3.536-.272-1.9-1.36.816-.544,2.992-.815,6.256-.815a156.833,156.833,0,0,1,26.656,2.991c11.425,2.448,18.768,10.608,18.768,19.041,0,3.807-1.631,7.615-4.624,11.151a46.8,46.8,0,0,1-5.44,5.441,10.734,10.734,0,0,0-2.992,2.448c-1.088,1.088-5.44,3.536-9.52,5.439s-7.888,3.809-8.16,4.353,2.992,4.351,6.8,8.7c4.08,4.895,8.432,11.152,10.064,15.5,4.08,10.608,12.241,24.48,15.5,28.288a32.221,32.221,0,0,0,6.529,5.169c1.631,1.088,2.719,1.632,3.807,1.632a5.734,5.734,0,0,0,2.992-1.088c3.809-2.448,8.977-3.809,8.977-2.448,0,.543-1.36,1.9-2.992,2.992a19.857,19.857,0,0,1-11.153,3.263C785.473,1201.024,776.5,1196.944,768.88,1189.872Z"/>
      <path class="cls-29" d="M850.208,1187.968c-1.088-1.088-1.632-7.072-1.36-18.224,0-2.992.272-5.712.272-7.888,0-8.16-1.088-10.064-4.08-10.064a12.241,12.241,0,0,0-2.992.271c-1.632.273-5.985.817-9.521,1.088-11.151.817-24.479,4.9-26.383,7.889-1.088,1.632-1.632,6.528-1.632,10.88,0,3.809.544,7.345,1.359,8.16a6.675,6.675,0,0,1,1.36,4.08c0,1.632-.543,2.176-1.9,2.176-3.807,0-5.712-3.808-5.712-10.88a63.945,63.945,0,0,1,.817-9.248c2.175-12.512,6.8-29.376,8.16-31.553a42.267,42.267,0,0,0,3.536-8.975c1.9-7.345,7.888-15.5,14.416-21.489,9.248-8.7,14.144-11.967,18.5-13.328,3.536-1.088,5.712-1.632,7.616-1.632a12.4,12.4,0,0,1,5.984,1.632c5.713,2.992,7.072,5.168,8.432,14.416a88.179,88.179,0,0,1,.272,9.792c0,22.305-2.991,70.721-4.9,71.809a21.3,21.3,0,0,1-8.432,1.9C852.112,1188.784,850.752,1188.513,850.208,1187.968Zm-31.28-35.088c4.624-1.36,12.511-3.264,18.223-3.536,5.441-.272,10.337-1.361,10.881-1.9,1.36-1.359,2.72-27.744,2.72-42.7,0-5.44,0-9.248-.544-10.064a2.813,2.813,0,0,0-1.9-1.359c-2.449,0-13.056,7.615-14.416,9.248a51.805,51.805,0,0,1-5.712,5.983c-2.448,2.177-4.624,4.624-4.624,5.168,0,.816-1.361,2.721-2.72,4.9-5.169,8.161-13.057,33.729-10.881,35.9C810.5,1155.056,814.575,1154.24,818.928,1152.88Z"/>
      <path class="cls-29" d="M911.4,1183.344c-15.5-4.9-22.3-16.048-22.3-35.361a139.61,139.61,0,0,1,1.088-14.143c2.175-17.408,17.408-35.9,34-41.345a23.732,23.732,0,0,1,6.256-1.36c2.72,0,4.624,1.089,7.617,3.264,4.624,3.537,8.159,11.7,8.159,18.5,0,6.528-3.535,14.144-6.8,14.144-1.632,0-2.448-.272-2.448-1.633a28.78,28.78,0,0,1,1.36-5.168,23.171,23.171,0,0,0,1.088-6.256c0-5.44-1.9-10.879-5.168-14.144l-4.08-4.08-3.808,1.9c-4.624,2.448-11.7,12.24-14.688,20.128-4.08,10.337-5.985,23.393-5.985,34.545,0,7.616,1.088,14.416,2.993,18.768,2.448,5.44,3.808,7.344,7.072,7.344a28.287,28.287,0,0,0,4.08-.544c3.264-.816,5.984-2.992,10.88-8.976,3.536-4.08,6.256-7.072,7.616-7.072,2.72,0-6.528,15.232-9.248,15.232-1.088,0-1.632.544-1.632,1.088,0,.816-2.448,2.72-5.44,4.08s-4.624,1.9-6.256,1.9A13.51,13.51,0,0,1,911.4,1183.344Z"/>
      <path class="cls-29" d="M1031.628,1188.784c-4.9-5.44-13.328-19.312-13.328-22.032,0-1.36-2.176-5.712-5.168-10.064-2.721-4.081-5.985-9.52-7.345-11.968l-2.447-4.352-4.9.544c-14.96,1.632-14.416,1.632-16.047,16.592-2.177,19.856-2.449,20.944-9.521,20.944q-4.488,0-5.712-2.448c-.544-.815-.544-3.264-.544-5.984,0-5.168.544-12.24,1.9-14.144.544-.816,2.72-12.513,4.624-26.385,3.537-26.656,5.984-33.456,11.424-35.088a20.235,20.235,0,0,1,4.08-.816c1.088,0,1.361.544,2.449,1.632.815.816,1.088,2.992,1.088,5.712a86.855,86.855,0,0,1-3.809,23.121c-1.632,5.168-2.447,8.431-2.447,10.063s.815,2.177,2.447,2.177a20.686,20.686,0,0,0,3.809-.272c10.879-1.632,16.591-5.712,34.272-22.305,15.5-14.688,23.12-20.128,23.12-16.592,0,2.176-9.52,13.328-14.96,16.592a45.646,45.646,0,0,0-5.44,3.809c-1.632,1.631-16.321,13.328-18.5,14.688l-2.449,1.359,3.809,2.993c5.439,4.352,16.864,19.312,19.311,26.384,1.088,3.264,2.721,5.984,3.537,5.984.544,0,1.087,1.088,1.087,2.448s1.361,4.08,2.721,6.256l3.536,6.257c1.632,3.263,11.424,12.239,13.6,12.239,1.088,0,3.809-1.359,5.984-2.991s4.352-2.449,4.624-2.177.272.544.272,1.088c0,1.633-1.9,4.08-4.624,5.169a22.356,22.356,0,0,1-7.616,1.359C1046.588,1198.576,1037.34,1195.04,1031.628,1188.784Z"/>
    </g>
    <g>
      <path class="cls-29" d="M366.061,1039.671c-4.081-3.808-7.345-7.616-7.345-8.432s-2.448-7.344-5.984-14.416-6.256-13.056-6.256-13.6a29.934,29.934,0,0,0-4.624-5.441c-4.08-4.08-5.712-4.624-10.88-4.624-4.08,0-5.984.544-5.984,1.633,0,5.983-1.632,17.68-3.536,23.664s-4.624,9.52-7.072,9.52a3.288,3.288,0,0,1-2.448-1.632c-1.088-1.36-1.36-8.976-1.36-19.04,0-20.4,1.9-50.865,4.9-60.657,1.36-4.352,1.9-4.9,5.44-4.9,4.9,0,6.528,2.176,6.528,10.88,0,2.176,0,4.9-.272,7.889-.544,7.071-1.36,14.96-1.9,17.408a6.757,6.757,0,0,0-.272,2.176c0,1.631.544,2.448,1.36,2.719,7.616,1.9,11.968,2.992,15.5,2.992a13.436,13.436,0,0,0,6.528-1.36c3.264-1.359,8.7-5.168,12.512-9.248l6.528-6.8c0-1.9-.272-4.08-.272-5.984-.544-9.792-6.256-17.68-13.056-18.768-1.9-.272-3.808-.544-4.624-1.088-1.9-1.36-13.6-2.448-18.5-2.448-3.264,0-3.536-.272-1.9-1.36.816-.544,2.992-.816,6.256-.816a156.838,156.838,0,0,1,26.656,2.992c11.424,2.448,18.769,10.608,18.769,19.041,0,3.807-1.633,7.615-4.624,11.151a46.755,46.755,0,0,1-5.44,5.44,10.732,10.732,0,0,0-2.993,2.449c-1.088,1.088-5.44,3.536-9.52,5.439s-7.888,3.809-8.16,4.353,2.992,4.351,6.8,8.7c4.08,4.895,8.432,11.152,10.064,15.5,4.081,10.608,12.24,24.48,15.5,28.288a32.193,32.193,0,0,0,6.529,5.169c1.632,1.088,2.719,1.632,3.808,1.632a5.734,5.734,0,0,0,2.991-1.088c3.809-2.449,8.977-3.809,8.977-2.449,0,.544-1.36,1.9-2.992,2.993a19.859,19.859,0,0,1-11.152,3.263C382.652,1050.823,373.676,1046.743,366.061,1039.671Z"/>
      <path class="cls-29" d="M415.019,1030.967c-3.808-.816-11.424-7.344-13.6-11.968-1.36-2.992-2.176-10.608-2.176-17.137a38.6,38.6,0,0,1,.544-8.431l2.448-11.153c1.9-8.431,7.888-19.04,13.872-23.664,2.449-1.9,7.617-4.352,11.153-5.712a29.351,29.351,0,0,1,10.607-2.448c3.536,0,7.072,1.088,11.153,3.264,8.16,4.08,12.512,8.976,12.512,14.416,0,10.608-3.264,26.113-6.257,33.457-1.631,4.08-4.08,9.519-4.895,11.968-1.9,5.44-8.7,13.056-16.32,16.592a19.885,19.885,0,0,1-8.977,2.176A54.367,54.367,0,0,1,415.019,1030.967Zm14.688-3.808c6.8-2.992,9.248-5.712,14.145-13.328,6.255-9.792,10.064-22.305,11.152-35.9.271-4.08.815-8.16,1.088-12.24l-2.176-3.265c-1.36-1.9-3.809-4.08-5.712-4.352a20.956,20.956,0,0,1-7.072-2.719c-1.9-1.089-2.992-1.633-4.08-1.633a15.277,15.277,0,0,0-4.08,1.088c-9.792,3.536-13.057,9.52-17.137,31.552a124.44,124.44,0,0,0-2.176,20.4c0,10.064,2.448,16.592,7.344,20.4l3.265,2.448Z"/>
      <path class="cls-29" d="M546.12,1027.159c0-8.432.544-21.488,1.088-39.169.271-7.887.544-14.687.544-19.584s-.273-7.887-.544-7.887c-2.721,0-20.944,33.183-22.3,40.528a22.445,22.445,0,0,1-4.08,10.063,6.187,6.187,0,0,1-4.624,2.177c-4.08,0-7.072-5.168-8.975-14.688a88.8,88.8,0,0,0-2.993-11.7,62.332,62.332,0,0,1-2.448-7.616c-1.632-6.256-5.44-12.784-6.528-11.152-2.448,3.536-3.808,8.432-5.168,17.68a103.169,103.169,0,0,1-2.72,12.785c-.544,1.9-1.9,9.52-2.992,17.135-2.176,14.961-2.176,16.321-4.9,16.321-1.088,0-1.632-2.992-1.632-5.984,0-2.72.272-5.713,1.088-7.344,1.088-2.176,3.264-17.136,6.256-34,.816-4.624,2.176-10.336,3.264-12.241,1.088-2.175,2.992-8.431,4.08-13.872,1.088-5.984,2.72-10.064,3.536-10.064h1.361c1.9,0,3.807.272,4.624,1.088,3.263,3.264,6.8,11.152,7.615,15.5,1.36,7.887,5.984,23.12,7.345,26.656.815,2.176,1.9,3.263,2.992,3.263,1.9,0,3.807-2.719,5.439-7.887a29.768,29.768,0,0,1,5.168-9.521c2.448-2.719,3.809-5.44,3.809-5.984,0-1.359,3.807-8.976,5.983-10.064.544-.272,2.721-3.808,4.9-7.616,2.719-4.624,5.168-7.072,7.072-7.072h2.992c5.712,0,7.071.544,7.071,8.16,0,2.448,0,5.712-.271,10.065-.544,9.792-.816,19.311-1.36,29.1-.544,8.976-1.088,16.592-1.632,17.408-.272.544-.817,6.256-1.361,12.783-.544,7.345-1.631,11.969-2.991,12.241l-2.448.544c-2.448.544-4.9.816-5.44.272S546.12,1033.415,546.12,1027.159Z"/>
      <path class="cls-29" d="M599.157,992.614c0-1.359,1.088-2.176,3.536-2.719l28.832-2.993c1.088,0,1.9.817,2.721.817,1.088,0,1.632,0,2.176-.544.271-.273.544-.544.815-.544s.544.271.817.544H652.2c7.073,0,14.416,0,14.688.271a9.507,9.507,0,0,1,6.8,3.809,11.748,11.748,0,0,1,.271,1.359c0,1.088-.271,2.448-1.359,2.721H638.054c-.816,0-2.176-.273-3.536-.273l-22.3,2.72h-8.433C601.333,997.782,599.157,994.247,599.157,992.614Z"/>
      <path class="cls-29" d="M728.9,1033.143c-15.5-4.9-22.3-16.048-22.3-35.361a139.61,139.61,0,0,1,1.088-14.143c2.175-17.409,17.408-35.9,34-41.345a23.732,23.732,0,0,1,6.256-1.36c2.72,0,4.624,1.088,7.617,3.264,4.624,3.536,8.159,11.7,8.159,18.5,0,6.529-3.535,14.145-6.8,14.145-1.632,0-2.448-.273-2.448-1.633a28.78,28.78,0,0,1,1.36-5.168,23.171,23.171,0,0,0,1.088-6.256c0-5.44-1.9-10.88-5.168-14.144l-4.08-4.08-3.808,1.9c-4.624,2.448-11.7,12.24-14.688,20.128-4.08,10.337-5.984,23.392-5.984,34.545,0,7.616,1.087,14.416,2.992,18.768,2.448,5.44,3.808,7.344,7.072,7.344a28.287,28.287,0,0,0,4.08-.544c3.264-.816,5.984-2.992,10.88-8.976,3.536-4.081,6.256-7.072,7.616-7.072,2.72,0-6.528,15.232-9.248,15.232-1.088,0-1.632.544-1.632,1.088,0,.816-2.448,2.72-5.44,4.08s-4.624,1.9-6.256,1.9A13.51,13.51,0,0,1,728.9,1033.143Z"/>
      <path class="cls-29" d="M795.812,1030.967c-3.809-.816-11.425-7.344-13.6-11.968-1.359-2.992-2.176-10.608-2.176-17.137a38.6,38.6,0,0,1,.544-8.431l2.448-11.153c1.9-8.431,7.888-19.04,13.872-23.664,2.449-1.9,7.617-4.352,11.153-5.712a29.356,29.356,0,0,1,10.607-2.448c3.536,0,7.072,1.088,11.153,3.264,8.16,4.08,12.512,8.976,12.512,14.416,0,10.608-3.264,26.113-6.257,33.457-1.631,4.08-4.08,9.519-4.895,11.968-1.9,5.44-8.7,13.056-16.32,16.592a19.885,19.885,0,0,1-8.977,2.176A54.347,54.347,0,0,1,795.812,1030.967Zm14.687-3.808c6.8-2.992,9.248-5.712,14.145-13.328,6.255-9.792,10.064-22.305,11.152-35.9.271-4.08.815-8.16,1.088-12.24l-2.176-3.265c-1.36-1.9-3.809-4.08-5.712-4.352a20.956,20.956,0,0,1-7.072-2.719c-1.9-1.089-2.992-1.633-4.08-1.633a15.277,15.277,0,0,0-4.08,1.088c-9.792,3.536-13.057,9.52-17.137,31.552a124.55,124.55,0,0,0-2.176,20.4c0,10.064,2.448,16.592,7.344,20.4l3.265,2.448Z"/>
      <path class="cls-29" d="M926.911,1027.159c0-8.432.544-21.488,1.088-39.169.272-7.887.544-14.687.544-19.584s-.272-7.887-.544-7.887c-2.721,0-20.944,33.183-22.305,40.528a22.445,22.445,0,0,1-4.08,10.063,6.187,6.187,0,0,1-4.624,2.177c-4.08,0-7.072-5.168-8.975-14.688a88.8,88.8,0,0,0-2.993-11.7,62.332,62.332,0,0,1-2.448-7.616c-1.632-6.256-5.44-12.784-6.528-11.152-2.448,3.536-3.808,8.432-5.168,17.68a103.169,103.169,0,0,1-2.72,12.785c-.544,1.9-1.9,9.52-2.992,17.135-2.176,14.961-2.176,16.321-4.9,16.321-1.088,0-1.632-2.992-1.632-5.984,0-2.72.272-5.713,1.088-7.344,1.088-2.176,3.264-17.136,6.256-34,.816-4.624,2.176-10.336,3.264-12.241,1.088-2.175,2.992-8.431,4.08-13.872,1.088-5.984,2.72-10.064,3.536-10.064h1.361c1.9,0,3.807.272,4.624,1.088,3.263,3.264,6.8,11.152,7.615,15.5,1.36,7.887,5.984,23.12,7.345,26.656.815,2.176,1.9,3.263,2.992,3.263,1.9,0,3.807-2.719,5.439-7.887a29.768,29.768,0,0,1,5.168-9.521c2.448-2.719,3.809-5.44,3.809-5.984,0-1.359,3.807-8.976,5.983-10.064.544-.272,2.721-3.808,4.9-7.616,2.719-4.624,5.168-7.072,7.072-7.072h2.992c5.712,0,7.071.544,7.071,8.16,0,2.448,0,5.712-.271,10.065-.544,9.792-.816,19.311-1.36,29.1-.544,8.976-1.088,16.592-1.632,17.408-.272.544-.817,6.256-1.361,12.783-.544,7.345-1.631,11.969-2.991,12.241l-2.448.544c-2.448.544-4.9.816-5.44.272S926.911,1033.415,926.911,1027.159Z"/>
    </g>
  </g>
</svg>
