<svg xmlns="http://www.w3.org/2000/svg" xmlns:xlink="http://www.w3.org/1999/xlink" viewBox="0 0 1247 1247">
  <defs>
    <style>
      .cls-1 {
        fill: none;
      }

      .cls-2 {
        fill: #ded4c6;
      }

      .cls-3 {
        fill: #efeae2;
      }

      .cls-4 {
        fill: #f9e0bb;
      }

      .cls-5 {
        fill: #fef9f1;
      }

      .cls-6 {
        isolation: isolate;
      }

      .cls-7 {
        fill: url(#radial-gradient);
      }

      .cls-8 {
        opacity: 0.2;
        mix-blend-mode: screen;
        fill: url(#New_Pattern);
      }

      .cls-9 {
        fill: #e1d2cd;
      }

      .cls-10 {
        fill: #b5441b;
      }

      .cls-11 {
        fill: url(#linear-gradient);
      }

      .cls-12 {
        fill: #060017;
      }

      .cls-13 {
        fill: #3c1709;
      }

      .cls-14 {
        fill: #e0b732;
      }

      .cls-15 {
        fill: #913d13;
      }

      .cls-16 {
        fill: #a2bbd2;
      }

      .cls-17 {
        fill: #888fa3;
      }

      .cls-18, .cls-24 {
        fill: #cdccd1;
      }

      .cls-19 {
        fill: #0d0d1c;
      }

      .cls-20 {
        opacity: 0.62;
      }

      .cls-21 {
        fill: #ff8900;
      }

      .cls-22 {
        fill: #002534;
      }

      .cls-23 {
        fill: #1a1a1a;
        opacity: 0.37;
        mix-blend-mode: luminosity;
      }

      .cls-24 {
        stroke: #cdccd1;
        stroke-miterlimit: 10;
      }

      .cls-25 {
        fill: #f7df5e;
        opacity: 0.29;
      }

      .cls-26 {
        opacity: 0.6;
        mix-blend-mode: lighten;
        fill: url(#radial-gradient-2);
      }

      .cls-27 {
        fill: url(#radial-gradient-3);
      }
    </style>
    <radialGradient id="radial-gradient" cx="619.675" cy="964.501" r="712.756" gradientTransform="translate(2071.633 360.856) rotate(90.634) scale(1 1.498)" gradientUnits="userSpaceOnUse">
      <stop offset="0.198" stop-color="#001827"/>
      <stop offset="0.596" stop-color="#011625"/>
      <stop offset="0.822" stop-color="#030d20"/>
      <stop offset="1" stop-color="#060017"/>
    </radialGradient>
    <pattern id="New_Pattern" data-name="New Pattern" width="198.811" height="162.549" patternUnits="userSpaceOnUse" viewBox="0 0 198.811 162.549">
      <rect class="cls-1" width="198.811" height="162.549"/>
      <g>
        <circle class="cls-2" cx="165.676" cy="81.275" r="4.872"/>
        <circle class="cls-3" cx="196.311" cy="119.412" r="2.5"/>
      </g>
      <circle class="cls-2" cx="66.27" cy="162.549" r="4.872"/>
      <circle class="cls-4" cx="144.237" cy="31.607" r="4.872"/>
      <g>
        <circle class="cls-4" cx="101.842" cy="93.052" r="2.436"/>
        <circle class="cls-4" cx="44.831" cy="112.882" r="4.872"/>
        <circle class="cls-5" cx="149.109" cy="121.912" r="4.158"/>
        <circle class="cls-2" cx="66.27" r="4.872"/>
        <circle class="cls-5" cx="108.436" cy="140.669" r="4.158"/>
        <circle class="cls-3" cx="96.906" cy="38.137" r="2.5"/>
      </g>
      <g>
        <circle class="cls-4" cx="2.436" cy="11.778" r="2.436"/>
        <circle class="cls-5" cx="49.703" cy="40.637" r="4.158"/>
        <circle class="cls-5" cx="9.03" cy="59.394" r="4.158"/>
      </g>
    </pattern>
    <linearGradient id="linear-gradient" x1="115.545" y1="673.468" x2="1131.455" y2="673.468" gradientUnits="userSpaceOnUse">
      <stop offset="0" stop-color="#ebebeb"/>
      <stop offset="0.198" stop-color="#dee7f4"/>
      <stop offset="0.364" stop-color="#cfe3ff"/>
      <stop offset="0.483" stop-color="#cddff9"/>
      <stop offset="0.645" stop-color="#c7d3e8"/>
      <stop offset="0.831" stop-color="#bdc0cb"/>
      <stop offset="1" stop-color="#b2abab"/>
    </linearGradient>
    <radialGradient id="radial-gradient-2" cx="632.233" cy="1234.598" r="46.447" gradientTransform="matrix(-0.511, -0.86, 0.86, -0.511, 392.821, 1436.861)" gradientUnits="userSpaceOnUse">
      <stop offset="0.188" stop-color="#f5f5f5" stop-opacity="0"/>
      <stop offset="0.267" stop-color="#f3f3ee" stop-opacity="0.04"/>
      <stop offset="0.39" stop-color="#efeddb" stop-opacity="0.148"/>
      <stop offset="0.543" stop-color="#e8e2bc" stop-opacity="0.325"/>
      <stop offset="0.72" stop-color="#dfd491" stop-opacity="0.571"/>
      <stop offset="0.913" stop-color="#d3c35b" stop-opacity="0.882"/>
      <stop offset="0.981" stop-color="#cebc46"/>
    </radialGradient>
    <radialGradient id="radial-gradient-3" cx="1029.867" cy="152.404" r="74.287" gradientTransform="translate(171.089 -139.11) rotate(14.292)" gradientUnits="userSpaceOnUse">
      <stop offset="0" stop-color="#f5f5f5"/>
      <stop offset="0.077" stop-color="#efecda" stop-opacity="0.847"/>
      <stop offset="0.2" stop-color="#e6e0b3" stop-opacity="0.625"/>
      <stop offset="0.325" stop-color="#dfd592" stop-opacity="0.434"/>
      <stop offset="0.449" stop-color="#d9cc77" stop-opacity="0.277"/>
      <stop offset="0.571" stop-color="#d4c561" stop-opacity="0.156"/>
      <stop offset="0.69" stop-color="#d1c052" stop-opacity="0.069"/>
      <stop offset="0.807" stop-color="#cfbd49" stop-opacity="0.017"/>
      <stop offset="0.917" stop-color="#cebc46" stop-opacity="0"/>
    </radialGradient>
  </defs>
  <g class="cls-6">
    <g id="bg">
      <rect class="cls-7" width="1247" height="1247"/>
      <rect class="cls-8" width="1247" height="1247"/>
    </g>
    <g id="helmet">
      <rect class="cls-9" x="21.759" y="445.188" width="1203.481" height="375.725" rx="187.862"/>
      <path class="cls-10" d="M1002.779,1165.212a2708.348,2708.348,0,0,1-758.558,0c-66.671-9.687-120.849-81.958-120.829-156.949Q102.151,876.646,80.848,746.974c-17.8-108.294.786-214.263,54.382-306.124,85.154-145.114,245.348-251.2,427.517-251.413H684.253c184.155.236,345.853,108.587,430.275,256.2,51.591,90.737,69.113,194.932,51.633,301.286q-21.314,129.652-42.553,261.34C1123.628,1083.255,1069.45,1155.525,1002.779,1165.212Z"/>
      <path class="cls-11" d="M957.242,1037.16H289.758c-49.543-.637-113.2-58.383-130.028-130.8C124.824,785.837,110.179,662.818,117.3,543.771c2.2-36.787,14.257-72.279,35.4-101.951,27.032-37.944,65.746-68.891,101.447-79.059,260.058-70.645,478.664-70.645,738.722,0,36.479,10.39,76.1,42.474,103.2,81.55,20.17,29.089,31.5,63.686,33.642,99.415,7.125,119.061-7.52,242.1-42.43,362.63C1070.447,978.776,1006.785,1036.523,957.242,1037.16Z"/>
      <path class="cls-12" d="M929.794,1013H317.206c-45.469-.565-103.894-51.8-119.333-116.059-34.267-114.379-47.258-231.3-37.288-343.725,9.447-59.855,70.382-123.846,123.931-138.592,238.67-62.681,439.3-62.681,677.968,0,53.548,14.746,114.484,78.737,123.931,138.592,9.97,112.428-3.021,229.346-37.287,343.725C1033.688,961.2,975.262,1012.434,929.794,1013Z"/>
      <g id="Layer_12" data-name="Layer 12">
        <ellipse class="cls-13" cx="343.113" cy="1110.929" rx="49.935" ry="60.819"/>
        <ellipse class="cls-14" cx="343.113" cy="1110.929" rx="35.175" ry="42.841"/>
        <ellipse class="cls-15" cx="343.113" cy="1110.929" rx="30.105" ry="36.666"/>
      </g>
      <g id="Layer_13" data-name="Layer 13">
        <path class="cls-16" d="M346.8,1079.266c-.046-.034-.093-.067-.141-.1-5.249-3.617-14.231-.684-20.25-.989-50.872-2.575-138.94-1.956-177.744-40.635-14.114-14.069-21.644-33.451-26.339-52.818C112.226,943.082,106.545,900.915,99.65,858.7c-4.331-26.52-8.193-48.173-10.787-62.363a237.348,237.348,0,0,0-31.638,60.007C33.886,922.335,40.017,999.1,78.2,1058.4c48.279,74.978,125.39,80.636,207.058,84.448,15.17.711,30.167,3.665,45.387,4.047,9.281.232,14.895.592,20.38-7.729,11.064-16.782,11-41.174-1.6-57.22A13.487,13.487,0,0,0,346.8,1079.266Z"/>
        <path class="cls-17" d="M301.727,1085.016c.747.9,1.452,1.84,2.155,2.793.642.978,1.263,1.979,1.891,2.989l1.067,3.32.906,3.365a69.1,69.1,0,0,1,.967,27.665l-.669,3.42c-.293,1.125-.544,2.26-.846,3.382-.564,1.049-1.108,2.092-1.682,3.112q-.939,1.5-1.936,2.943c.121-1.174.255-2.326.41-3.456l.318-3.4c.249-1.082.55-2.15.808-3.23l.639-3.268a66.093,66.093,0,0,0-.925-26.46l-.866-3.215-1.046-3.161-.558-3.37C302.134,1087.322,301.909,1086.188,301.727,1085.016Z"/>
        <path class="cls-17" d="M244.593,1136.256c.355-2.2.764-4.323,1.055-6.446a59.224,59.224,0,0,0,1.853-6,64.11,64.11,0,0,0,1.9-12.407,73.164,73.164,0,0,0-.416-12.571c-.276-2.083-.583-4.165-1.019-6.223.02-2.153-.048-4.319-.058-6.545a46.76,46.76,0,0,1,3,5.943c.452,2.136.772,4.3,1.059,6.464a76.336,76.336,0,0,1,.433,13.1,67.192,67.192,0,0,1-1.984,12.977l-.883,3.168c-.331,1.045-.658,2.092-1.029,3.123A37.089,37.089,0,0,1,244.593,1136.256Z"/>
        <path class="cls-17" d="M197.9,1070.038c.307,1.287.56,2.593.806,3.913.162,1.318.3,2.648.431,3.992l-.51,3.94-.725,3.9a70.509,70.509,0,0,1-13.372,28.51l-2.539,3.053c-.913.96-1.795,1.949-2.715,2.9-1.126.748-2.229,1.5-3.347,2.217q-1.749.993-3.511,1.9,1.216-1.591,2.439-3.1l2.29-3.13c.85-.938,1.738-1.839,2.594-2.771l2.428-2.92a67.518,67.518,0,0,0,12.8-27.291l.692-3.734.458-3.768.938-3.761C197.312,1072.624,197.577,1071.34,197.9,1070.038Z"/>
        <path class="cls-17" d="M117.957,1094.937c.217-1.069.487-2.122.767-3.18.317-1.037.663-2.067,1.009-3.106l1.721-2.7,1.8-2.649a92.473,92.473,0,0,1,17.483-18.62l2.53-1.966c.873-.615,1.72-1.267,2.6-1.875,1.02-.4,2.023-.819,3.039-1.2,1.033-.354,2.073-.679,3.115-.982q-1.116,1.2-2.243,2.335l-2.2,2.308c-.825.621-1.681,1.2-2.511,1.814l-2.447,1.9a89.526,89.526,0,0,0-16.915,18.015l-1.743,2.562-1.639,2.628c-.71.777-1.421,1.562-2.161,2.34C119.452,1093.356,118.731,1094.154,117.957,1094.937Z"/>
        <path class="cls-17" d="M75.68,1047.3c.387-1.236.827-2.457,1.28-3.683.506-1.192,1.042-2.378,1.581-3.574l2.318-3.088,2.444-2.988a86.732,86.732,0,0,1,23.8-19.408l3.418-1.793c1.171-.535,2.323-1.109,3.5-1.635,1.283-.279,2.55-.571,3.82-.825q1.933-.308,3.858-.531-1.645,1.056-3.279,2.033l-3.191,2.069c-1.116.544-2.254,1.04-3.373,1.577l-3.3,1.729a83.748,83.748,0,0,0-22.977,18.736l-2.358,2.882-2.212,2.995-2.665,2.711C77.484,1045.435,76.609,1046.373,75.68,1047.3Z"/>
        <path class="cls-17" d="M49.6,986.886c.264-1.379.586-2.755.92-4.141.417-1.347.867-2.7,1.32-4.056l2.184-3.62,2.386-3.488A72.48,72.48,0,0,1,81.882,949.84l3.819-1.809c1.312-.515,2.608-1.069,3.924-1.574,1.418-.225,2.817-.463,4.213-.662,1.419-.122,2.83-.212,4.229-.278q-1.9.951-3.772,1.821l-3.64,1.936c-1.243.522-2.506.993-3.753,1.506l-3.656,1.731a69.492,69.492,0,0,0-24.411,20.837l-2.284,3.339-2.063,3.477-2.479,3.292C51.234,984.593,50.446,985.741,49.6,986.886Z"/>
        <path class="cls-17" d="M51.511,910.55c.646-.882,1.334-1.728,2.035-2.575.727-.809,1.478-1.6,2.234-2.4l2.717-1.725,2.774-1.632a85.028,85.028,0,0,1,23.99-9.063l3.16-.609c1.062-.151,2.118-.346,3.181-.488,1.1.109,2.183.2,3.264.328q1.626.246,3.227.568-1.551.553-3.076,1.035L92,895.031c-1.019.177-2.046.3-3.067.47l-3.047.587a82.118,82.118,0,0,0-23.142,8.743l-2.675,1.574-2.6,1.688c-.972.406-1.949.819-2.95,1.216C53.535,909.734,52.544,910.16,51.511,910.55Z"/>
        <path class="cls-17" d="M65.168,846.405a17.008,17.008,0,0,1,1.019-1.5c.371-.463.763-.9,1.161-1.354.5-.225,1.014-.436,1.513-.672l1.531-.63A45.444,45.444,0,0,1,83.25,839.3q1.651-.121,3.307-.141c.554.24,1.1.46,1.634.716s1.06.568,1.573.886c-1.106.533-2.162.943-3.19,1.4q-1.543.018-3.085.132a42.439,42.439,0,0,0-12.007,2.756c-.955.386-1.909.776-2.828,1.241C67.534,846.332,66.407,846.423,65.168,846.405Z"/>
      </g>
      <g id="Layer_16" data-name="Layer 16">
        <circle class="cls-13" cx="790.294" cy="1113.802" r="37.004"/>
        <circle class="cls-13" cx="899.294" cy="1113.802" r="37.004"/>
      </g>
    </g>
    <g id="skull">
      <path class="cls-18" d="M912.58,748.181a324.322,324.322,0,0,1-33.486,46.51,13.122,13.122,0,0,0,.2,17.25,67.792,67.792,0,0,1,7.583,10.29c21.99,36.88-14.06,75.48-49.67,89.39-16.3,6.364-36.788,10.515-57.8,11.416a6.63,6.63,0,0,0-3.984,11.737l.144.117a9.044,9.044,0,0,1,1.74,1.86c.09.13.18.26.27.4a8.76,8.76,0,0,0,1.08,1.35,30.578,30.578,0,0,1,5.63,8.27c.92,2.14,1.96,4.27,3.05,6.39,3.97,6.88-.43,15.55-9.07,19.19q-19.455,6.615-39.3,11.5c-5.72,1.66-11.9-4.7-16.15-12.73-1.32,8.84-5.28,17.23-11.13,18.63q-20.01,3.72-40.22,5.74c-5.89.63-11.47-8.67-14.82-19.15h-.01c-2.26,10.75-6.95,20.73-12.87,21.12-13.5.56-27.04.56-40.53,0-5.93-.39-10.62-10.37-12.88-21.12-3.25,10.14-8.58,19.18-14.26,19.18a5.441,5.441,0,0,1-.57-.03q-20.19-2.025-40.22-5.74c-5.85-1.4-9.81-9.79-11.13-18.63-4.25,8.03-10.43,14.39-16.15,12.73q-19.815-4.9-39.3-11.5c-8.64-3.64-13.04-12.31-9.07-19.19,1.09-2.12,2.13-4.25,3.05-6.39a30.806,30.806,0,0,1,5.63-8.27,8.824,8.824,0,0,0,1.09-1.35c.08-.14.17-.27.26-.4a9.044,9.044,0,0,1,1.74-1.86l.144-.117a6.63,6.63,0,0,0-3.984-11.737c-21.011-.9-41.5-5.052-57.79-11.416-35.62-13.91-71.66-52.51-49.68-89.39a67.792,67.792,0,0,1,7.583-10.29,13.122,13.122,0,0,0,.2-17.25,324.322,324.322,0,0,1-33.486-46.51c-35.48-60.35-38.48-143.51,12.71-222.32,48.92-77,152.03-149.66,276.37-147.35,124.34-2.31,227.45,70.35,276.37,147.35C951.06,604.671,948.06,687.831,912.58,748.181Z"/>
      <g id="Layer_7" data-name="Layer 7">
        <path class="cls-19" d="M576.634,706.72c0,40.686-28.355,73.669-75.612,73.669s-55.267-36.421-55.267-73.669c0-44.7,19.557-73.669,55.267-73.669C542.781,633.051,576.634,666.034,576.634,706.72Z"/>
        <path class="cls-19" d="M670.367,706.72c0,40.686,28.355,73.669,75.612,73.669s55.268-36.421,55.268-73.669c0-44.7-19.558-73.669-55.268-73.669C704.22,633.051,670.367,666.034,670.367,706.72Z"/>
        <path class="cls-19" d="M606.517,799.467a26.426,26.426,0,0,1-3.655,7.363c-2.916,3.842-7.355,6.325-10.806,9.63-6.706,6.421-18.017,18.672-12.839,28.821a13.425,13.425,0,0,0,5.069,5.014c9.783,6.109,24.732,6.63,31.326-4.278,4.667-7.719,4.482-17.476,4.05-26.174-.287-5.771-.475-11.55-.939-17.311-.243-3.013.136-14.474-3.567-15.365-3.811-.917-6.008,4.354-6.944,7.143C607.649,795.988,607.121,797.739,606.517,799.467Z"/>
        <path class="cls-19" d="M640.484,799.467a26.426,26.426,0,0,0,3.655,7.363c2.916,3.842,7.355,6.325,10.806,9.63,6.706,6.421,18.017,18.672,12.839,28.821a13.425,13.425,0,0,1-5.069,5.014c-9.783,6.109-24.732,6.63-31.326-4.278-4.667-7.719-4.482-17.476-4.05-26.174.287-5.771.475-11.55.939-17.311.243-3.013-.136-14.474,3.567-15.365,3.811-.917,6.008,4.354,6.944,7.143C639.352,795.988,639.88,797.739,640.484,799.467Z"/>
      </g>
    </g>
    <g id="helmet_shield" data-name="helmet shield">
      <g class="cls-20">
        <g>
          <path class="cls-21" d="M317.206,1007.5c-20.884-.26-45.387-12.161-67.158-32.65-23.165-21.8-39.8-49.926-46.828-79.194l-.035-.147-.044-.146c-34.092-113.8-46.677-227.474-37.4-337.87a69.965,69.965,0,0,1,1.153-8.22c5.484-26.794,21.5-55.429,45.1-80.627,22.729-24.272,49.7-42.029,73.992-48.719,119.925-31.5,230.351-46.813,337.524-46.813s217.6,15.318,337.586,46.83c24.231,6.673,51.2,24.43,73.929,48.7,23.6,25.2,39.612,53.833,45.1,80.627a69.786,69.786,0,0,1,1.153,8.22c9.272,110.394-3.313,224.07-37.4,337.87l-.044.146-.035.147c-7.032,29.268-23.663,57.393-46.828,79.194-21.761,20.479-46.25,32.379-67.2,32.65Z"/>
          <path class="cls-22" d="M623.5,378.613A1176.516,1176.516,0,0,1,787.9,390.26c55.317,7.725,111.484,19.168,171.715,34.984,23.33,6.44,49.344,23.626,71.382,47.16,22.579,24.113,38.515,52.532,43.722,77.971a64.544,64.544,0,0,1,1.06,7.577,862.316,862.316,0,0,1-2.571,167.131,959.569,959.569,0,0,1-34.622,168.7l-.087.292-.071.295c-6.785,28.239-22.855,55.4-45.249,76.474-20.452,19.248-44.169,30.89-63.461,31.155H317.278c-19.292-.265-43.009-11.907-63.461-31.155-22.394-21.076-38.464-48.235-45.249-76.474l-.071-.295-.087-.292a959.58,959.58,0,0,1-34.622-168.7,862.3,862.3,0,0,1-2.571-167.13,64.544,64.544,0,0,1,1.06-7.577C177.484,524.936,193.42,496.517,216,472.4c22.038-23.534,48.051-40.72,71.381-47.16,60.232-15.816,116.4-27.259,171.716-34.984a1176.516,1176.516,0,0,1,164.4-11.647m0-11c-109.824,0-219.649,15.67-338.984,47.01C232.469,428.955,173.445,489.808,161.5,548.169a76.024,76.024,0,0,0-1.244,8.862c-9.345,111.256,3.738,226.823,37.617,339.909C213.312,961.2,271.737,1012.434,317.206,1013H929.794c45.468-.565,103.894-51.8,119.334-116.059,33.878-113.086,46.961-228.653,37.616-339.909a75.6,75.6,0,0,0-1.245-8.862c-11.944-58.361-70.969-119.214-123.015-133.546-119.335-31.34-229.16-47.01-338.984-47.01Z"/>
        </g>
      </g>
      <g id="Layer_15" data-name="Layer 15">
        <path class="cls-23" d="M1049.13,896.94c-15.44,64.26-73.87,115.49-119.34,116.06H533.51c78.66-58.27,182.4-155.59,255.71-304.48,60.52-122.9,78.72-237.11,83.83-314.79q43.95,8.925,89.43,20.89c52.05,14.34,111.08,75.19,123.02,133.55a75.526,75.526,0,0,1,1.24,8.86C1096.09,668.29,1083.01,783.85,1049.13,896.94Z"/>
      </g>
    </g>
    <g id="title">
      <g>
        <path class="cls-24" d="M169.922,70.891v1.13H144.836a10.746,10.746,0,0,0-7.571,2.6,8.526,8.526,0,0,0-2.825,6.554V90.44q0,3.957,1.582,5.537a7.542,7.542,0,0,0,4.181,2.034l23.843,4.859a10.465,10.465,0,0,1,5.593,2.938q2.2,2.262,2.2,8.136V120.5a10.807,10.807,0,0,1-3.39,8.192q-3.39,3.22-9.153,3.221H131.163v-1.13H159.3a11.733,11.733,0,0,0,8.3-2.882,9.637,9.637,0,0,0,3.108-7.4v-6.554q0-5.31-1.865-7.288A9.414,9.414,0,0,0,163.82,104l-23.843-4.859a9.424,9.424,0,0,1-4.8-2.316q-1.864-1.751-1.864-6.385V81.174a9.56,9.56,0,0,1,3.164-7.4,11.939,11.939,0,0,1,8.362-2.881Z"/>
        <path class="cls-24" d="M256.14,109.65H232.862v22.261h-1.13V70.891H256.14a26.257,26.257,0,0,1,8.644,1.187,12.186,12.186,0,0,1,5.142,3.22,11.091,11.091,0,0,1,2.486,4.859,26.115,26.115,0,0,1,.678,6.1v8.362a25.39,25.39,0,0,1-.678,6.046,10.669,10.669,0,0,1-2.486,4.746,12.043,12.043,0,0,1-5.142,3.107A27.458,27.458,0,0,1,256.14,109.65Zm-23.278-1.13H256.14a26.559,26.559,0,0,0,8.079-1.017,10.922,10.922,0,0,0,4.8-2.881,9.961,9.961,0,0,0,2.317-4.408,23.611,23.611,0,0,0,.621-5.593V86.259a24.35,24.35,0,0,0-.621-5.65,10.375,10.375,0,0,0-2.317-4.52,11.075,11.075,0,0,0-4.8-2.994,25.24,25.24,0,0,0-8.079-1.074H232.862Z"/>
        <path class="cls-24" d="M373.094,131.911V112.475H329.025v19.436H327.9V107.842a31.019,31.019,0,0,1,.508-5.82,33.307,33.307,0,0,1,1.413-5.141l7.232-18.532a23.264,23.264,0,0,1,2.825-5.311q1.581-2.145,5.424-2.147h11.074q3.729,0,5.254,2.147a27.713,27.713,0,0,1,2.882,5.424l7.8,18.419a33.419,33.419,0,0,1,1.413,5.141,31.016,31.016,0,0,1,.509,5.82v24.069Zm-44.069-24.069v3.5h44.069v-3.5a29.46,29.46,0,0,0-.508-5.65,35.377,35.377,0,0,0-1.3-4.859l-7.8-18.419a28.186,28.186,0,0,0-2.6-4.915q-1.356-1.975-4.52-1.978H345.3q-3.39,0-4.746,1.978a24.706,24.706,0,0,0-2.486,4.8l-7.232,18.532a35.093,35.093,0,0,0-1.3,4.859A29.46,29.46,0,0,0,329.025,107.842Z"/>
        <path class="cls-24" d="M470.613,130.781v1.13H451.742q-10.962,0-14.521-3.39t-3.559-11.187V85.694q0-8.022,3.616-11.413t14.464-3.39h18.871v1.13H451.742q-9.945,0-13.447,3.107t-3.5,10.566v31.64q0,7.347,3.39,10.4t13.56,3.051Z"/>
        <path class="cls-24" d="M566.663,130.781v1.13H528.582V70.891h38.081v1.13H529.712v28.363h27.8v1.13h-27.8v29.267Z"/>
        <path class="cls-24" d="M708.7,130.781v1.13H689.83q-10.961,0-14.52-3.39t-3.56-11.187V85.694q0-8.022,3.616-11.413t14.464-3.39H708.7v1.13H689.83q-9.945,0-13.447,3.107t-3.5,10.566v31.64q0,7.347,3.391,10.4t13.559,3.051Z"/>
        <path class="cls-24" d="M809.836,131.911V112.475h-44.07v19.436h-1.13V107.842a30.932,30.932,0,0,1,.509-5.82,33.3,33.3,0,0,1,1.412-5.141l7.232-18.532a23.264,23.264,0,0,1,2.825-5.311q1.581-2.145,5.424-2.147h11.074q3.729,0,5.254,2.147a27.713,27.713,0,0,1,2.882,5.424l7.8,18.419a33.53,33.53,0,0,1,1.412,5.141,31.016,31.016,0,0,1,.509,5.82v24.069Zm-44.07-24.069v3.5h44.07v-3.5a29.457,29.457,0,0,0-.509-5.65,35.235,35.235,0,0,0-1.3-4.859l-7.8-18.419a28.186,28.186,0,0,0-2.6-4.915q-1.356-1.975-4.52-1.978H782.038q-3.39,0-4.746,1.978a24.706,24.706,0,0,0-2.486,4.8l-7.233,18.532a35.236,35.236,0,0,0-1.3,4.859A29.457,29.457,0,0,0,765.766,107.842Z"/>
        <path class="cls-24" d="M871.759,131.911V70.891h27.346a28.909,28.909,0,0,1,9.322,1.243,13.206,13.206,0,0,1,5.48,3.334,10.9,10.9,0,0,1,2.6,4.971,26.842,26.842,0,0,1,.678,6.159v29.945a28.447,28.447,0,0,1-.621,6.1,10.1,10.1,0,0,1-2.543,4.859,13.073,13.073,0,0,1-5.537,3.221,30.745,30.745,0,0,1-9.379,1.186Zm27.346-59.89H872.889v58.76h26.216a29.3,29.3,0,0,0,8.758-1.073A12.263,12.263,0,0,0,913,126.77a9.46,9.46,0,0,0,2.429-4.52,25.077,25.077,0,0,0,.622-5.707V86.6a23.741,23.741,0,0,0-.678-5.763,10.28,10.28,0,0,0-2.486-4.633,12.394,12.394,0,0,0-5.142-3.051A27.516,27.516,0,0,0,899.105,72.021Z"/>
        <path class="cls-24" d="M1016.737,130.781v1.13H978.656V70.891h38.081v1.13H979.785v28.363h27.8v1.13h-27.8v29.267Z"/>
        <path class="cls-24" d="M1091.542,131.911V72.021h-23.165v-1.13h47.46v1.13h-23.165v59.89Z"/>
      </g>
      <g>
        <path class="cls-24" d="M169.922,70.891v1.13H144.836a10.746,10.746,0,0,0-7.571,2.6,8.526,8.526,0,0,0-2.825,6.554V90.44q0,3.957,1.582,5.537a7.542,7.542,0,0,0,4.181,2.034l23.843,4.859a10.465,10.465,0,0,1,5.593,2.938q2.2,2.262,2.2,8.136V120.5a10.807,10.807,0,0,1-3.39,8.192q-3.39,3.22-9.153,3.221H131.163v-1.13H159.3a11.733,11.733,0,0,0,8.3-2.882,9.637,9.637,0,0,0,3.108-7.4v-6.554q0-5.31-1.865-7.288A9.414,9.414,0,0,0,163.82,104l-23.843-4.859a9.424,9.424,0,0,1-4.8-2.316q-1.864-1.751-1.864-6.385V81.174a9.56,9.56,0,0,1,3.164-7.4,11.939,11.939,0,0,1,8.362-2.881Z"/>
        <path class="cls-24" d="M256.14,109.65H232.862v22.261h-1.13V70.891H256.14a26.257,26.257,0,0,1,8.644,1.187,12.186,12.186,0,0,1,5.142,3.22,11.091,11.091,0,0,1,2.486,4.859,26.115,26.115,0,0,1,.678,6.1v8.362a25.39,25.39,0,0,1-.678,6.046,10.669,10.669,0,0,1-2.486,4.746,12.043,12.043,0,0,1-5.142,3.107A27.458,27.458,0,0,1,256.14,109.65Zm-23.278-1.13H256.14a26.559,26.559,0,0,0,8.079-1.017,10.922,10.922,0,0,0,4.8-2.881,9.961,9.961,0,0,0,2.317-4.408,23.611,23.611,0,0,0,.621-5.593V86.259a24.35,24.35,0,0,0-.621-5.65,10.375,10.375,0,0,0-2.317-4.52,11.075,11.075,0,0,0-4.8-2.994,25.24,25.24,0,0,0-8.079-1.074H232.862Z"/>
        <path class="cls-24" d="M373.094,131.911V112.475H329.025v19.436H327.9V107.842a31.019,31.019,0,0,1,.508-5.82,33.307,33.307,0,0,1,1.413-5.141l7.232-18.532a23.264,23.264,0,0,1,2.825-5.311q1.581-2.145,5.424-2.147h11.074q3.729,0,5.254,2.147a27.713,27.713,0,0,1,2.882,5.424l7.8,18.419a33.419,33.419,0,0,1,1.413,5.141,31.016,31.016,0,0,1,.509,5.82v24.069Zm-44.069-24.069v3.5h44.069v-3.5a29.46,29.46,0,0,0-.508-5.65,35.377,35.377,0,0,0-1.3-4.859l-7.8-18.419a28.186,28.186,0,0,0-2.6-4.915q-1.356-1.975-4.52-1.978H345.3q-3.39,0-4.746,1.978a24.706,24.706,0,0,0-2.486,4.8l-7.232,18.532a35.093,35.093,0,0,0-1.3,4.859A29.46,29.46,0,0,0,329.025,107.842Z"/>
        <path class="cls-24" d="M470.613,130.781v1.13H451.742q-10.962,0-14.521-3.39t-3.559-11.187V85.694q0-8.022,3.616-11.413t14.464-3.39h18.871v1.13H451.742q-9.945,0-13.447,3.107t-3.5,10.566v31.64q0,7.347,3.39,10.4t13.56,3.051Z"/>
        <path class="cls-24" d="M566.663,130.781v1.13H528.582V70.891h38.081v1.13H529.712v28.363h27.8v1.13h-27.8v29.267Z"/>
        <path class="cls-24" d="M708.7,130.781v1.13H689.83q-10.961,0-14.52-3.39t-3.56-11.187V85.694q0-8.022,3.616-11.413t14.464-3.39H708.7v1.13H689.83q-9.945,0-13.447,3.107t-3.5,10.566v31.64q0,7.347,3.391,10.4t13.559,3.051Z"/>
        <path class="cls-24" d="M809.836,131.911V112.475h-44.07v19.436h-1.13V107.842a30.932,30.932,0,0,1,.509-5.82,33.3,33.3,0,0,1,1.412-5.141l7.232-18.532a23.264,23.264,0,0,1,2.825-5.311q1.581-2.145,5.424-2.147h11.074q3.729,0,5.254,2.147a27.713,27.713,0,0,1,2.882,5.424l7.8,18.419a33.53,33.53,0,0,1,1.412,5.141,31.016,31.016,0,0,1,.509,5.82v24.069Zm-44.07-24.069v3.5h44.07v-3.5a29.457,29.457,0,0,0-.509-5.65,35.235,35.235,0,0,0-1.3-4.859l-7.8-18.419a28.186,28.186,0,0,0-2.6-4.915q-1.356-1.975-4.52-1.978H782.038q-3.39,0-4.746,1.978a24.706,24.706,0,0,0-2.486,4.8l-7.233,18.532a35.236,35.236,0,0,0-1.3,4.859A29.457,29.457,0,0,0,765.766,107.842Z"/>
        <path class="cls-24" d="M871.759,131.911V70.891h27.346a28.909,28.909,0,0,1,9.322,1.243,13.206,13.206,0,0,1,5.48,3.334,10.9,10.9,0,0,1,2.6,4.971,26.842,26.842,0,0,1,.678,6.159v29.945a28.447,28.447,0,0,1-.621,6.1,10.1,10.1,0,0,1-2.543,4.859,13.073,13.073,0,0,1-5.537,3.221,30.745,30.745,0,0,1-9.379,1.186Zm27.346-59.89H872.889v58.76h26.216a29.3,29.3,0,0,0,8.758-1.073A12.263,12.263,0,0,0,913,126.77a9.46,9.46,0,0,0,2.429-4.52,25.077,25.077,0,0,0,.622-5.707V86.6a23.741,23.741,0,0,0-.678-5.763,10.28,10.28,0,0,0-2.486-4.633,12.394,12.394,0,0,0-5.142-3.051A27.516,27.516,0,0,0,899.105,72.021Z"/>
        <path class="cls-24" d="M1016.737,130.781v1.13H978.656V70.891h38.081v1.13H979.785v28.363h27.8v1.13h-27.8v29.267Z"/>
        <path class="cls-24" d="M1091.542,131.911V72.021h-23.165v-1.13h47.46v1.13h-23.165v59.89Z"/>
      </g>
    </g>
    <g id="star">
      <polygon class="cls-25" points="1134.262 251.804 1164.035 243.47 1142.472 265.627 1150.806 295.401 1128.649 273.837 1098.875 282.171 1120.439 260.014 1112.105 230.24 1134.262 251.804"/>
      <polygon class="cls-26" points="1120.484 269.337 1067.802 246.604 1124.939 251.849 1147.671 199.167 1142.427 256.304 1195.109 279.037 1137.972 273.792 1115.239 326.474 1120.484 269.337"/>
      <circle class="cls-27" cx="1131.455" cy="262.821" r="74.287"/>
    </g>
  </g>
</svg>
